<svg width="72" height="72" viewBox="0 0 72 72" fill="none" xmlns="http://www.w3.org/2000/svg">
<g clip-path="url(#clip0)">
<path d="M32.9369 36.4751C42.2359 23.2595 57.94 21.7289 45.1143 12.7042C32.2887 3.67963 18.1764 1.64345 8.87737 14.8591C-0.42163 28.0747 2.43731 46.104 15.263 55.1286C28.0887 64.1532 23.6379 49.6907 32.9369 36.4751Z" fill="#9B51E0"/>
<path d="M29.468 29.7081C16.7969 47.7161 -4.60211 49.8017 12.8746 62.099C30.3513 74.3962 49.5811 77.1708 62.2522 59.1627C74.9233 41.1547 71.0277 16.5874 53.551 4.29017C36.0743 -8.00707 42.1391 11.7 29.468 29.7081Z" fill="#F6D446"/>
<rect x="20" y="18.3333" width="31" height="37" rx="4" fill="white"/>
<path fill-rule="evenodd" clip-rule="evenodd" d="M26.0656 21.0656C26.5344 20.5967 27.1703 20.3333 27.8333 20.3333H48.6667V42H27.8333C26.9603 42 26.1074 42.1957 25.3333 42.5629V22.8333C25.3333 22.1703 25.5967 21.5344 26.0656 21.0656ZM22 47.8333V22.8333C22 21.2862 22.6146 19.8025 23.7085 18.7085C24.8025 17.6146 26.2862 17 27.8333 17H50.3333C51.2538 17 52 17.7462 52 18.6667V43.6667V52C52 52.9205 51.2538 53.6667 50.3333 53.6667H27.8333C26.2862 53.6667 24.8025 53.0521 23.7085 51.9581C22.6146 50.8642 22 49.3804 22 47.8333ZM48.6667 45.3333V50.3333H27.8333C27.1703 50.3333 26.5344 50.0699 26.0656 49.6011C25.5967 49.1323 25.3333 48.4964 25.3333 47.8333C25.3333 47.1703 25.5967 46.5344 26.0656 46.0656C26.5344 45.5967 27.1703 45.3333 27.8333 45.3333H48.6667Z" fill="#321F4A"/>
</g>
<defs>
<clipPath id="clip0">
<rect width="72" height="72" fill="white"/>
</clipPath>
</defs>
</svg>
