<svg width="72" height="72" viewBox="0 0 72 72" fill="none" xmlns="http://www.w3.org/2000/svg">
<g clip-path="url(#clip0)">
<path d="M32.9369 36.4751C42.2359 23.2595 57.94 21.7289 45.1143 12.7042C32.2886 3.67963 18.1764 1.64344 8.87737 14.8591C-0.42163 28.0747 2.43731 46.104 15.263 55.1286C28.0887 64.1532 23.6379 49.6907 32.9369 36.4751Z" fill="#9B51E0"/>
<path d="M29.468 29.7081C16.7969 47.7161 -4.60211 49.8017 12.8746 62.099C30.3513 74.3962 49.5811 77.1708 62.2522 59.1627C74.9233 41.1547 71.0277 16.5874 53.551 4.29017C36.0743 -8.00707 42.1391 11.7 29.468 29.7081Z" fill="#F6D446"/>
<path d="M57 39C57 39 47.1503 39 35 39C22.8497 39 13 39 13 39C13 26.8497 22.8497 17 35 17C47.1503 17 57 26.8497 57 39Z" fill="white"/>
<path fill-rule="evenodd" clip-rule="evenodd" d="M20.3018 23.8401C24.4607 20.0822 29.8794 18 35.5 18C41.1206 18 46.5393 20.0822 50.6982 23.8401C54.8571 27.598 57.4574 32.7617 57.9915 38.3229C58.0417 38.8456 57.8677 39.3651 57.5124 39.7536C57.157 40.1421 56.6533 40.3636 56.125 40.3636H37.375V51.5455C37.375 52.534 37.7701 53.482 38.4733 54.181C39.1766 54.88 40.1304 55.2727 41.125 55.2727C42.1196 55.2727 43.0734 54.88 43.7767 54.181C44.4799 53.482 44.875 52.534 44.875 51.5455C44.875 50.5162 45.7145 49.6818 46.75 49.6818C47.7855 49.6818 48.625 50.5162 48.625 51.5455C48.625 53.5225 47.8348 55.4186 46.4283 56.8166C45.0218 58.2146 43.1141 59 41.125 59C39.1359 59 37.2282 58.2146 35.8217 56.8166C34.4152 55.4186 33.625 53.5225 33.625 51.5455V40.3636H14.875C14.3467 40.3636 13.843 40.1421 13.4876 39.7536C13.1323 39.3651 12.9583 38.8456 13.0085 38.3229C13.5426 32.7617 16.1429 27.598 20.3018 23.8401ZM53.9476 36.6364C53.1406 32.7862 51.1294 29.267 48.1757 26.5981C44.7071 23.4639 40.1877 21.7273 35.5 21.7273C30.8123 21.7273 26.2929 23.4639 22.8243 26.5981C19.8706 29.267 17.8594 32.7862 17.0524 36.6364H53.9476Z" fill="white"/>
<path fill-rule="evenodd" clip-rule="evenodd" d="M21.3018 22.8401C25.4607 19.0822 30.8794 17 36.5 17C42.1206 17 47.5393 19.0822 51.6982 22.8401C55.8571 26.598 58.4574 31.7617 58.9915 37.3229C59.0417 37.8456 58.8677 38.3651 58.5124 38.7536C58.157 39.1421 57.6533 39.3636 57.125 39.3636H38.375V50.5455C38.375 51.534 38.7701 52.482 39.4733 53.181C40.1766 53.88 41.1304 54.2727 42.125 54.2727C43.1196 54.2727 44.0734 53.88 44.7767 53.181C45.4799 52.482 45.875 51.534 45.875 50.5455C45.875 49.5162 46.7145 48.6818 47.75 48.6818C48.7855 48.6818 49.625 49.5162 49.625 50.5455C49.625 52.5225 48.8348 54.4186 47.4283 55.8166C46.0218 57.2146 44.1141 58 42.125 58C40.1359 58 38.2282 57.2146 36.8217 55.8166C35.4152 54.4186 34.625 52.5225 34.625 50.5455V39.3636H15.875C15.3467 39.3636 14.843 39.1421 14.4876 38.7536C14.1323 38.3651 13.9583 37.8456 14.0085 37.3229C14.5426 31.7617 17.1429 26.598 21.3018 22.8401ZM54.9476 35.6364C54.1406 31.7862 52.1294 28.267 49.1757 25.5981C45.7071 22.4639 41.1877 20.7273 36.5 20.7273C31.8123 20.7273 27.2929 22.4639 23.8243 25.5981C20.8706 28.267 18.8594 31.7862 18.0524 35.6364H54.9476Z" fill="#321F4A"/>
</g>
<defs>
<clipPath id="clip0">
<rect width="72" height="72" fill="white"/>
</clipPath>
</defs>
</svg>
