<svg width="72" height="72" viewBox="0 0 72 72" fill="none" xmlns="http://www.w3.org/2000/svg">
<g clip-path="url(#clip0)">
<path d="M32.9369 36.4751C42.2359 23.2595 57.94 21.7289 45.1143 12.7042C32.2886 3.67963 18.1764 1.64344 8.87737 14.8591C-0.42163 28.0747 2.43731 46.104 15.263 55.1286C28.0887 64.1532 23.6379 49.6907 32.9369 36.4751Z" fill="#9B51E0"/>
<path d="M29.468 29.7081C16.7969 47.7161 -4.60211 49.8017 12.8746 62.099C30.3513 74.3962 49.5811 77.1708 62.2522 59.1627C74.9233 41.1547 71.0277 16.5874 53.551 4.29017C36.0743 -8.00707 42.1391 11.7 29.468 29.7081Z" fill="#F6D446"/>
<path fill-rule="evenodd" clip-rule="evenodd" d="M51.6364 46.0108V48.2727C51.6364 49.7012 50.7733 50.7989 49.8165 51.557C48.843 52.3284 47.5376 52.9485 46.0723 53.4377C43.1245 54.4218 39.1518 55 34.8182 55C30.4845 55 26.5118 54.4218 23.564 53.4377C22.0988 52.9485 20.7934 52.3284 19.8198 51.557C18.8631 50.7989 18 49.7012 18 48.2727V24.7273C18 23.2945 18.8727 22.1971 19.8303 21.4424C20.8069 20.6728 22.1158 20.0533 23.5833 19.5641C26.5359 18.5799 30.5079 18 34.8182 18C34.8778 18 34.9374 18.0001 34.9969 18.0003C34.9979 18.0002 34.999 18.0001 35 18C42.6 17.2 49.1667 20.3333 51.5 22C51.9798 26.7979 52.6437 38.0412 51.6364 46.0108Z" fill="white"/>
<path fill-rule="evenodd" clip-rule="evenodd" d="M23.3688 23.7016C23.3636 23.7185 23.3636 23.7257 23.3636 23.7272L23.3636 23.7273L23.3636 23.7274C23.3636 23.7275 23.3636 23.7276 23.3636 23.7277C23.3636 23.7298 23.3639 23.7371 23.3688 23.753C23.3745 23.7717 23.3886 23.8088 23.4226 23.8642C23.494 23.9805 23.6396 24.1553 23.9123 24.3703C24.4676 24.8079 25.3754 25.2756 26.647 25.6994C29.1727 26.5413 32.7689 27.0909 36.8182 27.0909C40.8675 27.0909 44.4637 26.5413 46.9894 25.6994C48.261 25.2756 49.1688 24.8079 49.7241 24.3703C49.9968 24.1553 50.1424 23.9805 50.2137 23.8642C50.2478 23.8088 50.2619 23.7717 50.2676 23.753C50.2725 23.7369 50.2727 23.7297 50.2727 23.7277C50.2727 23.7276 50.2727 23.7275 50.2727 23.7274V23.7273V23.7272C50.2727 23.7257 50.2728 23.7185 50.2676 23.7016C50.2619 23.6828 50.2478 23.6458 50.2137 23.5903C50.1424 23.474 49.9968 23.2992 49.7241 23.0843C49.1688 22.6466 48.261 22.179 46.9894 21.7551C44.4637 20.9132 40.8675 20.3636 36.8182 20.3636C32.7689 20.3636 29.1727 20.9132 26.647 21.7551C25.3754 22.179 24.4676 22.6466 23.9123 23.0843C23.6396 23.2992 23.494 23.474 23.4226 23.5903C23.3886 23.6458 23.3745 23.6828 23.3688 23.7016ZM50.2727 27.9766C49.5979 28.3216 48.8488 28.6252 48.053 28.8905C45.1004 29.8747 41.1284 30.4545 36.8182 30.4545C32.5079 30.4545 28.5359 29.8747 25.5833 28.8905C24.7876 28.6252 24.0384 28.3216 23.3636 27.9766V35.5C23.3636 35.5032 23.3638 35.5118 23.3694 35.5303C23.3753 35.5501 23.3896 35.5876 23.4235 35.6432C23.4943 35.7595 23.6386 35.9338 23.9089 36.148C24.4595 36.5843 25.3614 37.0512 26.6292 37.4744C29.1473 38.315 32.7427 38.8636 36.8182 38.8636C40.8936 38.8636 44.4891 38.315 47.0072 37.4744C48.2749 37.0512 49.1769 36.5843 49.7275 36.148C49.9978 35.9338 50.142 35.7595 50.2129 35.6432C50.2468 35.5876 50.261 35.5501 50.267 35.5303C50.2726 35.5118 50.2727 35.5032 50.2727 35.5V27.9766ZM53.6364 35.5V23.7273C53.6364 22.2945 52.7637 21.1971 51.8061 20.4424C50.8295 19.6728 49.5206 19.0533 48.053 18.5641C45.1004 17.5799 41.1284 17 36.8182 17C32.5079 17 28.5359 17.5799 25.5833 18.5641C24.1158 19.0533 22.8069 19.6728 21.8303 20.4424C20.8727 21.1971 20 22.2945 20 23.7273V35.5V47.2727C20 48.7012 20.8631 49.7989 21.8198 50.557C22.7934 51.3284 24.0988 51.9485 25.564 52.4377C28.5118 53.4218 32.4845 54 36.8182 54C41.1518 54 45.1245 53.4218 48.0723 52.4377C49.5376 51.9485 50.843 51.3284 51.8165 50.557C52.7733 49.7989 53.6364 48.7012 53.6364 47.2727V35.5ZM50.2727 39.758C49.6035 40.1004 48.8611 40.4016 48.0723 40.6649C45.1245 41.649 41.1518 42.2273 36.8182 42.2273C32.4845 42.2273 28.5118 41.649 25.564 40.6649C24.7753 40.4016 24.0329 40.1004 23.3636 39.758V47.2727C23.3636 47.2759 23.3638 47.2845 23.3694 47.303C23.3753 47.3228 23.3896 47.3603 23.4235 47.4159C23.4943 47.5322 23.6386 47.7066 23.9089 47.9207C24.4595 48.3571 25.3614 48.8239 26.6292 49.2471C29.1473 50.0878 32.7427 50.6364 36.8182 50.6364C40.8936 50.6364 44.4891 50.0878 47.0072 49.2471C48.2749 48.8239 49.1769 48.3571 49.7275 47.9207C49.9978 47.7066 50.142 47.5322 50.2129 47.4159C50.2468 47.3603 50.261 47.3228 50.267 47.303C50.2726 47.2845 50.2727 47.2759 50.2727 47.2727V39.758Z" fill="#321F4A"/>
</g>
<defs>
<clipPath id="clip0">
<rect width="72" height="72" fill="white"/>
</clipPath>
</defs>
</svg>
