<svg width="72" height="72" viewBox="0 0 72 72" fill="none" xmlns="http://www.w3.org/2000/svg">
<g clip-path="url(#clip0)">
<path d="M32.9369 36.4751C42.2359 23.2595 57.94 21.7289 45.1143 12.7042C32.2886 3.67963 18.1764 1.64344 8.87737 14.8591C-0.42163 28.0747 2.43731 46.104 15.263 55.1286C28.0887 64.1532 23.6379 49.6907 32.9369 36.4751Z" fill="#9B51E0"/>
<path d="M29.468 29.7081C16.7969 47.7161 -4.60211 49.8017 12.8746 62.099C30.3513 74.3962 49.5811 77.1708 62.2522 59.1627C74.9233 41.1547 71.0277 16.5874 53.551 4.29017C36.0743 -8.00707 42.1391 11.7 29.468 29.7081Z" fill="#F6D446"/>
<circle cx="35.5" cy="39.5" r="20.5" fill="white"/>
<path fill-rule="evenodd" clip-rule="evenodd" d="M19.8182 38C19.8182 28.5107 27.5107 20.8182 37 20.8182C46.4893 20.8182 54.1818 28.5107 54.1818 38C54.1818 47.4893 46.4893 55.1818 37 55.1818C27.5107 55.1818 19.8182 47.4893 19.8182 38ZM37 17C25.402 17 16 26.402 16 38C16 49.598 25.402 59 37 59C48.598 59 58 49.598 58 38C58 26.402 48.598 17 37 17ZM28.2176 40.2909C29.0584 39.6603 30.2502 39.8282 30.8843 40.6648L30.8932 40.6761C30.9046 40.6904 30.9262 40.7173 30.9577 40.7549C31.021 40.8303 31.1236 40.948 31.2634 41.0939C31.5446 41.3873 31.9672 41.7854 32.5143 42.1833C33.616 42.9845 35.1391 43.7273 36.9994 43.7273C38.8598 43.7273 40.3828 42.9845 41.4845 42.1833C42.0317 41.7854 42.4542 41.3873 42.7354 41.0939C42.8752 40.948 42.9778 40.8303 43.0411 40.7549C43.0727 40.7173 43.0943 40.6904 43.1056 40.6761L43.1145 40.6648C43.7487 39.8282 44.9404 39.6603 45.7812 40.2909C46.6247 40.9235 46.7957 42.1201 46.1631 42.9636L44.6358 41.8182C46.1631 42.9636 46.1626 42.9642 46.1621 42.9649L46.1611 42.9662L46.1589 42.9691L46.1537 42.976L46.1399 42.994L46.0993 43.046C46.0664 43.0876 46.0218 43.1428 45.9657 43.2095C45.8538 43.3429 45.6953 43.5236 45.4921 43.7357C45.0872 44.1581 44.4956 44.7146 43.7302 45.2712C42.2069 46.3791 39.9118 47.5454 36.9994 47.5454C34.087 47.5454 31.7919 46.3791 30.2686 45.2712C29.5032 44.7146 28.9116 44.1581 28.5067 43.7357C28.3035 43.5236 28.1451 43.3429 28.0331 43.2095C27.9771 43.1428 27.9325 43.0876 27.8996 43.046L27.8589 42.994L27.8451 42.976L27.8399 42.9691L27.8377 42.9662L27.8367 42.9649C27.8362 42.9642 27.8358 42.9636 29.3631 41.8182L27.8358 42.9636C27.2032 42.1201 27.3741 40.9235 28.2176 40.2909ZM29.3635 32.2727C29.3635 31.2184 30.2182 30.3636 31.2726 30.3636H31.2916C32.346 30.3636 33.2007 31.2184 33.2007 32.2727C33.2007 33.3271 32.346 34.1818 31.2916 34.1818H31.2726C30.2182 34.1818 29.3635 33.3271 29.3635 32.2727ZM42.7274 30.3636C41.673 30.3636 40.8183 31.2184 40.8183 32.2727C40.8183 33.3271 41.673 34.1818 42.7274 34.1818H42.7465C43.8008 34.1818 44.6555 33.3271 44.6555 32.2727C44.6555 31.2184 43.8008 30.3636 42.7465 30.3636H42.7274Z" fill="#321F4A"/>
</g>
<defs>
<clipPath id="clip0">
<rect width="72" height="72" fill="white"/>
</clipPath>
</defs>
</svg>
