<svg width="72" height="72" viewBox="0 0 72 72" fill="none" xmlns="http://www.w3.org/2000/svg">
<g clip-path="url(#clip0)">
<path d="M32.9369 36.4751C42.2359 23.2595 57.94 21.7289 45.1143 12.7042C32.2886 3.67963 18.1764 1.64344 8.87737 14.8591C-0.42163 28.0747 2.43731 46.104 15.263 55.1286C28.0887 64.1532 23.6379 49.6907 32.9369 36.4751Z" fill="#9B51E0"/>
<path d="M29.468 29.7081C16.7969 47.7161 -4.60211 49.8017 12.8746 62.099C30.3513 74.3962 49.5811 77.1708 62.2522 59.1627C74.9233 41.1547 71.0277 16.5874 53.551 4.29019C36.0743 -8.00705 42.1391 11.7 29.468 29.7081Z" fill="#F6D446"/>
<path fill-rule="evenodd" clip-rule="evenodd" d="M36.3413 18.6676C35.7514 18.2087 34.9252 18.2087 34.3352 18.6676L19.6308 30.1044C19.2328 30.4139 19 30.8899 19 31.3941V49.3662C19 50.6661 19.5164 51.9128 20.4356 52.8321C21.3548 53.7513 22.6015 54.2677 23.9015 54.2677L30.437 54.2677H40.24L46.7751 54.2677C48.075 54.2677 49.3217 53.7513 50.2409 52.8321C51.1601 51.9128 51.6766 50.6661 51.6766 49.3662V31.3941C51.6766 30.8899 51.4438 30.4139 51.0458 30.1044L36.3413 18.6676ZM41.8738 51H46.7751C47.2084 51 47.624 50.8279 47.9304 50.5215C48.2368 50.2151 48.4089 49.7995 48.4089 49.3662V32.1932L35.3383 22.0271L22.2677 32.1932V49.3662C22.2677 49.7995 22.4398 50.2151 22.7462 50.5215C23.0526 50.8279 23.4682 51 23.9015 51H28.8032V36.2956C28.8032 35.3932 29.5347 34.6617 30.437 34.6617H40.24C41.1424 34.6617 41.8738 35.3932 41.8738 36.2956V51ZM32.0709 51V37.9294H38.6062V51H32.0709Z" fill="white"/>
<path d="M35.6584 17.3442C36.2484 16.8853 37.0746 16.8853 37.6646 17.3442L52.369 28.781C52.767 29.0905 52.9998 29.5664 52.9998 30.0706V48.0427C52.9998 49.3427 52.4834 50.5894 51.5642 51.5086C50.645 52.4278 49.3983 52.9442 48.0983 52.9442H25.2247C23.9248 52.9442 22.6781 52.4278 21.7589 51.5086C20.8396 50.5894 20.3232 49.3427 20.3232 48.0427V30.0706C20.3232 29.5664 20.556 29.0905 20.954 28.781L35.6584 17.3442Z" fill="white"/>
<path fill-rule="evenodd" clip-rule="evenodd" d="M37.6646 17.3442C37.0746 16.8853 36.2484 16.8853 35.6584 17.3442L20.954 28.781C20.556 29.0905 20.3232 29.5664 20.3232 30.0706V48.0427C20.3232 49.3427 20.8396 50.5894 21.7589 51.5086C22.6781 52.4278 23.9248 52.9442 25.2247 52.9442L31.7602 52.9442H41.5632L48.0983 52.9442C49.3983 52.9442 50.645 52.4278 51.5642 51.5086C52.4834 50.5894 52.9998 49.3427 52.9998 48.0427V30.0706C52.9998 29.5664 52.767 29.0905 52.369 28.781L37.6646 17.3442ZM43.197 49.6766H48.0983C48.5316 49.6766 48.9472 49.5044 49.2536 49.198C49.56 48.8916 49.7321 48.476 49.7321 48.0427V30.8697L36.6615 20.7037L23.5909 30.8697V48.0427C23.5909 48.476 23.763 48.8916 24.0694 49.198C24.3758 49.5044 24.7914 49.6766 25.2247 49.6766H30.1264V34.9721C30.1264 34.0698 30.8579 33.3383 31.7602 33.3383H41.5632C42.4655 33.3383 43.197 34.0698 43.197 34.9721V49.6766ZM33.394 49.6766V36.6059H39.9293V49.6766H33.394Z" fill="#321F4A"/>
</g>
<defs>
<clipPath id="clip0">
<rect width="72" height="72" fill="white"/>
</clipPath>
</defs>
</svg>
