<svg width="72" height="72" viewBox="0 0 72 72" fill="none" xmlns="http://www.w3.org/2000/svg">
<g clip-path="url(#clip0)">
<path d="M32.9369 36.4751C42.2359 23.2595 57.94 21.7289 45.1143 12.7042C32.2886 3.67963 18.1764 1.64344 8.87737 14.8591C-0.42163 28.0747 2.43731 46.104 15.263 55.1286C28.0887 64.1532 23.6379 49.6907 32.9369 36.4751Z" fill="#9B51E0"/>
<path d="M29.468 29.7081C16.7969 47.7161 -4.60211 49.8017 12.8746 62.099C30.3513 74.3962 49.5811 77.1708 62.2522 59.1627C74.9233 41.1547 71.0277 16.5874 53.551 4.29019C36.0743 -8.00705 42.1391 11.7 29.468 29.7081Z" fill="#F6D446"/>
<path fill-rule="evenodd" clip-rule="evenodd" d="M39.8305 46.6924C37.7289 48.5039 34.9923 49.5992 32 49.5992C25.3726 49.5992 20 44.2266 20 37.5992C20 30.9718 25.3726 25.5992 32 25.5992C37.3781 25.5992 41.9298 29.1371 43.4548 34.0126C44.2543 33.7444 45.1102 33.5992 46 33.5992C50.4183 33.5992 54 37.1809 54 41.5992C54 46.0175 50.4183 49.5992 46 49.5992C43.5168 49.5992 41.2979 48.4678 39.8305 46.6924Z" fill="white"/>
<path fill-rule="evenodd" clip-rule="evenodd" d="M38.6307 24.9976C36.5245 24.1125 34.2348 23.6936 31.9339 23.7723C29.633 23.851 27.3809 24.4254 25.347 25.4521C23.3132 26.4788 21.5506 27.9311 20.192 29.6997C18.8335 31.4684 17.9143 33.5072 17.5037 35.6627C17.0932 37.8182 17.2019 40.0343 17.8217 42.144C18.4415 44.2538 19.5563 46.2023 21.0821 47.8428C21.7011 48.5083 22.77 48.5704 23.4695 47.9814C24.169 47.3925 24.2342 46.3755 23.6152 45.71C22.4285 44.434 21.5614 42.9185 21.0793 41.2776C20.5972 39.6367 20.5127 37.9131 20.832 36.2366C21.1513 34.5601 21.8663 32.9743 22.9229 31.5987C23.9796 30.2232 25.3505 29.0936 26.9323 28.295C28.5142 27.4964 30.2659 27.0497 32.0555 26.9885C33.8451 26.9273 35.626 27.2531 37.2641 27.9415C38.9022 28.6299 40.3548 29.6629 41.5125 30.9627C42.6703 32.2625 43.5031 33.7953 43.9482 35.4456C44.1401 36.1573 44.8142 36.6549 45.5864 36.6549H47.7187C49.1567 36.6538 50.5576 37.0887 51.7182 37.8965C52.8788 38.7044 53.7387 39.8431 54.173 41.1474C54.6073 42.4517 54.5935 43.8537 54.1336 45.15C53.6737 46.4464 52.7916 47.5695 51.6153 48.3566C50.8512 48.8678 50.6674 49.8715 51.2047 50.5984C51.742 51.3254 52.7969 51.5003 53.5609 50.9891C55.3254 49.8086 56.6485 48.1238 57.3384 46.1793C58.0283 44.2348 58.049 42.1318 57.3975 40.1753C56.746 38.2189 55.4562 36.5108 53.7153 35.2991C51.9748 34.0876 49.8725 33.4352 47.716 33.4366L46.8386 33.4366C46.224 31.7752 45.2946 30.231 44.093 28.882C42.6044 27.2108 40.7368 25.8826 38.6307 24.9976ZM37.5712 36.6549C38.5053 36.6549 39.2625 37.3753 39.2625 38.264V50.4706L43.1403 46.781C43.8008 46.1526 44.8716 46.1526 45.5321 46.781C46.1926 47.4095 46.1926 48.4283 45.5321 49.0567L38.7671 55.4933C38.1066 56.1217 37.0358 56.1217 36.3753 55.4933L29.6103 49.0567C28.9499 48.4283 28.9499 47.4095 29.6103 46.781C30.2708 46.1526 31.3417 46.1526 32.0021 46.781L35.88 50.4706V38.264C35.88 37.3753 36.6372 36.6549 37.5712 36.6549Z" fill="white"/>
<path fill-rule="evenodd" clip-rule="evenodd" d="M38.6307 22.0996C36.5245 21.2145 34.2348 20.7956 31.9339 20.8743C29.633 20.953 27.3809 21.5274 25.347 22.5541C23.3132 23.5808 21.5506 25.0331 20.192 26.8017C18.8335 28.5704 17.9143 30.6092 17.5037 32.7647C17.0932 34.9202 17.2019 37.1362 17.8217 39.246C18.4415 41.3558 19.5563 43.3042 21.0821 44.9448C21.7011 45.6103 22.77 45.6724 23.4695 45.0834C24.169 44.4945 24.2342 43.4775 23.6152 42.812C22.4285 41.536 21.5614 40.0205 21.0793 38.3796C20.5972 36.7387 20.5127 35.0151 20.832 33.3386C21.1513 31.6621 21.8663 30.0763 22.9229 28.7007C23.9796 27.3251 25.3505 26.1956 26.9323 25.397C28.5142 24.5984 30.2659 24.1517 32.0555 24.0905C33.8451 24.0293 35.626 24.3551 37.2641 25.0435C38.9022 25.7319 40.3548 26.7649 41.5125 28.0647C42.6703 29.3645 43.5031 30.8973 43.9482 32.5476C44.1401 33.2593 44.8142 33.7568 45.5864 33.7568H47.7187C49.1567 33.7558 50.5576 34.1907 51.7182 34.9985C52.8788 35.8064 53.7387 36.945 54.173 38.2493C54.6073 39.5536 54.5935 40.9557 54.1336 42.252C53.6737 43.5484 52.7916 44.6715 51.6153 45.4585C50.8512 45.9697 50.6674 46.9735 51.2047 47.7004C51.742 48.4274 52.7969 48.6023 53.5609 48.0911C55.3254 46.9106 56.6485 45.2258 57.3384 43.2813C58.0283 41.3368 58.049 39.2338 57.3975 37.2773C56.746 35.3209 55.4562 33.6128 53.7153 32.4011C51.9748 31.1896 49.8725 30.5372 47.716 30.5386L46.8386 30.5386C46.224 28.8772 45.2946 27.333 44.093 25.9839C42.6044 24.3127 40.7368 22.9846 38.6307 22.0996ZM37.5712 33.7569C38.5053 33.7569 39.2625 34.4773 39.2625 35.366V47.5726L43.1403 43.883C43.8008 43.2546 44.8716 43.2546 45.5321 43.883C46.1926 44.5114 46.1926 45.5303 45.5321 46.1587L38.7671 52.5953C38.1066 53.2237 37.0358 53.2237 36.3753 52.5953L29.6103 46.1587C28.9499 45.5303 28.9499 44.5114 29.6103 43.883C30.2708 43.2546 31.3417 43.2546 32.0021 43.883L35.88 47.5726V35.366C35.88 34.4773 36.6372 33.7569 37.5712 33.7569Z" fill="#321F4A"/>
</g>
<defs>
<clipPath id="clip0">
<rect width="72" height="72" fill="white"/>
</clipPath>
</defs>
</svg>
