<svg width="72" height="72" viewBox="0 0 72 72" fill="none" xmlns="http://www.w3.org/2000/svg">
<g clip-path="url(#clip0)">
<path d="M32.9369 36.4751C42.2359 23.2595 57.94 21.7289 45.1143 12.7042C32.2886 3.67963 18.1764 1.64344 8.87737 14.8591C-0.42163 28.0747 2.43731 46.104 15.263 55.1286C28.0887 64.1532 23.6379 49.6907 32.9369 36.4751Z" fill="#9B51E0"/>
<path d="M29.468 29.7081C16.7969 47.7161 -4.60211 49.8017 12.8746 62.099C30.3513 74.3962 49.5811 77.1708 62.2522 59.1627C74.9233 41.1547 71.0277 16.5874 53.551 4.29019C36.0743 -8.00705 42.1391 11.7 29.468 29.7081Z" fill="#F6D446"/>
<path d="M20 26C20 22.6863 22.6863 20 26 20H37.0881C38.4309 20 39.7349 20.4505 40.7914 21.2793L45.9749 25.3456C46.9332 26.0974 47.64 27.1229 48.0014 28.286L48.7298 30.6303C48.9089 31.2068 49 31.807 49 32.4107V49C49 52.3137 46.3137 55 43 55H26C22.6863 55 20 52.3137 20 49V26Z" fill="white"/>
<path fill-rule="evenodd" clip-rule="evenodd" d="M23.3029 19.0529C24.2171 18.1386 25.4571 17.625 26.75 17.625H39.75C40.181 17.625 40.5943 17.7962 40.899 18.101L50.649 27.851C50.9538 28.1557 51.125 28.569 51.125 29V48.5C51.125 49.7929 50.6114 51.0329 49.6971 51.9471C48.7829 52.8614 47.5429 53.375 46.25 53.375H26.75C25.4571 53.375 24.2171 52.8614 23.3029 51.9471C22.3886 51.0329 21.875 49.7929 21.875 48.5V22.5C21.875 21.2071 22.3886 19.9671 23.3029 19.0529ZM26.75 20.875C26.319 20.875 25.9057 21.0462 25.601 21.351C25.2962 21.6557 25.125 22.069 25.125 22.5V48.5C25.125 48.931 25.2962 49.3443 25.601 49.649C25.9057 49.9538 26.319 50.125 26.75 50.125H46.25C46.681 50.125 47.0943 49.9538 47.399 49.649C47.7038 49.3443 47.875 48.931 47.875 48.5V29.6731L39.0769 20.875H26.75Z" fill="#321F4A"/>
<path fill-rule="evenodd" clip-rule="evenodd" d="M39.75 17.625C40.6475 17.625 41.375 18.3525 41.375 19.25V27.375H49.5C50.3975 27.375 51.125 28.1025 51.125 29C51.125 29.8975 50.3975 30.625 49.5 30.625H39.75C38.8525 30.625 38.125 29.8975 38.125 29V19.25C38.125 18.3525 38.8525 17.625 39.75 17.625Z" fill="#321F4A"/>
<path fill-rule="evenodd" clip-rule="evenodd" d="M28.375 37.125C28.375 36.2275 29.1025 35.5 30 35.5H43C43.8975 35.5 44.625 36.2275 44.625 37.125C44.625 38.0225 43.8975 38.75 43 38.75H30C29.1025 38.75 28.375 38.0225 28.375 37.125Z" fill="#321F4A"/>
<path fill-rule="evenodd" clip-rule="evenodd" d="M28.375 43.625C28.375 42.7275 29.1025 42 30 42H43C43.8975 42 44.625 42.7275 44.625 43.625C44.625 44.5225 43.8975 45.25 43 45.25H30C29.1025 45.25 28.375 44.5225 28.375 43.625Z" fill="#321F4A"/>
<path fill-rule="evenodd" clip-rule="evenodd" d="M28.375 30.625C28.375 29.7275 29.1025 29 30 29H33.25C34.1475 29 34.875 29.7275 34.875 30.625C34.875 31.5225 34.1475 32.25 33.25 32.25H30C29.1025 32.25 28.375 31.5225 28.375 30.625Z" fill="#321F4A"/>
</g>
<defs>
<clipPath id="clip0">
<rect width="72" height="72" fill="white"/>
</clipPath>
</defs>
</svg>
