<svg width="72" height="72" viewBox="0 0 72 72" fill="none" xmlns="http://www.w3.org/2000/svg">
<g clip-path="url(#clip0)">
<path d="M32.9369 36.4751C42.2359 23.2595 57.94 21.7289 45.1143 12.7042C32.2886 3.67963 18.1764 1.64344 8.87737 14.8591C-0.42163 28.0747 2.43731 46.104 15.263 55.1286C28.0887 64.1532 23.6379 49.6907 32.9369 36.4751Z" fill="#9B51E0"/>
<path d="M29.468 29.7081C16.7969 47.7161 -4.60211 49.8017 12.8746 62.099C30.3513 74.3962 49.5811 77.1708 62.2522 59.1627C74.9233 41.1547 71.0277 16.5874 53.551 4.29019C36.0743 -8.00705 42.1391 11.7 29.468 29.7081Z" fill="#F6D446"/>
<path d="M17 27C17 24.7909 18.7909 23 21 23H48C50.2091 23 52 24.7909 52 27V48C52 50.2091 50.2091 52 48 52H21C18.7909 52 17 50.2091 17 48V27Z" fill="white"/>
<path fill-rule="evenodd" clip-rule="evenodd" d="M21.3609 26.0745C21.6248 25.5528 22.1673 25.1908 22.7863 25.1908H48.3129C48.9319 25.1908 49.4745 25.5529 49.7384 26.0747L35.5497 36.0067L21.3609 26.0745ZM21.1908 29.8504V45.9313C21.1908 46.8051 21.9124 47.5267 22.7863 47.5267H48.3129C49.1868 47.5267 49.9084 46.8051 49.9084 45.9313V29.8506L36.4647 39.2612C35.9153 39.6457 35.1842 39.6457 34.6348 39.2612L21.1908 29.8504ZM53.0992 26.8144V45.9313C53.0992 48.5674 50.949 50.7175 48.3129 50.7175H22.7863C20.1502 50.7175 18 48.5674 18 45.9313V26.7863C18 24.1502 20.1502 22 22.7863 22H48.3129C50.9363 22 53.0784 24.1295 53.0991 26.7481C53.0996 26.7702 53.0996 26.7923 53.0992 26.8144Z" fill="#321F4A"/>
</g>
<defs>
<clipPath id="clip0">
<rect width="72" height="72" fill="white"/>
</clipPath>
</defs>
</svg>
