<svg width="72" height="72" viewBox="0 0 72 72" fill="none" xmlns="http://www.w3.org/2000/svg">
<g clip-path="url(#clip0)">
<path d="M32.9369 36.4751C42.2359 23.2595 57.94 21.7289 45.1143 12.7042C32.2886 3.67963 18.1764 1.64344 8.87737 14.8591C-0.42163 28.0747 2.43731 46.104 15.263 55.1286C28.0887 64.1532 23.6379 49.6907 32.9369 36.4751Z" fill="#9B51E0"/>
<path d="M29.468 29.7081C16.7969 47.7161 -4.60211 49.8017 12.8746 62.099C30.3513 74.3962 49.5811 77.1708 62.2522 59.1627C74.9233 41.1547 71.0277 16.5874 53.551 4.29019C36.0743 -8.00705 42.1391 11.7 29.468 29.7081Z" fill="#F6D446"/>
<path fill-rule="evenodd" clip-rule="evenodd" d="M36.1757 25.1509C36.1757 24.7157 35.8229 24.3629 35.3877 24.3629C34.9525 24.3629 34.5996 24.7157 34.5996 25.1509V27.5151H33.4182C32.4777 27.5151 31.5757 27.8887 30.9107 28.5537C30.2457 29.2188 29.8721 30.1207 29.8721 31.0612C29.8721 32.0017 30.2457 32.9036 30.9107 33.5687C31.5757 34.2337 32.4777 34.6073 33.4182 34.6073H34.5996V38.5474H30.6601C30.2249 38.5474 29.8721 38.9002 29.8721 39.3354C29.8721 39.7706 30.2249 40.1234 30.6601 40.1234H34.5996V42.4873C34.5996 42.9225 34.9525 43.2754 35.3877 43.2754C35.8229 43.2754 36.1757 42.9225 36.1757 42.4873V40.1234H37.3582C38.2987 40.1234 39.2007 39.7498 39.8657 39.0848C40.5307 38.4198 40.9043 37.5178 40.9043 36.5773C40.9043 35.6368 40.5307 34.7349 39.8657 34.0699C39.2007 33.4048 38.2987 33.0312 37.3582 33.0312H36.1757V29.0911H39.3283C39.7635 29.0911 40.1163 28.7383 40.1163 28.3031C40.1163 27.8679 39.7635 27.5151 39.3283 27.5151H36.1757V25.1509ZM34.5996 29.0911H33.4182C32.8957 29.0911 32.3946 29.2987 32.0251 29.6682C31.6557 30.0376 31.4481 30.5387 31.4481 31.0612C31.4481 31.5837 31.6557 32.0848 32.0251 32.4542C32.3946 32.8237 32.8957 33.0312 33.4182 33.0312H34.5996V29.0911ZM36.1757 34.6073V38.5474H37.3582C37.8807 38.5474 38.3818 38.3398 38.7513 37.9704C39.1207 37.6009 39.3283 37.0998 39.3283 36.5773C39.3283 36.0548 39.1207 35.5537 38.7513 35.1843C38.3818 34.8148 37.8807 34.6073 37.3582 34.6073H36.1757Z" fill="white"/>
<path fill-rule="evenodd" clip-rule="evenodd" d="M22.0147 23.5689C21.0915 23.5689 20.3431 24.3173 20.3431 25.2405V41.956C20.3431 42.8792 21.0915 43.6276 22.0147 43.6276H48.7595C49.6827 43.6276 50.4311 42.8792 50.4311 41.956V25.2405C50.4311 24.3173 49.6827 23.5689 48.7595 23.5689H22.0147ZM17 25.2405C17 22.471 19.2451 20.2258 22.0147 20.2258H48.7595C51.5291 20.2258 53.7742 22.471 53.7742 25.2405V41.956C53.7742 44.7256 51.5291 46.9707 48.7595 46.9707H37.0586V50.3138H42.0728C42.996 50.3138 43.7444 51.0622 43.7444 51.9854C43.7444 52.9085 42.996 53.6569 42.0728 53.6569H35.3921C35.3904 53.6569 35.3887 53.6569 35.387 53.6569C35.3853 53.6569 35.3836 53.6569 35.3819 53.6569H28.7004C27.7772 53.6569 27.0288 52.9085 27.0288 51.9854C27.0288 51.0622 27.7772 50.3138 28.7004 50.3138H33.7155V46.9707H22.0147C19.2451 46.9707 17 44.7256 17 41.956V25.2405Z" fill="white"/>
<rect x="20.6777" y="20.8387" width="31.871" height="22.6774" fill="white"/>
<path fill-rule="evenodd" clip-rule="evenodd" d="M37.4013 23.9251C37.4013 23.4899 37.0485 23.1371 36.6133 23.1371C36.178 23.1371 35.8252 23.4899 35.8252 23.9251V26.2893H34.6437C33.7033 26.2893 32.8013 26.6629 32.1363 27.3279C31.4713 27.9929 31.0977 28.8949 31.0977 29.8354C31.0977 30.7758 31.4713 31.6778 32.1363 32.3428C32.8013 33.0078 33.7033 33.3814 34.6437 33.3814H35.8252V37.3215H31.8857C31.4505 37.3215 31.0977 37.6743 31.0977 38.1096C31.0977 38.5448 31.4505 38.8976 31.8857 38.8976H35.8252V41.2615C35.8252 41.6967 36.178 42.0495 36.6133 42.0495C37.0485 42.0495 37.4013 41.6967 37.4013 41.2615V38.8976H38.5838C39.5243 38.8976 40.4263 38.524 41.0913 37.859C41.7563 37.1939 42.1299 36.292 42.1299 35.3515C42.1299 34.411 41.7563 33.5091 41.0913 32.844C40.4263 32.179 39.5243 31.8054 38.5838 31.8054H37.4013V27.8653H40.5539C40.9891 27.8653 41.3419 27.5125 41.3419 27.0773C41.3419 26.6421 40.9891 26.2893 40.5539 26.2893H37.4013V23.9251ZM35.8252 27.8653H34.6437C34.1213 27.8653 33.6202 28.0729 33.2507 28.4423C32.8813 28.8118 32.6737 29.3129 32.6737 29.8354C32.6737 30.3579 32.8813 30.8589 33.2507 31.2284C33.6202 31.5979 34.1213 31.8054 34.6437 31.8054H35.8252V27.8653ZM37.4013 33.3814V37.3215H38.5838C39.1063 37.3215 39.6074 37.114 39.9769 36.7445C40.3463 36.3751 40.5539 35.874 40.5539 35.3515C40.5539 34.829 40.3463 34.3279 39.9769 33.9585C39.6074 33.589 39.1063 33.3814 38.5838 33.3814H37.4013Z" fill="#321F4A"/>
<path fill-rule="evenodd" clip-rule="evenodd" d="M23.2412 22.3431C22.3181 22.3431 21.5697 23.0915 21.5697 24.0147V40.7302C21.5697 41.6534 22.3181 42.4018 23.2412 42.4018H49.9861C50.9093 42.4018 51.6576 41.6534 51.6576 40.7302V24.0147C51.6576 23.0915 50.9093 22.3431 49.9861 22.3431H23.2412ZM18.2266 24.0147C18.2266 21.2451 20.4717 19 23.2412 19H49.9861C52.7556 19 55.0008 21.2451 55.0008 24.0147V40.7302C55.0008 43.4997 52.7556 45.7449 49.9861 45.7449H38.2839V49.088H43.299C44.2221 49.088 44.9705 49.8364 44.9705 50.7596C44.9705 51.6827 44.2221 52.4311 43.299 52.4311H36.6226C36.6192 52.4311 36.6158 52.4311 36.6124 52.4311C36.609 52.4311 36.6056 52.4311 36.6022 52.4311H29.9265C29.0033 52.4311 28.255 51.6827 28.255 50.7596C28.255 49.8364 29.0033 49.088 29.9265 49.088H34.9408V45.7449H23.2412C20.4717 45.7449 18.2266 43.4997 18.2266 40.7302V24.0147Z" fill="#321F4A"/>
</g>
<defs>
<clipPath id="clip0">
<rect width="72" height="72" fill="white"/>
</clipPath>
</defs>
</svg>
