<svg width="72" height="72" viewBox="0 0 72 72" fill="none" xmlns="http://www.w3.org/2000/svg">
<g clip-path="url(#clip0)">
<path d="M32.9369 36.4751C42.2359 23.2595 57.94 21.7289 45.1143 12.7042C32.2886 3.67963 18.1764 1.64344 8.87737 14.8591C-0.42163 28.0747 2.43731 46.104 15.263 55.1286C28.0887 64.1532 23.6379 49.6907 32.9369 36.4751Z" fill="#9B51E0"/>
<path d="M29.468 29.7081C16.7969 47.7161 -4.60211 49.8017 12.8746 62.099C30.3513 74.3962 49.5811 77.1708 62.2522 59.1627C74.9233 41.1547 71.0277 16.5874 53.551 4.29019C36.0743 -8.00705 42.1391 11.7 29.468 29.7081Z" fill="#F6D446"/>
<path d="M19.5 37C19.5 47.4 30.167 55.5 36.5003 56.5L50.5003 41.5L51.5003 23.5L36.5003 17.5L19.0003 23C18.5003 25.1667 19.5 26.6 19.5 37Z" fill="white"/>
<path fill-rule="evenodd" clip-rule="evenodd" d="M37.5021 16.1158C37.0905 15.9614 36.6369 15.9614 36.2253 16.1158L21.6798 21.5703C20.9701 21.8364 20.5 22.5148 20.5 23.2728V36.0001C20.5 42.2663 24.6486 47.2734 28.3937 50.5503C30.3044 52.2221 32.2065 53.5289 33.6273 54.4169C34.3396 54.8621 34.9358 55.2051 35.3581 55.4389C35.5694 55.5558 35.7375 55.6456 35.8552 55.7074C35.9141 55.7383 35.9604 55.7622 35.9932 55.7791L36.0323 55.799L36.0441 55.8049L36.0494 55.8076C36.5613 56.0636 37.1649 56.0641 37.6768 55.8082L36.8637 54.1819C37.6768 55.8082 37.6788 55.8072 37.6794 55.8069L37.6833 55.8049L37.6951 55.799L37.7342 55.7791C37.767 55.7622 37.8133 55.7383 37.8722 55.7074C37.9899 55.6456 38.158 55.5558 38.3693 55.4389C38.7915 55.2051 39.3877 54.8621 40.1001 54.4169C41.5209 53.5289 43.423 52.2221 45.3337 50.5503C49.0787 47.2734 53.2274 42.2663 53.2274 36.0001V23.2728C53.2274 22.5148 52.7572 21.8364 52.0476 21.5703L37.5021 16.1158ZM36.8637 54.1819L36.0494 55.8076C36.05 55.8079 36.0506 55.8082 36.8637 54.1819ZM38.1728 51.3333C37.6577 51.6552 37.2121 51.9167 36.8637 52.1142C36.5152 51.9167 36.0697 51.6552 35.5546 51.3333C34.2481 50.5168 32.5139 49.3236 30.7882 47.8136C27.2605 44.7268 24.1364 40.6429 24.1364 36.0001V24.5328L36.8637 19.76L49.591 24.5328V36.0001C49.591 40.6429 46.4669 44.7268 42.9392 47.8136C41.2135 49.3236 39.4792 50.5168 38.1728 51.3333ZM36.8982 27.3663C35.9099 26.981 34.8441 26.8361 33.7887 26.9436C32.7334 27.051 31.7187 27.4078 30.8283 27.9844C29.9379 28.561 29.1972 29.3409 28.6674 30.26C28.1376 31.179 27.8338 32.2108 27.781 33.2703C27.7283 34.3298 27.9281 35.3866 28.3639 36.3537C28.7998 37.3209 29.4593 38.1706 30.288 38.8328C30.6089 39.0892 31.0769 39.0369 31.3334 38.716C31.5898 38.3951 31.5375 37.9271 31.2166 37.6707C30.5721 37.1556 30.0591 36.4947 29.7201 35.7425C29.3811 34.9903 29.2257 34.1683 29.2668 33.3443C29.3078 32.5202 29.5441 31.7177 29.9562 31.0029C30.3683 30.2881 30.9443 29.6815 31.6368 29.233C32.3294 28.7845 33.1186 28.5071 33.9394 28.4235C34.7603 28.3399 35.5892 28.4526 36.3579 28.7523C37.1266 29.0519 37.8131 29.53 38.3608 30.1471C38.9085 30.7642 39.3017 31.5026 39.508 32.3014C39.5928 32.6298 39.889 32.8592 40.2282 32.8592H41.1648C41.8476 32.8601 42.5093 33.0958 43.0389 33.5268C43.5685 33.9578 43.9338 34.5579 44.0734 35.2264C44.2129 35.8949 44.1183 36.591 43.8053 37.1979C43.4923 37.8049 42.9801 38.2857 42.3546 38.5596C41.9783 38.7244 41.8068 39.1631 41.9716 39.5394C42.1364 39.9156 42.5751 40.0871 42.9513 39.9223C43.8896 39.5113 44.658 38.7901 45.1274 37.8797C45.5969 36.9693 45.7389 35.9251 45.5295 34.9224C45.3202 33.9197 44.7723 33.0195 43.9778 32.3729C43.1833 31.7264 42.1906 31.3729 41.1662 31.3717H40.7781C40.4906 30.5587 40.0482 29.8072 39.4734 29.1596C38.7692 28.3662 37.8866 27.7516 36.8982 27.3663ZM33.7283 37.322C33.3175 37.322 32.9845 37.655 32.9845 38.0658C32.9845 38.4766 33.3175 38.8096 33.7283 38.8096H33.7357C34.1465 38.8096 34.4795 38.4766 34.4795 38.0658C34.4795 37.655 34.1465 37.322 33.7357 37.322H33.7283ZM32.9845 41.041C32.9845 40.6302 33.3175 40.2972 33.7283 40.2972H33.7357C34.1465 40.2972 34.4795 40.6302 34.4795 41.041C34.4795 41.4518 34.1465 41.7848 33.7357 41.7848H33.7283C33.3175 41.7848 32.9845 41.4518 32.9845 41.041ZM36.7024 38.8096C36.2916 38.8096 35.9586 39.1426 35.9586 39.5534C35.9586 39.9642 36.2916 40.2972 36.7024 40.2972H36.7098C37.1206 40.2972 37.4536 39.9642 37.4536 39.5534C37.4536 39.1426 37.1206 38.8096 36.7098 38.8096H36.7024ZM35.9586 42.5285C35.9586 42.1177 36.2916 41.7847 36.7024 41.7847H36.7098C37.1206 41.7847 37.4536 42.1177 37.4536 42.5285C37.4536 42.9393 37.1206 43.2723 36.7098 43.2723H36.7024C36.2916 43.2723 35.9586 42.9393 35.9586 42.5285ZM39.6782 37.322C39.2675 37.322 38.9345 37.655 38.9345 38.0658C38.9345 38.4766 39.2675 38.8096 39.6782 38.8096H39.6857C40.0965 38.8096 40.4295 38.4766 40.4295 38.0658C40.4295 37.655 40.0965 37.322 39.6857 37.322H39.6782ZM38.9345 41.041C38.9345 40.6302 39.2675 40.2972 39.6782 40.2972H39.6857C40.0965 40.2972 40.4295 40.6302 40.4295 41.041C40.4295 41.4518 40.0965 41.7848 39.6857 41.7848H39.6782C39.2675 41.7848 38.9345 41.4518 38.9345 41.041Z" fill="#321F4A"/>
</g>
<defs>
<clipPath id="clip0">
<rect width="72" height="72" fill="white"/>
</clipPath>
</defs>
</svg>
