<svg width="72" height="72" viewBox="0 0 72 72" fill="none" xmlns="http://www.w3.org/2000/svg">
<g clip-path="url(#clip0)">
<path d="M32.9369 36.4751C42.2359 23.2595 57.94 21.7289 45.1143 12.7042C32.2886 3.67963 18.1764 1.64344 8.87737 14.8591C-0.42163 28.0747 2.43731 46.104 15.263 55.1286C28.0887 64.1532 23.6379 49.6907 32.9369 36.4751Z" fill="#9B51E0"/>
<path d="M29.468 29.7081C16.7969 47.7161 -4.60211 49.8017 12.8746 62.099C30.3513 74.3962 49.5811 77.1708 62.2522 59.1627C74.9233 41.1547 71.0277 16.5874 53.551 4.29019C36.0743 -8.00705 42.1391 11.7 29.468 29.7081Z" fill="#F6D446"/>
<path d="M19.5 37C19.5 47.4 30.167 55.5 36.5003 56.5L50.5003 41.5L51.5003 23.5L36.5003 17.5L19.0003 23C18.5003 25.1667 19.5 26.6 19.5 37Z" fill="white"/>
<path fill-rule="evenodd" clip-rule="evenodd" d="M36.744 26.8486C32.2329 26.8486 28.5759 30.5056 28.5759 35.0167C28.5759 39.5279 32.2329 43.1849 36.744 43.1849C41.2552 43.1849 44.9122 39.5279 44.9122 35.0167C44.9122 30.5056 41.2552 26.8486 36.744 26.8486ZM26.7607 35.0167C26.7607 29.5031 31.2304 25.0334 36.744 25.0334C42.2577 25.0334 46.7273 29.5031 46.7273 35.0167C46.7273 40.5303 42.2577 45 36.744 45C31.2304 45 26.7607 40.5303 26.7607 35.0167ZM36.9784 31.4085C36.5559 31.336 36.1214 31.4154 35.7518 31.6326C35.3823 31.8498 35.1015 32.1908 34.9592 32.5952C34.7929 33.068 34.2748 33.3165 33.8019 33.1501C33.3291 32.9838 33.0806 32.4656 33.247 31.9928C33.5315 31.1841 34.093 30.5021 34.8321 30.0677C35.5713 29.6333 36.4403 29.4745 37.2853 29.6195C38.1303 29.7644 38.8967 30.2037 39.4488 30.8596C40.0008 31.5153 40.303 32.3452 40.3018 33.2024C40.3014 34.5913 39.2717 35.5085 38.5363 35.9987C38.141 36.2623 37.752 36.4561 37.4656 36.5835C37.321 36.6477 37.1993 36.6964 37.1116 36.7298C37.0677 36.7466 37.0321 36.7595 37.0062 36.7688L36.9746 36.7798L36.9646 36.7832L36.9611 36.7844L36.9597 36.7849C36.9594 36.785 36.9585 36.7853 36.6715 35.9243L36.9585 36.7853C36.483 36.9438 35.969 36.6868 35.8105 36.2113C35.6521 35.7361 35.9087 35.2225 36.3836 35.0636L36.3981 35.0585C36.412 35.0535 36.4349 35.0452 36.4654 35.0336C36.5266 35.0103 36.6176 34.974 36.7284 34.9248C36.9524 34.8252 37.2441 34.6787 37.5295 34.4884C38.1553 34.0712 38.4867 33.6273 38.4867 33.2016L38.4867 33.2002C38.4873 32.7715 38.3362 32.3565 38.0602 32.0285C37.7841 31.7006 37.4009 31.481 36.9784 31.4085ZM36.744 38.647C36.2428 38.647 35.8365 39.0533 35.8365 39.5546C35.8365 40.0558 36.2428 40.4621 36.744 40.4621H36.7531C37.2543 40.4621 37.6607 40.0558 37.6607 39.5546C37.6607 39.0533 37.2543 38.647 36.7531 38.647H36.744Z" fill="#321F4A"/>
<path fill-rule="evenodd" clip-rule="evenodd" d="M36.2253 16.1158C36.6369 15.9614 37.0905 15.9614 37.5021 16.1158L52.0476 21.5703C52.7572 21.8364 53.2274 22.5148 53.2274 23.2728V36.0001C53.2274 42.2663 49.0787 47.2734 45.3337 50.5503C43.423 52.2221 41.5209 53.5289 40.1001 54.4169C39.3877 54.8621 38.7915 55.2051 38.3693 55.4389C38.158 55.5558 37.9899 55.6456 37.8722 55.7074C37.8133 55.7383 37.767 55.7622 37.7342 55.7791L37.6951 55.799L37.6833 55.8049L37.6794 55.8069C37.6788 55.8072 37.6768 55.8082 36.8637 54.1819C36.0506 55.8082 36.05 55.8079 36.0494 55.8076L36.0441 55.8049L36.0323 55.799L35.9932 55.7791C35.9604 55.7622 35.9141 55.7383 35.8552 55.7074C35.7375 55.6456 35.5694 55.5558 35.3581 55.4389C34.9358 55.2051 34.3396 54.8621 33.6273 54.4169C32.2065 53.5289 30.3044 52.2221 28.3937 50.5503C24.6486 47.2734 20.5 42.2663 20.5 36.0001V23.2728C20.5 22.5148 20.9701 21.8364 21.6798 21.5703L36.2253 16.1158ZM36.8637 54.1819L36.0494 55.8076C36.5613 56.0636 37.1649 56.0641 37.6768 55.8082L36.8637 54.1819ZM36.8637 52.1142C37.2121 51.9167 37.6577 51.6552 38.1728 51.3333C39.4792 50.5168 41.2135 49.3236 42.9392 47.8136C46.4669 44.7268 49.591 40.6429 49.591 36.0001V24.5328L36.8637 19.76L24.1364 24.5328V36.0001C24.1364 40.6429 27.2605 44.7268 30.7882 47.8136C32.5139 49.3236 34.2481 50.5168 35.5546 51.3333C36.0697 51.6552 36.5152 51.9167 36.8637 52.1142Z" fill="#321F4A"/>
</g>
<defs>
<clipPath id="clip0">
<rect width="72" height="72" fill="white"/>
</clipPath>
</defs>
</svg>
