<svg width="72" height="72" viewBox="0 0 72 72" fill="none" xmlns="http://www.w3.org/2000/svg">
<g clip-path="url(#clip0)">
<path d="M32.9369 36.4751C42.2359 23.2595 57.94 21.7289 45.1143 12.7042C32.2886 3.67963 18.1764 1.64344 8.87737 14.8591C-0.42163 28.0747 2.43731 46.104 15.263 55.1286C28.0887 64.1532 23.6379 49.6907 32.9369 36.4751Z" fill="#9B51E0"/>
<path d="M29.468 29.7081C16.7969 47.7161 -4.60211 49.8017 12.8746 62.099C30.3513 74.3962 49.5811 77.1708 62.2522 59.1627C74.9233 41.1547 71.0277 16.5874 53.551 4.29019C36.0743 -8.00705 42.1391 11.7 29.468 29.7081Z" fill="#F6D446"/>
<circle cx="34.5" cy="36.5" r="17.5" fill="white"/>
<path fill-rule="evenodd" clip-rule="evenodd" d="M22.1324 36.228C22.1324 28.4432 28.4432 22.1324 36.228 22.1324C44.0128 22.1324 50.3237 28.4432 50.3237 36.228C50.3237 44.0128 44.0128 50.3237 36.228 50.3237C28.4432 50.3237 22.1324 44.0128 22.1324 36.228ZM36.228 19C26.7133 19 19 26.7133 19 36.228C19 45.7428 26.7133 53.4561 36.228 53.4561C45.7428 53.4561 53.4561 45.7428 53.4561 36.228C53.4561 26.7133 45.7428 19 36.228 19ZM29.9633 39.3604C29.0983 39.3604 28.3971 40.0616 28.3971 40.9266C28.3971 41.7916 29.0983 42.4928 29.9633 42.4928H42.4928C43.3577 42.4928 44.0589 41.7916 44.0589 40.9266C44.0589 40.0616 43.3577 39.3604 42.4928 39.3604H29.9633ZM29.9633 31.5295C29.9633 30.6645 30.6645 29.9633 31.5295 29.9633H31.5451C32.4101 29.9633 33.1113 30.6645 33.1113 31.5295C33.1113 32.3945 32.4101 33.0957 31.5451 33.0957H31.5295C30.6645 33.0957 29.9633 32.3945 29.9633 31.5295ZM40.9266 29.9633C40.0616 29.9633 39.3604 30.6645 39.3604 31.5295C39.3604 32.3945 40.0616 33.0957 40.9266 33.0957H40.9422C41.8072 33.0957 42.5084 32.3945 42.5084 31.5295C42.5084 30.6645 41.8072 29.9633 40.9422 29.9633H40.9266Z" fill="#321F4A"/>
</g>
<defs>
<clipPath id="clip0">
<rect width="72" height="72" fill="white"/>
</clipPath>
</defs>
</svg>
