<svg width="72" height="72" viewBox="0 0 72 72" fill="none" xmlns="http://www.w3.org/2000/svg">
<g clip-path="url(#clip0)">
<path d="M32.9369 36.4751C42.2359 23.2595 57.94 21.7289 45.1143 12.7042C32.2886 3.67963 18.1764 1.64344 8.87737 14.8591C-0.42163 28.0747 2.43731 46.104 15.263 55.1286C28.0887 64.1532 23.6379 49.6907 32.9369 36.4751Z" fill="#9B51E0"/>
<path d="M29.468 29.7081C16.7969 47.7161 -4.60211 49.8017 12.8746 62.099C30.3513 74.3962 49.5811 77.1708 62.2522 59.1627C74.9233 41.1547 71.0277 16.5874 53.551 4.29019C36.0743 -8.00705 42.1391 11.7 29.468 29.7081Z" fill="#F6D446"/>
<path d="M44 50.5H17.5L21 40C36 38.5 41.6252 38.0193 48 39C54.5 40 53.1667 46.6667 52.5 50.5H44Z" fill="white"/>
<circle cx="31" cy="28" r="6" fill="white"/>
<circle cx="40" cy="28" r="6" fill="white"/>
<path fill-rule="evenodd" clip-rule="evenodd" d="M26.3 27.75C26.3 25.1819 28.3819 23.1 30.95 23.1C33.5181 23.1 35.6 25.1819 35.6 27.75C35.6 30.3181 33.5181 32.4 30.95 32.4C28.3819 32.4 26.3 30.3181 26.3 27.75ZM30.95 20C26.6698 20 23.2 23.4698 23.2 27.75C23.2 32.0302 26.6698 35.5 30.95 35.5C35.2302 35.5 38.7 32.0302 38.7 27.75C38.7 23.4698 35.2302 20 30.95 20ZM24.75 38.6C22.6946 38.6 20.7233 39.4165 19.2699 40.8699C17.8165 42.3233 17 44.2946 17 46.35V49.45C17 50.306 17.694 51 18.55 51C19.406 51 20.1 50.306 20.1 49.45V46.35C20.1 45.1167 20.5899 43.934 21.462 43.062C22.334 42.1899 23.5167 41.7 24.75 41.7H37.15C38.3833 41.7 39.566 42.1899 40.438 43.062C41.3101 43.934 41.8 45.1167 41.8 46.35V49.45C41.8 50.306 42.494 51 43.35 51C44.206 51 44.9 50.306 44.9 49.45V46.35C44.9 44.2946 44.0835 42.3233 42.6301 40.8699C41.1767 39.4165 39.2054 38.6 37.15 38.6H24.75ZM46.4996 39.964C46.7136 39.1351 47.559 38.6367 48.3879 38.8507C50.0505 39.28 51.5235 40.2493 52.5755 41.6065C53.6276 42.9636 54.1991 44.6317 54.2004 46.3488V49.45C54.2004 50.306 53.5064 51 52.6504 51C51.7943 51 51.1004 50.306 51.1004 49.45V46.3512C51.0995 45.321 50.7566 44.3199 50.1255 43.5057C49.4942 42.6914 48.6105 42.1099 47.6129 41.8523C46.784 41.6383 46.2856 40.7929 46.4996 39.964ZM42.1848 20.2499C41.3555 20.0376 40.5111 20.5378 40.2988 21.367C40.0865 22.1963 40.5866 23.0407 41.4159 23.2531C42.4161 23.5092 43.3027 24.0909 43.9358 24.9065C44.5689 25.7221 44.9125 26.7253 44.9125 27.7578C44.9125 28.7902 44.5689 29.7934 43.9358 30.609C43.3027 31.4246 42.4161 32.0063 41.4159 32.2624C40.5866 32.4748 40.0865 33.3192 40.2988 34.1485C40.5111 34.9778 41.3555 35.4779 42.1848 35.2656C43.8519 34.8387 45.3295 33.8692 46.3846 32.5098C47.4398 31.1505 48.0125 29.4786 48.0125 27.7578C48.0125 26.0369 47.4398 24.365 46.3846 23.0057C45.3295 21.6463 43.8519 20.6768 42.1848 20.2499Z" fill="#321F4A"/>
</g>
<defs>
<clipPath id="clip0">
<rect width="72" height="72" fill="white"/>
</clipPath>
</defs>
</svg>
