<svg width="72" height="72" viewBox="0 0 72 72" fill="none" xmlns="http://www.w3.org/2000/svg">
<g clip-path="url(#clip0)">
<path d="M32.9369 36.4751C42.2359 23.2595 57.94 21.7289 45.1143 12.7042C32.2886 3.67963 18.1764 1.64344 8.87737 14.8591C-0.42163 28.0747 2.43731 46.104 15.263 55.1286C28.0887 64.1532 23.6379 49.6907 32.9369 36.4751Z" fill="#9B51E0"/>
<path d="M29.468 29.7081C16.7969 47.7161 -4.60211 49.8017 12.8746 62.099C30.3513 74.3962 49.5811 77.1708 62.2522 59.1627C74.9233 41.1547 71.0277 16.5874 53.551 4.29019C36.0743 -8.00705 42.1391 11.7 29.468 29.7081Z" fill="#F6D446"/>
<path d="M32.9773 19.6953C33.7869 19.2395 34.7003 19 35.6294 19C36.5586 19 37.472 19.2395 38.2816 19.6953C39.0913 20.1511 39.7697 20.8079 40.2516 21.6023L40.2568 21.6109L55.5198 47.0913L55.5344 47.1162C56.0065 47.9336 56.2562 48.8605 56.2589 49.8044C56.2615 50.7483 56.017 51.6765 55.5495 52.4966C55.0821 53.3167 54.408 54.0001 53.5945 54.4788C52.7809 54.9575 51.8562 55.2149 50.9123 55.2252L50.8925 55.2255L20.3466 55.2254C19.4027 55.215 18.478 54.9575 17.6644 54.4788C16.8509 54.0001 16.1768 53.3167 15.7094 52.4966C15.2419 51.6765 14.9974 50.7483 15 49.8044C15.0027 48.8605 15.2524 47.9336 15.7245 47.1162L15.7391 47.0913L31.0021 21.6109L32.548 22.5369L31.0073 21.6023C31.4892 20.8079 32.1676 20.1511 32.9773 19.6953Z" fill="white"/>
<path fill-rule="evenodd" clip-rule="evenodd" d="M33.9773 17.6953C34.7869 17.2395 35.7003 17 36.6294 17C37.5586 17 38.472 17.2395 39.2816 17.6953C40.0913 18.1511 40.7697 18.8079 41.2516 19.6023L41.2568 19.6109L56.5198 45.0913L56.5344 45.1162C57.0065 45.9336 57.2562 46.8604 57.2589 47.8044C57.2615 48.7483 57.017 49.6765 56.5495 50.4966C56.0821 51.3167 55.408 52.0001 54.5945 52.4788C53.7809 52.9575 52.8562 53.2149 51.9123 53.2252L51.8925 53.2255L21.3466 53.2254C20.4027 53.215 19.478 52.9575 18.6644 52.4788C17.8509 52.0001 17.1768 51.3167 16.7094 50.4966C16.2419 49.6765 15.9974 48.7483 16 47.8044C16.0027 46.8604 16.2524 45.9336 16.7245 45.1162L16.7391 45.0913L32.0021 19.6109L33.548 20.5369L32.0073 19.6023C32.4892 18.8079 33.1676 18.1511 33.9773 17.6953ZM35.0909 21.4679L19.8396 46.9288C19.6861 47.1988 19.6049 47.5038 19.604 47.8145C19.6031 48.1291 19.6847 48.4385 19.8405 48.7119C19.9963 48.9853 20.221 49.2131 20.4922 49.3726C20.761 49.5308 21.0662 49.6165 21.3779 49.6213H51.8809C52.1927 49.6165 52.4979 49.5308 52.7667 49.3726C53.0379 49.2131 53.2626 48.9853 53.4184 48.7119C53.5742 48.4385 53.6558 48.1291 53.6549 47.8145C53.654 47.5039 53.5729 47.1988 53.4194 46.9289L38.1702 21.4715L38.168 21.4679C38.0075 21.2047 37.7822 20.987 37.5135 20.8358C37.2436 20.6838 36.9392 20.604 36.6294 20.604C36.3197 20.604 36.0153 20.6838 35.7454 20.8358C35.4767 20.987 35.2514 21.2047 35.0909 21.4679ZM36.6299 27.9972C37.6251 27.9972 38.4319 28.804 38.4319 29.7992V37.0073C38.4319 38.0025 37.6251 38.8093 36.6299 38.8093C35.6346 38.8093 34.8278 38.0025 34.8278 37.0073V29.7992C34.8278 28.804 35.6346 27.9972 36.6299 27.9972ZM36.6299 42.4133C35.6346 42.4133 34.8278 43.2201 34.8278 44.2153C34.8278 45.2105 35.6346 46.0173 36.6299 46.0173H36.6479C37.6431 46.0173 38.4499 45.2105 38.4499 44.2153C38.4499 43.2201 37.6431 42.4133 36.6479 42.4133H36.6299Z" fill="#321F4A"/>
</g>
<defs>
<clipPath id="clip0">
<rect width="72" height="72" fill="white"/>
</clipPath>
</defs>
</svg>
