<svg width="485" height="296" viewBox="0 0 485 296" fill="none" xmlns="http://www.w3.org/2000/svg">
<g clip-path="url(#clip0)">
<path d="M349.778 66.082H83.0704C79.8473 66.082 77.2344 68.6949 77.2344 71.9181V258.672C77.2344 261.895 79.8473 264.508 83.0704 264.508H349.778C353.001 264.508 355.614 261.895 355.614 258.672V71.9181C355.614 68.6949 353.001 66.082 349.778 66.082Z" fill="black"/>
<path d="M344.817 76.8789H88.9062V237.079H344.817V76.8789Z" fill="white"/>
<mask id="mask0" mask-type="alpha" maskUnits="userSpaceOnUse" x="88" y="76" width="257" height="162">
<path d="M344.818 76.8828H88.9072V237.083H344.818V76.8828Z" fill="white"/>
</mask>
<g mask="url(#mask0)">
<path d="M344.818 76.8828H88.9072V237.083H344.818V76.8828Z" fill="#2E1F3D"/>
<path fill-rule="evenodd" clip-rule="evenodd" d="M302.34 224.007H131.388C127.183 224.007 123.762 220.586 123.762 216.381V99.2472C123.762 95.0422 127.183 91.6211 131.388 91.6211H302.34C306.545 91.6211 309.967 95.0422 309.967 99.2472V216.381C309.967 220.586 306.545 224.007 302.34 224.007Z" fill="#9B51E0"/>
<path fill-rule="evenodd" clip-rule="evenodd" d="M131.388 92.8469C127.859 92.8469 124.987 95.7179 124.987 99.2472V216.381C124.987 219.91 127.859 222.781 131.388 222.781H302.34C305.869 222.781 308.741 219.91 308.741 216.381V99.2472C308.741 95.7179 305.869 92.8469 302.34 92.8469H131.388ZM302.34 224.007H131.388C127.183 224.007 123.762 220.586 123.762 216.381V99.2472C123.762 95.0422 127.183 91.6211 131.388 91.6211H302.34C306.545 91.6211 309.967 95.0422 309.967 99.2472V216.381C309.967 220.586 306.545 224.007 302.34 224.007Z" fill="#141414"/>
<path opacity="0.1" fill-rule="evenodd" clip-rule="evenodd" d="M309.069 116.658H124.374C124.035 116.658 123.761 111.468 123.761 105.073C123.761 98.6784 124.035 93.4883 124.374 93.4883H309.069C309.407 93.4883 309.682 98.6784 309.682 105.073C309.682 111.468 309.407 116.658 309.069 116.658Z" fill="#141414"/>
<path fill-rule="evenodd" clip-rule="evenodd" d="M148.646 101.234C147.105 101.234 145.852 102.487 145.852 104.027C145.852 105.568 147.105 106.821 148.646 106.821C150.186 106.821 151.439 105.568 151.439 104.027C151.439 102.487 150.186 101.234 148.646 101.234ZM148.646 108.047C146.429 108.047 144.626 106.244 144.626 104.027C144.626 101.811 146.429 100.008 148.646 100.008C150.862 100.008 152.665 101.811 152.665 104.027C152.665 106.244 150.862 108.047 148.646 108.047Z" fill="#404040"/>
<path fill-rule="evenodd" clip-rule="evenodd" d="M160.245 101.234C158.704 101.234 157.45 102.487 157.45 104.027C157.45 105.568 158.704 106.821 160.245 106.821C161.785 106.821 163.038 105.568 163.038 104.027C163.038 102.487 161.785 101.234 160.245 101.234ZM160.245 108.047C158.028 108.047 156.225 106.244 156.225 104.027C156.225 101.811 158.028 100.008 160.245 100.008C162.461 100.008 164.264 101.811 164.264 104.027C164.264 106.244 162.461 108.047 160.245 108.047Z" fill="#353535"/>
<path fill-rule="evenodd" clip-rule="evenodd" d="M140.455 104.028C140.455 105.909 138.93 107.435 137.048 107.435C135.167 107.435 133.642 105.909 133.642 104.028C133.642 102.146 135.167 100.621 137.048 100.621C138.93 100.621 140.455 102.146 140.455 104.028Z" fill="#FF4B33"/>
<path fill-rule="evenodd" clip-rule="evenodd" d="M137.048 101.234C135.507 101.234 134.254 102.487 134.254 104.027C134.254 105.568 135.507 106.821 137.048 106.821C138.588 106.821 139.842 105.568 139.842 104.027C139.842 102.487 138.588 101.234 137.048 101.234ZM137.048 108.047C134.831 108.047 133.028 106.244 133.028 104.027C133.028 101.811 134.831 100.008 137.048 100.008C139.264 100.008 141.068 101.811 141.068 104.027C141.068 106.244 139.264 108.047 137.048 108.047Z" fill="#141414"/>
<g filter="url(#filter0_d)">
<path fill-rule="evenodd" clip-rule="evenodd" d="M236.899 160.983C236.899 172.042 227.933 181.008 216.873 181.008C205.814 181.008 196.848 172.042 196.848 160.983C196.848 149.923 205.814 140.957 216.873 140.957C227.933 140.957 236.899 149.923 236.899 160.983Z" fill="#6C3C99"/>
</g>
<g filter="url(#filter1_d)">
<path fill-rule="evenodd" clip-rule="evenodd" d="M209.979 160.983V151.961L217.793 156.472L225.606 160.983L217.793 165.494L209.979 170.005V160.983Z" fill="white"/>
</g>
</g>
<path d="M245.02 264.508H191.62V290.186H245.02V264.508Z" fill="#212121"/>
<path fill-rule="evenodd" clip-rule="evenodd" d="M163.9 290.188H272.158C274.576 290.188 276.535 292.147 276.535 294.565V301.86H159.522V294.565C159.522 292.147 161.482 290.188 163.9 290.188Z" fill="black"/>
<path fill-rule="evenodd" clip-rule="evenodd" d="M93.3895 294.629H22.7577C21.6771 296.294 -2.14472 338.896 -4.42039 342.482C-2.00487 345.418 -3.96271 344.884 -5.09419 343.575C-9.07343 349.881 -32.8033 409.808 -43.7246 425.271C-42.9872 426.135 -8.10723 449.079 -5.09419 449.536C5.37169 443.317 41.1655 391.765 48.3419 369.018C52.8152 391.354 55.8742 446.646 61.7175 455.705C66.4428 457.053 112.596 449.196 112.596 449.196C112.446 449.203 93.8853 297.451 93.3895 294.629Z" fill="#2A4D52"/>
<path fill-rule="evenodd" clip-rule="evenodd" d="M65.8226 251.001L65.7082 255.718L65.4667 265.609L64.7801 292.815C64.6149 300.1 64.4242 307.372 64.1953 314.644C64.1063 316.742 64.0173 318.827 63.9283 320.924C63.9029 321.522 63.8775 322.119 63.8521 322.717C63.7504 325.438 63.6359 328.171 63.5088 330.892C63.4707 331.807 63.4325 332.722 63.3817 333.638C63.3435 334.578 63.2927 335.519 63.2418 336.46C63.2418 336.473 63.2291 336.485 63.2164 336.485C63.191 336.485 63.1783 336.473 63.1783 336.46C63.1783 335.506 63.191 334.553 63.2164 333.599C63.2291 332.735 63.2291 331.883 63.2545 331.019C63.2673 329.646 63.2927 328.26 63.3181 326.874C63.3435 325.488 63.369 324.103 63.3944 322.717C63.4071 322.119 63.4198 321.522 63.4325 320.924C63.4834 318.814 63.5215 316.716 63.5597 314.619C63.7631 307.347 64.0046 300.075 64.2716 292.803L65.2251 265.8L65.5938 255.413V255.375L65.7463 250.976L65.8099 249.171C65.8099 249.145 65.8353 249.133 65.8481 249.133C65.8608 249.133 65.8735 249.145 65.8735 249.171L65.8226 251.001ZM61.8307 259.57C61.9069 258.515 62.0214 257.473 62.2375 256.43C62.6443 254.409 63.369 252.451 64.3352 250.633C64.386 250.531 64.4496 250.429 64.5004 250.328C64.5894 250.175 64.7039 250.073 64.831 250.023C65.2505 249.832 65.7845 250.124 65.4794 250.684C65.4412 250.76 65.4031 250.823 65.3649 250.9C65.1615 251.268 64.9708 251.65 64.7929 252.031C64.0682 253.582 63.547 255.222 63.2418 256.926C62.8732 258.922 63.102 261.109 62.1104 262.939C61.7544 263.6 60.7373 263.321 61.1314 262.583C61.64 261.655 61.7417 260.613 61.8307 259.57ZM60.5593 264.261L60.0635 264.757C60.0127 264.821 59.9491 264.884 59.8728 264.922C59.822 264.961 59.7457 264.999 59.6694 265.011C59.5931 265.037 59.5296 265.037 59.4533 265.011C59.3897 265.011 59.3262 264.973 59.2753 264.935C59.2372 264.897 59.2117 264.859 59.1736 264.833C59.1355 264.745 59.11 264.656 59.11 264.554C59.11 264.503 59.1227 264.465 59.1227 264.414C59.1482 264.3 59.199 264.198 59.2753 264.122C59.4406 263.944 59.6058 263.778 59.7711 263.613C59.822 263.549 59.8855 263.499 59.9618 263.46C60.0254 263.41 60.0889 263.371 60.1652 263.359C60.2415 263.346 60.3178 263.346 60.3814 263.359C60.4576 263.371 60.5085 263.397 60.5721 263.448L60.661 263.549C60.7119 263.626 60.7373 263.715 60.7373 263.816C60.7246 263.867 60.7246 263.918 60.7119 263.969C60.6865 264.071 60.6356 264.172 60.5593 264.261ZM54.9274 260.142C54.546 261.147 54.0883 262.113 53.5543 263.041C53.4526 263.219 53.3509 263.397 53.2492 263.562C52.728 264.439 52.1305 265.278 51.4821 266.079C50.2108 267.656 48.6979 268.991 47.1341 270.262C46.918 270.44 46.6892 270.618 46.4731 270.796C45.2653 271.775 44.0575 272.779 43.0278 273.923C42.5447 274.445 42.0997 275.004 41.7183 275.602C41.6675 275.691 41.5785 275.856 41.4768 276.021C41.3496 276.263 41.2225 276.53 41.1462 276.67C41.1335 276.695 41.1208 276.733 41.1081 276.746C40.8538 277.318 40.6123 277.903 40.3707 278.526C40.358 278.564 40.3453 278.602 40.3326 278.64C40.1673 279.187 40.0147 279.746 39.7732 280.306C39.7223 280.445 39.6461 280.572 39.5698 280.7C39.5698 280.712 39.5698 280.725 39.5571 280.725C39.4935 280.852 39.4172 280.979 39.3282 281.094C39.1757 281.323 39.0104 281.551 38.8705 281.793C37.7136 283.725 36.8873 285.861 36.0101 287.972C35.5905 289.027 35.1583 290.082 34.7006 291.137C34.2048 292.154 34.0904 293.222 34.1666 294.328C34.3192 296.134 35.0057 297.888 35.349 299.744C35.438 300.164 35.4888 300.596 35.527 301.028C35.9719 303.164 36.3915 305.325 36.7983 307.474L37.0653 308.885C37.0653 308.898 37.0525 308.91 37.0398 308.923C37.0144 308.923 37.0017 308.91 37.0017 308.898C36.3915 306.533 35.8194 304.143 35.2727 301.765C35.2218 301.537 35.171 301.321 35.1201 301.092L35.1074 301.066C34.8913 298.829 33.8361 296.744 33.5564 294.379C33.4166 293.222 33.6073 291.951 34.1285 290.896C34.5735 289.853 35.0057 288.785 35.4253 287.73C36.3025 285.62 37.1797 283.484 38.4002 281.501C38.5527 281.259 38.7307 281.017 38.896 280.776C39.0485 280.56 39.1757 280.331 39.2901 280.089C39.5189 279.594 39.6715 279.047 39.8495 278.5C40.0274 277.954 40.2309 277.394 40.4851 276.873C40.7267 276.339 41.0191 275.83 41.3369 275.347C41.6929 274.813 42.087 274.305 42.5192 273.834C42.6845 273.644 42.8752 273.453 43.0532 273.275V273.262C44.0448 272.258 45.1509 271.381 46.2442 270.504C46.6892 270.148 47.1342 269.792 47.5791 269.436C48.9013 268.355 50.1726 267.224 51.2532 265.901C51.7872 265.266 52.2957 264.592 52.7534 263.893C52.8805 263.689 53.0077 263.499 53.1348 263.295C53.7705 262.265 54.3171 261.198 54.7621 260.079C54.9019 259.723 55.0418 259.354 55.1689 258.985C55.83 257.218 56.3513 255.375 56.3767 253.481C56.3767 253.455 56.3894 253.442 56.4021 253.442C56.4275 253.442 56.4402 253.455 56.4402 253.481C56.4275 255.438 55.919 257.345 55.2706 259.189C55.1689 259.507 55.0418 259.824 54.9274 260.142ZM43.994 325.132C43.2058 324.484 42.2777 323.454 41.2988 322.73C40.8538 322.386 40.3834 322.119 39.9257 321.98C40.0274 322.234 40.1419 322.488 40.2817 322.73C40.803 323.658 41.553 324.573 42.0743 325.438C43.1168 327.167 44.1974 328.921 44.8712 330.828C45.1763 331.642 44.261 332.354 43.5617 331.87C41.7692 330.65 39.5189 327.688 37.9933 326.162C38.896 328.438 43.2439 332.76 41.5912 334.96C40.9174 335.888 36.9508 330.434 34.2556 327.51C35.26 330.523 37.345 336.803 35.8956 337.057C34.5862 337.019 32.069 332.799 30.9629 329.658C30.5942 328.603 28.077 326.442 26.5768 325.692C26.2971 325.552 25.7759 324.459 25.1657 322.73C25.1148 322.603 25.0767 322.463 25.0258 322.323C28.9923 321.407 38.6163 317.581 38.8705 316.729C39.7223 317.454 40.8411 318.178 42.2904 319.208C43.5872 320.123 44.8585 321.433 45.8501 322.73C45.9518 322.869 46.0535 322.997 46.1552 323.136C46.8799 324.154 48.8759 326.315 47.4393 327.116C46.5366 327.612 44.5661 325.603 43.994 325.132ZM21.7966 318.166C21.7839 318.166 21.7585 318.153 21.7585 318.14C21.7458 318.077 21.7331 318 21.7204 317.937C21.3263 316.055 21.0466 314.161 20.716 312.279C20.3855 310.322 20.0549 308.351 19.6863 306.406C19.521 305.452 19.2031 304.486 18.9489 303.545C18.6692 302.617 18.1861 301.753 17.792 300.825C17.5759 300.329 17.4106 299.808 17.2962 299.286V299.274C17.1817 298.816 17.1055 298.346 17.0292 297.901C16.9148 297.443 16.8512 296.845 16.9275 296.362C17.0038 295.879 16.9402 295.409 16.8766 294.9C16.8766 294.888 16.8893 294.875 16.902 294.875C16.9148 294.862 16.9402 294.875 16.9402 294.888C17.1182 295.345 17.3216 295.854 17.3216 296.362C17.3597 296.884 17.4233 297.278 17.5886 297.774C17.6521 297.99 17.7157 298.193 17.7538 298.409V298.422C17.9572 299.159 18.0971 299.897 18.3386 300.609C18.6565 301.524 19.1014 302.439 19.343 303.431C19.5718 304.41 19.8007 305.363 19.9787 306.355C20.3092 308.313 20.5889 310.283 20.894 312.241C21.1991 314.212 21.4534 316.182 21.8221 318.127C21.8221 318.127 21.8221 318.14 21.8094 318.153L21.7966 318.166ZM56.4402 235.402L52.6517 235.186C52.6136 235.173 52.5754 235.161 52.5246 235.161C52.461 235.135 52.3974 235.123 52.3212 235.123C52.3084 235.11 52.2957 235.11 52.2703 235.123C51.927 235.097 51.5838 235.11 51.2532 235.135C51.1897 235.135 51.1261 235.135 51.0625 235.148C50.5159 235.186 49.9692 235.275 49.448 235.402C49.181 235.466 48.9267 235.542 48.6725 235.618C42.5701 236.725 37.4085 237.805 30.7086 246.31C17.8555 245.141 10.4819 249.705 9.68093 246.005C8.85456 242.217 20.6397 235.695 34.815 233.406C43.3965 232.021 48.9013 231.741 52.4991 232.516C52.55 232.516 52.7026 232.555 52.7534 232.567L52.7915 231.55C52.7407 231.537 52.5881 231.512 52.5373 231.512C46.2188 230.673 39.0231 230.965 31.6113 232.58C19.1523 235.288 8.82914 241.123 2.98104 247.95C-1.09991 252.718 8.05363 257.74 9.13426 262.749C10.3293 268.241 12.6685 272.563 16.8131 275.22C15.974 278.386 15.4019 281.412 15.1985 284.043C14.9569 287.349 15.5417 290.336 16.8131 294.9C14.3721 299.452 11.6508 305.274 6.79502 312.241C1.93945 319.208 7.39254 327.497 10.5327 328.857C11.8422 329.417 12.8338 330.548 14.1433 331.133C14.8044 331.425 15.4782 331.718 16.152 331.985C23.4494 334.985 31.3697 336.79 39.4045 337.833C39.5698 337.871 39.735 337.884 39.913 337.897C43.1295 338.316 46.3714 338.608 49.5878 338.812C54.4824 339.13 59.3389 339.231 64.0428 339.231L64.208 333.803L64.3225 330.536L64.564 322.717L64.6149 320.924L66.382 264.833L66.6236 257.345L66.827 251.192L66.8397 250.607L66.6236 236.063C66.2337 235.995 62.8392 235.775 56.4402 235.402Z" fill="#FF7680"/>
<path fill-rule="evenodd" clip-rule="evenodd" d="M52.7531 232.566L52.5624 235.134C52.5116 235.134 52.448 235.121 52.3971 235.121H52.3209C52.3081 235.108 52.2954 235.108 52.27 235.121C51.9267 235.096 51.5835 235.108 51.2529 235.134C51.1894 235.134 51.1258 235.134 51.0622 235.146C50.5156 235.185 49.9689 235.274 49.4477 235.401C49.1807 235.464 48.9264 235.541 48.6722 235.617C42.5698 236.723 37.4082 237.804 30.7083 246.309C17.8552 245.139 10.4816 249.703 9.68063 246.004C8.85426 242.215 20.6394 235.693 34.8147 233.405C43.3962 232.019 48.901 231.739 52.4988 232.515C52.5497 232.515 52.7023 232.553 52.7531 232.566Z" fill="#FF7680"/>
<path fill-rule="evenodd" clip-rule="evenodd" d="M56.4403 253.483C56.4276 255.441 55.919 257.348 55.2707 259.192L55.1689 258.988C55.83 257.221 56.3513 255.378 56.3767 253.483C56.3767 253.458 56.3894 253.445 56.4021 253.445C56.4276 253.445 56.4403 253.458 56.4403 253.483Z" fill="#FF7680"/>
<path fill-rule="evenodd" clip-rule="evenodd" d="M60.7376 263.819C60.7249 263.87 60.7249 263.92 60.7122 263.971C60.6868 264.073 60.6359 264.175 60.5597 264.264L60.0638 264.76C60.013 264.823 59.9494 264.887 59.8731 264.925C59.8223 264.963 59.746 265.001 59.6697 265.014C59.5935 265.039 59.5299 265.039 59.4536 265.014C59.39 265.014 59.3265 264.976 59.2756 264.938C59.2375 264.899 59.2121 264.861 59.1739 264.836C59.1358 264.747 59.1104 264.658 59.1104 264.556C59.1104 264.505 59.1231 264.467 59.1231 264.416C59.1485 264.302 59.1993 264.2 59.2756 264.124C59.4409 263.946 59.6062 263.781 59.7714 263.615C59.8223 263.552 59.8859 263.501 59.9621 263.463C60.0257 263.412 60.0893 263.374 60.1655 263.361C60.2418 263.348 60.3181 263.348 60.3817 263.361C60.458 263.374 60.5088 263.399 60.5724 263.45L60.6614 263.552C60.7122 263.628 60.7376 263.717 60.7376 263.819Z" fill="#FF7680"/>
<path fill-rule="evenodd" clip-rule="evenodd" d="M65.873 249.171L65.8221 251.002L65.7077 255.718L65.4662 265.609C65.3899 265.673 65.3136 265.736 65.2246 265.8L65.5933 255.413V255.375L65.7459 250.976L65.8094 249.171C65.8094 249.146 65.8348 249.133 65.8476 249.133C65.8603 249.133 65.873 249.146 65.873 249.171Z" fill="#FF7680"/>
<path fill-rule="evenodd" clip-rule="evenodd" d="M52.7531 232.566L52.6514 235.185C52.6133 235.172 52.5751 235.159 52.5243 235.159C52.4734 235.134 52.4226 235.121 52.3971 235.121H52.3209C52.3081 235.108 52.2954 235.108 52.27 235.121C51.9267 235.096 51.5835 235.108 51.2529 235.134C51.1894 235.134 51.1258 235.134 51.0622 235.146C50.5156 235.185 49.9689 235.274 49.4477 235.401C49.1807 235.464 48.9264 235.541 48.6722 235.617C42.5698 236.723 37.4082 237.804 30.7083 246.309C17.8552 245.139 10.4816 249.703 9.68063 246.004C8.85426 242.215 20.6394 235.693 34.8147 233.405C43.3962 232.019 48.901 231.739 52.4988 232.515C52.5497 232.515 52.7023 232.553 52.7531 232.566Z" fill="#2A4D52"/>
<path fill-rule="evenodd" clip-rule="evenodd" d="M164.248 267.518C164.248 267.518 164.248 267.53 164.235 267.53L164.223 267.518C164.197 267.518 164.185 267.505 164.197 267.492C164.172 267.289 164.146 267.085 164.108 266.882C164.007 266.272 163.854 265.674 163.651 265.102C163.523 264.721 163.371 264.352 163.193 263.996C163.015 263.64 162.812 263.284 162.595 262.954C162.176 262.28 161.617 261.695 161.108 261.11C160.981 260.958 160.854 260.805 160.714 260.652C160.574 260.5 160.434 260.36 160.294 260.22C160.015 259.928 159.722 259.635 159.43 259.33C159.417 259.318 159.43 259.305 159.443 259.279C159.455 259.267 159.468 259.267 159.468 259.279C160.307 259.521 161.019 260.004 161.667 260.563C162.29 261.148 162.748 261.886 163.142 262.648C163.93 264.136 164.324 265.827 164.261 267.492C164.261 267.505 164.248 267.518 164.248 267.518ZM180.114 260.157C179.479 259.305 174.52 261.466 170.211 263.551C172.995 259.852 176.885 254.372 176.72 252.745C176.72 252.592 176.669 252.491 176.58 252.402C175.982 251.88 173.91 253.164 171.558 254.982C170.249 255.999 168.838 257.207 167.528 258.326C167.465 258.262 167.401 258.186 167.312 258.123C169.257 254.932 171.863 250.329 172.664 247.774C172.944 246.859 172.969 246.21 172.664 245.981C172.474 245.854 172.169 245.88 171.8 246.045C169.74 246.948 165.265 251.753 162.43 254.944C162.812 253.52 163.168 252.007 163.46 250.622C164.134 247.405 164.464 244.621 163.701 244.316C162.481 243.757 158.718 252.058 156.429 256.737L156.417 256.75C156.353 256.889 156.277 257.029 156.213 257.169C156.213 257.055 156.213 256.94 156.201 256.826C156.023 252.834 154.319 248.804 153.175 248.804C150.721 248.829 150.467 254.728 150.581 259.229C150.874 258.987 151.382 258.517 151.662 258.517C152.73 258.517 165.786 270.772 165.786 272.196C168.507 270.632 181.436 262.026 180.114 260.157ZM157.917 277.421C157.93 277.421 157.942 277.421 157.955 277.409C158.057 277.345 158.146 277.281 158.247 277.218C158.133 277.294 158.031 277.358 157.917 277.421ZM81.2052 266.996L78.4591 255.834L78.3574 255.923L78.3447 255.936L80.9128 266.818L82.0189 271.548L82.0316 271.56C82.1587 271.675 82.2731 271.777 82.413 271.878L81.2052 266.996ZM100.555 282.405C100.301 282.227 100.034 282.049 99.7793 281.884C98.7368 279.405 97.6053 276.976 96.4103 274.548L92.3929 266.183L92.3801 266.157L92.342 266.068H92.3293C92.3166 266.068 92.3166 266.081 92.3166 266.081L96.1814 274.662C97.2366 277.027 98.33 279.392 99.525 281.706C99.5886 281.845 99.6521 281.985 99.7284 282.112C99.7793 282.138 99.8301 282.163 99.8937 282.176C100.11 282.278 100.339 282.354 100.567 282.443C100.593 282.468 100.631 282.481 100.656 282.468C100.631 282.443 100.593 282.418 100.555 282.405ZM88.1085 258.504L88.1212 258.529C88.1975 258.72 88.2738 258.898 88.3501 259.076C88.4263 258.822 88.3755 258.568 88.1085 258.504ZM90.6893 259.241C90.6257 259.127 90.4859 259.038 90.346 259.038H89.5197C89.1891 259.038 88.9222 259.292 88.8332 259.597C88.795 259.724 88.8077 259.902 88.884 260.017C88.9476 260.131 89.1001 260.22 89.2273 260.22H90.0536C90.3842 260.22 90.6639 259.966 90.7529 259.648C90.7783 259.521 90.7656 259.356 90.6893 259.241Z" fill="#EED3C7"/>
<path fill-rule="evenodd" clip-rule="evenodd" d="M164.264 267.488C164.257 267.509 164.251 267.529 164.229 267.523C164.195 267.523 164.187 267.51 164.194 267.489C164.027 265.858 163.474 264.291 162.601 262.948C162.175 262.279 161.619 261.697 161.112 261.107C160.603 260.483 160.022 259.95 159.43 259.333C159.422 259.321 159.43 259.299 159.436 259.279C159.449 259.271 159.463 259.263 159.471 259.277C160.302 259.519 161.014 260.001 161.667 260.566C162.292 261.146 162.754 261.884 163.141 262.643C163.936 264.134 164.325 265.822 164.264 267.488Z" fill="#EED3C7"/>
<path fill-rule="evenodd" clip-rule="evenodd" d="M163.015 274.035C162.659 274.328 161.947 274.887 161.032 275.51C160.968 275.548 160.917 275.586 160.854 275.624C160.841 275.65 160.816 275.662 160.803 275.662C160.129 276.12 159.379 276.603 158.591 277.01C158.705 276.934 158.82 276.87 158.934 276.794C158.972 276.769 159.023 276.743 159.061 276.718C159.506 276.438 159.938 276.158 160.371 275.866C160.625 275.701 160.879 275.535 161.121 275.357C161.769 274.925 162.392 274.48 163.015 274.035Z" fill="#EED3C7"/>
<path fill-rule="evenodd" clip-rule="evenodd" d="M156.207 257.171C156.219 257.06 156.208 256.942 156.198 256.825L156.22 256.83C156.281 256.78 156.342 256.765 156.418 256.742C156.352 256.882 156.273 257.031 156.207 257.171Z" fill="#EED3C7"/>
<path fill-rule="evenodd" clip-rule="evenodd" d="M164.229 267.523C164.195 267.523 164.187 267.51 164.194 267.49C164.027 265.858 163.474 264.291 162.601 262.948C162.175 262.279 161.619 261.697 161.112 261.108C160.603 260.483 160.021 259.95 159.43 259.335C159.422 259.321 159.43 259.299 159.435 259.279C159.449 259.271 159.463 259.263 159.471 259.277C160.302 259.52 161.014 260.001 161.666 260.566C162.292 261.146 162.753 261.884 163.141 262.643C163.936 264.134 164.325 265.822 164.264 267.488C164.257 267.509 164.251 267.529 164.229 267.523Z" fill="#672448"/>
<path fill-rule="evenodd" clip-rule="evenodd" d="M90.753 259.645C90.664 259.963 90.3843 260.217 90.0538 260.217H89.2274C89.1003 260.217 88.9477 260.128 88.8842 260.014C88.8079 259.9 88.7952 259.722 88.8333 259.595C88.9223 259.289 89.1893 259.035 89.5198 259.035H90.3462C90.486 259.035 90.6259 259.124 90.6895 259.239C90.7657 259.353 90.7784 259.518 90.753 259.645Z" fill="#FF7680"/>
<path fill-rule="evenodd" clip-rule="evenodd" d="M65.8725 249.171L65.8216 251.002L65.7072 255.718C65.6691 255.617 65.6182 255.515 65.5928 255.413V255.375L65.7453 250.976L65.8089 249.171C65.8089 249.146 65.8343 249.133 65.847 249.133C65.8598 249.133 65.8725 249.146 65.8725 249.171Z" fill="#FF7680"/>
<path fill-rule="evenodd" clip-rule="evenodd" d="M81.2055 266.995C81.1038 266.931 81.0021 266.868 80.9131 266.817L78.345 255.934L76.7559 249.171C76.7559 249.158 76.7686 249.146 76.7813 249.133C76.8067 249.133 76.8194 249.146 76.8194 249.158L78.4594 255.833L81.2055 266.995Z" fill="#FF7680"/>
<path fill-rule="evenodd" clip-rule="evenodd" d="M88.35 259.072C88.2737 258.894 88.1974 258.716 88.1211 258.525L88.1084 258.5C88.3754 258.564 88.4262 258.818 88.35 259.072Z" fill="#FF7680"/>
<path fill-rule="evenodd" clip-rule="evenodd" d="M99.7801 281.882C99.6911 281.818 99.6148 281.767 99.5258 281.704C98.3307 279.39 97.2374 277.025 96.1822 274.661L92.3174 266.079C92.3174 266.079 92.3174 266.066 92.3301 266.066H92.3428L92.381 266.155L92.3937 266.181L96.4111 274.546C97.6061 276.974 98.7376 279.403 99.7801 281.882Z" fill="#FF7680"/>
<path fill-rule="evenodd" clip-rule="evenodd" d="M165.787 272.195C165.787 272.233 165.787 272.259 165.761 272.284C165.138 272.945 163.104 274.255 161.032 275.513C160.969 275.552 160.918 275.59 160.854 275.628C160.841 275.653 160.816 275.666 160.803 275.666C160.206 276.035 159.621 276.391 159.062 276.721C159.506 276.442 159.939 276.162 160.371 275.869C160.625 275.704 160.88 275.539 161.121 275.361C161.769 274.929 162.392 274.484 163.015 274.039C163.053 274.001 163.104 273.962 163.142 273.937C163.219 273.886 163.257 273.848 163.257 273.848C164.299 273.39 165.062 272.539 165.431 272.386C165.52 272.348 165.634 272.284 165.787 272.195Z" fill="#FF7680"/>
<path fill-rule="evenodd" clip-rule="evenodd" d="M56.4403 253.483C56.4276 255.441 55.919 257.348 55.2707 259.192L55.1689 258.988C55.83 257.221 56.3513 255.378 56.3767 253.483C56.3767 253.458 56.3894 253.445 56.4021 253.445C56.4276 253.445 56.4403 253.458 56.4403 253.483Z" fill="white"/>
<path fill-rule="evenodd" clip-rule="evenodd" d="M60.7376 263.819C60.7249 263.87 60.7249 263.92 60.7122 263.971C60.6868 264.073 60.6359 264.175 60.5597 264.264L60.0638 264.76C60.013 264.823 59.9494 264.887 59.8731 264.925C59.8223 264.963 59.746 265.001 59.6697 265.014C59.5935 265.039 59.5299 265.039 59.4536 265.014C59.39 265.014 59.3265 264.976 59.2756 264.938C59.2375 264.899 59.2121 264.861 59.1739 264.836C59.1358 264.747 59.1104 264.658 59.1104 264.556C59.1104 264.505 59.1231 264.467 59.1231 264.416C59.1485 264.302 59.1993 264.2 59.2756 264.124C59.4409 263.946 59.6062 263.781 59.7714 263.615C59.8223 263.552 59.8859 263.501 59.9621 263.463C60.0257 263.412 60.0893 263.374 60.1655 263.361C60.2418 263.348 60.3181 263.348 60.3817 263.361C60.458 263.374 60.5088 263.399 60.5724 263.45L60.6614 263.552C60.7122 263.628 60.7376 263.717 60.7376 263.819Z" fill="white"/>
<path fill-rule="evenodd" clip-rule="evenodd" d="M94.4401 330.738C91.8593 332.289 85.6044 335.162 75.0016 334.946C71.8105 334.883 68.2127 334.539 64.208 333.802L64.3224 330.535L64.564 322.716L64.6148 320.923L66.382 264.833L66.6235 257.344L66.8269 251.191L66.8396 250.606L66.8905 248.788C68.4542 249.068 69.9163 249.195 71.1494 249.119C72.6369 249.043 73.9464 248.598 74.6456 247.848L74.849 248.471L74.9888 249.043L75.027 249.17V249.195L75.1033 249.513L76.8831 256.976L78.9554 265.684L79.9089 269.714L79.9216 269.727L91.4779 318.292L92.1009 320.923L94.4401 330.738Z" fill="white"/>
<path fill-rule="evenodd" clip-rule="evenodd" d="M65.873 249.171L65.8221 251.002L65.7077 255.718L65.4662 265.609C65.3899 265.673 65.3136 265.736 65.2246 265.8L65.5933 255.413V255.375L65.7459 250.976L65.8094 249.171C65.8094 249.146 65.8348 249.133 65.8476 249.133C65.8603 249.133 65.873 249.146 65.873 249.171Z" fill="white"/>
<path fill-rule="evenodd" clip-rule="evenodd" d="M82.4133 271.877C82.2734 271.775 82.159 271.673 82.0319 271.559L82.0191 271.546L80.9131 266.817L78.345 255.934L76.7559 249.171C76.7559 249.158 76.7686 249.146 76.7813 249.133C76.8067 249.133 76.8194 249.146 76.8194 249.158L78.4594 255.833L81.2055 266.995L82.4133 271.877Z" fill="white"/>
<path fill-rule="evenodd" clip-rule="evenodd" d="M56.4403 253.483C56.4276 255.441 55.919 257.348 55.2707 259.192L55.1689 258.988C55.83 257.221 56.3513 255.378 56.3767 253.483C56.3767 253.458 56.3894 253.445 56.4021 253.445C56.4276 253.445 56.4403 253.458 56.4403 253.483Z" fill="#FF7680"/>
<path fill-rule="evenodd" clip-rule="evenodd" d="M60.7376 263.819C60.7249 263.87 60.7249 263.92 60.7122 263.971C60.6868 264.073 60.6359 264.175 60.5597 264.264L60.0638 264.76C60.013 264.823 59.9494 264.887 59.8731 264.925C59.8223 264.963 59.746 265.001 59.6697 265.014C59.5935 265.039 59.5299 265.039 59.4536 265.014C59.39 265.014 59.3265 264.976 59.2756 264.938C59.2375 264.899 59.2121 264.861 59.1739 264.836C59.1358 264.747 59.1104 264.658 59.1104 264.556C59.1104 264.505 59.1231 264.467 59.1231 264.416C59.1485 264.302 59.1993 264.2 59.2756 264.124C59.4409 263.946 59.6062 263.781 59.7714 263.615C59.8223 263.552 59.8859 263.501 59.9621 263.463C60.0257 263.412 60.0893 263.374 60.1655 263.361C60.2418 263.348 60.3181 263.348 60.3817 263.361C60.458 263.374 60.5088 263.399 60.5724 263.45L60.6614 263.552C60.7122 263.628 60.7376 263.717 60.7376 263.819Z" fill="#FF7680"/>
<path fill-rule="evenodd" clip-rule="evenodd" d="M41.3118 276.29C41.299 276.303 41.299 276.316 41.2863 276.329C41.2355 276.443 41.1846 276.557 41.1465 276.672C41.2228 276.532 41.3499 276.265 41.477 276.023C41.4135 276.112 41.3626 276.201 41.3118 276.29Z" fill="#FF7680"/>
<path fill-rule="evenodd" clip-rule="evenodd" d="M65.873 249.171L65.8221 251.002L65.7077 255.718L65.4662 265.609C65.3899 265.673 65.3136 265.736 65.2246 265.8L65.5933 255.413V255.375L65.7459 250.976L65.8094 249.171C65.8094 249.146 65.8348 249.133 65.8476 249.133C65.8603 249.133 65.873 249.146 65.873 249.171Z" fill="#FF7680"/>
<path fill-rule="evenodd" clip-rule="evenodd" d="M41.477 276.023C41.3499 276.265 41.2228 276.532 41.1465 276.672C41.1846 276.557 41.2355 276.443 41.2863 276.329C41.299 276.316 41.299 276.303 41.3118 276.29C41.3626 276.201 41.4135 276.112 41.477 276.023Z" fill="#2A4D52"/>
<path fill-rule="evenodd" clip-rule="evenodd" d="M55.2703 259.192C55.1686 259.51 55.0415 259.827 54.9271 260.145C54.5457 261.15 54.088 262.116 53.554 263.044C53.4523 263.222 53.3506 263.4 53.2489 263.565C52.7277 264.442 52.1301 265.281 51.4818 266.082C50.2104 267.659 48.6976 268.994 47.1338 270.265C46.9177 270.443 46.6889 270.621 46.4728 270.799C45.265 271.778 44.0572 272.782 43.0275 273.926C42.5444 274.448 42.0994 275.007 41.718 275.604C41.6671 275.693 41.5781 275.859 41.4764 276.024C41.4129 276.113 41.362 276.202 41.3112 276.291C41.2985 276.304 41.2985 276.316 41.2857 276.329C41.2349 276.444 41.184 276.558 41.1459 276.672C41.1332 276.698 41.1205 276.736 41.1078 276.749C40.8535 277.321 40.6119 277.906 40.3704 278.529C40.3577 278.567 40.345 278.605 40.3323 278.643C40.167 279.19 40.0144 279.749 39.7729 280.308C39.722 280.448 39.6457 280.575 39.5695 280.703C39.5695 280.715 39.5695 280.728 39.5567 280.728C39.4932 280.855 39.4169 280.982 39.3279 281.097C39.1753 281.325 39.0101 281.554 38.8702 281.796C37.7133 283.728 36.887 285.864 36.0097 287.974C35.5902 289.03 35.158 290.085 34.7003 291.14C34.2045 292.157 34.09 293.225 34.1663 294.331C34.3189 296.136 35.0054 297.891 35.3487 299.747C35.4377 300.166 35.4885 300.599 35.5266 301.031C35.9716 303.167 36.3911 305.328 36.798 307.477C36.8488 307.947 36.9378 308.417 37.0268 308.888C37.0268 308.9 37.0268 308.913 37.0395 308.926C37.0141 308.926 37.0014 308.913 37.0014 308.9C36.3911 306.536 35.8191 304.146 35.2724 301.768C35.2215 301.54 35.1707 301.323 35.1198 301.095L35.1071 301.069C34.891 298.832 33.8358 296.747 33.5561 294.382C33.4162 293.225 33.6069 291.954 34.1282 290.899C34.5732 289.856 35.0054 288.788 35.4249 287.733C36.3022 285.623 37.1794 283.487 38.3998 281.503C38.5524 281.262 38.7304 281.02 38.8957 280.779C39.0482 280.563 39.1753 280.334 39.2898 280.092C39.5186 279.596 39.6712 279.05 39.8491 278.503C40.0271 277.956 40.2305 277.397 40.4848 276.876C40.7264 276.342 41.0188 275.833 41.3366 275.35C41.6926 274.816 42.0867 274.308 42.5189 273.837C42.6842 273.647 42.8749 273.456 43.0529 273.278V273.265C44.0445 272.261 45.1506 271.384 46.2439 270.506C46.6889 270.151 47.1338 269.795 47.5788 269.439C48.901 268.358 50.1723 267.226 51.2529 265.904C51.7869 265.269 52.2954 264.595 52.7531 263.896C52.8802 263.692 53.0074 263.501 53.1345 263.298C53.7702 262.268 54.3168 261.2 54.7618 260.082C54.9016 259.726 55.0415 259.357 55.1686 258.988L55.2703 259.192Z" fill="#2A4D52"/>
<path fill-rule="evenodd" clip-rule="evenodd" d="M24.7582 255.323C23.1691 258.654 21.7198 262.049 20.4103 265.494C19.7619 267.223 19.2025 268.965 18.5923 270.706C17.9948 272.435 17.4481 274.19 16.9142 275.97C16.9014 275.982 16.8887 275.995 16.8506 275.957C16.9142 275.334 17.0031 274.711 17.143 274.088C17.1303 274.063 17.1303 274.024 17.1557 273.999C17.143 273.986 17.143 273.974 17.1684 273.948C17.3718 272.791 17.6769 271.647 17.9948 270.516C18.516 268.736 19.228 267.019 19.9399 265.303C21.0205 262.722 22.1901 260.18 23.4742 257.675C23.4488 257.739 23.4106 257.802 23.3852 257.879C23.4716 257.693 23.5619 257.51 23.6547 257.327C23.7005 257.234 23.7488 257.144 23.7958 257.052C23.8289 256.99 23.8658 256.929 23.8925 256.864C23.9217 256.794 23.956 256.731 23.9929 256.665C24.0221 256.614 24.0476 256.56 24.0717 256.506C24.1098 256.429 24.1607 256.353 24.1988 256.264C24.2497 256.188 24.2878 256.099 24.326 256.023C24.5167 255.705 24.6819 255.387 24.7455 255.285C24.7582 255.298 24.7709 255.311 24.7582 255.323Z" fill="#2A4D52"/>
<path fill-rule="evenodd" clip-rule="evenodd" d="M93.486 317.393C93.6131 317.965 93.753 318.537 93.8801 319.109C94.02 319.719 94.1598 320.317 94.2997 320.927C95.3294 325.339 96.3338 329.75 97.2873 334.174C97.2873 334.187 97.2746 334.2 97.2618 334.2C97.2491 334.212 97.2237 334.2 97.2237 334.187C96.5372 331.619 95.8761 329.051 95.2277 326.483C95.215 326.47 95.215 326.457 95.215 326.432C94.7446 324.601 94.2742 322.771 93.8293 320.927C93.5496 319.821 93.2699 318.715 92.9902 317.609C92.6088 316.071 92.2274 314.532 91.8333 312.994C90.117 305.913 88.4261 298.831 86.7734 291.737L82.0314 271.562L82.0187 271.549L80.9126 266.82L78.3445 255.937L76.7554 249.174C76.7554 249.161 76.7681 249.148 76.7808 249.135C76.8062 249.135 76.8189 249.148 76.8189 249.161L78.459 255.835L81.205 266.998L82.4128 271.879L87.2692 291.61C89.0237 298.679 90.7527 305.76 92.4435 312.854C92.7868 314.367 93.13 315.88 93.486 317.393ZM80.6456 249.441C82.1966 249.466 83.2518 250.585 83.9384 251.92C84.2308 252.479 84.4469 253.076 84.6249 253.636C85.1461 255.352 85.7182 258.314 87.9812 258.467C88.032 258.467 88.0702 258.48 88.1083 258.505C88.3753 258.569 88.4261 258.823 88.3499 259.077C88.2736 259.382 88.0066 259.662 87.6888 259.637C85.3877 259.484 84.3706 257.094 83.8112 255.174C83.557 254.31 83.3281 253.445 82.9213 252.644C82.845 252.479 82.756 252.314 82.6543 252.161C82.2475 251.513 81.6627 250.852 80.8999 250.661C80.7092 250.61 80.5058 250.597 80.2897 250.61C79.4887 250.686 79.6286 249.517 80.2897 249.453C80.4168 249.441 80.5312 249.441 80.6456 249.441ZM89.5195 259.039H90.3458C90.4857 259.039 90.6255 259.128 90.6891 259.242C90.7654 259.357 90.7781 259.522 90.7527 259.649C90.6637 259.967 90.384 260.221 90.0534 260.221H89.2271C89.0999 260.221 88.9474 260.132 88.8838 260.018C88.8075 259.904 88.7948 259.726 88.833 259.598C88.922 259.293 89.1889 259.039 89.5195 259.039ZM150.581 259.23C150.543 259.281 150.505 259.306 150.467 259.331C148.687 260.577 146.615 261.544 144.708 262.573C143.08 263.451 141.351 264.201 139.521 264.34C137.995 264.455 136.444 264.76 134.931 264.417C133.545 264.099 132.3 263.756 130.888 264.15C126.49 265.357 123.26 264.15 118.798 263.501C111.45 262.446 101.991 250.394 95.5328 247.228C91.8841 245.436 89.4813 241.863 85.6165 240.389C84.0655 239.791 82.3873 239.55 80.7219 239.448C80.4295 239.435 80.1371 239.422 79.8574 239.41C78.6369 237.973 77.0224 236.842 75.1789 236.092C75.1535 236.079 75.1408 236.079 75.1154 236.066C75.1154 236.079 66.623 236.053 66.623 236.066C66.6485 243.906 66.6485 247.835 66.623 247.852L74.8484 248.474L74.9882 249.046L75.0264 249.174V249.199L75.1027 249.517L76.8825 256.979L78.9548 265.688L79.9083 269.718L79.921 269.731L91.4773 318.295L92.1003 320.927L94.4395 330.742L95.7998 336.463C98.7112 335.878 101.597 335.179 104.432 334.352C108.818 333.106 113.115 331.555 117.285 329.648C117.756 329.445 118.226 329.203 118.544 328.797C118.658 328.644 118.773 328.491 118.862 328.326C122.51 322.351 114.59 314.138 111.463 309.015C109.581 305.913 107.051 303.129 105.436 299.874C103.301 295.615 102.538 291.013 101.584 286.411C101.305 285.076 100.974 283.754 100.567 282.444C100.338 282.355 100.11 282.279 99.8935 282.177C100.033 282.495 100.16 282.8 100.288 283.118C100.288 283.131 100.288 283.143 100.275 283.143H100.262C100.084 282.8 99.9062 282.457 99.7282 282.114C99.6519 281.986 99.5884 281.847 99.5248 281.707C98.3298 279.393 97.2364 277.028 96.1812 274.664L92.3164 266.082C92.3164 266.082 92.3164 266.069 92.3291 266.069H92.3418L92.38 266.158L92.3927 266.184L96.4101 274.549C97.6051 276.977 98.7366 279.406 99.7791 281.885C100.033 282.05 100.3 282.228 100.555 282.406C100.593 282.419 100.631 282.444 100.656 282.47C100.682 282.482 100.694 282.495 100.707 282.495C107.407 286.856 116.332 290.746 127.354 290.733C131.308 290.733 145.242 285.355 148.229 282.787C150.378 280.957 153.353 280.563 156.175 278.541C156.455 278.35 156.836 278.096 157.319 277.791C157.51 277.677 157.713 277.55 157.917 277.422C158.031 277.359 158.133 277.295 158.247 277.219C158.311 277.181 158.387 277.143 158.463 277.092C158.502 277.066 158.54 277.041 158.591 277.016C158.705 276.939 158.819 276.876 158.934 276.799C158.972 276.774 159.023 276.749 159.061 276.723C159.506 276.443 159.938 276.164 160.37 275.871C160.625 275.706 160.879 275.541 161.12 275.363C161.769 274.931 162.392 274.486 163.015 274.041C163.053 274.003 163.104 273.964 163.142 273.939C163.218 273.888 163.256 273.85 163.256 273.85C164.299 273.392 165.062 272.54 165.43 272.388C165.519 272.35 165.634 272.286 165.786 272.197C165.786 270.773 152.73 258.518 151.662 258.518C151.382 258.518 150.874 258.988 150.581 259.23Z" fill="#FF7680"/>
<path fill-rule="evenodd" clip-rule="evenodd" d="M82.4133 271.877C82.2734 271.775 82.159 271.673 82.0319 271.559L82.0191 271.546L80.9131 266.817L78.345 255.934L76.7559 249.171C76.7559 249.158 76.7686 249.146 76.7813 249.133C76.8067 249.133 76.8194 249.146 76.8194 249.158L78.4594 255.833L81.2055 266.995L82.4133 271.877Z" fill="#FF7680"/>
<path fill-rule="evenodd" clip-rule="evenodd" d="M99.8945 282.174C100.034 282.492 100.161 282.797 100.289 283.115C100.289 283.128 100.289 283.14 100.276 283.14H100.263C100.085 282.797 99.9072 282.454 99.7292 282.111C99.6529 281.983 99.5894 281.844 99.5258 281.704C98.3307 279.39 97.2374 277.025 96.1822 274.661L92.3174 266.079C92.3174 266.079 92.3174 266.066 92.3301 266.066C92.3555 266.105 92.3682 266.13 92.3809 266.155L92.3937 266.181L96.4111 274.546C97.6061 276.974 98.7376 279.403 99.7801 281.882C100.034 282.047 100.301 282.225 100.556 282.403C100.568 282.416 100.581 282.428 100.568 282.441C100.339 282.352 100.111 282.276 99.8945 282.174Z" fill="#FF7680"/>
<path fill-rule="evenodd" clip-rule="evenodd" d="M56.4403 253.483C56.4276 255.441 55.919 257.348 55.2707 259.192L55.1689 258.988C55.83 257.221 56.3513 255.378 56.3767 253.483C56.3767 253.458 56.3894 253.445 56.4021 253.445C56.4276 253.445 56.4403 253.458 56.4403 253.483Z" fill="#FF7680"/>
<path fill-rule="evenodd" clip-rule="evenodd" d="M100.289 283.115C100.289 283.128 100.289 283.14 100.276 283.14H100.263C100.085 282.797 99.9072 282.454 99.7292 282.111C99.6529 281.983 99.5894 281.844 99.5258 281.704C98.3307 279.39 97.2374 277.025 96.1822 274.661L92.3174 266.079C92.3174 266.079 92.3174 266.066 92.3301 266.066H92.3428L92.3809 266.155L92.3937 266.181L96.4111 274.546C97.6061 276.974 98.7376 279.403 99.7801 281.882C99.8182 281.983 99.8691 282.072 99.8945 282.174C100.034 282.492 100.161 282.797 100.289 283.115Z" fill="#2A4D52"/>
<path fill-rule="evenodd" clip-rule="evenodd" d="M65.4661 265.609L64.7796 292.816C64.6143 300.1 64.4236 307.372 64.1948 314.644C64.1058 316.742 64.0168 318.827 63.9278 320.925C63.9024 321.522 63.877 322.12 63.8515 322.717C63.7498 325.438 63.6354 328.171 63.5083 330.892C63.4701 331.807 63.432 332.723 63.3811 333.638C63.343 334.579 63.2922 335.52 63.2413 336.46C63.2413 336.473 63.2286 336.486 63.2159 336.486C63.1904 336.486 63.1777 336.473 63.1777 336.46C63.1777 335.507 63.1904 334.553 63.2159 333.6C63.2286 332.735 63.2286 331.884 63.254 331.019C63.2667 329.646 63.2922 328.26 63.3176 326.875C63.343 325.489 63.3684 324.103 63.3939 322.717C63.4066 322.12 63.4193 321.522 63.432 320.925C63.4829 318.814 63.521 316.717 63.5591 314.619C63.7625 307.347 64.0041 300.075 64.2711 292.803L65.2246 265.8C65.3136 265.737 65.3898 265.673 65.4661 265.609Z" fill="#2A4D52"/>
<path fill-rule="evenodd" clip-rule="evenodd" d="M65.873 249.171L65.8221 251.002L65.7077 255.718L65.4662 265.609C65.3899 265.673 65.3136 265.736 65.2246 265.8L65.5933 255.413V255.375L65.7459 250.976L65.8094 249.171C65.8094 249.146 65.8348 249.133 65.8476 249.133C65.8603 249.133 65.873 249.146 65.873 249.171Z" fill="#2A4D52"/>
<path fill-rule="evenodd" clip-rule="evenodd" d="M56.4403 253.483C56.4276 255.441 55.919 257.348 55.2707 259.192L55.1689 258.988C55.83 257.221 56.3513 255.378 56.3767 253.483C56.3767 253.458 56.3894 253.445 56.4021 253.445C56.4276 253.445 56.4403 253.458 56.4403 253.483Z" fill="#2A4D52"/>
<path fill-rule="evenodd" clip-rule="evenodd" d="M21.8214 318.129C21.8214 318.129 21.8214 318.142 21.8087 318.154C21.7706 318.078 21.7452 318.014 21.7197 317.938C21.3256 316.057 21.0459 314.162 20.7154 312.281C20.3848 310.323 20.0543 308.352 19.6856 306.407C19.5203 305.454 19.2025 304.488 18.9482 303.547C18.6685 302.619 18.1854 301.754 17.7913 300.826C17.5752 300.33 17.4099 299.809 17.2955 299.288V299.275C17.1811 298.817 17.1048 298.347 17.0285 297.902C16.9141 297.444 16.8506 296.847 16.9268 296.364C17.0031 295.881 16.9395 295.41 16.876 294.902C16.876 294.889 16.8887 294.876 16.9014 294.876C16.9141 294.864 16.9395 294.876 16.9395 294.889C17.1175 295.347 17.3209 295.855 17.3209 296.364C17.3591 296.885 17.4226 297.279 17.5879 297.775C17.6515 297.991 17.7151 298.195 17.7532 298.411V298.423C17.9566 299.161 18.0964 299.898 18.338 300.61C18.6558 301.525 19.1008 302.441 19.3423 303.432C19.5712 304.411 19.8 305.365 19.978 306.356C20.3086 308.314 20.5882 310.285 20.8934 312.243C21.1985 314.213 21.4527 316.184 21.8214 318.129Z" fill="#2A4D52"/>
<path fill-rule="evenodd" clip-rule="evenodd" d="M52.27 235.123C51.9267 235.097 51.5835 235.11 51.2529 235.135C51.558 235.11 51.9522 235.072 52.27 235.123Z" fill="#FF7680"/>
<path fill-rule="evenodd" clip-rule="evenodd" d="M97.2881 334.171C97.2881 334.184 97.2754 334.197 97.2627 334.197C97.25 334.209 97.2246 334.197 97.2246 334.184C96.538 331.616 95.877 329.048 95.2286 326.48C95.2159 326.467 95.2159 326.454 95.2159 326.429C94.7455 324.598 94.2751 322.768 93.8301 320.924C93.5504 319.818 93.2707 318.712 92.991 317.606C92.6096 316.068 92.2283 314.529 91.8341 312.991C90.1179 305.91 88.427 298.829 86.7743 291.735L82.0322 271.559C82.1594 271.673 82.2738 271.775 82.4136 271.876L87.2701 291.607C89.0245 298.676 90.7535 305.757 92.4444 312.851C92.7876 314.364 93.1309 315.877 93.4869 317.39C93.614 317.962 93.7538 318.534 93.881 319.106C94.0208 319.716 94.1607 320.314 94.3005 320.924C95.3303 325.336 96.3346 329.747 97.2881 334.171Z" fill="#2A4D52"/>
<path fill-rule="evenodd" clip-rule="evenodd" d="M82.4133 271.877C82.2734 271.775 82.159 271.673 82.0319 271.559L82.0191 271.546L80.9131 266.817L78.345 255.934L76.7559 249.171C76.7559 249.158 76.7686 249.146 76.7813 249.133C76.8067 249.133 76.8194 249.146 76.8194 249.158L78.4594 255.833L81.2055 266.995L82.4133 271.877Z" fill="#2A4D52"/>
<path fill-rule="evenodd" clip-rule="evenodd" d="M88.3499 259.074C88.2737 259.379 88.0067 259.659 87.6889 259.634C85.3878 259.481 84.3707 257.091 83.8113 255.171C83.557 254.307 83.3282 253.442 82.9214 252.641C82.8451 252.476 82.7561 252.311 82.6544 252.158C82.2476 251.51 81.6628 250.849 80.9 250.658C80.7093 250.607 80.5059 250.594 80.2897 250.607C79.4888 250.683 79.6287 249.514 80.2897 249.45C80.4169 249.438 80.5313 249.438 80.6457 249.438C82.1967 249.463 83.2519 250.582 83.9384 251.917C84.2308 252.476 84.447 253.073 84.625 253.633C85.1462 255.349 85.7183 258.311 87.9813 258.464C88.0321 258.464 88.0702 258.477 88.1084 258.502L88.1211 258.527C88.1974 258.718 88.2737 258.896 88.3499 259.074Z" fill="#2A4D52"/>
<path fill-rule="evenodd" clip-rule="evenodd" d="M88.35 259.072C88.2737 258.894 88.1974 258.716 88.1211 258.525L88.1084 258.5C88.3754 258.564 88.4262 258.818 88.35 259.072Z" fill="#2A4D52"/>
<path fill-rule="evenodd" clip-rule="evenodd" d="M65.4802 250.684C65.4421 250.76 65.4039 250.824 65.3658 250.9C65.1624 251.269 64.9717 251.65 64.7937 252.032C64.069 253.583 63.5478 255.223 63.2427 256.926C62.874 258.922 63.1028 261.109 62.1112 262.94C61.7552 263.601 60.7382 263.321 61.1323 262.584C61.6408 261.656 61.7425 260.613 61.8315 259.571C61.9078 258.516 62.0222 257.473 62.2383 256.431C62.6451 254.409 63.3698 252.451 64.336 250.633C64.3869 250.532 64.4504 250.43 64.5013 250.328C64.5903 250.176 64.7047 250.074 64.8318 250.023C65.2514 249.832 65.7853 250.125 65.4802 250.684Z" fill="#2A4D52"/>
<path fill-rule="evenodd" clip-rule="evenodd" d="M90.753 259.645C90.664 259.963 90.3843 260.217 90.0538 260.217H89.2274C89.1003 260.217 88.9477 260.128 88.8842 260.014C88.8079 259.9 88.7952 259.722 88.8333 259.595C88.9223 259.289 89.1893 259.035 89.5198 259.035H90.3462C90.486 259.035 90.6259 259.124 90.6895 259.239C90.7657 259.353 90.7784 259.518 90.753 259.645Z" fill="#2A4D52"/>
<path fill-rule="evenodd" clip-rule="evenodd" d="M60.7376 263.819C60.7249 263.87 60.7249 263.92 60.7122 263.971C60.6868 264.073 60.6359 264.175 60.5597 264.264L60.0638 264.76C60.013 264.823 59.9494 264.887 59.8731 264.925C59.8223 264.963 59.746 265.001 59.6697 265.014C59.5935 265.039 59.5299 265.039 59.4536 265.014C59.39 265.014 59.3265 264.976 59.2756 264.938C59.2375 264.899 59.2121 264.861 59.1739 264.836C59.1358 264.747 59.1104 264.658 59.1104 264.556C59.1104 264.505 59.1231 264.467 59.1231 264.416C59.1485 264.302 59.1993 264.2 59.2756 264.124C59.4409 263.946 59.6062 263.781 59.7714 263.615C59.8223 263.552 59.8859 263.501 59.9621 263.463C60.0257 263.412 60.0893 263.374 60.1655 263.361C60.2418 263.348 60.3181 263.348 60.3817 263.361C60.458 263.374 60.5088 263.399 60.5724 263.45L60.6614 263.552C60.7122 263.628 60.7376 263.717 60.7376 263.819Z" fill="#2A4D52"/>
<path fill-rule="evenodd" clip-rule="evenodd" d="M50.1885 150.215C52.1972 152.935 54.5237 155.669 57.1045 158.275C68.699 170.048 80.9418 175.057 84.3998 169.488C84.5142 169.31 84.6032 169.107 84.6922 168.903C84.4634 170.022 84.0439 171.09 83.3955 171.993C81.5648 174.535 78.2848 174.205 75.7167 173.48C70.5424 172.031 65.7495 169.145 61.6431 165.509C56.8629 161.263 53.0998 155.999 50.1885 150.215Z" fill="#EED3C7"/>
<path fill-rule="evenodd" clip-rule="evenodd" d="M97.7613 155.172C95.2822 154.091 92.8413 152.909 90.4385 151.625C91.3411 151.917 92.231 152.197 93.1337 152.477C101.194 154.867 118.28 160.969 129.099 163.334C129.188 163.588 129.265 163.855 129.328 164.109H129.252C123.556 163.842 117.975 162.457 112.572 160.728C107.551 159.126 102.592 157.282 97.7613 155.172Z" fill="#EED3C7"/>
<path fill-rule="evenodd" clip-rule="evenodd" d="M20.4609 177.309C20.9949 176.775 21.5543 176.254 22.1772 175.758C21.5543 176.241 20.9949 176.762 20.4609 177.309ZM55.8419 222.034L55.5241 221.907C55.7911 222.085 56.0707 222.25 56.3504 222.415C56.1725 222.276 55.9945 222.148 55.8419 222.034Z" fill="#EED3C7"/>
<path fill-rule="evenodd" clip-rule="evenodd" d="M27.3262 172.719C27.3008 172.731 27.288 172.744 27.2626 172.757C26.8558 172.935 26.4998 173.126 26.2074 173.253C24.7708 173.927 23.4105 174.766 22.1773 175.757C21.5544 176.253 20.995 176.774 20.461 177.308C19.9398 177.855 19.4567 178.414 19.0117 178.986C19.444 178.414 19.9144 177.855 20.4229 177.308C20.7026 177.029 20.9823 176.749 21.2747 176.482C21.5798 176.202 21.8849 175.935 22.2027 175.681C23.7792 174.41 25.5082 173.431 27.3262 172.719Z" fill="#EED3C7"/>
<path fill-rule="evenodd" clip-rule="evenodd" d="M40.5601 189.831L40.4202 190.149L40.1405 189.971C39.3015 189.449 38.2844 189.182 37.2673 189.17C36.263 189.157 35.1951 189.398 34.4831 190.098C33.7331 190.771 33.6949 191.941 33.9746 192.895C34.3052 193.861 35.1442 194.649 36.1486 194.903L36.1231 195.018C35.0679 194.789 34.1399 194.001 33.7458 192.984C33.4152 191.967 33.4025 190.695 34.2289 189.843C35.0171 189.017 36.1867 188.725 37.2673 188.712C38.2463 188.687 39.2379 188.865 40.1278 189.322C40.6236 187.911 40.4584 186.36 39.6066 185.178C38.7039 183.906 37.2419 183.105 35.7545 182.546C34.2416 182.012 32.627 181.72 31.0378 181.745C29.4614 181.758 27.8977 182.19 26.5374 182.915C23.7913 184.44 22.5581 187.682 22.609 190.835C22.6471 194.039 23.7786 197.23 25.7237 199.9L25.6347 199.976C24.4524 198.794 23.4989 197.37 22.8124 195.819C22.1004 194.28 21.6555 192.602 21.5792 190.873C21.4775 189.17 21.6809 187.377 22.4056 185.762C23.1175 184.135 24.3888 182.711 25.978 181.885C27.5671 181.109 29.3088 180.703 31.0378 180.741C32.7669 180.779 34.4577 181.135 36.0596 181.758C37.6233 182.393 39.1998 183.296 40.2041 184.771C41.2212 186.258 41.272 188.267 40.5601 189.831Z" fill="#EED3C7"/>
<path fill-rule="evenodd" clip-rule="evenodd" d="M52.8165 220.14C48.2016 216.886 44.2224 212.805 40.9551 207.859C45.214 213.313 47.744 215.335 52.8165 220.14Z" fill="#EED3C7"/>
<path fill-rule="evenodd" clip-rule="evenodd" d="M92.5445 199.632C92.5445 205.874 87.4974 210.921 81.2679 210.921C75.0257 210.921 69.9785 205.874 69.9785 199.632C69.9785 193.403 75.0257 188.355 81.2679 188.355C87.4974 188.355 92.5445 193.403 92.5445 199.632Z" fill="#EED3C7"/>
<path fill-rule="evenodd" clip-rule="evenodd" d="M127.964 197.459C127.328 197.497 126.692 197.446 126.082 197.293C125.93 197.255 124.404 196.823 124.951 196.518C125.065 196.454 125.192 196.48 125.319 196.492C125.447 196.505 125.561 196.518 125.675 196.543C126.4 196.683 127.087 196.963 127.9 196.912C128.231 196.887 128.307 197.433 127.964 197.459Z" fill="#EED3C7"/>
<path fill-rule="evenodd" clip-rule="evenodd" d="M40.5601 189.831L40.4202 190.149L40.1405 189.971C39.3015 189.449 38.2844 189.182 37.2673 189.17C36.263 189.157 35.1951 189.398 34.4831 190.098C33.7331 190.771 33.6949 191.941 33.9746 192.895C34.3052 193.861 35.1442 194.649 36.1486 194.903L36.1231 195.018C35.0679 194.789 34.1399 194.001 33.7458 192.984C33.4152 191.967 33.4025 190.695 34.2289 189.843C35.0171 189.017 36.1867 188.725 37.2673 188.712C38.2463 188.687 39.2379 188.865 40.1278 189.322C40.6236 187.911 40.4584 186.36 39.6066 185.178C38.7039 183.906 37.2419 183.105 35.7545 182.546C34.2416 182.012 32.627 181.72 31.0378 181.745C29.4614 181.758 27.8977 182.19 26.5374 182.915C23.7913 184.44 22.5581 187.682 22.609 190.835C22.6471 194.039 23.7786 197.23 25.7237 199.9L25.6347 199.976C24.4524 198.794 23.4989 197.37 22.8124 195.819C22.1004 194.28 21.6555 192.602 21.5792 190.873C21.4775 189.17 21.6809 187.377 22.4056 185.762C23.1175 184.135 24.3888 182.711 25.978 181.885C27.5671 181.109 29.3088 180.703 31.0378 180.741C32.7669 180.779 34.4577 181.135 36.0596 181.758C37.6233 182.393 39.1998 183.296 40.2041 184.771C41.2212 186.258 41.272 188.267 40.5601 189.831Z" fill="#672448"/>
<path fill-rule="evenodd" clip-rule="evenodd" d="M22.2027 175.681C21.8849 175.935 21.5798 176.202 21.2747 176.482C20.9823 176.749 20.7026 177.029 20.4229 177.308C19.9144 177.855 19.444 178.414 19.0117 178.986C19.4567 178.414 19.9398 177.855 20.461 177.308C20.995 176.774 21.5544 176.253 22.1773 175.757C23.4105 174.766 24.7708 173.927 26.2074 173.253C26.4998 173.126 26.8558 172.935 27.2626 172.757C27.288 172.744 27.3008 172.731 27.3262 172.719C25.5082 173.431 23.7792 174.41 22.2027 175.681ZM40.9548 207.858C44.2221 212.804 48.2013 216.885 52.8162 220.139C47.7437 215.334 45.2137 213.312 40.9548 207.858Z" fill="#672448"/>
<path fill-rule="evenodd" clip-rule="evenodd" d="M141.084 161.404C140.791 162.65 139.762 163.069 138.656 163.336C138.668 163.298 138.706 163.273 138.706 163.247C139.279 161.277 139.393 159.128 139.139 156.929C137.728 145.563 125.726 131.896 108.907 123.162C109.86 123.506 110.814 123.836 111.754 124.218C121.226 128.044 130.354 133.943 135.973 142.665C138.846 147.114 140.766 152.225 141.16 157.526C141.249 158.785 141.376 160.171 141.084 161.404ZM129.337 164.112H129.248C123.552 163.845 117.971 162.459 112.568 160.73C107.546 159.128 102.588 157.285 97.7571 155.174C95.278 154.094 92.837 152.911 90.4342 151.627C91.3369 151.92 92.2268 152.2 93.1295 152.479C101.19 154.869 118.276 160.972 129.095 163.336H129.121C130.608 163.667 131.981 163.921 133.189 164.086C131.905 164.163 130.621 164.175 129.337 164.112ZM59.1724 105.822C50.8833 109.903 45.1878 117.975 42.7723 124.396C42.6451 124.383 42.6579 124.383 42.5307 124.37C42.5053 124.294 42.4926 124.23 42.4672 124.154C43.9546 118.954 46.9295 114.25 50.8325 110.513C58.613 103.101 69.5845 100.012 80.1746 100.647C82.4122 100.774 85.1455 100.876 86.9127 102.44C87.2814 102.77 87.5356 103.139 87.739 103.52C83.7089 99.8845 68.1606 101.385 59.1724 105.822ZM84.3954 169.49C84.5099 169.312 84.5989 169.108 84.6878 168.905C84.459 170.024 84.0395 171.091 83.3911 171.994C81.5604 174.537 78.2804 174.206 75.7123 173.482C70.538 172.032 65.7451 169.146 61.6387 165.51C56.8585 161.264 53.0954 156.001 50.1841 150.216C52.1928 152.937 54.5193 155.67 57.1001 158.276C68.6946 170.049 80.9374 175.058 84.3954 169.49ZM142.088 158.518C142.063 157.17 141.936 155.836 141.732 154.513C140.868 149.161 138.554 144.088 135.325 139.753C128.905 131.159 119.141 125.527 109.161 122.031C106.694 121.154 104.165 120.442 101.622 119.844C94.2101 116.908 87.0652 115.395 80.8484 115.28C81.3697 114.962 81.9036 114.645 82.3995 114.289C84.8531 112.56 87.2686 110.487 88.5273 107.703C89.5189 105.529 89.5316 102.91 87.5483 101.308C85.5396 99.7065 82.552 99.643 80.1111 99.5285C74.2121 99.2616 68.2496 100.101 62.7194 102.198C53.2988 105.771 45.4039 113.246 42.0603 122.781C40.6237 118.014 39.1236 114.861 38.2082 115.064C37.2293 115.28 37.1912 119.221 37.9794 124.663C33.7077 119.628 29.3979 116.488 28.1139 117.569C27.0206 118.484 28.4699 122.184 31.4193 126.481C31.4829 126.633 31.5719 126.811 31.6609 126.976C17.5365 132.291 8.29395 145.487 8.29395 177.486C8.30666 203.828 26.3976 218.779 52.8412 220.165L52.8157 220.139C48.2008 216.885 44.2216 212.804 40.9543 207.858C40.7636 207.617 40.5729 207.375 40.3822 207.121C33.2882 208.951 25.3551 207.006 20.1935 201.502C16.6974 197.751 15.121 193.06 15.4261 188.496C15.4388 188.178 15.4642 187.873 15.5024 187.555C15.5278 187.25 15.5786 186.945 15.6295 186.627C15.782 185.712 16.0109 184.809 16.3287 183.919C16.3541 183.843 16.3923 183.754 16.4177 183.665C16.5703 183.258 16.7228 182.851 16.9135 182.457C17.0407 182.177 17.1678 181.898 17.3204 181.631C17.4348 181.402 17.5492 181.186 17.689 180.957C17.7017 180.919 17.7272 180.893 17.7399 180.868C17.7907 180.766 17.8543 180.677 17.9052 180.588C17.9052 180.588 17.9052 180.575 17.9179 180.563C17.9306 180.537 17.9433 180.512 17.956 180.499C17.9687 180.461 18.0069 180.41 18.045 180.359C18.045 180.334 18.0577 180.309 18.0959 180.296V180.283C18.0959 180.283 18.0959 180.27 18.1086 180.258C18.134 180.22 18.1594 180.194 18.1849 180.156C18.7951 179.152 19.5452 178.198 20.4224 177.308C20.6894 177.029 20.9691 176.749 21.2742 176.482C21.5666 176.202 21.8844 175.935 22.2022 175.681C23.7787 174.41 25.5077 173.431 27.3257 172.719H27.3384C27.3511 172.706 27.3765 172.706 27.3892 172.693C28.4063 172.223 29.6522 171.702 30.5294 171.74H30.5421H30.5676C30.6438 171.74 30.7201 171.74 30.7964 171.753C31.5719 171.892 32.5127 172.922 33.1483 173.367C34.1273 174.054 35.0935 174.74 36.047 175.452C37.4963 176.533 38.9202 177.626 40.3313 178.77C41.6281 179.825 42.8231 180.665 44.603 180.194C46.4337 179.698 47.8449 178.02 47.9339 176.113C48.4932 164.519 46.9804 148.411 46.9804 145.919C48.3661 149.352 49.9934 152.644 51.9258 155.747C55.1423 160.895 59.1724 165.459 63.9398 168.956C66.2409 170.646 68.72 172.07 71.3135 173.189C73.8307 174.27 76.6785 175.338 79.4373 175.045C82.1452 174.766 84.1539 172.782 85.1074 170.1C86.1753 167.125 85.9337 163.832 85.082 160.832C84.1412 157.488 82.5012 154.437 80.8739 151.437C80.1365 150.076 79.3991 148.716 78.6745 147.356C80.645 148.169 82.6664 148.97 84.7641 149.72C90.18 153.089 96.0281 155.823 101.952 158.149C107.152 160.183 112.454 162.065 117.869 163.425C121.709 164.392 125.65 165.078 129.616 165.167H129.629C131.511 165.218 133.405 165.142 135.287 164.9C137.575 164.595 140.639 164.353 141.656 161.912C142.101 160.845 142.101 159.649 142.088 158.518Z" fill="black"/>
<path fill-rule="evenodd" clip-rule="evenodd" d="M81.2679 188.355C75.0257 188.355 69.9785 193.403 69.9785 199.632C69.9785 205.874 75.0257 210.921 81.2679 210.921C87.4974 210.921 92.5445 205.874 92.5445 199.632C92.5445 193.403 87.4974 188.355 81.2679 188.355ZM127.9 196.911C127.086 196.962 126.4 196.683 125.675 196.543C125.561 196.517 125.446 196.505 125.319 196.492C125.192 196.479 125.065 196.454 124.951 196.517C124.404 196.822 125.93 197.255 126.082 197.293C126.692 197.445 127.328 197.496 127.964 197.458C128.307 197.433 128.231 196.886 127.9 196.911Z" fill="#EED3C7"/>
<path fill-rule="evenodd" clip-rule="evenodd" d="M127.964 197.457C127.328 197.496 126.692 197.445 126.082 197.292C125.929 197.254 124.404 196.822 124.951 196.517C125.065 196.453 125.192 196.479 125.319 196.491C125.446 196.504 125.561 196.517 125.675 196.542C126.4 196.682 127.086 196.962 127.9 196.911C128.231 196.885 128.307 197.432 127.964 197.457ZM81.2678 210.921C75.0256 210.921 69.9784 205.874 69.9784 199.631C69.9784 193.402 75.0256 188.355 81.2678 188.355C87.4973 188.355 92.5444 193.402 92.5444 199.631C92.5444 205.874 87.4973 210.921 81.2678 210.921ZM58.8289 224.804C58.6509 224.664 58.4729 224.537 58.3077 224.397C58.6509 224.651 59.0069 224.918 59.3756 225.198C59.1849 225.058 59.0069 224.931 58.8289 224.804ZM55.5235 221.905L55.8413 222.032C55.9938 222.147 56.1718 222.274 56.3498 222.414C56.0701 222.248 55.7904 222.083 55.5235 221.905ZM134.676 185.151C133.774 184.312 132.642 183.753 131.46 183.46C131.511 182.469 131.549 181.477 131.549 180.473C131.549 175.158 130.875 170.022 129.616 165.166C125.65 165.077 121.709 164.39 117.869 163.424C112.453 162.064 107.152 160.182 101.952 158.148C96.0279 155.822 90.1798 153.088 84.7639 149.719C82.6662 148.969 80.6448 148.168 78.6743 147.355C79.3989 148.715 80.1363 150.075 80.8737 151.436C82.501 154.436 84.141 157.487 85.0818 160.831C85.9336 163.831 86.1751 167.124 85.1072 170.099C84.1537 172.781 82.145 174.764 79.4371 175.044C76.6783 175.336 73.8305 174.269 71.3133 173.188C68.7198 172.069 66.2407 170.645 63.9396 168.954C59.1722 165.458 55.1421 160.894 51.9256 155.745C49.9932 152.643 48.3659 149.351 46.9802 145.918C46.9802 148.41 48.493 164.517 47.9337 176.112C47.8447 178.019 46.4335 179.697 44.6028 180.193C42.8229 180.663 41.6279 179.824 40.3311 178.769C38.92 177.625 37.4961 176.531 36.0468 175.451C35.0933 174.739 34.1271 174.052 33.1481 173.366C32.5125 172.921 31.5717 171.891 30.7962 171.751C30.7199 171.739 30.6436 171.739 30.5674 171.739H30.5419H30.5292C29.4613 171.967 28.4188 172.285 27.389 172.692C27.3763 172.705 27.3509 172.705 27.3382 172.717H27.3255C27.3 172.73 27.2873 172.743 27.2619 172.756C26.8551 172.934 26.4991 173.124 26.2067 173.251C24.7701 173.925 23.4098 174.764 22.1766 175.756C21.5537 176.252 20.9943 176.773 20.4603 177.307C19.9391 177.854 19.456 178.413 19.011 178.985C18.9856 179.023 18.9474 179.061 18.922 179.1C18.9093 179.112 18.8966 179.125 18.8966 179.138C18.8203 179.239 18.7567 179.328 18.6932 179.43C18.5152 179.672 18.3499 179.913 18.1846 180.155C18.1592 180.193 18.1338 180.218 18.1084 180.256C18.0957 180.269 18.0957 180.282 18.0957 180.282V180.295C18.0702 180.32 18.0575 180.333 18.0448 180.358C18.0067 180.409 17.9685 180.46 17.9558 180.498C17.9431 180.511 17.9304 180.536 17.9177 180.562C17.905 180.574 17.905 180.587 17.905 180.587C17.8541 180.676 17.7905 180.765 17.7397 180.867C17.727 180.892 17.7015 180.918 17.6888 180.956C17.549 181.185 17.4346 181.401 17.3201 181.629C17.1676 181.896 17.0405 182.176 16.9133 182.456C16.7226 182.85 16.5701 183.257 16.4175 183.664C16.3921 183.753 16.3539 183.842 16.3285 183.918C16.0107 184.808 15.7818 185.71 15.6293 186.626C15.5784 186.944 15.5276 187.249 15.5022 187.554C15.464 187.872 15.4386 188.177 15.4259 188.495C15.1716 193.059 16.7481 197.712 20.2315 201.437C25.3931 206.942 33.3134 208.874 40.4201 207.056C40.5981 207.323 40.7634 207.59 40.9541 207.857C45.213 213.311 47.7429 215.332 52.8155 220.138L52.841 220.163C52.93 220.227 53.0317 220.303 53.1334 220.367C53.1842 220.405 53.2351 220.43 53.2859 220.468C53.3241 220.494 53.3495 220.519 53.3876 220.532L53.3622 221.066L53.0062 230.27L52.9681 231.287L52.8664 233.906L52.8028 235.699L52.5867 241.178C52.6121 241.204 52.5994 241.229 52.5867 241.255V241.331L52.4977 243.556C54.8624 245.692 58.9942 247.688 63.1133 248.946C63.5964 249.086 64.0795 249.226 64.5499 249.353C64.7024 249.391 64.8423 249.429 64.9821 249.455C65.1855 249.518 65.3889 249.569 65.5796 249.62C65.7068 249.645 65.8339 249.671 65.961 249.696C65.9865 249.709 66.0119 249.709 66.0373 249.722C66.3806 249.785 66.7111 249.849 67.0417 249.912C71.0718 250.662 74.4535 250.421 75.2163 248.539C75.2671 248.45 75.3053 248.349 75.318 248.234C75.3688 248.056 75.3943 247.866 75.3943 247.649V229.075C79.7295 229.813 84.3444 230.181 89.2009 230.181C98.2273 230.181 109.212 228.363 116.458 220.748C120.501 216.502 123.972 211.251 126.552 205.238C127.633 202.746 128.548 200.127 129.298 197.407C129.349 197.407 129.362 197.432 129.4 197.432C133.201 197.483 136.303 194.076 136.609 190.325C136.774 188.406 136.075 186.448 134.676 185.151Z" fill="#EED3C7"/>
<path fill-rule="evenodd" clip-rule="evenodd" d="M56.3508 222.415C56.0711 222.25 55.7914 222.084 55.5244 221.906L55.8422 222.033C55.9948 222.148 56.1728 222.275 56.3508 222.415Z" fill="#EED3C7"/>
<path fill-rule="evenodd" clip-rule="evenodd" d="M40.561 189.843L40.4085 190.148L40.1288 189.982C39.3024 189.461 38.2726 189.181 37.2556 189.181C36.2512 189.156 35.1833 189.398 34.4714 190.097C33.734 190.783 33.6832 191.953 33.9628 192.906C34.2934 193.86 35.1325 194.661 36.1368 194.902L36.1114 195.017C35.0562 194.801 34.1408 194.012 33.7467 192.983C33.4035 191.978 33.3907 190.694 34.2298 189.855C35.018 189.029 36.1749 188.736 37.2556 188.711C38.2345 188.686 39.2261 188.876 40.1288 189.321C40.5992 187.91 40.4466 186.359 39.5948 185.189C38.7049 183.918 37.2301 183.104 35.7427 182.558C34.2425 182.024 32.6279 181.719 31.0261 181.757C29.4496 181.77 27.8859 182.202 26.5383 182.914C23.7795 184.439 22.5463 187.681 22.5972 190.847C22.6353 194.038 23.7795 197.242 25.7247 199.911L25.623 199.988C24.4533 198.805 23.4871 197.381 22.8006 195.83C22.0887 194.292 21.6437 192.601 21.5674 190.885C21.4657 189.169 21.6691 187.389 22.4065 185.762C23.1057 184.134 24.3771 182.723 25.9662 181.897C27.5554 181.109 29.2971 180.714 31.0388 180.753C32.7551 180.791 34.4459 181.147 36.0478 181.757C37.6243 182.393 39.188 183.295 40.1923 184.783C41.2094 186.27 41.273 188.279 40.561 189.843Z" fill="#672448"/>
<path fill-rule="evenodd" clip-rule="evenodd" d="M127.964 197.459C127.328 197.497 126.692 197.446 126.082 197.293C125.93 197.255 124.404 196.823 124.951 196.518C125.065 196.454 125.192 196.48 125.319 196.492C125.447 196.505 125.561 196.518 125.675 196.543C126.4 196.683 127.087 196.963 127.9 196.912C128.231 196.887 128.307 197.433 127.964 197.459Z" fill="#672448"/>
<path fill-rule="evenodd" clip-rule="evenodd" d="M92.5445 199.632C92.5445 205.874 87.4974 210.921 81.2679 210.921C75.0257 210.921 69.9785 205.874 69.9785 199.632C69.9785 193.403 75.0257 188.355 81.2679 188.355C87.4974 188.355 92.5445 193.403 92.5445 199.632Z" fill="#C57450"/>
<path fill-rule="evenodd" clip-rule="evenodd" d="M75.3948 229.13V235.855C75.3693 235.842 75.3439 235.842 75.3185 235.83C75.1151 235.741 74.8735 235.639 74.6066 235.499H74.5938C73.9709 235.181 73.2081 234.749 72.3436 234.215C72.013 234.012 71.6825 233.796 71.3265 233.58C71.0977 233.427 70.8561 233.274 70.6146 233.122C70.2586 232.893 69.9027 232.651 69.534 232.41C69.3433 232.27 69.1399 232.143 68.9492 232.016C68.2881 231.571 67.6143 231.1 66.9278 230.63C66.6353 230.414 66.3302 230.21 66.0378 230.007C64.8428 229.168 63.635 228.304 62.4781 227.464C62.3128 227.35 62.1603 227.236 62.0077 227.121C61.7407 226.93 61.4865 226.74 61.2322 226.562C60.9907 226.384 60.7618 226.219 60.533 226.053C60.1389 225.761 59.7448 225.481 59.3761 225.201C59.0074 224.922 58.6514 224.655 58.3082 224.401C58.1175 224.273 57.9522 224.146 57.7742 224.019C57.3038 223.663 56.8716 223.345 56.4775 223.053C56.4775 223.04 56.4648 223.04 56.4648 223.04C56.452 223.028 56.4393 223.028 56.4266 223.015C55.2061 222.099 54.4561 221.527 54.4561 221.527L55.524 221.909L55.8418 222.036L75.1405 229.041L75.3948 229.13Z" fill="#EED3C7"/>
<path fill-rule="evenodd" clip-rule="evenodd" d="M94.5919 161.289C94.363 161.538 94.0323 161.5 93.7653 161.326C93.6381 161.24 93.3965 161.128 93.2185 161.091C92.9641 161.028 92.7988 161.016 92.5191 161.028C92.3283 161.053 92.0994 161.103 91.8705 161.202C91.8578 161.215 91.7688 161.252 91.7688 161.252C91.7052 161.289 91.6543 161.326 91.6034 161.364C91.489 161.438 91.4636 161.451 91.3873 161.525C90.7006 162.196 90.6624 163.301 91.2092 164.058C91.4 164.319 91.2855 164.704 91.0312 164.866C90.7514 165.039 90.4081 164.94 90.2173 164.679C89.3653 163.512 89.4925 161.687 90.5734 160.693C91.6797 159.675 93.3456 159.6 94.5537 160.457C94.8208 160.643 94.7826 161.078 94.5919 161.289Z" fill="#672448"/>
<path fill-rule="evenodd" clip-rule="evenodd" d="M100.753 192.909C98.7038 193.156 96.6308 189.671 96.1304 185.114C95.6182 180.557 96.8691 176.665 98.9063 176.407C100.955 176.161 103.028 179.646 103.529 184.202C104.041 188.759 102.79 192.651 100.753 192.909Z" fill="#672448"/>
<path fill-rule="evenodd" clip-rule="evenodd" d="M98.5575 173.212C98.5693 173.588 98.3332 173.852 98.0381 173.894C96.5034 174.075 95.075 175.397 94.5556 177.15C94.4612 177.484 94.2251 177.735 93.9063 177.651C93.6466 177.582 93.3987 177.192 93.4932 176.872C94.1897 174.52 95.9368 172.836 98.0027 172.586C98.2978 172.544 98.5575 172.878 98.5575 173.212Z" fill="#672448"/>
<path fill-rule="evenodd" clip-rule="evenodd" d="M109.01 210.55C104.351 211.155 99.4843 209.477 96.2043 205.654C95.9233 205.327 95.9602 204.834 96.2882 204.553C96.6136 204.272 97.1069 204.306 97.3892 204.637C102.003 210.008 110.127 210.626 115.498 206.016C115.822 205.736 116.317 205.771 116.6 206.1C116.881 206.428 116.843 206.921 116.516 207.202C114.312 209.093 111.695 210.201 109.01 210.55Z" fill="#672348"/>
<path fill-rule="evenodd" clip-rule="evenodd" d="M399.516 134.288C386.298 133.787 376.688 134.852 370.686 137.481C364.684 140.11 363.769 146.245 367.942 155.886C376.567 157.138 383.772 157.138 389.558 155.886C395.344 154.634 400.087 153.255 403.786 151.751L399.516 134.288Z" fill="#F2E14A"/>
<path fill-rule="evenodd" clip-rule="evenodd" d="M351.184 235.137C352.051 233.247 352.852 231.474 353.343 230.32C353.887 229.049 356.215 223.281 356.824 221.658C357.647 219.5 360.371 211.062 362.442 204.386L362.454 204.344L363.618 194.389C362.293 193.449 359.986 192.595 357.187 191.9C356.108 191.644 354.955 191.398 353.758 191.195L353.108 202.208L351.184 235.137Z" fill="#E2BCAB"/>
<path fill-rule="evenodd" clip-rule="evenodd" d="M327.974 233.622C329.096 229.873 330.26 226.145 331.478 222.428C332.215 220.26 332.93 218.081 333.689 215.923L336.113 209.482C336.979 207.357 337.918 205.274 338.815 203.159C339.777 201.076 340.899 199.079 341.935 197.028V197.007C341.935 196.985 341.924 196.964 341.913 196.953C341.881 196.943 341.849 196.953 341.837 196.975C340.769 199.015 339.616 201.002 338.623 203.074C337.694 205.167 336.711 207.25 335.814 209.365L333.292 215.774C332.491 217.92 331.745 220.099 330.976 222.257C330.045 224.991 329.139 227.736 328.263 230.481C328.167 231.517 328.07 232.564 327.974 233.622Z" fill="#E2BCAB"/>
<path fill-rule="evenodd" clip-rule="evenodd" d="M301.164 256.288C301.592 256.256 302.008 256.213 302.436 256.159C302.116 256.053 301.784 255.957 301.464 255.871C301.367 256.01 301.272 256.149 301.164 256.288Z" fill="#E2BCAB"/>
<path fill-rule="evenodd" clip-rule="evenodd" d="M247.193 302.288L247.321 302.17H247.075L247.193 302.288ZM297.052 256.188C298.419 256.306 299.786 256.37 301.163 256.284C301.592 256.252 302.007 256.209 302.435 256.156C302.115 256.049 301.783 255.953 301.463 255.868C300.042 255.472 298.601 255.28 297.158 255.12C295.374 254.97 293.59 254.896 291.776 255.141C293.517 255.739 295.279 255.996 297.052 256.188ZM249.306 298.314C249.596 298.058 249.884 297.812 250.173 297.556C255.535 292.846 260.703 287.911 265.682 282.784C266.814 281.62 267.935 280.445 269.036 279.249C292.084 254.639 329.053 162.461 353.276 152.613L354.089 154.782H354.1L354.163 154.963L362.388 176.859L362.869 178.13L361.682 179.167L354.068 185.842L353.758 191.193L353.107 202.206L351.183 235.136L346.762 310.534L343.515 365.947V365.958C339.905 374.866 336.166 380.014 332.503 379.587C330.014 379.299 327.525 379.021 325.037 378.743C324.673 378.7 324.31 378.658 323.946 378.626C318.915 378.06 313.896 377.526 308.865 377.088C307.733 376.981 303.76 376.554 302.991 376.479C302.991 376.479 306.035 352.318 307.305 337.45C307.359 336.82 307.605 333.252 307.947 327.922C308.149 324.921 308.373 321.354 308.63 317.434C308.983 311.976 309.378 305.845 309.784 299.617C305.436 304.776 301.473 309.348 299.552 311.356C297.618 313.375 295.674 315.383 293.698 317.348C291.925 319.111 290.141 320.862 288.326 322.582C287.033 323.81 285.741 325.028 284.416 326.235C283.081 327.474 281.105 329.343 278.713 331.597C278.594 331.704 278.488 331.81 278.37 331.917V331.885L278.072 332.195C278.04 332.227 278.017 332.248 278.008 332.259L277.997 332.27C277.986 332.28 277.986 332.28 277.975 332.291C277.975 332.291 277.901 332.366 277.805 332.462C277.495 332.729 277.196 333.028 276.876 333.316C276.267 333.893 275.647 334.481 274.995 335.089L271.737 331.896L271.332 331.49L247.843 308.568L247.022 307.767L244.148 304.969L243.935 304.744L243.218 304.05L242.888 303.73C245.056 301.957 247.203 300.162 249.306 298.314Z" fill="#F2E14A"/>
<path fill-rule="evenodd" clip-rule="evenodd" d="M353.277 152.615L354.09 154.784H354.1L354.163 154.965L362.388 176.862C363.157 174.255 363.799 171.788 364.268 169.47V169.46C366.212 159.868 365.262 153.107 358.788 151.889H358.777C357.038 151.558 355.189 151.825 353.277 152.615Z" fill="#FF90A0"/>
<path fill-rule="evenodd" clip-rule="evenodd" d="M353.107 202.207C354.516 198.736 355.893 195.275 357.186 191.9C358.873 187.478 360.423 183.195 361.683 179.168L354.067 185.844L353.757 191.195L353.107 202.207Z" fill="#FF90A0"/>
<path fill-rule="evenodd" clip-rule="evenodd" d="M291.776 255.144C293.517 255.742 295.278 255.998 297.051 256.191C298.42 256.308 299.787 256.372 301.164 256.287C301.591 256.255 302.007 256.212 302.435 256.159C302.115 256.052 301.783 255.956 301.463 255.87C300.042 255.475 298.601 255.283 297.158 255.123C295.374 254.973 293.591 254.898 291.776 255.144Z" fill="#FF90A0"/>
<path fill-rule="evenodd" clip-rule="evenodd" d="M327.974 233.622C329.096 229.873 330.26 226.145 331.478 222.428C332.215 220.26 332.93 218.081 333.689 215.923L336.113 209.482C336.979 207.357 337.918 205.274 338.815 203.159C339.777 201.076 340.899 199.079 341.935 197.028V197.007C341.935 196.985 341.924 196.964 341.913 196.953C341.881 196.943 341.849 196.953 341.837 196.975C340.769 199.015 339.616 201.002 338.623 203.074C337.694 205.167 336.711 207.25 335.814 209.365L333.292 215.774C332.491 217.92 331.745 220.099 330.976 222.257C330.045 224.991 329.139 227.736 328.263 230.481C328.167 231.517 328.07 232.564 327.974 233.622Z" fill="#FF90A0"/>
<path fill-rule="evenodd" clip-rule="evenodd" d="M291.776 255.144C293.517 255.742 295.278 255.998 297.051 256.191C298.42 256.308 299.787 256.372 301.164 256.287C301.591 256.255 302.007 256.212 302.435 256.159C302.115 256.052 301.783 255.956 301.463 255.87C300.042 255.475 298.601 255.283 297.158 255.123C295.374 254.973 293.591 254.898 291.776 255.144Z" fill="#672448"/>
<path fill-rule="evenodd" clip-rule="evenodd" d="M466.305 287.836C470.46 301.785 474.444 317.092 480.628 329.695L466.305 287.836Z" fill="#E2BCAB"/>
<path fill-rule="evenodd" clip-rule="evenodd" d="M372.235 158.572C375.082 161.888 385.525 160.599 390.378 158.572C390.422 158.007 392.657 156.37 397.084 153.661C394.424 153.32 403.02 146.719 377.497 146.719C371.144 146.719 367.721 147.822 367.227 150.028L372.235 158.572Z" fill="#E2BCAB"/>
<path fill-rule="evenodd" clip-rule="evenodd" d="M443.341 282.712C445.039 283.406 446.78 283.769 448.542 284.058C450.306 284.314 452.089 284.496 453.915 284.357C452.218 283.663 450.465 283.3 448.713 283.011C446.94 282.755 445.167 282.573 443.341 282.712Z" fill="#E2BCAB"/>
<path fill-rule="evenodd" clip-rule="evenodd" d="M409.342 243.423C409.663 245.699 409.876 247.984 410.272 250.249C410.731 252.492 411.158 254.756 411.649 256.999L413.326 263.686C413.668 264.935 414.032 266.174 414.384 267.424C414.384 266.879 414.395 266.334 414.395 265.79C414.181 265.053 413.957 264.316 413.743 263.568L411.959 256.924C411.436 254.692 410.977 252.449 410.485 250.206C410.058 247.963 409.803 245.677 409.45 243.413V243.402C409.45 243.381 409.417 243.359 409.385 243.359C409.365 243.37 409.342 243.391 409.342 243.423Z" fill="white"/>
<path fill-rule="evenodd" clip-rule="evenodd" d="M485.531 341.019L485.669 340.934L485.434 340.88L485.531 341.019ZM376.711 207.473C377.769 199.559 379.403 191.719 380.909 183.847C382.213 177.043 383.44 170.228 384.156 163.36C384.263 162.314 384.359 161.256 384.445 160.199C391.541 157.742 395.723 154.926 396.988 151.75L399.516 134.287C409.045 133.505 414.004 134.238 414.394 136.484C414.717 138.346 412.421 143.777 407.505 152.775C408.916 152.444 410.421 152.177 412.045 152.006C413.7 151.825 415.462 151.761 416.958 152.498C417.194 152.615 417.428 152.786 417.652 152.989C417.728 153.053 417.791 153.117 417.866 153.203C420.461 154.794 422.672 158.276 424.264 164.963L456.83 260.142L466.294 287.795C466.294 287.817 466.305 287.827 466.305 287.838C470.46 301.788 474.444 317.094 480.628 329.697C481.815 332.122 483.085 334.44 484.452 336.64C486.043 338.958 487.677 341.222 489.344 343.476L488.938 343.711L488.083 344.202L487.816 344.363L486.001 345.409L483.352 346.947L455.089 363.311L454.449 363.685L450.753 365.821L450.497 365.97C450.016 365.223 449.557 364.486 449.108 363.781C448.862 363.386 448.617 363.012 448.382 362.638C448.371 362.627 448.36 362.606 448.35 362.595L448.255 362.414L448.029 362.029L448.019 362.072C447.988 362.029 447.965 361.976 447.922 361.933C447.826 361.773 447.773 361.677 447.762 361.666L447.42 361.858C447.207 361.976 447.132 362.253 447.249 362.467L451.362 369.89V369.901C452.024 374.344 452.334 376.833 452.238 376.833C450.87 376.833 449.129 376.876 447.111 376.961C446.865 376.972 446.619 376.983 446.363 376.993C428.483 377.762 390.981 381.106 390.981 381.106C387.83 381.106 385.256 379.781 383.131 377.41C377.213 370.809 374.767 356.09 372.781 339.374C372.567 337.548 371.403 311.625 371.339 310.471C371.041 305.654 370.858 300.816 370.762 295.966C370.709 293.05 370.677 290.135 370.687 287.229V287.176C370.687 286.845 370.687 286.514 370.698 286.182C370.837 254.556 374.415 224.446 376.711 207.473Z" fill="#F2E14A"/>
<path fill-rule="evenodd" clip-rule="evenodd" d="M350.009 310.545C356.728 310.556 364.087 310.545 371.34 310.47C371.041 305.653 370.859 300.814 370.763 295.965C370.709 293.049 370.688 287.175 370.688 287.175C370.688 286.844 374.416 224.445 376.712 207.472C377.77 199.558 379.404 191.718 380.91 183.846C382.213 177.042 383.441 170.227 384.157 163.359C384.264 162.312 384.36 161.255 384.445 160.198C379.767 162.163 374.8 161.426 372.055 158.211L365.7 175.643L365.817 175.546L365.187 180.962L363.617 194.388L362.453 204.343L362.442 204.385L351.718 295.965L350.597 305.461L350.009 310.545Z" fill="white"/>
<path fill-rule="evenodd" clip-rule="evenodd" d="M327.974 233.622C329.096 229.873 330.26 226.145 331.478 222.428C332.215 220.26 332.93 218.081 333.689 215.923L336.113 209.482C336.979 207.357 337.918 205.274 338.815 203.159C339.777 201.076 340.899 199.079 341.935 197.028V197.007C341.935 196.985 341.924 196.964 341.913 196.953C341.881 196.943 341.849 196.953 341.837 196.975C340.769 199.015 339.616 201.002 338.623 203.074C337.694 205.167 336.711 207.25 335.814 209.365L333.292 215.774C332.491 217.92 331.745 220.099 330.976 222.257C330.045 224.991 329.139 227.736 328.263 230.481C328.167 231.517 328.07 232.564 327.974 233.622Z" fill="white"/>
<path fill-rule="evenodd" clip-rule="evenodd" d="M328.262 230.478C329.138 227.733 330.046 224.988 330.975 222.254C331.745 220.096 332.492 217.917 333.293 215.77L335.813 209.362C336.711 207.247 337.693 205.164 338.623 203.07C339.616 200.998 340.769 199.012 341.838 196.972C341.849 196.95 341.88 196.94 341.912 196.95C341.923 196.961 341.935 196.982 341.935 197.004V197.025C340.898 199.076 339.776 201.073 338.815 203.156C337.918 205.271 336.978 207.354 336.114 209.479L333.688 215.92C332.93 218.077 332.214 220.256 331.478 222.425C330.259 226.142 329.095 229.869 327.974 233.618C328.07 232.561 328.166 231.514 328.262 230.478ZM346.762 310.533L351.184 235.135L353.107 202.205L353.758 191.193L354.067 185.842L361.683 179.166L362.869 178.13L362.388 176.859L354.164 154.963L354.1 154.781C354.218 154.771 354.314 154.76 354.431 154.749H354.453C355.115 154.696 355.778 154.653 356.193 154.664C356.439 154.674 356.684 154.674 356.919 154.696C357.422 154.738 361.32 154.343 362.826 154.268C362.89 154.258 362.965 154.258 363.03 154.258C363.05 154.621 363.083 154.973 363.126 155.337C363.157 155.732 363.189 156.116 363.232 156.501C363.308 157.377 363.799 163.529 364.268 169.457V169.468C364.471 171.967 364.663 174.424 364.823 176.421C364.867 176.902 364.899 177.329 364.93 177.746V177.756C365.069 179.455 365.154 180.64 365.187 180.961L363.617 194.387L362.453 204.342L362.441 204.384L351.718 295.964H351.707L350.596 305.46L350.009 310.544L343.515 365.947L346.762 310.533Z" fill="#FF90A0"/>
<path fill-rule="evenodd" clip-rule="evenodd" d="M409.342 243.423C409.662 245.699 409.876 247.984 410.271 250.249C410.73 252.492 411.158 254.756 411.649 256.999L413.326 263.686C413.668 264.935 414.032 266.174 414.383 267.424C414.672 268.385 414.95 269.347 415.217 270.308C417.876 279.098 420.792 287.814 423.955 296.434C425.524 300.749 427.116 305.053 428.771 309.337C430.426 313.62 432.147 317.871 433.876 322.133C437.445 330.592 441.086 339.019 445.092 347.287C445.102 347.319 445.134 347.329 445.156 347.308C445.189 347.297 445.198 347.265 445.189 347.244C441.748 338.731 438.246 330.25 434.86 321.727C433.139 317.476 431.42 313.225 429.754 308.952C428.045 304.701 426.389 300.418 424.756 296.135C421.497 287.558 418.486 278.895 415.729 270.148C415.291 268.695 414.843 267.242 414.394 265.79C414.18 265.053 413.956 264.316 413.743 263.568L411.959 256.924C411.435 254.692 410.976 252.449 410.485 250.206C410.058 247.963 409.802 245.677 409.45 243.413V243.402C409.45 243.381 409.417 243.359 409.385 243.359C409.364 243.37 409.342 243.391 409.342 243.423Z" fill="#FF90A0"/>
<path fill-rule="evenodd" clip-rule="evenodd" d="M456.83 260.145L466.294 287.798C464.916 283.162 463.506 278.676 462 274.489C460.28 269.704 458.55 264.919 456.83 260.145Z" fill="#FF90A0"/>
<path fill-rule="evenodd" clip-rule="evenodd" d="M443.341 282.712C445.039 283.406 446.78 283.769 448.542 284.058C450.306 284.314 452.089 284.496 453.915 284.357C452.218 283.663 450.465 283.3 448.713 283.011C446.94 282.755 445.167 282.573 443.341 282.712Z" fill="#FF90A0"/>
<path fill-rule="evenodd" clip-rule="evenodd" d="M409.342 243.423C409.662 245.699 409.876 247.984 410.271 250.249C410.73 252.492 411.158 254.756 411.649 256.999L413.326 263.686C413.668 264.935 414.032 266.174 414.383 267.424C414.672 268.385 414.95 269.347 415.217 270.308C417.876 279.098 420.792 287.814 423.955 296.434C425.524 300.749 427.116 305.053 428.771 309.337C430.426 313.62 432.147 317.871 433.876 322.133C437.445 330.592 441.086 339.019 445.092 347.287C445.102 347.319 445.134 347.329 445.156 347.308C445.189 347.297 445.198 347.265 445.189 347.244C441.748 338.731 438.246 330.25 434.86 321.727C433.139 317.476 431.42 313.225 429.754 308.952C428.045 304.701 426.389 300.418 424.756 296.135C421.497 287.558 418.486 278.895 415.729 270.148C415.291 268.695 414.843 267.242 414.394 265.79C414.18 265.053 413.956 264.316 413.743 263.568L411.959 256.924C411.435 254.692 410.976 252.449 410.485 250.206C410.058 247.963 409.802 245.677 409.45 243.413V243.402C409.45 243.381 409.417 243.359 409.385 243.359C409.364 243.37 409.342 243.391 409.342 243.423Z" fill="#FF90A0"/>
<path fill-rule="evenodd" clip-rule="evenodd" d="M443.341 282.712C445.039 283.406 446.78 283.769 448.542 284.058C450.306 284.314 452.089 284.496 453.915 284.357C452.218 283.663 450.465 283.3 448.713 283.011C446.94 282.755 445.167 282.573 443.341 282.712Z" fill="#672448"/>
<path fill-rule="evenodd" clip-rule="evenodd" d="M409.342 243.423C409.662 245.699 409.876 247.984 410.271 250.249C410.73 252.492 411.158 254.756 411.649 256.999L413.326 263.686C413.668 264.935 414.032 266.174 414.383 267.424C414.672 268.385 414.95 269.347 415.217 270.308C417.876 279.098 420.792 287.814 423.955 296.434C425.524 300.749 427.116 305.053 428.771 309.337C430.426 313.62 432.147 317.871 433.876 322.133C437.445 330.592 441.086 339.019 445.092 347.287C445.102 347.319 445.134 347.329 445.156 347.308C445.189 347.297 445.198 347.265 445.189 347.244C441.748 338.731 438.246 330.25 434.86 321.727C433.139 317.476 431.42 313.225 429.754 308.952C428.045 304.701 426.389 300.418 424.756 296.135C421.497 287.558 418.486 278.895 415.729 270.148C415.291 268.695 414.843 267.242 414.394 265.79C414.18 265.053 413.956 264.316 413.743 263.568L411.959 256.924C411.435 254.692 410.976 252.449 410.485 250.206C410.058 247.963 409.802 245.677 409.45 243.413V243.402C409.45 243.381 409.417 243.359 409.385 243.359C409.364 243.37 409.342 243.391 409.342 243.423Z" fill="#672448"/>
<path fill-rule="evenodd" clip-rule="evenodd" d="M310.446 302.236C310.446 302.268 310.468 302.3 310.499 302.3C310.52 302.311 310.552 302.29 310.552 302.258C310.958 300.591 311.354 298.925 311.759 297.259C311.962 296.404 312.165 295.56 312.368 294.717C313.896 288.308 315.423 281.899 317.015 275.501C318.083 271.047 319.161 266.583 320.294 262.139C321.383 257.685 322.526 253.242 323.69 248.809C325.036 243.725 326.457 238.662 327.973 233.631V233.621C328.069 232.563 328.166 231.517 328.262 230.48C326.339 236.483 324.545 242.518 322.868 248.585C321.629 253.007 320.422 257.44 319.268 261.883C318.125 266.326 317.047 270.791 315.968 275.256C314.451 281.963 312.988 288.682 311.695 295.432C311.536 296.255 311.375 297.077 311.225 297.9C310.958 299.342 310.691 300.784 310.446 302.236Z" fill="#672448"/>
<path fill-rule="evenodd" clip-rule="evenodd" d="M327.974 233.622C329.096 229.873 330.26 226.145 331.478 222.428C332.215 220.26 332.93 218.081 333.689 215.923L336.113 209.482C336.979 207.357 337.918 205.274 338.815 203.159C339.777 201.076 340.899 199.079 341.935 197.028V197.007C341.935 196.985 341.924 196.964 341.913 196.953C341.881 196.943 341.849 196.953 341.837 196.975C340.769 199.015 339.616 201.002 338.623 203.074C337.694 205.167 336.711 207.25 335.814 209.365L333.292 215.774C332.491 217.92 331.745 220.099 330.976 222.257C330.045 224.991 329.139 227.736 328.263 230.481C328.167 231.517 328.07 232.564 327.974 233.622Z" fill="#672448"/>
<path fill-rule="evenodd" clip-rule="evenodd" d="M343.515 365.949L350.009 310.546L350.596 305.462L351.718 295.967L362.442 204.387L362.452 204.344L363.617 194.389L365.187 180.963L365.817 175.548L365.7 175.644L372.055 158.212C370.896 155.357 370.222 152.483 370.031 149.593C369.84 146.702 370.058 142.664 370.685 137.48L352.145 149.593L353.277 152.615L354.089 154.784H354.1L354.164 154.965L362.388 176.862L362.869 178.133L361.683 179.169L354.068 185.844L353.758 191.196L353.106 202.208L351.184 235.138L346.762 310.536L343.515 365.949Z" fill="#7CC0BB"/>
<path fill-rule="evenodd" clip-rule="evenodd" d="M403.286 109.836C402.079 110.327 400.84 110.733 399.57 111.075C400.852 110.915 402.091 110.477 403.286 109.836Z" fill="#E2BCAB"/>
<path fill-rule="evenodd" clip-rule="evenodd" d="M328.336 94.7145C328.738 94.5916 330.415 93.4135 329.296 93.4861C328.677 93.9614 325.414 95.6576 328.336 94.7145ZM394.227 92.5142L394.324 92.7278C397.087 90.5093 401.079 94.253 397.155 95.9642L397.164 96.0496C401.195 94.5564 397.658 90.3106 394.527 92.1724C394.498 82.5989 412.885 87.2922 404.119 99.4355L404.183 99.4889C415.218 86.2508 392.733 81.6782 394.227 92.5142ZM323.102 86.7998C332.327 74.0519 327.646 55.4379 336.282 42.5586C343.097 45.6412 356.753 47.8393 366.575 47.9846C366.31 62.2247 376.032 78.288 388.898 85.0267C411.402 70.5367 422.308 111.324 395.584 110.031C395.408 110.089 370.967 126.136 370.771 126.096V126.138C362.084 130.27 350.781 137.128 341.388 130.817C331.476 122.624 325.568 108.349 326.168 95.6758C320.047 97.5717 318.579 90.0073 323.102 86.7998Z" fill="#E2BCAB"/>
<path fill-rule="evenodd" clip-rule="evenodd" d="M394.227 92.5135L394.324 92.7271C397.088 90.5097 401.079 94.2523 397.154 95.9634L397.165 96.0489C401.195 94.5557 397.658 90.3099 394.526 92.1717C394.499 82.5982 412.885 87.2915 404.119 99.4348L404.182 99.4882C415.218 86.25 392.733 81.6775 394.227 92.5135Z" fill="#E2BCAB"/>
<path fill-rule="evenodd" clip-rule="evenodd" d="M370.772 126.096V126.138C377.431 122.978 384.483 120.144 390.254 115.863C390.254 115.863 390.277 115.863 390.277 115.852C392.065 114.143 395.349 112.606 395.584 110.031C395.408 110.089 370.967 126.137 370.772 126.096Z" fill="#E2BCAB"/>
<path fill-rule="evenodd" clip-rule="evenodd" d="M328.336 94.7159C328.738 94.5931 330.415 93.415 329.296 93.4876C328.677 93.9629 325.414 95.6591 328.336 94.7159Z" fill="#E2BCAB"/>
<path fill-rule="evenodd" clip-rule="evenodd" d="M328.336 94.7159C328.738 94.5931 330.415 93.415 329.296 93.4876C328.677 93.9629 325.414 95.6591 328.336 94.7159Z" fill="#672348"/>
<path fill-rule="evenodd" clip-rule="evenodd" d="M394.227 92.5135L394.324 92.7271C397.088 90.5097 401.079 94.2523 397.154 95.9634L397.165 96.0489C401.195 94.5557 397.658 90.3099 394.526 92.1717C394.499 82.5982 412.885 87.2915 404.119 99.4348L404.182 99.4882C415.218 86.25 392.733 81.6775 394.227 92.5135Z" fill="#672348"/>
<path fill-rule="evenodd" clip-rule="evenodd" d="M335.738 42.3249C342.867 45.6392 356.415 47.8043 366.574 47.9859C366.309 62.2259 376.032 78.2892 388.899 85.028C411.402 70.538 422.308 111.325 395.584 110.032V110.983L395.808 110.727C436.76 107.892 436.639 39.5392 397.474 33.0643C392.198 27.4461 377.854 22.3832 360.636 20.6636C331.222 16.9294 311.736 29.609 335.738 42.3249Z" fill="black"/>
<path fill-rule="evenodd" clip-rule="evenodd" d="M395.585 110.987L395.597 111.863C396.943 111.681 398.278 111.414 399.569 111.072C398.341 111.232 397.091 111.136 395.81 110.73C395.736 110.816 395.66 110.901 395.585 110.987Z" fill="#672348"/>
<path fill-rule="evenodd" clip-rule="evenodd" d="M370.676 134.523C370.676 134.463 370.785 126.149 370.784 126.096C370.937 126.143 395.444 110.072 395.584 110.031C395.38 120.152 394.903 142.084 394.506 151.965H370.462L370.676 134.523Z" fill="#E2BCAB"/>
<path fill-rule="evenodd" clip-rule="evenodd" d="M370.612 134.555C373.892 133.251 383.902 122.743 390.254 115.863C390.254 115.863 390.275 115.863 390.275 115.852C393.244 112.637 395.38 110.245 395.584 110.031C395.408 110.089 370.966 126.136 370.771 126.096C370.753 127.304 370.688 133.486 370.612 134.555Z" fill="#E2BCAB"/>
<path fill-rule="evenodd" clip-rule="evenodd" d="M338.036 80.8813C340.123 74.7465 348.589 75.1989 351.865 80.6318C352.951 71.8911 337.921 72.8881 338.036 80.8813Z" fill="#672348"/>
<path fill-rule="evenodd" clip-rule="evenodd" d="M339.498 62.4703C343.379 61.5739 348.731 63.7078 350.853 66.9963C347.944 55.6194 333.446 59.9445 339.498 62.4703Z" fill="#672348"/>
<path fill-rule="evenodd" clip-rule="evenodd" d="M340.425 108.653C343.619 108.653 346.752 107.068 348.63 104.15C348.79 103.9 348.722 103.566 348.477 103.401C348.234 103.238 347.903 103.306 347.742 103.558C345.101 107.657 339.679 108.805 335.655 106.119C335.41 105.955 335.081 106.023 334.918 106.274C334.758 106.524 334.826 106.86 335.071 107.023C336.724 108.126 338.584 108.653 340.425 108.653Z" fill="#672348"/>
<path fill-rule="evenodd" clip-rule="evenodd" d="M340.557 74.4348C341.018 73.606 341.884 73.3242 342.308 72.5204C342.128 71.5418 339.125 74.8807 340.557 74.4348Z" fill="#672348"/>
</g>
<defs>
<filter id="filter0_d" x="196.225" y="140.832" width="41.2966" height="41.2969" filterUnits="userSpaceOnUse" color-interpolation-filters="sRGB">
<feFlood flood-opacity="0" result="BackgroundImageFix"/>
<feColorMatrix in="SourceAlpha" type="matrix" values="0 0 0 0 0 0 0 0 0 0 0 0 0 0 0 0 0 0 127 0"/>
<feOffset dy="0.498281"/>
<feGaussianBlur stdDeviation="0.311426"/>
<feColorMatrix type="matrix" values="0 0 0 0 0 0 0 0 0 0 0 0 0 0 0 0 0 0 0.08 0"/>
<feBlend mode="normal" in2="BackgroundImageFix" result="effect1_dropShadow"/>
<feBlend mode="normal" in="SourceGraphic" in2="effect1_dropShadow" result="shape"/>
</filter>
<filter id="filter1_d" x="209.481" y="151.961" width="16.623" height="19.1648" filterUnits="userSpaceOnUse" color-interpolation-filters="sRGB">
<feFlood flood-opacity="0" result="BackgroundImageFix"/>
<feColorMatrix in="SourceAlpha" type="matrix" values="0 0 0 0 0 0 0 0 0 0 0 0 0 0 0 0 0 0 127 0"/>
<feOffset dy="0.622851"/>
<feGaussianBlur stdDeviation="0.24914"/>
<feColorMatrix type="matrix" values="0 0 0 0 0 0 0 0 0 0 0 0 0 0 0 0 0 0 0.1 0"/>
<feBlend mode="normal" in2="BackgroundImageFix" result="effect1_dropShadow"/>
<feBlend mode="normal" in="SourceGraphic" in2="effect1_dropShadow" result="shape"/>
</filter>
<clipPath id="clip0">
<rect width="485" height="296" fill="white"/>
</clipPath>
</defs>
</svg>
