<svg width="1014" height="481" viewBox="0 0 1014 481" fill="none" xmlns="http://www.w3.org/2000/svg">
<path fill-rule="evenodd" clip-rule="evenodd" d="M938.057 231.417C932.272 227.909 928.028 223.926 922.302 221.541C915.612 221.41 918.017 228.35 922.672 229.994C927.762 234.884 938.001 237.125 938.464 245.109C938.557 254.69 938.849 264.269 939.072 273.847C941.323 315.9 936.987 356.972 937.754 399.2C931.087 395.704 926.028 390.262 918.508 389.335C914.259 388.907 913.072 394.831 917.213 395.954C923.19 398.346 938.337 405.543 938.276 412.288C938.714 433.442 941.115 454.45 946.331 474.983C948.101 480.918 936.765 479.227 933.126 480.607C916.316 479.346 902.49 468.765 892.791 455.529C881.905 445.178 877.771 429.948 877.174 415.272C872.752 382.852 872.025 370.722 887.524 340.53C917.311 283.101 860.08 230.582 890.486 179.754C902.292 159.06 923.337 138.517 916.953 112.721C911.096 92.3109 908.365 70.0925 921.782 51.9647C931.359 41.1104 945.923 30.7277 961.15 34.4782C982.74 43.5099 992.185 68.5122 993.855 90.6823C995.346 123.153 971.298 154.122 985.407 186.436C994.135 219.813 1024.31 255.6 1008.82 290.463C1002.68 304.557 992.349 317.343 992.089 333.286C991.455 357.768 1014.42 372.777 1013.28 399.336C1016.13 418.297 1010.57 438.21 995.36 450.788C988.581 456.528 984.436 465.26 975.083 467.504C970.172 467.46 953.472 479.784 953.271 472.057C948.456 454.108 946.654 435.719 945.902 417.191C944.578 412.891 953.464 409.876 947.788 406.253C941.988 399.909 946.636 385.153 945.119 376.551C944.639 358.539 946.985 340.659 947.4 322.675C946.973 315.117 972.275 304.593 975.023 299.36C976.098 283.187 953.646 307.978 948.047 310.039C945.107 267.277 946.795 226.712 946.058 183.967C934.325 165.027 940.142 226.472 938.057 231.417Z" fill="#52DC82"/>
<path fill-rule="evenodd" clip-rule="evenodd" d="M152.287 331.636C194.719 340.955 190.445 314.211 191.36 351.754C191.97 392.395 193.418 433.013 195.425 473.608C196.014 479.697 183.297 475.157 179.399 476.147L179.4 476.097C173.85 474.631 138.206 476.809 140.199 471.235C137.949 446.729 136.678 422.18 136.653 397.575L136.079 386.483C135.086 367.258 134.169 348.033 134.298 328.771C132.776 324.062 148.904 332.453 152.287 331.636ZM256.662 301.378L256.191 334.721C254.112 380.433 257.868 428.514 260.028 474.499C261.009 481.264 236.451 476.232 231.466 477.276C225.742 475.979 203.013 480.056 202.063 474.514C200.415 454.422 200.392 434.237 199.647 414.101C198.514 389.744 198.092 365.373 197.788 340.994C198.6 336.369 195.104 329.661 199.041 326.353L200.6 325.488C218.262 315.639 235.385 304.461 254.834 298.424C256.83 297.862 256.7 299.961 256.662 301.378ZM79.996 301.869L83.6207 303.053L85.6597 303.726C99.2664 308.247 125.403 317.532 127.59 325.119L127.833 335.052L128.002 341.84C129.088 384.835 130.447 427.871 133.567 470.763C134.002 477.043 121.245 471.501 117.268 472.53C112.193 471.338 84.5916 473.85 85.6776 467.869C82.7062 413.85 80.5921 359.783 76.5205 305.825L76.6349 305.817L76.6453 305.618C76.7617 303.124 76.4382 300.449 79.996 301.869ZM70.0128 303.4C73.6727 358.45 76.6986 413.57 78.8817 468.681C76.4683 472.931 56.2886 469.07 50.3525 470.252C42.3978 469.688 32.057 474.334 34.6149 461.837L34.8086 461.828C33.6671 432.594 31.2195 403.497 30.1303 374.253L29.7985 371.483L29.5839 369.664C27.4185 351.178 25.767 332.646 27.9261 314.06L27.9827 313.867C28.2113 313.136 28.6652 312.175 29.1529 312.078C32.2232 311.471 33.2247 308.071 36.1674 307.221C38.9594 306.415 41.5582 304.962 44.303 303.96L45.3216 303.63L46.3322 303.313C53.2684 301.164 69.9301 296.641 70.0128 303.4ZM311.267 290.326C313.909 291.724 326.077 290.024 325.607 295.595C325.796 306.608 325.873 317.623 326.159 328.633L326.729 346.097C327.43 367.442 328.166 388.787 329.131 410.122C329.978 430.837 331.316 451.529 332.762 472.209C335.726 478.877 309.226 474.967 304.614 476.346C294.333 476.654 284.055 477.081 273.784 477.634L270.361 477.824C267.647 477.973 266.811 477.385 266.568 474.482C262.779 416.223 261.097 357.88 263.371 299.534C260.821 291.229 304.335 290.604 311.267 290.326Z" fill="#9BC9CD"/>
<path fill-rule="evenodd" clip-rule="evenodd" d="M335.583 295.806C344.285 299.064 352.632 303.001 360.069 308.688C391.35 333.48 393.88 310.431 391.645 349.853L391.26 356.551C389.297 389.199 392.638 421.831 392.692 454.503C391.706 459.298 396.002 475.014 389.6 474.94C374.075 475.623 358.488 474.893 342.967 475.578C337.163 476.1 339.95 466.941 338.8 463.224C338.047 451.267 337.231 439.313 336.61 427.35C335.071 387.318 332.744 347.299 332.87 307.225C333.589 304.109 329.944 293.312 335.583 295.806ZM453.633 305.566C452.735 339.002 450.075 372.518 447.919 405.941C447.294 415.056 446.665 424.17 446.034 433.284L443.649 467.666L443.594 468.618C443.483 470.279 443.185 472.018 441.099 472.033C428.656 473.372 416.16 472.782 403.725 474.119L403.42 474.164C400.392 474.577 399.746 473.798 399.668 470.622C399.075 433.048 396.92 395.523 397.249 357.935L397.861 357.936C399.941 311.956 392.225 335.93 427.047 318.87C436.004 314.662 444.305 308.845 453.633 305.566ZM515.044 298.398C524.373 300.661 517.733 333.296 519.313 342.518C519.98 375.274 513.791 407.743 515.074 440.57C515.149 447.474 520.447 476.192 508.706 473.277C490.511 469.859 471.656 472.903 453.31 472.445C446.951 473.98 451.984 451.196 450.983 446.733L451.304 446.745C454.984 401.776 457.589 356.729 460.235 311.689C461.111 307.904 459.47 302.22 463.466 300.118C479.454 291.8 498.745 289.777 515.044 298.398Z" fill="#EBBF5E"/>
<path fill-rule="evenodd" clip-rule="evenodd" d="M809.791 390.42C811.222 411.44 812.138 432.483 813.059 453.532C813.362 460.061 813.734 466.587 814.093 473.114C814.947 478.774 808.436 476.496 805.186 475.864C792.326 474.513 782.741 466.892 777.112 455.45C763.392 429.141 803.232 427.039 790.036 408.674C780.546 396.42 766.478 397.913 769.744 377.683C771.009 362.176 789.148 364.85 789.812 351.714C789.907 349.482 789.187 347.568 787.375 346.189C780.721 341.122 778.322 333.611 776.809 326.093C774.556 313.555 786.811 301.876 798.855 300.446C825.214 292.849 840.139 318.626 828.332 340.925C824.687 350.958 841.427 352.157 847.5 367.436C859.901 397.109 832.225 405.199 842.48 413.629C847.792 417.938 853.684 421.907 855.595 428.83C862.396 447.18 864.281 472.024 839.437 475.697C834.907 475.087 821.209 478.741 819.939 473.745C817.001 442.568 816.469 411.025 815.112 379.754C809.173 372.382 809.817 386.852 810.012 390.409C809.938 390.413 809.865 390.416 809.791 390.42Z" fill="#60D6E1"/>
<path fill-rule="evenodd" clip-rule="evenodd" d="M753.989 162.011C748.385 160.33 739.286 162.901 733.758 160.001C722.364 157.518 712.54 152.356 703.169 145.185C696.262 139.942 689.911 131.3 689.145 122.548C689.828 114.472 702.65 116.936 708.517 114.728C712.349 113.116 720.658 116.385 721.928 111.599C721.504 98.467 718.442 81.5846 734.275 76.1239C747.293 71.9996 761.816 79.8143 770.892 89.0971C774.697 93.9789 778.229 79.2104 781.049 76.9027C790.261 63.0544 813.674 54.0179 815.256 78.0099C816.136 83.2805 816.547 88.6029 815.568 93.9661C815.08 96.6413 815.81 97.1208 818.271 95.9033C862.666 73.5694 838.045 134.739 817.681 144.128C797.721 155.214 777.456 161.411 753.989 162.011Z" fill="#60D6E1"/>
<path fill-rule="evenodd" clip-rule="evenodd" d="M84.5277 61.7349C73.6114 92.1155 106.523 115.64 93.3273 113.581C81.6325 111.342 34.9634 122.269 33.2832 108.369C42.1665 86.3092 59.7022 65.8942 84.5277 61.7349ZM147.338 25.4312C171.033 25.4495 191.871 40.0934 206.554 57.5971L206.931 58.0579C208.496 60.0018 208.282 60.2591 205.673 61.4548C196.758 65.5404 189.641 71.773 183.733 79.4764C177.321 87.8371 172.249 96.977 168.327 106.71C165.884 113.693 157.176 109.626 151.586 110.698L151.582 110.627C142.027 110.938 132.468 111.149 122.919 111.603C116.821 110.939 109.082 115.329 103.941 111.419L103.313 110.619C93.0749 97.4691 83.85 80.3178 90.762 63.5756C95.873 56.7715 113.015 61.7491 121.444 55.8345C135.289 50.9331 131.984 27.5465 147.338 25.4312ZM213.947 68.1063C221.394 79.8118 225.785 92.6694 228.28 106.232C231.965 113.308 199.659 109.628 194.683 111.183L194.669 110.784C191.068 109.675 168.749 113.862 173.534 107.338C177.612 97.7366 182.63 88.6691 189.267 80.5753L189.642 80.1387C194.038 75.0892 209.898 59.3138 213.947 68.1063ZM240.31 64.7592C243.84 66.4179 247.319 68.3457 250.461 70.6495C258.766 76.7377 265.624 84.3187 271.783 92.57C274.703 96.2167 271.553 100.897 271.211 104.99C271.921 111.278 249.133 107.799 244.373 109.123C240.507 108.455 234.675 111.235 233.881 106.247L233.587 104.931C230.481 91.1116 226.76 77.3635 218.886 65.4159C215.659 58.7564 237.176 62.7803 240.31 64.7592ZM372.726 39.7144C376.256 44.4506 381.924 33.4395 385.252 38.6876C391.639 55.397 399.763 53.4639 380.692 61.3722C339.714 81.2169 358.906 111.69 342.386 108.439C334.353 108.52 326.322 108.521 318.29 108.513V108.435C309.337 108.435 300.382 108.347 291.431 108.49C285.17 108.567 284.627 100.292 281.15 96.4275C281.549 67.6441 298.085 35.6685 323.143 19.5963C341.261 9.71034 360.974 26.994 372.726 39.7144ZM277.772 101.794C279.099 104.308 280.958 105.611 280.433 107.717C275.501 109.233 276.585 105.34 277.772 101.794ZM398.982 82.6866C403.577 118.94 394.582 99.7952 355.011 107.427C354.801 84.686 371.604 69.2917 391.712 62.21C397.605 58.3679 397.571 78.9778 398.982 82.6866ZM430.152 53.5979C443.659 53.4403 468.86 107.181 444.009 103.521C432.056 103.733 420.101 104.283 408.149 104.296C402.831 104.419 405.753 97.1387 405.055 93.8011C406.202 58.1739 383.981 57.8377 430.152 53.5979ZM205.637 0.394146C222.195 0.319667 238.12 7.29352 252.553 14.8576C273.342 29.1014 296.404 18.3186 318.705 15.3069C293.205 31.8531 282.907 59.4121 275.282 87.3979C261.304 70.2077 241.88 52.1605 217.885 57.4082C214.839 58.1767 213.141 57.2009 211.351 54.9803L211.232 54.8304C196.02 35.6125 173.948 21.345 149.079 19.2171C164.951 6.69593 186.098 3.25814 205.637 0.394146ZM427.616 48.1468L425.876 48.4326C416.986 49.8816 409.637 50.9338 401.26 53.275L400.955 53.3466C398.605 53.889 398.328 53.6771 397.287 51.467C396.837 48.215 386.434 34.5806 392.676 35.0607C406.107 33.4593 416.953 40.0789 427.616 48.1468Z" fill="#7DB4DB"/>
<path fill-rule="evenodd" clip-rule="evenodd" d="M35.6404 243.362C18.5854 244.016 7.66762 228.112 0.914518 214.296C-4.9276 195.271 18.3641 165.162 38.266 165.791C54.329 165.168 63.9346 176.664 71.3535 189.441C85.1286 215.913 64.5754 243.927 35.6404 243.362Z" fill="#60D6E1"/>
</svg>
