<svg width="163" height="20" viewBox="0 0 163 20" fill="none" xmlns="http://www.w3.org/2000/svg">
<g clip-path="url(#clip0)">
<path d="M31.8977 15.8445C32.4111 15.8445 32.9057 15.7229 33.3815 15.4796C33.8573 15.2364 34.2767 14.8851 34.6399 14.4256C35.003 13.9662 35.2941 13.402 35.5132 12.7331C35.7323 12.0642 35.8419 11.3041 35.8419 10.4528C35.8419 9.68257 35.7605 8.98666 35.5977 8.36506C35.4349 7.74346 35.197 7.21308 34.884 6.77391C34.571 6.33474 34.1891 5.99691 33.7383 5.76044C33.2876 5.52396 32.7742 5.40572 32.1983 5.40572C31.7225 5.40572 31.256 5.52058 30.799 5.7503C30.342 5.98002 29.9194 6.27731 29.5313 6.64216L29.5876 4.98006V1.29103H27.4277V15.6012H29.1369L29.3247 14.5472H29.381C29.7692 14.9661 30.1792 15.2871 30.6112 15.51C31.0432 15.733 31.472 15.8445 31.8977 15.8445ZM31.447 13.9189C31.1715 13.9189 30.8742 13.8581 30.5549 13.7365C30.2356 13.6148 29.9132 13.3986 29.5876 13.0878V8.44614C30.2888 7.70293 30.9649 7.33132 31.616 7.33132C32.3172 7.33132 32.8243 7.60834 33.1373 8.16237C33.4504 8.7164 33.6069 9.49339 33.6069 10.4934C33.6069 11.6284 33.4003 12.4831 32.9871 13.0574C32.5739 13.6317 32.0605 13.9189 31.447 13.9189ZM40.1616 15.6012V9.52042C40.4496 8.76369 40.7939 8.23331 41.1946 7.92927C41.5953 7.62523 41.9772 7.47321 42.3403 7.47321C42.5406 7.47321 42.7097 7.48672 42.8474 7.51374C42.9851 7.54077 43.1354 7.58131 43.2982 7.63536L43.6738 5.60842C43.4108 5.47329 43.0603 5.40572 42.622 5.40572C42.1337 5.40572 41.6579 5.57801 41.1946 5.92259C40.7313 6.26717 40.3369 6.76378 40.0114 7.4124H39.9363L39.786 5.64896H38.0018V15.6012H40.1616ZM46.0966 3.90578C46.4848 3.90578 46.804 3.78417 47.0545 3.54093C47.3049 3.2977 47.4301 2.98015 47.4301 2.58827C47.4301 2.1964 47.3049 1.87546 47.0545 1.62547C46.804 1.37548 46.4848 1.25049 46.0966 1.25049C45.7085 1.25049 45.3892 1.37548 45.1387 1.62547C44.8883 1.87546 44.7631 2.1964 44.7631 2.58827C44.7631 2.98015 44.8883 3.2977 45.1387 3.54093C45.3892 3.78417 45.7085 3.90578 46.0966 3.90578ZM47.1672 15.6012V5.64896H45.0073V15.6012H47.1672ZM53.1397 19.9997C53.891 19.9997 54.5702 19.9085 55.1775 19.7261C55.7848 19.5437 56.3013 19.297 56.727 18.9862C57.1527 18.6754 57.4814 18.3038 57.713 17.8714C57.9446 17.439 58.0605 16.9796 58.0605 16.4931C58.0605 15.6283 57.7756 15.0033 57.2059 14.6182C56.6362 14.2331 55.7942 14.0405 54.6798 14.0405H53.0458C52.4823 14.0405 52.0911 13.9594 51.8719 13.7973C51.6528 13.6351 51.5433 13.4122 51.5433 13.1284C51.5433 12.8987 51.584 12.7162 51.6653 12.5811C51.7467 12.446 51.8563 12.3108 51.994 12.1757C52.2069 12.2703 52.4197 12.3379 52.6326 12.3784C52.8454 12.4189 53.052 12.4392 53.2524 12.4392C53.7407 12.4392 54.1977 12.3649 54.6234 12.2163C55.0491 12.0676 55.4185 11.8514 55.7315 11.5676C56.0446 11.2839 56.2919 10.9325 56.4734 10.5136C56.655 10.0947 56.7457 9.60825 56.7457 9.05422C56.7457 8.70288 56.6957 8.38195 56.5955 8.09142C56.4953 7.80089 56.3701 7.56104 56.2199 7.37186H57.9102V5.64896H54.6047C54.4168 5.58139 54.2071 5.52396 53.9755 5.47667C53.7438 5.42937 53.5028 5.40572 53.2524 5.40572C52.7641 5.40572 52.3008 5.48342 51.8625 5.63882C51.4243 5.79422 51.0393 6.02394 50.7075 6.32798C50.3757 6.63202 50.1096 7.00701 49.9093 7.45294C49.7089 7.89886 49.6088 8.4056 49.6088 8.97314C49.6088 9.56771 49.7308 10.0913 49.975 10.544C50.2192 10.9967 50.4978 11.3514 50.8108 11.6082V11.6892C50.5478 11.8919 50.3131 12.1521 50.1065 12.4696C49.8999 12.7872 49.7966 13.1419 49.7966 13.5338C49.7966 13.9392 49.8748 14.277 50.0313 14.5472C50.1879 14.8175 50.3851 15.0337 50.623 15.1959V15.2769C50.1972 15.5607 49.8717 15.8816 49.6463 16.2397C49.4209 16.5978 49.3083 16.9863 49.3083 17.4052C49.3083 17.8376 49.4053 18.216 49.5994 18.5403C49.7934 18.8646 50.0595 19.1349 50.3976 19.3511C50.7357 19.5673 51.1395 19.7295 51.609 19.8376C52.0785 19.9457 52.5888 19.9997 53.1397 19.9997ZM53.2524 10.9798C52.8016 10.9798 52.4197 10.8075 52.1067 10.4629C51.7937 10.1184 51.6372 9.62177 51.6372 8.97314C51.6372 8.33804 51.7937 7.85157 52.1067 7.51374C52.4197 7.17592 52.8016 7.00701 53.2524 7.00701C53.7031 7.00701 54.0819 7.1793 54.3887 7.52388C54.6954 7.86846 54.8488 8.35155 54.8488 8.97314C54.8488 9.62177 54.6923 10.1184 54.3793 10.4629C54.0662 10.8075 53.6906 10.9798 53.2524 10.9798ZM53.4778 18.4795C52.739 18.4795 52.1599 18.3545 51.7405 18.1045C51.321 17.8545 51.1113 17.5066 51.1113 17.0606C51.1113 16.5742 51.3492 16.135 51.825 15.7431C52.163 15.8377 52.5825 15.885 53.0833 15.885H54.3417C54.8676 15.885 55.2714 15.9526 55.5531 16.0877C55.8348 16.2228 55.9757 16.4863 55.9757 16.8782C55.9757 17.3106 55.7472 17.6856 55.2902 18.0032C54.8332 18.3207 54.229 18.4795 53.4778 18.4795ZM61.8543 15.6012V8.64883C62.2425 8.24344 62.5899 7.93602 62.8967 7.72657C63.2035 7.51712 63.5572 7.4124 63.9579 7.4124C64.4712 7.4124 64.8406 7.58131 65.066 7.91913C65.2914 8.25696 65.404 8.83801 65.404 9.6623V15.6012H67.5639V9.35826C67.5639 8.08804 67.3386 7.11173 66.8878 6.42933C66.437 5.74693 65.7171 5.40572 64.7279 5.40572C64.0893 5.40572 63.5353 5.55774 63.0657 5.86179C62.5962 6.16583 62.1674 6.51379 61.7792 6.90566L61.8543 4.98006V1.29103H59.6945V15.6012H61.8543ZM73.4238 15.8445C73.7869 15.8445 74.1281 15.8073 74.4474 15.733C74.7667 15.6587 75.0515 15.5742 75.3019 15.4796L74.9263 13.7567C74.7886 13.8243 74.6352 13.8783 74.4661 13.9189C74.2971 13.9594 74.1312 13.9797 73.9684 13.9797C73.1045 13.9797 72.6725 13.3986 72.6725 12.2365V7.49347H75.0202V5.64896H72.6725V2.93285H70.8695L70.6065 5.64896L69.1791 5.7503V7.49347H70.4939V12.2365C70.4939 12.777 70.5471 13.2669 70.6535 13.7061C70.7599 14.1452 70.929 14.5236 71.1606 14.8411C71.3922 15.1587 71.6927 15.4053 72.0621 15.581C72.4315 15.7566 72.8854 15.8445 73.4238 15.8445Z" fill="white"/>
<path d="M84.084 15.6903C84.7672 15.6903 85.3313 15.5852 85.776 15.375C86.2208 15.1648 86.6301 14.9406 87.004 14.7024L86.6559 13.9877C86.3078 14.268 85.9307 14.4887 85.5246 14.6498C85.1185 14.811 84.6641 14.8915 84.1613 14.8915C83.6328 14.8915 83.1558 14.7829 82.7303 14.5657C82.3049 14.3485 81.9407 14.0473 81.6378 13.6619C81.3348 13.2766 81.0995 12.8141 80.9319 12.2746C80.7643 11.7351 80.6741 11.1501 80.6612 10.5195H87.352C87.3778 10.3934 87.3907 10.2673 87.3907 10.1412V9.76282C87.3907 8.27746 87.0749 7.1284 86.4432 6.31565C85.8115 5.50291 84.9413 5.09653 83.8326 5.09653C83.3169 5.09653 82.8174 5.21915 82.3339 5.46437C81.8505 5.7096 81.4186 6.05992 81.0383 6.51534C80.658 6.97076 80.355 7.52777 80.1294 8.18637C79.9038 8.84498 79.791 9.58766 79.791 10.4144C79.791 11.2412 79.9038 11.9804 80.1294 12.632C80.355 13.2836 80.6612 13.8371 81.048 14.2925C81.4347 14.7479 81.8891 15.0947 82.4113 15.3329C82.9334 15.5712 83.491 15.6903 84.084 15.6903ZM86.5785 9.76282H80.6612C80.7128 9.16027 80.832 8.62077 81.019 8.14434C81.2059 7.6679 81.4444 7.26152 81.7345 6.92521C82.0245 6.58891 82.35 6.33317 82.711 6.15801C83.072 5.98285 83.4523 5.89527 83.8519 5.89527C84.6899 5.89527 85.3538 6.21406 85.8437 6.85165C86.3336 7.48923 86.5785 8.45963 86.5785 9.76282ZM89.3051 15.438L90.8908 12.6845C91.0713 12.3622 91.2486 12.0469 91.4226 11.7386C91.5967 11.4304 91.7739 11.1291 91.9544 10.8348H92.0318C92.2251 11.1291 92.4121 11.4304 92.5925 11.7386C92.773 12.0469 92.9535 12.3622 93.134 12.6845L94.7777 15.438H95.7252L92.5732 10.2463L95.4545 5.34877H94.565L93.1147 7.91312C92.9471 8.19338 92.7891 8.47013 92.6409 8.74339C92.4926 9.01664 92.3347 9.29339 92.1671 9.57365H92.0898C91.9093 9.29339 91.7385 9.01664 91.5773 8.74339C91.4162 8.47013 91.2582 8.19338 91.1035 7.91312L89.5952 5.34877H88.6477L91.5483 10.1622L88.3963 15.438H89.3051ZM98.6259 19.9992V14.4501C99.1158 14.8425 99.5928 15.1473 100.057 15.3645C100.521 15.5817 100.972 15.6903 101.411 15.6903C101.952 15.6903 102.471 15.5677 102.967 15.3224C103.464 15.0772 103.902 14.7199 104.282 14.2504C104.662 13.781 104.962 13.21 105.181 12.5374C105.401 11.8648 105.51 11.1011 105.51 10.2463C105.51 8.67682 105.201 7.42618 104.582 6.49432C103.963 5.56246 103.035 5.09653 101.797 5.09653C101.217 5.09653 100.66 5.25068 100.125 5.55896C99.5895 5.86724 99.0964 6.21756 98.6452 6.60993H98.5872L98.5099 5.34877H97.775V19.9992H98.6259ZM101.372 14.8705C101.011 14.8705 100.598 14.7724 100.134 14.5762C99.6701 14.3801 99.1673 14.0438 98.6259 13.5673V7.57681C99.1931 7.04432 99.7249 6.63445 100.221 6.34718C100.718 6.05992 101.198 5.91629 101.662 5.91629C102.19 5.91629 102.642 6.02489 103.016 6.24209C103.389 6.45929 103.692 6.76056 103.924 7.14592C104.156 7.53127 104.327 7.99019 104.437 8.52268C104.546 9.05517 104.601 9.6297 104.601 10.2463C104.601 10.9329 104.521 11.56 104.36 12.1275C104.198 12.695 103.976 13.182 103.692 13.5883C103.409 13.9947 103.067 14.31 102.667 14.5342C102.268 14.7584 101.836 14.8705 101.372 14.8705ZM111.814 15.6903C112.497 15.6903 113.061 15.5852 113.506 15.375C113.951 15.1648 114.36 14.9406 114.734 14.7024L114.386 13.9877C114.038 14.268 113.661 14.4887 113.255 14.6498C112.849 14.811 112.394 14.8915 111.892 14.8915C111.363 14.8915 110.886 14.7829 110.461 14.5657C110.035 14.3485 109.671 14.0473 109.368 13.6619C109.065 13.2766 108.83 12.8141 108.662 12.2746C108.495 11.7351 108.404 11.1501 108.391 10.5195H115.082C115.108 10.3934 115.121 10.2673 115.121 10.1412V9.76282C115.121 8.27746 114.805 7.1284 114.173 6.31565C113.542 5.50291 112.671 5.09653 111.563 5.09653C111.047 5.09653 110.548 5.21915 110.064 5.46437C109.581 5.7096 109.149 6.05992 108.768 6.51534C108.388 6.97076 108.085 7.52777 107.86 8.18637C107.634 8.84498 107.521 9.58766 107.521 10.4144C107.521 11.2412 107.634 11.9804 107.86 12.632C108.085 13.2836 108.391 13.8371 108.778 14.2925C109.165 14.7479 109.619 15.0947 110.141 15.3329C110.664 15.5712 111.221 15.6903 111.814 15.6903ZM114.309 9.76282H108.391C108.443 9.16027 108.562 8.62077 108.749 8.14434C108.936 7.6679 109.175 7.26152 109.465 6.92521C109.755 6.58891 110.08 6.33317 110.441 6.15801C110.802 5.98285 111.182 5.89527 111.582 5.89527C112.42 5.89527 113.084 6.21406 113.574 6.85165C114.064 7.48923 114.309 8.45963 114.309 9.76282ZM118.486 15.438V8.56472C118.847 7.61185 119.256 6.94273 119.714 6.55738C120.171 6.17202 120.606 5.97935 121.019 5.97935C121.199 5.97935 121.348 5.98986 121.464 6.01087C121.58 6.03189 121.715 6.07744 121.87 6.1475L122.063 5.30673C121.908 5.22265 121.76 5.1666 121.618 5.13857C121.477 5.11055 121.315 5.09653 121.135 5.09653C120.581 5.09653 120.081 5.29272 119.636 5.68508C119.191 6.07744 118.814 6.58891 118.505 7.21949H118.447L118.37 5.34877H117.635V15.438H118.486ZM124.21 2.91053C124.429 2.91053 124.612 2.83346 124.761 2.67931C124.909 2.52517 124.983 2.32899 124.983 2.09077C124.983 1.82453 124.909 1.61784 124.761 1.4707C124.612 1.32357 124.429 1.25 124.21 1.25C123.99 1.25 123.807 1.32357 123.658 1.4707C123.51 1.61784 123.436 1.82453 123.436 2.09077C123.436 2.32899 123.51 2.52517 123.658 2.67931C123.807 2.83346 123.99 2.91053 124.21 2.91053ZM124.616 15.438V5.34877H123.765V15.438H124.616ZM131.713 15.6903C132.396 15.6903 132.96 15.5852 133.405 15.375C133.849 15.1648 134.259 14.9406 134.633 14.7024L134.285 13.9877C133.936 14.268 133.559 14.4887 133.153 14.6498C132.747 14.811 132.293 14.8915 131.79 14.8915C131.261 14.8915 130.784 14.7829 130.359 14.5657C129.934 14.3485 129.569 14.0473 129.266 13.6619C128.963 13.2766 128.728 12.8141 128.561 12.2746C128.393 11.7351 128.303 11.1501 128.29 10.5195H134.981C135.006 10.3934 135.019 10.2673 135.019 10.1412V9.76282C135.019 8.27746 134.704 7.1284 134.072 6.31565C133.44 5.50291 132.57 5.09653 131.461 5.09653C130.946 5.09653 130.446 5.21915 129.963 5.46437C129.479 5.7096 129.047 6.05992 128.667 6.51534C128.287 6.97076 127.984 7.52777 127.758 8.18637C127.532 8.84498 127.42 9.58766 127.42 10.4144C127.42 11.2412 127.532 11.9804 127.758 12.632C127.984 13.2836 128.29 13.8371 128.677 14.2925C129.063 14.7479 129.518 15.0947 130.04 15.3329C130.562 15.5712 131.12 15.6903 131.713 15.6903ZM134.207 9.76282H128.29C128.341 9.16027 128.461 8.62077 128.648 8.14434C128.835 7.6679 129.073 7.26152 129.363 6.92521C129.653 6.58891 129.979 6.33317 130.34 6.15801C130.701 5.98285 131.081 5.89527 131.481 5.89527C132.319 5.89527 132.982 6.21406 133.472 6.85165C133.962 7.48923 134.207 8.45963 134.207 9.76282ZM138.384 15.438V7.82905C138.951 7.19847 139.461 6.72553 139.912 6.41024C140.363 6.09495 140.866 5.93731 141.42 5.93731C142.181 5.93731 142.725 6.19304 143.054 6.70451C143.383 7.21598 143.547 8.01121 143.547 9.0902V15.438H144.398V8.96409C144.398 7.64688 144.172 6.67298 143.721 6.0424C143.27 5.41182 142.561 5.09653 141.594 5.09653C140.95 5.09653 140.376 5.26819 139.873 5.61151C139.37 5.95482 138.88 6.38572 138.403 6.9042H138.345L138.268 5.34877H137.533V15.438H138.384ZM151.263 15.6903C151.856 15.6903 152.397 15.5642 152.887 15.3119C153.377 15.0597 153.822 14.7444 154.222 14.3661L153.777 13.7145C153.455 14.0368 153.084 14.31 152.665 14.5342C152.246 14.7584 151.792 14.8705 151.302 14.8705C150.799 14.8705 150.338 14.7619 149.919 14.5447C149.5 14.3275 149.146 14.0227 148.855 13.6304C148.565 13.238 148.34 12.7686 148.179 12.2221C148.017 11.6756 147.937 11.073 147.937 10.4144C147.937 9.7418 148.024 9.13224 148.198 8.58574C148.372 8.03924 148.61 7.5663 148.913 7.16694C149.216 6.76757 149.571 6.45929 149.977 6.24209C150.383 6.02489 150.825 5.91629 151.302 5.91629C151.753 5.91629 152.159 6.01788 152.52 6.22107C152.881 6.42425 153.21 6.67999 153.506 6.98827L154.009 6.33667C153.687 6.01438 153.313 5.72711 152.887 5.47488C152.462 5.22265 151.927 5.09653 151.282 5.09653C150.715 5.09653 150.177 5.21564 149.668 5.45386C149.158 5.69208 148.71 6.0354 148.324 6.48381C147.937 6.93222 147.627 7.48923 147.395 8.15485C147.163 8.82046 147.047 9.57365 147.047 10.4144C147.047 11.2552 147.154 12.0014 147.366 12.653C147.579 13.3046 147.876 13.8546 148.256 14.303C148.636 14.7514 149.081 15.0947 149.59 15.3329C150.099 15.5712 150.657 15.6903 151.263 15.6903ZM159.694 15.6903C160.377 15.6903 160.941 15.5852 161.386 15.375C161.831 15.1648 162.24 14.9406 162.614 14.7024L162.266 13.9877C161.918 14.268 161.541 14.4887 161.135 14.6498C160.729 14.811 160.274 14.8915 159.772 14.8915C159.243 14.8915 158.766 14.7829 158.341 14.5657C157.915 14.3485 157.551 14.0473 157.248 13.6619C156.945 13.2766 156.71 12.8141 156.542 12.2746C156.375 11.7351 156.284 11.1501 156.271 10.5195H162.962C162.988 10.3934 163.001 10.2673 163.001 10.1412V9.76282C163.001 8.27746 162.685 7.1284 162.053 6.31565C161.422 5.50291 160.551 5.09653 159.443 5.09653C158.927 5.09653 158.428 5.21915 157.944 5.46437C157.461 5.7096 157.029 6.05992 156.649 6.51534C156.268 6.97076 155.965 7.52777 155.74 8.18637C155.514 8.84498 155.401 9.58766 155.401 10.4144C155.401 11.2412 155.514 11.9804 155.74 12.632C155.965 13.2836 156.271 13.8371 156.658 14.2925C157.045 14.7479 157.499 15.0947 158.021 15.3329C158.544 15.5712 159.101 15.6903 159.694 15.6903ZM162.189 9.76282H156.271C156.323 9.16027 156.442 8.62077 156.629 8.14434C156.816 7.6679 157.055 7.26152 157.345 6.92521C157.635 6.58891 157.96 6.33317 158.321 6.15801C158.682 5.98285 159.062 5.89527 159.462 5.89527C160.3 5.89527 160.964 6.21406 161.454 6.85165C161.944 7.48923 162.189 8.45963 162.189 9.76282Z" fill="white"/>
<path d="M2.07649 1.13852C2.07649 0.509732 1.61165 0 1.03825 0C0.464839 0 0 0.509732 0 1.13852V11.361C0 11.9898 0.464839 12.4995 1.03825 12.4995C1.61165 12.4995 2.07649 11.9898 2.07649 11.361V1.13852Z" fill="#F40C6A"/>
<path d="M6.81087 4.16537C6.81087 3.53659 6.34603 3.02686 5.77262 3.02686C5.19921 3.02686 4.73438 3.53659 4.73438 4.16537V15.0952C4.73438 15.7239 5.19921 16.2337 5.77262 16.2337C6.34603 16.2337 6.81087 15.7239 6.81087 15.0952V4.16537Z" fill="#F40C6A"/>
<path d="M11.1292 4.16537C11.1292 3.53659 10.6644 3.02686 10.091 3.02686C9.51757 3.02686 9.05273 3.53659 9.05273 4.16537V9.17486C9.05273 9.80365 9.51757 10.3134 10.091 10.3134C10.6644 10.3134 11.1292 9.80365 11.1292 9.17486V4.16537Z" fill="#F40C6A"/>
</g>
<defs>
<clipPath id="clip0">
<rect width="163" height="20" fill="white"/>
</clipPath>
</defs>
</svg>
