<svg width="600" height="416" viewBox="0 0 600 416" fill="none" xmlns="http://www.w3.org/2000/svg">
<g clip-path="url(#clip0)">
<path fill-rule="evenodd" clip-rule="evenodd" d="M561.443 386.924C561.95 389.684 565.108 393.499 561.443 395.1C552.226 400.741 541.099 401.723 530.506 402.115C524.138 400.531 486.905 401.54 487.608 395.652C489.327 370.347 508.527 350.947 529.439 338.781C538.04 334.898 558.912 378.486 561.443 386.924ZM527.294 332.716C529.166 334.495 529.152 334.641 526.91 335.99C518.327 341.152 510.335 347.064 503.353 354.271C492.405 365.38 485.102 379.371 483.952 395.059C483.704 396.828 483.148 397.291 481.592 397.049C475.382 395.458 427.658 390.412 431.781 383.527C438.159 331.217 479.763 286.707 527.294 332.716ZM594.73 326.567C588.873 348.31 584.264 372.103 568.275 389.018C565.479 392.898 562.334 376.157 560.424 374.151C554.63 361.008 547.014 348.982 537.738 338.011C535.496 335.359 535.5 335.331 538.654 333.874C550.515 327.894 583.967 319.84 594.73 326.567ZM549.731 45.9179C548.329 58.4661 552.855 68.6482 562.422 76.7376C577.93 90.6002 600.431 89.5052 616.375 77.1084C618.398 75.9181 618.406 75.7988 619.976 77.4963C627.822 85.9776 636.628 93.4295 645.329 100.987C647.115 102.538 647.939 104.108 647.942 106.505C649.012 124.289 647.513 141.934 645.31 159.574C644.059 178.575 641.302 197.293 635.537 215.513C628.514 236.39 617.027 255.392 610.57 276.5C605.637 290.44 600.469 304.299 596.869 318.656C596.264 324.265 588.935 320.596 585.604 321.099C567.637 320.812 550.928 324.051 535.154 331.693C532.569 332.946 532.545 332.94 530.426 330.885C480.638 281.993 435.052 327.005 428.096 383.15C427.548 385.787 427.36 385.958 424.867 385.209C415.821 382.491 406.789 379.723 397.768 376.922C395.606 376.251 395.493 376.13 395.998 373.83C403.591 332.233 382.42 292.938 361.443 259.64C366.514 200.606 422.152 188.36 472.116 195.744C473.952 195.924 474.57 197.296 475.166 198.803C487.734 229.447 500.871 262.715 526.932 284.467C580.004 320.012 606.676 253.066 536.756 215.075C518.859 204.829 499.779 197.597 479.546 193.509C477.5 193.096 476.537 192.193 475.902 190.369C467.052 164.812 459.198 130.973 481.605 110.072C482.925 108.867 483.28 108.922 484.081 110.559C507.308 152.991 555.24 187.691 604.786 186.998C665.655 178.165 638.604 128.178 598.387 110.841C564.622 96.1367 522.149 82.2095 487.454 101.1C481.43 107.512 477.171 74.0007 476.363 69.8586C476.75 66.4205 472.822 57.4928 477.743 57.4363C500.946 52.6303 525.082 52.1882 547.439 43.967C549.507 43.3175 549.983 43.6614 549.731 45.9179ZM361.151 267.45C384.062 296.543 398.063 335.03 392.921 372.163C393.604 378.241 376.571 367.949 373.071 367.723C366.871 364.379 366.093 329.804 364.295 321.142C362.778 303.218 360.191 285.499 361.151 267.45ZM301.131 222.895C321.342 232.092 340.132 244.631 355.391 260.809C359.12 264.908 356.662 271.125 357.359 276.169C357.718 304.744 361.904 333.165 365.755 361.443C367.487 367.904 357.116 360.421 354.305 360.3C326.112 350.358 296.418 342.045 274.406 320.695C267.147 313.692 252.734 306.813 261.629 295.296C270.46 282.25 276.254 267.551 282.29 253.095C286.288 243.42 290.537 233.866 295.759 224.773C297.662 221.343 297.667 221.333 301.131 222.895ZM478.587 196.863C512.341 204.415 546.985 218.382 567.967 246.801C586.889 270.806 568.797 301.86 538.746 287.196C506.134 268.87 492.098 229.732 478.587 196.863ZM481.182 102.281C481.887 104.052 481.742 105.199 480.256 106.536C456.818 127.208 463.247 161.372 471.8 187.696C472.25 189.352 474.069 192.563 470.84 191.718C422.728 183.978 364.656 198.743 358.968 255.031C358.879 256.09 358.654 258.285 357.153 257.091C341.628 241.238 323.466 229.087 303.373 219.822C299.758 218.141 299.638 218.111 301.776 214.927C314.294 196.952 325.802 178.225 339.066 160.793C340.461 159.057 340.602 159.05 342.746 159.906C381.371 175.723 438.509 154.757 440.847 108.77C442.833 91.9361 423.189 74.0755 429.88 73.5485C491.335 50.4045 462.413 52.0563 481.182 102.281ZM524.749 95.248C562.333 98.2278 603.968 109.177 629.258 138.751C649.062 161.52 629.052 182.609 603.462 183.346C555.667 182.992 509.714 149.502 487.437 108.513C483.245 100.509 519.125 94.9739 524.749 95.248ZM425.119 77.8938C458.936 120.431 414.62 162.823 369.067 161.802C363.89 161.624 344.453 160.043 343.922 155.07C351.827 147.123 360.155 139.575 368.293 131.861C377.468 123.33 385.885 114.224 391.566 102.92C395.116 95.8551 400.248 90.222 407.077 86.1549C411.283 84.7976 422.043 74.5154 425.119 77.8938ZM632.714 63.7611C641.19 73.0554 647.297 84.913 647.795 97.7413C639.317 90.9952 632.079 83.2658 623.999 76.0813C622.622 74.5043 620.456 73.1795 622.804 71.4438C625.396 69.9072 630.031 60.8844 632.714 63.7611ZM588.721 35.1646C588.735 35.2704 588.75 35.3752 588.765 35.481C606.938 33.4186 600.435 52.4872 610.661 65.1098C611.54 67.8119 617.173 71.1522 614.576 73.7624C606.908 79.1844 598.779 83.6849 589.084 83.1856C568.947 82.8494 549.388 64.801 553.81 43.6393C554.601 40.094 559.595 41.3301 562.26 40.1561C571.029 38.1485 579.711 35.7513 588.721 35.1646ZM605.242 41.1719C607.435 41.604 609.031 42.6497 610.099 44.0612C613.866 49.039 619.155 52.2401 623.773 56.2205C625.345 57.9623 629.629 59.7128 626.859 62.1977C624.476 63.9009 619.814 72.9703 617.273 68.4642C611.26 60.3665 606.656 51.266 605.242 41.1719Z" fill="#F55B80"/>
<path fill-rule="evenodd" clip-rule="evenodd" d="M203.841 368.576C199.868 368.441 199.628 374.048 203.659 374.078C207.672 374.208 207.834 368.646 203.841 368.576ZM221.806 378.581C225.874 378.782 225.679 373.118 221.735 373.081C217.811 372.964 217.724 378.633 221.806 378.581ZM217.252 372.41C217.17 367.912 211.314 369.159 211.787 373.404C211.996 377.698 217.59 376.434 217.252 372.41ZM183.724 369.31C183.813 365.598 177.934 364.583 177.738 368.899C177.32 373.033 183.618 373.098 183.724 369.31ZM235.284 374.536C235.474 370.279 229.879 370.842 229.787 374.782C229.583 379.293 235.35 379.158 235.284 374.536ZM197.24 370.21C197.381 367.017 191.297 364.627 190.749 368.807C190.383 372.301 196.831 374.505 197.24 370.21ZM246.264 378.711C246.866 374.048 240.112 373.843 240.299 378.303C240.144 383.297 246.33 384.545 246.264 378.711ZM299.161 415.008C250.391 410.721 199.395 420.4 151.968 406.928C138.262 403.311 150.677 373.364 154.415 364.429C160.155 351.186 170.486 339.986 175.38 326.807C184.371 314.927 196.527 328.832 207.783 329.266C228.569 336.315 245.647 351.974 265.011 362.241C280.123 371.917 300.96 378.599 310.435 394.423C311.561 400.044 312.606 405.687 311.218 411.445C310.65 417.361 303.22 414.187 299.162 414.944C299.161 414.965 299.161 414.986 299.161 415.008Z" fill="#52DC82"/>
<path fill-rule="evenodd" clip-rule="evenodd" d="M12.1494 272.233C37.043 267.625 60.8868 265.122 85.1824 258.651C94.1629 256.404 103.324 255.23 112.456 253.864C117.745 253.91 124.103 249.997 128.867 252.531C134.276 259.091 143.888 263.828 145.255 272.788C146.281 297.071 133.565 314.68 110.488 321.907C99.8574 326.681 89.3782 321.306 79.8975 316.441C55.2061 305.046 31.6402 291.549 12.1494 272.233Z" fill="#EBBF5E"/>
<path fill-rule="evenodd" clip-rule="evenodd" d="M162.513 44.5992C168.445 83.5194 171.044 122.858 177.466 161.72C177.274 167.991 184.192 193.252 179.707 195.393C169.733 199.134 160.257 204.436 149.8 206.683C147.795 207.154 147.343 206.858 146.915 204.689C142.28 183.797 139.567 162.585 137.228 141.329C135.318 113.762 132.188 86.3264 129.158 58.8756C130.052 54.0773 138.951 53.1171 142.696 50.3317C146.074 49.7974 163.381 38.1882 162.513 44.5992ZM119.962 64.0983C121.651 78.5724 123.693 93.0097 124.873 107.539C127.133 140.341 130.356 173.124 137.168 205.325C136.067 210.008 115.112 197.602 111.408 196.057C102.025 174.946 102.576 148.887 99.0201 125.807C97.5058 109.871 96.6529 93.8493 94.616 77.9668C94.9529 72.425 112.824 66.6771 117.706 62.6314C119.276 61.7597 119.733 62.1797 119.962 64.0983ZM209.122 71.908C212.668 105.523 217.484 138.963 222.773 172.342C214.67 179.299 203.98 183.135 194.722 188.468C189.4 192.124 190.996 183.48 189.955 180.381C182.839 133.831 178.629 86.9178 171.873 40.3345C171.556 38.1459 171.492 38.0717 173.708 37.2042C183.253 33.4995 192.83 29.8806 202.342 26.0912C206.992 20.6587 207.403 67.4489 209.122 71.908ZM85.1927 81.2212C90.5495 116.984 89.7285 153.593 98.6209 188.853C89.9432 184.856 81.9983 179.726 74.0112 174.528C66.04 162.158 69.4284 144.501 66.5518 130.107C65.0522 90.7922 54.4464 100.181 85.1927 81.2212ZM242.047 14.5642C244.365 30.3039 245.646 46.1476 246.938 61.9941C249.417 91.428 252.629 120.818 257.114 150.02C257.498 152.578 257.544 152.6 255.292 153.914C247.504 158.458 240.082 162.718 232.245 167.327C223.953 119.679 217.832 71.2512 214.263 22.9306C215.24 18.8283 227.952 17.4282 231.965 15.089C234.786 14.7715 241.392 10.0865 242.047 14.5642ZM55.3244 109.488C56.8285 127.183 59.0139 144.532 59.573 162.321C49.0964 152.068 21.9995 134.173 31.5364 117.887C32.8102 116.509 35.0856 117.875 36.0258 116.047C41.245 110.863 47.2002 106.548 53.1994 102.327C56.047 101.473 54.5647 107.705 55.3244 109.488ZM283.334 5.58495C285.831 38.8549 284.818 72.2933 286.122 105.625C286.071 105.626 286.021 105.627 285.97 105.628C284.4 132.263 293.629 131.477 267.966 146.223C264.484 147.12 265.824 140.062 264.854 137.888C261.537 113.088 258.608 88.2326 256.591 63.2908C254.984 46.3469 254.331 29.2924 251.436 12.5006C251.118 10.3765 251.274 9.8926 253.311 9.42737C257.65 9.53315 284.829 -0.496507 283.334 5.58495ZM293.36 8.63212C307.219 21.4282 316.935 37.1328 327.191 52.7371C332.113 60.9269 324.86 69.9658 324.847 78.6995C321.158 97.062 310.709 114.627 295.762 125.776C294.909 86.6511 296.004 47.7535 293.36 8.63212Z" fill="#60D6E1"/>
<path fill-rule="evenodd" clip-rule="evenodd" d="M51.3624 217.923C45.1674 217.359 46.1704 225.707 51.1254 225.892C55.862 226.175 58.0326 217.271 51.3624 217.923ZM26.0257 227.401C32.4988 227.333 31.4435 218.963 26.4187 218.391C20.0262 218.265 19.9015 227.224 26.0257 227.401ZM47.0577 240.72C46.9905 237.04 41.9125 233.05 38.5343 235.853C32.5822 241.945 46.3515 251.092 47.0577 240.72ZM39.0756 200.884C32.576 200.403 32.3345 211.349 38.5607 211.381C44.7034 211.344 46.7759 200.732 39.0756 200.884ZM68.3944 240.914C75.2935 241.123 76.2538 231.578 69.4657 230.937C62.1348 230.264 60.2575 240.621 68.3944 240.914ZM22.0251 241.096C22.154 235.836 15.8199 233.876 13.0188 238.553C9.85145 242.928 14.7398 251.962 19.8616 246.958C21.4479 245.346 22.0342 243.317 22.0251 241.096ZM86.0786 216.703C89.9091 219.295 93.8683 221.973 97.9235 224.717C93.983 228.408 95.6423 235.74 101.7 234.243C103.879 234.174 105.934 230.671 107.906 232.356C112.864 237.079 117.642 241.543 122.15 246.769C114.848 247.906 107.998 248.971 100.701 250.106C104.287 238.714 89.3961 239.248 92.2533 249.59C92.7961 250.876 92.7601 251.425 91.3322 251.743C82.6013 253.687 73.8819 255.68 65.1534 257.632C63.1121 258.088 63.067 258.048 62.9292 255.859C63.0396 252.485 58.7315 250.219 56.3504 252.85C55.1304 254.192 54.9346 255.724 55.6027 257.453C58.7387 261.223 41.7727 261.051 38.8795 262.31C39.2241 258.927 40.183 255.194 35.5025 255.947C30.6568 256.507 29.8049 257.279 28.8392 262.329C29.1296 265.316 12.2706 266.241 9.25162 266.449C12.763 251.587 4.97807 263.198 1.72683 253.734C-5.70293 236.257 12.5326 221.638 24.3089 211.468C29.3912 206.943 32.7897 197.934 40.7297 198.381C46.1825 199.844 51.5691 201.558 56.9705 203.209C59.6463 203.662 59.5086 206.512 60.9494 208.31C66.2213 213.522 64.0077 204.083 76.1324 211.353C77.46 211.965 78.0892 212.354 76.8874 213.866C71.8344 222.133 83.4196 225.236 86.0786 216.703Z" fill="#52DC82"/>
<path fill-rule="evenodd" clip-rule="evenodd" d="M399.19 16.0626C397.694 -3.34144 421.917 0.675448 434.436 2.48934C441.589 2.29866 445.584 8.33754 446.942 14.7263C447.688 19.1677 446.754 22.4073 443.391 24.0615C438.167 27.787 433.355 32.3692 427.163 34.5349C402.063 45.5267 399.44 44.0971 399.396 16.0843C399.328 16.0771 399.259 16.0698 399.19 16.0626Z" fill="#52DC82"/>
<path fill-rule="evenodd" clip-rule="evenodd" d="M64.2005 357.831C64.7449 372.288 47.7296 378.839 35.3477 377.706C27.8341 378.717 21.3906 369.656 20.5119 363.057C17.7859 350.093 31.2891 327.307 46.1781 337.199C57.6882 342.802 63.5795 342.65 64.2005 357.831Z" fill="#7DB4DB"/>
</g>
<defs>
<clipPath id="clip0">
<rect width="815" height="414.262" fill="white" transform="translate(0 0.868652)"/>
</clipPath>
</defs>
</svg>
