<svg width="48" height="48" viewBox="0 0 48 48" fill="none" xmlns="http://www.w3.org/2000/svg">
<path d="M0 24C0 10.7452 10.7452 0 24 0C37.2548 0 48 10.7452 48 24C48 37.2548 37.2548 48 24 48C10.7452 48 0 37.2548 0 24Z" fill="#0077B5"/>
<path fill-rule="evenodd" clip-rule="evenodd" d="M17.318 14.8227C17.318 16.3918 16.1369 17.6473 14.2404 17.6473H14.2056C12.3797 17.6473 11.1992 16.3918 11.1992 14.8227C11.1992 13.2204 12.4156 12 14.2763 12C16.1369 12 17.2827 13.2204 17.318 14.8227ZM16.9598 19.8778V36.2196H11.5208V19.8778H16.9598ZM36.5744 36.2196L36.5746 26.8497C36.5746 21.8303 33.8914 19.4941 30.3124 19.4941C27.4246 19.4941 26.1318 21.0802 25.4099 22.1929V19.8783H19.9703C20.042 21.4117 19.9703 36.22 19.9703 36.22H25.4099V27.0934C25.4099 26.605 25.4452 26.1178 25.589 25.7681C25.9821 24.7924 26.8771 23.7822 28.3797 23.7822C30.3486 23.7822 31.1357 25.2807 31.1357 27.4767V36.2196H36.5744Z" fill="white"/>
</svg>
