<svg width="397" height="120" viewBox="0 0 397 120" fill="none" xmlns="http://www.w3.org/2000/svg">
<g clip-path="url(#clip0)">
<path d="M60.3206 41.9167C32.2226 62.7274 -3.0361 52.5275 19.7333 83.27C42.5027 114.013 72.1862 130.62 100.284 109.81C128.382 88.999 132.702 47.2068 109.933 16.4642C87.1631 -14.2783 88.4186 21.106 60.3206 41.9167Z" fill="#9B51E0"/>
<path d="M68.5212 49.5791C46.9326 68.5688 18.7771 64.2778 37.668 85.754C56.5589 107.23 80.4977 117.054 102.086 98.0639C123.675 79.0742 125.862 46.2701 106.971 24.7939C88.0799 3.31767 90.1097 30.5894 68.5212 49.5791Z" fill="#F6D446"/>
<g clip-path="url(#clip1)">
<path fill-rule="evenodd" clip-rule="evenodd" d="M47.8408 38.7283C46.7616 38.2806 45.5176 38.5257 44.6909 39.3488C43.8642 40.172 43.6181 41.4105 44.0677 42.4851L64.4675 91.2377C64.9291 92.3409 66.0284 93.0444 67.2281 93.0042C68.4277 92.9639 69.477 92.1885 69.8631 91.0568L75.6133 74.2004L90.8569 89.3778C91.9837 90.4997 93.8107 90.4997 94.9375 89.3778C96.0643 88.2559 96.0643 86.4368 94.9375 85.3149L79.6936 70.1372L96.6244 64.4117C97.7609 64.0274 98.5398 62.9826 98.5802 61.7881C98.6206 60.5937 97.9141 59.4991 96.8061 59.0395L47.8408 38.7283Z" fill="white"/>
<path fill-rule="evenodd" clip-rule="evenodd" d="M49.377 34.1412C48.2977 33.6936 47.0538 33.9386 46.227 34.7617C45.4003 35.5849 45.1542 36.8234 45.6038 37.898L66.0036 86.6507C66.4652 87.7539 67.5646 88.4573 68.7642 88.4171C69.9638 88.3769 71.0132 87.6014 71.3992 86.4698L77.1495 69.613L92.3933 84.7906C93.5201 85.9125 95.3471 85.9125 96.4739 84.7906C97.6007 83.6687 97.6007 81.8497 96.4739 80.7277L81.23 65.5501L98.1605 59.8246C99.2971 59.4403 100.076 58.3955 100.116 57.2011C100.157 56.0067 99.4502 54.9121 98.3422 54.4525L49.377 34.1412ZM68.3922 77.4187L53.6254 42.128L89.07 56.8307L74.9815 61.5951C74.9815 61.5951 73.4657 62.546 73.1773 63.3914L68.3922 77.4187Z" fill="#321F4A"/>
</g>
<path fill-rule="evenodd" clip-rule="evenodd" d="M34.029 16.0145C33.6676 15.3885 33.8821 14.5881 34.5081 14.2266C35.134 13.8652 35.9345 14.0797 36.2959 14.7057L41.5311 23.7733C41.8925 24.3993 41.678 25.1997 41.052 25.5611C40.426 25.9226 39.6256 25.7081 39.2642 25.0821L34.029 16.0145ZM49.7254 13.3261C49.7375 12.6033 50.3332 12.0273 51.056 12.0394C51.7787 12.0515 52.3547 12.6473 52.3426 13.37L52.1669 23.8389C52.1548 24.5616 51.559 25.1377 50.8363 25.1255C50.1136 25.1134 49.5375 24.5177 49.5497 23.7949L49.7254 13.3261ZM67.8482 16.0527C67.2687 15.6207 66.4487 15.7403 66.0167 16.3198L59.759 24.7145C59.327 25.294 59.4466 26.114 60.0261 26.546C60.6056 26.978 61.4256 26.8584 61.8576 26.2789L68.1153 17.8842C68.5473 17.3047 68.4277 16.4847 67.8482 16.0527ZM26.0004 27.0237C25.3684 26.6728 24.5717 26.9007 24.2208 27.5327C23.87 28.1647 24.0979 28.9614 24.7298 29.3123L33.884 34.3945C34.516 34.7454 35.3127 34.5175 35.6636 33.8855C36.0144 33.2536 35.7865 32.4568 35.1546 32.106L26.0004 27.0237ZM19.3004 44.0817C19.2161 43.3638 19.7297 42.7134 20.4476 42.6291L30.8464 41.4071C31.5643 41.3227 32.2146 41.8363 32.299 42.5542C32.3833 43.2721 31.8698 43.9224 31.1519 44.0068L20.753 45.2288C20.0352 45.3131 19.3848 44.7996 19.3004 44.0817Z" fill="#F6D446"/>
</g>
<g clip-path="url(#clip2)">
<path d="M153.154 18.3877H157.026L166.269 39.636H160.987L159.157 35.1342H150.903L149.133 39.636H143.971L153.154 18.3877ZM154.955 24.5701L152.374 31.1727H157.566L154.955 24.5701Z" fill="white"/>
<path d="M177.467 18.3877H191.903V22.7094H182.149V26.6709H191.363V30.9926H182.149V35.3143H192.443V39.636H177.467V18.3877Z" fill="white"/>
<path d="M206.695 23.5797C206.315 23.0995 205.795 22.7494 205.134 22.5293C204.494 22.2892 203.884 22.1692 203.304 22.1692C202.964 22.1692 202.613 22.2092 202.253 22.2892C201.893 22.3692 201.553 22.4993 201.233 22.6794C200.913 22.8394 200.653 23.0595 200.453 23.3396C200.252 23.6197 200.152 23.9599 200.152 24.36C200.152 25.0003 200.393 25.4905 200.873 25.8306C201.353 26.1707 201.953 26.4608 202.673 26.7009C203.414 26.941 204.204 27.1811 205.044 27.4212C205.885 27.6613 206.665 28.0014 207.385 28.4416C208.126 28.8818 208.736 29.472 209.216 30.2123C209.696 30.9526 209.936 31.943 209.936 33.1835C209.936 34.3639 209.716 35.3943 209.276 36.2747C208.836 37.155 208.236 37.8853 207.475 38.4655C206.735 39.0458 205.865 39.4759 204.864 39.756C203.884 40.0361 202.843 40.1762 201.743 40.1762C200.362 40.1762 199.082 39.9661 197.902 39.546C196.721 39.1258 195.621 38.4455 194.6 37.5052L197.932 33.8437C198.412 34.484 199.012 34.9842 199.732 35.3443C200.473 35.6844 201.233 35.8545 202.013 35.8545C202.393 35.8545 202.773 35.8145 203.154 35.7345C203.554 35.6344 203.904 35.4944 204.204 35.3143C204.524 35.1342 204.774 34.9041 204.954 34.624C205.154 34.3439 205.254 34.0138 205.254 33.6336C205.254 32.9934 205.004 32.4932 204.504 32.1331C204.024 31.7529 203.414 31.4328 202.673 31.1727C201.933 30.9126 201.133 30.6525 200.272 30.3924C199.412 30.1323 198.612 29.7821 197.872 29.342C197.131 28.9018 196.511 28.3216 196.011 27.6013C195.531 26.881 195.291 25.9306 195.291 24.7502C195.291 23.6097 195.511 22.6093 195.951 21.749C196.411 20.8887 197.011 20.1684 197.751 19.5882C198.512 19.0079 199.382 18.5778 200.362 18.2977C201.343 17.9975 202.353 17.8475 203.394 17.8475C204.594 17.8475 205.755 18.0175 206.875 18.3577C207.995 18.6978 209.006 19.268 209.906 20.0683L206.695 23.5797Z" fill="white"/>
<path d="M227.32 23.9098C226.859 23.3496 226.289 22.9195 225.609 22.6193C224.949 22.3192 224.178 22.1692 223.298 22.1692C222.418 22.1692 221.597 22.3392 220.837 22.6794C220.097 23.0195 219.447 23.4997 218.886 24.1199C218.346 24.7202 217.916 25.4404 217.596 26.2808C217.296 27.1211 217.146 28.0315 217.146 29.0118C217.146 30.0122 217.296 30.9326 217.596 31.7729C217.916 32.5932 218.346 33.3135 218.886 33.9338C219.427 34.534 220.057 35.0042 220.777 35.3443C221.517 35.6844 222.308 35.8545 223.148 35.8545C224.108 35.8545 224.959 35.6544 225.699 35.2543C226.439 34.8541 227.049 34.2939 227.53 33.5736L231.431 36.4848C230.531 37.7452 229.39 38.6756 228.01 39.2758C226.629 39.8761 225.209 40.1762 223.748 40.1762C222.088 40.1762 220.557 39.9161 219.156 39.3959C217.756 38.8757 216.545 38.1354 215.525 37.175C214.505 36.1946 213.704 35.0142 213.124 33.6336C212.564 32.2531 212.284 30.7125 212.284 29.0118C212.284 27.3112 212.564 25.7706 213.124 24.39C213.704 23.0095 214.505 21.839 215.525 20.8787C216.545 19.8983 217.756 19.148 219.156 18.6278C220.557 18.1076 222.088 17.8475 223.748 17.8475C224.348 17.8475 224.969 17.9075 225.609 18.0275C226.269 18.1276 226.909 18.2977 227.53 18.5377C228.17 18.7778 228.78 19.098 229.36 19.4981C229.941 19.8983 230.461 20.3885 230.921 20.9687L227.32 23.9098Z" fill="white"/>
<path d="M232.829 29.0118C232.829 27.3112 233.109 25.7706 233.669 24.39C234.249 23.0095 235.05 21.839 236.07 20.8787C237.091 19.8983 238.301 19.148 239.702 18.6278C241.102 18.1076 242.633 17.8475 244.293 17.8475C245.954 17.8475 247.485 18.1076 248.885 18.6278C250.286 19.148 251.496 19.8983 252.517 20.8787C253.537 21.839 254.327 23.0095 254.887 24.39C255.468 25.7706 255.758 27.3112 255.758 29.0118C255.758 30.7125 255.468 32.2531 254.887 33.6336C254.327 35.0142 253.537 36.1946 252.517 37.175C251.496 38.1354 250.286 38.8757 248.885 39.3959C247.485 39.9161 245.954 40.1762 244.293 40.1762C242.633 40.1762 241.102 39.9161 239.702 39.3959C238.301 38.8757 237.091 38.1354 236.07 37.175C235.05 36.1946 234.249 35.0142 233.669 33.6336C233.109 32.2531 232.829 30.7125 232.829 29.0118ZM237.691 29.0118C237.691 30.0122 237.841 30.9326 238.141 31.7729C238.461 32.5932 238.911 33.3135 239.491 33.9338C240.072 34.534 240.762 35.0042 241.562 35.3443C242.383 35.6844 243.293 35.8545 244.293 35.8545C245.294 35.8545 246.194 35.6844 246.994 35.3443C247.815 35.0042 248.515 34.534 249.095 33.9338C249.675 33.3135 250.116 32.5932 250.416 31.7729C250.736 30.9326 250.896 30.0122 250.896 29.0118C250.896 28.0315 250.736 27.1211 250.416 26.2808C250.116 25.4404 249.675 24.7202 249.095 24.1199C248.515 23.4997 247.815 23.0195 246.994 22.6794C246.194 22.3392 245.294 22.1692 244.293 22.1692C243.293 22.1692 242.383 22.3392 241.562 22.6794C240.762 23.0195 240.072 23.4997 239.491 24.1199C238.911 24.7202 238.461 25.4404 238.141 26.2808C237.841 27.1211 237.691 28.0315 237.691 29.0118Z" fill="white"/>
<path d="M259.12 18.3877H263.802V35.3143H272.475V39.636H259.12V18.3877Z" fill="white"/>
<path d="M282.052 18.3877H285.924L295.167 39.636H289.885L288.055 35.1342H279.801L278.031 39.636H272.869L282.052 18.3877ZM283.853 24.5701L281.272 31.1727H286.464L283.853 24.5701Z" fill="white"/>
<path d="M306.185 18.3877H312.547L321.581 33.1535H321.641V18.3877H326.323V39.636H320.2L310.927 24.5101H310.867V39.636H306.185V18.3877Z" fill="white"/>
<path d="M329.517 29.0118C329.517 27.3112 329.797 25.7706 330.357 24.39C330.938 23.0095 331.738 21.839 332.758 20.8787C333.779 19.8983 334.989 19.148 336.39 18.6278C337.79 18.1076 339.321 17.8475 340.981 17.8475C342.642 17.8475 344.173 18.1076 345.573 18.6278C346.974 19.148 348.184 19.8983 349.205 20.8787C350.225 21.839 351.015 23.0095 351.576 24.39C352.156 25.7706 352.446 27.3112 352.446 29.0118C352.446 30.7125 352.156 32.2531 351.576 33.6336C351.015 35.0142 350.225 36.1946 349.205 37.175C348.184 38.1354 346.974 38.8757 345.573 39.3959C344.173 39.9161 342.642 40.1762 340.981 40.1762C339.321 40.1762 337.79 39.9161 336.39 39.3959C334.989 38.8757 333.779 38.1354 332.758 37.175C331.738 36.1946 330.938 35.0142 330.357 33.6336C329.797 32.2531 329.517 30.7125 329.517 29.0118ZM334.379 29.0118C334.379 30.0122 334.529 30.9326 334.829 31.7729C335.149 32.5932 335.599 33.3135 336.18 33.9338C336.76 34.534 337.45 35.0042 338.25 35.3443C339.071 35.6844 339.981 35.8545 340.981 35.8545C341.982 35.8545 342.882 35.6844 343.683 35.3443C344.503 35.0042 345.203 34.534 345.783 33.9338C346.364 33.3135 346.804 32.5932 347.104 31.7729C347.424 30.9326 347.584 30.0122 347.584 29.0118C347.584 28.0315 347.424 27.1211 347.104 26.2808C346.804 25.4404 346.364 24.7202 345.783 24.1199C345.203 23.4997 344.503 23.0195 343.683 22.6794C342.882 22.3392 341.982 22.1692 340.981 22.1692C339.981 22.1692 339.071 22.3392 338.25 22.6794C337.45 23.0195 336.76 23.4997 336.18 24.1199C335.599 24.7202 335.149 25.4404 334.829 26.2808C334.529 27.1211 334.379 28.0315 334.379 29.0118Z" fill="white"/>
<path d="M146.162 55.9023H153.244L158.136 69.7678H158.196L163.118 55.9023H170.171V77.1506H165.489V60.8543H165.429L159.847 77.1506H156.276L150.903 60.8543H150.843V77.1506H146.162V55.9023Z" fill="white"/>
<path d="M192.42 68.9574C192.42 70.2179 192.23 71.3784 191.849 72.4388C191.469 73.4992 190.899 74.4196 190.139 75.1999C189.399 75.9802 188.468 76.5904 187.348 77.0306C186.227 77.4708 184.937 77.6908 183.476 77.6908C181.996 77.6908 180.695 77.4708 179.575 77.0306C178.454 76.5904 177.514 75.9802 176.754 75.1999C176.013 74.4196 175.453 73.4992 175.073 72.4388C174.693 71.3784 174.503 70.2179 174.503 68.9574V55.9023H179.185V68.7774C179.185 69.4376 179.285 70.0479 179.485 70.6081C179.705 71.1683 180.005 71.6585 180.385 72.0787C180.765 72.4788 181.215 72.7989 181.736 73.039C182.276 73.2591 182.856 73.3692 183.476 73.3692C184.096 73.3692 184.667 73.2591 185.187 73.039C185.707 72.7989 186.157 72.4788 186.537 72.0787C186.918 71.6585 187.208 71.1683 187.408 70.6081C187.628 70.0479 187.738 69.4376 187.738 68.7774V55.9023H192.42V68.9574Z" fill="white"/>
<path d="M196.748 55.9023H203.11L212.144 70.6681H212.204V55.9023H216.886V77.1506H210.763L201.49 62.0247H201.43V77.1506H196.748V55.9023Z" fill="white"/>
<path d="M221.22 55.9023H228.243C229.944 55.9023 231.554 56.0924 233.075 56.4726C234.615 56.8527 235.956 57.473 237.096 58.3333C238.237 59.1736 239.137 60.274 239.797 61.6346C240.478 62.9951 240.818 64.6458 240.818 66.5865C240.818 68.3072 240.488 69.8278 239.827 71.1483C239.187 72.4488 238.317 73.5492 237.216 74.4496C236.116 75.3299 234.845 76.0002 233.405 76.4604C231.964 76.9205 230.454 77.1506 228.873 77.1506H221.22V55.9023ZM225.902 72.8289H228.333C229.413 72.8289 230.414 72.7189 231.334 72.4988C232.274 72.2787 233.085 71.9186 233.765 71.4184C234.445 70.8982 234.976 70.2279 235.356 69.4076C235.756 68.5673 235.956 67.5469 235.956 66.3464C235.956 65.306 235.756 64.4057 235.356 63.6454C234.976 62.8651 234.455 62.2248 233.795 61.7246C233.135 61.2244 232.355 60.8543 231.454 60.6142C230.574 60.3541 229.643 60.224 228.663 60.224H225.902V72.8289Z" fill="white"/>
<path d="M242.852 66.5265C242.852 64.8258 243.132 63.2852 243.693 61.9047C244.273 60.5241 245.073 59.3537 246.094 58.3933C247.114 57.4129 248.324 56.6626 249.725 56.1424C251.126 55.6222 252.656 55.3621 254.317 55.3621C255.977 55.3621 257.508 55.6222 258.909 56.1424C260.309 56.6626 261.52 57.4129 262.54 58.3933C263.56 59.3537 264.351 60.5241 264.911 61.9047C265.491 63.2852 265.781 64.8258 265.781 66.5265C265.781 68.2271 265.491 69.7678 264.911 71.1483C264.351 72.5288 263.56 73.7093 262.54 74.6897C261.52 75.6501 260.309 76.3903 258.909 76.9105C257.508 77.4307 255.977 77.6908 254.317 77.6908C252.656 77.6908 251.126 77.4307 249.725 76.9105C248.324 76.3903 247.114 75.6501 246.094 74.6897C245.073 73.7093 244.273 72.5288 243.693 71.1483C243.132 69.7678 242.852 68.2271 242.852 66.5265ZM247.714 66.5265C247.714 67.5269 247.864 68.4472 248.164 69.2876C248.484 70.1079 248.935 70.8282 249.515 71.4484C250.095 72.0486 250.785 72.5188 251.586 72.859C252.406 73.1991 253.316 73.3692 254.317 73.3692C255.317 73.3692 256.218 73.1991 257.018 72.859C257.838 72.5188 258.538 72.0486 259.119 71.4484C259.699 70.8282 260.139 70.1079 260.439 69.2876C260.759 68.4472 260.919 67.5269 260.919 66.5265C260.919 65.5461 260.759 64.6357 260.439 63.7954C260.139 62.9551 259.699 62.2348 259.119 61.6346C258.538 61.0143 257.838 60.5341 257.018 60.194C256.218 59.8539 255.317 59.6838 254.317 59.6838C253.316 59.6838 252.406 59.8539 251.586 60.194C250.785 60.5341 250.095 61.0143 249.515 61.6346C248.935 62.2348 248.484 62.9551 248.164 63.7954C247.864 64.6357 247.714 65.5461 247.714 66.5265Z" fill="white"/>
<path d="M277.844 55.9023H284.867C286.567 55.9023 288.178 56.0924 289.698 56.4726C291.239 56.8527 292.58 57.473 293.72 58.3333C294.861 59.1736 295.761 60.274 296.421 61.6346C297.101 62.9951 297.442 64.6458 297.442 66.5865C297.442 68.3072 297.111 69.8278 296.451 71.1483C295.811 72.4488 294.941 73.5492 293.84 74.4496C292.74 75.3299 291.469 76.0002 290.029 76.4604C288.588 76.9205 287.077 77.1506 285.497 77.1506H277.844V55.9023ZM282.526 72.8289H284.957C286.037 72.8289 287.037 72.7189 287.958 72.4988C288.898 72.2787 289.708 71.9186 290.389 71.4184C291.069 70.8982 291.599 70.2279 291.979 69.4076C292.38 68.5673 292.58 67.5469 292.58 66.3464C292.58 65.306 292.38 64.4057 291.979 63.6454C291.599 62.8651 291.079 62.2248 290.419 61.7246C289.759 61.2244 288.978 60.8543 288.078 60.6142C287.198 60.3541 286.267 60.224 285.287 60.224H282.526V72.8289Z" fill="white"/>
<path d="M300.556 55.9023H305.238V77.1506H300.556V55.9023Z" fill="white"/>
<path d="M328.734 75.6501C327.354 76.3703 325.913 76.8905 324.413 77.2107C322.912 77.5308 321.381 77.6908 319.821 77.6908C318.16 77.6908 316.63 77.4307 315.229 76.9105C313.829 76.3903 312.618 75.6501 311.598 74.6897C310.577 73.7093 309.777 72.5288 309.197 71.1483C308.637 69.7678 308.356 68.2271 308.356 66.5265C308.356 64.8258 308.637 63.2852 309.197 61.9047C309.777 60.5241 310.577 59.3537 311.598 58.3933C312.618 57.4129 313.829 56.6626 315.229 56.1424C316.63 55.6222 318.16 55.3621 319.821 55.3621C321.522 55.3621 323.082 55.5722 324.503 55.9924C325.943 56.3925 327.204 57.0928 328.284 58.0932L324.983 61.6946C324.343 61.0343 323.622 60.5341 322.822 60.194C322.022 59.8539 321.021 59.6838 319.821 59.6838C318.82 59.6838 317.91 59.8539 317.09 60.194C316.289 60.5341 315.599 61.0143 315.019 61.6346C314.439 62.2348 313.989 62.9551 313.668 63.7954C313.368 64.6357 313.218 65.5461 313.218 66.5265C313.218 67.5269 313.368 68.4472 313.668 69.2876C313.989 70.1079 314.439 70.8282 315.019 71.4484C315.599 72.0486 316.289 72.5188 317.09 72.859C317.91 73.1991 318.82 73.3692 319.821 73.3692C320.841 73.3692 321.722 73.2591 322.462 73.039C323.202 72.7989 323.792 72.5588 324.233 72.3187V68.8674H320.421V64.5457H328.734V75.6501Z" fill="white"/>
<path d="M332.796 55.9023H337.477V77.1506H332.796V55.9023Z" fill="white"/>
<path d="M345.848 60.044H339.785V55.9023H356.592V60.044H350.529V77.1506H345.848V60.044Z" fill="white"/>
<path d="M363.207 55.9023H367.079L376.322 77.1506H371.04L369.209 72.6489H360.956L359.185 77.1506H354.023L363.207 55.9023ZM365.008 62.0848L362.427 68.6873H367.619L365.008 62.0848Z" fill="white"/>
<path d="M378.639 55.9023H383.321V72.8289H391.995V77.1506H378.639V55.9023Z" fill="white"/>
<path d="M144.985 92.239H148.557C148.863 92.239 149.187 92.274 149.528 92.3441C149.87 92.4141 150.207 92.5279 150.539 92.6855C150.881 92.8343 151.205 93.0312 151.511 93.2763C151.826 93.5214 152.102 93.819 152.338 94.1692C152.575 94.5105 152.763 94.9088 152.903 95.364C153.043 95.8104 153.113 96.3181 153.113 96.8871C153.113 97.4561 153.043 97.9681 152.903 98.4233C152.763 98.8697 152.575 99.268 152.338 99.6182C152.102 99.9595 151.826 100.253 151.511 100.498C151.205 100.743 150.881 100.944 150.539 101.102C150.207 101.251 149.87 101.36 149.528 101.43C149.187 101.5 148.863 101.535 148.557 101.535H144.985V92.239ZM146.088 100.511H148.189C148.723 100.511 149.218 100.441 149.673 100.301C150.128 100.161 150.522 99.9464 150.855 99.6575C151.187 99.3599 151.45 98.9835 151.642 98.5284C151.835 98.0732 151.931 97.5261 151.931 96.8871C151.931 96.2481 151.835 95.701 151.642 95.2458C151.45 94.7906 151.187 94.4186 150.855 94.1298C150.522 93.8321 150.128 93.6133 149.673 93.4733C149.218 93.3332 148.723 93.2632 148.189 93.2632H146.088V100.511Z" fill="white"/>
<path d="M156.736 96.1781C157.051 95.8542 157.423 95.6178 157.852 95.469C158.29 95.3115 158.732 95.2327 159.178 95.2327C160.088 95.2327 160.745 95.4472 161.148 95.8761C161.55 96.305 161.752 96.9571 161.752 97.8325V100.472C161.752 100.647 161.76 100.831 161.778 101.023C161.795 101.207 161.817 101.378 161.843 101.535H160.859C160.824 101.395 160.802 101.242 160.793 101.076C160.793 100.901 160.793 100.747 160.793 100.616H160.767C160.565 100.931 160.294 101.189 159.953 101.391C159.62 101.592 159.217 101.693 158.745 101.693C158.43 101.693 158.132 101.653 157.852 101.575C157.581 101.496 157.34 101.382 157.13 101.233C156.928 101.076 156.766 100.883 156.644 100.655C156.521 100.428 156.46 100.165 156.46 99.8676C156.46 99.3599 156.591 98.9617 156.854 98.6728C157.117 98.3839 157.44 98.1695 157.826 98.0294C158.22 97.8894 158.64 97.8018 159.086 97.7668C159.541 97.7318 159.957 97.7143 160.333 97.7143H160.727V97.5305C160.727 97.084 160.592 96.747 160.32 96.5194C160.058 96.2919 159.686 96.1781 159.204 96.1781C158.872 96.1781 158.543 96.235 158.22 96.3488C157.904 96.4538 157.624 96.6201 157.379 96.8477L156.736 96.1781ZM159.703 98.5809C159.047 98.5809 158.526 98.6728 158.141 98.8566C157.756 99.0404 157.563 99.3424 157.563 99.7626C157.563 100.148 157.69 100.423 157.944 100.59C158.206 100.747 158.53 100.826 158.915 100.826C159.213 100.826 159.471 100.778 159.69 100.682C159.918 100.577 160.106 100.441 160.255 100.275C160.404 100.108 160.517 99.9158 160.596 99.6969C160.675 99.4694 160.719 99.2286 160.727 98.9748V98.5809H159.703Z" fill="white"/>
<path d="M170.841 100.445H170.815C170.622 100.795 170.316 101.093 169.896 101.338C169.484 101.575 169.003 101.693 168.451 101.693C168.023 101.693 167.62 101.614 167.243 101.456C166.867 101.29 166.539 101.062 166.259 100.774C165.987 100.485 165.773 100.143 165.615 99.7495C165.458 99.3556 165.379 98.9266 165.379 98.4627C165.379 97.9988 165.458 97.5699 165.615 97.176C165.773 96.7821 165.992 96.4407 166.272 96.1518C166.552 95.8629 166.889 95.6397 167.283 95.4822C167.686 95.3159 168.128 95.2327 168.609 95.2327C169.055 95.2327 169.462 95.3246 169.83 95.5084C170.207 95.6923 170.535 95.9505 170.815 96.2831H170.841V91.6088H171.865V101.535H170.841V100.445ZM170.841 98.4627C170.841 98.1388 170.789 97.8412 170.684 97.5699C170.587 97.2897 170.443 97.049 170.25 96.8477C170.058 96.6376 169.826 96.4757 169.554 96.3619C169.292 96.2393 168.994 96.1781 168.662 96.1781C168.329 96.1781 168.027 96.2393 167.756 96.3619C167.493 96.4757 167.265 96.6376 167.073 96.8477C166.88 97.049 166.731 97.2897 166.626 97.5699C166.53 97.8412 166.482 98.1388 166.482 98.4627C166.482 98.7866 166.53 99.0886 166.626 99.3687C166.731 99.64 166.88 99.8808 167.073 100.091C167.265 100.292 167.493 100.454 167.756 100.577C168.027 100.69 168.329 100.747 168.662 100.747C168.994 100.747 169.292 100.69 169.554 100.577C169.826 100.454 170.058 100.292 170.25 100.091C170.443 99.8808 170.587 99.64 170.684 99.3687C170.789 99.0886 170.841 98.7866 170.841 98.4627Z" fill="white"/>
<path d="M175.516 98.4627C175.516 97.9813 175.599 97.5436 175.765 97.1497C175.932 96.7558 176.159 96.4188 176.448 96.1387C176.737 95.8498 177.083 95.6266 177.486 95.469C177.888 95.3115 178.326 95.2327 178.799 95.2327C179.271 95.2327 179.709 95.3115 180.112 95.469C180.514 95.6266 180.86 95.8498 181.149 96.1387C181.438 96.4188 181.665 96.7558 181.832 97.1497C181.998 97.5436 182.081 97.9813 182.081 98.4627C182.081 98.9441 181.998 99.3818 181.832 99.7757C181.665 100.17 181.438 100.511 181.149 100.8C180.86 101.08 180.514 101.299 180.112 101.456C179.709 101.614 179.271 101.693 178.799 101.693C178.326 101.693 177.888 101.614 177.486 101.456C177.083 101.299 176.737 101.08 176.448 100.8C176.159 100.511 175.932 100.17 175.765 99.7757C175.599 99.3818 175.516 98.9441 175.516 98.4627ZM176.619 98.4627C176.619 98.7866 176.667 99.0886 176.763 99.3687C176.868 99.64 177.017 99.8808 177.21 100.091C177.402 100.292 177.63 100.454 177.893 100.577C178.164 100.69 178.466 100.747 178.799 100.747C179.131 100.747 179.429 100.69 179.691 100.577C179.963 100.454 180.195 100.292 180.387 100.091C180.58 99.8808 180.724 99.64 180.821 99.3687C180.926 99.0886 180.978 98.7866 180.978 98.4627C180.978 98.1388 180.926 97.8412 180.821 97.5699C180.724 97.2897 180.58 97.049 180.387 96.8477C180.195 96.6376 179.963 96.4757 179.691 96.3619C179.429 96.2393 179.131 96.1781 178.799 96.1781C178.466 96.1781 178.164 96.2393 177.893 96.3619C177.63 96.4757 177.402 96.6376 177.21 96.8477C177.017 97.049 176.868 97.2897 176.763 97.5699C176.667 97.8412 176.619 98.1388 176.619 98.4627Z" fill="white"/>
<path d="M185.908 99.9202C186.109 100.174 186.328 100.375 186.565 100.524C186.81 100.673 187.116 100.747 187.484 100.747C187.641 100.747 187.799 100.73 187.956 100.695C188.123 100.66 188.271 100.603 188.403 100.524C188.534 100.445 188.639 100.349 188.718 100.235C188.797 100.113 188.836 99.9683 188.836 99.802C188.836 99.6357 188.797 99.5 188.718 99.3949C188.648 99.2899 188.552 99.2024 188.429 99.1323C188.306 99.0536 188.166 98.9923 188.009 98.9485C187.851 98.9048 187.689 98.8654 187.523 98.8304C187.234 98.7691 186.958 98.699 186.696 98.6203C186.433 98.5415 186.201 98.4408 186 98.3183C185.807 98.187 185.65 98.0207 185.527 97.8193C185.413 97.618 185.357 97.3598 185.357 97.0447C185.357 96.747 185.422 96.4844 185.554 96.2568C185.685 96.0293 185.86 95.8411 186.079 95.6922C186.298 95.5434 186.543 95.4296 186.814 95.3509C187.085 95.2721 187.365 95.2327 187.654 95.2327C188.092 95.2327 188.495 95.3202 188.862 95.4953C189.239 95.6704 189.532 95.9549 189.742 96.3488L188.889 96.9134C188.757 96.6945 188.582 96.5194 188.363 96.3881C188.153 96.2481 187.895 96.1781 187.589 96.1781C187.449 96.1781 187.304 96.1956 187.155 96.2306C187.015 96.2656 186.888 96.3181 186.775 96.3881C186.661 96.4582 186.565 96.5501 186.486 96.6639C186.416 96.7689 186.381 96.8915 186.381 97.0315C186.381 97.1628 186.42 97.2766 186.499 97.3729C186.586 97.4604 186.7 97.5392 186.84 97.6092C186.989 97.6793 187.155 97.7405 187.339 97.7931C187.532 97.8456 187.729 97.8894 187.93 97.9244C188.201 97.9769 188.46 98.0469 188.705 98.1345C188.95 98.2132 189.164 98.3227 189.348 98.4627C189.532 98.6028 189.676 98.7778 189.781 98.9879C189.886 99.198 189.939 99.4562 189.939 99.7626C189.939 100.113 189.869 100.41 189.729 100.655C189.589 100.901 189.401 101.102 189.164 101.259C188.937 101.408 188.674 101.518 188.377 101.588C188.088 101.658 187.79 101.693 187.484 101.693C186.958 101.693 186.503 101.614 186.118 101.456C185.742 101.29 185.4 100.988 185.094 100.55L185.908 99.9202Z" fill="white"/>
<path d="M204.73 100.419C204.363 100.892 203.96 101.224 203.523 101.417C203.085 101.601 202.577 101.693 201.999 101.693C201.518 101.693 201.085 101.61 200.7 101.443C200.314 101.268 199.986 101.036 199.715 100.747C199.452 100.458 199.246 100.117 199.098 99.7232C198.958 99.3293 198.888 98.9091 198.888 98.4627C198.888 97.99 198.966 97.5567 199.124 97.1628C199.281 96.7602 199.5 96.4188 199.78 96.1387C200.061 95.8498 200.393 95.6266 200.778 95.469C201.163 95.3115 201.584 95.2327 202.039 95.2327C202.468 95.2327 202.862 95.3071 203.221 95.4559C203.579 95.596 203.886 95.806 204.14 96.0862C204.402 96.3575 204.604 96.6945 204.744 97.0972C204.884 97.4911 204.954 97.9419 204.954 98.4496V98.7778H199.99C200.008 99.0404 200.069 99.2943 200.174 99.5394C200.288 99.7757 200.433 99.9858 200.608 100.17C200.783 100.345 200.988 100.485 201.225 100.59C201.461 100.695 201.719 100.747 201.999 100.747C202.446 100.747 202.822 100.669 203.129 100.511C203.435 100.353 203.711 100.121 203.956 99.8151L204.73 100.419ZM203.851 97.9112C203.833 97.386 203.663 96.9659 203.339 96.6507C203.015 96.3356 202.568 96.1781 201.999 96.1781C201.43 96.1781 200.971 96.3356 200.621 96.6507C200.271 96.9659 200.061 97.386 199.99 97.9112H203.851Z" fill="white"/>
<path d="M214.426 92.239H217.997C218.304 92.239 218.628 92.274 218.969 92.3441C219.31 92.4141 219.647 92.5279 219.98 92.6855C220.321 92.8343 220.645 93.0312 220.952 93.2763C221.267 93.5214 221.542 93.819 221.779 94.1692C222.015 94.5105 222.203 94.9088 222.343 95.364C222.483 95.8104 222.553 96.3181 222.553 96.8871C222.553 97.4561 222.483 97.9681 222.343 98.4233C222.203 98.8697 222.015 99.268 221.779 99.6182C221.542 99.9595 221.267 100.253 220.952 100.498C220.645 100.743 220.321 100.944 219.98 101.102C219.647 101.251 219.31 101.36 218.969 101.43C218.628 101.5 218.304 101.535 217.997 101.535H214.426V92.239ZM215.529 100.511H217.63C218.164 100.511 218.658 100.441 219.113 100.301C219.569 100.161 219.962 99.9464 220.295 99.6575C220.628 99.3599 220.89 98.9835 221.083 98.5284C221.275 98.0732 221.372 97.5261 221.372 96.8871C221.372 96.2481 221.275 95.701 221.083 95.2458C220.89 94.7906 220.628 94.4186 220.295 94.1298C219.962 93.8321 219.569 93.6133 219.113 93.4733C218.658 93.3332 218.164 93.2632 217.63 93.2632H215.529V100.511Z" fill="white"/>
<path d="M226.347 95.3903H227.371V101.535H226.347V95.3903ZM226.111 92.9874C226.111 92.7861 226.181 92.611 226.321 92.4622C226.47 92.3134 226.649 92.239 226.859 92.239C227.069 92.239 227.244 92.3134 227.384 92.4622C227.533 92.611 227.608 92.7861 227.608 92.9874C227.608 93.2063 227.538 93.3857 227.398 93.5258C227.257 93.6658 227.078 93.7359 226.859 93.7359C226.64 93.7359 226.461 93.6658 226.321 93.5258C226.181 93.3857 226.111 93.2063 226.111 92.9874Z" fill="white"/>
<path d="M231.52 96.8477C231.52 96.5676 231.511 96.305 231.493 96.0599C231.476 95.8148 231.467 95.5916 231.467 95.3903H232.439C232.439 95.5566 232.443 95.7229 232.452 95.8892C232.461 96.0555 232.465 96.2262 232.465 96.4013H232.491C232.561 96.2525 232.658 96.108 232.78 95.968C232.911 95.8279 233.065 95.7054 233.24 95.6003C233.415 95.4865 233.612 95.399 233.831 95.3377C234.049 95.2677 234.286 95.2327 234.54 95.2327C234.61 95.2327 234.68 95.2371 234.75 95.2458C234.82 95.2546 234.89 95.2721 234.96 95.2983L234.894 96.3356C234.719 96.2831 234.535 96.2568 234.343 96.2568C233.712 96.2568 233.253 96.4626 232.964 96.874C232.684 97.2766 232.544 97.8325 232.544 98.5415V101.535H231.52V96.8477Z" fill="white"/>
<path d="M243.504 100.419C243.136 100.892 242.733 101.224 242.296 101.417C241.858 101.601 241.35 101.693 240.772 101.693C240.291 101.693 239.858 101.61 239.473 101.443C239.087 101.268 238.759 101.036 238.488 100.747C238.225 100.458 238.02 100.117 237.871 99.7232C237.731 99.3293 237.661 98.9091 237.661 98.4627C237.661 97.99 237.739 97.5567 237.897 97.1628C238.055 96.7602 238.273 96.4188 238.553 96.1387C238.834 95.8498 239.166 95.6266 239.551 95.469C239.937 95.3115 240.357 95.2327 240.812 95.2327C241.241 95.2327 241.635 95.3071 241.994 95.4559C242.352 95.596 242.659 95.806 242.913 96.0862C243.175 96.3575 243.377 96.6945 243.517 97.0972C243.657 97.4911 243.727 97.9419 243.727 98.4496V98.7778H238.764C238.781 99.0404 238.842 99.2943 238.947 99.5394C239.061 99.7757 239.206 99.9858 239.381 100.17C239.556 100.345 239.761 100.485 239.998 100.59C240.234 100.695 240.492 100.747 240.772 100.747C241.219 100.747 241.595 100.669 241.902 100.511C242.208 100.353 242.484 100.121 242.729 99.8151L243.504 100.419ZM242.624 97.9112C242.606 97.386 242.436 96.9659 242.112 96.6507C241.788 96.3356 241.341 96.1781 240.772 96.1781C240.204 96.1781 239.744 96.3356 239.394 96.6507C239.044 96.9659 238.834 97.386 238.764 97.9112H242.624Z" fill="white"/>
<path d="M247.513 95.3903H248.537V101.535H247.513V95.3903ZM247.277 92.9874C247.277 92.7861 247.347 92.611 247.487 92.4622C247.636 92.3134 247.815 92.239 248.025 92.239C248.235 92.239 248.41 92.3134 248.55 92.4622C248.699 92.611 248.774 92.7861 248.774 92.9874C248.774 93.2063 248.704 93.3857 248.564 93.5258C248.424 93.6658 248.244 93.7359 248.025 93.7359C247.806 93.7359 247.627 93.6658 247.487 93.5258C247.347 93.3857 247.277 93.2063 247.277 92.9874Z" fill="white"/>
<path d="M256.047 96.2568H254.235V99.3293C254.235 99.5306 254.24 99.7188 254.248 99.8939C254.257 100.06 254.292 100.209 254.353 100.34C254.415 100.463 254.507 100.564 254.629 100.642C254.752 100.712 254.927 100.747 255.154 100.747C255.303 100.747 255.456 100.73 255.614 100.695C255.771 100.66 255.92 100.607 256.06 100.537L256.1 101.47C255.925 101.548 255.728 101.605 255.509 101.64C255.299 101.675 255.097 101.693 254.905 101.693C254.537 101.693 254.244 101.645 254.025 101.548C253.806 101.452 253.636 101.316 253.513 101.141C253.39 100.966 253.307 100.752 253.264 100.498C253.229 100.235 253.211 99.9464 253.211 99.6313V96.2568H251.872V95.3903H253.211V93.644H254.235V95.3903H256.047V96.2568Z" fill="white"/>
<path d="M259.058 98.4627C259.058 97.9813 259.141 97.5436 259.307 97.1497C259.473 96.7558 259.701 96.4188 259.99 96.1387C260.279 95.8498 260.624 95.6266 261.027 95.469C261.43 95.3115 261.867 95.2327 262.34 95.2327C262.813 95.2327 263.25 95.3115 263.653 95.469C264.056 95.6266 264.402 95.8498 264.69 96.1387C264.979 96.4188 265.207 96.7558 265.373 97.1497C265.539 97.5436 265.623 97.9813 265.623 98.4627C265.623 98.9441 265.539 99.3818 265.373 99.7757C265.207 100.17 264.979 100.511 264.69 100.8C264.402 101.08 264.056 101.299 263.653 101.456C263.25 101.614 262.813 101.693 262.34 101.693C261.867 101.693 261.43 101.614 261.027 101.456C260.624 101.299 260.279 101.08 259.99 100.8C259.701 100.511 259.473 100.17 259.307 99.7757C259.141 99.3818 259.058 98.9441 259.058 98.4627ZM260.16 98.4627C260.16 98.7866 260.209 99.0886 260.305 99.3687C260.41 99.64 260.559 99.8808 260.751 100.091C260.944 100.292 261.172 100.454 261.434 100.577C261.705 100.69 262.007 100.747 262.34 100.747C262.673 100.747 262.97 100.69 263.233 100.577C263.504 100.454 263.736 100.292 263.929 100.091C264.121 99.8808 264.266 99.64 264.362 99.3687C264.467 99.0886 264.52 98.7866 264.52 98.4627C264.52 98.1388 264.467 97.8412 264.362 97.5699C264.266 97.2897 264.121 97.049 263.929 96.8477C263.736 96.6376 263.504 96.4757 263.233 96.3619C262.97 96.2393 262.673 96.1781 262.34 96.1781C262.007 96.1781 261.705 96.2393 261.434 96.3619C261.172 96.4757 260.944 96.6376 260.751 96.8477C260.559 97.049 260.41 97.2897 260.305 97.5699C260.209 97.8412 260.16 98.1388 260.16 98.4627Z" fill="white"/>
<path d="M269.45 99.9202C269.651 100.174 269.87 100.375 270.106 100.524C270.351 100.673 270.658 100.747 271.025 100.747C271.183 100.747 271.34 100.73 271.498 100.695C271.664 100.66 271.813 100.603 271.944 100.524C272.076 100.445 272.181 100.349 272.259 100.235C272.338 100.113 272.378 99.9683 272.378 99.802C272.378 99.6357 272.338 99.5 272.259 99.3949C272.189 99.2899 272.093 99.2024 271.971 99.1323C271.848 99.0536 271.708 98.9923 271.55 98.9485C271.393 98.9048 271.231 98.8654 271.065 98.8304C270.776 98.7691 270.5 98.699 270.237 98.6203C269.975 98.5415 269.743 98.4408 269.541 98.3183C269.349 98.187 269.191 98.0207 269.069 97.8193C268.955 97.618 268.898 97.3598 268.898 97.0447C268.898 96.747 268.964 96.4844 269.095 96.2568C269.226 96.0293 269.401 95.8411 269.62 95.6922C269.839 95.5434 270.084 95.4296 270.356 95.3509C270.627 95.2721 270.907 95.2327 271.196 95.2327C271.634 95.2327 272.036 95.3202 272.404 95.4953C272.78 95.6704 273.074 95.9549 273.284 96.3488L272.43 96.9134C272.299 96.6945 272.124 96.5194 271.905 96.3881C271.695 96.2481 271.437 96.1781 271.13 96.1781C270.99 96.1781 270.846 96.1956 270.697 96.2306C270.557 96.2656 270.43 96.3181 270.316 96.3881C270.202 96.4582 270.106 96.5501 270.027 96.6639C269.957 96.7689 269.922 96.8915 269.922 97.0315C269.922 97.1628 269.962 97.2766 270.04 97.3729C270.128 97.4604 270.242 97.5392 270.382 97.6092C270.531 97.6793 270.697 97.7405 270.881 97.7931C271.073 97.8456 271.27 97.8894 271.472 97.9244C271.743 97.9769 272.001 98.0469 272.246 98.1345C272.491 98.2132 272.706 98.3227 272.89 98.4627C273.073 98.6028 273.218 98.7778 273.323 98.9879C273.428 99.198 273.481 99.4562 273.481 99.7626C273.481 100.113 273.411 100.41 273.27 100.655C273.13 100.901 272.942 101.102 272.706 101.259C272.478 101.408 272.216 101.518 271.918 101.588C271.629 101.658 271.332 101.693 271.025 101.693C270.5 101.693 270.045 101.614 269.66 101.456C269.283 101.29 268.942 100.988 268.636 100.55L269.45 99.9202Z" fill="white"/>
<path d="M287.891 100.445H287.865C287.672 100.795 287.366 101.093 286.946 101.338C286.534 101.575 286.053 101.693 285.502 101.693C285.073 101.693 284.67 101.614 284.294 101.456C283.917 101.29 283.589 101.062 283.309 100.774C283.037 100.485 282.823 100.143 282.665 99.7495C282.508 99.3556 282.429 98.9266 282.429 98.4627C282.429 97.9988 282.508 97.5699 282.665 97.176C282.823 96.7821 283.042 96.4407 283.322 96.1518C283.602 95.8629 283.939 95.6397 284.333 95.4822C284.736 95.3159 285.178 95.2327 285.659 95.2327C286.106 95.2327 286.513 95.3246 286.88 95.5084C287.257 95.6923 287.585 95.9505 287.865 96.2831H287.891V91.6088H288.915V101.535H287.891V100.445ZM287.891 98.4627C287.891 98.1388 287.839 97.8412 287.734 97.5699C287.637 97.2897 287.493 97.049 287.3 96.8477C287.108 96.6376 286.876 96.4757 286.604 96.3619C286.342 96.2393 286.044 96.1781 285.712 96.1781C285.379 96.1781 285.077 96.2393 284.806 96.3619C284.543 96.4757 284.315 96.6376 284.123 96.8477C283.93 97.049 283.782 97.2897 283.676 97.5699C283.58 97.8412 283.532 98.1388 283.532 98.4627C283.532 98.7866 283.58 99.0886 283.676 99.3687C283.782 99.64 283.93 99.8808 284.123 100.091C284.315 100.292 284.543 100.454 284.806 100.577C285.077 100.69 285.379 100.747 285.712 100.747C286.044 100.747 286.342 100.69 286.604 100.577C286.876 100.454 287.108 100.292 287.3 100.091C287.493 99.8808 287.637 99.64 287.734 99.3687C287.839 99.0886 287.891 98.7866 287.891 98.4627Z" fill="white"/>
<path d="M298.409 100.419C298.041 100.892 297.639 101.224 297.201 101.417C296.763 101.601 296.256 101.693 295.678 101.693C295.197 101.693 294.763 101.61 294.378 101.443C293.993 101.268 293.665 101.036 293.393 100.747C293.131 100.458 292.925 100.117 292.776 99.7232C292.636 99.3293 292.566 98.9091 292.566 98.4627C292.566 97.99 292.645 97.5567 292.802 97.1628C292.96 96.7602 293.179 96.4188 293.459 96.1387C293.739 95.8498 294.072 95.6266 294.457 95.469C294.842 95.3115 295.262 95.2327 295.717 95.2327C296.146 95.2327 296.54 95.3071 296.899 95.4559C297.258 95.596 297.564 95.806 297.818 96.0862C298.081 96.3575 298.282 96.6945 298.422 97.0972C298.562 97.4911 298.632 97.9419 298.632 98.4496V98.7778H293.669C293.687 99.0404 293.748 99.2943 293.853 99.5394C293.967 99.7757 294.111 99.9858 294.286 100.17C294.461 100.345 294.667 100.485 294.903 100.59C295.14 100.695 295.398 100.747 295.678 100.747C296.124 100.747 296.501 100.669 296.807 100.511C297.114 100.353 297.389 100.121 297.634 99.8151L298.409 100.419ZM297.529 97.9112C297.512 97.386 297.341 96.9659 297.017 96.6507C296.693 96.3356 296.247 96.1781 295.678 96.1781C295.109 96.1781 294.649 96.3356 294.299 96.6507C293.949 96.9659 293.739 97.386 293.669 97.9112H297.529Z" fill="white"/>
<path d="M313.58 100.419C313.212 100.892 312.809 101.224 312.372 101.417C311.934 101.601 311.426 101.693 310.849 101.693C310.367 101.693 309.934 101.61 309.549 101.443C309.164 101.268 308.835 101.036 308.564 100.747C308.301 100.458 308.096 100.117 307.947 99.7232C307.807 99.3293 307.737 98.9091 307.737 98.4627C307.737 97.99 307.816 97.5567 307.973 97.1628C308.131 96.7602 308.35 96.4188 308.63 96.1387C308.91 95.8498 309.242 95.6266 309.628 95.469C310.013 95.3115 310.433 95.2327 310.888 95.2327C311.317 95.2327 311.711 95.3071 312.07 95.4559C312.429 95.596 312.735 95.806 312.989 96.0862C313.251 96.3575 313.453 96.6945 313.593 97.0972C313.733 97.4911 313.803 97.9419 313.803 98.4496V98.7778H308.84C308.857 99.0404 308.919 99.2943 309.024 99.5394C309.137 99.7757 309.282 99.9858 309.457 100.17C309.632 100.345 309.838 100.485 310.074 100.59C310.31 100.695 310.569 100.747 310.849 100.747C311.295 100.747 311.672 100.669 311.978 100.511C312.284 100.353 312.56 100.121 312.805 99.8151L313.58 100.419ZM312.7 97.9112C312.683 97.386 312.512 96.9659 312.188 96.6507C311.864 96.3356 311.418 96.1781 310.849 96.1781C310.28 96.1781 309.82 96.3356 309.47 96.6507C309.12 96.9659 308.91 97.386 308.84 97.9112H312.7Z" fill="white"/>
<path d="M317.629 99.9202C317.83 100.174 318.049 100.375 318.285 100.524C318.53 100.673 318.837 100.747 319.204 100.747C319.362 100.747 319.52 100.73 319.677 100.695C319.843 100.66 319.992 100.603 320.124 100.524C320.255 100.445 320.36 100.349 320.439 100.235C320.517 100.113 320.557 99.9683 320.557 99.802C320.557 99.6357 320.517 99.5 320.439 99.3949C320.369 99.2899 320.272 99.2024 320.15 99.1323C320.027 99.0536 319.887 98.9923 319.73 98.9485C319.572 98.9048 319.41 98.8654 319.244 98.8304C318.955 98.7691 318.679 98.699 318.417 98.6203C318.154 98.5415 317.922 98.4408 317.721 98.3183C317.528 98.187 317.371 98.0207 317.248 97.8193C317.134 97.618 317.077 97.3598 317.077 97.0447C317.077 96.747 317.143 96.4844 317.274 96.2568C317.406 96.0293 317.581 95.8411 317.799 95.6922C318.018 95.5434 318.263 95.4296 318.535 95.3509C318.806 95.2721 319.086 95.2327 319.375 95.2327C319.813 95.2327 320.215 95.3202 320.583 95.4953C320.959 95.6704 321.253 95.9549 321.463 96.3488L320.609 96.9134C320.478 96.6945 320.303 96.5194 320.084 96.3881C319.874 96.2481 319.616 96.1781 319.309 96.1781C319.169 96.1781 319.025 96.1956 318.876 96.2306C318.736 96.2656 318.609 96.3181 318.495 96.3881C318.382 96.4582 318.285 96.5501 318.207 96.6639C318.137 96.7689 318.101 96.8915 318.101 97.0315C318.101 97.1628 318.141 97.2766 318.22 97.3729C318.307 97.4604 318.421 97.5392 318.561 97.6092C318.71 97.6793 318.876 97.7405 319.06 97.7931C319.253 97.8456 319.45 97.8894 319.651 97.9244C319.922 97.9769 320.18 98.0469 320.426 98.1345C320.671 98.2132 320.885 98.3227 321.069 98.4627C321.253 98.6028 321.397 98.7778 321.502 98.9879C321.607 99.198 321.66 99.4562 321.66 99.7626C321.66 100.113 321.59 100.41 321.45 100.655C321.31 100.901 321.121 101.102 320.885 101.259C320.657 101.408 320.395 101.518 320.097 101.588C319.808 101.658 319.511 101.693 319.204 101.693C318.679 101.693 318.224 101.614 317.839 101.456C317.462 101.29 317.121 100.988 316.815 100.55L317.629 99.9202Z" fill="white"/>
<path d="M328.56 96.2568H326.748V99.3293C326.748 99.5306 326.752 99.7188 326.761 99.8939C326.77 100.06 326.805 100.209 326.866 100.34C326.927 100.463 327.019 100.564 327.142 100.642C327.264 100.712 327.439 100.747 327.667 100.747C327.816 100.747 327.969 100.73 328.126 100.695C328.284 100.66 328.433 100.607 328.573 100.537L328.612 101.47C328.437 101.548 328.24 101.605 328.021 101.64C327.811 101.675 327.61 101.693 327.417 101.693C327.05 101.693 326.756 101.645 326.538 101.548C326.319 101.452 326.148 101.316 326.025 101.141C325.903 100.966 325.82 100.752 325.776 100.498C325.741 100.235 325.723 99.9464 325.723 99.6313V96.2568H324.384V95.3903H325.723V93.644H326.748V95.3903H328.56V96.2568Z" fill="white"/>
<path d="M337.282 100.078C337.282 100.358 337.29 100.62 337.308 100.866C337.325 101.111 337.334 101.334 337.334 101.535H336.363C336.363 101.369 336.358 101.203 336.349 101.036C336.341 100.87 336.336 100.699 336.336 100.524H336.31C336.24 100.673 336.139 100.817 336.008 100.957C335.885 101.097 335.737 101.224 335.562 101.338C335.387 101.443 335.19 101.526 334.971 101.588C334.752 101.658 334.516 101.693 334.262 101.693C333.859 101.693 333.509 101.631 333.211 101.509C332.922 101.386 332.682 101.216 332.489 100.997C332.297 100.778 332.152 100.515 332.056 100.209C331.968 99.8939 331.925 99.5525 331.925 99.1849V95.3903H332.949V99.0798C332.949 99.5963 333.062 100.003 333.29 100.301C333.518 100.599 333.872 100.747 334.354 100.747C334.686 100.747 334.971 100.69 335.207 100.577C335.452 100.463 335.649 100.301 335.798 100.091C335.955 99.8808 336.069 99.6313 336.139 99.3424C336.218 99.0536 336.257 98.7341 336.257 98.3839V95.3903H337.282V100.078Z" fill="white"/>
<path d="M346.438 100.445H346.412C346.219 100.795 345.913 101.093 345.493 101.338C345.082 101.575 344.6 101.693 344.049 101.693C343.62 101.693 343.217 101.614 342.841 101.456C342.464 101.29 342.136 101.062 341.856 100.774C341.585 100.485 341.37 100.143 341.212 99.7495C341.055 99.3556 340.976 98.9266 340.976 98.4627C340.976 97.9988 341.055 97.5699 341.212 97.176C341.37 96.7821 341.589 96.4407 341.869 96.1518C342.149 95.8629 342.486 95.6397 342.88 95.4822C343.283 95.3159 343.725 95.2327 344.206 95.2327C344.653 95.2327 345.06 95.3246 345.427 95.5084C345.804 95.6923 346.132 95.9505 346.412 96.2831H346.438V91.6088H347.462V101.535H346.438V100.445ZM346.438 98.4627C346.438 98.1388 346.386 97.8412 346.281 97.5699C346.184 97.2897 346.04 97.049 345.847 96.8477C345.655 96.6376 345.423 96.4757 345.152 96.3619C344.889 96.2393 344.591 96.1781 344.259 96.1781C343.926 96.1781 343.624 96.2393 343.353 96.3619C343.09 96.4757 342.863 96.6376 342.67 96.8477C342.477 97.049 342.329 97.2897 342.224 97.5699C342.127 97.8412 342.079 98.1388 342.079 98.4627C342.079 98.7866 342.127 99.0886 342.224 99.3687C342.329 99.64 342.477 99.8808 342.67 100.091C342.863 100.292 343.09 100.454 343.353 100.577C343.624 100.69 343.926 100.747 344.259 100.747C344.591 100.747 344.889 100.69 345.152 100.577C345.423 100.454 345.655 100.292 345.847 100.091C346.04 99.8808 346.184 99.64 346.281 99.3687C346.386 99.0886 346.438 98.7866 346.438 98.4627Z" fill="white"/>
<path d="M351.389 96.1781C351.704 95.8542 352.076 95.6178 352.505 95.469C352.943 95.3115 353.385 95.2327 353.831 95.2327C354.741 95.2327 355.398 95.4472 355.801 95.8761C356.203 96.305 356.405 96.9571 356.405 97.8325V100.472C356.405 100.647 356.413 100.831 356.431 101.023C356.448 101.207 356.47 101.378 356.497 101.535H355.512C355.477 101.395 355.455 101.242 355.446 101.076C355.446 100.901 355.446 100.747 355.446 100.616H355.42C355.219 100.931 354.947 101.189 354.606 101.391C354.273 101.592 353.87 101.693 353.398 101.693C353.083 101.693 352.785 101.653 352.505 101.575C352.234 101.496 351.993 101.382 351.783 101.233C351.581 101.076 351.42 100.883 351.297 100.655C351.174 100.428 351.113 100.165 351.113 99.8676C351.113 99.3599 351.244 98.9617 351.507 98.6728C351.77 98.3839 352.094 98.1695 352.479 98.0294C352.873 97.8894 353.293 97.8018 353.739 97.7668C354.194 97.7318 354.61 97.7143 354.987 97.7143H355.38V97.5305C355.38 97.084 355.245 96.747 354.973 96.5194C354.711 96.2919 354.339 96.1781 353.857 96.1781C353.525 96.1781 353.196 96.235 352.873 96.3488C352.557 96.4538 352.277 96.6201 352.032 96.8477L351.389 96.1781ZM354.356 98.5809C353.7 98.5809 353.179 98.6728 352.794 98.8566C352.409 99.0404 352.216 99.3424 352.216 99.7626C352.216 100.148 352.343 100.423 352.597 100.59C352.859 100.747 353.183 100.826 353.569 100.826C353.866 100.826 354.124 100.778 354.343 100.682C354.571 100.577 354.759 100.441 354.908 100.275C355.057 100.108 355.17 99.9158 355.249 99.6969C355.328 99.4694 355.372 99.2286 355.38 98.9748V98.5809H354.356Z" fill="white"/>
<path d="M360.387 96.8477C360.387 96.5676 360.378 96.305 360.36 96.0599C360.343 95.8148 360.334 95.5916 360.334 95.3903H361.306C361.306 95.5566 361.31 95.7229 361.319 95.8892C361.328 96.0555 361.332 96.2262 361.332 96.4013H361.358C361.428 96.2525 361.525 96.108 361.647 95.968C361.778 95.8279 361.932 95.7054 362.107 95.6003C362.282 95.4865 362.479 95.399 362.697 95.3377C362.916 95.2677 363.153 95.2327 363.406 95.2327C363.809 95.2327 364.155 95.294 364.444 95.4165C364.741 95.5391 364.986 95.7098 365.179 95.9286C365.372 96.1474 365.512 96.4144 365.599 96.7295C365.696 97.0359 365.744 97.3729 365.744 97.7405V101.535H364.72V97.8456C364.72 97.3291 364.606 96.9221 364.378 96.6245C364.151 96.3269 363.796 96.1781 363.315 96.1781C362.982 96.1781 362.693 96.235 362.448 96.3488C362.212 96.4626 362.015 96.6245 361.857 96.8346C361.708 97.0447 361.595 97.2941 361.516 97.583C361.446 97.8719 361.411 98.1914 361.411 98.5415V101.535H360.387V96.8477Z" fill="white"/>
<path d="M373.154 96.2568H371.342V99.3293C371.342 99.5306 371.346 99.7188 371.355 99.8939C371.364 100.06 371.399 100.209 371.46 100.34C371.522 100.463 371.613 100.564 371.736 100.642C371.859 100.712 372.034 100.747 372.261 100.747C372.41 100.747 372.563 100.73 372.721 100.695C372.878 100.66 373.027 100.607 373.167 100.537L373.207 101.47C373.031 101.548 372.835 101.605 372.616 101.64C372.406 101.675 372.204 101.693 372.012 101.693C371.644 101.693 371.351 101.645 371.132 101.548C370.913 101.452 370.742 101.316 370.62 101.141C370.497 100.966 370.414 100.752 370.37 100.498C370.335 100.235 370.318 99.9464 370.318 99.6313V96.2568H368.979V95.3903H370.318V93.644H371.342V95.3903H373.154V96.2568Z" fill="white"/>
<path d="M382.007 100.419C381.64 100.892 381.237 101.224 380.799 101.417C380.362 101.601 379.854 101.693 379.276 101.693C378.795 101.693 378.362 101.61 377.976 101.443C377.591 101.268 377.263 101.036 376.992 100.747C376.729 100.458 376.523 100.117 376.375 99.7232C376.234 99.3293 376.164 98.9091 376.164 98.4627C376.164 97.99 376.243 97.5567 376.401 97.1628C376.558 96.7602 376.777 96.4188 377.057 96.1387C377.337 95.8498 377.67 95.6266 378.055 95.469C378.44 95.3115 378.861 95.2327 379.316 95.2327C379.745 95.2327 380.139 95.3071 380.497 95.4559C380.856 95.596 381.163 95.806 381.417 96.0862C381.679 96.3575 381.88 96.6945 382.021 97.0972C382.161 97.4911 382.231 97.9419 382.231 98.4496V98.7778H377.267C377.285 99.0404 377.346 99.2943 377.451 99.5394C377.565 99.7757 377.709 99.9858 377.885 100.17C378.06 100.345 378.265 100.485 378.502 100.59C378.738 100.695 378.996 100.747 379.276 100.747C379.723 100.747 380.099 100.669 380.405 100.511C380.712 100.353 380.988 100.121 381.233 99.8151L382.007 100.419ZM381.128 97.9112C381.11 97.386 380.939 96.9659 380.616 96.6507C380.292 96.3356 379.845 96.1781 379.276 96.1781C378.707 96.1781 378.248 96.3356 377.898 96.6507C377.547 96.9659 377.337 97.386 377.267 97.9112H381.128Z" fill="white"/>
<path d="M386.056 99.9202C386.258 100.174 386.477 100.375 386.713 100.524C386.958 100.673 387.264 100.747 387.632 100.747C387.79 100.747 387.947 100.73 388.105 100.695C388.271 100.66 388.42 100.603 388.551 100.524C388.682 100.445 388.787 100.349 388.866 100.235C388.945 100.113 388.984 99.9683 388.984 99.802C388.984 99.6357 388.945 99.5 388.866 99.3949C388.796 99.2899 388.7 99.2024 388.577 99.1323C388.455 99.0536 388.315 98.9923 388.157 98.9485C388 98.9048 387.838 98.8654 387.671 98.8304C387.383 98.7691 387.107 98.699 386.844 98.6203C386.582 98.5415 386.35 98.4408 386.148 98.3183C385.956 98.187 385.798 98.0207 385.676 97.8193C385.562 97.618 385.505 97.3598 385.505 97.0447C385.505 96.747 385.571 96.4844 385.702 96.2568C385.833 96.0293 386.008 95.8411 386.227 95.6922C386.446 95.5434 386.691 95.4296 386.962 95.3509C387.234 95.2721 387.514 95.2327 387.803 95.2327C388.24 95.2327 388.643 95.3202 389.011 95.4953C389.387 95.6704 389.68 95.9549 389.89 96.3488L389.037 96.9134C388.906 96.6945 388.731 96.5194 388.512 96.3881C388.302 96.2481 388.043 96.1781 387.737 96.1781C387.597 96.1781 387.453 96.1956 387.304 96.2306C387.164 96.2656 387.037 96.3181 386.923 96.3881C386.809 96.4582 386.713 96.5501 386.634 96.6639C386.564 96.7689 386.529 96.8915 386.529 97.0315C386.529 97.1628 386.569 97.2766 386.647 97.3729C386.735 97.4604 386.849 97.5392 386.989 97.6092C387.137 97.6793 387.304 97.7405 387.488 97.7931C387.68 97.8456 387.877 97.8894 388.078 97.9244C388.35 97.9769 388.608 98.0469 388.853 98.1345C389.098 98.2132 389.313 98.3227 389.497 98.4627C389.68 98.6028 389.825 98.7778 389.93 98.9879C390.035 99.198 390.087 99.4562 390.087 99.7626C390.087 100.113 390.017 100.41 389.877 100.655C389.737 100.901 389.549 101.102 389.313 101.259C389.085 101.408 388.823 101.518 388.525 101.588C388.236 101.658 387.938 101.693 387.632 101.693C387.107 101.693 386.652 101.614 386.267 101.456C385.89 101.29 385.549 100.988 385.242 100.55L386.056 99.9202Z" fill="white"/>
</g>
<defs>
<clipPath id="clip0">
<rect width="128" height="120" fill="white"/>
</clipPath>
<clipPath id="clip1">
<rect width="56.272" height="59.0856" fill="white" transform="translate(43.8457 33.9202)"/>
</clipPath>
<clipPath id="clip2">
<rect width="253" height="97" fill="white" transform="translate(144 11.5)"/>
</clipPath>
</defs>
</svg>
