<svg width="48" height="48" viewBox="0 0 48 48" fill="none" xmlns="http://www.w3.org/2000/svg">
<path d="M24 48C37.2548 48 48 37.2548 48 24C48 10.7452 37.2548 0 24 0C10.7452 0 0 10.7452 0 24C0 37.2548 10.7452 48 24 48Z" fill="white"/>
<path d="M14.8569 33.2416V38.3644L19.647 35.6412C20.9822 36.026 22.4016 36.2337 23.8722 36.2337C31.7552 36.2337 38.1447 30.2711 38.1447 22.9169C38.1447 15.5622 31.7552 9.6001 23.8722 9.6001C15.9896 9.6001 9.59961 15.5622 9.59961 22.9169C9.59961 27.0814 11.6485 30.8 14.8569 33.2416Z" fill="url(#paint0_linear)"/>
<path d="M22.3475 19.2695L14.6504 27.4192L21.6554 23.5758L25.3154 27.4192L32.9691 19.2695L26.0418 23.0456L22.3475 19.2695Z" fill="white"/>
<defs>
<linearGradient id="paint0_linear" x1="11.1924" y1="11.5446" x2="11.1924" y2="37.0988" gradientUnits="userSpaceOnUse">
<stop stop-color="#00C6FF"/>
<stop offset="1" stop-color="#0068FF"/>
</linearGradient>
</defs>
</svg>
