<svg width="643" height="817" viewBox="0 0 643 817" fill="none" xmlns="http://www.w3.org/2000/svg">
<path fill-rule="evenodd" clip-rule="evenodd" d="M151.728 358.628C151.511 367.007 162.634 362.718 158.056 356.679C155.018 353.11 152.632 354.665 151.728 358.628ZM174.961 390.709C175.775 399.757 177.483 411.462 170.615 418.514C167.299 421.539 162.398 420.639 158.336 419.982C147.159 417.961 144.922 406.424 143.203 396.974C142.594 395.234 141.401 397.824 140.904 398.44C135.763 406.106 129.894 413.593 121.636 418.073C106.597 425.998 97.455 411.95 100.462 397.88C101.541 390.248 107.953 385.185 113.153 380.105C115.698 378.27 113.793 377.797 111.716 378.128C97.6776 380.549 90.8938 376.655 92.1469 361.568C93.5855 351.822 104.488 347.614 112.73 344.82C115.277 344.081 115.275 344.113 114.219 341.655C112.445 337.525 110.834 333.354 109.896 328.923C107.946 319.662 112.879 306.832 123.32 306.428C136.425 305.526 143.422 318.116 149.088 327.724C149.107 308.919 168.785 297.581 186.266 299.061C195.616 299.176 200.404 308.471 200.487 316.886C200.716 323.696 195.24 328.843 192.55 334.621C205.646 335.747 222.712 338.947 227.574 353.013C228.528 355.439 227.836 357.552 226.079 359.375C221.66 364.878 208.793 364.925 210.63 367.198C213.305 375.857 215.434 384.63 216.516 393.639C217.31 399.119 214.394 402.712 210.078 405.412C196.624 413.537 182.955 400.328 174.961 390.709Z" fill="#F55B80"/>
<path fill-rule="evenodd" clip-rule="evenodd" d="M306.148 338.004C306.457 321.625 336.476 324.68 337.945 315.308C339.418 308.463 341.196 301.363 347.209 297.049C360.702 285.316 375.492 288.015 388.464 298.916C399.238 308.299 406.186 268.022 435.995 288.55C447.896 294.647 451.38 318.588 460.612 318.298C470.405 315.553 479.614 321.048 485.701 328.536C488.006 333.377 509.362 349.813 497.389 351.8C483.454 351.899 469.575 350.282 455.81 348.809C435.396 348.881 414.846 349.285 394.379 349.09C366.876 347.517 339.364 350.425 311.982 348.719C310.374 348.585 307.822 348.424 307.996 346.265C307.624 343.462 306.504 340.843 306.148 338.004Z" fill="#7DB4DB"/>
<path fill-rule="evenodd" clip-rule="evenodd" d="M496.792 503.427C511.529 502.306 511.955 483.025 497.25 480.36C481.201 476.41 479.334 504.598 496.792 503.427ZM498.162 419.368C501.698 415.431 509.44 401.557 514.878 408.668C522.392 421.398 527.314 435.19 535.108 447.851C525.415 443.765 515.196 450.526 514.841 460.878C514.315 476.575 538.908 476.296 542.445 462.609C543.45 459.585 550.867 475.806 551.701 477.494C552.081 478.427 552.495 479.279 551.462 479.987C541.591 485.929 542.087 500.94 554.466 503.809C556.207 504.447 558.913 503.287 559.72 505.472C562.722 512.183 565.488 518.989 567.931 525.925C572.584 537.254 558.317 534.365 551.556 534.599C550.422 534.593 550.284 534.367 550.322 533.238C550.493 528.061 548.425 524.021 544.2 521.037C541.31 518.031 538.147 515.109 533.824 517.445C528.025 520.603 524.158 527.135 524.531 533.783C524.601 534.906 523.892 535.082 522.95 535.023C508.179 535.203 493.376 535.868 478.635 534.616C475.311 534.783 482.971 525.134 475.032 518.714C466.603 505.481 447.611 521.267 455.44 533.215C405.806 524.6 416.348 536.353 431.317 504.41C433.111 500.723 444.962 512.826 454.235 499.952C460.549 490.702 446.483 486.677 447.721 481.139C451.351 476.898 454.861 472.551 458.439 468.266C459.644 466.18 460.98 469.354 462.331 469.841C475.909 480.081 494.35 451.642 477.019 445.74C477.599 444.141 489.462 429.499 491.964 427.346C491.469 436.845 504.5 443.935 510.566 435.319C518.871 426.342 506.869 416.184 498.162 419.368Z" fill="#EBBF5E"/>
<path fill-rule="evenodd" clip-rule="evenodd" d="M627.98 299.038C627.094 308.077 627.102 317.423 622.518 325.562C616.553 338.12 609.65 351.581 597.155 358.787C566.209 377.808 534.447 361.226 529.354 326.011C528.288 319.864 527.692 313.638 526.734 307.47C525.736 303.43 527.818 299.243 526.283 295.427C525.624 294.458 525.97 293.695 527.092 292.83C542.055 284.35 557.891 298.577 564.26 311.582C567.961 317.131 569.313 283.974 572.178 281.883C575.221 276.85 582.311 279.746 586.444 281.858C592.687 285.526 592.448 293.869 593.006 300.231C593.601 302.663 592.906 312.655 597.031 307.26C603.814 298.691 602.612 286.761 608.699 277.907C617.352 267.501 628.943 291.37 627.98 299.038Z" fill="#60D6E1"/>
<path fill-rule="evenodd" clip-rule="evenodd" d="M615.201 451.614C615.409 470.429 618.323 488.958 620.758 507.572C621.433 513.581 621.908 519.613 622.476 525.635C622.625 527.213 622.522 527.392 620.861 527.378C615.375 527.442 610.309 525.036 605.007 524.545C601.911 524.209 599.683 522.773 598.343 519.89C593.142 510.571 588.413 501.485 596.733 492.243C614.262 467.779 580.787 459.813 595.138 437.029C611.33 419.695 601.859 414.41 599.849 394.926C601.153 375.262 631.619 370.052 634.33 392.179C637.411 404.012 622.047 424.261 628.296 431.245C639.824 442.771 636.837 457.784 637.465 472.525C639.81 486.019 646.888 495.67 640.192 510.076C638.213 514.406 637.844 520.286 632.556 521.864C629.812 521.72 625.071 529.133 624.681 523.707C623.57 505.705 620.135 487.994 618.454 470.054C617.657 460.406 617.941 450.742 617.636 441.094C614.199 435.316 615.63 450.045 615.376 451.601C615.318 451.605 615.26 451.61 615.201 451.614Z" fill="#52DC82"/>
<path fill-rule="evenodd" clip-rule="evenodd" d="M176.089 536.537C178.068 540.233 159.188 539.358 156.429 540.229C156.424 540.17 156.419 540.111 156.414 540.052C154.224 540.392 151.485 539.114 149.887 541.154C148.028 543.082 146.006 539.196 146.555 537.488C146.734 536.727 146.852 535.9 146.756 535.134C146.079 529.725 144.648 524.483 143.218 519.237C143.101 516.131 139.5 510.311 142.323 508.222C150.067 503.644 157.636 498.781 165.254 494.003C169.527 489.09 174.38 531.996 176.089 536.537ZM195.621 442.883C201.158 448.431 205.642 454.726 209.047 461.765C211.647 468.667 217.523 479.527 215.993 486.582C207.528 500.432 200.819 516.411 202.443 532.93C202.63 535.733 202.613 535.916 199.813 536.283C196.645 535.932 178.493 539.73 178.952 536.533C176.176 521.848 173.108 507.212 169.989 492.599C169.673 489.053 175.054 487.926 176.927 485.342C182.842 480.877 189.729 470.043 177.254 469.844C174.141 469.072 166.329 472.778 167.528 467.274C168.209 458.368 171.252 450.344 176.643 443.198C178.858 440.252 183.091 442.032 186.253 441.554V441.507C189.348 441.906 193.204 440.418 195.621 442.883ZM217.809 489.682C218.946 496.692 225.139 532.408 219.715 535.105C215.572 535.271 211.43 535.425 207.288 535.566C205.392 535.631 205.447 535.606 205.196 533.74C203.612 518.399 209.029 501.922 217.809 489.682ZM270.872 486.577C271.884 488.407 271.877 488.438 270.425 489.881C259.242 500.937 253.904 515.806 253.215 531.273C253.061 533.232 252.927 533.368 250.898 533.492C242.563 534.173 234.215 534.586 225.852 534.725C222.625 535.189 224.934 529.389 224.464 527.585C224.362 513.813 222.478 500.575 220.094 487.128C221.677 479.531 230.409 472.228 236.804 467.986C250.869 460.159 264.449 475.331 270.872 486.577ZM278.64 516.961C278.203 520.94 277.81 524.924 277.31 528.894C277.254 532.364 272.425 531.136 270.028 531.817C266.042 532.188 262.041 532.433 258.056 532.807C256.161 533.116 255.947 532.975 255.987 530.996C256.092 525.869 257.034 520.869 258.444 515.953C260.921 507.318 265.001 499.565 271.218 493C275.509 486.363 278.945 514.153 278.64 516.961ZM304.041 494.411C308.951 504.492 313.945 514.534 318.924 524.582C319.841 526.431 319.705 526.748 317.655 526.938C305.621 527.86 293.668 529.55 281.643 530.55C280.313 530.604 280.009 530.253 280.178 528.845C282.346 516.358 281.249 503.801 276.534 492.03C275.367 488.989 275.346 489.006 277.983 487.144C283.387 483.328 289.471 481.311 295.962 480.382C298.986 479.359 302.054 491.932 304.041 494.411ZM302.939 479.941C326.315 479.341 341.54 500.905 348.325 520.927C348.691 522.314 349.585 523.797 347.458 523.704C342.997 523.309 322.82 528.269 322.07 524.568C314.634 510.664 308.287 496.205 301.421 482.011C300.458 480.24 301.073 479.784 302.939 479.941ZM334.731 430.495C336.406 433.046 349.825 443.341 347.038 445.318C340.426 454.168 341.459 465.672 344.864 475.586C349.861 487.938 351.791 502.388 360.883 512.578C366.582 519.412 382.609 521.442 383.256 509.772C381.772 485.781 369.031 462.548 352.831 445.117C353.007 439.561 369.236 442.6 373.021 444.093C377.912 445.535 376.694 444.634 378.788 448.997C382.492 458.06 387.692 466.489 391.978 475.146C392.773 483.316 394.271 491.461 393.961 499.686C394.063 499.691 394.166 499.697 394.268 499.702C393.964 503.285 393.644 506.866 393.37 510.451L393.397 510.742C393.672 513.728 393.901 516.972 390.328 517.879C378.27 521.168 365.609 521.316 353.286 523.102C351.841 523.437 351.696 522.102 351.357 521.085C347.873 510.095 342.262 500.292 334.691 491.612C329.088 485.188 322.285 480.607 313.895 478.6C310.101 476.694 299.684 478.738 298.5 475.53C292.935 462.397 287.599 449.034 285.236 434.896C285.047 433.821 285.277 433.502 286.316 433.383C299.493 431.914 312.712 430.884 325.942 430.06C328.786 430.383 332.477 428.338 334.731 430.495ZM351.284 447.638C366.921 464.084 377.349 485.707 380.567 508.155C380.87 519.046 366.372 515.91 361.971 509.641C357.079 504.115 355.436 496.697 352.793 489.987C348.659 476.64 340.059 461.096 348.734 447.82C349.807 446.244 349.972 446.255 351.284 447.638ZM166.401 488.343C166.585 489.609 165.998 490.227 165.082 490.812C156.941 496.023 149.045 501.233 140.587 505.977C138.511 475.638 130.425 481.497 151.697 475.908C169.244 471.871 163.427 473.201 166.401 488.343ZM175.668 472.396C182.201 472.533 183.311 474.553 178.822 479.643C177.554 480.852 169.025 490.349 168.781 486.182C168.187 474.007 163.33 472.808 175.668 472.396ZM282.458 435.715C283.437 439.95 284.283 444.224 285.469 448.401C288.055 457.505 291.53 466.296 295.255 474.99C296.365 477.583 296.357 477.543 293.631 477.999C287.29 479.057 281.432 481.328 276.173 485.06C274.519 486.591 273.698 486.407 272.823 484.324C256.795 458.371 237.237 455.235 219.261 481.445C214.284 467.065 209.443 452.356 198.08 441.338C225.564 439.214 252.812 436.621 280.241 434.067C282.052 433.862 282.025 433.84 282.458 435.715ZM171.898 441.411C172.528 441.573 173.158 441.734 173.788 441.896C156.048 469.996 175.928 469.693 150.793 473.363C148.205 473.187 135.721 479.207 136.518 475.101C136.213 470.64 135.94 466.165 135.173 461.754C133.577 457.798 128.578 451.014 135.379 448.908C147.264 445.283 159.261 441.15 171.864 441.704C171.876 441.606 171.886 441.509 171.898 441.411ZM381.245 447.132C384.228 448.434 389.88 449.092 390.803 452.407C391.442 457.688 391.86 462.897 391.79 468.253C387.435 461.65 384.411 454.413 381.245 447.132ZM390.024 447.471C386.359 445.282 381.352 445.045 378.538 441.935C378.161 439.404 369.88 426.102 373.438 426.013C394.264 424.459 390.241 423.195 390.024 447.471ZM374.938 441.487C343.139 432.598 358.761 453.357 337.883 429.181C347.683 428.028 357.769 427.545 367.652 426.441C370.261 425.97 373.711 438.833 374.938 441.487Z" fill="#60D6E1"/>
<path fill-rule="evenodd" clip-rule="evenodd" d="M456.791 390.934C458.233 391.418 460.322 392.488 458.639 394.102C450.653 406.37 443.641 419.631 433.127 429.949C424.868 424.673 426.698 423.825 432.419 417.622C440.713 409.024 448.331 399.033 456.791 390.934ZM463.737 394.354C479.432 396.234 444.399 422.401 440.33 426.127C440.275 426.042 440.219 425.958 440.163 425.873C448.098 416.32 454.232 405.518 460.947 395.113C461.951 393.555 462.001 393.61 463.737 394.354ZM453.837 389.575C445.377 400.457 435.939 410.262 426.657 420.411C425.582 421.58 425.42 421.554 424.699 420.147C421.865 416.157 426.736 412.679 429.002 409.475C434.561 402.768 440.077 396.012 445.664 389.334C447.956 387.271 450.783 389.49 453.837 389.575ZM443.381 387.999C436.739 396.683 429.516 404.737 422.743 413.304C421.116 415.117 420.69 410.751 420.185 409.76C419.931 408.748 420.17 407.799 420.846 406.898C425.206 401.076 429.56 395.248 433.819 389.353C435.966 386.243 440.139 387.627 443.381 387.999ZM431.9 387.803C427.706 393.554 423.945 399.466 419.076 405.12C418.421 399.612 414.796 393.873 418.578 389.256C418.578 385.73 429.397 387.394 431.9 387.803Z" fill="#F55B80"/>
<g opacity="0.288">
<g opacity="0.288">
<path opacity="0.288" fill-rule="evenodd" clip-rule="evenodd" d="M566.253 358.99C588.218 468.62 552.088 555.179 475.052 618.825C398.175 682.471 280.553 723.205 212.43 678.016C144.308 632.668 125.526 501.398 162.453 371.56C199.22 241.562 291.535 112.997 377.802 115.066C464.07 116.975 544.289 249.518 566.253 358.99Z" fill="#F4ECFF"/>
</g>
</g>
<path fill-rule="evenodd" clip-rule="evenodd" d="M508.692 79.2324C541.714 79.2324 568.485 106.002 568.485 139.025C568.485 172.047 541.714 198.818 508.692 198.818C475.669 198.818 448.899 172.047 448.899 139.025C448.899 106.002 475.669 79.2324 508.692 79.2324ZM508.692 107.579C491.325 107.579 477.246 121.658 477.246 139.025C477.246 156.392 491.325 170.471 508.692 170.471C526.059 170.471 540.138 156.392 540.138 139.025C540.138 121.658 526.059 107.579 508.692 107.579Z" fill="#FFB748"/>
<path d="M495.764 142.258H238.817C223.199 142.258 210.537 154.919 210.537 170.538V669.887C210.537 685.505 223.199 698.167 238.817 698.167H495.764C511.382 698.167 524.044 685.505 524.044 669.887V170.538C524.044 154.919 511.382 142.258 495.764 142.258Z" fill="#902EE9"/>
<path d="M495.764 125.289H238.817C223.199 125.289 210.537 137.951 210.537 153.569V652.918C210.537 668.537 223.199 681.198 238.817 681.198H495.764C511.382 681.198 524.044 668.537 524.044 652.918V153.569C524.044 137.951 511.382 125.289 495.764 125.289Z" fill="#BE6FFB"/>
<path d="M495.764 137.408H237.201C229.169 137.408 222.657 143.92 222.657 151.952V590.7C222.657 598.733 229.169 605.244 237.201 605.244H495.764C503.796 605.244 510.308 598.733 510.308 590.7V151.952C510.308 143.92 503.796 137.408 495.764 137.408Z" fill="white"/>
<path d="M367.695 662.614C378.628 662.614 387.491 653.751 387.491 642.818C387.491 631.885 378.628 623.021 367.695 623.021C356.761 623.021 347.898 631.885 347.898 642.818C347.898 653.751 356.761 662.614 367.695 662.614Z" fill="#902EE9"/>
<path d="M411.303 155.994H250.129C245.221 155.994 241.241 159.973 241.241 164.882V253.643C241.241 258.552 245.221 262.532 250.129 262.532H411.303C416.211 262.532 420.191 258.552 420.191 253.643V164.882C420.191 159.973 416.211 155.994 411.303 155.994Z" fill="#E6D3FF"/>
<path d="M397.921 177.301H262.749C260.964 177.301 259.517 178.748 259.517 180.533V182.44C259.517 184.225 260.964 185.672 262.749 185.672H397.921C399.706 185.672 401.153 184.225 401.153 182.44V180.533C401.153 178.748 399.706 177.301 397.921 177.301Z" fill="#BE6FFB"/>
<path d="M397.921 194.805H262.749C260.964 194.805 259.517 196.252 259.517 198.037V199.944C259.517 201.729 260.964 203.176 262.749 203.176H397.921C399.706 203.176 401.153 201.729 401.153 199.944V198.037C401.153 196.252 399.706 194.805 397.921 194.805Z" fill="#BE6FFB"/>
<path d="M397.921 212.307H262.749C260.964 212.307 259.517 213.754 259.517 215.539V217.446C259.517 219.231 260.964 220.678 262.749 220.678H397.921C399.706 220.678 401.153 219.231 401.153 217.446V215.539C401.153 213.754 399.706 212.307 397.921 212.307Z" fill="#BE6FFB"/>
<path d="M337.763 229.809H262.749C260.964 229.809 259.517 231.256 259.517 233.041V234.948C259.517 236.733 260.964 238.18 262.749 238.18H337.763C339.548 238.18 340.995 236.733 340.995 234.948V233.041C340.995 231.256 339.548 229.809 337.763 229.809Z" fill="#BE6FFB"/>
<path d="M411.303 420.814H250.129C245.221 420.814 241.241 424.794 241.241 429.703V518.464C241.241 523.373 245.221 527.352 250.129 527.352H411.303C416.211 527.352 420.191 523.373 420.191 518.464V429.703C420.191 424.794 416.211 420.814 411.303 420.814Z" fill="#E6D3FF"/>
<path d="M397.921 442.123H262.749C260.964 442.123 259.517 443.57 259.517 445.355V447.262C259.517 449.047 260.964 450.494 262.749 450.494H397.921C399.706 450.494 401.153 449.047 401.153 447.262V445.355C401.153 443.57 399.706 442.123 397.921 442.123Z" fill="#BE6FFB"/>
<path d="M397.921 459.625H262.749C260.964 459.625 259.517 461.072 259.517 462.857V464.764C259.517 466.549 260.964 467.996 262.749 467.996H397.921C399.706 467.996 401.153 466.549 401.153 464.764V462.857C401.153 461.072 399.706 459.625 397.921 459.625Z" fill="#BE6FFB"/>
<path d="M397.921 477.127H262.749C260.964 477.127 259.517 478.574 259.517 480.359V482.266C259.517 484.051 260.964 485.498 262.749 485.498H397.921C399.706 485.498 401.153 484.051 401.153 482.266V480.359C401.153 478.574 399.706 477.127 397.921 477.127Z" fill="#BE6FFB"/>
<path d="M337.763 494.631H262.749C260.964 494.631 259.517 496.078 259.517 497.863V499.77C259.517 501.555 260.964 503.002 262.749 503.002H337.763C339.548 503.002 340.995 501.555 340.995 499.77V497.863C340.995 496.078 339.548 494.631 337.763 494.631Z" fill="#BE6FFB"/>
<path d="M483.643 288.404H322.47C317.561 288.404 313.582 292.384 313.582 297.292V386.054C313.582 390.962 317.561 394.942 322.47 394.942H483.643C488.552 394.942 492.531 390.962 492.531 386.054V297.292C492.531 292.384 488.552 288.404 483.643 288.404Z" fill="#F4ECFF"/>
<path d="M470.262 309.711H335.089C333.304 309.711 331.857 311.158 331.857 312.943V314.85C331.857 316.635 333.304 318.082 335.089 318.082H470.262C472.047 318.082 473.494 316.635 473.494 314.85V312.943C473.494 311.158 472.047 309.711 470.262 309.711Z" fill="#CCA4FF"/>
<path d="M470.262 327.215H335.089C333.304 327.215 331.857 328.662 331.857 330.447V332.354C331.857 334.139 333.304 335.586 335.089 335.586H470.262C472.047 335.586 473.494 334.139 473.494 332.354V330.447C473.494 328.662 472.047 327.215 470.262 327.215Z" fill="#CCA4FF"/>
<path d="M470.262 344.717H335.089C333.304 344.717 331.857 346.164 331.857 347.949V349.856C331.857 351.641 333.304 353.088 335.089 353.088H470.262C472.047 353.088 473.494 351.641 473.494 349.856V347.949C473.494 346.164 472.047 344.717 470.262 344.717Z" fill="#CCA4FF"/>
<path d="M410.104 362.219H335.089C333.304 362.219 331.857 363.666 331.857 365.451V367.358C331.857 369.143 333.304 370.59 335.089 370.59H410.104C411.889 370.59 413.336 369.143 413.336 367.358V365.451C413.336 363.666 411.889 362.219 410.104 362.219Z" fill="#CCA4FF"/>
<path d="M431.24 558.553H247.705C244.135 558.553 241.241 561.447 241.241 565.017V581.006C241.241 584.576 244.135 587.47 247.705 587.47H431.24C434.81 587.47 437.704 584.576 437.704 581.006V565.017C437.704 561.447 434.81 558.553 431.24 558.553Z" fill="#F4ECFF"/>
<path d="M486.068 558.553H450.261C446.691 558.553 443.797 561.447 443.797 565.017V581.006C443.797 584.576 446.691 587.47 450.261 587.47H486.068C489.638 587.47 492.532 584.576 492.532 581.006V565.017C492.532 561.447 489.638 558.553 486.068 558.553Z" fill="#BE6FFB"/>
<path fill-rule="evenodd" clip-rule="evenodd" d="M307.502 725.353V725.371C307.519 725.726 307.271 726.081 306.792 726.17L286.328 730.074L284.145 730.483L269.29 733.305L267.711 733.606L261.925 734.707L261.907 734.671C261.872 734.494 261.765 734.21 261.641 733.784C261.321 732.772 260.771 731.033 260.008 728.672C259.866 728.229 259.724 727.749 259.564 727.27C253.672 708.901 237.77 659.792 221.938 610.985V610.967C224.263 611.127 226.535 611.216 228.807 611.234C238.409 611.34 247.602 610.329 256.938 608.447C258.606 616.665 260.239 624.846 261.872 632.833C261.978 633.436 262.102 634.04 262.226 634.643C271.651 681.25 279.673 720.899 280.152 722.585L289.097 723.259L290.89 723.383H290.907L302.302 724.235H302.319L306.792 724.573C307.058 724.626 307.235 724.75 307.36 724.928C307.466 725.07 307.502 725.194 307.502 725.353Z" fill="#C79C89"/>
<path fill-rule="evenodd" clip-rule="evenodd" d="M188.235 612.582C183 619.504 177.48 626.284 171.73 632.904C171.144 633.56 170.576 634.217 169.99 634.874C144.433 663.892 114.457 689.715 84.0544 710.605L87.1781 719.035L91.0294 729.382L92.5025 733.34C92.5557 733.553 92.5202 733.748 92.4138 733.89C92.1298 734.369 91.2956 734.511 90.8697 733.979L60.0059 698.802C60.0059 698.784 60.0059 698.784 60.0236 698.767C60.3608 698.536 60.6803 698.305 61.0175 698.057C82.9363 682.669 106.204 660.91 122.372 641.103C133.642 627.313 142.587 614.038 151.319 599.307C153.715 600.602 156.094 601.791 158.49 602.909C168.109 607.364 177.87 610.381 188.235 612.582Z" fill="#C79C89"/>
<path fill-rule="evenodd" clip-rule="evenodd" d="M265.759 484.432H167.155C165.646 486.757 132.39 546.23 129.213 551.235C132.586 555.335 129.852 554.59 128.273 552.762C122.718 561.565 89.5902 645.225 74.3438 666.811C75.3731 668.018 124.067 700.048 128.273 700.686C142.883 692.004 192.853 620.037 202.871 588.281C209.116 619.463 213.386 696.651 221.544 709.299C228.14 711.18 292.571 700.212 292.571 700.212C292.363 700.221 266.451 488.372 265.759 484.432Z" fill="black"/>
<path fill-rule="evenodd" clip-rule="evenodd" d="M171.836 545.191C165.003 558.484 147.468 562.495 134.263 556.905C131.992 555.928 129.862 554.597 128.282 552.769C128.584 552.272 128.903 551.758 129.223 551.243C132.595 555.343 138.612 556.958 143.688 557.561C150.662 558.413 157.957 557.082 163.761 553C166.724 550.924 169.138 548.173 170.806 544.96C170.913 544.747 171.073 544.587 171.232 544.499C171.534 544.321 171.871 544.339 171.942 544.587C171.996 544.712 171.978 544.925 171.836 545.191Z" fill="black"/>
<path fill-rule="evenodd" clip-rule="evenodd" d="M93.0211 735.803C93.3494 735.512 93.3885 735.013 93.0974 734.678L93.0264 734.596L88.6622 729.579L91.028 729.387L87.1767 719.031L79.9799 719.615L62.711 699.774L61.3977 698.268C61.1066 697.939 60.6008 697.907 60.2724 698.191C59.9441 698.481 59.9051 698.988 60.1961 699.315L79.5628 721.56L86.6868 729.74L91.8959 735.727C92.1869 736.062 92.6928 736.085 93.0211 735.803Z" fill="black"/>
<path fill-rule="evenodd" clip-rule="evenodd" d="M244.168 629.673C244.133 629.709 244.133 629.762 244.168 629.797C245.677 631.466 247.523 632.868 249.599 633.844C251.693 634.802 253.983 635.352 256.308 635.441C258.296 635.53 260.337 635.335 262.218 634.643C262.094 634.039 261.969 633.436 261.863 632.832C260.07 633.436 258.242 633.95 256.308 634.021C252.031 634.199 247.611 632.655 244.292 629.673C244.257 629.638 244.204 629.638 244.168 629.673Z" fill="#672448"/>
<path fill-rule="evenodd" clip-rule="evenodd" d="M153.014 625.411C154.025 627.434 155.428 629.262 157.149 630.789C158.906 632.279 160.965 633.415 163.183 634.143C165.349 634.835 167.691 635.226 169.981 634.871C170.567 634.214 171.135 633.557 171.72 632.901C171.117 632.989 170.513 633.06 169.91 633.096C167.816 633.22 165.668 633.256 163.556 632.776C159.385 631.783 155.57 629.085 153.174 625.322C153.156 625.287 153.085 625.269 153.049 625.305C153.014 625.322 152.996 625.375 153.014 625.411Z" fill="#672448"/>
<path fill-rule="evenodd" clip-rule="evenodd" d="M171.836 545.191C165.003 558.484 147.468 562.495 134.263 556.905C131.992 555.928 129.862 554.597 128.282 552.769C128.584 552.272 128.903 551.758 129.223 551.243C132.595 555.343 138.612 556.958 143.688 557.561C150.662 558.413 157.957 557.082 163.761 553C166.724 550.924 169.138 548.173 170.806 544.96C170.913 544.747 171.073 544.587 171.232 544.499C171.534 544.321 171.871 544.339 171.942 544.587C171.996 544.712 171.978 544.925 171.836 545.191Z" fill="#8A63BC"/>
<path fill-rule="evenodd" clip-rule="evenodd" d="M308.771 725.933C308.689 725.501 308.279 725.214 307.843 725.294L307.736 725.311L301.196 726.513L302.36 724.12L291.245 722.656L288.197 728.909L262.328 733.664L260.361 734.026C259.93 734.109 259.646 734.528 259.722 734.954C259.806 735.385 260.221 735.676 260.651 735.595L289.658 730.258L300.326 728.297L308.132 726.861C308.57 726.783 308.847 726.359 308.771 725.933Z" fill="black"/>
<path fill-rule="evenodd" clip-rule="evenodd" d="M227.274 423.538L227.115 430.122L226.777 443.93L225.819 481.911C225.588 492.08 225.322 502.232 225.003 512.384C224.878 515.313 224.754 518.223 224.63 521.152C224.594 521.986 224.559 522.82 224.523 523.654C224.381 527.452 224.222 531.268 224.044 535.066C223.991 536.344 223.938 537.622 223.867 538.9C223.813 540.213 223.743 541.526 223.672 542.84C223.672 542.858 223.654 542.875 223.636 542.875C223.601 542.875 223.583 542.858 223.583 542.84C223.583 541.509 223.601 540.178 223.636 538.847C223.654 537.64 223.654 536.451 223.689 535.244C223.707 533.327 223.743 531.392 223.778 529.458C223.814 527.523 223.849 525.589 223.884 523.654C223.902 522.82 223.92 521.986 223.938 521.152C224.009 518.206 224.062 515.277 224.115 512.349C224.399 502.197 224.736 492.045 225.109 481.893L226.44 444.196L226.955 429.696V429.643L227.168 423.502L227.257 420.982C227.257 420.946 227.292 420.929 227.31 420.929C227.328 420.929 227.345 420.946 227.345 420.982L227.274 423.538ZM221.701 435.5C221.808 434.027 221.968 432.571 222.269 431.116C222.837 428.294 223.849 425.561 225.198 423.023C225.269 422.881 225.358 422.739 225.429 422.597C225.553 422.384 225.713 422.242 225.89 422.171C226.476 421.905 227.221 422.313 226.795 423.094C226.742 423.2 226.689 423.289 226.635 423.396C226.351 423.91 226.085 424.443 225.837 424.975C224.825 427.14 224.097 429.43 223.672 431.808C223.157 434.595 223.476 437.647 222.092 440.203C221.595 441.126 220.175 440.735 220.725 439.706C221.435 438.41 221.577 436.955 221.701 435.5ZM219.927 442.049L219.235 442.741C219.164 442.83 219.075 442.918 218.968 442.972C218.897 443.025 218.791 443.078 218.684 443.096C218.578 443.131 218.489 443.131 218.383 443.096C218.294 443.096 218.205 443.043 218.134 442.989C218.081 442.936 218.045 442.883 217.992 442.847C217.939 442.723 217.903 442.599 217.903 442.457C217.903 442.386 217.921 442.333 217.921 442.262C217.957 442.102 218.028 441.96 218.134 441.854C218.365 441.605 218.596 441.374 218.826 441.144C218.897 441.055 218.986 440.984 219.093 440.931C219.181 440.86 219.27 440.806 219.376 440.789C219.483 440.771 219.589 440.771 219.678 440.789C219.785 440.806 219.856 440.842 219.944 440.913L220.069 441.055C220.14 441.161 220.175 441.286 220.175 441.428C220.157 441.499 220.157 441.57 220.14 441.641C220.104 441.783 220.033 441.925 219.927 442.049ZM212.064 436.298C211.532 437.701 210.893 439.049 210.148 440.345C210.006 440.593 209.864 440.842 209.722 441.073C208.994 442.297 208.16 443.469 207.255 444.587C205.48 446.788 203.368 448.651 201.185 450.426C200.883 450.674 200.564 450.923 200.262 451.171C198.576 452.538 196.89 453.94 195.452 455.537C194.778 456.265 194.157 457.046 193.624 457.88C193.553 458.004 193.429 458.235 193.287 458.466C193.109 458.803 192.932 459.176 192.825 459.371C192.808 459.406 192.79 459.46 192.772 459.477C192.417 460.276 192.08 461.092 191.743 461.962C191.725 462.015 191.707 462.069 191.69 462.122C191.459 462.885 191.246 463.666 190.909 464.447C190.838 464.642 190.731 464.82 190.625 464.997C190.625 465.015 190.625 465.033 190.607 465.033C190.518 465.21 190.412 465.387 190.287 465.547C190.075 465.867 189.844 466.186 189.649 466.523C188.033 469.221 186.88 472.203 185.655 475.149C185.07 476.622 184.466 478.095 183.827 479.568C183.135 480.988 182.975 482.479 183.082 484.023C183.295 486.543 184.253 488.992 184.732 491.584C184.857 492.169 184.928 492.773 184.981 493.376C185.602 496.358 186.188 499.375 186.756 502.374L187.128 504.344C187.128 504.362 187.111 504.38 187.093 504.398C187.057 504.398 187.04 504.38 187.04 504.362C186.188 501.061 185.389 497.724 184.626 494.405C184.555 494.086 184.484 493.784 184.413 493.465L184.395 493.429C184.093 490.306 182.62 487.395 182.23 484.094C182.035 482.479 182.301 480.704 183.029 479.231C183.65 477.776 184.253 476.285 184.839 474.812C186.063 471.866 187.288 468.884 188.992 466.115C189.205 465.778 189.453 465.441 189.684 465.104C189.897 464.802 190.075 464.482 190.234 464.145C190.554 463.453 190.767 462.69 191.015 461.927C191.264 461.163 191.548 460.383 191.903 459.655C192.24 458.909 192.648 458.2 193.092 457.525C193.589 456.78 194.139 456.07 194.742 455.413C194.973 455.147 195.239 454.881 195.488 454.632V454.614C196.872 453.212 198.416 451.988 199.942 450.763C200.564 450.266 201.185 449.769 201.806 449.272C203.652 447.764 205.427 446.184 206.935 444.338C207.681 443.451 208.39 442.51 209.029 441.534C209.207 441.25 209.384 440.984 209.562 440.7C210.449 439.262 211.212 437.772 211.834 436.21C212.029 435.713 212.224 435.198 212.402 434.683C213.324 432.216 214.052 429.643 214.088 426.999C214.088 426.963 214.105 426.945 214.123 426.945C214.159 426.945 214.176 426.963 214.176 426.999C214.159 429.732 213.449 432.394 212.544 434.967C212.402 435.411 212.224 435.855 212.064 436.298ZM196.801 527.026C195.701 526.121 194.405 524.684 193.038 523.672C192.417 523.193 191.761 522.82 191.122 522.625C191.264 522.98 191.423 523.335 191.619 523.672C192.346 524.968 193.393 526.245 194.121 527.452C195.576 529.866 197.085 532.315 198.026 534.977C198.452 536.113 197.174 537.107 196.198 536.433C193.695 534.729 190.554 530.594 188.424 528.464C189.684 531.641 195.754 537.675 193.447 540.746C192.506 542.041 186.969 534.427 183.206 530.345C184.608 534.552 187.519 543.319 185.496 543.674C183.667 543.621 180.153 537.728 178.609 533.345C178.095 531.872 174.58 528.854 172.486 527.807C172.096 527.612 171.368 526.086 170.516 523.672C170.445 523.494 170.392 523.299 170.321 523.104C175.858 521.826 189.294 516.484 189.649 515.295C190.838 516.307 192.4 517.318 194.423 518.756C196.233 520.034 198.008 521.862 199.392 523.672C199.534 523.867 199.676 524.045 199.818 524.24C200.83 525.66 203.616 528.677 201.611 529.795C200.351 530.487 197.6 527.683 196.801 527.026ZM165.813 517.3C165.795 517.3 165.76 517.283 165.76 517.265C165.742 517.176 165.724 517.07 165.706 516.981C165.156 514.354 164.766 511.71 164.304 509.083C163.843 506.35 163.381 503.599 162.867 500.884C162.636 499.552 162.192 498.204 161.837 496.89C161.447 495.595 160.773 494.388 160.222 493.092C159.921 492.4 159.69 491.672 159.53 490.945V490.927C159.37 490.288 159.264 489.631 159.157 489.01C158.998 488.371 158.909 487.537 159.015 486.863C159.122 486.188 159.033 485.531 158.944 484.822C158.944 484.804 158.962 484.786 158.98 484.786C158.998 484.768 159.033 484.786 159.033 484.804C159.282 485.443 159.566 486.153 159.566 486.863C159.619 487.59 159.708 488.14 159.938 488.833C160.027 489.134 160.116 489.418 160.169 489.72V489.738C160.453 490.767 160.648 491.797 160.985 492.79C161.429 494.068 162.05 495.346 162.388 496.73C162.707 498.097 163.027 499.428 163.275 500.813C163.736 503.546 164.127 506.297 164.553 509.03C164.979 511.781 165.334 514.532 165.848 517.247C165.848 517.247 165.848 517.265 165.831 517.283L165.813 517.3ZM214.176 401.761L208.887 401.459C208.834 401.441 208.781 401.424 208.71 401.424C208.621 401.388 208.532 401.37 208.426 401.37C208.408 401.353 208.39 401.353 208.355 401.37C207.876 401.335 207.397 401.353 206.935 401.388C206.846 401.388 206.758 401.388 206.669 401.406C205.906 401.459 205.143 401.583 204.415 401.761C204.042 401.85 203.687 401.956 203.332 402.063C194.813 403.607 187.608 405.115 178.254 416.989C160.311 415.356 150.017 421.727 148.899 416.563C147.745 411.274 164.198 402.169 183.987 398.974C195.967 397.04 203.652 396.649 208.674 397.732C208.745 397.732 208.958 397.785 209.029 397.803L209.083 396.383C209.012 396.365 208.799 396.33 208.728 396.33C199.907 395.159 189.862 395.567 179.514 397.821C162.121 401.601 147.71 409.747 139.546 419.278C133.849 425.934 146.627 432.944 148.136 439.937C149.804 447.604 153.07 453.638 158.856 457.348C157.684 461.767 156.886 465.991 156.602 469.665C156.265 474.279 157.081 478.45 158.856 484.822C155.448 491.175 151.649 499.304 144.87 509.03C138.092 518.756 145.704 530.327 150.088 532.227C151.916 533.007 153.301 534.587 155.129 535.403C156.052 535.812 156.992 536.22 157.933 536.593C168.12 540.781 179.177 543.301 190.394 544.757C190.625 544.81 190.855 544.828 191.104 544.845C195.594 545.431 200.12 545.839 204.61 546.123C211.443 546.567 218.223 546.709 224.79 546.709L225.02 539.131L225.18 534.569L225.517 523.654L225.588 521.152L228.055 442.847L228.392 432.394L228.676 423.804L228.694 422.987L228.392 402.684C227.848 402.589 223.109 402.281 214.176 401.761Z" fill="#8A63BC"/>
<path fill-rule="evenodd" clip-rule="evenodd" d="M209.028 397.805L208.762 401.39C208.691 401.39 208.602 401.372 208.531 401.372H208.425C208.407 401.354 208.389 401.354 208.354 401.372C207.875 401.337 207.396 401.354 206.934 401.39C206.845 401.39 206.757 401.39 206.668 401.408C205.905 401.461 205.142 401.585 204.414 401.763C204.041 401.851 203.686 401.958 203.331 402.064C194.812 403.608 187.606 405.117 178.253 416.991C160.31 415.358 150.016 421.729 148.898 416.565C147.744 411.276 164.197 402.171 183.986 398.976C195.966 397.042 203.651 396.651 208.673 397.734C208.744 397.734 208.957 397.787 209.028 397.805Z" fill="#8A63BC"/>
<path fill-rule="evenodd" clip-rule="evenodd" d="M214.176 427.001C214.158 429.734 213.449 432.396 212.543 434.969L212.401 434.685C213.324 432.218 214.052 429.645 214.087 427.001C214.087 426.965 214.105 426.947 214.123 426.947C214.158 426.947 214.176 426.965 214.176 427.001Z" fill="#8A63BC"/>
<path fill-rule="evenodd" clip-rule="evenodd" d="M220.175 441.43C220.157 441.501 220.157 441.572 220.14 441.643C220.104 441.785 220.033 441.927 219.927 442.051L219.234 442.743C219.163 442.832 219.075 442.92 218.968 442.974C218.897 443.027 218.791 443.08 218.684 443.098C218.578 443.133 218.489 443.133 218.383 443.098C218.294 443.098 218.205 443.045 218.134 442.991C218.081 442.938 218.045 442.885 217.992 442.849C217.939 442.725 217.903 442.601 217.903 442.459C217.903 442.388 217.921 442.335 217.921 442.264C217.957 442.104 218.028 441.962 218.134 441.856C218.365 441.607 218.595 441.376 218.826 441.146C218.897 441.057 218.986 440.986 219.092 440.933C219.181 440.862 219.27 440.808 219.376 440.791C219.483 440.773 219.589 440.773 219.678 440.791C219.785 440.808 219.856 440.844 219.944 440.915L220.069 441.057C220.14 441.163 220.175 441.288 220.175 441.43Z" fill="#8A63BC"/>
<path fill-rule="evenodd" clip-rule="evenodd" d="M227.344 420.983L227.273 423.539L227.113 430.123L226.776 443.931C226.669 444.02 226.563 444.109 226.438 444.197L226.953 429.697V429.644L227.166 423.503L227.255 420.983C227.255 420.947 227.29 420.93 227.308 420.93C227.326 420.93 227.344 420.947 227.344 420.983Z" fill="#8A63BC"/>
<path fill-rule="evenodd" clip-rule="evenodd" d="M209.028 397.805L208.886 401.461C208.833 401.443 208.78 401.425 208.709 401.425C208.638 401.39 208.567 401.372 208.531 401.372H208.425C208.407 401.354 208.389 401.354 208.354 401.372C207.875 401.337 207.396 401.354 206.934 401.39C206.845 401.39 206.757 401.39 206.668 401.408C205.905 401.461 205.142 401.585 204.414 401.763C204.041 401.851 203.686 401.958 203.331 402.064C194.812 403.608 187.606 405.117 178.253 416.991C160.31 415.358 150.016 421.729 148.898 416.565C147.744 411.276 164.197 402.171 183.986 398.976C195.966 397.042 203.651 396.651 208.673 397.734C208.744 397.734 208.957 397.787 209.028 397.805Z" fill="black"/>
<path fill-rule="evenodd" clip-rule="evenodd" d="M364.679 446.594C364.679 446.594 364.679 446.611 364.662 446.611L364.644 446.594C364.608 446.594 364.591 446.576 364.608 446.558C364.573 446.274 364.537 445.99 364.484 445.706C364.342 444.854 364.129 444.02 363.845 443.222C363.668 442.689 363.455 442.174 363.206 441.677C362.958 441.181 362.674 440.684 362.372 440.222C361.786 439.282 361.005 438.465 360.296 437.649C360.118 437.436 359.941 437.223 359.745 437.01C359.55 436.797 359.355 436.602 359.16 436.406C358.769 435.998 358.361 435.59 357.953 435.164C357.935 435.146 357.953 435.128 357.971 435.093C357.988 435.075 358.006 435.075 358.006 435.093C359.177 435.43 360.171 436.105 361.076 436.886C361.946 437.702 362.585 438.731 363.135 439.796C364.236 441.873 364.786 444.233 364.697 446.558C364.697 446.576 364.679 446.594 364.679 446.594ZM386.829 436.318C385.941 435.128 379.02 438.146 373.003 441.056C376.89 435.892 382.321 428.242 382.09 425.97C382.09 425.758 382.019 425.616 381.895 425.491C381.061 424.764 378.168 426.556 374.884 429.094C373.056 430.514 371.086 432.2 369.258 433.762C369.17 433.673 369.081 433.567 368.957 433.478C371.672 429.023 375.31 422.598 376.428 419.031C376.819 417.753 376.854 416.848 376.428 416.529C376.162 416.351 375.736 416.387 375.222 416.617C372.346 417.877 366.099 424.586 362.141 429.041C362.674 427.053 363.171 424.941 363.579 423.007C364.52 418.516 364.981 414.63 363.916 414.204C362.212 413.423 356.959 425.012 353.764 431.543L353.746 431.561C353.658 431.756 353.551 431.952 353.463 432.147C353.463 431.987 353.463 431.827 353.445 431.668C353.196 426.095 350.818 420.469 349.221 420.469C345.795 420.504 345.44 428.739 345.6 435.022C346.008 434.685 346.718 434.028 347.109 434.028C348.6 434.028 366.827 451.137 366.827 453.125C370.625 450.942 388.675 438.927 386.829 436.318ZM355.841 460.419C355.858 460.419 355.876 460.419 355.894 460.402C356.036 460.313 356.16 460.224 356.302 460.135C356.142 460.242 356 460.331 355.841 460.419ZM248.749 445.866L244.916 430.283L244.774 430.408L244.756 430.425L248.341 445.618L249.885 452.22L249.903 452.238C250.08 452.397 250.24 452.539 250.435 452.681L248.749 445.866ZM275.762 467.377C275.407 467.128 275.034 466.88 274.679 466.649C273.224 463.188 271.644 459.798 269.976 456.408L264.367 444.73L264.35 444.695L264.296 444.57H264.279C264.261 444.57 264.261 444.588 264.261 444.588L269.656 456.568C271.129 459.869 272.656 463.17 274.324 466.4C274.413 466.596 274.502 466.791 274.608 466.968C274.679 467.004 274.75 467.039 274.839 467.057C275.14 467.199 275.46 467.306 275.779 467.43C275.815 467.465 275.868 467.483 275.904 467.465C275.868 467.43 275.815 467.394 275.762 467.377ZM258.386 434.01L258.404 434.046C258.511 434.312 258.617 434.561 258.724 434.809C258.83 434.454 258.759 434.099 258.386 434.01ZM261.989 435.04C261.9 434.88 261.705 434.756 261.51 434.756H260.356C259.895 434.756 259.522 435.111 259.398 435.537C259.345 435.714 259.362 435.963 259.469 436.122C259.558 436.282 259.771 436.406 259.948 436.406H261.102C261.563 436.406 261.954 436.051 262.078 435.608C262.113 435.43 262.096 435.199 261.989 435.04Z" fill="#C79C89"/>
<path fill-rule="evenodd" clip-rule="evenodd" d="M364.701 446.553C364.692 446.583 364.683 446.611 364.653 446.602C364.605 446.602 364.594 446.585 364.603 446.554C364.37 444.277 363.598 442.091 362.379 440.215C361.784 439.281 361.009 438.468 360.301 437.645C359.591 436.773 358.78 436.03 357.953 435.169C357.942 435.151 357.953 435.121 357.962 435.093C357.979 435.082 357.999 435.071 358.009 435.091C359.17 435.428 360.164 436.101 361.076 436.891C361.948 437.7 362.594 438.729 363.133 439.789C364.243 441.871 364.786 444.228 364.701 446.553Z" fill="#C79C89"/>
<path fill-rule="evenodd" clip-rule="evenodd" d="M362.958 455.697C362.461 456.105 361.467 456.886 360.189 457.756C360.1 457.809 360.029 457.863 359.94 457.916C359.923 457.951 359.887 457.969 359.869 457.969C358.929 458.608 357.882 459.282 356.781 459.85C356.941 459.744 357.101 459.655 357.26 459.549C357.314 459.513 357.385 459.478 357.438 459.442C358.059 459.052 358.663 458.661 359.266 458.253C359.621 458.022 359.976 457.792 360.313 457.543C361.218 456.94 362.088 456.318 362.958 455.697Z" fill="#C79C89"/>
<path fill-rule="evenodd" clip-rule="evenodd" d="M353.454 432.149C353.47 431.994 353.456 431.829 353.441 431.666L353.472 431.673C353.557 431.604 353.642 431.583 353.748 431.551C353.656 431.746 353.546 431.954 353.454 432.149Z" fill="#C79C89"/>
<path fill-rule="evenodd" clip-rule="evenodd" d="M364.654 446.6C364.606 446.6 364.595 446.583 364.604 446.554C364.371 444.275 363.599 442.089 362.38 440.213C361.786 439.279 361.01 438.466 360.302 437.645C359.592 436.772 358.779 436.028 357.954 435.169C357.943 435.149 357.954 435.119 357.961 435.091C357.98 435.08 358 435.069 358.011 435.089C359.171 435.428 360.165 436.099 361.076 436.889C361.949 437.698 362.593 438.727 363.134 439.787C364.244 441.869 364.787 444.226 364.702 446.551C364.693 446.581 364.684 446.609 364.654 446.6Z" fill="#672448"/>
<path fill-rule="evenodd" clip-rule="evenodd" d="M262.078 435.608C261.954 436.051 261.563 436.406 261.102 436.406H259.948C259.771 436.406 259.558 436.282 259.469 436.122C259.363 435.963 259.345 435.714 259.398 435.537C259.522 435.111 259.895 434.756 260.357 434.756H261.51C261.705 434.756 261.901 434.88 261.989 435.04C262.096 435.2 262.114 435.43 262.078 435.608Z" fill="#8A63BC"/>
<path fill-rule="evenodd" clip-rule="evenodd" d="M227.345 420.983L227.274 423.539L227.114 430.123C227.061 429.981 226.99 429.839 226.954 429.697V429.644L227.167 423.503L227.256 420.983C227.256 420.947 227.291 420.93 227.309 420.93C227.327 420.93 227.345 420.947 227.345 420.983Z" fill="#8A63BC"/>
<path fill-rule="evenodd" clip-rule="evenodd" d="M248.749 445.866C248.607 445.777 248.465 445.688 248.341 445.617L244.756 430.425L242.537 420.983C242.537 420.965 242.555 420.947 242.573 420.93C242.608 420.93 242.626 420.947 242.626 420.965L244.915 430.283L248.749 445.866Z" fill="#8A63BC"/>
<path fill-rule="evenodd" clip-rule="evenodd" d="M258.724 434.808C258.617 434.56 258.511 434.311 258.404 434.045L258.387 434.01C258.759 434.099 258.83 434.453 258.724 434.808Z" fill="#8A63BC"/>
<path fill-rule="evenodd" clip-rule="evenodd" d="M274.68 466.649C274.556 466.56 274.449 466.489 274.325 466.4C272.657 463.17 271.13 459.869 269.657 456.568L264.262 444.588C264.262 444.588 264.262 444.57 264.279 444.57H264.297L264.35 444.695L264.368 444.73L269.977 456.408C271.645 459.798 273.224 463.188 274.68 466.649Z" fill="#8A63BC"/>
<path fill-rule="evenodd" clip-rule="evenodd" d="M366.826 453.123C366.826 453.176 366.826 453.212 366.791 453.247C365.921 454.17 363.081 455.998 360.188 457.755C360.1 457.809 360.029 457.862 359.94 457.915C359.922 457.951 359.887 457.968 359.869 457.968C359.035 458.483 358.218 458.98 357.438 459.441C358.059 459.051 358.662 458.66 359.266 458.252C359.621 458.022 359.975 457.791 360.313 457.542C361.218 456.939 362.087 456.318 362.957 455.697C363.01 455.643 363.081 455.59 363.135 455.555C363.241 455.484 363.294 455.43 363.294 455.43C364.75 454.791 365.815 453.602 366.329 453.389C366.453 453.336 366.613 453.247 366.826 453.123Z" fill="#8A63BC"/>
<path fill-rule="evenodd" clip-rule="evenodd" d="M214.176 427.001C214.158 429.734 213.449 432.396 212.543 434.969L212.401 434.685C213.324 432.218 214.052 429.645 214.087 427.001C214.087 426.965 214.105 426.947 214.123 426.947C214.158 426.947 214.176 426.965 214.176 427.001Z" fill="#EDFBFB"/>
<path fill-rule="evenodd" clip-rule="evenodd" d="M220.175 441.43C220.157 441.501 220.157 441.572 220.14 441.643C220.104 441.785 220.033 441.927 219.927 442.051L219.234 442.743C219.163 442.832 219.075 442.92 218.968 442.974C218.897 443.027 218.791 443.08 218.684 443.098C218.578 443.133 218.489 443.133 218.383 443.098C218.294 443.098 218.205 443.045 218.134 442.991C218.081 442.938 218.045 442.885 217.992 442.849C217.939 442.725 217.903 442.601 217.903 442.459C217.903 442.388 217.921 442.335 217.921 442.264C217.957 442.104 218.028 441.962 218.134 441.856C218.365 441.607 218.595 441.376 218.826 441.146C218.897 441.057 218.986 440.986 219.092 440.933C219.181 440.862 219.27 440.808 219.376 440.791C219.483 440.773 219.589 440.773 219.678 440.791C219.785 440.808 219.856 440.844 219.944 440.915L220.069 441.057C220.14 441.163 220.175 441.288 220.175 441.43Z" fill="#EDFBFB"/>
<path fill-rule="evenodd" clip-rule="evenodd" d="M267.224 534.854C263.621 537.019 254.889 541.03 240.088 540.728C235.633 540.64 230.61 540.16 225.02 539.131L225.179 534.57L225.516 523.655L225.587 521.152L228.054 442.848L228.392 432.394L228.676 423.804L228.693 422.988L228.764 420.45C230.947 420.841 232.988 421.018 234.71 420.912C236.786 420.805 238.615 420.184 239.591 419.137L239.875 420.006L240.07 420.805L240.123 420.983V421.018L240.23 421.462L242.714 431.88L245.607 444.037L246.938 449.663L246.956 449.681L263.089 517.479L263.959 521.152L267.224 534.854Z" fill="#EDFBFB"/>
<path fill-rule="evenodd" clip-rule="evenodd" d="M227.344 420.983L227.273 423.539L227.113 430.123L226.776 443.931C226.669 444.02 226.563 444.109 226.438 444.197L226.953 429.697V429.644L227.166 423.503L227.255 420.983C227.255 420.947 227.29 420.93 227.308 420.93C227.326 420.93 227.344 420.947 227.344 420.983Z" fill="#EDFBFB"/>
<path fill-rule="evenodd" clip-rule="evenodd" d="M250.435 452.679C250.24 452.537 250.08 452.395 249.903 452.235L249.885 452.218L248.341 445.615L244.756 430.423L242.537 420.981C242.537 420.963 242.555 420.945 242.573 420.928C242.608 420.928 242.626 420.945 242.626 420.963L244.915 430.281L248.749 445.864L250.435 452.679Z" fill="#EDFBFB"/>
<path fill-rule="evenodd" clip-rule="evenodd" d="M165.831 517.284L165.814 517.302C165.796 517.302 165.76 517.284 165.76 517.266C165.743 517.178 165.725 517.071 165.707 516.982C165.743 517.089 165.778 517.178 165.831 517.284Z" fill="#8A63BC"/>
<path fill-rule="evenodd" clip-rule="evenodd" d="M201.61 529.795C200.35 530.487 197.599 527.683 196.8 527.026C195.7 526.121 194.404 524.684 193.038 523.672C192.417 523.193 191.76 522.82 191.121 522.625C191.263 522.98 191.423 523.335 191.618 523.672C192.346 524.968 193.393 526.245 194.12 527.452C195.576 529.866 197.084 532.315 198.025 534.977C198.451 536.113 197.173 537.107 196.197 536.433C193.694 534.729 190.553 530.594 188.423 528.464C189.683 531.641 195.753 537.675 193.446 540.746C192.505 542.041 186.968 534.427 183.205 530.345C184.607 534.552 187.518 543.319 185.495 543.674C183.667 543.621 180.153 537.728 178.609 533.345C178.094 531.872 174.58 528.854 172.486 527.807C172.095 527.612 171.367 526.086 170.516 523.672C170.445 523.495 170.391 523.299 170.32 523.104C175.858 521.826 189.293 516.484 189.648 515.295C190.837 516.307 192.399 517.318 194.422 518.756C196.232 520.034 198.007 521.862 199.392 523.672C199.534 523.867 199.676 524.045 199.818 524.24C200.829 525.66 203.616 528.677 201.61 529.795Z" fill="#8A63BC"/>
<path fill-rule="evenodd" clip-rule="evenodd" d="M187.128 504.345C187.128 504.363 187.11 504.381 187.092 504.398C187.074 504.381 187.074 504.363 187.074 504.345C186.95 503.688 186.826 503.032 186.755 502.375L187.128 504.345Z" fill="#8A63BC"/>
<path fill-rule="evenodd" clip-rule="evenodd" d="M214.176 427.001C214.158 429.734 213.449 432.396 212.543 434.969L212.401 434.685C213.324 432.218 214.052 429.645 214.087 427.001C214.087 426.965 214.105 426.947 214.123 426.947C214.158 426.947 214.176 426.965 214.176 427.001Z" fill="#8A63BC"/>
<path fill-rule="evenodd" clip-rule="evenodd" d="M220.175 441.43C220.157 441.501 220.157 441.572 220.14 441.643C220.104 441.785 220.033 441.927 219.927 442.051L219.234 442.743C219.163 442.832 219.075 442.92 218.968 442.974C218.897 443.027 218.791 443.08 218.684 443.098C218.578 443.133 218.489 443.133 218.383 443.098C218.294 443.098 218.205 443.045 218.134 442.991C218.081 442.938 218.045 442.885 217.992 442.849C217.939 442.725 217.903 442.601 217.903 442.459C217.903 442.388 217.921 442.335 217.921 442.264C217.957 442.104 218.028 441.962 218.134 441.856C218.365 441.607 218.595 441.376 218.826 441.146C218.897 441.057 218.986 440.986 219.092 440.933C219.181 440.862 219.27 440.808 219.376 440.791C219.483 440.773 219.589 440.773 219.678 440.791C219.785 440.808 219.856 440.844 219.944 440.915L220.069 441.057C220.14 441.163 220.175 441.288 220.175 441.43Z" fill="#8A63BC"/>
<path fill-rule="evenodd" clip-rule="evenodd" d="M193.056 458.84C193.038 458.857 193.038 458.875 193.02 458.893C192.949 459.052 192.878 459.212 192.825 459.372C192.932 459.177 193.109 458.804 193.287 458.467C193.198 458.591 193.127 458.715 193.056 458.84Z" fill="#8A63BC"/>
<path fill-rule="evenodd" clip-rule="evenodd" d="M227.344 420.983L227.273 423.539L227.113 430.123L226.776 443.931C226.669 444.02 226.563 444.109 226.438 444.197L226.953 429.697V429.644L227.166 423.503L227.255 420.983C227.255 420.947 227.29 420.93 227.308 420.93C227.326 420.93 227.344 420.947 227.344 420.983Z" fill="#8A63BC"/>
<path fill-rule="evenodd" clip-rule="evenodd" d="M193.286 458.467C193.108 458.804 192.931 459.177 192.824 459.372C192.877 459.212 192.948 459.052 193.019 458.893C193.037 458.875 193.037 458.857 193.055 458.84C193.126 458.715 193.197 458.591 193.286 458.467Z" fill="black"/>
<path fill-rule="evenodd" clip-rule="evenodd" d="M201.61 529.795C200.35 530.487 197.599 527.683 196.8 527.026C195.7 526.121 194.404 524.684 193.038 523.672C192.417 523.193 191.76 522.82 191.121 522.625C191.263 522.98 191.423 523.335 191.618 523.672C192.346 524.968 193.393 526.245 194.12 527.452C195.576 529.866 197.084 532.315 198.025 534.977C198.451 536.113 197.173 537.107 196.197 536.433C193.694 534.729 190.553 530.594 188.423 528.464C189.683 531.641 195.753 537.675 193.446 540.746C192.505 542.041 186.968 534.427 183.205 530.345C184.607 534.552 187.518 543.319 185.495 543.674C183.667 543.621 180.153 537.728 178.609 533.345C178.094 531.872 174.58 528.854 172.486 527.807C172.095 527.612 171.367 526.086 170.516 523.672C170.445 523.495 170.391 523.299 170.32 523.104C175.858 521.826 189.293 516.484 189.648 515.295C190.837 516.307 192.399 517.318 194.422 518.756C196.232 520.034 198.007 521.862 199.392 523.672C199.534 523.867 199.676 524.045 199.818 524.24C200.829 525.66 203.616 528.677 201.61 529.795Z" fill="#C79C89"/>
<path fill-rule="evenodd" clip-rule="evenodd" d="M212.543 434.968C212.401 435.411 212.223 435.855 212.063 436.299C211.531 437.701 210.892 439.05 210.147 440.345C210.005 440.594 209.863 440.842 209.721 441.073C208.993 442.297 208.159 443.469 207.254 444.587C205.479 446.788 203.367 448.651 201.184 450.426C200.882 450.675 200.563 450.923 200.261 451.172C198.575 452.538 196.889 453.94 195.451 455.538C194.777 456.265 194.156 457.046 193.623 457.88C193.552 458.004 193.428 458.235 193.286 458.466C193.197 458.59 193.126 458.714 193.055 458.839C193.037 458.856 193.037 458.874 193.02 458.892C192.949 459.052 192.878 459.211 192.825 459.371C192.807 459.407 192.789 459.46 192.771 459.478C192.416 460.276 192.079 461.093 191.742 461.962C191.724 462.016 191.706 462.069 191.689 462.122C191.458 462.885 191.245 463.666 190.908 464.447C190.837 464.642 190.73 464.82 190.624 464.997C190.624 465.015 190.624 465.033 190.606 465.033C190.517 465.21 190.411 465.388 190.287 465.547C190.074 465.867 189.843 466.186 189.648 466.524C188.033 469.221 186.879 472.203 185.654 475.149C185.069 476.622 184.465 478.095 183.826 479.568C183.134 480.988 182.974 482.479 183.081 484.023C183.294 486.543 184.252 488.993 184.731 491.584C184.856 492.169 184.927 492.773 184.98 493.376C185.601 496.358 186.187 499.375 186.755 502.375C186.826 503.031 186.95 503.688 187.074 504.345C187.074 504.362 187.074 504.38 187.092 504.398C187.056 504.398 187.039 504.38 187.039 504.362C186.187 501.061 185.388 497.725 184.625 494.406C184.554 494.086 184.483 493.785 184.412 493.465L184.394 493.43C184.092 490.306 182.619 487.395 182.229 484.094C182.034 482.479 182.3 480.704 183.028 479.231C183.649 477.776 184.252 476.285 184.838 474.812C186.063 471.866 187.287 468.884 188.991 466.115C189.204 465.778 189.452 465.441 189.683 465.104C189.896 464.802 190.074 464.483 190.233 464.145C190.553 463.453 190.766 462.69 191.014 461.927C191.263 461.164 191.547 460.383 191.902 459.655C192.239 458.91 192.647 458.2 193.091 457.525C193.588 456.78 194.138 456.07 194.741 455.413C194.972 455.147 195.238 454.881 195.487 454.632V454.615C196.871 453.213 198.415 451.988 199.941 450.763C200.563 450.266 201.184 449.769 201.805 449.272C203.651 447.764 205.426 446.184 206.934 444.339C207.68 443.451 208.39 442.51 209.028 441.534C209.206 441.25 209.383 440.984 209.561 440.7C210.448 439.263 211.211 437.772 211.833 436.21C212.028 435.713 212.223 435.198 212.401 434.684L212.543 434.968Z" fill="black"/>
<path fill-rule="evenodd" clip-rule="evenodd" d="M169.947 429.573C167.729 434.223 165.706 438.961 163.878 443.771C162.972 446.185 162.192 448.616 161.34 451.048C160.506 453.462 159.742 455.911 158.997 458.396C158.979 458.413 158.961 458.431 158.908 458.378C158.997 457.508 159.121 456.639 159.316 455.769C159.299 455.733 159.299 455.68 159.334 455.645C159.316 455.627 159.316 455.609 159.352 455.574C159.636 453.959 160.062 452.361 160.506 450.782C161.233 448.297 162.227 445.901 163.221 443.505C164.73 439.902 166.362 436.353 168.155 432.856C168.119 432.945 168.066 433.034 168.031 433.14C168.151 432.881 168.277 432.625 168.407 432.37C168.471 432.24 168.538 432.114 168.604 431.987C168.65 431.9 168.702 431.814 168.739 431.724C168.78 431.626 168.828 431.537 168.879 431.445C168.92 431.374 168.955 431.3 168.989 431.223C169.042 431.117 169.113 431.01 169.167 430.886C169.238 430.78 169.291 430.655 169.344 430.549C169.61 430.105 169.841 429.662 169.93 429.52C169.947 429.537 169.965 429.555 169.947 429.573Z" fill="black"/>
<path fill-rule="evenodd" clip-rule="evenodd" d="M265.894 516.219C266.071 517.018 266.267 517.816 266.444 518.615C266.639 519.467 266.835 520.301 267.03 521.153C268.467 527.311 269.87 533.47 271.201 539.646C271.201 539.664 271.183 539.682 271.165 539.682C271.147 539.7 271.112 539.682 271.112 539.664C270.154 536.079 269.231 532.494 268.325 528.909C268.308 528.891 268.308 528.873 268.308 528.838C267.651 526.282 266.994 523.726 266.373 521.153C265.983 519.609 265.592 518.065 265.202 516.521C264.669 514.373 264.137 512.226 263.587 510.078C261.191 500.192 258.83 490.307 256.523 480.403L249.903 452.237L249.885 452.22L248.341 445.617L244.756 430.425L242.538 420.983C242.538 420.965 242.555 420.948 242.573 420.93C242.609 420.93 242.626 420.948 242.626 420.965L244.916 430.283L248.749 445.866L250.435 452.681L257.215 480.226C259.664 490.094 262.078 499.979 264.439 509.883C264.918 511.995 265.397 514.107 265.894 516.219ZM247.968 421.356C250.134 421.391 251.607 422.953 252.565 424.817C252.973 425.598 253.275 426.432 253.524 427.213C254.251 429.609 255.05 433.744 258.209 433.957C258.28 433.957 258.333 433.975 258.387 434.01C258.759 434.099 258.83 434.454 258.724 434.809C258.617 435.235 258.245 435.625 257.801 435.59C254.588 435.377 253.169 432.04 252.388 429.36C252.033 428.153 251.713 426.946 251.145 425.828C251.039 425.598 250.915 425.367 250.773 425.154C250.205 424.249 249.388 423.326 248.323 423.06C248.057 422.989 247.773 422.971 247.472 422.989C246.353 423.095 246.549 421.462 247.472 421.373C247.649 421.356 247.809 421.356 247.968 421.356ZM260.357 434.755H261.51C261.705 434.755 261.901 434.88 261.989 435.039C262.096 435.199 262.114 435.43 262.078 435.607C261.954 436.051 261.563 436.406 261.102 436.406H259.948C259.771 436.406 259.558 436.282 259.469 436.122C259.363 435.962 259.345 435.714 259.398 435.536C259.522 435.11 259.895 434.755 260.357 434.755ZM345.6 435.022C345.547 435.093 345.494 435.128 345.441 435.164C342.956 436.903 340.063 438.252 337.401 439.689C335.129 440.914 332.715 441.961 330.16 442.156C328.03 442.316 325.865 442.742 323.753 442.263C321.818 441.819 320.079 441.34 318.109 441.89C311.968 443.576 307.46 441.89 301.23 440.985C290.972 439.512 277.767 422.687 268.751 418.268C263.658 415.765 260.303 410.778 254.908 408.719C252.743 407.885 250.4 407.548 248.075 407.406C247.667 407.388 247.259 407.37 246.868 407.353C245.164 405.347 242.91 403.767 240.337 402.72C240.301 402.703 240.284 402.703 240.248 402.685C240.248 402.703 228.393 402.667 228.393 402.685C228.428 413.63 228.428 419.114 228.393 419.138L239.875 420.007L240.071 420.806L240.124 420.983V421.019L240.23 421.462L242.715 431.88L245.608 444.038L246.939 449.664L246.957 449.682L263.09 517.479L263.959 521.153L267.225 534.854L269.124 542.841C273.188 542.025 277.217 541.048 281.175 539.895C287.298 538.155 293.297 535.99 299.118 533.328C299.775 533.044 300.432 532.707 300.875 532.139C301.035 531.926 301.195 531.713 301.319 531.482C306.413 523.141 295.356 511.675 290.99 504.523C288.363 500.192 284.831 496.306 282.577 491.762C279.595 485.817 278.531 479.392 277.199 472.967C276.809 471.103 276.348 469.258 275.78 467.43C275.46 467.305 275.141 467.199 274.839 467.057C275.034 467.501 275.212 467.927 275.389 468.37C275.389 468.388 275.389 468.406 275.371 468.406H275.354C275.105 467.927 274.857 467.447 274.608 466.968C274.502 466.791 274.413 466.595 274.324 466.4C272.656 463.17 271.13 459.869 269.657 456.568L264.261 444.588C264.261 444.588 264.261 444.57 264.279 444.57H264.297L264.35 444.694L264.368 444.73L269.976 456.408C271.644 459.798 273.224 463.188 274.679 466.649C275.034 466.879 275.407 467.128 275.762 467.376C275.815 467.394 275.868 467.43 275.904 467.465C275.939 467.483 275.957 467.501 275.975 467.501C285.328 473.588 297.787 479.019 313.175 479.001C318.694 479.001 338.146 471.494 342.317 467.909C345.316 465.353 349.469 464.803 353.409 461.981C353.8 461.715 354.332 461.36 355.007 460.934C355.273 460.774 355.557 460.597 355.841 460.419C356.001 460.33 356.143 460.242 356.302 460.135C356.391 460.082 356.498 460.029 356.604 459.958C356.657 459.922 356.711 459.887 356.782 459.851C356.941 459.745 357.101 459.656 357.261 459.549C357.314 459.514 357.385 459.478 357.438 459.443C358.059 459.053 358.663 458.662 359.266 458.254C359.621 458.023 359.976 457.792 360.313 457.544C361.219 456.941 362.088 456.319 362.958 455.698C363.011 455.645 363.082 455.592 363.135 455.556C363.242 455.485 363.295 455.432 363.295 455.432C364.75 454.793 365.815 453.604 366.33 453.391C366.454 453.338 366.614 453.249 366.827 453.125C366.827 451.137 348.6 434.028 347.109 434.028C346.718 434.028 346.009 434.684 345.6 435.022Z" fill="#8A63BC"/>
<path fill-rule="evenodd" clip-rule="evenodd" d="M250.435 452.679C250.24 452.537 250.08 452.395 249.903 452.235L249.885 452.218L248.341 445.615L244.756 430.423L242.537 420.981C242.537 420.963 242.555 420.945 242.573 420.928C242.608 420.928 242.626 420.945 242.626 420.963L244.915 430.281L248.749 445.864L250.435 452.679Z" fill="#8A63BC"/>
<path fill-rule="evenodd" clip-rule="evenodd" d="M274.839 467.057C275.034 467.501 275.211 467.927 275.389 468.37C275.389 468.388 275.389 468.406 275.371 468.406H275.353C275.105 467.927 274.856 467.448 274.608 466.968C274.501 466.791 274.413 466.596 274.324 466.4C272.656 463.17 271.129 459.869 269.656 456.568L264.261 444.588C264.261 444.588 264.261 444.57 264.278 444.57C264.314 444.624 264.332 444.659 264.349 444.695L264.367 444.73L269.976 456.408C271.644 459.798 273.223 463.188 274.679 466.649C275.034 466.88 275.406 467.128 275.761 467.377C275.779 467.394 275.797 467.412 275.779 467.43C275.46 467.306 275.14 467.199 274.839 467.057Z" fill="#8A63BC"/>
<path fill-rule="evenodd" clip-rule="evenodd" d="M214.176 427.001C214.158 429.734 213.449 432.396 212.543 434.969L212.401 434.685C213.324 432.218 214.052 429.645 214.087 427.001C214.087 426.965 214.105 426.947 214.123 426.947C214.158 426.947 214.176 426.965 214.176 427.001Z" fill="#8A63BC"/>
<path fill-rule="evenodd" clip-rule="evenodd" d="M275.389 468.37C275.389 468.388 275.389 468.406 275.371 468.406H275.353C275.105 467.927 274.856 467.448 274.608 466.968C274.501 466.791 274.413 466.596 274.324 466.4C272.656 463.17 271.129 459.869 269.656 456.568L264.261 444.588C264.261 444.588 264.261 444.57 264.278 444.57H264.296L264.349 444.695L264.367 444.73L269.976 456.408C271.644 459.798 273.223 463.188 274.679 466.649C274.732 466.791 274.803 466.915 274.839 467.057C275.034 467.501 275.211 467.927 275.389 468.37Z" fill="black"/>
<path fill-rule="evenodd" clip-rule="evenodd" d="M226.777 443.932L225.818 481.912C225.588 492.082 225.321 502.234 225.002 512.386C224.878 515.314 224.753 518.225 224.629 521.153C224.594 521.987 224.558 522.822 224.523 523.656C224.381 527.454 224.221 531.27 224.043 535.068C223.99 536.346 223.937 537.623 223.866 538.901C223.813 540.215 223.742 541.528 223.671 542.841C223.671 542.859 223.653 542.877 223.635 542.877C223.6 542.877 223.582 542.859 223.582 542.841C223.582 541.51 223.6 540.179 223.635 538.848C223.653 537.641 223.653 536.452 223.689 535.245C223.706 533.328 223.742 531.394 223.777 529.459C223.813 527.525 223.848 525.59 223.884 523.656C223.901 522.822 223.919 521.987 223.937 521.153C224.008 518.207 224.061 515.279 224.114 512.35C224.398 502.198 224.736 492.047 225.108 481.895L226.439 444.198C226.564 444.109 226.67 444.02 226.777 443.932Z" fill="black"/>
<path fill-rule="evenodd" clip-rule="evenodd" d="M227.344 420.983L227.273 423.539L227.113 430.123L226.776 443.931C226.669 444.02 226.563 444.109 226.438 444.197L226.953 429.697V429.644L227.166 423.503L227.255 420.983C227.255 420.947 227.29 420.93 227.308 420.93C227.326 420.93 227.344 420.947 227.344 420.983Z" fill="black"/>
<path fill-rule="evenodd" clip-rule="evenodd" d="M187.128 504.345C187.128 504.363 187.11 504.381 187.092 504.398C187.074 504.381 187.074 504.363 187.074 504.345C186.95 503.688 186.826 503.032 186.755 502.375L187.128 504.345Z" fill="black"/>
<path fill-rule="evenodd" clip-rule="evenodd" d="M214.176 427.001C214.158 429.734 213.449 432.396 212.543 434.969L212.401 434.685C213.324 432.218 214.052 429.645 214.087 427.001C214.087 426.965 214.105 426.947 214.123 426.947C214.158 426.947 214.176 426.965 214.176 427.001Z" fill="black"/>
<path fill-rule="evenodd" clip-rule="evenodd" d="M165.848 517.248C165.848 517.248 165.848 517.266 165.831 517.283C165.777 517.177 165.742 517.088 165.706 516.982C165.156 514.355 164.766 511.71 164.304 509.084C163.843 506.35 163.381 503.6 162.867 500.884C162.636 499.553 162.192 498.204 161.837 496.891C161.447 495.595 160.772 494.388 160.222 493.093C159.92 492.401 159.69 491.673 159.53 490.945V490.927C159.37 490.289 159.264 489.632 159.157 489.011C158.998 488.372 158.909 487.538 159.015 486.863C159.122 486.189 159.033 485.532 158.944 484.822C158.944 484.804 158.962 484.787 158.98 484.787C158.998 484.769 159.033 484.787 159.033 484.804C159.282 485.443 159.566 486.153 159.566 486.863C159.619 487.591 159.708 488.141 159.938 488.833C160.027 489.135 160.116 489.419 160.169 489.721V489.738C160.453 490.768 160.648 491.797 160.985 492.791C161.429 494.069 162.05 495.347 162.387 496.731C162.707 498.098 163.026 499.429 163.275 500.813C163.736 503.546 164.127 506.297 164.553 509.03C164.979 511.781 165.334 514.532 165.848 517.248Z" fill="black"/>
<path fill-rule="evenodd" clip-rule="evenodd" d="M165.831 517.284L165.814 517.302C165.796 517.302 165.76 517.284 165.76 517.266C165.743 517.178 165.725 517.071 165.707 516.982C165.743 517.089 165.778 517.178 165.831 517.284Z" fill="black"/>
<path fill-rule="evenodd" clip-rule="evenodd" d="M208.354 401.373C207.875 401.337 207.396 401.355 206.935 401.391C207.361 401.355 207.911 401.302 208.354 401.373Z" fill="#8A63BC"/>
<path fill-rule="evenodd" clip-rule="evenodd" d="M271.201 539.645C271.201 539.663 271.183 539.681 271.165 539.681C271.148 539.699 271.112 539.681 271.112 539.663C270.154 536.078 269.231 532.493 268.326 528.908C268.308 528.89 268.308 528.872 268.308 528.837C267.651 526.281 266.995 523.725 266.373 521.152C265.983 519.608 265.593 518.064 265.202 516.52C264.67 514.372 264.137 512.225 263.587 510.077C261.191 500.191 258.831 490.306 256.523 480.402L249.903 452.236C250.081 452.396 250.241 452.538 250.436 452.68L257.216 480.225C259.665 490.093 262.078 499.979 264.439 509.882C264.918 511.994 265.397 514.106 265.894 516.218C266.072 517.017 266.267 517.815 266.444 518.614C266.64 519.466 266.835 520.3 267.03 521.152C268.468 527.31 269.87 533.469 271.201 539.645Z" fill="black"/>
<path fill-rule="evenodd" clip-rule="evenodd" d="M250.435 452.679C250.24 452.537 250.08 452.395 249.903 452.235L249.885 452.218L248.341 445.615L244.756 430.423L242.537 420.981C242.537 420.963 242.555 420.945 242.573 420.928C242.608 420.928 242.626 420.945 242.626 420.963L244.915 430.281L248.749 445.864L250.435 452.679Z" fill="black"/>
<path fill-rule="evenodd" clip-rule="evenodd" d="M258.723 434.808C258.617 435.234 258.244 435.625 257.801 435.589C254.588 435.376 253.168 432.04 252.387 429.36C252.032 428.153 251.713 426.946 251.145 425.828C251.039 425.597 250.914 425.367 250.772 425.154C250.204 424.248 249.388 423.325 248.323 423.059C248.057 422.988 247.773 422.971 247.471 422.988C246.353 423.095 246.548 421.462 247.471 421.373C247.649 421.355 247.808 421.355 247.968 421.355C250.133 421.391 251.607 422.953 252.565 424.816C252.973 425.597 253.275 426.431 253.523 427.212C254.251 429.608 255.05 433.744 258.209 433.957C258.28 433.957 258.333 433.974 258.386 434.01L258.404 434.045C258.51 434.312 258.617 434.56 258.723 434.808Z" fill="black"/>
<path fill-rule="evenodd" clip-rule="evenodd" d="M258.724 434.808C258.617 434.56 258.511 434.311 258.404 434.045L258.387 434.01C258.759 434.099 258.83 434.453 258.724 434.808Z" fill="black"/>
<path fill-rule="evenodd" clip-rule="evenodd" d="M226.795 423.096C226.742 423.202 226.689 423.291 226.635 423.398C226.351 423.912 226.085 424.445 225.837 424.977C224.825 427.143 224.097 429.432 223.671 431.81C223.157 434.597 223.476 437.649 222.092 440.205C221.595 441.128 220.175 440.738 220.725 439.708C221.435 438.413 221.577 436.957 221.701 435.502C221.808 434.029 221.968 432.573 222.269 431.118C222.837 428.296 223.849 425.563 225.198 423.025C225.269 422.883 225.357 422.741 225.428 422.599C225.553 422.386 225.712 422.244 225.89 422.173C226.476 421.907 227.221 422.315 226.795 423.096Z" fill="black"/>
<path fill-rule="evenodd" clip-rule="evenodd" d="M262.078 435.608C261.954 436.051 261.563 436.406 261.102 436.406H259.948C259.771 436.406 259.558 436.282 259.469 436.122C259.363 435.963 259.345 435.714 259.398 435.537C259.522 435.111 259.895 434.756 260.357 434.756H261.51C261.705 434.756 261.901 434.88 261.989 435.04C262.096 435.2 262.114 435.43 262.078 435.608Z" fill="black"/>
<path fill-rule="evenodd" clip-rule="evenodd" d="M220.175 441.43C220.157 441.501 220.157 441.572 220.14 441.643C220.104 441.785 220.033 441.927 219.927 442.051L219.234 442.743C219.163 442.832 219.075 442.92 218.968 442.974C218.897 443.027 218.791 443.08 218.684 443.098C218.578 443.133 218.489 443.133 218.383 443.098C218.294 443.098 218.205 443.045 218.134 442.991C218.081 442.938 218.045 442.885 217.992 442.849C217.939 442.725 217.903 442.601 217.903 442.459C217.903 442.388 217.921 442.335 217.921 442.264C217.957 442.104 218.028 441.962 218.134 441.856C218.365 441.607 218.595 441.376 218.826 441.146C218.897 441.057 218.986 440.986 219.092 440.933C219.181 440.862 219.27 440.808 219.376 440.791C219.483 440.773 219.589 440.773 219.678 440.791C219.785 440.808 219.856 440.844 219.944 440.915L220.069 441.057C220.14 441.163 220.175 441.288 220.175 441.43Z" fill="black"/>
<path fill-rule="evenodd" clip-rule="evenodd" d="M205.449 282.824C208.253 286.622 211.501 290.438 215.104 294.076C231.29 310.511 248.382 317.504 253.209 309.73C253.369 309.482 253.493 309.198 253.617 308.914C253.298 310.476 252.712 311.966 251.807 313.227C249.251 316.776 244.672 316.315 241.087 315.303C233.864 313.28 227.173 309.251 221.44 304.175C214.767 298.247 209.514 290.9 205.449 282.824Z" fill="#C79C89"/>
<path fill-rule="evenodd" clip-rule="evenodd" d="M271.863 289.747C268.402 288.238 264.994 286.587 261.64 284.795C262.9 285.203 264.142 285.594 265.402 285.984C276.654 289.321 300.508 297.84 315.611 301.141C315.736 301.496 315.842 301.869 315.931 302.223H315.824C307.873 301.851 300.082 299.916 292.539 297.503C285.528 295.266 278.607 292.693 271.863 289.747Z" fill="#C79C89"/>
<path fill-rule="evenodd" clip-rule="evenodd" d="M163.95 320.65C164.696 319.904 165.477 319.177 166.346 318.484C165.477 319.159 164.696 319.886 163.95 320.65ZM213.343 383.087L212.899 382.91C213.272 383.158 213.662 383.389 214.053 383.62C213.804 383.424 213.556 383.247 213.343 383.087Z" fill="#C79C89"/>
<path fill-rule="evenodd" clip-rule="evenodd" d="M173.534 314.242C173.498 314.26 173.481 314.278 173.445 314.295C172.877 314.544 172.38 314.81 171.972 314.988C169.967 315.928 168.068 317.1 166.346 318.484C165.476 319.176 164.695 319.904 163.95 320.649C163.222 321.412 162.548 322.193 161.927 322.992C162.53 322.193 163.187 321.412 163.897 320.649C164.287 320.259 164.678 319.868 165.086 319.496C165.512 319.105 165.938 318.732 166.382 318.377C168.582 316.603 170.996 315.236 173.534 314.242Z" fill="#C79C89"/>
<path fill-rule="evenodd" clip-rule="evenodd" d="M192.01 338.131L191.814 338.574L191.424 338.326C190.252 337.598 188.833 337.226 187.413 337.208C186.011 337.19 184.52 337.527 183.526 338.503C182.479 339.444 182.426 341.077 182.816 342.408C183.278 343.757 184.449 344.857 185.851 345.212L185.815 345.372C184.342 345.053 183.047 343.952 182.497 342.532C182.035 341.112 182.017 339.338 183.171 338.149C184.271 336.995 185.904 336.587 187.413 336.569C188.779 336.533 190.164 336.782 191.406 337.421C192.098 335.451 191.868 333.286 190.678 331.635C189.418 329.86 187.377 328.742 185.301 327.961C183.189 327.216 180.935 326.808 178.716 326.843C176.516 326.861 174.333 327.464 172.433 328.476C168.6 330.606 166.878 335.131 166.949 339.533C167.003 344.005 168.582 348.46 171.298 352.187L171.173 352.294C169.523 350.643 168.192 348.655 167.233 346.49C166.239 344.343 165.618 342 165.512 339.586C165.37 337.208 165.654 334.705 166.665 332.451C167.659 330.18 169.434 328.192 171.653 327.038C173.871 325.956 176.303 325.388 178.716 325.441C181.13 325.494 183.49 325.991 185.727 326.861C187.91 327.748 190.111 329.008 191.513 331.067C192.932 333.144 193.003 335.948 192.01 338.131Z" fill="#C79C89"/>
<path fill-rule="evenodd" clip-rule="evenodd" d="M209.118 380.441C202.676 375.898 197.121 370.201 192.56 363.297C198.505 370.911 202.037 373.733 209.118 380.441Z" fill="#C79C89"/>
<path fill-rule="evenodd" clip-rule="evenodd" d="M264.58 351.815C264.58 360.529 257.534 367.575 248.837 367.575C240.123 367.575 233.077 360.529 233.077 351.815C233.077 343.118 240.123 336.072 248.837 336.072C257.534 336.072 264.58 343.118 264.58 351.815Z" fill="#C79C89"/>
<path fill-rule="evenodd" clip-rule="evenodd" d="M314.026 348.779C313.139 348.832 312.251 348.761 311.399 348.549C311.186 348.495 309.056 347.892 309.82 347.466C309.979 347.377 310.157 347.413 310.334 347.43C310.512 347.448 310.672 347.466 310.831 347.501C311.843 347.697 312.801 348.087 313.937 348.016C314.399 347.981 314.505 348.744 314.026 348.779Z" fill="#C79C89"/>
<path fill-rule="evenodd" clip-rule="evenodd" d="M192.01 338.131L191.814 338.574L191.424 338.326C190.252 337.598 188.833 337.226 187.413 337.208C186.011 337.19 184.52 337.527 183.526 338.503C182.479 339.444 182.426 341.077 182.816 342.408C183.278 343.757 184.449 344.857 185.851 345.212L185.815 345.372C184.342 345.053 183.047 343.952 182.497 342.532C182.035 341.112 182.017 339.338 183.171 338.149C184.271 336.995 185.904 336.587 187.413 336.569C188.779 336.533 190.164 336.782 191.406 337.421C192.098 335.451 191.868 333.286 190.678 331.635C189.418 329.86 187.377 328.742 185.301 327.961C183.189 327.216 180.935 326.808 178.716 326.843C176.516 326.861 174.333 327.464 172.433 328.476C168.6 330.606 166.878 335.131 166.949 339.533C167.003 344.005 168.582 348.46 171.298 352.187L171.173 352.294C169.523 350.643 168.192 348.655 167.233 346.49C166.239 344.343 165.618 342 165.512 339.586C165.37 337.208 165.654 334.705 166.665 332.451C167.659 330.18 169.434 328.192 171.653 327.038C173.871 325.956 176.303 325.388 178.716 325.441C181.13 325.494 183.49 325.991 185.727 326.861C187.91 327.748 190.111 329.008 191.513 331.067C192.932 333.144 193.003 335.948 192.01 338.131Z" fill="#672448"/>
<path fill-rule="evenodd" clip-rule="evenodd" d="M166.381 318.377C165.937 318.732 165.511 319.105 165.085 319.496C164.677 319.868 164.286 320.259 163.896 320.649C163.186 321.412 162.529 322.193 161.926 322.992C162.547 322.193 163.221 321.412 163.949 320.649C164.694 319.904 165.475 319.176 166.345 318.484C168.067 317.1 169.966 315.928 171.971 314.988C172.379 314.81 172.876 314.544 173.444 314.295C173.48 314.278 173.497 314.26 173.533 314.242C170.995 315.236 168.581 316.603 166.381 318.377ZM192.559 363.298C197.12 370.202 202.675 375.899 209.118 380.442C202.036 373.734 198.504 370.912 192.559 363.298Z" fill="#672448"/>
<path fill-rule="evenodd" clip-rule="evenodd" d="M332.343 298.447C331.935 300.186 330.497 300.772 328.953 301.144C328.971 301.091 329.024 301.056 329.024 301.02C329.823 298.269 329.982 295.27 329.628 292.199C327.657 276.333 310.903 257.254 287.423 245.061C288.754 245.54 290.085 246.001 291.398 246.534C304.621 251.876 317.364 260.111 325.208 272.286C329.219 278.498 331.899 285.633 332.449 293.034C332.574 294.791 332.751 296.725 332.343 298.447ZM315.944 302.227H315.82C307.868 301.854 300.077 299.92 292.534 297.506C285.524 295.27 278.602 292.696 271.858 289.75C268.397 288.242 264.989 286.591 261.635 284.799C262.895 285.207 264.137 285.597 265.397 285.988C276.65 289.324 300.503 297.843 315.607 301.144H315.642C317.719 301.606 319.635 301.961 321.321 302.192C319.529 302.298 317.736 302.316 315.944 302.227ZM217.992 220.852C206.421 226.549 198.47 237.819 195.097 246.782C194.92 246.764 194.938 246.764 194.76 246.747C194.725 246.64 194.707 246.552 194.672 246.445C196.748 239.186 200.901 232.619 206.35 227.401C217.212 217.054 232.528 212.742 247.312 213.629C250.436 213.806 254.252 213.948 256.719 216.131C257.233 216.593 257.588 217.108 257.872 217.64C252.246 212.564 230.54 214.658 217.992 220.852ZM253.205 309.734C253.364 309.486 253.488 309.202 253.613 308.918C253.293 310.48 252.708 311.971 251.802 313.231C249.247 316.78 244.668 316.319 241.083 315.307C233.859 313.284 227.168 309.255 221.436 304.179C214.762 298.252 209.509 290.904 205.445 282.828C208.249 286.627 211.497 290.442 215.1 294.081C231.286 310.515 248.377 317.508 253.205 309.734ZM333.745 294.418C333.71 292.537 333.532 290.673 333.248 288.827C332.041 281.355 328.811 274.274 324.303 268.222C315.34 256.224 301.71 248.362 287.778 243.481C284.335 242.256 280.803 241.263 277.253 240.428C266.906 236.329 256.932 234.217 248.253 234.057C248.98 233.613 249.726 233.17 250.418 232.673C253.843 230.259 257.216 227.366 258.973 223.479C260.357 220.444 260.375 216.788 257.606 214.552C254.802 212.316 250.631 212.227 247.223 212.067C238.988 211.694 230.665 212.866 222.944 215.794C209.793 220.781 198.771 231.217 194.104 244.528C192.098 237.873 190.004 233.471 188.726 233.755C187.359 234.057 187.306 239.559 188.406 247.155C182.443 240.127 176.427 235.743 174.634 237.252C173.108 238.529 175.131 243.694 179.249 249.693C179.337 249.906 179.461 250.154 179.586 250.385C159.868 257.804 146.965 276.226 146.965 320.898C146.983 357.672 172.238 378.544 209.154 380.478L209.118 380.443C202.676 375.899 197.121 370.202 192.56 363.298C192.293 362.961 192.027 362.624 191.761 362.269C181.857 364.824 170.783 362.109 163.577 354.424C158.696 349.188 156.496 342.639 156.921 336.268C156.939 335.824 156.975 335.398 157.028 334.954C157.063 334.528 157.134 334.103 157.205 333.659C157.418 332.381 157.738 331.121 158.182 329.878C158.217 329.772 158.27 329.648 158.306 329.524C158.519 328.956 158.732 328.388 158.998 327.837C159.175 327.447 159.353 327.057 159.566 326.684C159.726 326.364 159.885 326.063 160.081 325.743C160.098 325.69 160.134 325.654 160.152 325.619C160.223 325.477 160.311 325.353 160.382 325.229C160.382 325.229 160.382 325.211 160.4 325.193C160.418 325.158 160.436 325.122 160.453 325.104C160.471 325.051 160.524 324.98 160.578 324.909C160.578 324.874 160.595 324.838 160.649 324.82V324.803C160.649 324.803 160.649 324.785 160.666 324.767C160.702 324.714 160.737 324.678 160.773 324.625C161.625 323.223 162.672 321.892 163.896 320.65C164.269 320.259 164.66 319.869 165.086 319.496C165.494 319.105 165.937 318.733 166.381 318.378C168.582 316.603 170.996 315.236 173.534 314.242H173.551C173.569 314.225 173.605 314.225 173.622 314.207C175.042 313.55 176.782 312.823 178.006 312.876H178.024H178.059C178.166 312.876 178.272 312.876 178.379 312.894C179.461 313.089 180.775 314.526 181.662 315.148C183.029 316.106 184.378 317.064 185.709 318.058C187.732 319.567 189.72 321.093 191.69 322.691C193.5 324.164 195.168 325.335 197.653 324.678C200.209 323.986 202.179 321.643 202.303 318.981C203.084 302.795 200.972 280.308 200.972 276.83C202.907 281.622 205.178 286.218 207.876 290.549C212.366 297.737 217.992 304.108 224.648 308.989C227.86 311.35 231.321 313.337 234.942 314.899C238.456 316.408 242.431 317.899 246.283 317.49C250.063 317.1 252.867 314.331 254.198 310.586C255.689 306.433 255.352 301.837 254.163 297.648C252.85 292.98 250.56 288.721 248.288 284.532C247.259 282.633 246.23 280.734 245.218 278.835C247.969 279.971 250.791 281.089 253.719 282.136C261.28 286.84 269.444 290.655 277.715 293.903C284.973 296.743 292.374 299.37 299.935 301.269C305.295 302.618 310.797 303.576 316.334 303.7H316.352C318.979 303.771 321.623 303.665 324.25 303.327C327.445 302.901 331.722 302.564 333.142 299.157C333.763 297.666 333.763 295.998 333.745 294.418Z" fill="black"/>
<path fill-rule="evenodd" clip-rule="evenodd" d="M248.837 336.072C240.123 336.072 233.077 343.118 233.077 351.815C233.077 360.529 240.123 367.575 248.837 367.575C257.534 367.575 264.58 360.529 264.58 351.815C264.58 343.118 257.534 336.072 248.837 336.072ZM313.937 348.017C312.801 348.088 311.843 347.697 310.831 347.502C310.672 347.466 310.512 347.449 310.334 347.431C310.157 347.413 309.979 347.378 309.82 347.466C309.056 347.892 311.186 348.496 311.399 348.549C312.251 348.762 313.138 348.833 314.026 348.78C314.505 348.744 314.399 347.981 313.937 348.017Z" fill="#C79C89"/>
<path fill-rule="evenodd" clip-rule="evenodd" d="M314.027 348.781C313.14 348.834 312.252 348.763 311.401 348.55C311.188 348.497 309.058 347.893 309.821 347.467C309.981 347.378 310.158 347.414 310.336 347.432C310.513 347.449 310.673 347.467 310.833 347.503C311.844 347.698 312.803 348.088 313.938 348.017C314.4 347.982 314.506 348.745 314.027 348.781ZM248.839 367.576C240.124 367.576 233.078 360.53 233.078 351.815C233.078 343.119 240.124 336.073 248.839 336.073C257.535 336.073 264.581 343.119 264.581 351.815C264.581 360.53 257.535 367.576 248.839 367.576ZM217.513 386.957C217.265 386.761 217.017 386.584 216.786 386.389C217.265 386.744 217.762 387.116 218.277 387.507C218.01 387.312 217.762 387.134 217.513 386.957ZM212.899 382.91L213.343 383.087C213.556 383.247 213.804 383.425 214.053 383.62C213.662 383.389 213.272 383.158 212.899 382.91ZM323.398 331.6C322.138 330.429 320.558 329.648 318.908 329.24C318.979 327.856 319.032 326.471 319.032 325.069C319.032 317.651 318.092 310.48 316.334 303.701C310.797 303.576 305.295 302.618 299.935 301.269C292.375 299.37 284.974 296.743 277.715 293.904C269.444 290.656 261.28 286.84 253.719 282.137C250.791 281.09 247.969 279.971 245.218 278.836C246.23 280.735 247.259 282.634 248.289 284.533C250.56 288.721 252.85 292.981 254.163 297.649C255.352 301.837 255.689 306.434 254.199 310.587C252.868 314.332 250.063 317.1 246.283 317.491C242.432 317.899 238.456 316.408 234.942 314.9C231.321 313.338 227.861 311.35 224.648 308.989C217.993 304.109 212.367 297.737 207.876 290.549C205.179 286.219 202.907 281.622 200.972 276.83C200.972 280.309 203.084 302.795 202.303 318.982C202.179 321.644 200.209 323.987 197.653 324.679C195.169 325.335 193.5 324.164 191.69 322.691C189.72 321.094 187.732 319.567 185.709 318.059C184.378 317.065 183.029 316.106 181.662 315.148C180.775 314.527 179.462 313.089 178.379 312.894C178.273 312.876 178.166 312.876 178.06 312.876H178.024H178.006C176.516 313.196 175.06 313.639 173.623 314.207C173.605 314.225 173.569 314.225 173.552 314.243H173.534C173.498 314.261 173.481 314.278 173.445 314.296C172.877 314.545 172.38 314.811 171.972 314.988C169.967 315.929 168.067 317.1 166.346 318.485C165.476 319.177 164.695 319.905 163.95 320.65C163.222 321.413 162.548 322.194 161.927 322.993C161.891 323.046 161.838 323.099 161.802 323.152C161.785 323.17 161.767 323.188 161.767 323.206C161.66 323.348 161.572 323.472 161.483 323.614C161.234 323.951 161.004 324.288 160.773 324.626C160.738 324.679 160.702 324.714 160.667 324.767C160.649 324.785 160.649 324.803 160.649 324.803V324.821C160.613 324.856 160.596 324.874 160.578 324.909C160.525 324.98 160.471 325.051 160.454 325.105C160.436 325.122 160.418 325.158 160.4 325.193C160.383 325.211 160.383 325.229 160.383 325.229C160.312 325.353 160.223 325.477 160.152 325.619C160.134 325.655 160.099 325.69 160.081 325.744C159.886 326.063 159.726 326.365 159.566 326.684C159.353 327.057 159.176 327.447 158.998 327.838C158.732 328.388 158.519 328.956 158.306 329.524C158.271 329.648 158.217 329.772 158.182 329.879C157.738 331.121 157.419 332.381 157.206 333.659C157.135 334.103 157.064 334.529 157.028 334.955C156.975 335.399 156.939 335.824 156.922 336.268C156.567 342.64 158.767 349.136 163.63 354.336C170.836 362.021 181.893 364.718 191.814 362.18C192.063 362.553 192.294 362.926 192.56 363.298C198.505 370.912 202.037 373.734 209.119 380.443L209.154 380.479C209.278 380.567 209.42 380.674 209.562 380.762C209.633 380.816 209.704 380.851 209.775 380.904C209.829 380.94 209.864 380.975 209.917 380.993L209.882 381.739L209.385 394.588L209.332 396.008L209.19 399.664L209.101 402.167L208.799 409.816C208.835 409.852 208.817 409.887 208.799 409.922V410.029L208.675 413.135C211.976 416.117 217.744 418.903 223.495 420.66C224.169 420.855 224.843 421.051 225.5 421.228C225.713 421.281 225.908 421.334 226.104 421.37C226.387 421.459 226.671 421.53 226.938 421.601C227.115 421.636 227.293 421.672 227.47 421.707C227.506 421.725 227.541 421.725 227.577 421.743C228.056 421.831 228.517 421.92 228.979 422.009C234.605 423.056 239.326 422.719 240.391 420.092C240.462 419.968 240.515 419.826 240.533 419.666C240.604 419.418 240.639 419.151 240.639 418.85V392.92C246.691 393.949 253.134 394.464 259.913 394.464C272.515 394.464 287.849 391.926 297.965 381.295C303.609 375.367 308.454 368.037 312.057 359.642C313.566 356.164 314.844 352.508 315.891 348.71C315.962 348.71 315.98 348.745 316.033 348.745C321.339 348.816 325.67 344.06 326.096 338.824C326.327 336.144 325.35 333.411 323.398 331.6Z" fill="#C79C89"/>
<path fill-rule="evenodd" clip-rule="evenodd" d="M214.053 383.62C213.663 383.389 213.272 383.159 212.899 382.91L213.343 383.088C213.556 383.247 213.805 383.425 214.053 383.62Z" fill="#C79C89"/>
<path fill-rule="evenodd" clip-rule="evenodd" d="M192.01 338.148L191.797 338.574L191.406 338.344C190.253 337.616 188.815 337.226 187.395 337.226C185.993 337.19 184.502 337.527 183.508 338.503C182.479 339.462 182.408 341.095 182.798 342.426C183.26 343.757 184.431 344.875 185.833 345.212L185.798 345.372C184.325 345.07 183.047 343.97 182.497 342.532C182.018 341.13 182 339.338 183.171 338.166C184.272 337.013 185.887 336.604 187.395 336.569C188.762 336.533 190.146 336.8 191.406 337.421C192.063 335.451 191.85 333.285 190.661 331.653C189.418 329.878 187.36 328.742 185.283 327.979C183.189 327.233 180.935 326.807 178.699 326.861C176.498 326.878 174.315 327.482 172.434 328.476C168.582 330.606 166.861 335.131 166.932 339.551C166.985 344.005 168.582 348.478 171.298 352.205L171.156 352.311C169.523 350.661 168.174 348.673 167.216 346.508C166.222 344.36 165.601 342 165.494 339.604C165.352 337.208 165.636 334.723 166.665 332.451C167.642 330.18 169.416 328.21 171.635 327.056C173.853 325.956 176.285 325.405 178.716 325.459C181.112 325.512 183.473 326.009 185.709 326.861C187.91 327.748 190.093 329.008 191.495 331.085C192.915 333.161 193.004 335.965 192.01 338.148Z" fill="#672448"/>
<path fill-rule="evenodd" clip-rule="evenodd" d="M314.026 348.779C313.139 348.832 312.251 348.761 311.399 348.549C311.186 348.495 309.056 347.892 309.82 347.466C309.979 347.377 310.157 347.413 310.334 347.43C310.512 347.448 310.672 347.466 310.831 347.501C311.843 347.697 312.801 348.087 313.937 348.016C314.399 347.981 314.505 348.744 314.026 348.779Z" fill="#672448"/>
<path fill-rule="evenodd" clip-rule="evenodd" d="M240.64 392.992V402.381C240.605 402.363 240.569 402.363 240.534 402.345C240.25 402.221 239.913 402.079 239.54 401.884H239.522C238.652 401.44 237.588 400.837 236.381 400.091C235.919 399.807 235.458 399.506 234.961 399.204C234.641 398.991 234.304 398.778 233.967 398.565C233.47 398.246 232.973 397.908 232.458 397.571C232.192 397.376 231.908 397.199 231.642 397.021C230.719 396.4 229.778 395.743 228.82 395.086C228.412 394.785 227.986 394.501 227.578 394.217C225.909 393.045 224.223 391.839 222.608 390.667C222.377 390.508 222.164 390.348 221.952 390.188C221.579 389.922 221.224 389.656 220.869 389.407C220.532 389.159 220.212 388.928 219.893 388.697C219.343 388.289 218.792 387.899 218.278 387.508C217.763 387.118 217.266 386.745 216.787 386.39C216.521 386.212 216.29 386.035 216.041 385.858C215.385 385.361 214.781 384.917 214.231 384.509C214.231 384.491 214.213 384.491 214.213 384.491C214.196 384.473 214.178 384.473 214.16 384.455C212.456 383.178 211.409 382.379 211.409 382.379L212.9 382.911L213.344 383.089L240.285 392.868L240.64 392.992Z" fill="#C79C89"/>
<path fill-rule="evenodd" clip-rule="evenodd" d="M267.439 298.288C267.119 298.635 266.658 298.583 266.285 298.34C266.107 298.219 265.77 298.063 265.522 298.011C265.167 297.924 264.936 297.906 264.545 297.924C264.279 297.959 263.959 298.028 263.64 298.167C263.622 298.184 263.498 298.236 263.498 298.236C263.409 298.288 263.338 298.34 263.267 298.392C263.107 298.496 263.072 298.513 262.965 298.617C262.007 299.553 261.953 301.096 262.717 302.154C262.983 302.518 262.823 303.055 262.468 303.281C262.078 303.523 261.598 303.385 261.332 303.02C260.142 301.391 260.32 298.843 261.829 297.456C263.373 296.034 265.699 295.93 267.386 297.126C267.758 297.386 267.705 297.993 267.439 298.288Z" fill="black"/>
<path fill-rule="evenodd" clip-rule="evenodd" d="M276.04 342.432C273.179 342.776 270.286 337.911 269.587 331.549C268.872 325.188 270.618 319.755 273.462 319.394C276.323 319.05 279.217 323.916 279.915 330.277C280.63 336.638 278.884 342.071 276.04 342.432Z" fill="black"/>
<path fill-rule="evenodd" clip-rule="evenodd" d="M272.976 314.93C272.992 315.455 272.662 315.824 272.25 315.882C270.108 316.134 268.114 317.98 267.389 320.428C267.257 320.894 266.927 321.244 266.482 321.127C266.12 321.03 265.774 320.486 265.906 320.039C266.878 316.756 269.317 314.405 272.201 314.056C272.613 313.997 272.976 314.464 272.976 314.93Z" fill="black"/>
<path fill-rule="evenodd" clip-rule="evenodd" d="M312.022 357.516C308.426 365.643 303.589 372.739 297.954 378.46C296.236 379.13 294.393 379.577 292.444 379.68C279.652 380.453 267.976 369.491 267.657 364.251C267.639 363.821 267.674 363.443 267.781 363.083C269.003 359.062 278.766 359.285 290.531 358.581C301.197 357.945 309.4 355.299 312.022 357.516Z" fill="white"/>
<circle cx="273.552" cy="328.331" r="22.338" fill="white" fill-opacity="0.2" stroke="black" stroke-width="5.5845"/>
<path d="M317.03 328.306C320.376 327.659 325.275 325.633 318.105 322.702C313.727 320.912 300.738 323.371 296.19 325.739C293.288 327.25 298.277 328.25 296.655 329.625L317.03 328.306Z" fill="black"/>
<mask id="mask0" mask-type="alpha" maskUnits="userSpaceOnUse" x="248" y="303" width="51" height="51">
<circle cx="273.553" cy="328.331" r="22.338" transform="rotate(-180 273.553 328.331)" fill="white" fill-opacity="0.4" stroke="black" stroke-width="5.5845"/>
</mask>
<g mask="url(#mask0)">
<rect opacity="0.2" x="235.35" y="313.043" width="55.0676" height="28.2623" transform="rotate(-22.4303 235.35 313.043)" fill="white"/>
</g>
<path d="M205.764 319.586C287.059 321.783 239.419 324.58 251.178 328.513L198.999 323.306C189.462 322.112 185.048 319.026 205.764 319.586Z" fill="#333333"/>
</svg>
