<svg width="566" height="669" viewBox="0 0 566 669" fill="none" xmlns="http://www.w3.org/2000/svg">
<g clip-path="url(#clip0)">
<path fill-rule="evenodd" clip-rule="evenodd" d="M88.9502 569.624C88.9502 558.085 240.442 548.731 427.315 548.731C614.189 548.731 765.679 558.085 765.679 569.624C765.679 576.305 714.88 582.254 635.83 586.079C642.777 588.847 646.617 591.89 646.617 595.084C646.617 607.88 584.98 618.253 508.947 618.253C446.305 618.253 393.435 602.527 376.755 596.987C373.096 595.772 369.14 595.407 365.273 595.943C347.435 598.415 293.132 605.373 247.035 605.373C171.002 605.373 109.365 595 109.365 582.204C109.365 580.519 110.444 578.876 112.475 577.293C97.293 574.919 88.9502 572.331 88.9502 569.624Z" fill="#F2E14A" fill-opacity="0.2"/>
<path fill-rule="evenodd" clip-rule="evenodd" d="M296.643 620.726C296.643 623.639 306.98 626 319.732 626C332.483 626 342.821 623.639 342.821 620.726C342.821 617.813 332.483 615.451 319.732 615.451C306.98 615.451 296.643 617.813 296.643 620.726Z" fill="#9B51E0"/>
<path fill-rule="evenodd" clip-rule="evenodd" d="M97.0344 149.658C88.662 152.109 79.8878 147.309 77.4371 138.937C74.9865 130.565 79.786 121.791 88.1584 119.34C96.5304 116.888 105.304 121.689 107.756 130.061C110.206 138.433 105.406 147.207 97.0344 149.658Z" fill="#9B51E0"/>
<path fill-rule="evenodd" clip-rule="evenodd" d="M42.1583 105.634C42.1583 111.507 37.3973 116.269 31.5237 116.269C25.6506 116.269 20.8896 111.507 20.8896 105.634C20.8896 99.7614 25.6506 95 31.5237 95C37.3973 95 42.1583 99.7614 42.1583 105.634Z" stroke="#9B51E0" stroke-width="0.934771"/>
<path fill-rule="evenodd" clip-rule="evenodd" d="M12.9582 218.314C10.1297 229.538 -1.26345 236.345 -12.4883 233.516C-23.7125 230.688 -30.5192 219.295 -27.6907 208.07C-24.8622 196.845 -13.4697 190.039 -2.24487 192.867C8.97995 195.696 15.7867 207.088 12.9582 218.314Z" stroke="#F2E14A" stroke-width="0.934771"/>
<path fill-rule="evenodd" clip-rule="evenodd" d="M125.823 219.613C124.963 223.029 121.495 225.101 118.079 224.24C114.663 223.38 112.591 219.912 113.452 216.496C114.313 213.08 117.78 211.008 121.196 211.869C124.612 212.73 126.684 216.197 125.823 219.613Z" fill="#9B51E0"/>
<path fill-rule="evenodd" clip-rule="evenodd" d="M342.957 105.634C342.957 109.158 340.1 112.015 336.577 112.015C333.053 112.015 330.196 109.158 330.196 105.634C330.196 102.11 333.053 99.2534 336.577 99.2534C340.1 99.2534 342.957 102.11 342.957 105.634Z" fill="#9B51E0"/>
<path fill-rule="evenodd" clip-rule="evenodd" d="M379.418 126.903C379.418 128.749 377.921 130.245 376.076 130.245C374.229 130.245 372.733 128.749 372.733 126.903C372.733 125.058 374.229 123.561 376.076 123.561C377.921 123.561 379.418 125.058 379.418 126.903Z" fill="#F2E14A"/>
<path fill-rule="evenodd" clip-rule="evenodd" d="M62.7305 178.478C57.7393 179.939 52.5086 177.078 51.0479 172.087C49.5865 167.095 52.4479 161.865 57.4391 160.404C62.4303 158.943 67.661 161.804 69.1223 166.795C70.5831 171.786 67.7217 177.017 62.7305 178.478Z" fill="#9B51E0"/>
<path fill-rule="evenodd" clip-rule="evenodd" d="M240.61 572.729V572.746C240.593 573.092 240.835 573.438 241.302 573.524L261.238 577.328L263.365 577.726L277.838 580.475L279.376 580.769L285.013 581.841L285.031 581.806C285.065 581.633 285.169 581.357 285.29 580.942C285.601 579.956 286.137 578.262 286.881 575.962C287.019 575.53 287.157 575.063 287.313 574.596C293.054 556.7 308.546 508.856 323.97 461.306V461.289C321.705 461.444 319.491 461.531 317.278 461.548C307.924 461.652 298.967 460.666 289.872 458.833C288.247 466.839 286.656 474.81 285.065 482.591C284.961 483.179 284.84 483.767 284.719 484.355C275.538 529.761 267.722 568.389 267.256 570.031L258.541 570.688L256.795 570.809H256.777L245.677 571.639H245.659L241.302 571.968C241.043 572.02 240.87 572.141 240.749 572.314C240.645 572.452 240.61 572.573 240.61 572.729Z" fill="#765040"/>
<path fill-rule="evenodd" clip-rule="evenodd" d="M356.806 462.862C361.906 469.606 367.284 476.211 372.886 482.66C373.457 483.3 374.01 483.94 374.581 484.58C399.48 512.85 428.684 538.009 458.303 558.36L455.26 566.573L451.508 576.654L450.073 580.51C450.021 580.717 450.055 580.907 450.159 581.046C450.436 581.512 451.249 581.651 451.664 581.132L481.732 546.861C481.732 546.844 481.732 546.844 481.715 546.827C481.387 546.602 481.075 546.377 480.747 546.135C459.393 531.144 436.724 509.945 420.972 490.649C409.992 477.214 401.278 464.28 392.771 449.929C390.436 451.191 388.119 452.349 385.785 453.439C376.414 457.779 366.904 460.718 356.806 462.862Z" fill="#765040"/>
<path fill-rule="evenodd" clip-rule="evenodd" d="M334.699 426.768C334.768 427.062 334.837 427.338 334.906 427.632C335.217 428.981 335.529 430.347 335.84 431.696C336.929 436.312 338.036 440.912 339.16 445.511C339.177 445.546 339.177 445.58 339.194 445.615C340.007 448.969 340.854 452.307 341.702 455.644C341.788 455.972 342.03 456.422 342.393 456.56C342.41 456.577 342.445 456.595 342.48 456.595C342.774 456.681 343.102 456.56 342.998 456.162C341.2 449.108 339.454 442.036 337.794 434.946C337.137 432.215 336.497 429.465 335.875 426.733C334.906 422.532 333.955 418.33 333.039 414.111C332.952 413.731 332.658 413.264 332.261 413.16C331.949 413.073 331.656 413.177 331.742 413.575C332.676 417.88 333.644 422.168 334.63 426.457C334.647 426.56 334.681 426.664 334.699 426.768ZM281.278 338.014H377.342C378.812 340.279 411.211 398.221 414.306 403.097C411.021 407.091 413.684 406.365 415.222 404.584C420.635 413.16 426.175 425.169 422.225 428.117C421.222 429.292 420.064 430.347 418.94 431.35C409.966 439.2 401.372 445.235 392.779 449.92C390.445 451.183 388.128 452.341 385.793 453.43C376.422 457.77 366.912 460.71 356.814 462.854C352.923 463.684 348.946 464.376 344.849 464.998C344.226 462.854 343.604 460.727 342.981 458.583C336.359 460.001 330.065 460.883 323.978 461.281C321.713 461.436 319.5 461.523 317.287 461.54C307.932 461.644 298.976 460.658 289.881 458.825C285.057 457.857 260.414 453.43 260.414 453.43C260.617 453.439 280.603 341.852 281.278 338.014Z" fill="#F6D446"/>
<path fill-rule="evenodd" clip-rule="evenodd" d="M372.782 397.208C379.439 410.159 396.522 414.067 409.387 408.62C411.6 407.669 413.675 406.372 415.214 404.591C414.92 404.107 414.609 403.606 414.297 403.104C411.012 407.099 405.151 408.672 400.205 409.26C393.41 410.09 386.303 408.793 380.649 404.816C377.762 402.793 375.41 400.113 373.785 396.983C373.681 396.776 373.525 396.62 373.37 396.534C373.076 396.361 372.747 396.378 372.678 396.62C372.626 396.741 372.644 396.949 372.782 397.208Z" fill="#2A4D52"/>
<path fill-rule="evenodd" clip-rule="evenodd" d="M449.567 582.912C449.247 582.628 449.209 582.142 449.492 581.815L449.562 581.736L453.813 576.848L451.508 576.661L455.261 566.572L462.272 567.141L479.096 547.811L480.376 546.343C480.659 546.023 481.152 545.992 481.472 546.269C481.792 546.551 481.83 547.045 481.546 547.363L462.678 569.036L455.738 577.005L450.663 582.837C450.379 583.164 449.887 583.187 449.567 582.912Z" fill="#2A4D52"/>
<path fill-rule="evenodd" clip-rule="evenodd" d="M302.314 479.514C302.348 479.548 302.348 479.6 302.314 479.635C300.844 481.26 299.046 482.626 297.023 483.577C294.983 484.511 292.752 485.047 290.487 485.133C288.55 485.22 286.562 485.03 284.729 484.355C284.85 483.767 284.971 483.179 285.075 482.592C286.821 483.179 288.602 483.681 290.487 483.75C294.654 483.923 298.959 482.419 302.193 479.514C302.227 479.479 302.279 479.479 302.314 479.514Z" fill="black"/>
<path fill-rule="evenodd" clip-rule="evenodd" d="M391.118 475.363C390.133 477.334 388.767 479.115 387.089 480.602C385.378 482.054 383.372 483.161 381.211 483.87C379.101 484.544 376.819 484.925 374.588 484.579C374.018 483.939 373.464 483.299 372.894 482.66C373.481 482.746 374.069 482.815 374.657 482.85C376.698 482.971 378.79 483.005 380.847 482.539C384.911 481.57 388.628 478.942 390.963 475.276C390.98 475.242 391.049 475.225 391.084 475.259C391.118 475.276 391.136 475.328 391.118 475.363Z" fill="black"/>
<path fill-rule="evenodd" clip-rule="evenodd" d="M372.782 397.208C379.439 410.159 396.522 414.067 409.387 408.62C411.6 407.669 413.675 406.372 415.214 404.591C414.92 404.107 414.609 403.606 414.297 403.104C411.012 407.099 405.151 408.672 400.205 409.26C393.41 410.09 386.303 408.793 380.649 404.816C377.762 402.793 375.41 400.113 373.785 396.983C373.681 396.776 373.525 396.62 373.37 396.534C373.076 396.361 372.747 396.378 372.678 396.62C372.626 396.741 372.644 396.949 372.782 397.208Z" fill="black"/>
<path fill-rule="evenodd" clip-rule="evenodd" d="M331.735 413.584C332.668 417.89 333.637 422.178 334.622 426.466C334.64 426.57 334.674 426.674 334.692 426.777C334.761 427.071 334.83 427.348 334.899 427.642C335.21 428.991 335.521 430.357 335.833 431.705C336.922 436.322 338.029 440.921 339.153 445.521C339.17 445.555 339.17 445.59 339.187 445.624C340 448.979 340.847 452.316 341.694 455.653C341.781 455.982 342.023 456.431 342.386 456.57C342.403 456.587 342.438 456.604 342.472 456.604C342.766 456.691 343.095 456.57 342.991 456.172C341.193 449.117 339.447 442.045 337.787 434.956C337.13 432.224 336.49 429.475 335.867 426.743C334.899 422.541 333.948 418.339 333.032 414.12C332.945 413.74 332.651 413.273 332.254 413.169C331.942 413.083 331.648 413.187 331.735 413.584Z" fill="black"/>
<path fill-rule="evenodd" clip-rule="evenodd" d="M239.374 573.295C239.453 572.875 239.853 572.595 240.278 572.672L240.382 572.69L246.753 573.86L245.619 571.53L256.448 570.103L259.417 576.195L284.621 580.827L286.536 581.18C286.957 581.261 287.233 581.669 287.159 582.084C287.078 582.504 286.673 582.788 286.255 582.708L257.994 577.509L247.601 575.598L239.996 574.199C239.569 574.123 239.299 573.71 239.374 573.295Z" fill="#2A4D52"/>
<path fill-rule="evenodd" clip-rule="evenodd" d="M192.516 267.9C195.197 269.733 198.084 271.617 201.093 273.191C205.83 275.629 210.464 286.194 213.715 290.603C219.594 298.522 225.49 306.545 231.957 313.997C241.796 325.392 254.902 338.499 271.069 333.951C275.841 332.62 281.928 330.285 286.06 327.519V327.502L286.078 327.484C286.268 326.654 290.642 307.997 291.144 305.992C292.735 299.698 292.596 293.75 294.204 288.32C294.222 288.251 294.256 288.182 294.273 288.096C290.884 291.173 286.873 294.407 281.495 298.643C275.807 303.139 267.058 308.43 259.726 304.418C257.461 303.173 255.749 301.15 254.089 299.162C242.798 285.623 229.865 275.162 221.081 259.773C217.571 253.6 205.294 244.453 205.07 244.644C200.833 248.361 214.113 257.162 206.47 259.081C203.289 259.877 198.119 256.384 195.75 254.517C190.286 250.177 185.064 247.773 184.079 249.139C183.508 249.935 192.741 258.459 194.833 260.776C191.998 260.326 181.018 253.6 178.338 254.188C177.156 254.42 179.286 256.69 181.388 258.632C182.884 260.015 184.366 261.232 184.632 261.433C188.384 264.355 188.591 265.202 192.516 267.9Z" fill="#765040"/>
<path fill-rule="evenodd" clip-rule="evenodd" d="M376.406 313.647C376.406 313.647 364.956 250.112 331.991 252.791C299.029 255.47 294.25 285.268 294.25 285.268L287.91 313.807L376.406 313.647Z" fill="#FF90A0"/>
<path fill-rule="evenodd" clip-rule="evenodd" d="M282.691 343.065C282.086 343.445 279.821 344.586 282.536 344.413C282.328 344.171 281.758 344.292 281.654 344.102C283.902 343.86 283.954 343.134 285.147 343.549C284.784 343.877 281.844 345.001 284.196 344.603C284.68 344.5 285.666 344.119 286.236 343.981C285.769 344.067 285.233 344.188 284.991 344.206L286.495 343.376C286.668 342.753 286.115 342.684 284.213 342.736L283.504 343.168C283.677 342.978 282.934 343.099 282.691 343.065Z" fill="#F55B80"/>
<path fill-rule="evenodd" clip-rule="evenodd" d="M285.269 342.375C285.338 342.427 285.39 342.479 285.442 342.531C285.493 342.583 285.528 342.617 285.563 342.652C285.736 342.617 285.857 342.583 285.96 342.531C286.202 342.444 286.306 342.341 286.393 342.306L285.269 342.375Z" fill="#F55B80"/>
<path fill-rule="evenodd" clip-rule="evenodd" d="M281.345 342.531C281.363 342.565 281.38 342.617 281.414 342.635C281.691 342.6 281.847 342.565 281.968 342.531H281.345Z" fill="#F55B80"/>
<path fill-rule="evenodd" clip-rule="evenodd" d="M281.328 342.532H281.346C281.294 342.48 281.294 342.48 281.328 342.532Z" fill="#F55B80"/>
<path fill-rule="evenodd" clip-rule="evenodd" d="M282.536 344.413C282.328 344.171 281.758 344.292 281.654 344.102C283.902 343.86 283.954 343.134 285.147 343.549C284.784 343.877 281.844 345.001 284.196 344.603C284.68 344.5 285.666 344.119 286.236 343.981C285.769 344.067 285.233 344.188 284.991 344.206L286.495 343.376C286.668 342.753 286.115 342.684 284.213 342.736L283.504 343.168C283.677 342.978 282.934 343.099 282.691 343.065C282.086 343.445 279.821 344.586 282.536 344.413Z" fill="white"/>
<path fill-rule="evenodd" clip-rule="evenodd" d="M286.668 344.119C287.307 343.807 286.979 343.842 286.443 343.963C286.65 343.911 286.771 343.946 286.668 344.119Z" fill="white"/>
<path fill-rule="evenodd" clip-rule="evenodd" d="M282.69 343.064C282.846 342.96 282.881 342.891 282.742 342.891C282.551 342.995 282.586 343.047 282.69 343.064Z" fill="white"/>
<path fill-rule="evenodd" clip-rule="evenodd" d="M285.438 342.527L285.559 342.648C285.732 342.613 285.853 342.579 285.957 342.527H285.438Z" fill="white"/>
<path fill-rule="evenodd" clip-rule="evenodd" d="M281.345 342.531C281.363 342.565 281.38 342.617 281.414 342.635C281.691 342.6 281.847 342.565 281.968 342.531H281.345Z" fill="white"/>
<path fill-rule="evenodd" clip-rule="evenodd" d="M276.401 342.531C276.609 342.22 277.594 340.612 277.871 340.145C277.577 340.612 276.401 342.531 276.401 342.531Z" fill="#9B51E0"/>
<path fill-rule="evenodd" clip-rule="evenodd" d="M285.269 342.375C285.338 342.427 285.39 342.479 285.442 342.531H285.96C286.202 342.444 286.306 342.341 286.393 342.306L285.269 342.375Z" fill="#9B51E0"/>
<path fill-rule="evenodd" clip-rule="evenodd" d="M281.328 342.532H281.346C281.294 342.48 281.294 342.48 281.328 342.532Z" fill="#9B51E0"/>
<path fill-rule="evenodd" clip-rule="evenodd" d="M348.673 341.338L369.506 342.528C369.524 342.597 369.541 342.649 369.558 342.7C369.61 342.649 369.662 342.597 369.714 342.528H371.253C371.46 342.908 371.668 343.288 371.927 343.721L372.29 344.343L372.394 344.499L372.532 344.36L372.567 344.308L372.636 344.222L372.688 344.153C373.743 346.574 374.832 348.977 375.938 351.38C377.27 354.32 378.636 357.242 379.967 360.164C381.593 363.709 383.114 367.305 384.584 370.902C384.74 371.282 384.895 371.68 385.051 372.06C372.411 378.596 346.457 382.954 320.815 382.954H319.657C318.515 382.936 317.374 382.936 316.233 382.902H316.216C315.559 382.902 314.902 382.884 314.245 382.867L311.547 382.763C311.132 382.746 310.717 382.729 310.319 382.712H310.302C309.974 382.694 309.645 382.677 309.334 382.66C308.245 382.591 307.155 382.539 306.083 382.452C305.703 382.435 305.322 382.4 304.942 382.366H304.873C304.147 382.331 303.438 382.262 302.729 382.21C302.677 382.21 302.642 382.193 302.59 382.193H302.573C302.227 382.158 301.899 382.141 301.553 382.106C300.533 382.003 299.513 381.916 298.51 381.795H298.458C297.714 381.726 296.988 381.64 296.262 381.553H296.245C294.723 381.38 293.236 381.173 291.784 380.965C282.17 379.593 273.19 377.386 264.844 374.343C264.844 374.343 276.326 342.649 276.395 342.528H281.34C281.357 342.562 281.375 342.614 281.409 342.631C281.686 342.597 281.841 342.562 281.962 342.528" fill="#FF90A0"/>
<path fill-rule="evenodd" clip-rule="evenodd" d="M361.346 322.713C361.328 322.713 361.311 322.696 361.294 322.678C361.38 322.765 361.467 322.817 361.554 322.886C361.467 322.817 361.398 322.765 361.346 322.713Z" fill="#9B51E0"/>
<path fill-rule="evenodd" clip-rule="evenodd" d="M361.257 322.661L361.276 322.68V322.661H361.257Z" fill="#9B51E0"/>
<path fill-rule="evenodd" clip-rule="evenodd" d="M361.222 322.608C361.222 322.625 361.222 322.643 361.239 322.661H361.257C361.257 322.625 361.257 322.625 361.239 322.625C361.239 322.608 361.222 322.608 361.222 322.608Z" fill="#9B51E0"/>
<path fill-rule="evenodd" clip-rule="evenodd" d="M361.346 322.713C361.328 322.713 361.311 322.696 361.294 322.678C361.38 322.765 361.467 322.817 361.554 322.886C361.467 322.817 361.398 322.765 361.346 322.713Z" fill="#765040"/>
<path fill-rule="evenodd" clip-rule="evenodd" d="M361.257 322.661L361.276 322.68V322.661H361.257Z" fill="#765040"/>
<path fill-rule="evenodd" clip-rule="evenodd" d="M361.222 322.608C361.222 322.625 361.222 322.643 361.239 322.661H361.257C361.257 322.625 361.257 322.625 361.239 322.625C361.239 322.608 361.222 322.608 361.222 322.608Z" fill="#765040"/>
<path fill-rule="evenodd" clip-rule="evenodd" d="M360.031 318.683L360.049 318.701C360.239 318.51 360.395 318.32 360.516 318.113L360.031 318.683Z" fill="#765040"/>
<path fill-rule="evenodd" clip-rule="evenodd" d="M287.807 312.563C287.842 312.424 287.859 312.303 287.876 312.217C287.894 312.165 287.911 312.13 287.911 312.079H361.501C361.536 312.182 361.587 312.355 361.657 312.597C361.691 312.736 361.743 312.874 361.795 313.047C362.158 314.344 370.752 339.64 370.907 340.038C370.959 340.124 370.994 340.228 371.028 340.315C371.339 341.058 371.651 341.784 371.962 342.528H371.651C371.495 342.476 371.322 342.424 371.167 342.39C371.201 342.441 371.218 342.476 371.253 342.528H276.395C276.43 342.476 287.755 312.77 287.807 312.563Z" fill="#9B51E0"/>
<path fill-rule="evenodd" clip-rule="evenodd" d="M354.341 284.206L354.428 283.67L354.151 283.912L354.341 284.206ZM347.529 257.733C347.581 257.682 347.598 257.664 347.65 257.63C353.736 253.463 373.897 289.67 375.817 293.889C383.01 309.589 387.557 326.707 394.404 342.286C398.07 350.672 401.943 359.024 405.021 367.652C405.834 369.951 406.3 372.822 407.442 374.966C408.306 376.608 409.862 377.698 410.416 379.634C411.159 382.262 413.926 386.914 415.603 387.847C420.514 390.545 426.738 395.87 426.392 397.945C425.874 399.19 422.571 398.118 418.923 396.476C416.035 395.179 412.923 393.519 410.831 392.412C414.808 397.6 422.658 405.571 420.877 406.383C420.323 406.625 419.753 406.712 419.165 406.66H419.148C418.421 406.608 417.695 406.331 416.934 405.951C416.831 405.882 416.71 405.83 416.606 405.778C415.499 405.121 414.375 404.222 413.269 403.236C413.009 402.994 412.75 402.752 412.491 402.51C412.387 402.424 412.3 402.355 412.214 402.233H412.197C411.92 401.991 411.661 401.732 411.384 401.473H411.367L411.349 401.438C411.073 401.179 410.779 400.885 410.502 400.625C409.326 399.502 408.237 398.499 407.303 397.928C408.012 398.948 408.981 400.176 410.035 401.455L410.053 401.473C411.28 403.029 412.594 404.654 413.614 406.21C413.718 406.366 413.822 406.522 413.926 406.677C414.306 407.265 414.635 407.836 414.877 408.354C414.929 408.424 414.946 408.475 414.98 408.545C415.101 408.821 415.136 409.063 415.084 409.305V409.323C414.929 410.256 413.77 410.879 412.785 410.326C409.793 408.666 407.217 406.418 404.64 404.222C402.998 402.821 401.407 400.85 399.54 399.744C399.574 400.072 399.661 400.401 399.747 400.746C399.747 400.764 399.764 400.781 399.764 400.798C399.782 400.85 399.799 400.919 399.834 400.971L399.851 400.989C400.577 403.115 402.462 405.398 403.465 407.179C404.087 408.233 406.75 412.003 405.626 413.265C405.384 413.542 405.125 413.697 404.848 413.784H404.831C404.762 413.801 404.727 413.818 404.658 413.836C403.275 414.06 401.597 412.401 400.335 411.052C400.249 410.948 400.145 410.844 400.058 410.741C400.041 410.723 400.041 410.723 400.024 410.706C399.782 410.447 399.54 410.205 399.349 409.997C399.194 409.841 399.021 409.669 398.865 409.496C398.226 408.839 397.603 408.112 397.015 407.352L396.998 407.334C396.393 406.539 395.788 405.709 395.252 404.844C395.252 404.844 395.252 404.827 395.234 404.827C394.923 404.291 394.594 403.738 394.335 403.202C394.318 403.202 394.318 403.184 394.318 403.184L394.301 403.167V403.15V403.133C394.214 402.977 394.128 402.839 394.058 402.683C393.903 402.337 393.713 401.905 393.488 401.404V401.386C393.419 401.248 393.35 401.11 393.28 400.954V400.937C393.246 400.867 393.211 400.816 393.194 400.729L393.177 400.712C393.038 400.401 392.9 400.072 392.744 399.709C392.329 398.741 391.863 397.634 391.361 396.458C387.955 388.366 384.894 380.17 381.592 372.061C381.436 371.68 381.28 371.283 381.125 370.902C379.655 367.306 378.134 363.709 376.508 360.165C375.177 357.243 363.471 329.888 362.295 326.102L361.984 325.116C361.967 325.047 361.932 324.96 361.915 324.891C361.88 324.753 361.828 324.615 361.794 324.476C361.776 324.424 361.396 323.214 361.24 322.661H361.258L361.275 322.678V322.661H361.258C361.258 322.626 361.258 322.626 361.24 322.626C361.24 322.609 361.223 322.609 361.223 322.609C361.154 322.419 361.102 322.228 361.05 322.038C360.946 321.727 360.843 321.399 360.756 321.087C360.704 320.932 360.67 320.793 360.635 320.638L360.618 320.62C360.566 320.465 360.514 320.309 360.48 320.154C360.393 319.929 360.22 319.324 360.03 318.684C359.805 317.992 359.598 317.249 359.511 316.937C359.114 315.641 358.699 314.344 358.335 313.047C358.284 312.874 358.232 312.736 358.197 312.597C358.128 312.355 358.076 312.182 358.042 312.079C357.886 311.612 357.748 311.128 357.609 310.661C356.866 308.223 356.14 305.785 355.413 303.347C355.292 302.897 355.154 302.465 355.033 302.033C354.912 301.652 354.808 301.289 354.704 300.926C354.549 300.407 354.393 299.889 354.238 299.37C354.22 299.335 354.22 299.301 354.22 299.266C353.909 298.263 353.615 297.243 353.321 296.24C353.252 296.067 353.2 295.894 353.165 295.722C352.854 294.684 352.543 293.664 352.249 292.626C352.197 292.488 352.163 292.367 352.128 292.229C351.99 291.745 351.834 291.243 351.696 290.759C351.609 290.465 351.523 290.154 351.436 289.86C351.263 289.289 351.091 288.701 350.918 288.131V288.114C350.883 287.992 350.849 287.906 350.831 287.785C350.658 287.249 350.503 286.713 350.347 286.177C349.949 284.846 349.569 283.497 349.171 282.165C348.22 278.932 346.699 275.197 345.817 271.462C344.728 266.828 343.586 260.586 347.511 257.733H347.529Z" fill="#765040"/>
<path fill-rule="evenodd" clip-rule="evenodd" d="M381.719 133.557C381.823 133.47 381.91 133.367 381.996 133.263L382.013 133.246C382.325 133.28 382.636 133.315 382.93 133.367C382.912 133.384 382.912 133.384 382.895 133.384C382.497 133.436 382.117 133.505 381.719 133.557Z" fill="black"/>
<path fill-rule="evenodd" clip-rule="evenodd" d="M245.376 133.525C245.635 133.197 245.877 132.886 246.137 132.574L246.846 131.675C246.586 131.952 246.362 132.246 246.119 132.54C245.877 132.868 245.618 133.197 245.376 133.525Z" fill="#765040"/>
<path fill-rule="evenodd" clip-rule="evenodd" d="M231.182 163.266C231.389 162.574 231.597 161.865 231.821 161.174C232.288 159.635 232.772 158.13 233.274 156.643C233.533 155.9 233.792 155.156 234.052 154.43C234.242 153.877 234.449 153.324 234.657 152.77C234.847 152.251 235.055 151.733 235.262 151.214C235.401 150.851 235.556 150.488 235.694 150.125C235.971 149.468 236.265 148.793 236.559 148.136C236.576 148.084 236.594 148.033 236.628 147.981C236.645 147.929 236.68 147.877 236.697 147.825C236.922 147.306 237.164 146.788 237.406 146.286C236.49 148.067 235.66 149.883 234.882 151.75C234.605 152.355 234.363 152.995 234.138 153.617C233.827 154.465 233.516 155.312 233.222 156.159C232.98 156.816 232.772 157.473 232.582 158.13C232.305 159.012 232.046 159.894 231.804 160.776C231.683 161.225 231.545 161.692 231.441 162.159C231.337 162.522 231.251 162.903 231.182 163.266Z" fill="#765040"/>
<path fill-rule="evenodd" clip-rule="evenodd" d="M277.191 227.295C277.277 227.174 277.364 227.07 277.433 226.949C277.519 226.811 277.623 226.655 277.692 226.5C277.571 226.707 277.45 226.914 277.295 227.122C277.26 227.174 277.226 227.226 277.191 227.295Z" fill="black"/>
<path fill-rule="evenodd" clip-rule="evenodd" d="M372.844 208.965L372.966 209.069C374.574 207.461 375.87 205.524 376.821 203.415C377.79 201.323 378.378 199.023 378.499 196.689C378.516 196.326 378.533 195.963 378.533 195.599C378.533 194.424 378.412 193.231 378.153 192.072C377.582 192.072 377.012 192.055 376.458 192.003C376.476 192.055 376.493 192.107 376.493 192.141C376.597 192.452 376.666 192.764 376.735 193.092C376.752 193.144 376.77 193.196 376.77 193.248C376.839 193.559 376.908 193.87 376.942 194.199C376.942 194.233 376.96 194.268 376.96 194.303C377.012 194.648 377.046 194.977 377.063 195.323V195.427C377.081 195.738 377.098 196.066 377.098 196.378V196.637C377.046 200.977 375.49 205.334 372.844 208.965Z" fill="black"/>
<path fill-rule="evenodd" clip-rule="evenodd" d="M352.667 195.271L352.857 195.686L353.255 195.461C354.378 194.752 355.779 194.372 357.145 194.372C358.511 194.337 359.981 194.666 360.932 195.617C361.952 196.55 362.021 198.141 361.641 199.438C361.312 200.406 360.586 201.271 359.652 201.772C359.341 201.945 359.012 202.066 358.667 202.153L358.701 202.308C359.064 202.239 359.427 202.101 359.756 201.945C359.998 201.824 360.24 201.686 360.465 201.513C360.672 201.34 360.88 201.167 361.07 200.96C361.26 200.752 361.433 200.527 361.571 200.285C361.606 200.233 361.623 200.199 361.641 200.164C361.762 199.974 361.848 199.749 361.935 199.542C362.107 199.006 362.229 198.401 362.229 197.813C362.229 196.896 361.952 195.98 361.278 195.288C360.205 194.164 358.615 193.767 357.162 193.732C355.831 193.697 354.482 193.957 353.237 194.562C353.012 193.853 352.891 193.127 352.891 192.418C352.891 191.173 353.237 189.945 353.963 188.942C354.033 188.839 354.119 188.735 354.206 188.631L354.465 188.32C354.638 188.13 354.828 187.94 355.035 187.749C355.226 187.576 355.433 187.404 355.641 187.248C355.848 187.075 356.073 186.919 356.298 186.781C357.197 186.193 358.2 185.726 359.203 185.363C359.341 185.311 359.479 185.259 359.618 185.225C359.272 184.948 358.926 184.654 358.597 184.36C358.079 184.568 357.56 184.81 357.059 185.087C356.799 185.208 356.557 185.346 356.315 185.502C355.814 185.795 355.347 186.124 354.914 186.487C354.69 186.66 354.482 186.85 354.275 187.058C353.86 187.455 353.497 187.905 353.168 188.389C351.768 190.412 351.698 193.144 352.667 195.271Z" fill="black"/>
<path fill-rule="evenodd" clip-rule="evenodd" d="M358.596 184.361C358.925 184.655 359.271 184.949 359.616 185.225C359.72 185.191 359.824 185.156 359.928 185.121C360.222 185.018 360.533 184.931 360.827 184.862C361.242 184.758 361.64 184.672 362.055 184.603C363.23 184.361 364.423 184.24 365.616 184.274C367.778 184.291 369.905 184.879 371.737 185.848C372.654 186.349 373.449 187.006 374.124 187.767C374.452 188.13 374.763 188.545 375.04 188.96C375.282 189.34 375.507 189.721 375.714 190.136C375.801 190.326 375.887 190.499 375.956 190.689C376.077 190.948 376.181 191.208 376.268 191.467C376.337 191.623 376.389 191.796 376.441 191.951C376.441 191.969 376.458 191.986 376.458 192.003C377.011 192.055 377.582 192.072 378.152 192.072C378.014 191.519 377.858 190.966 377.651 190.43C377.564 190.188 377.461 189.963 377.357 189.721C376.406 187.508 374.66 185.588 372.516 184.464C370.354 183.392 367.985 182.856 365.616 182.908C363.265 182.96 360.965 183.444 358.804 184.274C358.735 184.309 358.665 184.326 358.596 184.361Z" fill="black"/>
<path fill-rule="evenodd" clip-rule="evenodd" d="M207.129 137.087C209.654 145.422 215.464 152.805 223.193 156.782C215.325 148.448 210.466 137.641 210.466 126.073C210.466 109.647 219.89 95.1916 234.207 86.6845C234.207 86.6845 234.224 86.6672 234.241 86.6499H234.259C234.276 86.6326 234.293 86.6326 234.311 86.6153C234.968 86.0966 235.642 85.6297 236.351 85.1975C235.901 85.3877 235.469 85.5952 235.02 85.8026C225.423 90.3329 216.778 97.3011 211.435 106.569C206.178 115.664 204.052 126.903 207.129 137.087ZM382.891 133.387C382.909 133.387 382.909 133.387 382.926 133.37H382.943C384.984 133.076 387.007 132.678 388.995 132.229C402.309 129.22 416.021 122.736 420.378 111.151C420.862 109.889 421.225 108.575 421.467 107.261C417.992 117.462 403.519 126.73 384.534 129.825C383.946 130.915 383.082 132.056 382.01 133.249L381.992 133.266C381.906 133.37 381.819 133.474 381.716 133.56C382.113 133.508 382.494 133.439 382.891 133.387ZM365.445 243.548C374.281 242.821 382.874 239.38 389.669 233.277C401.202 222.902 406.736 206.078 403.329 190.499C402.689 187.629 401.79 184.828 400.615 182.165C400.338 181.491 400.027 180.868 399.698 180.228C399.888 181.006 400.061 181.802 400.217 182.597V182.614C400.822 185.882 401.133 189.254 401.133 192.695C401.133 216.263 386.211 236.268 365.445 243.548ZM208.513 110.01C217.798 90.1772 240.19 78.8344 261.406 77.8315C273.284 77.2782 285.423 80.0448 295.054 87.2205C295.071 87.2378 295.105 87.2551 295.088 87.2724C295.59 87.2551 296.074 87.2551 296.575 87.2724C296.956 87.0995 297.336 86.9093 297.734 86.7364C304.771 83.9006 311.981 84.8516 317.912 88.6384V88.5692C318.085 86.4943 322.563 85.2666 326.679 84.7479C326.073 73.8201 330.552 62.7885 339.733 55.388C350.644 46.6042 365.186 45.4284 377.03 51.0998C379.157 45.6705 383.22 41.365 389.064 39.3074C402.447 34.587 419.721 43.1979 427.658 58.5522C435.058 72.8691 431.704 87.964 420.361 93.7392C423.058 98.3904 423.508 103.681 422.228 108.627C420.707 114.471 416.782 119.537 411.508 123.462C406.078 127.474 399.491 130.258 392.609 132.177C390.24 132.834 387.819 133.404 385.364 133.854C398.367 136.915 408.05 148.621 408.05 162.574C408.05 169.525 405.646 175.906 401.635 180.937C405.698 190.309 406.684 201.081 403.934 211.248C401.842 219.046 397.831 226.222 392.384 231.928C386.695 237.876 379.45 241.957 371.652 243.859C367.883 244.775 364.027 245.19 360.171 245.069H360.154L360.137 245.086C360.119 245.104 360.119 245.104 360.102 245.086C360.085 245.104 360.085 245.104 360.067 245.086H360.05C356.177 246.003 352.235 246.487 348.102 246.487C343.97 246.487 339.716 246.21 335.86 245.277L335.532 236.821C335.601 236.77 335.67 236.735 335.722 236.683C337.33 235.559 338.886 234.349 340.39 233.069C343.537 230.406 346.425 227.398 349.036 224.061L349.053 224.043C349.589 223.369 350.091 222.695 350.592 221.986C350.851 221.657 351.093 221.311 351.301 220.966C351.802 220.274 352.269 219.582 352.736 218.856C356.799 219.859 361.07 219.963 365.151 219.15L365.41 219.098C365.756 219.029 366.119 218.943 366.465 218.873C371.514 217.663 376.234 215.052 379.9 211.144C384.378 206.355 386.522 200.441 386.453 194.545C386.436 193.646 386.367 192.764 386.246 191.865C386.211 191.606 386.177 191.364 386.125 191.104V191.087C385.208 185.45 382.217 180.107 377.203 176.113C375.318 174.609 373.295 173.398 371.151 172.465C368.505 176.442 364.511 179.554 359.583 181.076C358.459 181.439 357.318 181.698 356.177 181.854C352.978 182.32 349.797 182.061 346.823 181.162H346.805H346.788C345.059 181.784 343.122 182.563 341.929 183.894C340.926 185.001 340.961 186.505 341.687 187.594C343.157 186.609 345.076 185.865 346.719 186.003C349.226 186.246 348.967 188.874 347.635 190.326C346.114 191.986 343.693 192.418 341.601 191.727C341.704 191.934 341.808 192.142 341.929 192.332C343.019 193.923 344.592 195.081 344.627 197.191C344.661 199.3 343.364 201.202 341.687 202.361C341.134 202.724 340.425 202.758 340.269 202.015C340.114 201.254 340.926 200.338 341.497 199.957C343.555 198.539 339.785 195.358 339.145 194.113C338.454 192.764 338.661 191.346 339.318 190.119C338.592 189.064 338.367 187.681 338.627 186.297C339.163 183.41 341.238 181.421 343.762 179.986C338.436 177.479 334.166 172.828 332.264 166.776C332.108 166.344 332.022 165.911 331.918 165.479C330.327 166.88 328.408 167.986 326.229 168.661C318.172 171.185 309.578 166.949 306.621 159.133C306.431 158.684 306.275 158.234 306.154 157.75C305.964 157.11 305.826 156.453 305.739 155.796C305.428 153.548 305.618 151.266 306.241 149.122C304.65 148.413 303.111 147.479 301.711 146.269C299.705 144.54 298.166 142.482 297.094 140.234C296.765 140.667 296.471 141.064 296.126 141.479C287.688 151.301 273.354 153.116 262.841 146.131C261.959 145.543 261.112 144.92 260.299 144.194C254.818 139.525 251.826 133.301 251.481 126.609C251.273 126.799 251.1 126.972 250.927 127.162C250.512 127.56 250.132 127.958 249.751 128.373C249.354 128.788 248.973 129.203 248.593 129.635C248.437 129.808 248.299 129.981 248.143 130.137C247.798 130.534 247.452 130.932 247.123 131.33L246.933 131.572L246.898 131.624C246.864 131.624 246.864 131.658 246.847 131.675C246.587 131.952 246.362 132.246 246.12 132.54C245.463 133.353 244.806 134.183 244.218 135.047C244.166 135.099 244.115 135.168 244.08 135.22C243.751 135.635 243.458 136.05 243.164 136.482C242.835 136.897 242.558 137.33 242.264 137.762V137.779C242.161 137.917 242.074 138.073 241.971 138.211C241.849 138.384 241.746 138.557 241.625 138.73C241.573 138.817 241.521 138.903 241.469 138.972C241.417 139.059 241.348 139.145 241.313 139.232C241.262 139.318 241.21 139.387 241.141 139.474C240.933 139.785 240.743 140.113 240.553 140.442C240.501 140.528 240.449 140.615 240.397 140.701C240.241 140.943 240.086 141.203 239.947 141.445C239.705 141.842 239.463 142.257 239.256 142.672C239.169 142.811 239.1 142.949 239.014 143.105C238.979 143.157 238.962 143.208 238.927 143.26C237.406 145.975 236.04 148.811 234.881 151.75C234.605 152.355 234.363 152.995 234.138 153.618C233.809 154.448 233.515 155.312 233.221 156.159C232.979 156.816 232.772 157.473 232.582 158.13C232.288 159.012 232.046 159.894 231.803 160.776C231.682 161.226 231.544 161.692 231.44 162.159C231.337 162.522 231.25 162.903 231.181 163.266C231.181 163.283 231.164 163.3 231.164 163.318C231.164 163.335 231.164 163.352 231.146 163.37C231.146 163.404 231.129 163.439 231.129 163.473C231.112 163.508 231.095 163.525 231.095 163.56C231.095 163.577 231.077 163.594 231.077 163.612C229.452 162.471 227.896 161.243 226.426 159.946C226.409 159.946 226.409 159.929 226.409 159.929C217.504 157.024 210.432 149.796 206.939 141.168C202.841 131.139 203.982 119.676 208.513 110.01Z" fill="black"/>
<path fill-rule="evenodd" clip-rule="evenodd" d="M277.295 227.122C277.45 226.914 277.571 226.707 277.692 226.5C277.623 226.655 277.519 226.811 277.433 226.949C277.364 227.07 277.277 227.174 277.191 227.295C277.226 227.226 277.26 227.174 277.295 227.122Z" fill="#765040"/>
<path fill-rule="evenodd" clip-rule="evenodd" d="M278.592 224.753C278.61 224.719 278.645 224.667 278.645 224.632C278.627 224.649 278.61 224.667 278.61 224.684C278.61 224.719 278.61 224.736 278.592 224.753Z" fill="#765040"/>
<path fill-rule="evenodd" clip-rule="evenodd" d="M277.192 227.294C277.278 227.173 277.364 227.069 277.434 226.948C277.382 227 277.347 227.069 277.295 227.121C277.261 227.173 277.226 227.224 277.192 227.294Z" fill="#765040"/>
<path fill-rule="evenodd" clip-rule="evenodd" d="M340.39 233.069C343.537 230.406 346.424 227.397 349.035 224.06C346.407 227.38 343.502 230.389 340.39 233.069Z" fill="#765040"/>
<path fill-rule="evenodd" clip-rule="evenodd" d="M277.434 226.948C277.52 226.81 277.624 226.654 277.693 226.498C277.572 226.706 277.451 226.913 277.295 227.121C277.261 227.173 277.226 227.225 277.192 227.294C277.278 227.173 277.365 227.069 277.434 226.948ZM352.666 195.271L352.857 195.686L353.254 195.461C354.378 194.752 355.779 194.372 357.145 194.372C358.511 194.337 359.981 194.666 360.932 195.617C361.952 196.551 362.021 198.141 361.64 199.438C361.312 200.406 360.586 201.271 359.652 201.772C359.341 201.945 359.012 202.066 358.666 202.153L358.701 202.308C359.064 202.239 359.41 202.118 359.756 201.945C359.998 201.824 360.24 201.686 360.465 201.513C360.672 201.34 360.88 201.167 361.07 200.96C361.26 200.752 361.433 200.527 361.571 200.285C361.606 200.234 361.623 200.199 361.64 200.164C361.761 199.974 361.848 199.749 361.934 199.542C362.107 199.006 362.228 198.401 362.228 197.813C362.228 196.896 361.952 195.98 361.277 195.288C360.205 194.164 358.615 193.767 357.162 193.732C355.831 193.698 354.482 193.957 353.237 194.562C353.012 193.853 352.891 193.127 352.891 192.418C352.891 191.173 353.237 189.945 353.963 188.943C354.032 188.839 354.119 188.735 354.205 188.631L354.465 188.32C354.638 188.13 354.828 187.94 355.035 187.75C355.226 187.577 355.433 187.404 355.64 187.248C355.848 187.075 356.073 186.92 356.298 186.781C357.197 186.193 358.2 185.726 359.202 185.363C359.341 185.311 359.479 185.26 359.617 185.225C359.721 185.19 359.825 185.156 359.929 185.121C360.223 185.018 360.534 184.931 360.828 184.862C361.243 184.758 361.64 184.672 362.055 184.603C363.231 184.36 364.424 184.239 365.617 184.274C367.779 184.291 369.905 184.879 371.738 185.848C372.655 186.349 373.45 187.006 374.124 187.767C374.453 188.13 374.764 188.545 375.041 188.96C375.283 189.34 375.508 189.721 375.715 190.136C375.802 190.326 375.888 190.499 375.957 190.689C376.078 190.948 376.182 191.208 376.269 191.467C376.338 191.623 376.39 191.796 376.441 191.951C376.441 191.968 376.459 191.986 376.459 192.003C376.476 192.055 376.493 192.107 376.493 192.141C376.597 192.453 376.666 192.764 376.735 193.092C376.753 193.144 376.77 193.196 376.77 193.248C376.839 193.559 376.891 193.888 376.943 194.199C376.943 194.234 376.96 194.268 376.96 194.303C377.012 194.649 377.047 194.977 377.064 195.323V195.427C377.081 195.738 377.099 196.066 377.099 196.378V196.637C377.047 200.977 375.49 205.334 372.845 208.965L372.966 209.069C374.574 207.461 375.871 205.525 376.822 203.415C377.79 201.323 378.378 199.023 378.499 196.689C378.516 196.326 378.534 195.963 378.534 195.6C378.534 194.424 378.413 193.231 378.153 192.072C378.015 191.519 377.859 190.966 377.652 190.43C377.565 190.188 377.462 189.963 377.358 189.721C376.407 187.507 374.66 185.588 372.516 184.464C370.355 183.392 367.986 182.856 365.617 182.908C363.266 182.96 360.966 183.444 358.805 184.274C358.736 184.309 358.666 184.326 358.597 184.36C358.079 184.568 357.56 184.81 357.058 185.087C356.799 185.208 356.557 185.346 356.315 185.502C355.813 185.796 355.347 186.124 354.914 186.487C354.689 186.66 354.465 186.868 354.275 187.058C353.86 187.456 353.496 187.905 353.168 188.389C351.767 190.412 351.698 193.144 352.666 195.271ZM224.662 188.908C225.89 187.767 227.446 187.006 229.054 186.591C228.985 185.26 228.915 183.894 228.915 182.528C228.915 175.992 229.659 169.663 231.077 163.611C231.077 163.594 231.094 163.577 231.094 163.56C231.094 163.525 231.111 163.508 231.129 163.473C231.129 163.439 231.146 163.404 231.146 163.369C231.163 163.352 231.163 163.335 231.163 163.317C231.163 163.3 231.181 163.283 231.181 163.266C231.388 162.574 231.596 161.865 231.82 161.173C232.287 159.635 232.771 158.13 233.273 156.643C233.532 155.9 233.792 155.156 234.051 154.43C234.241 153.877 234.449 153.323 234.656 152.77C234.846 152.251 235.054 151.733 235.261 151.214C235.4 150.851 235.555 150.488 235.694 150.125C235.97 149.467 236.264 148.793 236.558 148.136C236.575 148.084 236.593 148.032 236.627 147.98C236.644 147.929 236.679 147.877 236.696 147.825C236.921 147.306 237.163 146.787 237.405 146.286C237.457 146.182 237.509 146.078 237.544 145.992C237.561 145.957 237.578 145.94 237.596 145.906C237.613 145.836 237.647 145.784 237.682 145.715V145.698C237.855 145.335 238.045 144.989 238.235 144.626C238.408 144.297 238.564 143.969 238.737 143.64C238.789 143.502 238.858 143.381 238.927 143.26C238.961 143.208 238.979 143.156 239.013 143.104C239.1 142.949 239.169 142.81 239.255 142.672C239.463 142.257 239.705 141.842 239.947 141.444C240.085 141.202 240.241 140.943 240.397 140.701C240.448 140.615 240.5 140.528 240.552 140.442C240.742 140.113 240.933 139.785 241.14 139.473C241.209 139.387 241.261 139.318 241.313 139.231C241.348 139.145 241.417 139.058 241.469 138.972C241.521 138.903 241.572 138.816 241.624 138.73C241.745 138.557 241.849 138.384 241.97 138.211C242.074 138.073 242.16 137.917 242.264 137.779V137.762C242.558 137.329 242.835 136.897 243.163 136.482C243.457 136.05 243.751 135.635 244.08 135.22C244.114 135.168 244.166 135.099 244.218 135.047C244.529 134.632 244.84 134.2 245.169 133.785C245.186 133.767 245.203 133.733 245.221 133.715C245.273 133.646 245.325 133.577 245.376 133.525C245.636 133.197 245.878 132.885 246.137 132.574L246.846 131.675L246.898 131.623L246.933 131.571L247.123 131.329C247.451 130.932 247.797 130.534 248.143 130.136C248.299 129.981 248.437 129.808 248.593 129.635C248.973 129.203 249.353 128.788 249.751 128.373C250.131 127.958 250.512 127.56 250.927 127.162C251.1 126.972 251.273 126.799 251.48 126.609C251.826 133.3 254.817 139.525 260.298 144.194C261.111 144.92 261.958 145.542 262.84 146.13C273.353 153.116 287.687 151.3 296.125 141.479C296.471 141.064 296.765 140.666 297.093 140.234C298.166 142.482 299.704 144.54 301.71 146.269C303.111 147.479 304.65 148.413 306.24 149.122C305.618 151.266 305.428 153.548 305.739 155.796C305.825 156.453 305.964 157.11 306.154 157.75C306.275 158.234 306.431 158.684 306.621 159.133C309.578 166.949 318.171 171.185 326.229 168.66C328.407 167.986 330.327 166.879 331.917 165.479C332.021 165.911 332.108 166.343 332.263 166.776C334.165 172.827 338.436 177.479 343.762 179.986C341.237 181.421 339.162 183.409 338.626 186.297C338.367 187.68 338.592 189.064 339.318 190.118C338.661 191.346 338.453 192.764 339.145 194.113C339.785 195.358 343.554 198.539 341.497 199.957C340.926 200.337 340.113 201.254 340.269 202.015C340.425 202.758 341.133 202.723 341.687 202.36C343.364 201.202 344.661 199.3 344.626 197.19C344.592 195.081 343.018 193.922 341.929 192.332C341.808 192.141 341.704 191.934 341.6 191.726C343.692 192.418 346.113 191.986 347.635 190.326C348.966 188.873 349.226 186.245 346.718 186.003C345.076 185.865 343.156 186.608 341.687 187.594C340.961 186.505 340.926 185 341.929 183.894C343.122 182.562 345.058 181.784 346.788 181.162H346.805H346.822C349.796 182.061 352.978 182.32 356.177 181.853C357.318 181.698 358.459 181.438 359.583 181.075C364.511 179.554 368.505 176.441 371.15 172.464C373.295 173.398 375.318 174.608 377.202 176.113C382.217 180.107 385.208 185.45 386.124 191.087V191.104C386.176 191.363 386.211 191.605 386.245 191.865C386.366 192.764 386.436 193.646 386.455 194.545C386.522 200.441 384.378 206.355 379.9 211.144C376.234 215.052 371.514 217.663 366.465 218.873C366.119 218.942 365.756 219.029 365.41 219.098L365.15 219.15C361.104 219.859 356.885 219.72 352.857 218.683C352.822 218.735 352.788 218.804 352.736 218.856C352.269 219.582 351.802 220.274 351.3 220.965C351.093 221.311 350.851 221.657 350.592 221.985C350.09 222.694 349.589 223.369 349.053 224.043L349.035 224.06C346.407 227.38 343.502 230.389 340.39 233.069C338.886 234.348 337.329 235.559 335.721 236.683C335.67 236.735 335.6 236.769 335.531 236.821L335.86 245.276L336.327 257.311L336.482 261.253V261.305L336.499 261.72L336.517 261.997V262.17L336.69 266.734C336.015 267.34 335.237 267.927 334.373 268.498C333.664 268.982 332.903 269.432 332.108 269.881C331.641 270.141 331.157 270.4 330.672 270.642C329.445 271.265 328.148 271.852 326.817 272.388C326.004 272.717 325.191 273.028 324.361 273.322C323.514 273.633 322.667 273.893 321.819 274.135C320.108 274.636 318.413 275.034 316.805 275.328C316.356 275.414 315.906 275.484 315.456 275.553C314.99 275.622 314.523 275.674 313.969 275.726V275.691C313.952 275.708 313.952 275.708 313.935 275.726C312.206 275.881 310.684 275.847 309.422 275.605C307.122 275.207 305.687 274.135 305.687 272.181C305.687 272.181 305.652 270.435 305.618 268.187C305.618 268.187 305.635 267.08 305.653 265.61C305.653 265.351 305.635 265.074 305.653 264.798C305.653 262.204 305.67 258.988 305.687 258.331V258.21V257.605C305.998 257.484 306.327 257.328 306.725 257.103H306.759C307.797 256.585 309.128 255.772 310.65 254.786C317.013 250.688 326.574 243.461 331.312 239.812C331.364 239.778 331.433 239.726 331.485 239.691C332.056 239.242 332.557 238.861 332.955 238.567L305.687 248.458V248.544C305.67 248.562 305.635 248.562 305.618 248.562C299.601 249.616 293.22 250.135 286.511 250.135C274.235 250.135 259.296 247.662 249.44 237.305C243.941 231.547 239.238 224.406 235.728 216.228C234.241 212.839 232.996 209.277 231.976 205.559C231.924 205.559 231.907 205.611 231.838 205.611C226.685 205.663 222.449 201.029 222.051 195.945C221.809 193.334 222.76 190.672 224.662 188.908Z" fill="#765040"/>
<path fill-rule="evenodd" clip-rule="evenodd" d="M332.955 238.568C332.557 238.862 332.056 239.242 331.485 239.692C331.433 239.726 331.364 239.778 331.312 239.813C326.575 243.461 317.013 250.689 310.65 254.787C309.128 255.772 307.797 256.585 306.759 257.104H306.725C306.327 257.329 305.999 257.484 305.687 257.605V248.458L332.955 238.568Z" fill="#765040"/>
<path fill-rule="evenodd" clip-rule="evenodd" d="M305.687 248.458V257.605C305.999 257.484 306.327 257.328 306.725 257.104H306.759C307.797 256.585 309.128 255.772 310.65 254.787C317.013 250.689 326.575 243.461 331.312 239.813C331.364 239.778 331.433 239.726 331.485 239.692C332.056 239.242 332.557 238.862 332.955 238.568L305.687 248.458Z" fill="#765040"/>
<path fill-rule="evenodd" clip-rule="evenodd" d="M282.205 209.917C282.205 218.406 289.07 225.271 297.542 225.271C306.032 225.271 312.896 218.406 312.896 209.917C312.896 201.444 306.032 194.58 297.542 194.58C289.07 194.58 282.205 201.444 282.205 209.917Z" fill="#C57450"/>
<path fill-rule="evenodd" clip-rule="evenodd" d="M352.663 195.271L352.871 195.686L353.251 195.461C354.375 194.752 355.776 194.372 357.159 194.372C358.525 194.338 359.977 194.666 360.946 195.617C361.949 196.551 362.018 198.142 361.637 199.438C361.188 200.735 360.047 201.824 358.681 202.153L358.715 202.309C360.15 202.015 361.395 200.943 361.931 199.542C362.398 198.176 362.415 196.43 361.274 195.289C360.202 194.165 358.629 193.767 357.159 193.732C355.828 193.698 354.479 193.957 353.251 194.562C352.612 192.643 352.819 190.534 353.978 188.943C355.188 187.214 357.194 186.107 359.217 185.364C361.257 184.637 363.453 184.222 365.632 184.274C367.776 184.291 369.902 184.879 371.735 185.848C375.487 187.923 377.165 192.332 377.095 196.637C377.044 200.977 375.487 205.335 372.842 208.966L372.98 209.069C374.571 207.461 375.885 205.525 376.819 203.415C377.787 201.323 378.392 199.023 378.496 196.689C378.634 194.355 378.358 191.934 377.355 189.721C376.404 187.508 374.675 185.588 372.513 184.464C370.352 183.392 367.983 182.856 365.614 182.908C363.28 182.96 360.98 183.444 358.802 184.274C356.658 185.139 354.531 186.366 353.165 188.389C351.782 190.412 351.695 193.144 352.663 195.271Z" fill="black"/>
<path fill-rule="evenodd" clip-rule="evenodd" d="M279.643 156.663C279.954 157 280.404 156.95 280.767 156.713C280.94 156.595 281.269 156.443 281.511 156.392C281.857 156.308 282.081 156.291 282.462 156.308C282.721 156.342 283.033 156.409 283.344 156.544C283.361 156.561 283.482 156.612 283.482 156.612C283.569 156.663 283.638 156.713 283.707 156.764C283.863 156.865 283.897 156.882 284.001 156.983C284.935 157.895 284.987 159.399 284.243 160.429C283.984 160.783 284.14 161.307 284.486 161.527C284.866 161.763 285.333 161.628 285.592 161.273C286.751 159.686 286.578 157.203 285.108 155.852C283.603 154.467 281.338 154.366 279.695 155.531C279.331 155.784 279.383 156.375 279.643 156.663Z" fill="black"/>
<path fill-rule="evenodd" clip-rule="evenodd" d="M271.263 199.669C274.05 200.004 276.869 195.264 277.55 189.067C278.247 182.869 276.545 177.576 273.775 177.225C270.988 176.89 268.168 181.63 267.488 187.827C266.791 194.025 268.492 199.318 271.263 199.669Z" fill="black"/>
<path fill-rule="evenodd" clip-rule="evenodd" d="M274.247 172.878C274.231 173.389 274.552 173.748 274.954 173.805C277.041 174.051 278.984 175.849 279.69 178.234C279.819 178.688 280.14 179.029 280.573 178.915C280.926 178.821 281.264 178.291 281.135 177.855C280.188 174.657 277.812 172.367 275.002 172.026C274.601 171.969 274.247 172.423 274.247 172.878Z" fill="black"/>
<path fill-rule="evenodd" clip-rule="evenodd" d="M260.032 223.663C266.369 224.486 272.988 222.204 277.449 217.004C277.832 216.56 277.781 215.889 277.335 215.507C276.893 215.125 276.222 215.171 275.838 215.621C269.563 222.926 258.514 223.767 251.209 217.497C250.768 217.117 250.095 217.163 249.71 217.611C249.328 218.057 249.379 218.728 249.824 219.11C252.822 221.681 256.381 223.189 260.032 223.663Z" fill="black"/>
</g>
<defs>
<clipPath id="clip0">
<rect width="566" height="669" fill="white"/>
</clipPath>
</defs>
</svg>
