<svg width="643" height="817" viewBox="0 0 643 817" fill="none" xmlns="http://www.w3.org/2000/svg">
<path fill-rule="evenodd" clip-rule="evenodd" d="M151.728 358.628C151.511 367.007 162.634 362.718 158.056 356.679C155.018 353.11 152.632 354.665 151.728 358.628ZM174.961 390.709C175.775 399.757 177.483 411.462 170.615 418.514C167.299 421.539 162.398 420.639 158.336 419.982C147.159 417.961 144.922 406.424 143.203 396.974C142.594 395.234 141.401 397.824 140.904 398.44C135.763 406.106 129.894 413.593 121.636 418.073C106.597 425.998 97.455 411.95 100.462 397.88C101.541 390.248 107.953 385.185 113.153 380.105C115.698 378.27 113.793 377.797 111.716 378.128C97.6776 380.549 90.8938 376.655 92.1469 361.568C93.5855 351.822 104.488 347.614 112.73 344.82C115.277 344.081 115.275 344.113 114.219 341.655C112.445 337.525 110.834 333.354 109.896 328.923C107.946 319.662 112.879 306.832 123.32 306.428C136.425 305.526 143.422 318.116 149.088 327.724C149.107 308.919 168.785 297.581 186.266 299.061C195.616 299.176 200.404 308.471 200.487 316.886C200.716 323.696 195.24 328.843 192.55 334.621C205.646 335.747 222.712 338.947 227.574 353.013C228.528 355.439 227.836 357.552 226.079 359.375C221.66 364.878 208.793 364.925 210.63 367.198C213.305 375.857 215.434 384.63 216.516 393.639C217.31 399.119 214.394 402.712 210.078 405.412C196.624 413.537 182.955 400.328 174.961 390.709Z" fill="#F55B80"/>
<path fill-rule="evenodd" clip-rule="evenodd" d="M306.148 338.004C306.457 321.625 336.476 324.68 337.945 315.308C339.418 308.463 341.196 301.363 347.209 297.049C360.702 285.316 375.492 288.015 388.464 298.916C399.238 308.299 406.186 268.022 435.995 288.55C447.896 294.647 451.38 318.588 460.612 318.298C470.405 315.553 479.614 321.048 485.701 328.536C488.006 333.377 509.362 349.813 497.389 351.8C483.454 351.899 469.575 350.282 455.81 348.809C435.396 348.881 414.846 349.285 394.379 349.09C366.876 347.517 339.364 350.425 311.982 348.719C310.374 348.585 307.822 348.424 307.996 346.265C307.624 343.462 306.504 340.843 306.148 338.004Z" fill="#7DB4DB"/>
<path fill-rule="evenodd" clip-rule="evenodd" d="M496.792 503.427C511.529 502.306 511.955 483.025 497.25 480.36C481.201 476.41 479.334 504.598 496.792 503.427ZM498.162 419.368C501.698 415.431 509.44 401.557 514.878 408.668C522.392 421.398 527.314 435.19 535.108 447.851C525.415 443.765 515.196 450.526 514.841 460.878C514.315 476.575 538.908 476.296 542.445 462.609C543.45 459.585 550.867 475.806 551.701 477.494C552.081 478.427 552.495 479.279 551.462 479.987C541.591 485.929 542.087 500.94 554.466 503.809C556.207 504.447 558.913 503.287 559.72 505.472C562.722 512.183 565.488 518.989 567.931 525.925C572.584 537.254 558.317 534.365 551.556 534.599C550.422 534.593 550.284 534.367 550.322 533.238C550.493 528.061 548.425 524.021 544.2 521.037C541.31 518.031 538.147 515.109 533.824 517.445C528.025 520.603 524.158 527.135 524.531 533.783C524.601 534.906 523.892 535.082 522.95 535.023C508.179 535.203 493.376 535.868 478.635 534.616C475.311 534.783 482.971 525.134 475.032 518.714C466.603 505.481 447.611 521.267 455.44 533.215C405.806 524.6 416.348 536.353 431.317 504.41C433.111 500.723 444.962 512.826 454.235 499.952C460.549 490.702 446.483 486.677 447.721 481.139C451.351 476.898 454.861 472.551 458.439 468.266C459.644 466.18 460.98 469.354 462.331 469.841C475.909 480.081 494.35 451.642 477.019 445.74C477.599 444.141 489.462 429.499 491.964 427.346C491.469 436.845 504.5 443.935 510.566 435.319C518.871 426.342 506.869 416.184 498.162 419.368Z" fill="#EBBF5E"/>
<path fill-rule="evenodd" clip-rule="evenodd" d="M627.98 299.038C627.094 308.077 627.102 317.423 622.518 325.562C616.553 338.12 609.65 351.581 597.155 358.787C566.209 377.808 534.447 361.226 529.354 326.011C528.288 319.864 527.692 313.638 526.734 307.47C525.736 303.43 527.818 299.243 526.283 295.427C525.624 294.458 525.97 293.695 527.092 292.83C542.055 284.35 557.891 298.577 564.26 311.582C567.961 317.131 569.313 283.974 572.178 281.883C575.221 276.85 582.311 279.746 586.444 281.858C592.687 285.526 592.448 293.869 593.006 300.231C593.601 302.663 592.906 312.655 597.031 307.26C603.814 298.691 602.612 286.761 608.699 277.907C617.352 267.501 628.943 291.37 627.98 299.038Z" fill="#60D6E1"/>
<path fill-rule="evenodd" clip-rule="evenodd" d="M615.201 451.614C615.409 470.429 618.323 488.958 620.758 507.572C621.433 513.581 621.908 519.613 622.476 525.635C622.625 527.213 622.522 527.392 620.861 527.378C615.375 527.442 610.309 525.036 605.007 524.545C601.911 524.209 599.683 522.773 598.343 519.89C593.142 510.571 588.413 501.485 596.733 492.243C614.262 467.779 580.787 459.813 595.138 437.029C611.33 419.695 601.859 414.41 599.849 394.926C601.153 375.262 631.619 370.052 634.33 392.179C637.411 404.012 622.047 424.261 628.296 431.245C639.824 442.771 636.837 457.784 637.465 472.525C639.81 486.019 646.888 495.67 640.192 510.076C638.213 514.406 637.844 520.286 632.556 521.864C629.812 521.72 625.071 529.133 624.681 523.707C623.57 505.705 620.135 487.994 618.454 470.054C617.657 460.406 617.941 450.742 617.636 441.094C614.199 435.316 615.63 450.045 615.376 451.601C615.318 451.605 615.26 451.61 615.201 451.614Z" fill="#52DC82"/>
<path fill-rule="evenodd" clip-rule="evenodd" d="M176.089 536.537C178.068 540.233 159.188 539.358 156.429 540.229C156.424 540.17 156.419 540.111 156.414 540.052C154.224 540.392 151.485 539.114 149.887 541.154C148.028 543.082 146.006 539.196 146.555 537.488C146.734 536.727 146.852 535.9 146.756 535.134C146.079 529.725 144.648 524.483 143.218 519.237C143.101 516.131 139.5 510.311 142.323 508.222C150.067 503.644 157.636 498.781 165.254 494.003C169.527 489.09 174.38 531.996 176.089 536.537ZM195.621 442.883C201.158 448.431 205.642 454.726 209.047 461.765C211.647 468.667 217.523 479.527 215.993 486.582C207.528 500.432 200.819 516.411 202.443 532.93C202.63 535.733 202.613 535.916 199.813 536.283C196.645 535.932 178.493 539.73 178.952 536.533C176.176 521.848 173.108 507.212 169.989 492.599C169.673 489.053 175.054 487.926 176.927 485.342C182.842 480.877 189.729 470.043 177.254 469.844C174.141 469.072 166.329 472.778 167.528 467.274C168.209 458.368 171.252 450.344 176.643 443.198C178.858 440.252 183.091 442.032 186.253 441.554V441.507C189.348 441.906 193.204 440.418 195.621 442.883ZM217.809 489.682C218.946 496.692 225.139 532.408 219.715 535.105C215.572 535.271 211.43 535.425 207.288 535.566C205.392 535.631 205.447 535.606 205.196 533.74C203.612 518.399 209.029 501.922 217.809 489.682ZM270.872 486.577C271.884 488.407 271.877 488.438 270.425 489.881C259.242 500.937 253.904 515.806 253.215 531.273C253.061 533.232 252.927 533.368 250.898 533.492C242.563 534.173 234.215 534.586 225.852 534.725C222.625 535.189 224.934 529.389 224.464 527.585C224.362 513.813 222.478 500.575 220.094 487.128C221.677 479.531 230.409 472.228 236.804 467.986C250.869 460.159 264.449 475.331 270.872 486.577ZM278.64 516.961C278.203 520.94 277.81 524.924 277.31 528.894C277.254 532.364 272.425 531.136 270.028 531.817C266.042 532.188 262.041 532.433 258.056 532.807C256.161 533.116 255.947 532.975 255.987 530.996C256.092 525.869 257.034 520.869 258.444 515.953C260.921 507.318 265.001 499.565 271.218 493C275.509 486.363 278.945 514.153 278.64 516.961ZM304.041 494.411C308.951 504.492 313.945 514.534 318.924 524.582C319.841 526.431 319.705 526.748 317.655 526.938C305.621 527.86 293.668 529.55 281.643 530.55C280.313 530.604 280.009 530.253 280.178 528.845C282.346 516.358 281.249 503.801 276.534 492.03C275.366 488.989 275.346 489.006 277.983 487.144C283.387 483.328 289.471 481.311 295.962 480.382C298.986 479.359 302.054 491.932 304.041 494.411ZM302.939 479.941C326.315 479.341 341.54 500.905 348.325 520.927C348.691 522.314 349.585 523.797 347.458 523.704C342.997 523.309 322.82 528.269 322.07 524.568C314.634 510.664 308.287 496.205 301.421 482.011C300.458 480.24 301.073 479.784 302.939 479.941ZM334.731 430.495C336.406 433.046 349.825 443.341 347.038 445.318C340.426 454.168 341.459 465.672 344.864 475.586C349.861 487.938 351.791 502.388 360.883 512.578C366.582 519.412 382.609 521.442 383.256 509.772C381.772 485.781 369.031 462.548 352.831 445.117C353.007 439.561 369.236 442.6 373.021 444.093C377.912 445.535 376.694 444.634 378.788 448.997C382.492 458.06 387.692 466.489 391.978 475.146C392.773 483.316 394.271 491.461 393.961 499.686C394.063 499.691 394.166 499.697 394.268 499.702C393.964 503.285 393.644 506.866 393.37 510.451L393.397 510.742C393.672 513.728 393.901 516.972 390.328 517.879C378.27 521.168 365.609 521.316 353.286 523.102C351.841 523.437 351.696 522.102 351.357 521.085C347.873 510.095 342.262 500.292 334.691 491.612C329.088 485.188 322.285 480.607 313.895 478.6C310.101 476.694 299.684 478.738 298.5 475.53C292.935 462.397 287.599 449.034 285.237 434.896C285.047 433.821 285.277 433.502 286.316 433.383C299.493 431.914 312.712 430.884 325.942 430.06C328.787 430.383 332.477 428.338 334.731 430.495ZM351.284 447.638C366.921 464.084 377.349 485.707 380.567 508.155C380.87 519.046 366.372 515.91 361.971 509.641C357.079 504.115 355.436 496.697 352.793 489.987C348.659 476.64 340.059 461.096 348.734 447.82C349.807 446.244 349.972 446.255 351.284 447.638ZM166.401 488.343C166.585 489.609 165.998 490.227 165.082 490.812C156.941 496.023 149.045 501.233 140.587 505.977C138.511 475.638 130.425 481.497 151.697 475.908C169.244 471.871 163.427 473.201 166.401 488.343ZM175.668 472.396C182.201 472.533 183.311 474.553 178.822 479.643C177.554 480.852 169.025 490.349 168.781 486.182C168.187 474.007 163.33 472.808 175.668 472.396ZM282.458 435.715C283.437 439.95 284.283 444.224 285.469 448.401C288.055 457.505 291.53 466.296 295.255 474.99C296.365 477.583 296.357 477.543 293.631 477.999C287.29 479.057 281.432 481.328 276.173 485.06C274.519 486.591 273.698 486.407 272.823 484.324C256.795 458.371 237.237 455.235 219.261 481.445C214.284 467.065 209.443 452.356 198.08 441.338C225.564 439.214 252.812 436.621 280.241 434.067C282.052 433.862 282.025 433.84 282.458 435.715ZM171.898 441.411C172.528 441.573 173.158 441.734 173.788 441.896C156.048 469.996 175.928 469.693 150.793 473.363C148.205 473.187 135.721 479.207 136.518 475.101C136.213 470.64 135.94 466.165 135.173 461.754C133.577 457.798 128.578 451.014 135.379 448.908C147.264 445.283 159.261 441.15 171.864 441.704C171.876 441.606 171.886 441.509 171.898 441.411ZM381.245 447.132C384.228 448.434 389.88 449.092 390.803 452.407C391.442 457.688 391.86 462.897 391.79 468.253C387.435 461.65 384.411 454.413 381.245 447.132ZM390.024 447.471C386.359 445.282 381.352 445.045 378.538 441.935C378.161 439.404 369.88 426.102 373.438 426.013C394.264 424.459 390.241 423.195 390.024 447.471ZM374.938 441.487C343.139 432.598 358.761 453.357 337.883 429.181C347.683 428.028 357.769 427.545 367.652 426.441C370.261 425.97 373.711 438.833 374.938 441.487Z" fill="#60D6E1"/>
<path fill-rule="evenodd" clip-rule="evenodd" d="M456.791 390.934C458.233 391.418 460.322 392.488 458.639 394.102C450.653 406.37 443.641 419.631 433.127 429.949C424.868 424.673 426.698 423.825 432.419 417.622C440.713 409.024 448.331 399.033 456.791 390.934ZM463.737 394.354C479.432 396.234 444.399 422.401 440.33 426.127C440.275 426.042 440.219 425.958 440.163 425.873C448.098 416.32 454.232 405.518 460.947 395.113C461.951 393.555 462.001 393.61 463.737 394.354ZM453.837 389.575C445.377 400.457 435.939 410.262 426.657 420.411C425.582 421.58 425.42 421.554 424.699 420.147C421.865 416.157 426.736 412.679 429.002 409.475C434.561 402.768 440.077 396.012 445.664 389.334C447.956 387.271 450.783 389.49 453.837 389.575ZM443.381 387.999C436.739 396.683 429.516 404.737 422.743 413.304C421.116 415.117 420.69 410.751 420.185 409.76C419.931 408.748 420.17 407.799 420.846 406.898C425.206 401.076 429.56 395.248 433.819 389.353C435.966 386.243 440.139 387.627 443.381 387.999ZM431.9 387.803C427.706 393.554 423.945 399.466 419.076 405.12C418.421 399.612 414.796 393.873 418.578 389.256C418.578 385.73 429.397 387.394 431.9 387.803Z" fill="#F55B80"/>
<g opacity="0.288">
<g opacity="0.288">
<path opacity="0.288" fill-rule="evenodd" clip-rule="evenodd" d="M566.253 358.989C588.218 468.62 552.088 555.179 475.052 618.825C398.175 682.471 280.553 723.205 212.43 678.016C144.308 632.668 125.526 501.398 162.453 371.56C199.22 241.562 291.535 112.997 377.802 115.066C464.07 116.975 544.289 249.518 566.253 358.989Z" fill="#F4ECFF"/>
</g>
</g>
<path fill-rule="evenodd" clip-rule="evenodd" d="M508.692 79.2324C541.714 79.2324 568.485 106.002 568.485 139.025C568.485 172.047 541.714 198.818 508.692 198.818C475.669 198.818 448.899 172.047 448.899 139.025C448.899 106.002 475.669 79.2324 508.692 79.2324ZM508.692 107.579C491.325 107.579 477.246 121.658 477.246 139.025C477.246 156.392 491.325 170.471 508.692 170.471C526.059 170.471 540.138 156.392 540.138 139.025C540.138 121.658 526.059 107.579 508.692 107.579Z" fill="#FFB748"/>
<path d="M495.764 142.258H238.817C223.199 142.258 210.537 154.919 210.537 170.538V669.887C210.537 685.505 223.199 698.167 238.817 698.167H495.764C511.382 698.167 524.044 685.505 524.044 669.887V170.538C524.044 154.919 511.382 142.258 495.764 142.258Z" fill="#902EE9"/>
<path d="M495.764 125.289H238.817C223.199 125.289 210.537 137.951 210.537 153.569V652.918C210.537 668.537 223.199 681.198 238.817 681.198H495.764C511.382 681.198 524.044 668.537 524.044 652.918V153.569C524.044 137.951 511.382 125.289 495.764 125.289Z" fill="#BE6FFB"/>
<path d="M495.764 137.408H237.201C229.169 137.408 222.657 143.92 222.657 151.952V590.7C222.657 598.733 229.169 605.244 237.201 605.244H495.764C503.796 605.244 510.308 598.733 510.308 590.7V151.952C510.308 143.92 503.796 137.408 495.764 137.408Z" fill="white"/>
<path d="M367.695 662.614C378.628 662.614 387.491 653.751 387.491 642.818C387.491 631.885 378.628 623.021 367.695 623.021C356.761 623.021 347.898 631.885 347.898 642.818C347.898 653.751 356.761 662.614 367.695 662.614Z" fill="#902EE9"/>
<path d="M411.303 155.994H250.129C245.221 155.994 241.241 159.973 241.241 164.882V253.643C241.241 258.552 245.221 262.532 250.129 262.532H411.303C416.211 262.532 420.191 258.552 420.191 253.643V164.882C420.191 159.973 416.211 155.994 411.303 155.994Z" fill="#E6D3FF"/>
<path d="M397.921 177.301H262.749C260.964 177.301 259.517 178.748 259.517 180.533V182.44C259.517 184.225 260.964 185.672 262.749 185.672H397.921C399.706 185.672 401.153 184.225 401.153 182.44V180.533C401.153 178.748 399.706 177.301 397.921 177.301Z" fill="#BE6FFB"/>
<path d="M397.921 194.805H262.749C260.964 194.805 259.517 196.252 259.517 198.037V199.944C259.517 201.729 260.964 203.176 262.749 203.176H397.921C399.706 203.176 401.153 201.729 401.153 199.944V198.037C401.153 196.252 399.706 194.805 397.921 194.805Z" fill="#BE6FFB"/>
<path d="M397.921 212.307H262.749C260.964 212.307 259.517 213.754 259.517 215.539V217.446C259.517 219.231 260.964 220.678 262.749 220.678H397.921C399.706 220.678 401.153 219.231 401.153 217.446V215.539C401.153 213.754 399.706 212.307 397.921 212.307Z" fill="#BE6FFB"/>
<path d="M337.763 229.809H262.749C260.964 229.809 259.517 231.256 259.517 233.041V234.948C259.517 236.733 260.964 238.18 262.749 238.18H337.763C339.548 238.18 340.995 236.733 340.995 234.948V233.041C340.995 231.256 339.548 229.809 337.763 229.809Z" fill="#BE6FFB"/>
<path d="M411.303 420.814H250.129C245.221 420.814 241.241 424.794 241.241 429.703V518.464C241.241 523.373 245.221 527.352 250.129 527.352H411.303C416.211 527.352 420.191 523.373 420.191 518.464V429.703C420.191 424.794 416.211 420.814 411.303 420.814Z" fill="#E6D3FF"/>
<path d="M397.921 442.123H262.749C260.964 442.123 259.517 443.57 259.517 445.355V447.262C259.517 449.047 260.964 450.494 262.749 450.494H397.921C399.706 450.494 401.153 449.047 401.153 447.262V445.355C401.153 443.57 399.706 442.123 397.921 442.123Z" fill="#BE6FFB"/>
<path d="M397.921 459.625H262.749C260.964 459.625 259.517 461.072 259.517 462.857V464.764C259.517 466.549 260.964 467.996 262.749 467.996H397.921C399.706 467.996 401.153 466.549 401.153 464.764V462.857C401.153 461.072 399.706 459.625 397.921 459.625Z" fill="#BE6FFB"/>
<path d="M397.921 477.127H262.749C260.964 477.127 259.517 478.574 259.517 480.359V482.266C259.517 484.051 260.964 485.498 262.749 485.498H397.921C399.706 485.498 401.153 484.051 401.153 482.266V480.359C401.153 478.574 399.706 477.127 397.921 477.127Z" fill="#BE6FFB"/>
<path d="M337.763 494.631H262.749C260.964 494.631 259.517 496.078 259.517 497.863V499.77C259.517 501.555 260.964 503.002 262.749 503.002H337.763C339.548 503.002 340.995 501.555 340.995 499.77V497.863C340.995 496.078 339.548 494.631 337.763 494.631Z" fill="#BE6FFB"/>
<path d="M483.643 288.404H322.47C317.561 288.404 313.582 292.384 313.582 297.292V386.054C313.582 390.962 317.561 394.942 322.47 394.942H483.643C488.552 394.942 492.531 390.962 492.531 386.054V297.292C492.531 292.384 488.552 288.404 483.643 288.404Z" fill="#F4ECFF"/>
<path d="M470.262 309.711H335.089C333.304 309.711 331.857 311.158 331.857 312.943V314.85C331.857 316.635 333.304 318.082 335.089 318.082H470.262C472.047 318.082 473.494 316.635 473.494 314.85V312.943C473.494 311.158 472.047 309.711 470.262 309.711Z" fill="#CCA4FF"/>
<path d="M470.262 327.215H335.089C333.304 327.215 331.857 328.662 331.857 330.447V332.354C331.857 334.139 333.304 335.586 335.089 335.586H470.262C472.047 335.586 473.494 334.139 473.494 332.354V330.447C473.494 328.662 472.047 327.215 470.262 327.215Z" fill="#CCA4FF"/>
<path d="M470.262 344.717H335.089C333.304 344.717 331.857 346.164 331.857 347.949V349.856C331.857 351.641 333.304 353.088 335.089 353.088H470.262C472.047 353.088 473.494 351.641 473.494 349.856V347.949C473.494 346.164 472.047 344.717 470.262 344.717Z" fill="#CCA4FF"/>
<path d="M410.104 362.219H335.089C333.304 362.219 331.857 363.666 331.857 365.451V367.358C331.857 369.143 333.304 370.59 335.089 370.59H410.104C411.889 370.59 413.336 369.143 413.336 367.358V365.451C413.336 363.666 411.889 362.219 410.104 362.219Z" fill="#CCA4FF"/>
<path d="M431.24 558.553H247.705C244.135 558.553 241.241 561.447 241.241 565.017V581.006C241.241 584.576 244.135 587.47 247.705 587.47H431.24C434.81 587.47 437.704 584.576 437.704 581.006V565.017C437.704 561.447 434.81 558.553 431.24 558.553Z" fill="#F4ECFF"/>
<path d="M486.068 558.553H450.261C446.691 558.553 443.797 561.447 443.797 565.017V581.006C443.797 584.576 446.691 587.47 450.261 587.47H486.068C489.638 587.47 492.532 584.576 492.532 581.006V565.017C492.532 561.447 489.638 558.553 486.068 558.553Z" fill="#BE6FFB"/>
<path fill-rule="evenodd" clip-rule="evenodd" d="M235.52 575.278L235.439 575.788C225.806 574.464 216.254 572.549 207.109 569.861L207.293 569.393C216.396 572.04 225.928 573.955 235.52 575.278Z" fill="white"/>
<path fill-rule="evenodd" clip-rule="evenodd" d="M243.403 576.259H238.983C237.802 576.116 236.621 575.974 235.439 575.79L235.521 575.281C238.148 575.668 240.775 575.974 243.403 576.259Z" fill="white"/>
<path fill-rule="evenodd" clip-rule="evenodd" d="M189.069 677.146C186.076 686.759 181.819 694.641 173.53 703.847C173.489 703.908 173.428 703.948 173.388 704.009C170.72 706.983 167.828 709.447 164.793 711.484C174.528 704.234 181.595 694.702 186.483 683.48C187.399 681.383 188.255 679.285 189.069 677.146Z" fill="#8A63BC"/>
<path fill-rule="evenodd" clip-rule="evenodd" d="M59.9678 657.414L47.8296 687.352C45.7726 686.314 43.8582 685.397 42.4325 684.705C42.1678 684.583 41.9438 684.481 41.7197 684.358L54.1635 654.318C56.5259 655.581 58.7459 656.762 59.9678 657.414Z" fill="#E2BCAB"/>
<path fill-rule="evenodd" clip-rule="evenodd" d="M45.1827 649.534C45.0401 649.453 44.8975 649.371 44.7753 649.31C44.4698 649.147 44.2866 649.025 44.2051 648.984L13.6354 695.867C11.4359 699.248 15.3869 703.26 18.7677 701.122C18.7881 701.101 18.8084 701.101 18.8084 701.081L31.7613 690.287L31.8835 689.819L31.9446 689.595L34.47 680.002C34.5108 679.941 34.5311 679.88 34.5515 679.839C34.6941 679.595 34.9996 679.473 35.2643 679.554C35.5902 679.635 35.8142 680.002 35.7124 680.348L33.635 688.169L33.4517 688.861L38.1563 684.951L38.3396 684.198L40.2133 677.13C40.2337 677.09 40.254 677.029 40.2948 676.968V676.947C40.4577 676.723 40.7225 676.621 41.0076 676.682C41.3335 676.784 41.5371 677.13 41.4353 677.477L39.8264 683.546L39.8875 683.505C39.9547 683.538 40.6491 683.859 41.7143 684.365L54.158 654.324C50.5166 652.386 46.5126 650.251 45.1827 649.534Z" fill="black"/>
<path fill-rule="evenodd" clip-rule="evenodd" d="M61.4144 658.187C61.0478 658.024 60.7016 657.882 60.335 657.719C60.4775 657.78 60.6608 657.821 60.8848 657.902C60.9052 657.922 60.9256 657.922 60.9663 657.943C61.1089 658.024 61.2718 658.106 61.4144 658.187Z" fill="#8A63BC"/>
<path fill-rule="evenodd" clip-rule="evenodd" d="M227.418 781.057L226.807 780.975C227.153 778.042 227.439 775.741 227.54 774.987H227.561L229.74 657.576L204.465 624.074C206.421 615.805 208.315 607.516 210.127 599.227C210.229 598.759 209.883 598.616 209.496 598.718C209.333 598.759 209.19 598.861 209.068 599.003C209.048 599.003 209.048 599.003 209.048 599.024C208.824 599.248 208.661 599.573 208.6 599.838C206.93 607.476 205.199 615.072 203.406 622.669C203.305 623.157 203.182 623.667 203.06 624.155C203.366 624.237 203.692 624.318 203.997 624.4C202.205 632.546 200.25 640.652 198.091 648.697C195.504 658.269 192.694 667.821 189.089 677.067C189.109 677.108 189.089 677.128 189.069 677.148C188.254 679.287 187.399 681.384 186.482 683.482C181.594 694.704 174.527 704.235 164.792 711.486C164.751 711.506 164.69 711.547 164.65 711.567C163.122 712.708 161.554 713.767 159.904 714.785C142.98 725.192 119.498 720.589 101.453 715.253C89.4983 711.71 77.9914 706.496 67.5639 699.633C66.6475 699.022 60.9653 695.661 57.9307 693.115C55.2424 691.242 51.3321 689.124 47.8291 687.352L59.9674 657.413C60.4154 657.658 60.7413 657.841 60.8838 657.902C60.6598 657.821 60.4765 657.78 60.3339 657.719C60.7005 657.882 61.0468 658.024 61.4134 658.187C61.2708 658.106 61.1079 658.024 60.9653 657.943C70.9447 661.568 152.959 690.06 146.279 643.503C143.387 623.402 141.452 608.779 140.129 598.168L139.823 595.765C138.479 584.686 136.461 531.143 136.217 527.701L254.094 528.355L278.782 657.576C279.311 661.527 259.169 784.173 259.149 784.335L227.418 781.057Z" fill="#8A63BC"/>
<path fill-rule="evenodd" clip-rule="evenodd" d="M38.1572 684.972L39.7458 683.892L39.8273 683.566L38.1572 684.951V684.972Z" fill="white"/>
<path fill-rule="evenodd" clip-rule="evenodd" d="M41.0075 676.683C40.7224 676.622 40.4576 676.724 40.2947 676.948V676.969C40.254 677.03 40.2336 677.091 40.2132 677.132L38.3395 684.199L38.1562 684.952L39.8263 683.567V683.547L41.4352 677.478C41.537 677.132 41.3334 676.785 41.0075 676.683Z" fill="white"/>
<path fill-rule="evenodd" clip-rule="evenodd" d="M31.7617 690.287L32.9633 689.289C32.6171 689.452 32.2505 689.635 31.8839 689.819L31.7617 690.287Z" fill="white"/>
<path fill-rule="evenodd" clip-rule="evenodd" d="M35.7126 680.349C35.8145 680.002 35.5904 679.636 35.2646 679.554C34.9998 679.473 34.6943 679.595 34.5518 679.84C34.5314 679.88 34.511 679.941 34.4703 680.002L31.9449 689.595L31.8838 689.819C32.2504 689.636 32.617 689.452 32.9632 689.289L32.9836 689.269L33.452 688.882V688.862L33.6353 688.169L35.7126 680.349Z" fill="white"/>
<path fill-rule="evenodd" clip-rule="evenodd" d="M184.771 585.439C176.93 600.693 156.809 605.316 141.656 598.881C141.147 598.657 140.638 598.433 140.129 598.168C140.027 597.333 139.925 596.539 139.823 595.765C143.591 598.066 148.296 599.146 152.471 599.655C160.475 600.612 168.845 599.105 175.505 594.4C178.906 592.017 181.696 588.881 183.59 585.174C184.059 584.258 185.403 584.237 184.771 585.439Z" fill="white"/>
<path fill-rule="evenodd" clip-rule="evenodd" d="M210.129 599.228C208.316 607.517 206.422 615.806 204.467 624.075L204.161 623.667C204.1 623.912 204.059 624.156 203.998 624.4C203.693 624.319 203.367 624.237 203.062 624.156C203.184 623.667 203.306 623.158 203.408 622.669C205.2 615.073 206.931 607.476 208.601 599.839C208.662 599.574 208.825 599.248 209.049 599.024C209.049 599.004 209.049 599.004 209.07 599.004C209.192 598.861 209.334 598.759 209.497 598.719C209.884 598.617 210.23 598.759 210.129 599.228Z" fill="white"/>
<path fill-rule="evenodd" clip-rule="evenodd" d="M227.569 774.989V774.982H227.562V774.992C227.565 774.989 227.567 774.989 227.569 774.989Z" fill="#8A63BC"/>
<path fill-rule="evenodd" clip-rule="evenodd" d="M258.377 793.891V794.135L258.051 793.931L258.377 793.891Z" fill="#8A63BC"/>
<path fill-rule="evenodd" clip-rule="evenodd" d="M259.924 794.99L259.17 795.092L251.899 795.887C251.838 795.887 251.777 795.887 251.716 795.866H251.696C251.675 795.866 251.675 795.866 251.655 795.846C251.411 795.785 251.227 795.581 251.187 795.316C251.187 795.133 251.248 794.97 251.349 794.848C251.451 794.726 251.594 794.644 251.777 794.624L258.03 793.931H258.05L258.376 793.891L259.924 794.99Z" fill="white"/>
<path fill-rule="evenodd" clip-rule="evenodd" d="M251.777 794.623C251.594 794.643 251.451 794.725 251.35 794.847C251.451 794.725 251.594 794.623 251.777 794.623Z" fill="#8A63BC"/>
<path fill-rule="evenodd" clip-rule="evenodd" d="M267.195 799.022L266.503 799.103H266.482L256.645 800.203C256.564 800.203 256.503 800.203 256.462 800.183C256.177 800.142 255.953 799.898 255.933 799.633C255.912 799.45 255.973 799.287 256.075 799.164C256.177 799.022 256.34 798.94 256.503 798.92L264.548 798.044H264.568L265.281 797.963H265.301L267.195 799.022Z" fill="white"/>
<path fill-rule="evenodd" clip-rule="evenodd" d="M259.149 784.335C259.128 784.518 259.108 784.722 259.088 784.905C259.027 785.231 258.986 785.557 258.965 785.883C258.904 786.331 258.864 786.738 258.823 787.166C258.803 787.288 258.782 787.41 258.782 787.533C258.701 788.306 258.619 789.04 258.578 789.712C258.538 790.038 258.517 790.363 258.497 790.669C258.477 790.71 258.477 790.75 258.477 790.791V790.852C258.477 790.974 258.477 791.056 258.456 791.178L226.054 787.268V787.166C226.318 784.987 226.583 782.848 226.807 780.975L227.418 781.056L259.149 784.335Z" fill="#E2BCAB"/>
<path fill-rule="evenodd" clip-rule="evenodd" d="M224.202 803.325C224.223 803.26 224.244 803.086 224.265 802.825C224.265 802.76 224.286 802.717 224.286 802.651C224.307 802.543 224.328 802.456 224.328 802.347C224.349 802.239 224.37 802.13 224.37 802.021C224.706 799.393 225.419 793.202 226.112 787.271L258.457 791.179C258.394 792.33 259.392 793.593 259.413 794.331L259.077 794.375H259.056L252.614 795.114C252.425 795.114 252.278 795.222 252.173 795.352C252.068 795.483 252.005 795.657 252.005 795.852C252.047 796.135 252.236 796.352 252.488 796.417C252.509 796.439 252.509 796.439 252.53 796.439H252.551C252.614 796.46 252.677 796.46 252.74 796.46L260.231 795.613L261.007 795.505H261.028L266.526 798.676L265.792 798.763H265.771L257.482 799.697C257.314 799.719 257.146 799.806 257.041 799.958C256.936 800.088 256.874 800.262 256.895 800.457C256.916 800.74 257.146 801 257.44 801.044C257.482 801.066 257.545 801.066 257.629 801.066L267.764 799.893H267.785L268.498 799.806H268.519L283.691 808.538C283.712 808.538 283.712 808.56 283.733 808.56C284.089 808.843 284.383 809.147 284.593 809.472C286.544 812.21 284.215 816.489 280.606 815.685L224.202 803.325Z" fill="black"/>
<path fill-rule="evenodd" clip-rule="evenodd" d="M211.06 458.478L210.877 466.033L210.49 481.878L209.39 525.462C209.126 537.132 208.82 548.781 208.453 560.431C208.311 563.791 208.168 567.131 208.026 570.492C207.985 571.449 207.944 572.406 207.904 573.363C207.741 577.722 207.557 582.1 207.354 586.459C207.293 587.925 207.231 589.391 207.15 590.858C207.089 592.365 207.007 593.872 206.926 595.379C206.926 595.399 206.906 595.42 206.885 595.42C206.845 595.42 206.824 595.399 206.824 595.379C206.824 593.852 206.845 592.324 206.885 590.797C206.906 589.412 206.906 588.047 206.946 586.662C206.967 584.463 207.007 582.243 207.048 580.023C207.089 577.803 207.13 575.583 207.17 573.363C207.191 572.406 207.211 571.449 207.231 570.492C207.313 567.111 207.374 563.75 207.435 560.39C207.761 548.74 208.148 537.091 208.576 525.442L210.103 482.184L210.694 465.545V465.483L210.938 458.437L211.04 455.545C211.04 455.504 211.081 455.484 211.101 455.484C211.121 455.484 211.142 455.504 211.142 455.545L211.06 458.478ZM204.665 472.204C204.788 470.514 204.971 468.844 205.317 467.174C205.969 463.936 207.13 460.799 208.677 457.887C208.759 457.724 208.861 457.561 208.942 457.398C209.085 457.154 209.268 456.991 209.472 456.909C210.144 456.604 210.999 457.072 210.51 457.968C210.449 458.091 210.388 458.192 210.327 458.315C210.001 458.905 209.696 459.516 209.411 460.127C208.25 462.612 207.415 465.239 206.926 467.968C206.335 471.166 206.702 474.669 205.113 477.601C204.543 478.66 202.914 478.212 203.545 477.031C204.36 475.544 204.523 473.874 204.665 472.204ZM202.629 479.719L201.834 480.514C201.753 480.616 201.651 480.717 201.529 480.778C201.447 480.84 201.325 480.901 201.203 480.921C201.081 480.962 200.979 480.962 200.857 480.921C200.755 480.921 200.653 480.86 200.572 480.799C200.511 480.738 200.47 480.677 200.409 480.636C200.348 480.493 200.307 480.351 200.307 480.188C200.307 480.106 200.327 480.045 200.327 479.964C200.368 479.781 200.45 479.618 200.572 479.495C200.837 479.21 201.101 478.946 201.366 478.681C201.447 478.579 201.549 478.497 201.672 478.436C201.773 478.355 201.875 478.294 201.997 478.273C202.12 478.253 202.242 478.253 202.344 478.273C202.466 478.294 202.547 478.335 202.649 478.416L202.792 478.579C202.873 478.701 202.914 478.844 202.914 479.007C202.893 479.088 202.893 479.17 202.873 479.251C202.832 479.414 202.751 479.577 202.629 479.719ZM193.607 473.121C192.996 474.73 192.262 476.278 191.407 477.764C191.244 478.049 191.081 478.335 190.918 478.599C190.083 480.005 189.126 481.349 188.087 482.632C186.051 485.157 183.627 487.296 181.122 489.332C180.776 489.617 180.409 489.903 180.063 490.188C178.128 491.756 176.193 493.365 174.544 495.198C173.77 496.033 173.057 496.929 172.446 497.886C172.365 498.029 172.222 498.293 172.059 498.558C171.855 498.945 171.652 499.373 171.53 499.597C171.509 499.638 171.489 499.699 171.468 499.719C171.061 500.636 170.674 501.572 170.287 502.57C170.267 502.631 170.246 502.693 170.226 502.754C169.961 503.629 169.717 504.525 169.33 505.422C169.249 505.646 169.126 505.849 169.004 506.053C169.004 506.073 169.004 506.094 168.984 506.094C168.882 506.297 168.76 506.501 168.617 506.684C168.373 507.051 168.108 507.417 167.884 507.804C166.031 510.9 164.707 514.322 163.302 517.702C162.63 519.393 161.937 521.083 161.204 522.774C160.41 524.403 160.226 526.114 160.349 527.885C160.593 530.777 161.693 533.588 162.243 536.561C162.385 537.234 162.467 537.926 162.528 538.618C163.241 542.04 163.913 545.502 164.564 548.944L164.992 551.205C164.992 551.225 164.972 551.246 164.951 551.266C164.911 551.266 164.89 551.246 164.89 551.225C163.913 547.437 162.996 543.608 162.12 539.8C162.039 539.433 161.957 539.087 161.876 538.72L161.856 538.68C161.509 535.095 159.819 531.755 159.371 527.967C159.147 526.114 159.452 524.077 160.287 522.387C161 520.717 161.693 519.006 162.365 517.315C163.77 513.935 165.175 510.513 167.13 507.336C167.375 506.949 167.66 506.562 167.925 506.175C168.169 505.829 168.373 505.462 168.556 505.075C168.923 504.281 169.167 503.405 169.452 502.53C169.737 501.654 170.063 500.758 170.471 499.923C170.857 499.067 171.326 498.253 171.835 497.479C172.405 496.623 173.037 495.809 173.729 495.055C173.994 494.75 174.299 494.444 174.584 494.159V494.139C176.173 492.53 177.945 491.125 179.696 489.719C180.409 489.149 181.122 488.579 181.835 488.008C183.953 486.277 185.99 484.465 187.721 482.347C188.576 481.328 189.391 480.249 190.124 479.129C190.328 478.803 190.531 478.497 190.735 478.172C191.753 476.522 192.629 474.811 193.342 473.019C193.566 472.449 193.79 471.858 193.993 471.267C195.053 468.437 195.888 465.483 195.928 462.449C195.928 462.408 195.949 462.388 195.969 462.388C196.01 462.388 196.03 462.408 196.03 462.449C196.01 465.585 195.195 468.64 194.156 471.593C193.993 472.103 193.79 472.612 193.607 473.121ZM176.092 577.233C174.829 576.194 173.342 574.544 171.774 573.384C171.061 572.834 170.308 572.406 169.574 572.182C169.737 572.589 169.921 572.997 170.145 573.384C170.98 574.87 172.181 576.337 173.016 577.722C174.686 580.491 176.417 583.302 177.497 586.357C177.986 587.66 176.519 588.801 175.399 588.027C172.528 586.072 168.923 581.326 166.479 578.882C167.925 582.528 174.89 589.452 172.242 592.976C171.163 594.463 164.809 585.725 160.491 581.041C162.1 585.868 165.44 595.929 163.118 596.336C161.021 596.275 156.988 589.514 155.216 584.483C154.626 582.793 150.593 579.33 148.19 578.129C147.742 577.905 146.907 576.153 145.929 573.384C145.848 573.18 145.787 572.956 145.705 572.732C152.059 571.265 167.477 565.135 167.884 563.771C169.249 564.932 171.041 566.092 173.363 567.742C175.44 569.208 177.476 571.306 179.065 573.384C179.228 573.608 179.391 573.811 179.554 574.035C180.715 575.665 183.912 579.127 181.611 580.41C180.165 581.204 177.008 577.986 176.092 577.233ZM140.532 566.072C140.512 566.072 140.471 566.052 140.471 566.031C140.451 565.93 140.43 565.807 140.41 565.706C139.779 562.691 139.331 559.657 138.801 556.643C138.272 553.506 137.742 550.349 137.151 547.233C136.887 545.706 136.378 544.158 135.97 542.651C135.522 541.164 134.748 539.779 134.117 538.293C133.771 537.498 133.506 536.663 133.323 535.828V535.808C133.139 535.075 133.017 534.321 132.895 533.608C132.712 532.875 132.61 531.918 132.732 531.144C132.854 530.37 132.752 529.617 132.651 528.802C132.651 528.782 132.671 528.761 132.691 528.761C132.712 528.741 132.752 528.761 132.752 528.782C133.037 529.515 133.363 530.329 133.363 531.144C133.424 531.979 133.526 532.61 133.791 533.405C133.893 533.751 133.995 534.077 134.056 534.423V534.443C134.382 535.625 134.606 536.806 134.993 537.946C135.502 539.413 136.215 540.879 136.602 542.468C136.968 544.036 137.335 545.563 137.62 547.152C138.149 550.288 138.597 553.445 139.086 556.581C139.575 559.738 139.982 562.895 140.573 566.011C140.573 566.011 140.573 566.031 140.553 566.052L140.532 566.072ZM196.03 433.488L189.961 433.142C189.9 433.122 189.839 433.101 189.757 433.101C189.655 433.061 189.554 433.04 189.431 433.04C189.411 433.02 189.391 433.02 189.35 433.04C188.8 432.999 188.25 433.02 187.721 433.061C187.619 433.061 187.517 433.061 187.415 433.081C186.539 433.142 185.664 433.285 184.829 433.488C184.401 433.59 183.994 433.712 183.586 433.834C173.811 435.606 165.542 437.337 154.809 450.962C134.219 449.089 122.406 456.4 121.123 450.474C119.799 444.404 138.679 433.957 161.387 430.291C175.134 428.071 183.953 427.623 189.717 428.865C189.798 428.865 190.042 428.926 190.124 428.947L190.185 427.317C190.104 427.297 189.859 427.256 189.778 427.256C179.656 425.912 168.128 426.38 156.255 428.967C136.296 433.305 119.759 442.653 110.39 453.59C103.853 461.227 118.516 469.272 120.248 477.296C122.162 486.094 125.909 493.019 132.549 497.275C131.205 502.346 130.288 507.193 129.962 511.409C129.575 516.704 130.512 521.491 132.549 528.802C128.638 536.093 124.279 545.421 116.5 556.581C108.722 567.742 117.457 581.021 122.488 583.2C124.586 584.096 126.174 585.909 128.272 586.846C129.331 587.314 130.41 587.782 131.49 588.21C143.18 593.017 155.868 595.909 168.739 597.579C169.004 597.64 169.269 597.66 169.554 597.68C174.707 598.353 179.9 598.821 185.053 599.147C192.894 599.656 200.674 599.819 208.209 599.819L208.474 591.123L208.657 585.888L209.044 573.363L209.126 570.492L211.956 480.636L212.343 468.64L212.669 458.783L212.69 457.846L212.343 434.547C211.719 434.438 206.281 434.085 196.03 433.488Z" fill="#8A63BC"/>
<path fill-rule="evenodd" clip-rule="evenodd" d="M190.123 428.946L189.817 433.06C189.736 433.06 189.634 433.039 189.553 433.039H189.43C189.41 433.019 189.39 433.019 189.349 433.039C188.799 432.999 188.249 433.019 187.72 433.06C187.618 433.06 187.516 433.06 187.414 433.08C186.538 433.141 185.663 433.284 184.828 433.488C184.4 433.589 183.993 433.712 183.585 433.834C173.81 435.606 165.541 437.337 154.808 450.962C134.218 449.088 122.405 456.399 121.122 450.473C119.798 444.404 138.678 433.956 161.386 430.29C175.133 428.07 183.952 427.622 189.716 428.864C189.797 428.864 190.041 428.925 190.123 428.946Z" fill="#8A63BC"/>
<path fill-rule="evenodd" clip-rule="evenodd" d="M196.03 462.448C196.009 465.584 195.195 468.639 194.156 471.592L193.993 471.266C195.052 468.435 195.887 465.482 195.928 462.448C195.928 462.407 195.948 462.387 195.969 462.387C196.009 462.387 196.03 462.407 196.03 462.448Z" fill="#8A63BC"/>
<path fill-rule="evenodd" clip-rule="evenodd" d="M202.914 479.006C202.893 479.088 202.893 479.169 202.873 479.251C202.832 479.414 202.751 479.577 202.628 479.719L201.834 480.513C201.753 480.615 201.651 480.717 201.529 480.778C201.447 480.839 201.325 480.9 201.203 480.921C201.081 480.961 200.979 480.961 200.857 480.921C200.755 480.921 200.653 480.86 200.571 480.798C200.51 480.737 200.47 480.676 200.408 480.636C200.347 480.493 200.307 480.35 200.307 480.188C200.307 480.106 200.327 480.045 200.327 479.963C200.368 479.78 200.449 479.617 200.571 479.495C200.836 479.21 201.101 478.945 201.366 478.68C201.447 478.579 201.549 478.497 201.671 478.436C201.773 478.355 201.875 478.293 201.997 478.273C202.119 478.253 202.241 478.253 202.343 478.273C202.465 478.293 202.547 478.334 202.649 478.416L202.791 478.579C202.873 478.701 202.914 478.843 202.914 479.006Z" fill="#8A63BC"/>
<path fill-rule="evenodd" clip-rule="evenodd" d="M211.14 455.544L211.059 458.476L210.875 466.032L210.489 481.877C210.366 481.979 210.244 482.081 210.102 482.182L210.692 465.543V465.482L210.937 458.436L211.038 455.544C211.038 455.503 211.079 455.482 211.1 455.482C211.12 455.482 211.14 455.503 211.14 455.544Z" fill="#8A63BC"/>
<path fill-rule="evenodd" clip-rule="evenodd" d="M190.123 428.946L189.96 433.141C189.899 433.121 189.838 433.101 189.756 433.101C189.675 433.06 189.593 433.039 189.553 433.039H189.43C189.41 433.019 189.39 433.019 189.349 433.039C188.799 432.999 188.249 433.019 187.72 433.06C187.618 433.06 187.516 433.06 187.414 433.08C186.538 433.141 185.663 433.284 184.828 433.488C184.4 433.589 183.993 433.712 183.585 433.834C173.81 435.606 165.541 437.337 154.808 450.962C134.218 449.088 122.405 456.399 121.122 450.473C119.798 444.404 138.678 433.956 161.386 430.29C175.133 428.07 183.952 427.622 189.716 428.864C189.797 428.864 190.041 428.925 190.123 428.946Z" fill="#2A4D52"/>
<path fill-rule="evenodd" clip-rule="evenodd" d="M368.735 484.934C368.735 484.934 368.735 484.954 368.715 484.954L368.695 484.934C368.654 484.934 368.634 484.914 368.654 484.893C368.613 484.567 368.573 484.242 368.511 483.916C368.348 482.938 368.104 481.981 367.778 481.064C367.575 480.453 367.33 479.863 367.045 479.293C366.76 478.722 366.434 478.152 366.088 477.623C365.416 476.543 364.52 475.606 363.705 474.669C363.501 474.425 363.298 474.181 363.074 473.936C362.85 473.692 362.626 473.468 362.402 473.244C361.953 472.775 361.485 472.307 361.017 471.818C360.996 471.798 361.017 471.777 361.037 471.737C361.057 471.716 361.078 471.716 361.078 471.737C362.422 472.124 363.562 472.898 364.601 473.794C365.599 474.731 366.332 475.912 366.964 477.134C368.226 479.517 368.858 482.225 368.756 484.893C368.756 484.914 368.735 484.934 368.735 484.934ZM394.152 473.142C393.134 471.777 385.191 475.24 378.287 478.58C382.747 472.653 388.979 463.875 388.715 461.269C388.715 461.024 388.633 460.861 388.491 460.719C387.533 459.884 384.214 461.941 380.446 464.853C378.348 466.482 376.088 468.417 373.99 470.209C373.888 470.107 373.786 469.985 373.644 469.883C376.76 464.772 380.935 457.399 382.218 453.305C382.666 451.839 382.707 450.8 382.218 450.434C381.912 450.23 381.424 450.271 380.833 450.536C377.534 451.982 370.365 459.68 365.823 464.792C366.434 462.511 367.004 460.087 367.473 457.867C368.552 452.715 369.082 448.255 367.86 447.766C365.905 446.87 359.876 460.169 356.21 467.663L356.19 467.684C356.088 467.908 355.966 468.132 355.864 468.356C355.864 468.173 355.864 467.989 355.844 467.806C355.559 461.411 352.829 454.955 350.996 454.955C347.066 454.996 346.658 464.446 346.842 471.655C347.31 471.268 348.125 470.515 348.573 470.515C350.284 470.515 371.2 490.148 371.2 492.429C375.558 489.924 396.271 476.136 394.152 473.142ZM358.593 500.799C358.613 500.799 358.634 500.799 358.654 500.779C358.817 500.677 358.96 500.575 359.123 500.473C358.939 500.596 358.776 500.697 358.593 500.799ZM235.703 484.099L231.304 466.218L231.141 466.36L231.121 466.38L235.235 483.814L237.007 491.39L237.027 491.41C237.231 491.594 237.414 491.757 237.638 491.92L235.703 484.099ZM266.701 508.783C266.293 508.498 265.866 508.213 265.458 507.948C263.788 503.976 261.976 500.086 260.061 496.197L253.626 482.796L253.605 482.755L253.544 482.612H253.524C253.504 482.612 253.504 482.633 253.504 482.633L259.695 496.38C261.385 500.168 263.137 503.956 265.051 507.663C265.153 507.887 265.255 508.111 265.377 508.314C265.458 508.355 265.54 508.396 265.642 508.416C265.988 508.579 266.355 508.701 266.721 508.844C266.762 508.885 266.823 508.905 266.864 508.885C266.823 508.844 266.762 508.803 266.701 508.783ZM246.762 470.494L246.783 470.535C246.905 470.841 247.027 471.126 247.149 471.411C247.271 471.004 247.19 470.596 246.762 470.494ZM250.897 471.676C250.795 471.492 250.571 471.35 250.347 471.35H249.023C248.493 471.35 248.066 471.757 247.923 472.246C247.862 472.45 247.882 472.735 248.005 472.918C248.106 473.101 248.351 473.244 248.555 473.244H249.878C250.408 473.244 250.856 472.837 250.998 472.327C251.039 472.124 251.019 471.859 250.897 471.676Z" fill="#E2BCAB"/>
<path fill-rule="evenodd" clip-rule="evenodd" d="M368.76 484.886C368.75 484.92 368.74 484.953 368.705 484.943C368.65 484.943 368.638 484.922 368.648 484.888C368.381 482.275 367.495 479.766 366.096 477.613C365.414 476.542 364.524 475.609 363.711 474.664C362.897 473.664 361.966 472.811 361.017 471.823C361.005 471.802 361.017 471.768 361.027 471.735C361.047 471.723 361.07 471.711 361.082 471.733C362.414 472.12 363.554 472.892 364.601 473.798C365.601 474.727 366.343 475.908 366.962 477.124C368.235 479.513 368.858 482.218 368.76 484.886Z" fill="#E2BCAB"/>
<path fill-rule="evenodd" clip-rule="evenodd" d="M366.759 495.381C366.189 495.849 365.049 496.745 363.582 497.743C363.48 497.804 363.399 497.866 363.297 497.927C363.277 497.967 363.236 497.988 363.216 497.988C362.136 498.721 360.935 499.495 359.672 500.147C359.855 500.024 360.038 499.923 360.222 499.8C360.283 499.76 360.364 499.719 360.425 499.678C361.138 499.23 361.831 498.782 362.523 498.314C362.93 498.049 363.338 497.784 363.725 497.499C364.763 496.806 365.761 496.094 366.759 495.381Z" fill="#E2BCAB"/>
<path fill-rule="evenodd" clip-rule="evenodd" d="M355.853 468.358C355.871 468.181 355.855 467.992 355.839 467.804L355.874 467.812C355.971 467.733 356.069 467.709 356.191 467.672C356.085 467.896 355.959 468.134 355.853 468.358Z" fill="#E2BCAB"/>
<path fill-rule="evenodd" clip-rule="evenodd" d="M368.705 484.943C368.65 484.943 368.638 484.922 368.648 484.89C368.381 482.275 367.495 479.766 366.096 477.613C365.414 476.542 364.524 475.609 363.711 474.666C362.897 473.664 361.964 472.811 361.017 471.825C361.005 471.802 361.017 471.768 361.025 471.735C361.047 471.723 361.07 471.711 361.082 471.733C362.414 472.122 363.555 472.892 364.599 473.798C365.601 474.727 366.341 475.908 366.962 477.124C368.235 479.513 368.858 482.218 368.76 484.886C368.75 484.92 368.74 484.953 368.705 484.943Z" fill="black"/>
<path fill-rule="evenodd" clip-rule="evenodd" d="M250.998 472.327C250.856 472.836 250.408 473.244 249.878 473.244H248.554C248.351 473.244 248.106 473.101 248.004 472.918C247.882 472.735 247.862 472.449 247.923 472.246C248.066 471.757 248.493 471.35 249.023 471.35H250.347C250.571 471.35 250.795 471.492 250.896 471.675C251.019 471.859 251.039 472.124 250.998 472.327Z" fill="#8A63BC"/>
<path fill-rule="evenodd" clip-rule="evenodd" d="M211.14 455.544L211.059 458.476L210.876 466.032C210.815 465.869 210.733 465.706 210.692 465.543V465.482L210.937 458.436L211.039 455.544C211.039 455.503 211.079 455.482 211.1 455.482C211.12 455.482 211.14 455.503 211.14 455.544Z" fill="#8A63BC"/>
<path fill-rule="evenodd" clip-rule="evenodd" d="M235.702 484.097C235.539 483.995 235.377 483.893 235.234 483.812L231.12 466.378L228.574 455.544C228.574 455.523 228.595 455.503 228.615 455.482C228.656 455.482 228.676 455.503 228.676 455.523L231.303 466.215L235.702 484.097Z" fill="#8A63BC"/>
<path fill-rule="evenodd" clip-rule="evenodd" d="M247.149 471.411C247.026 471.125 246.904 470.84 246.782 470.535L246.762 470.494C247.189 470.596 247.271 471.003 247.149 471.411Z" fill="#8A63BC"/>
<path fill-rule="evenodd" clip-rule="evenodd" d="M265.458 507.947C265.315 507.845 265.193 507.764 265.051 507.662C263.136 503.955 261.385 500.167 259.694 496.379L253.503 482.632C253.503 482.632 253.503 482.611 253.523 482.611H253.544L253.605 482.754L253.625 482.795L260.061 496.196C261.975 500.086 263.788 503.975 265.458 507.947Z" fill="#8A63BC"/>
<path fill-rule="evenodd" clip-rule="evenodd" d="M371.199 492.428C371.199 492.489 371.2 492.53 371.159 492.57C370.161 493.629 366.902 495.727 363.583 497.743C363.481 497.804 363.399 497.866 363.297 497.927C363.277 497.967 363.236 497.988 363.216 497.988C362.259 498.578 361.322 499.149 360.426 499.678C361.139 499.23 361.831 498.782 362.523 498.314C362.931 498.049 363.338 497.784 363.725 497.499C364.764 496.806 365.762 496.094 366.76 495.381C366.821 495.32 366.902 495.259 366.963 495.218C367.086 495.136 367.147 495.075 367.147 495.075C368.817 494.342 370.039 492.978 370.629 492.733C370.772 492.672 370.955 492.57 371.199 492.428Z" fill="#8A63BC"/>
<path fill-rule="evenodd" clip-rule="evenodd" d="M196.03 462.448C196.009 465.584 195.195 468.639 194.156 471.592L193.993 471.266C195.052 468.435 195.887 465.482 195.928 462.448C195.928 462.407 195.948 462.387 195.969 462.387C196.009 462.387 196.03 462.407 196.03 462.448Z" fill="white"/>
<path fill-rule="evenodd" clip-rule="evenodd" d="M202.914 479.006C202.893 479.088 202.893 479.169 202.873 479.251C202.832 479.414 202.751 479.577 202.628 479.719L201.834 480.513C201.753 480.615 201.651 480.717 201.529 480.778C201.447 480.839 201.325 480.9 201.203 480.921C201.081 480.961 200.979 480.961 200.857 480.921C200.755 480.921 200.653 480.86 200.571 480.798C200.51 480.737 200.47 480.676 200.408 480.636C200.347 480.493 200.307 480.35 200.307 480.188C200.307 480.106 200.327 480.045 200.327 479.963C200.368 479.78 200.449 479.617 200.571 479.495C200.836 479.21 201.101 478.945 201.366 478.68C201.447 478.579 201.549 478.497 201.671 478.436C201.773 478.355 201.875 478.293 201.997 478.273C202.119 478.253 202.241 478.253 202.343 478.273C202.465 478.293 202.547 478.334 202.649 478.416L202.791 478.579C202.873 478.701 202.914 478.843 202.914 479.006Z" fill="white"/>
<path fill-rule="evenodd" clip-rule="evenodd" d="M256.904 586.213C252.77 588.698 242.75 593.301 225.765 592.955C220.653 592.853 214.889 592.303 208.474 591.122L208.657 585.887L209.044 573.362L209.125 570.491L211.956 480.635L212.343 468.639L212.669 458.782L212.689 457.845L212.771 454.933C215.276 455.381 217.618 455.585 219.594 455.462C221.976 455.34 224.074 454.627 225.194 453.426L225.52 454.424L225.744 455.34L225.805 455.544V455.585L225.927 456.094L228.779 468.049L232.098 482L233.626 488.456L233.646 488.476L252.159 566.275L253.157 570.491L256.904 586.213Z" fill="white"/>
<path fill-rule="evenodd" clip-rule="evenodd" d="M211.14 455.544L211.059 458.476L210.875 466.032L210.489 481.877C210.366 481.979 210.244 482.081 210.102 482.182L210.692 465.543V465.482L210.937 458.436L211.038 455.544C211.038 455.503 211.079 455.482 211.1 455.482C211.12 455.482 211.14 455.503 211.14 455.544Z" fill="white"/>
<path fill-rule="evenodd" clip-rule="evenodd" d="M237.638 491.918C237.414 491.755 237.231 491.592 237.027 491.408L237.007 491.388L235.235 483.812L231.121 466.378L228.575 455.544C228.575 455.523 228.596 455.503 228.616 455.482C228.657 455.482 228.677 455.503 228.677 455.523L231.304 466.215L235.703 484.097L237.638 491.918Z" fill="white"/>
<path fill-rule="evenodd" clip-rule="evenodd" d="M140.553 566.053L140.532 566.074C140.512 566.074 140.471 566.053 140.471 566.033C140.451 565.931 140.431 565.809 140.41 565.707C140.451 565.829 140.492 565.931 140.553 566.053Z" fill="#8A63BC"/>
<path fill-rule="evenodd" clip-rule="evenodd" d="M181.61 580.411C180.164 581.205 177.007 577.987 176.09 577.234C174.828 576.195 173.341 574.545 171.773 573.384C171.06 572.834 170.306 572.407 169.573 572.183C169.736 572.59 169.92 572.997 170.144 573.384C170.979 574.871 172.18 576.337 173.015 577.722C174.685 580.492 176.416 583.303 177.496 586.358C177.985 587.661 176.518 588.802 175.398 588.028C172.526 586.072 168.922 581.327 166.478 578.883C167.924 582.529 174.889 589.453 172.241 592.977C171.162 594.463 164.808 585.726 160.49 581.042C162.099 585.869 165.439 595.93 163.117 596.337C161.019 596.276 156.987 589.514 155.215 584.484C154.624 582.793 150.592 579.331 148.189 578.13C147.741 577.906 146.906 576.154 145.928 573.384C145.847 573.181 145.786 572.957 145.704 572.733C152.058 571.266 167.476 565.136 167.883 563.771C169.247 564.932 171.04 566.093 173.361 567.743C175.439 569.209 177.475 571.307 179.064 573.384C179.227 573.608 179.39 573.812 179.553 574.036C180.714 575.665 183.911 579.128 181.61 580.411Z" fill="#8A63BC"/>
<path fill-rule="evenodd" clip-rule="evenodd" d="M164.992 551.206C164.992 551.226 164.972 551.247 164.951 551.267C164.931 551.247 164.931 551.226 164.931 551.206C164.788 550.452 164.646 549.699 164.564 548.945L164.992 551.206Z" fill="#8A63BC"/>
<path fill-rule="evenodd" clip-rule="evenodd" d="M196.03 462.448C196.009 465.584 195.195 468.639 194.156 471.592L193.993 471.266C195.052 468.435 195.887 465.482 195.928 462.448C195.928 462.407 195.948 462.387 195.969 462.387C196.009 462.387 196.03 462.407 196.03 462.448Z" fill="#8A63BC"/>
<path fill-rule="evenodd" clip-rule="evenodd" d="M202.914 479.006C202.893 479.088 202.893 479.169 202.873 479.251C202.832 479.414 202.751 479.577 202.628 479.719L201.834 480.513C201.753 480.615 201.651 480.717 201.529 480.778C201.447 480.839 201.325 480.9 201.203 480.921C201.081 480.961 200.979 480.961 200.857 480.921C200.755 480.921 200.653 480.86 200.571 480.798C200.51 480.737 200.47 480.676 200.408 480.636C200.347 480.493 200.307 480.35 200.307 480.188C200.307 480.106 200.327 480.045 200.327 479.963C200.368 479.78 200.449 479.617 200.571 479.495C200.836 479.21 201.101 478.945 201.366 478.68C201.447 478.579 201.549 478.497 201.671 478.436C201.773 478.355 201.875 478.293 201.997 478.273C202.119 478.253 202.241 478.253 202.343 478.273C202.465 478.293 202.547 478.334 202.649 478.416L202.791 478.579C202.873 478.701 202.914 478.843 202.914 479.006Z" fill="#8A63BC"/>
<path fill-rule="evenodd" clip-rule="evenodd" d="M171.794 498.986C171.774 499.007 171.774 499.027 171.753 499.047C171.672 499.231 171.59 499.414 171.529 499.597C171.651 499.373 171.855 498.946 172.059 498.559C171.957 498.701 171.876 498.844 171.794 498.986Z" fill="#8A63BC"/>
<path fill-rule="evenodd" clip-rule="evenodd" d="M211.14 455.544L211.059 458.476L210.875 466.032L210.489 481.877C210.366 481.979 210.244 482.081 210.102 482.182L210.692 465.543V465.482L210.937 458.436L211.038 455.544C211.038 455.503 211.079 455.482 211.1 455.482C211.12 455.482 211.14 455.503 211.14 455.544Z" fill="#8A63BC"/>
<path fill-rule="evenodd" clip-rule="evenodd" d="M172.058 498.559C171.854 498.946 171.651 499.373 171.528 499.597C171.589 499.414 171.671 499.231 171.752 499.047C171.773 499.027 171.773 499.007 171.793 498.986C171.875 498.844 171.956 498.701 172.058 498.559Z" fill="#2A4D52"/>
<path fill-rule="evenodd" clip-rule="evenodd" d="M181.61 580.411C180.164 581.205 177.007 577.987 176.09 577.234C174.828 576.195 173.341 574.545 171.773 573.384C171.06 572.834 170.306 572.407 169.573 572.183C169.736 572.59 169.92 572.997 170.144 573.384C170.979 574.871 172.18 576.337 173.015 577.722C174.685 580.492 176.416 583.303 177.496 586.358C177.985 587.661 176.518 588.802 175.398 588.028C172.526 586.072 168.922 581.327 166.478 578.883C167.924 582.529 174.889 589.453 172.241 592.977C171.162 594.463 164.808 585.726 160.49 581.042C162.099 585.869 165.439 595.93 163.117 596.337C161.019 596.276 156.987 589.514 155.215 584.484C154.624 582.793 150.592 579.331 148.189 578.13C147.741 577.906 146.906 576.154 145.928 573.384C145.847 573.181 145.786 572.957 145.704 572.733C152.058 571.266 167.476 565.136 167.883 563.771C169.247 564.932 171.04 566.093 173.361 567.743C175.439 569.209 177.475 571.307 179.064 573.384C179.227 573.608 179.39 573.812 179.553 574.036C180.714 575.665 183.911 579.128 181.61 580.411Z" fill="#E2BCAB"/>
<path fill-rule="evenodd" clip-rule="evenodd" d="M194.155 471.593C193.992 472.103 193.789 472.612 193.605 473.121C192.994 474.73 192.261 476.278 191.406 477.764C191.243 478.05 191.08 478.335 190.917 478.599C190.082 480.005 189.125 481.349 188.086 482.632C186.05 485.157 183.626 487.296 181.121 489.332C180.775 489.618 180.408 489.903 180.062 490.188C178.127 491.756 176.192 493.365 174.543 495.198C173.769 496.033 173.056 496.929 172.445 497.886C172.364 498.029 172.221 498.294 172.058 498.558C171.956 498.701 171.875 498.843 171.793 498.986C171.773 499.006 171.773 499.027 171.753 499.047C171.671 499.23 171.59 499.414 171.529 499.597C171.508 499.638 171.488 499.699 171.467 499.719C171.06 500.636 170.673 501.572 170.286 502.57C170.266 502.632 170.245 502.693 170.225 502.754C169.96 503.629 169.716 504.526 169.329 505.422C169.248 505.646 169.125 505.849 169.003 506.053C169.003 506.073 169.003 506.094 168.983 506.094C168.881 506.297 168.759 506.501 168.616 506.684C168.372 507.051 168.107 507.418 167.883 507.805C166.03 510.9 164.706 514.322 163.301 517.702C162.629 519.393 161.936 521.083 161.203 522.774C160.409 524.403 160.225 526.114 160.347 527.886C160.592 530.778 161.692 533.588 162.242 536.562C162.384 537.234 162.466 537.926 162.527 538.619C163.239 542.04 163.912 545.502 164.563 548.944C164.645 549.698 164.787 550.451 164.93 551.205C164.93 551.225 164.93 551.246 164.95 551.266C164.91 551.266 164.889 551.246 164.889 551.225C163.912 547.437 162.995 543.608 162.119 539.8C162.038 539.433 161.956 539.087 161.875 538.72L161.855 538.68C161.508 535.095 159.818 531.755 159.37 527.967C159.146 526.114 159.451 524.077 160.286 522.387C160.999 520.717 161.692 519.006 162.364 517.316C163.769 513.935 165.174 510.513 167.129 507.336C167.374 506.949 167.659 506.562 167.924 506.175C168.168 505.829 168.372 505.462 168.555 505.075C168.922 504.281 169.166 503.405 169.451 502.53C169.736 501.654 170.062 500.758 170.469 499.923C170.856 499.067 171.325 498.253 171.834 497.479C172.404 496.623 173.036 495.809 173.728 495.055C173.993 494.75 174.298 494.444 174.583 494.159V494.139C176.172 492.53 177.944 491.125 179.695 489.719C180.408 489.149 181.121 488.579 181.834 488.009C183.952 486.277 185.989 484.465 187.72 482.347C188.575 481.328 189.39 480.249 190.123 479.129C190.327 478.803 190.53 478.498 190.734 478.172C191.752 476.522 192.628 474.811 193.341 473.019C193.565 472.449 193.789 471.858 193.992 471.268L194.155 471.593Z" fill="#2A4D52"/>
<path fill-rule="evenodd" clip-rule="evenodd" d="M145.277 465.401C142.731 470.737 140.41 476.175 138.312 481.694C137.273 484.464 136.377 487.254 135.4 490.044C134.442 492.814 133.567 495.624 132.711 498.476C132.691 498.496 132.67 498.516 132.609 498.455C132.711 497.457 132.854 496.459 133.078 495.461C133.057 495.421 133.057 495.36 133.098 495.319C133.078 495.299 133.078 495.278 133.119 495.237C133.444 493.384 133.933 491.551 134.442 489.739C135.277 486.887 136.418 484.138 137.558 481.388C139.289 477.254 141.163 473.181 143.22 469.169C143.179 469.271 143.118 469.372 143.078 469.495C143.216 469.197 143.361 468.904 143.509 468.611C143.583 468.462 143.66 468.317 143.735 468.171C143.788 468.071 143.847 467.973 143.89 467.869C143.937 467.757 143.992 467.655 144.051 467.55C144.098 467.468 144.139 467.383 144.177 467.295C144.238 467.173 144.32 467.051 144.381 466.908C144.462 466.786 144.524 466.643 144.585 466.521C144.89 466.012 145.155 465.503 145.257 465.34C145.277 465.36 145.298 465.381 145.277 465.401Z" fill="#2A4D52"/>
<path fill-rule="evenodd" clip-rule="evenodd" d="M255.377 564.829C255.581 565.746 255.805 566.662 256.009 567.579C256.233 568.556 256.457 569.514 256.681 570.491C258.33 577.558 259.939 584.625 261.467 591.713C261.467 591.733 261.446 591.754 261.426 591.754C261.406 591.774 261.365 591.754 261.365 591.733C260.265 587.619 259.206 583.505 258.167 579.391C258.147 579.371 258.147 579.35 258.147 579.31C257.394 576.377 256.64 573.444 255.927 570.491C255.479 568.719 255.031 566.947 254.583 565.176C253.972 562.711 253.361 560.247 252.73 557.783C249.98 546.439 247.272 535.095 244.624 523.73L237.027 491.409L237.007 491.389L235.235 483.813L231.121 466.379L228.575 455.544C228.575 455.524 228.596 455.504 228.616 455.483C228.657 455.483 228.677 455.504 228.677 455.524L231.304 466.216L235.704 484.098L237.638 491.918L245.418 523.527C248.229 534.85 250.999 546.194 253.707 557.559C254.257 559.982 254.807 562.406 255.377 564.829ZM234.807 455.972C237.292 456.013 238.983 457.805 240.082 459.944C240.551 460.84 240.897 461.797 241.182 462.693C242.017 465.442 242.934 470.188 246.559 470.432C246.64 470.432 246.701 470.452 246.762 470.493C247.19 470.595 247.272 471.002 247.149 471.41C247.027 471.898 246.599 472.347 246.09 472.306C242.404 472.061 240.775 468.233 239.879 465.157C239.471 463.772 239.105 462.387 238.453 461.104C238.331 460.84 238.188 460.575 238.025 460.33C237.374 459.292 236.437 458.233 235.215 457.927C234.909 457.846 234.583 457.825 234.237 457.846C232.954 457.968 233.178 456.094 234.237 455.992C234.441 455.972 234.624 455.972 234.807 455.972ZM249.023 471.349H250.347C250.571 471.349 250.795 471.491 250.897 471.674C251.019 471.858 251.039 472.123 250.999 472.326C250.856 472.835 250.408 473.243 249.878 473.243H248.555C248.351 473.243 248.107 473.1 248.005 472.917C247.883 472.733 247.862 472.448 247.923 472.245C248.066 471.756 248.494 471.349 249.023 471.349ZM346.842 471.654C346.781 471.736 346.72 471.776 346.659 471.817C343.807 473.813 340.488 475.361 337.433 477.01C334.826 478.416 332.056 479.617 329.123 479.841C326.679 480.025 324.195 480.513 321.771 479.963C319.551 479.454 317.555 478.904 315.295 479.536C308.248 481.471 303.075 479.536 295.926 478.497C284.155 476.807 269.002 457.5 258.656 452.428C252.811 449.557 248.962 443.834 242.771 441.471C240.286 440.514 237.598 440.127 234.93 439.964C234.461 439.944 233.993 439.924 233.545 439.903C231.59 437.602 229.003 435.789 226.05 434.588C226.009 434.567 225.989 434.567 225.948 434.547C225.948 434.567 212.344 434.527 212.344 434.547C212.384 447.106 212.384 453.4 212.344 453.427L225.52 454.424L225.744 455.341L225.806 455.544V455.585L225.928 456.094L228.779 468.049L232.099 482L233.626 488.456L233.647 488.477L252.159 566.275L253.157 570.491L256.905 586.214L259.084 595.379C263.748 594.442 268.371 593.322 272.913 591.998C279.939 590.002 286.823 587.517 293.503 584.462C294.256 584.137 295.01 583.75 295.519 583.098C295.702 582.853 295.886 582.609 296.028 582.344C301.873 572.772 289.185 559.616 284.175 551.408C281.161 546.439 277.108 541.979 274.522 536.765C271.1 529.942 269.878 522.57 268.351 515.197C267.903 513.059 267.373 510.94 266.721 508.843C266.355 508.7 265.988 508.578 265.642 508.415C265.866 508.924 266.07 509.413 266.273 509.922C266.273 509.943 266.273 509.963 266.253 509.963H266.232C265.947 509.413 265.662 508.863 265.377 508.313C265.255 508.11 265.153 507.886 265.051 507.662C263.137 503.955 261.385 500.167 259.695 496.379L253.504 482.631C253.504 482.631 253.504 482.611 253.524 482.611H253.544L253.605 482.754L253.626 482.794L260.062 496.195C261.976 500.085 263.789 503.975 265.459 507.947C265.866 508.211 266.294 508.497 266.701 508.782C266.762 508.802 266.823 508.843 266.864 508.883C266.905 508.904 266.925 508.924 266.945 508.924C277.678 515.91 291.975 522.142 309.633 522.122C315.967 522.122 338.288 513.507 343.074 509.393C346.516 506.46 351.282 505.829 355.803 502.59C356.251 502.285 356.862 501.878 357.636 501.389C357.941 501.205 358.267 501.002 358.593 500.798C358.776 500.696 358.939 500.594 359.123 500.472C359.224 500.411 359.347 500.35 359.469 500.269C359.53 500.228 359.591 500.187 359.673 500.146C359.856 500.024 360.039 499.922 360.222 499.8C360.284 499.759 360.365 499.719 360.426 499.678C361.139 499.23 361.831 498.782 362.524 498.313C362.931 498.049 363.338 497.784 363.725 497.499C364.764 496.806 365.762 496.094 366.76 495.381C366.821 495.32 366.903 495.259 366.964 495.218C367.086 495.136 367.147 495.075 367.147 495.075C368.817 494.342 370.039 492.977 370.63 492.733C370.772 492.672 370.955 492.57 371.2 492.428C371.2 490.147 350.284 470.514 348.573 470.514C348.125 470.514 347.31 471.267 346.842 471.654Z" fill="#8A63BC"/>
<path fill-rule="evenodd" clip-rule="evenodd" d="M237.638 491.918C237.414 491.755 237.231 491.592 237.027 491.408L237.007 491.388L235.235 483.812L231.121 466.378L228.575 455.544C228.575 455.523 228.596 455.503 228.616 455.482C228.657 455.482 228.677 455.503 228.677 455.523L231.304 466.215L235.703 484.097L237.638 491.918Z" fill="#8A63BC"/>
<path fill-rule="evenodd" clip-rule="evenodd" d="M265.641 508.415C265.865 508.924 266.069 509.413 266.273 509.922C266.273 509.943 266.273 509.963 266.252 509.963H266.232C265.947 509.413 265.662 508.863 265.376 508.313C265.254 508.11 265.152 507.886 265.051 507.662C263.136 503.955 261.385 500.167 259.694 496.379L253.503 482.632C253.503 482.632 253.503 482.611 253.523 482.611C253.564 482.672 253.584 482.713 253.605 482.754L253.625 482.795L260.061 496.196C261.975 500.086 263.788 503.975 265.458 507.947C265.865 508.212 266.293 508.497 266.7 508.782C266.721 508.802 266.741 508.823 266.721 508.843C266.354 508.7 265.987 508.578 265.641 508.415Z" fill="#8A63BC"/>
<path fill-rule="evenodd" clip-rule="evenodd" d="M196.03 462.448C196.009 465.584 195.195 468.639 194.156 471.592L193.993 471.266C195.052 468.435 195.887 465.482 195.928 462.448C195.928 462.407 195.948 462.387 195.969 462.387C196.009 462.387 196.03 462.407 196.03 462.448Z" fill="#8A63BC"/>
<path fill-rule="evenodd" clip-rule="evenodd" d="M266.273 509.922C266.273 509.943 266.273 509.963 266.252 509.963H266.232C265.947 509.413 265.662 508.863 265.376 508.313C265.254 508.11 265.152 507.886 265.051 507.662C263.136 503.955 261.385 500.167 259.694 496.379L253.503 482.632C253.503 482.632 253.503 482.611 253.523 482.611H253.544L253.605 482.754L253.625 482.795L260.061 496.196C261.975 500.086 263.788 503.975 265.458 507.947C265.519 508.11 265.6 508.252 265.641 508.415C265.865 508.924 266.069 509.413 266.273 509.922Z" fill="#2A4D52"/>
<path fill-rule="evenodd" clip-rule="evenodd" d="M210.489 481.877L209.389 525.461C209.125 537.13 208.819 548.78 208.453 560.429C208.31 563.79 208.167 567.13 208.025 570.49C207.984 571.447 207.943 572.405 207.903 573.362C207.74 577.72 207.556 582.099 207.353 586.457C207.292 587.924 207.231 589.39 207.149 590.856C207.088 592.364 207.007 593.871 206.925 595.378C206.925 595.398 206.905 595.418 206.884 595.418C206.844 595.418 206.823 595.398 206.823 595.378C206.823 593.85 206.844 592.323 206.884 590.795C206.905 589.41 206.905 588.046 206.945 586.661C206.966 584.461 207.007 582.242 207.047 580.022C207.088 577.802 207.129 575.582 207.169 573.362C207.19 572.405 207.21 571.447 207.231 570.49C207.312 567.109 207.373 563.749 207.434 560.389C207.76 548.739 208.147 537.09 208.575 525.44L210.102 482.182C210.245 482.081 210.367 481.979 210.489 481.877Z" fill="#2A4D52"/>
<path fill-rule="evenodd" clip-rule="evenodd" d="M211.14 455.544L211.059 458.476L210.875 466.032L210.489 481.877C210.366 481.979 210.244 482.081 210.102 482.182L210.692 465.543V465.482L210.937 458.436L211.038 455.544C211.038 455.503 211.079 455.482 211.1 455.482C211.12 455.482 211.14 455.503 211.14 455.544Z" fill="#2A4D52"/>
<path fill-rule="evenodd" clip-rule="evenodd" d="M164.992 551.206C164.992 551.226 164.972 551.247 164.951 551.267C164.931 551.247 164.931 551.226 164.931 551.206C164.788 550.452 164.646 549.699 164.564 548.945L164.992 551.206Z" fill="#2A4D52"/>
<path fill-rule="evenodd" clip-rule="evenodd" d="M196.03 462.448C196.009 465.584 195.195 468.639 194.156 471.592L193.993 471.266C195.052 468.435 195.887 465.482 195.928 462.448C195.928 462.407 195.948 462.387 195.969 462.387C196.009 462.387 196.03 462.407 196.03 462.448Z" fill="#2A4D52"/>
<path fill-rule="evenodd" clip-rule="evenodd" d="M140.572 566.012C140.572 566.012 140.572 566.032 140.551 566.053C140.49 565.931 140.45 565.829 140.409 565.707C139.778 562.692 139.33 559.658 138.8 556.644C138.27 553.507 137.741 550.351 137.15 547.234C136.886 545.707 136.376 544.159 135.969 542.652C135.521 541.165 134.747 539.78 134.116 538.294C133.77 537.499 133.505 536.664 133.321 535.829V535.809C133.138 535.076 133.016 534.322 132.894 533.609C132.711 532.876 132.609 531.919 132.731 531.145C132.853 530.371 132.751 529.618 132.649 528.803C132.649 528.783 132.67 528.762 132.69 528.762C132.711 528.742 132.751 528.762 132.751 528.783C133.036 529.516 133.362 530.331 133.362 531.145C133.423 531.98 133.525 532.612 133.79 533.406C133.892 533.752 133.994 534.078 134.055 534.424V534.445C134.381 535.626 134.605 536.807 134.992 537.947C135.501 539.414 136.213 540.88 136.6 542.469C136.967 544.037 137.334 545.564 137.619 547.153C138.148 550.289 138.596 553.446 139.085 556.583C139.574 559.739 139.981 562.896 140.572 566.012Z" fill="#2A4D52"/>
<path fill-rule="evenodd" clip-rule="evenodd" d="M140.553 566.053L140.532 566.074C140.512 566.074 140.471 566.053 140.471 566.033C140.451 565.931 140.431 565.809 140.41 565.707C140.451 565.829 140.492 565.931 140.553 566.053Z" fill="#2A4D52"/>
<path fill-rule="evenodd" clip-rule="evenodd" d="M189.35 433.04C188.8 432.999 188.25 433.02 187.721 433.061C188.209 433.02 188.841 432.959 189.35 433.04Z" fill="#8A63BC"/>
<path fill-rule="evenodd" clip-rule="evenodd" d="M261.467 591.712C261.467 591.732 261.446 591.752 261.426 591.752C261.406 591.773 261.365 591.752 261.365 591.732C260.265 587.618 259.206 583.504 258.167 579.39C258.147 579.37 258.147 579.349 258.147 579.309C257.394 576.376 256.64 573.443 255.927 570.49C255.479 568.718 255.031 566.946 254.583 565.175C253.972 562.71 253.361 560.246 252.73 557.782C249.98 546.438 247.272 535.094 244.624 523.729L237.027 491.408C237.231 491.591 237.414 491.754 237.638 491.917L245.418 523.526C248.229 534.849 250.999 546.193 253.707 557.558C254.257 559.981 254.807 562.405 255.377 564.828C255.581 565.745 255.805 566.661 256.009 567.578C256.233 568.555 256.457 569.513 256.681 570.49C258.33 577.557 259.939 584.624 261.467 591.712Z" fill="#2A4D52"/>
<path fill-rule="evenodd" clip-rule="evenodd" d="M237.638 491.918C237.414 491.755 237.231 491.592 237.027 491.408L237.007 491.388L235.235 483.812L231.121 466.378L228.575 455.544C228.575 455.523 228.596 455.503 228.616 455.482C228.657 455.482 228.677 455.503 228.677 455.523L231.304 466.215L235.703 484.097L237.638 491.918Z" fill="#2A4D52"/>
<path fill-rule="evenodd" clip-rule="evenodd" d="M247.149 471.41C247.027 471.899 246.599 472.347 246.09 472.306C242.404 472.062 240.774 468.233 239.878 465.158C239.471 463.773 239.104 462.388 238.453 461.105C238.33 460.84 238.188 460.575 238.025 460.331C237.373 459.292 236.436 458.233 235.214 457.928C234.909 457.846 234.583 457.826 234.237 457.846C232.954 457.969 233.178 456.095 234.237 455.993C234.44 455.973 234.624 455.973 234.807 455.973C237.292 456.013 238.982 457.806 240.082 459.944C240.55 460.84 240.896 461.797 241.182 462.693C242.017 465.443 242.933 470.188 246.558 470.433C246.64 470.433 246.701 470.453 246.762 470.494L246.782 470.534C246.905 470.84 247.027 471.125 247.149 471.41Z" fill="#2A4D52"/>
<path fill-rule="evenodd" clip-rule="evenodd" d="M247.149 471.411C247.026 471.125 246.904 470.84 246.782 470.535L246.762 470.494C247.189 470.596 247.271 471.003 247.149 471.411Z" fill="#2A4D52"/>
<path fill-rule="evenodd" clip-rule="evenodd" d="M210.511 457.967C210.45 458.089 210.388 458.191 210.327 458.313C210.001 458.904 209.696 459.515 209.411 460.126C208.25 462.61 207.415 465.238 206.926 467.967C206.336 471.164 206.702 474.667 205.114 477.6C204.543 478.659 202.914 478.211 203.545 477.03C204.36 475.543 204.523 473.873 204.666 472.203C204.788 470.512 204.971 468.842 205.317 467.172C205.969 463.934 207.13 460.798 208.678 457.885C208.759 457.722 208.861 457.559 208.942 457.397C209.085 457.152 209.268 456.989 209.472 456.908C210.144 456.602 210.999 457.071 210.511 457.967Z" fill="#2A4D52"/>
<path fill-rule="evenodd" clip-rule="evenodd" d="M250.998 472.327C250.856 472.836 250.408 473.244 249.878 473.244H248.554C248.351 473.244 248.106 473.101 248.004 472.918C247.882 472.735 247.862 472.449 247.923 472.246C248.066 471.757 248.493 471.35 249.023 471.35H250.347C250.571 471.35 250.795 471.492 250.896 471.675C251.019 471.859 251.039 472.124 250.998 472.327Z" fill="#2A4D52"/>
<path fill-rule="evenodd" clip-rule="evenodd" d="M202.914 479.006C202.893 479.088 202.893 479.169 202.873 479.251C202.832 479.414 202.751 479.577 202.628 479.719L201.834 480.513C201.753 480.615 201.651 480.717 201.529 480.778C201.447 480.839 201.325 480.9 201.203 480.921C201.081 480.961 200.979 480.961 200.857 480.921C200.755 480.921 200.653 480.86 200.571 480.798C200.51 480.737 200.47 480.676 200.408 480.636C200.347 480.493 200.307 480.35 200.307 480.188C200.307 480.106 200.327 480.045 200.327 479.963C200.368 479.78 200.449 479.617 200.571 479.495C200.836 479.21 201.101 478.945 201.366 478.68C201.447 478.579 201.549 478.497 201.671 478.436C201.773 478.355 201.875 478.293 201.997 478.273C202.119 478.253 202.241 478.253 202.343 478.273C202.465 478.293 202.547 478.334 202.649 478.416L202.791 478.579C202.873 478.701 202.914 478.843 202.914 479.006Z" fill="#2A4D52"/>
<path fill-rule="evenodd" clip-rule="evenodd" d="M136.921 287.535C136.799 287.433 136.697 287.311 136.595 287.188L136.575 287.168C136.208 287.209 135.841 287.249 135.495 287.311C135.515 287.331 135.515 287.331 135.536 287.331C136.004 287.392 136.452 287.473 136.921 287.535Z" fill="black"/>
<path fill-rule="evenodd" clip-rule="evenodd" d="M297.514 287.498C297.209 287.111 296.924 286.744 296.618 286.377L295.783 285.318C296.089 285.644 296.353 285.99 296.639 286.337C296.924 286.724 297.229 287.111 297.514 287.498Z" fill="#E2BCAB"/>
<path fill-rule="evenodd" clip-rule="evenodd" d="M314.234 322.529C313.99 321.714 313.745 320.879 313.481 320.065C312.931 318.252 312.36 316.48 311.77 314.729C311.464 313.853 311.159 312.977 310.853 312.122C310.629 311.47 310.385 310.818 310.141 310.167C309.917 309.556 309.672 308.945 309.428 308.334C309.265 307.906 309.082 307.478 308.919 307.051C308.593 306.277 308.247 305.482 307.9 304.708C307.88 304.647 307.86 304.586 307.819 304.525C307.798 304.464 307.758 304.403 307.737 304.342C307.473 303.731 307.187 303.12 306.902 302.529C307.982 304.627 308.959 306.765 309.876 308.965C310.202 309.678 310.487 310.431 310.752 311.165C311.118 312.163 311.485 313.16 311.831 314.158C312.116 314.932 312.36 315.706 312.585 316.48C312.91 317.519 313.216 318.557 313.501 319.596C313.644 320.126 313.806 320.676 313.929 321.225C314.051 321.653 314.153 322.101 314.234 322.529Z" fill="#E2BCAB"/>
<path fill-rule="evenodd" clip-rule="evenodd" d="M260.04 397.945C259.938 397.802 259.836 397.68 259.755 397.537C259.653 397.374 259.531 397.191 259.449 397.008C259.592 397.252 259.734 397.497 259.918 397.741C259.958 397.802 259.999 397.863 260.04 397.945Z" fill="black"/>
<path fill-rule="evenodd" clip-rule="evenodd" d="M147.373 376.356L147.231 376.478C145.337 374.584 143.809 372.303 142.689 369.819C141.549 367.354 140.856 364.646 140.714 361.896C140.693 361.468 140.673 361.041 140.673 360.613C140.673 359.228 140.815 357.823 141.121 356.458C141.793 356.458 142.465 356.438 143.117 356.377C143.096 356.438 143.076 356.499 143.076 356.54C142.954 356.906 142.872 357.273 142.791 357.66C142.771 357.721 142.75 357.782 142.75 357.843C142.669 358.21 142.587 358.576 142.547 358.963C142.547 359.004 142.526 359.045 142.526 359.086C142.465 359.493 142.424 359.88 142.404 360.287V360.409C142.384 360.776 142.363 361.163 142.363 361.53V361.835C142.424 366.947 144.257 372.079 147.373 376.356Z" fill="black"/>
<path fill-rule="evenodd" clip-rule="evenodd" d="M171.14 360.226L170.916 360.715L170.448 360.45C169.124 359.615 167.475 359.167 165.866 359.167C164.257 359.126 162.526 359.513 161.405 360.633C160.204 361.733 160.122 363.607 160.57 365.134C160.957 366.275 161.813 367.293 162.912 367.884C163.279 368.087 163.666 368.23 164.073 368.332L164.033 368.515C163.605 368.434 163.177 368.271 162.79 368.087C162.505 367.945 162.22 367.782 161.955 367.578C161.711 367.375 161.466 367.171 161.242 366.927C161.018 366.682 160.815 366.417 160.652 366.132C160.611 366.071 160.591 366.03 160.57 365.99C160.428 365.766 160.326 365.501 160.224 365.257C160.02 364.625 159.878 363.912 159.878 363.22C159.878 362.14 160.204 361.061 160.998 360.246C162.261 358.923 164.134 358.454 165.845 358.413C167.413 358.373 169.002 358.678 170.468 359.391C170.733 358.556 170.876 357.701 170.876 356.866C170.876 355.399 170.468 353.953 169.613 352.772C169.532 352.65 169.43 352.528 169.328 352.405L169.022 352.039C168.819 351.815 168.595 351.591 168.35 351.367C168.126 351.163 167.882 350.959 167.637 350.776C167.393 350.572 167.128 350.389 166.864 350.226C165.804 349.534 164.623 348.984 163.442 348.556C163.279 348.495 163.116 348.434 162.953 348.393C163.361 348.067 163.768 347.721 164.155 347.375C164.766 347.619 165.377 347.905 165.967 348.23C166.273 348.373 166.558 348.536 166.843 348.719C167.434 349.065 167.984 349.452 168.493 349.88C168.758 350.084 169.002 350.308 169.246 350.552C169.735 351.021 170.163 351.55 170.55 352.12C172.199 354.503 172.281 357.721 171.14 360.226Z" fill="black"/>
<path fill-rule="evenodd" clip-rule="evenodd" d="M164.156 347.375C163.769 347.721 163.362 348.067 162.955 348.393C162.832 348.353 162.71 348.312 162.588 348.271C162.242 348.149 161.875 348.047 161.529 347.966C161.04 347.843 160.572 347.742 160.083 347.66C158.698 347.375 157.293 347.232 155.888 347.273C153.342 347.294 150.837 347.986 148.678 349.126C147.599 349.717 146.662 350.491 145.867 351.387C145.48 351.815 145.114 352.304 144.788 352.792C144.503 353.24 144.238 353.688 143.994 354.177C143.892 354.401 143.79 354.605 143.709 354.829C143.566 355.134 143.444 355.44 143.342 355.745C143.261 355.929 143.199 356.132 143.138 356.316C143.138 356.336 143.118 356.356 143.118 356.377C142.466 356.438 141.794 356.458 141.122 356.458C141.285 355.807 141.468 355.155 141.713 354.523C141.815 354.238 141.937 353.974 142.059 353.688C143.179 351.082 145.236 348.821 147.761 347.497C150.307 346.234 153.097 345.603 155.888 345.664C158.657 345.725 161.366 346.296 163.912 347.273C163.993 347.314 164.075 347.334 164.156 347.375Z" fill="black"/>
<path fill-rule="evenodd" clip-rule="evenodd" d="M342.563 291.693C339.59 301.51 332.747 310.206 323.643 314.891C332.91 305.074 338.632 292.345 338.632 278.72C338.632 259.372 327.533 242.346 310.67 232.326C310.67 232.326 310.649 232.306 310.629 232.285H310.609C310.588 232.265 310.568 232.265 310.547 232.245C309.774 231.634 308.979 231.084 308.144 230.575C308.674 230.799 309.183 231.043 309.712 231.287C321.016 236.623 331.199 244.831 337.492 255.747C343.683 266.46 346.188 279.698 342.563 291.693ZM135.541 287.335C135.52 287.335 135.52 287.335 135.5 287.315H135.48C133.077 286.969 130.694 286.5 128.352 285.971C112.67 282.427 96.5192 274.79 91.3869 261.144C90.8167 259.657 90.389 258.11 90.1039 256.562C94.1975 268.578 111.244 279.494 133.606 283.14C134.298 284.423 135.317 285.767 136.58 287.172L136.6 287.193C136.702 287.315 136.804 287.437 136.926 287.539C136.457 287.478 136.009 287.396 135.541 287.335ZM156.09 417.088C145.683 416.233 135.561 412.18 127.557 404.991C113.973 392.771 107.456 372.955 111.468 354.605C112.222 351.224 113.281 347.925 114.665 344.788C114.991 343.994 115.358 343.261 115.745 342.507C115.521 343.424 115.317 344.36 115.134 345.297V345.318C114.421 349.167 114.054 353.138 114.054 357.191C114.054 384.95 131.631 408.514 156.09 417.088ZM340.934 259.8C329.997 236.44 303.623 223.08 278.634 221.899C264.642 221.247 250.345 224.505 239.001 232.957C238.981 232.978 238.94 232.998 238.96 233.018C238.37 232.998 237.799 232.998 237.209 233.018C236.761 232.815 236.313 232.591 235.844 232.387C227.555 229.047 219.063 230.167 212.077 234.627V234.546C211.873 232.102 206.598 230.656 201.751 230.045C202.464 217.174 197.189 204.18 186.375 195.463C173.524 185.117 156.396 183.732 142.445 190.412C139.94 184.017 135.154 178.946 128.27 176.523C112.507 170.963 92.1608 181.105 82.8128 199.19C74.096 216.053 78.0471 233.833 91.4073 240.635C88.2302 246.114 87.7007 252.346 89.2078 258.171C91 265.055 95.6231 271.022 101.835 275.645C108.23 280.37 115.989 283.649 124.095 285.909C126.885 286.683 129.736 287.355 132.628 287.885C117.313 291.49 105.908 305.278 105.908 321.713C105.908 329.9 108.739 337.416 113.464 343.342C108.678 354.381 107.517 367.069 110.755 379.044C113.219 388.229 117.944 396.681 124.36 403.402C131.06 410.408 139.594 415.214 148.779 417.455C153.219 418.534 157.76 419.023 162.302 418.88H162.322L162.343 418.901C162.363 418.921 162.363 418.921 162.383 418.901C162.404 418.921 162.404 418.921 162.424 418.901H162.445C167.007 419.98 171.65 420.55 176.518 420.55C181.385 420.55 186.395 420.225 190.937 419.125L191.324 409.166C191.242 409.105 191.161 409.064 191.1 409.003C189.206 407.679 187.373 406.253 185.601 404.746C181.894 401.61 178.493 398.066 175.418 394.135L175.397 394.115C174.766 393.321 174.175 392.527 173.585 391.691C173.279 391.305 172.994 390.897 172.75 390.49C172.159 389.675 171.609 388.861 171.059 388.005C166.273 389.186 161.243 389.309 156.437 388.351L156.131 388.29C155.724 388.209 155.296 388.107 154.889 388.026C148.942 386.6 143.382 383.525 139.064 378.922C133.789 373.28 131.264 366.315 131.345 359.37C131.366 358.311 131.447 357.273 131.59 356.214C131.631 355.908 131.671 355.623 131.732 355.317V355.297C132.812 348.658 136.335 342.365 142.241 337.66C144.461 335.888 146.844 334.462 149.369 333.363C152.485 338.047 157.19 341.713 162.994 343.505C164.318 343.933 165.662 344.238 167.007 344.422C170.774 344.971 174.522 344.666 178.025 343.607H178.045H178.065C180.102 344.34 182.383 345.257 183.788 346.825C184.97 348.128 184.929 349.9 184.073 351.183C182.342 350.022 180.082 349.147 178.147 349.309C175.194 349.595 175.499 352.69 177.067 354.401C178.86 356.356 181.711 356.865 184.175 356.051C184.053 356.295 183.931 356.539 183.788 356.763C182.505 358.637 180.652 360.002 180.611 362.486C180.57 364.971 182.098 367.211 184.073 368.576C184.725 369.004 185.56 369.044 185.743 368.169C185.927 367.272 184.97 366.193 184.297 365.745C181.874 364.075 186.314 360.328 187.067 358.861C187.882 357.273 187.638 355.603 186.864 354.157C187.719 352.914 187.984 351.285 187.678 349.656C187.047 346.255 184.603 343.912 181.63 342.222C187.902 339.269 192.933 333.79 195.173 326.662C195.356 326.153 195.458 325.644 195.58 325.135C197.454 326.784 199.715 328.088 202.281 328.882C211.771 331.856 221.893 326.866 225.376 317.66C225.6 317.131 225.783 316.601 225.926 316.031C226.15 315.278 226.313 314.504 226.415 313.73C226.781 311.082 226.557 308.394 225.824 305.868C227.698 305.033 229.51 303.934 231.16 302.508C233.523 300.471 235.335 298.048 236.598 295.4C236.985 295.909 237.331 296.378 237.738 296.867C247.677 308.434 264.561 310.573 276.943 302.345C277.982 301.653 278.98 300.919 279.937 300.064C286.393 294.565 289.917 287.233 290.324 279.352C290.568 279.576 290.772 279.779 290.976 280.003C291.464 280.472 291.912 280.94 292.36 281.429C292.829 281.918 293.277 282.407 293.725 282.916C293.908 283.119 294.071 283.323 294.255 283.506C294.662 283.975 295.069 284.443 295.456 284.912L295.68 285.197L295.721 285.258C295.762 285.258 295.762 285.299 295.782 285.319C296.087 285.645 296.352 285.991 296.637 286.337C297.411 287.294 298.185 288.272 298.878 289.29C298.939 289.351 299 289.433 299.041 289.494C299.428 289.983 299.774 290.472 300.12 290.981C300.507 291.469 300.833 291.979 301.179 292.488V292.508C301.301 292.671 301.403 292.854 301.525 293.017C301.668 293.221 301.79 293.425 301.933 293.628C301.994 293.73 302.055 293.832 302.116 293.913C302.177 294.015 302.258 294.117 302.299 294.219C302.36 294.321 302.421 294.402 302.503 294.504C302.747 294.871 302.971 295.258 303.195 295.645C303.256 295.746 303.317 295.848 303.379 295.95C303.562 296.235 303.745 296.541 303.908 296.826C304.193 297.294 304.478 297.783 304.723 298.272C304.825 298.435 304.906 298.598 305.008 298.781C305.049 298.842 305.069 298.903 305.11 298.964C306.902 302.162 308.511 305.502 309.875 308.964C310.201 309.677 310.486 310.43 310.751 311.164C311.138 312.141 311.484 313.159 311.831 314.157C312.116 314.931 312.36 315.705 312.584 316.479C312.93 317.518 313.215 318.556 313.501 319.595C313.643 320.125 313.806 320.675 313.928 321.224C314.05 321.652 314.152 322.1 314.234 322.528C314.234 322.548 314.254 322.569 314.254 322.589C314.254 322.609 314.254 322.63 314.274 322.65C314.274 322.691 314.295 322.732 314.295 322.772C314.315 322.813 314.336 322.833 314.336 322.874C314.336 322.894 314.356 322.915 314.356 322.935C316.27 321.591 318.103 320.145 319.834 318.618C319.855 318.618 319.855 318.597 319.855 318.597C330.343 315.176 338.673 306.663 342.787 296.5C347.614 284.688 346.27 271.185 340.934 259.8Z" fill="#472314"/>
<path fill-rule="evenodd" clip-rule="evenodd" d="M259.918 397.741C259.734 397.497 259.592 397.252 259.449 397.008C259.531 397.191 259.653 397.374 259.755 397.537C259.836 397.68 259.938 397.802 260.04 397.945C259.999 397.863 259.958 397.802 259.918 397.741Z" fill="#E2BCAB"/>
<path fill-rule="evenodd" clip-rule="evenodd" d="M258.39 394.951C258.37 394.91 258.329 394.849 258.329 394.809C258.349 394.829 258.37 394.849 258.37 394.87C258.37 394.91 258.37 394.931 258.39 394.951Z" fill="#E2BCAB"/>
<path fill-rule="evenodd" clip-rule="evenodd" d="M260.04 397.944C259.938 397.802 259.836 397.68 259.755 397.537C259.816 397.598 259.857 397.68 259.918 397.741C259.959 397.802 259.999 397.863 260.04 397.944Z" fill="#E2BCAB"/>
<path fill-rule="evenodd" clip-rule="evenodd" d="M185.601 404.748C181.894 401.611 178.493 398.067 175.418 394.137C178.514 398.047 181.935 401.591 185.601 404.748Z" fill="#E2BCAB"/>
<path fill-rule="evenodd" clip-rule="evenodd" d="M259.754 397.537C259.653 397.374 259.53 397.19 259.449 397.007C259.591 397.251 259.734 397.496 259.917 397.74C259.958 397.801 259.999 397.862 260.039 397.944C259.938 397.801 259.836 397.679 259.754 397.537ZM171.141 360.226L170.917 360.714L170.449 360.45C169.125 359.615 167.475 359.167 165.866 359.167C164.257 359.126 162.526 359.513 161.406 360.633C160.204 361.733 160.123 363.606 160.571 365.134C160.958 366.274 161.813 367.293 162.913 367.883C163.28 368.087 163.667 368.23 164.074 368.331L164.033 368.515C163.606 368.433 163.198 368.291 162.791 368.087C162.506 367.944 162.221 367.782 161.956 367.578C161.712 367.374 161.467 367.171 161.243 366.926C161.019 366.682 160.815 366.417 160.652 366.132C160.612 366.071 160.591 366.03 160.571 365.989C160.428 365.765 160.327 365.501 160.225 365.256C160.021 364.625 159.879 363.912 159.879 363.22C159.879 362.14 160.204 361.061 160.999 360.246C162.261 358.922 164.135 358.454 165.846 358.413C167.414 358.372 169.003 358.678 170.469 359.391C170.734 358.556 170.876 357.7 170.876 356.865C170.876 355.399 170.469 353.953 169.614 352.772C169.532 352.649 169.43 352.527 169.328 352.405L169.023 352.038C168.819 351.814 168.595 351.59 168.351 351.366C168.127 351.163 167.882 350.959 167.638 350.776C167.394 350.572 167.129 350.389 166.864 350.226C165.805 349.533 164.624 348.984 163.443 348.556C163.28 348.495 163.117 348.434 162.954 348.393C162.832 348.352 162.709 348.311 162.587 348.271C162.241 348.149 161.874 348.047 161.528 347.965C161.039 347.843 160.571 347.741 160.082 347.66C158.697 347.375 157.292 347.232 155.887 347.273C153.341 347.293 150.836 347.986 148.677 349.126C147.598 349.717 146.661 350.491 145.867 351.387C145.48 351.814 145.113 352.303 144.787 352.792C144.502 353.24 144.237 353.688 143.993 354.177C143.891 354.401 143.789 354.605 143.708 354.829C143.565 355.134 143.443 355.44 143.341 355.745C143.26 355.928 143.199 356.132 143.138 356.315C143.138 356.336 143.117 356.356 143.117 356.376C143.097 356.438 143.076 356.499 143.076 356.539C142.954 356.906 142.873 357.273 142.791 357.66C142.771 357.721 142.751 357.782 142.751 357.843C142.669 358.209 142.608 358.596 142.547 358.963C142.547 359.004 142.527 359.044 142.527 359.085C142.465 359.493 142.425 359.879 142.404 360.287V360.409C142.384 360.776 142.364 361.163 142.364 361.529V361.835C142.425 366.947 144.258 372.079 147.374 376.356L147.231 376.478C145.337 374.584 143.81 372.303 142.689 369.818C141.549 367.354 140.857 364.645 140.714 361.896C140.694 361.468 140.673 361.04 140.673 360.613C140.673 359.228 140.816 357.822 141.121 356.458C141.284 355.806 141.468 355.155 141.712 354.523C141.814 354.238 141.936 353.973 142.058 353.688C143.178 351.081 145.235 348.821 147.761 347.497C150.306 346.234 153.097 345.603 155.887 345.664C158.657 345.725 161.365 346.295 163.911 347.273C163.993 347.314 164.074 347.334 164.155 347.375C164.766 347.619 165.377 347.904 165.968 348.23C166.274 348.373 166.559 348.536 166.844 348.719C167.434 349.065 167.984 349.452 168.493 349.88C168.758 350.083 169.023 350.328 169.247 350.552C169.736 351.02 170.163 351.55 170.55 352.12C172.2 354.503 172.282 357.721 171.141 360.226ZM321.912 352.731C320.466 351.387 318.633 350.491 316.739 350.002C316.82 348.434 316.902 346.825 316.902 345.216C316.902 337.517 316.026 330.063 314.356 322.935C314.356 322.915 314.336 322.894 314.336 322.874C314.336 322.833 314.315 322.813 314.295 322.772C314.295 322.732 314.275 322.691 314.275 322.65C314.254 322.63 314.254 322.609 314.254 322.589C314.254 322.569 314.234 322.548 314.234 322.528C313.99 321.713 313.745 320.878 313.48 320.064C312.93 318.251 312.36 316.479 311.77 314.728C311.464 313.852 311.159 312.976 310.853 312.121C310.629 311.469 310.385 310.817 310.14 310.166C309.916 309.555 309.672 308.944 309.427 308.333C309.265 307.905 309.081 307.477 308.918 307.05C308.592 306.276 308.246 305.481 307.9 304.707C307.88 304.646 307.859 304.585 307.819 304.524C307.798 304.463 307.757 304.402 307.737 304.341C307.472 303.73 307.187 303.119 306.902 302.528C306.841 302.406 306.78 302.284 306.739 302.182C306.719 302.141 306.698 302.121 306.678 302.08C306.658 301.999 306.617 301.938 306.576 301.856V301.836C306.373 301.408 306.149 301.001 305.925 300.573C305.721 300.186 305.538 299.799 305.334 299.412C305.273 299.249 305.191 299.107 305.11 298.964C305.069 298.903 305.049 298.842 305.008 298.781C304.906 298.598 304.825 298.435 304.723 298.272C304.478 297.783 304.193 297.294 303.908 296.826C303.745 296.541 303.562 296.235 303.379 295.95C303.318 295.848 303.257 295.746 303.195 295.645C302.971 295.258 302.747 294.871 302.503 294.504C302.422 294.402 302.36 294.321 302.299 294.219C302.259 294.117 302.177 294.015 302.116 293.913C302.055 293.832 301.994 293.73 301.933 293.628C301.79 293.425 301.668 293.221 301.525 293.017C301.403 292.854 301.301 292.671 301.179 292.508V292.488C300.833 291.979 300.507 291.469 300.12 290.981C299.774 290.472 299.428 289.983 299.041 289.494C299 289.433 298.939 289.351 298.878 289.29C298.511 288.801 298.145 288.292 297.758 287.804C297.737 287.783 297.717 287.742 297.697 287.722C297.635 287.641 297.574 287.559 297.513 287.498C297.208 287.111 296.923 286.744 296.617 286.378L295.782 285.319L295.721 285.258L295.68 285.197L295.456 284.912C295.069 284.443 294.662 283.975 294.255 283.506C294.071 283.323 293.908 283.119 293.725 282.916C293.277 282.406 292.829 281.918 292.361 281.429C291.913 280.94 291.465 280.472 290.976 280.003C290.772 279.779 290.568 279.576 290.324 279.352C289.917 287.233 286.393 294.565 279.937 300.064C278.98 300.919 277.982 301.653 276.943 302.345C264.561 310.573 247.677 308.434 237.738 296.866C237.331 296.378 236.985 295.909 236.598 295.4C235.335 298.048 233.523 300.471 231.16 302.508C229.511 303.934 227.698 305.033 225.824 305.868C226.557 308.394 226.781 311.082 226.415 313.73C226.313 314.504 226.15 315.278 225.926 316.031C225.784 316.601 225.6 317.131 225.376 317.66C221.894 326.866 211.772 331.856 202.281 328.882C199.715 328.088 197.454 326.784 195.58 325.135C195.458 325.644 195.356 326.153 195.173 326.662C192.933 333.79 187.902 339.269 181.63 342.222C184.603 343.912 187.047 346.254 187.678 349.656C187.984 351.285 187.719 352.914 186.864 354.157C187.638 355.603 187.882 357.273 187.067 358.861C186.314 360.328 181.874 364.075 184.298 365.745C184.97 366.193 185.927 367.272 185.744 368.169C185.56 369.044 184.725 369.004 184.074 368.576C182.098 367.211 180.571 364.971 180.611 362.486C180.652 360.002 182.505 358.637 183.788 356.763C183.931 356.539 184.053 356.295 184.175 356.051C181.711 356.865 178.86 356.356 177.068 354.401C175.499 352.69 175.194 349.595 178.147 349.309C180.082 349.146 182.342 350.022 184.074 351.183C184.929 349.9 184.97 348.128 183.788 346.825C182.383 345.257 180.102 344.34 178.066 343.607H178.045H178.025C174.522 344.666 170.774 344.971 167.007 344.422C165.663 344.238 164.318 343.933 162.995 343.505C157.19 341.713 152.486 338.047 149.37 333.363C146.844 334.462 144.461 335.888 142.241 337.66C136.335 342.365 132.812 348.658 131.732 355.297V355.317C131.671 355.623 131.631 355.908 131.59 356.214C131.447 357.273 131.366 358.311 131.344 359.37C131.264 366.315 133.789 373.28 139.064 378.922C143.382 383.525 148.942 386.6 154.889 388.026C155.296 388.107 155.724 388.209 156.131 388.29L156.437 388.351C161.202 389.186 166.172 389.024 170.917 387.802C170.958 387.863 170.998 387.944 171.06 388.005C171.609 388.861 172.159 389.675 172.75 390.49C172.994 390.897 173.28 391.305 173.585 391.691C174.176 392.526 174.766 393.321 175.398 394.115L175.418 394.135C178.514 398.046 181.935 401.589 185.601 404.746C187.373 406.253 189.206 407.679 191.1 409.003C191.161 409.064 191.242 409.105 191.324 409.166L190.937 419.125L190.387 433.3L190.204 437.943V438.004L190.183 438.493L190.163 438.819V439.022L189.959 444.399C190.754 445.112 191.67 445.804 192.688 446.477C193.524 447.047 194.42 447.576 195.356 448.106C195.906 448.411 196.477 448.717 197.047 449.002C198.493 449.735 200.02 450.428 201.589 451.059C202.546 451.446 203.503 451.812 204.481 452.159C205.478 452.525 206.476 452.831 207.474 453.116C209.491 453.706 211.486 454.175 213.381 454.521C213.91 454.623 214.44 454.704 214.969 454.786C215.519 454.867 216.069 454.928 216.721 454.99V454.949C216.741 454.969 216.741 454.969 216.761 454.99C218.798 455.173 220.59 455.132 222.077 454.847C224.786 454.379 226.476 453.116 226.476 450.815C226.476 450.815 226.517 448.758 226.557 446.11C226.557 446.11 226.537 444.806 226.517 443.075C226.517 442.77 226.537 442.444 226.517 442.118C226.517 439.063 226.496 435.275 226.476 434.501V434.359V433.646C226.109 433.503 225.722 433.32 225.254 433.055H225.213C223.991 432.444 222.423 431.487 220.631 430.326C213.136 425.499 201.874 416.986 196.293 412.689C196.232 412.648 196.151 412.587 196.09 412.546C195.418 412.017 194.827 411.569 194.359 411.223L226.476 422.872V422.974C226.496 422.994 226.537 422.994 226.557 422.994C233.645 424.237 241.16 424.848 249.062 424.848C263.522 424.848 281.118 421.935 292.727 409.736C299.204 402.954 304.743 394.543 308.878 384.91C310.629 380.918 312.095 376.722 313.297 372.344C313.358 372.344 313.379 372.405 313.46 372.405C319.529 372.466 324.519 367.008 324.987 361.02C325.272 357.945 324.152 354.808 321.912 352.731Z" fill="#E2BCAB"/>
<path fill-rule="evenodd" clip-rule="evenodd" d="M194.358 411.223C194.827 411.569 195.417 412.017 196.09 412.546C196.151 412.587 196.232 412.648 196.293 412.689C201.874 416.986 213.136 425.499 220.631 430.326C222.423 431.487 223.991 432.444 225.213 433.055H225.254C225.722 433.32 226.109 433.503 226.476 433.646V422.872L194.358 411.223Z" fill="#E2BCAB"/>
<path fill-rule="evenodd" clip-rule="evenodd" d="M226.476 422.872V433.646C226.109 433.503 225.722 433.32 225.254 433.055H225.213C223.991 432.444 222.423 431.487 220.631 430.326C213.136 425.499 201.874 416.986 196.293 412.689C196.232 412.648 196.151 412.587 196.09 412.546C195.417 412.017 194.827 411.569 194.358 411.223L226.476 422.872Z" fill="#E2BCAB"/>
<path fill-rule="evenodd" clip-rule="evenodd" d="M254.134 377.477C254.134 387.477 246.049 395.562 236.07 395.562C226.07 395.562 217.984 387.477 217.984 377.477C217.984 367.497 226.07 359.412 236.07 359.412C246.049 359.412 254.134 367.497 254.134 377.477Z" fill="#C57450"/>
<path fill-rule="evenodd" clip-rule="evenodd" d="M171.144 360.226L170.9 360.715L170.452 360.45C169.128 359.615 167.478 359.167 165.849 359.167C164.24 359.126 162.529 359.513 161.389 360.633C160.207 361.733 160.126 363.607 160.574 365.134C161.103 366.662 162.448 367.945 164.057 368.332L164.016 368.515C162.325 368.169 160.859 366.906 160.228 365.256C159.678 363.648 159.657 361.591 161.002 360.246C162.264 358.923 164.118 358.454 165.849 358.413C167.417 358.373 169.006 358.678 170.452 359.391C171.205 357.13 170.961 354.646 169.596 352.772C168.171 350.735 165.808 349.432 163.425 348.556C161.022 347.701 158.435 347.212 155.869 347.273C153.344 347.294 150.839 347.986 148.68 349.126C144.261 351.57 142.285 356.764 142.367 361.835C142.428 366.947 144.261 372.079 147.377 376.356L147.214 376.478C145.34 374.584 143.792 372.303 142.692 369.819C141.552 367.354 140.839 364.645 140.717 361.896C140.554 359.147 140.88 356.295 142.061 353.688C143.181 351.082 145.218 348.821 147.764 347.497C150.309 346.234 153.1 345.603 155.89 345.664C158.639 345.725 161.348 346.296 163.914 347.273C166.439 348.291 168.944 349.737 170.553 352.12C172.183 354.503 172.285 357.721 171.144 360.226Z" fill="black"/>
<path fill-rule="evenodd" clip-rule="evenodd" d="M257.15 314.751C256.783 315.149 256.254 315.089 255.826 314.81C255.622 314.671 255.235 314.492 254.95 314.432C254.542 314.333 254.278 314.313 253.829 314.333C253.524 314.373 253.157 314.452 252.791 314.611C252.77 314.631 252.628 314.691 252.628 314.691C252.526 314.751 252.444 314.81 252.363 314.87C252.179 314.989 252.139 315.009 252.016 315.129C250.916 316.203 250.855 317.973 251.731 319.187C252.037 319.605 251.853 320.221 251.446 320.48C250.998 320.758 250.448 320.599 250.142 320.181C248.777 318.311 248.981 315.387 250.713 313.796C252.485 312.165 255.154 312.045 257.089 313.418C257.517 313.716 257.456 314.412 257.15 314.751Z" fill="black"/>
<path fill-rule="evenodd" clip-rule="evenodd" d="M267.02 365.404C263.737 365.798 260.416 360.215 259.615 352.915C258.794 345.616 260.798 339.381 264.061 338.967C267.344 338.572 270.665 344.156 271.466 351.455C272.287 358.755 270.283 364.989 267.02 365.404Z" fill="black"/>
<path fill-rule="evenodd" clip-rule="evenodd" d="M263.503 333.847C263.522 334.449 263.144 334.872 262.671 334.939C260.213 335.229 257.924 337.347 257.092 340.156C256.941 340.691 256.563 341.092 256.052 340.958C255.636 340.847 255.239 340.223 255.39 339.71C256.506 335.942 259.305 333.245 262.614 332.844C263.087 332.777 263.503 333.312 263.503 333.847Z" fill="black"/>
<path fill-rule="evenodd" clip-rule="evenodd" d="M308.31 382.714C304.183 392.04 298.632 400.183 292.167 406.748C290.194 407.517 288.08 408.03 285.844 408.148C271.164 409.035 257.765 396.457 257.4 390.443C257.379 389.95 257.42 389.516 257.542 389.102C258.945 384.489 270.147 384.745 283.648 383.937C295.887 383.207 305.301 380.171 308.31 382.714Z" fill="white"/>
</svg>
