<svg width="485" height="731" viewBox="0 0 485 731" fill="none" xmlns="http://www.w3.org/2000/svg">
<path fill-rule="evenodd" clip-rule="evenodd" d="M52.5734 459.102C52.3825 466.478 62.1734 462.703 58.1433 457.387C55.4692 454.245 53.3696 455.614 52.5734 459.102ZM73.0235 487.341C73.7405 495.305 75.2435 505.607 69.1988 511.815C66.2795 514.478 61.9658 513.685 58.3901 513.108C48.5519 511.328 46.5826 501.173 45.0696 492.855C44.5339 491.324 43.4839 493.603 43.046 494.146C38.5207 500.893 33.3546 507.483 26.0859 511.427C12.8487 518.403 4.80161 506.038 7.44866 493.652C8.39826 486.935 14.042 482.478 18.6195 478.007C20.8597 476.392 19.1829 475.975 17.3541 476.266C4.99751 478.398 -0.973712 474.97 0.129318 461.69C1.39555 453.112 10.9922 449.407 18.2473 446.949C20.4888 446.298 20.4872 446.326 19.5577 444.163C17.996 440.528 16.5783 436.855 15.752 432.956C14.0358 424.804 18.3781 413.511 27.5684 413.155C39.1034 412.361 45.263 423.443 50.2497 431.9C50.2664 415.347 67.5871 405.368 82.9742 406.67C91.2046 406.772 95.4188 414.953 95.4923 422.36C95.6941 428.355 90.8734 432.885 88.5058 437.971C100.034 438.962 115.055 441.779 119.335 454.16C120.175 456.295 119.565 458.155 118.019 459.76C114.129 464.604 102.803 464.645 104.421 466.646C106.775 474.268 108.649 481.99 109.601 489.92C110.3 494.743 107.733 497.906 103.934 500.283C92.0921 507.434 80.06 495.808 73.0235 487.341Z" fill="#F55B80"/>
<path fill-rule="evenodd" clip-rule="evenodd" d="M188.497 440.949C188.769 426.531 215.192 429.22 216.485 420.971C217.781 414.946 219.346 408.697 224.639 404.899C236.516 394.571 249.535 396.947 260.952 406.542C270.436 414.801 276.552 379.349 302.79 397.418C313.266 402.784 316.333 423.858 324.459 423.603C333.079 421.186 341.185 426.023 346.542 432.614C348.571 436.876 367.369 451.343 356.83 453.092C344.565 453.179 332.348 451.756 320.231 450.459C302.263 450.522 284.175 450.878 266.159 450.707C241.951 449.322 217.734 451.882 193.631 450.38C192.216 450.262 189.97 450.12 190.123 448.22C189.796 445.753 188.81 443.447 188.497 440.949Z" fill="#7DB4DB"/>
<path fill-rule="evenodd" clip-rule="evenodd" d="M356.305 586.556C369.277 585.57 369.652 568.598 356.708 566.252C342.581 562.776 340.938 587.587 356.305 586.556ZM357.511 512.566C360.623 509.1 367.438 496.888 372.224 503.147C378.839 514.352 383.17 526.492 390.031 537.637C381.499 534.04 372.504 539.992 372.192 549.104C371.729 562.92 393.376 562.675 396.489 550.628C397.374 547.966 403.902 562.243 404.637 563.729C404.971 564.551 405.335 565.3 404.426 565.924C395.738 571.154 396.175 584.367 407.07 586.892C408.603 587.454 410.985 586.433 411.695 588.356C414.338 594.263 416.772 600.254 418.923 606.36C423.018 616.331 410.46 613.788 404.509 613.994C403.511 613.989 403.389 613.79 403.423 612.796C403.574 608.24 401.753 604.684 398.034 602.057C395.49 599.41 392.706 596.839 388.901 598.895C383.796 601.675 380.393 607.424 380.721 613.276C380.783 614.265 380.159 614.419 379.329 614.368C366.327 614.526 353.298 615.111 340.323 614.009C337.397 614.156 344.14 605.663 337.151 600.012C329.732 588.364 313.015 602.259 319.906 612.776C276.217 605.193 285.496 615.538 298.673 587.421C300.252 584.176 310.683 594.83 318.845 583.497C324.403 575.355 312.022 571.813 313.111 566.938C316.307 563.205 319.396 559.379 322.546 555.607C323.607 553.771 324.782 556.564 325.972 556.994C337.923 566.006 354.155 540.974 338.9 535.779C339.411 534.371 349.853 521.484 352.055 519.588C351.619 527.95 363.089 534.19 368.429 526.606C375.739 518.705 365.175 509.763 357.511 512.566Z" fill="#EBBF5E"/>
<path fill-rule="evenodd" clip-rule="evenodd" d="M471.779 406.651C471 414.607 471.006 422.833 466.971 429.997C461.721 441.051 455.644 452.9 444.646 459.243C417.408 475.985 389.449 461.389 384.967 430.392C384.029 424.982 383.504 419.501 382.66 414.072C381.782 410.516 383.615 406.831 382.264 403.472C381.683 402.619 381.988 401.947 382.975 401.186C396.147 393.722 410.086 406.245 415.691 417.692C418.949 422.576 420.139 393.391 422.661 391.55C425.339 387.12 431.581 389.67 435.219 391.529C440.713 394.757 440.504 402.101 440.995 407.701C441.518 409.842 440.907 418.636 444.538 413.887C450.508 406.345 449.45 395.844 454.807 388.05C462.425 378.891 472.627 399.901 471.779 406.651Z" fill="#60D6E1"/>
<path fill-rule="evenodd" clip-rule="evenodd" d="M460.531 540.951C460.714 557.513 463.279 573.822 465.423 590.206C466.017 595.495 466.434 600.805 466.934 606.105C467.066 607.495 466.975 607.652 465.513 607.64C460.684 607.696 456.225 605.578 451.558 605.146C448.832 604.85 446.872 603.586 445.692 601.048C441.114 592.846 436.952 584.848 444.275 576.714C459.704 555.179 430.239 548.167 442.871 528.113C457.124 512.855 448.787 508.203 447.018 491.053C448.165 473.745 474.982 469.158 477.368 488.635C480.08 499.051 466.557 516.874 472.058 523.022C482.204 533.167 479.575 546.382 480.128 559.357C482.192 571.235 488.422 579.73 482.529 592.41C480.787 596.222 480.461 601.397 475.807 602.787C473.392 602.659 469.219 609.184 468.875 604.408C467.897 588.562 464.874 572.973 463.394 557.182C462.693 548.69 462.942 540.183 462.674 531.691C459.649 526.605 460.909 539.57 460.685 540.94C460.634 540.943 460.583 540.947 460.531 540.951Z" fill="#52DC82"/>
<path fill-rule="evenodd" clip-rule="evenodd" d="M74.0172 615.7C75.7587 618.954 59.1408 618.183 56.7122 618.95C56.7077 618.898 56.7035 618.846 56.699 618.794C54.771 619.094 52.3603 617.968 50.9535 619.764C49.3172 621.462 47.5371 618.04 48.0204 616.537C48.1787 615.867 48.2819 615.14 48.1977 614.465C47.6014 609.705 46.3424 605.09 45.083 600.472C44.9807 597.738 41.8104 592.616 44.2958 590.777C51.1121 586.747 57.7741 582.467 64.4802 578.261C68.2406 573.937 72.5126 611.703 74.0172 615.7ZM91.2095 533.265C96.083 538.147 100.03 543.689 103.027 549.885C105.316 555.96 110.488 565.519 109.141 571.729C101.691 583.92 95.7845 597.985 97.2145 612.525C97.3792 614.993 97.3636 615.154 94.8997 615.477C92.1106 615.168 76.1329 618.511 76.5373 615.696C74.0935 602.771 71.3931 589.888 68.6476 577.026C68.3696 573.904 73.106 572.912 74.7549 570.638C79.9612 566.707 86.0233 557.171 75.0424 556.996C72.3028 556.316 65.4258 559.578 66.4815 554.734C67.0811 546.894 69.7592 539.831 74.5044 533.542C76.4548 530.948 80.1805 532.515 82.9637 532.094V532.053C85.6877 532.405 89.0818 531.095 91.2095 533.265ZM110.74 574.458C111.74 580.628 117.192 612.066 112.417 614.44C108.77 614.586 105.125 614.721 101.479 614.846C99.8096 614.903 99.8583 614.881 99.6379 613.238C98.2432 599.735 103.012 585.232 110.74 574.458ZM157.446 571.724C158.337 573.335 158.332 573.363 157.053 574.633C147.209 584.365 142.511 597.453 141.904 611.066C141.769 612.792 141.651 612.911 139.865 613.02C132.529 613.619 125.18 613.983 117.819 614.105C114.979 614.514 117.012 609.408 116.598 607.821C116.508 595.698 114.85 584.046 112.751 572.21C114.145 565.522 121.831 559.094 127.46 555.36C139.839 548.471 151.794 561.826 157.446 571.724ZM164.284 598.469C163.899 601.971 163.554 605.478 163.113 608.973C163.064 612.027 158.814 610.946 156.704 611.546C153.195 611.872 149.673 612.088 146.165 612.417C144.498 612.689 144.31 612.565 144.345 610.823C144.437 606.31 145.266 601.909 146.507 597.582C148.687 589.981 152.279 583.157 157.751 577.378C161.528 571.536 164.552 595.997 164.284 598.469ZM186.643 578.62C190.965 587.494 195.36 596.333 199.743 605.177C200.55 606.805 200.43 607.084 198.626 607.251C188.033 608.062 177.513 609.55 166.927 610.43C165.756 610.478 165.49 610.169 165.638 608.929C167.546 597.939 166.581 586.886 162.431 576.525C161.403 573.847 161.385 573.862 163.706 572.224C168.463 568.865 173.818 567.09 179.532 566.272C182.193 565.371 184.894 576.438 186.643 578.62ZM185.673 565.883C206.248 565.356 219.65 584.336 225.622 601.96C225.944 603.18 226.732 604.486 224.859 604.404C220.933 604.056 203.172 608.423 202.512 605.165C195.967 592.926 190.38 580.199 184.336 567.706C183.489 566.147 184.03 565.746 185.673 565.883ZM213.657 522.36C215.131 524.605 226.943 533.667 224.489 535.408C218.669 543.197 219.579 553.323 222.576 562.05C226.974 572.923 228.673 585.641 236.676 594.611C241.692 600.627 255.8 602.413 256.369 592.141C255.063 571.024 243.848 550.574 229.589 535.231C229.743 530.34 244.029 533.015 247.36 534.329C251.665 535.599 250.593 534.805 252.437 538.646C255.696 546.624 260.274 554.043 264.046 561.663C264.746 568.854 266.065 576.023 265.792 583.263C265.882 583.268 265.972 583.273 266.062 583.278C265.795 586.431 265.513 589.583 265.272 592.739L265.295 592.995C265.537 595.624 265.739 598.479 262.594 599.277C251.98 602.172 240.836 602.302 229.989 603.874C228.717 604.17 228.59 602.994 228.291 602.099C225.224 592.425 220.286 583.797 213.621 576.156C208.69 570.502 202.702 566.47 195.316 564.703C191.977 563.025 182.808 564.824 181.765 562.001C176.867 550.441 172.17 538.679 170.091 526.234C169.924 525.288 170.126 525.007 171.041 524.902C182.639 523.61 194.275 522.702 205.921 521.977C208.424 522.262 211.672 520.461 213.657 522.36ZM228.227 537.45C241.991 551.926 251.17 570.959 254.002 590.718C254.269 600.304 241.507 597.544 237.633 592.026C233.328 587.162 231.882 580.632 229.555 574.726C225.916 562.978 218.347 549.296 225.982 537.61C226.927 536.222 227.072 536.233 228.227 537.45ZM65.4894 573.279C65.6519 574.393 65.1345 574.937 64.3285 575.452C57.1626 580.039 50.2126 584.625 42.7672 588.8C40.9399 562.096 33.8232 567.253 52.5467 562.334C67.9922 558.78 62.872 559.951 65.4894 573.279ZM73.6465 559.242C79.397 559.363 80.3736 561.141 76.4228 565.621C75.3069 566.685 67.7995 575.045 67.5844 571.377C67.0614 560.66 62.7865 559.605 73.6465 559.242ZM167.645 526.955C168.507 530.683 169.251 534.444 170.295 538.121C172.571 546.134 175.63 553.873 178.909 561.526C179.886 563.807 179.879 563.773 177.48 564.174C171.898 565.106 166.742 567.104 162.112 570.39C160.657 571.737 159.934 571.575 159.164 569.741C145.056 546.897 127.841 544.137 112.018 567.208C107.637 554.55 103.376 541.603 93.3737 531.904C117.566 530.035 141.55 527.752 165.693 525.504C167.287 525.324 167.264 525.305 167.645 526.955ZM70.3276 531.968C70.8822 532.111 71.4371 532.253 71.9917 532.396C56.3764 557.13 73.8752 556.863 51.7513 560.094C49.4734 559.938 38.4847 565.238 39.1855 561.623C38.9176 557.696 38.6774 553.758 38.002 549.875C36.5972 546.393 32.1972 540.421 38.1832 538.568C48.6447 535.376 59.205 531.739 70.2985 532.226C70.3083 532.14 70.3178 532.054 70.3276 531.968ZM254.599 537.005C257.224 538.151 262.2 538.729 263.012 541.648C263.574 546.296 263.943 550.881 263.88 555.595C260.048 549.783 257.385 543.413 254.599 537.005ZM262.327 537.303C259.1 535.376 254.694 535.167 252.216 532.43C251.884 530.202 244.596 518.493 247.727 518.415C266.058 517.047 262.517 515.934 262.327 537.303ZM249.048 532.036C221.057 524.211 234.809 542.483 216.431 521.204C225.057 520.188 233.935 519.764 242.635 518.792C244.93 518.377 247.967 529.699 249.048 532.036Z" fill="#60D6E1"/>
<path fill-rule="evenodd" clip-rule="evenodd" d="M321.096 487.537C322.365 487.963 324.204 488.905 322.722 490.326C315.693 501.125 309.52 512.797 300.266 521.879C292.996 517.235 294.607 516.488 299.643 511.029C306.943 503.461 313.649 494.667 321.096 487.537ZM327.209 490.548C341.024 492.202 310.188 515.236 306.607 518.515C306.558 518.441 306.508 518.366 306.459 518.291C313.443 509.882 318.843 500.374 324.753 491.216C325.637 489.844 325.681 489.893 327.209 490.548ZM318.495 486.341C311.049 495.919 302.741 504.55 294.571 513.483C293.625 514.512 293.482 514.49 292.847 513.252C290.353 509.739 294.64 506.678 296.635 503.858C301.528 497.954 306.383 492.007 311.301 486.129C313.319 484.313 315.807 486.266 318.495 486.341ZM309.292 484.954C303.445 492.598 297.087 499.687 291.125 507.228C289.694 508.823 289.319 504.981 288.874 504.108C288.65 503.218 288.861 502.382 289.456 501.589C293.294 496.465 297.126 491.335 300.875 486.146C302.765 483.408 306.438 484.627 309.292 484.954ZM299.186 484.781C295.494 489.844 292.184 495.048 287.898 500.024C287.322 495.176 284.131 490.124 287.46 486.06C287.46 482.957 296.983 484.422 299.186 484.781Z" fill="#F55B80"/>
<path fill-rule="evenodd" clip-rule="evenodd" d="M180.345 711.775C180.377 711.743 180.41 711.689 180.431 711.646C183.531 705.501 189.697 701.626 196.952 701.293C204.926 700.927 212.254 704.833 216.581 711.732C216.592 711.743 216.602 711.764 216.613 711.775H180.345ZM218.797 711.775H218.379C218.389 711.764 218.41 711.743 218.41 711.721C218.615 711.398 218.625 710.978 218.41 710.623C216.409 707.438 213.825 704.833 210.834 702.918C206.755 700.281 201.924 698.936 196.855 699.183C191.076 699.442 185.921 701.734 182.197 705.544C180.723 707.05 179.473 708.783 178.505 710.709C178.333 711.075 178.376 711.473 178.602 711.775H178.182C177.58 711.775 177.105 712.238 177.105 712.829C177.105 713.411 177.58 713.884 178.182 713.884H218.797C219.389 713.884 219.874 713.411 219.874 712.829C219.874 712.238 219.389 711.775 218.797 711.775Z" fill="#2A4D52"/>
<path fill-rule="evenodd" clip-rule="evenodd" d="M216.616 711.778H180.348C180.38 711.746 180.412 711.693 180.434 711.651C183.534 705.496 189.7 701.621 196.953 701.294C204.929 700.924 212.257 704.83 216.584 711.735C216.594 711.746 216.605 711.767 216.616 711.778Z" fill="#765040"/>
<path fill-rule="evenodd" clip-rule="evenodd" d="M226.527 531.438C219.683 604.942 212.957 677.728 210.836 702.919C206.757 700.28 201.926 698.939 196.857 699.181C191.078 699.446 185.923 701.736 182.199 705.548C181.887 682.659 180.993 606.61 180.11 529.844C192.971 529.379 204.433 529.664 214.635 530.382C218.81 530.677 222.772 531.036 226.527 531.438Z" fill="#765040"/>
<path fill-rule="evenodd" clip-rule="evenodd" d="M218.456 711.78H218.381C218.391 711.769 218.412 711.747 218.412 711.727L218.456 711.78Z" fill="#765040"/>
<path fill-rule="evenodd" clip-rule="evenodd" d="M237.031 514.123L235.232 513.574C235.222 513.332 235.212 513.089 235.19 512.846L237.031 514.123Z" fill="#765040"/>
<path fill-rule="evenodd" clip-rule="evenodd" d="M255.453 711.946C255.453 712.064 255.453 712.183 255.442 712.301H246.457C246.391 710.665 246.22 707.523 245.972 703.057V703.035C246.134 703.132 246.317 703.186 246.51 703.186C246.726 703.186 246.941 703.197 247.155 703.207C251.784 703.53 255.453 707.329 255.453 711.946Z" fill="#765040"/>
<path fill-rule="evenodd" clip-rule="evenodd" d="M285.931 705.179L278.677 712.303H257.595C257.606 712.185 257.606 712.066 257.606 711.948C257.606 706.136 252.913 701.369 247.059 701.089C246.876 701.078 246.693 701.078 246.51 701.078C246.273 701.078 246.058 701.154 245.875 701.283V701.272C244.368 674.076 240.408 602.509 236.34 532.664C242.603 533.514 248.21 534.483 253.279 535.387C265.892 537.668 274.997 539.649 281.626 539.207C281.336 545.277 281.056 551.304 280.765 557.287C280.765 557.352 280.755 557.427 280.755 557.492C280.755 557.567 280.744 557.643 280.744 557.718C277.225 631.115 274.202 698.851 274.254 701.519L285.931 705.179Z" fill="#765040"/>
<path fill-rule="evenodd" clip-rule="evenodd" d="M308.434 712.303H281.723L288.233 705.91L308.208 712.163C308.294 712.206 308.369 712.249 308.434 712.303Z" fill="#765040"/>
<path fill-rule="evenodd" clip-rule="evenodd" d="M312.804 713.358C312.804 713.939 312.331 714.412 311.727 714.412H246.51C245.919 714.412 245.434 713.939 245.434 713.358C245.434 712.798 245.886 712.335 246.457 712.303H255.442C255.453 712.185 255.453 712.066 255.453 711.948C255.453 707.331 251.784 703.532 247.156 703.209C246.941 703.198 246.726 703.187 246.51 703.187C246.317 703.187 246.134 703.134 245.972 703.037C245.65 702.865 245.434 702.52 245.434 702.133C245.434 701.778 245.607 701.466 245.876 701.283C246.058 701.153 246.274 701.078 246.51 701.078C246.693 701.078 246.876 701.078 247.059 701.089C252.914 701.369 257.605 706.136 257.605 711.948C257.605 712.066 257.605 712.185 257.595 712.303H278.677L285.931 705.178L288.234 705.91L281.723 712.303H311.727C312.331 712.303 312.804 712.776 312.804 713.358Z" fill="#2A4D52"/>
<path fill-rule="evenodd" clip-rule="evenodd" d="M280.765 557.288C280.765 557.352 280.754 557.428 280.754 557.492C280.754 557.568 280.742 557.643 280.742 557.718C280.044 558.073 279.29 558.342 278.537 558.558C277.299 558.902 275.997 559.074 274.706 559.063C273.414 559.042 272.112 558.902 270.875 558.525C269.626 558.192 268.464 557.621 267.398 556.943C268.647 557.223 269.841 557.546 271.056 557.718C272.274 557.923 273.49 558.009 274.706 558.009C275.922 558.041 277.149 557.923 278.365 557.751C279.161 557.632 279.958 557.481 280.765 557.288Z" fill="#672448"/>
<path fill-rule="evenodd" clip-rule="evenodd" d="M211.034 555.346C210.007 556.098 208.801 556.6 207.563 556.943C206.322 557.292 205.025 557.461 203.728 557.455C202.435 557.432 201.132 557.291 199.897 556.909C198.652 556.578 197.484 556.01 196.422 555.326C197.671 555.61 198.861 555.936 200.083 556.105C201.293 556.31 202.514 556.396 203.731 556.4C204.951 556.426 206.169 556.312 207.385 556.141C208.602 555.96 209.813 555.703 211.034 555.346Z" fill="#672448"/>
<path fill-rule="evenodd" clip-rule="evenodd" d="M187.211 321.626C183.275 326.894 165.018 374.517 154.915 432.632C144.811 490.746 143.938 530.161 143.938 529.618C143.938 529.618 207.824 528.581 236.341 532.663C265.848 536.887 291.27 547.92 293.954 527.244L291.873 420.019C291.873 420.019 284.354 314.25 284.707 314.25H195.813C195.813 314.25 191.148 316.358 187.211 321.626Z" fill="#9B51E0"/>
<path fill-rule="evenodd" clip-rule="evenodd" d="M178.238 529.906C177.947 529.906 177.646 529.928 177.345 529.938C176.807 529.959 176.257 529.98 175.708 530.022C175.59 530.022 175.45 530.022 175.333 530.044C175.118 530.044 174.892 530.055 174.666 530.075C174.32 530.086 173.965 530.107 173.621 530.117H173.61C173.417 530.128 173.244 530.139 173.051 530.16C171.932 528.343 171.254 527.162 170.899 526.497C170.361 525.525 170.166 525.113 170.102 524.722C170.049 524.448 170.092 524.215 170.135 524.004C170.189 523.751 170.241 523.434 170.081 522.674C169.8 523.159 169.188 523.202 168.574 523.223L168.1 523.244L167.971 523.117C167.401 522.6 166.97 522.156 167.218 521.64C167.487 521.111 168.057 521.302 169.005 521.597C169.305 521.702 169.651 521.787 169.8 521.829L169.866 521.84L169.402 520.33L170.576 521.217C171.523 521.935 172.351 522.664 173.126 523.455L175.708 526.126L174.709 526.739C176.108 528.439 176.861 529.01 177.592 529.484L178.238 529.906Z" fill="white"/>
<path fill-rule="evenodd" clip-rule="evenodd" d="M154.097 512.153C153.527 511.701 153.01 511.507 152.58 511.4C152.117 511.184 151.633 510.969 151.084 510.743C151.062 510.722 151.041 510.7 151.009 510.657L150.934 510.582C150.891 510.56 150.847 510.517 150.815 510.496C151.525 510.571 152.687 511.012 153.914 511.938C154.302 512.164 154.625 512.347 154.915 512.551L154.097 512.153ZM165.677 519.256L164.472 519.008C163.406 518.782 162.309 518.556 161.222 518.276L161.115 518.244L160.802 516.49L161.297 516.694L159.758 514.951C158.854 513.918 157.789 512.723 156.68 511.561L156.605 511.496C154.571 510.162 152.332 509.269 149.943 508.86C149.147 508.709 148.426 508.591 147.78 508.494C146.984 508.375 146.284 508.279 145.703 508.117L145.262 509.032C146.327 510.14 147.855 510.7 149.793 511.4L150.578 511.679C151.009 512.131 151.504 512.261 152.031 512.368L152.268 512.422C152.818 512.68 153.365 512.982 153.947 513.369L154.248 512.874L155.787 513.229C156.078 513.477 156.304 513.724 156.519 513.95C157.1 514.564 157.649 515.156 159.252 515.834L159.823 516.081L155.959 515.403L160.759 518.158L157.1 517.222L160.899 519.277C161.932 519.837 162.976 520.354 163.998 520.838L164.988 521.333L165.44 520.397C165.42 520.375 165.387 520.343 165.344 520.332C165.559 520.321 165.72 520.257 165.839 520.041L166.001 519.676L165.677 519.256Z" fill="white"/>
<path fill-rule="evenodd" clip-rule="evenodd" d="M198.931 489.408L198.768 489.671C198.257 489.085 197.656 488.429 196.974 487.692C196.967 487.672 196.959 487.641 196.944 487.631C197.182 487.682 197.36 487.652 197.523 487.601L197.589 487.571C197.686 487.54 197.753 487.51 197.842 487.52C198.954 488.348 199.08 488.853 199.095 488.984C199.109 489.095 199.05 489.206 198.931 489.408ZM235.246 512.68L234.473 512.024C234.17 511.776 233.948 511.572 233.772 511.421C234.038 511.389 234.269 511.303 234.392 510.991C234.482 510.808 234.526 510.485 234.331 510.098L234.278 509.979L234.198 509.926C232.547 508.785 231.206 508.075 229.936 507.419C229.874 507.386 229.812 507.354 229.75 507.322C228.161 506.525 226.66 505.74 224.654 504.234C224.734 503.685 224.369 503.168 224.236 502.985L224.121 502.867C222.913 502.135 221.724 501.404 220.587 500.672C215.012 497.089 209.977 493.42 206.861 490.698L206.879 490.633C206.808 490.568 206.719 490.504 206.639 490.429L205.476 489.46L205.467 489.503C203.203 487.706 200.993 486.2 198.231 484.532C196.545 483.51 194.787 482.52 192.753 481.358L192.656 481.315C191.528 480.583 190.418 479.862 189.326 479.174C180.421 473.449 172.821 468.801 165.639 464.68C161.386 462.227 156.92 459.773 152.357 457.396L152.339 457.385C152.321 457.471 152.303 457.557 152.277 457.632C152.25 457.718 152.232 457.794 152.215 457.88C152.099 458.299 151.993 458.719 151.877 459.149C151.842 459.311 151.789 459.483 151.744 459.655C152.241 459.892 152.739 460.172 153.227 460.43C157.32 462.679 160.916 465.153 163.073 467.209L164.697 468.726L164.085 467.435C164.289 467.542 164.547 467.682 164.858 467.865C165.284 468.112 165.772 468.392 166.269 468.693L167.299 469.296C167.804 469.597 168.258 469.845 168.666 470.071C168.631 470.082 168.578 470.081 168.444 470.06L165.861 469.619L168.222 471.082C169.279 471.739 169.865 472.018 170.22 472.072C170.522 472.115 170.646 471.997 170.744 471.771C170.85 471.513 170.815 471.276 170.69 471.028C171.49 471.33 171.934 471.297 172.191 471.007C173.079 471.835 173.656 472.233 174.677 472.944C175.041 473.18 175.458 473.482 175.973 473.837L176.089 473.923L176.914 473.697C178.308 474.579 178.868 475.16 179.471 475.774C180.155 476.494 180.865 477.215 182.827 478.399L185.589 480.045L183.236 477.484C183.129 477.377 183.049 477.269 182.978 477.183C183.147 477.226 183.334 477.269 183.484 477.312C183.937 477.409 184.399 477.527 184.798 477.549C186.255 478.851 187.799 480.228 189.353 481.584C189.406 481.638 189.468 481.681 189.522 481.735C191.919 483.833 194.405 486.017 196.42 487.911C196.731 488.653 197.157 489.256 199.936 491.451L200.389 490.568C200.353 490.525 200.309 490.482 200.274 490.439C201.934 491.612 203.363 492.236 204.642 492.785C206.275 493.495 207.696 494.119 209.196 495.679L211.052 497.638L209.818 495.066C211.3 496.207 212.677 497.379 214.115 498.628C215.811 500.08 217.56 501.587 219.531 503.028C219.016 502.706 218.456 502.361 217.915 502.017C216.778 501.275 215.695 500.575 214.994 500.231L212.765 499.155L214.603 501.156C214.976 501.554 215.518 502.049 216.095 502.577C216.335 502.792 216.583 503.028 216.823 503.244L216.61 504.104L216.743 504.18C217.205 504.427 217.631 504.675 218.243 505.202L218.43 505.353L218.625 505.202C218.705 505.148 218.767 505.062 218.812 504.965C219.185 505.137 219.575 505.31 220.001 505.492C221.2 506.03 222.567 506.665 223.917 507.279C224.716 507.655 225.514 508.021 226.269 508.355C226.19 508.731 226.314 509.108 226.776 509.603C225.843 509.065 224.884 508.495 223.89 507.892L223.562 508.871L227.495 511.303L228.995 512.056L229.128 511.593C229.279 511.712 229.439 511.83 229.59 511.948C230.194 512.39 230.78 512.788 231.277 513.143C231.623 513.39 231.916 513.595 232.147 513.778L232.12 513.95L232.422 514.111C232.555 514.176 232.697 514.251 232.822 514.273C232.822 514.273 232.822 514.262 232.831 514.262L233.061 514.423L233.026 514.24C233.115 514.197 233.186 514.111 233.248 513.939C233.39 513.519 233.168 513.304 232.831 513.046C232.742 512.745 232.555 512.422 232.2 512.024C232.911 512.422 233.603 512.777 234.145 512.981L235.28 513.401L236.764 513.95L235.246 512.68Z" fill="white"/>
<path fill-rule="evenodd" clip-rule="evenodd" d="M288.213 537.517C288.148 537.56 288.094 537.593 288.019 537.625C287.675 537.808 287.298 537.969 286.921 538.131C287.298 537.98 287.675 537.819 288.019 537.636C288.094 537.593 288.159 537.56 288.213 537.528C288.417 537.42 288.611 537.313 288.794 537.205C288.611 537.313 288.417 537.41 288.213 537.517ZM286.706 538.195C286.34 538.335 285.964 538.464 285.576 538.561C285.974 538.475 286.34 538.346 286.706 538.206C286.782 538.184 286.857 538.163 286.921 538.131C286.857 538.152 286.782 538.174 286.706 538.195Z" fill="white"/>
<path fill-rule="evenodd" clip-rule="evenodd" d="M283.649 536.151C283.068 536.108 282.465 536.054 281.82 535.989C282.542 535.925 283.004 535.839 283.251 535.58C283.972 535.849 284.704 536.086 285.393 536.291C284.812 536.237 284.22 536.183 283.649 536.151ZM291.56 534.439C288.697 533.934 285.49 533.17 281.97 532.19H281.961C281.239 531.996 280.507 531.792 279.753 531.566C278.161 531.092 276.58 530.608 275.04 530.124C271.359 529.005 267.884 527.918 264.934 527.337L265.203 526.497C262.437 525.27 261.178 525.442 260.07 525.582C259.919 525.593 259.77 525.615 259.618 525.636C258.789 525.712 257.864 525.701 256.272 525.023C256.422 524.958 256.508 524.84 256.572 524.689C256.841 524.076 256.282 523.624 255.153 522.72C254.884 522.494 254.527 522.225 254.237 521.945L254.721 522.128L255.076 521.138C253.43 520.341 251.601 519.513 249.772 518.673C246.015 516.951 242.151 515.176 239.999 513.906L239.687 513.723L239.428 514.013C239.139 514.379 239.279 514.842 239.439 515.197C239.105 515.079 238.567 514.82 237.696 514.358L237.244 515.305C237.642 515.552 237.837 515.724 237.934 515.821C237.9 515.843 237.868 515.854 237.846 515.875C237.728 515.972 237.62 516.058 237.525 516.166L236.975 516.758L237.664 517.037C239.751 517.877 241.355 518.673 242.776 519.383C244.434 520.201 245.789 520.869 247.306 521.331C247.102 521.794 247.522 522.182 248.135 522.741L251.482 523.871C251.472 523.903 251.46 523.936 251.449 523.968C251.289 524.517 251.655 524.764 253.257 525.668L253.398 525.722L253.548 525.701C253.871 525.668 255.368 526.11 257.282 526.885L254.389 527.111L259.908 528.348C260.608 528.585 261.372 528.919 262.104 529.22C264.256 530.124 265.289 530.533 265.795 530.059L269.013 533.019L268.615 531.448C269.897 532.093 271.133 532.718 272.263 533.363C273.608 534.127 274.879 534.816 276.256 535.526L276.385 535.591C277.032 535.903 277.699 536.247 278.42 536.56C279.258 536.882 280.055 537.184 280.873 537.431C281.142 537.528 281.411 537.625 281.701 537.711C282.788 538.034 284.027 538.314 285.576 538.561C285.963 538.464 286.34 538.335 286.706 538.195C286.781 538.174 286.856 538.152 286.921 538.131C287.299 537.969 287.674 537.808 288.02 537.625C288.094 537.593 288.149 537.56 288.212 537.517C288.418 537.41 288.611 537.313 288.794 537.205C288.976 537.087 289.17 536.969 289.342 536.839C289.73 536.592 290.096 536.291 290.451 535.978C290.623 535.828 290.796 535.677 290.967 535.494C291.14 535.322 291.301 535.15 291.474 534.967C291.603 534.805 291.743 534.655 291.873 534.504L291.56 534.439Z" fill="white"/>
<path fill-rule="evenodd" clip-rule="evenodd" d="M286.151 490.521L286.239 490.414C286.097 490.326 285.966 490.228 285.846 490.14C285.585 489.954 285.378 489.803 285.192 489.67C285.388 489.741 285.563 489.803 285.726 489.856C285.781 489.874 285.824 489.892 285.868 489.901C286.447 490.095 286.794 490.193 287.012 490.237C287.721 490.777 288.636 491.318 289.497 491.823L286.151 490.521ZM297.746 497.057L297.707 496.788L297.503 496.68C296.434 496.12 294.978 495.161 293.336 494.019L293.676 493.276L289.704 490.281L289.228 491.121C288.131 490.346 287.034 489.581 286.005 488.902C285.742 488.719 285.489 488.557 285.247 488.407C281.712 486.101 280.556 485.767 280.051 485.993C279.993 485.627 279.818 485.239 279.643 484.841C279.575 484.69 279.468 484.442 279.39 484.248L280.964 484.41L279.585 483.268C277.895 481.846 276.963 481.727 275.982 481.598C275.176 481.512 274.34 481.415 272.903 480.564C272.262 479.476 270.631 478.56 268.572 477.418C268.086 477.138 267.571 476.858 267.086 476.567L267.212 476.427L267.232 476.169C267.261 475.749 267.057 475.318 265.784 474.111C265.308 473.648 264.765 473.152 264.221 472.668C263.123 471.687 261.765 470.448 261.522 469.964L261.444 469.802L261.307 469.748C257.238 468.1 255.558 466.279 253.936 464.233L253.48 463.651C252.023 461.798 250.519 459.859 247.07 457.478C245.069 456.153 244.71 456.088 244.438 456.552C244.284 456.81 244.302 457.058 244.457 457.381C244.127 457.144 243.798 456.918 243.467 456.692C243.447 456.67 243.439 456.659 243.409 456.648L243.274 455.97C243.02 454.752 242.146 454.182 241.058 453.46C240.175 452.856 239.077 452.124 238.009 450.831L237.63 451.273C235.066 449.172 233.92 448.59 232.823 448.02L232.328 447.772C231.521 447.373 230.745 446.921 229.501 446.113C228.2 445.251 226.753 444.228 225.083 442.978L224.995 442.935C224.665 442.816 224.354 442.665 224.054 442.536C223.092 442.116 222.412 441.836 221.947 442.181C221.936 442.191 221.926 442.202 221.926 442.202C220.139 440.554 219.519 439.875 218.964 439.272C218.352 438.604 217.819 438.012 215.866 436.32C215.429 435.943 214.924 435.512 214.304 434.985L213.565 434.37L213.632 435.502C213.662 435.803 213.818 436.148 214.128 436.805C214.351 437.268 214.585 437.785 214.74 438.249C210.894 434.941 208.786 433.649 206.931 432.507C206.116 432.011 205.359 431.537 204.523 430.945L204.494 430.514C204.406 429.156 202.862 428.338 200.735 427.217C199.551 426.603 198.249 425.914 197.132 425.074L198.006 424.115L197.453 423.77C197.016 423.49 196.511 423.178 195.968 422.865C194.268 421.82 192.199 420.538 190.276 419.084C189.276 418.341 188.314 417.533 187.47 416.682L189.324 416.8L187.498 415.658C184.518 413.773 181.331 411.295 178.029 408.311L176.757 407.148C173.931 404.487 171.076 401.492 167.765 397.7C167.55 397.301 167.327 396.892 167.113 396.504L166.861 396.041C166.803 396.246 166.755 396.461 166.696 396.687C166.686 396.72 166.676 396.752 166.657 396.784C166.657 396.795 166.647 396.806 166.647 396.817C166.638 396.871 166.628 396.935 166.608 396.989C166.579 397.097 166.56 397.204 166.531 397.301C166.473 397.517 166.424 397.732 166.366 397.937C166.375 397.948 166.385 397.969 166.395 397.98L166.366 397.959C166.347 398.034 166.327 398.109 166.298 398.185C166.278 398.293 166.249 398.379 166.22 398.476V398.486C166.113 398.928 165.997 399.359 165.89 399.779C165.841 399.984 165.793 400.178 165.734 400.372C166.57 401.449 167.453 402.612 168.463 403.884L168.59 404.024L168.775 404.013C169.454 403.991 170.814 405.446 172.008 406.738L172.183 406.921C173.669 408.527 175.01 409.884 176.087 410.261C176.136 410.552 176.213 410.854 176.302 411.144C176.388 411.468 176.485 411.823 176.485 412.039L176.573 412.394L176.757 412.556C179.321 414.678 179.476 414.656 179.768 414.225C179.866 414.075 179.905 413.945 179.884 413.795C180.564 414.592 181.001 415.26 181.158 415.637L180.681 415.895L181.302 416.434C183.526 418.319 183.74 418.416 184.071 418.114C184.275 417.942 184.293 417.705 184.275 417.511C184.352 417.533 184.449 417.576 184.585 417.619C185.265 418.847 185.964 420.064 186.664 421.271L186.789 421.4C187.935 422.24 189.11 423.081 190.324 423.932C196.823 428.51 204.164 433.229 211.234 437.699C211.876 438.109 212.516 438.518 213.167 438.917L214.613 439.832C218.11 442.062 221.266 444.077 224.442 446.156C225.947 447.147 227.453 448.138 228.919 449.14C229.569 449.603 230.22 450.056 230.852 450.508C232.862 451.973 234.872 453.589 236.824 455.259L238.193 456.422L237.455 454.569C239.776 456.444 241.971 457.898 244.108 459.299C247.74 461.669 251.159 463.92 254.305 467.938L254.393 468.046L256.228 468.628C256.209 468.832 256.228 469.048 256.247 469.21C256.257 469.306 256.277 469.457 256.277 469.554C256.199 469.565 256.034 469.554 255.704 469.436C255.257 469.199 254.85 468.994 254.47 468.854L254.15 469.845C254.635 470.114 255.063 470.308 255.422 470.448C256.346 470.955 257.228 471.58 258.161 472.237C259.337 473.077 260.54 473.939 261.832 474.52L264.095 475.544C264.193 475.695 264.269 475.824 264.328 475.932L264.337 475.964C264.337 475.964 264.347 475.975 264.347 475.986C264.279 475.986 264.162 475.996 263.997 475.964L261.268 475.501L263.735 476.987C264.716 477.558 265.619 478.086 266.445 478.56C268.038 479.487 269.426 480.305 270.815 481.178C273.272 482.729 275.399 484.41 277.934 486.748L278.06 486.823C278.429 486.974 278.76 487.082 279.041 487.125C279.274 487.157 279.478 487.135 279.633 487.049C279.721 487.437 279.935 487.846 280.187 488.245C281.129 489.365 282.159 490.012 283.246 490.68C283.82 491.024 284.411 491.391 285.014 491.832L285.111 491.66L285.208 491.488L287.004 493.071C290.54 496.195 294.521 499.729 298.697 503.456L298.912 503.661C298.921 503.445 298.93 503.23 298.95 503.025C298.979 502.54 299.008 502.056 299.038 501.539C299.047 501.409 299.057 501.269 299.057 501.118C299.066 501.054 299.077 500.978 299.066 500.903C299.077 500.871 299.077 500.838 299.077 500.795C299.086 500.763 299.086 500.731 299.086 500.688V500.677C299.105 500.332 299.125 500.009 299.144 499.653C299.155 499.427 299.173 499.212 299.183 498.985C298.561 498.328 297.804 497.466 297.746 497.057Z" fill="white"/>
<path fill-rule="evenodd" clip-rule="evenodd" d="M266.863 474.975L266.475 475.957L264.129 475.133L263.482 472.906L266.863 474.975Z" fill="white"/>
<path fill-rule="evenodd" clip-rule="evenodd" d="M232.638 354.96L232.971 354.971C233.283 355.175 233.595 355.358 233.874 355.519C233.412 355.304 233.003 355.121 232.638 354.96ZM300.954 404.583C300.867 403.572 300.793 402.549 300.707 401.495C300.675 401.139 300.641 400.795 300.609 400.429C300.609 400.418 300.598 400.418 300.598 400.408V400.397C300.535 400.268 300.481 400.139 300.426 399.988C300.19 399.385 299.921 398.718 298.941 397.696L298.834 397.61C296.068 396.049 292.765 393.09 289.578 390.205C289.332 389.979 289.083 389.775 288.846 389.549C288.148 388.935 287.469 388.311 286.781 387.719C281.529 383.124 278.45 381.294 276.815 381.8L275.922 382.069C275.653 381.908 275.373 381.725 275.082 381.542L276.46 380.476L275.986 380.035C271.693 376.01 266.645 373.6 262.588 371.652L261.62 371.189C257.584 369.273 253.784 367.454 250.901 364.506L250.771 364.42C249.06 363.612 247.134 362.612 245.26 361.643C242.71 360.319 240.073 358.963 237.996 358.081L238.427 357.866L237.157 357.198C236.157 356.66 235.296 356.23 234.552 355.842C234.618 355.864 234.672 355.896 234.724 355.918L237.598 356.886L235.156 354.96C234.359 354.346 232.724 353.066 230.915 352.086L227.46 350.246L230.173 352.775L229.849 353.302L231.088 354.368C230.27 354.153 230.001 354.293 229.818 354.615C229.483 355.207 229.99 355.842 231.12 356.929L231.206 357.005L232.605 357.349C235.844 358.953 236.415 359.76 237.125 360.793C237.663 361.568 238.288 362.461 240.085 363.806C242.657 365.302 244.895 366.023 247.058 366.723C249.329 367.465 251.459 368.143 253.741 369.704C254.096 369.876 254.344 370.037 254.527 370.156L252.967 370.253L254.441 371.146C257.078 372.771 259.069 373.363 260.822 373.89C262.029 374.256 263.18 374.6 264.417 375.246C264.428 377.743 268.086 379.669 272.295 381.886C276.417 383.996 281.453 386.901 283.831 390.474L283.94 390.604C285.402 391.604 286.974 392.853 288.621 394.22C289.224 394.715 289.827 395.22 290.451 395.737C292.657 397.577 294.928 399.461 297.296 401.204C297.22 401.645 297.704 402.108 298.984 403.324C299.545 403.873 300.19 404.486 300.621 404.971L301.019 405.423C301.007 405.154 300.976 404.863 300.954 404.583Z" fill="white"/>
<path fill-rule="evenodd" clip-rule="evenodd" d="M239.993 404.61C239.332 404.859 236.638 403.946 233.535 402.499C234.668 402.926 235.58 403.044 236.586 403.199C237.582 403.341 238.609 403.483 239.993 403.958V404.61ZM230.552 400.734C230.442 400.583 230.365 400.443 230.307 400.357C230.706 400.766 231.061 401.11 231.383 401.412C231.106 401.186 230.822 400.96 230.552 400.734ZM301.326 428.389C300.874 428.291 300.43 428.183 299.975 428.065C295.807 426.942 292.207 426.056 289.022 425.333C289.071 425.257 289.1 425.182 289.119 425.074C289.196 424.566 288.85 424.372 288.231 424.123C288.144 424.091 288.057 424.069 287.961 424.026C284.526 422.482 281.776 421.964 279.112 421.467C276.951 421.057 274.885 420.668 272.704 419.729L275.937 418.865L272.617 418.692C270.35 418.562 266.181 416.619 261.771 414.546C259.176 413.325 256.483 412.062 254.089 411.133L252.323 410.464L252.459 410.626C251.792 410.334 250.973 410.011 249.978 409.633L249.303 409.384C247.798 408.801 246.176 408.142 244.623 407.365C242.847 406.49 241.139 405.465 239.72 404.212L239.498 404.018L239.759 403.111C237.954 402.312 235.822 401.091 233.767 399.904C231.884 398.824 229.964 397.712 228.266 396.913L229.366 396.815L227.986 395.952C225.39 394.353 223.914 394.073 222.601 393.824C221.211 393.576 219.976 393.338 217.622 391.643L218.616 391.168L216.145 389.797C210.577 386.676 204.835 383.458 199.093 380.824L198.843 380.705C195.765 379.193 192.85 377.779 189.955 376.666C186.762 375.435 183.875 374.701 181.395 374.518L181.241 374.55C180.903 374.701 180.826 375.003 180.808 375.144C180.739 375.77 181.27 376.234 182.65 377.336C183.296 377.865 184.629 378.945 184.763 379.139L184.832 379.431L185.062 379.495C187.388 380.154 189.357 380.651 191.181 381.115C193.825 381.795 196.132 382.389 198.698 383.21L198.583 383.534C198.437 383.609 198.273 383.75 198.206 384.009C198.167 384.128 198.148 384.311 198.215 384.506L198.148 384.7L198.273 384.657C198.303 384.722 198.321 384.776 198.36 384.84L198.794 385.478L199.151 384.463C199.663 384.419 200.638 384.614 201.439 384.776C203.137 385.11 203.774 385.24 203.976 384.603C204.826 384.97 205.25 385.359 205.704 385.78C206.206 386.233 206.756 386.73 207.904 387.27C207.798 387.259 207.692 387.259 207.595 387.259C206.707 387.227 205.868 387.194 205.569 388.004L205.356 388.577L205.829 388.739C206.283 388.89 206.747 389.041 207.209 389.192C207.807 389.376 208.386 389.559 208.975 389.764C209.072 390.045 209.371 390.283 209.795 390.596C209.969 390.736 210.259 390.963 210.317 391.06C210.288 390.995 210.22 390.823 210.288 390.617C210.307 390.542 210.355 390.488 210.394 390.445C210.404 390.455 210.404 390.455 210.413 390.466L210.317 391.06L210.278 391.373C214.226 392.529 216.425 394.094 218.982 395.93C220.912 397.301 222.911 398.727 225.872 400.13L226.229 399.18C227.349 400.659 228.285 401.329 230.118 402.625C230.678 403.024 231.315 403.478 232.068 404.039L232.156 404.093C233.323 404.536 234.365 404.806 235.368 405.065C236.989 405.465 238.659 405.875 240.955 407.117C240.955 407.203 240.965 407.289 240.994 407.365C241.139 407.905 241.824 408.542 244.101 409.978C244.421 410.172 244.739 410.388 245.066 410.594C246.176 411.295 247.855 412.354 248.001 412.796L248.145 413.358L248.569 413.077C249.062 412.786 251.32 413.79 252.883 414.492L253.211 414.632C255.643 415.744 256.753 416.23 257.322 416.101C258.055 416.338 258.75 416.63 259.397 416.91L259.088 417.753C259.456 418.001 259.918 418.217 260.526 418.433L262.33 419.254L262.263 419.545C263.112 419.912 263.672 419.977 264.183 420.042L264.367 420.074L264.231 420.603C266.673 421.716 268.931 422.191 271.122 422.623C273.631 423.141 276.025 423.627 278.224 425.117L278.359 425.192L278.504 425.171C278.793 425.095 279.874 425.29 280.83 425.473C283.329 425.959 284.564 426.11 285.028 425.516C285.162 425.657 285.27 425.786 285.384 425.938C285.848 426.51 286.311 427.104 288.077 427.784C288.559 427.978 289.148 428.162 289.853 428.367L289.91 428.389L289.979 428.378C291.416 428.216 292.641 428.767 294.06 429.404C294.475 429.587 294.92 429.792 295.382 429.976C295.122 429.987 294.745 429.987 294.224 429.965L291.792 429.922L294.04 431.002C295.671 431.779 297.776 432.125 299.966 432.449L301.23 432.632C301.23 432.449 301.239 432.276 301.239 432.092C301.239 432.028 301.239 431.952 301.249 431.887C301.249 431.412 301.268 430.948 301.278 430.462C301.288 429.965 301.297 429.447 301.318 428.939V428.929C301.326 428.745 301.326 428.561 301.336 428.389H301.326Z" fill="white"/>
<path fill-rule="evenodd" clip-rule="evenodd" d="M229.842 352.723L229.336 353.621C229.144 353.505 228.97 353.41 228.82 353.336C228.82 353.419 228.798 353.515 228.755 353.599C228.701 353.715 228.54 353.959 228.174 353.948H228.12L228.077 353.937C224.375 352.903 221.749 351.33 219.166 349.694L218.811 349.45C216.153 347.719 213.14 345.766 208.922 343.38L206.951 342.271L209.008 342.377C208.049 341.806 207.027 341.31 206.049 340.825C204.326 339.98 202.863 339.251 201.979 338.281L200.107 336.211C199.236 335.63 198.31 335.07 197.287 334.521L198.084 335.704L195.92 334.215C195.21 333.719 194.748 333.306 194.296 332.917C194.124 332.768 193.962 332.621 193.79 332.473L194.102 333.856L192.886 332.515C192.337 331.903 191.789 331.376 191.217 330.889C190.927 330.636 190.647 330.404 190.346 330.203L189.259 329.432C187.989 328.609 186.525 327.944 184.986 327.257C184.405 327.004 183.813 326.739 183.222 326.455C182.748 326.234 182.296 326.043 181.865 325.811L181.791 325.769C181.877 325.621 181.984 325.473 182.07 325.325C182.382 324.86 182.684 324.406 182.974 323.974C183.071 323.826 183.179 323.679 183.265 323.541L183.275 323.552C183.674 323.911 184.342 324.344 185.246 324.84C185.913 325.124 186.601 325.41 187.268 325.674C188.366 326.117 189.399 326.518 190.303 327.004L189.958 327.975C190.184 328.102 190.389 328.218 190.584 328.366C191.002 328.651 191.337 328.989 191.66 329.443H191.885C192.229 329.422 192.66 329.412 193.155 329.464C192.606 328.979 192.144 328.535 191.929 328.197L190.776 326.445L192.52 327.384C192.939 327.617 193.381 327.838 193.822 328.071C195.264 328.82 196.749 329.59 197.545 330.351L200.559 333.202L199.171 332.431C200.548 333.624 202.044 334.458 203.68 335.356C206.101 336.696 208.846 338.206 212.108 341.299L213.484 342.619L211.687 342.229C211.31 342.155 210.837 341.964 210.288 341.712C210.643 342.039 210.934 342.324 211.203 342.598C211.977 343.369 212.494 343.887 213.818 344.214L214.077 343.622C215.044 344.097 215.991 344.541 216.939 344.973C218.694 345.797 220.351 346.558 222.04 347.476C224.935 349.028 227.421 350.696 229.842 352.723Z" fill="white"/>
<path fill-rule="evenodd" clip-rule="evenodd" d="M267.798 341.284C267.636 341.553 267.377 341.671 266.904 341.607C266.387 341.542 265.602 341.284 264.374 340.789C263.934 340.606 263.461 340.412 262.965 340.208C260.91 339.336 258.575 338.357 256.831 338.098L256.896 337.593C256.401 337.28 255.249 336.721 254.356 336.29C252.526 335.386 251.246 334.741 250.729 334.256C248.179 333.492 245.896 332.825 243.734 332.233L243.368 332.126L243.388 331.695C243.4 331.448 243.508 331.232 243.68 331.06C243.84 330.92 244.046 330.845 244.282 330.823C243.551 330.63 242.884 330.5 242.269 330.414C241.711 330.328 241.193 330.274 240.688 330.231C239.827 330.124 239.009 330.038 238.202 329.822L238.19 329.855C234.231 328.822 230.712 327.659 227.149 326.475L226.89 326.4C224.545 325.636 222.446 324.947 220.596 324.646L223.221 326.755L220.133 325.55C218.41 324.893 216.57 324.076 214.643 323.215C213.61 322.763 212.567 322.3 211.491 321.837C207.724 320.234 204.774 319.426 202.246 319.286C200.976 320.158 196.553 319.685 195.908 319.502L196.004 319.05C193.54 318.91 190.849 318.673 188.288 318.404C188.062 318.382 187.836 318.35 187.609 318.329L187.212 318.286C187.373 318.103 187.524 317.952 187.675 317.801C188.19 317.274 188.676 316.466 188.999 316.39C189.344 316.369 198.471 316.39 198.471 316.39C198.697 316.401 198.941 316.38 199.167 316.39L201.536 316.768C202.419 316.833 203.29 316.94 204.15 317.091C207.379 317.661 210.404 318.738 213.32 319.782L213.934 320.008C215.31 320.513 216.925 321.073 218.486 321.546C219.841 321.934 221.317 322.343 223.146 322.795C224.372 323.085 225.611 323.376 226.859 323.667C228.807 324.119 230.829 324.603 232.821 325.13C236.588 326.11 239.751 327.175 242.518 328.38C245.67 329.736 248.695 331.168 251.277 332.395L252.656 333.04C257.767 335.472 262.61 337.765 267.13 339.53L267.237 339.573L267.303 339.67C267.593 340.025 268.141 340.714 267.798 341.284Z" fill="white"/>
<path fill-rule="evenodd" clip-rule="evenodd" d="M274.956 342.852H274.827C274.859 343.032 274.827 343.222 274.73 343.381C274.613 343.581 274.344 344.035 272.331 343.887C272.18 343.866 272.009 343.855 271.814 343.824C270.813 343.697 269.318 343.401 267.973 342.725L265.809 341.628L268.209 341.712C268.554 341.723 268.897 341.733 269.242 341.733L268.843 341.322L269.339 340.931C269.758 340.604 270.382 340.772 271.567 341.248L272.029 341.448C272.816 341.765 273.697 342.135 274.484 342.367L274.666 342.431L274.763 342.62C274.796 342.683 274.806 342.747 274.827 342.81L274.956 342.852Z" fill="white"/>
<path fill-rule="evenodd" clip-rule="evenodd" d="M295.092 353.898L294.78 353.718C292.068 352.209 290.67 352.008 289.368 351.859C289.313 351.85 289.271 351.85 289.216 351.839C287.688 351.67 286.245 351.501 283.179 349.389L281.542 348.259L282.329 348.323C281.608 348.006 280.875 347.679 280.143 347.362L279.23 346.982L279.885 346.549C278.832 346.042 277.776 345.852 277.088 345.726C276.506 345.62 276.248 345.568 276.065 345.377C275.818 345.05 275.311 344.427 275.646 343.899C275.979 343.36 276.636 343.467 278.692 344.374C279.316 344.649 280.004 344.976 280.682 345.304C282.048 345.948 283.458 346.633 284.319 346.834L284.459 346.866L286.139 348.851C287.355 349.369 288.334 349.675 289.173 349.896C289.743 350.034 290.261 350.139 290.744 350.244C292.046 350.509 293.187 350.741 294.769 351.639C294.792 351.85 294.835 352.071 294.855 352.282C294.909 352.599 294.952 352.916 295.006 353.243C295.027 353.465 295.07 353.687 295.092 353.898Z" fill="white"/>
<path fill-rule="evenodd" clip-rule="evenodd" d="M225.556 160.85C225.567 160.86 225.567 160.871 225.556 160.893C225.556 160.903 225.546 160.903 225.534 160.903C224.9 160.871 224.297 160.742 223.705 160.591C223.124 160.441 222.564 160.161 222.005 159.946L221.198 159.623C220.326 159.289 219.465 158.934 218.604 158.568C218.593 158.557 218.583 158.547 218.593 158.525C218.593 158.514 218.615 158.503 218.626 158.514C219.551 158.751 220.466 158.999 221.381 159.257C221.639 159.321 221.897 159.397 222.156 159.472C222.747 159.644 223.35 159.752 223.91 159.999C224.469 160.225 225.029 160.484 225.556 160.85Z" fill="#765040"/>
<path fill-rule="evenodd" clip-rule="evenodd" d="M249.083 157.955C249.083 157.966 249.083 157.966 249.071 157.977C248.329 158.213 247.586 158.439 246.844 158.665C246.478 158.773 246.111 158.913 245.725 158.978C245.347 159.042 244.961 159.096 244.552 159.085C244.54 159.085 244.54 159.074 244.54 159.064C244.54 159.053 244.54 159.053 244.552 159.042C244.895 158.848 245.261 158.708 245.628 158.59C246.005 158.472 246.392 158.429 246.769 158.353C247.533 158.203 248.297 158.063 249.06 157.934C249.071 157.934 249.083 157.944 249.083 157.955Z" fill="#765040"/>
<path fill-rule="evenodd" clip-rule="evenodd" d="M249.071 157.976C248.329 158.213 247.586 158.439 246.844 158.665C246.478 158.772 246.111 158.912 245.725 158.977C245.347 159.041 244.961 159.095 244.552 159.084C244.54 159.084 244.54 159.073 244.54 159.063C244.54 159.052 244.54 159.052 244.552 159.041C244.895 158.847 245.261 158.708 245.628 158.589C246.004 158.471 246.392 158.428 246.768 158.352C247.532 158.202 248.296 158.062 249.06 157.933C249.071 157.933 249.083 157.943 249.083 157.954C249.083 157.965 249.083 157.965 249.071 157.976ZM225.556 160.892C225.556 160.903 225.546 160.903 225.534 160.903C224.899 160.871 224.297 160.742 223.706 160.591C223.125 160.44 222.564 160.16 222.005 159.945L221.198 159.622C220.325 159.289 219.464 158.934 218.604 158.568C218.594 158.557 218.582 158.546 218.594 158.525C218.594 158.514 218.614 158.503 218.625 158.514C219.551 158.751 220.465 158.998 221.381 159.256C221.639 159.321 221.897 159.396 222.155 159.472C222.747 159.644 223.351 159.751 223.909 159.999C224.47 160.225 225.028 160.483 225.556 160.849C225.567 160.86 225.567 160.871 225.556 160.892ZM249.684 158.062L249.352 155.856C248.189 155.145 246.961 154.467 245.659 153.865C245.659 153.865 245.648 153.843 245.639 153.854C242.215 152.272 238.321 151.131 233.961 150.787H233.939C232.573 150.668 231.13 150.636 229.668 150.701C219.799 151.11 211.382 151.206 204.205 152.778L220.036 162.464L226.977 166.704L253.613 183.998L249.684 158.062Z" fill="#765040"/>
<path fill-rule="evenodd" clip-rule="evenodd" d="M257.497 181.415C257.357 182.781 257.142 184.127 256.679 185.472C256.41 186.128 256.152 186.828 255.496 187.387C255.313 187.506 255.129 187.635 254.925 187.71C254.72 187.764 254.494 187.85 254.291 187.839C253.859 187.861 253.473 187.764 253.118 187.646C251.73 187.129 250.641 186.333 249.479 185.644L246.014 183.567L232.325 174.925C230.043 173.494 227.729 172.116 225.383 170.792C224.21 170.125 223.037 169.501 221.842 168.845C221.175 168.468 220.529 168.059 219.853 167.725C224.33 169.469 228.569 171.847 232.744 174.226C237.427 176.938 241.946 179.886 246.575 182.641L250.029 184.772C251.169 185.472 252.288 186.279 253.44 186.72C254.011 186.925 254.527 186.957 254.903 186.645C255.301 186.333 255.57 185.73 255.808 185.16C256.227 183.944 256.496 182.62 256.679 181.318C257.293 176.873 256.55 172.331 256.27 167.79C256.227 166.94 256.184 166.079 256.184 165.229C256.27 166.208 256.389 167.187 256.518 168.156C256.518 168.167 256.529 168.167 256.529 168.167C256.744 169.867 257.002 171.557 257.24 173.257C257.572 175.937 257.766 178.681 257.497 181.415Z" fill="#765040"/>
<path fill-rule="evenodd" clip-rule="evenodd" d="M182.498 235.194C182.767 234.85 183.036 234.516 183.305 234.172L180.775 238.078C180.732 237.863 180.711 237.648 180.688 237.433C181.303 236.69 181.906 235.948 182.498 235.194Z" fill="#765040"/>
<path fill-rule="evenodd" clip-rule="evenodd" d="M186.189 253.833C186.092 253.757 185.995 253.617 185.952 253.499C185.92 253.413 185.888 253.273 185.931 253.187C186.146 252.821 186.297 252.412 186.351 251.992C186.415 251.551 186.394 251.185 186.275 250.744C186.221 250.507 186.415 250.4 186.609 250.475C186.856 250.572 187.019 250.819 187.082 251.067C187.33 252.014 187.201 253.058 186.706 253.897C186.587 254.112 186.318 253.951 186.189 253.833Z" fill="#765040"/>
<path fill-rule="evenodd" clip-rule="evenodd" d="M187.351 242.736C187.523 242.886 187.684 243.155 187.609 243.381C187.458 243.823 187.319 244.264 187.179 244.705C187.146 244.791 187.049 244.813 186.963 244.802C186.845 244.802 186.737 244.716 186.662 244.641C186.49 244.49 186.328 244.232 186.404 243.995C186.544 243.554 186.684 243.112 186.834 242.682C186.856 242.585 186.963 242.574 187.039 242.574C187.157 242.585 187.265 242.671 187.351 242.736Z" fill="#765040"/>
<path fill-rule="evenodd" clip-rule="evenodd" d="M186.79 264.906C187.663 263.883 188.534 262.85 189.407 261.828C189.556 261.645 189.891 261.957 189.977 262.054C190.105 262.215 190.234 262.484 190.085 262.657C189.212 263.69 188.34 264.712 187.47 265.745C187.318 265.917 186.985 265.616 186.899 265.509C186.769 265.358 186.64 265.089 186.79 264.906Z" fill="#765040"/>
<path fill-rule="evenodd" clip-rule="evenodd" d="M186.877 269.361C188.308 268.027 189.751 266.692 191.194 265.358C191.483 265.078 192.172 265.907 191.872 266.186L187.556 270.201C187.255 270.48 186.565 269.652 186.877 269.361Z" fill="#765040"/>
<path fill-rule="evenodd" clip-rule="evenodd" d="M189.374 234.007C188.169 235.396 186.964 236.784 185.683 238.097C185.673 238.108 185.651 238.108 185.64 238.097C185.63 238.086 185.63 238.075 185.64 238.065C186.684 236.547 187.826 235.116 188.955 233.663C190.096 232.232 191.312 230.854 192.506 229.455L199.664 221.082C199.674 221.072 199.695 221.072 199.706 221.082C199.717 221.093 199.717 221.115 199.706 221.125L192.84 229.735C191.688 231.166 190.569 232.619 189.374 234.007Z" fill="#765040"/>
<path fill-rule="evenodd" clip-rule="evenodd" d="M185.704 231.07C184.907 232.114 184.112 233.147 183.305 234.17L207.303 197.084C205.204 201.13 202.976 205.091 200.641 208.997C198.596 212.409 196.476 215.778 194.27 219.081C193.517 220.201 192.753 221.32 191.978 222.428C189.965 225.356 187.867 228.24 185.704 231.07Z" fill="#765040"/>
<path fill-rule="evenodd" clip-rule="evenodd" d="M209.402 193.846L207.304 197.085C207.691 196.364 208.068 195.632 208.434 194.9C208.692 194.405 208.938 193.91 209.176 193.415C209.294 193.211 209.39 192.995 209.499 192.78C211.565 188.669 213.492 184.483 215.299 180.264C215.353 180.146 215.407 180.016 215.439 179.898C215.837 178.908 216.129 177.907 216.332 176.906C215.558 182.868 212.577 188.938 209.402 193.846Z" fill="#765040"/>
<path fill-rule="evenodd" clip-rule="evenodd" d="M208.907 159.74C210.123 160.504 211.21 161.408 212.157 162.42C212.21 162.485 212.265 162.538 212.319 162.603C213.212 163.582 213.976 164.658 214.6 165.81C214.837 166.24 215.052 166.671 215.246 167.123C215.494 167.693 215.708 168.285 215.891 168.877C216.677 171.417 216.86 174.14 216.344 176.841C217.151 170.534 215.472 164.346 208.907 159.74Z" fill="#765040"/>
<path fill-rule="evenodd" clip-rule="evenodd" d="M219.336 167.533C218.97 167.382 218.595 167.242 218.217 167.113C218.604 167.199 218.97 167.329 219.325 167.479C219.508 167.555 219.68 167.641 219.853 167.727C219.68 167.651 219.508 167.587 219.336 167.533Z" fill="#765040"/>
<path fill-rule="evenodd" clip-rule="evenodd" d="M209.489 271.332L232.283 271.203L255.076 271.321L266.462 271.472C270.262 271.569 274.061 271.623 277.859 271.741C274.061 271.86 270.262 271.913 266.462 272L255.076 272.15L232.283 272.279L209.489 272.15C201.89 272.064 194.293 271.956 186.706 271.741C194.293 271.515 201.89 271.418 209.489 271.332Z" fill="#765040"/>
<path fill-rule="evenodd" clip-rule="evenodd" d="M276.859 248.72C276.74 247.494 276.643 246.267 276.536 245.04C276.482 244.416 277.311 244.975 277.343 245.363L277.709 249.603L277.827 251.045C277.881 251.669 277.063 251.11 277.031 250.722C276.966 250.055 276.912 249.388 276.859 248.72Z" fill="#765040"/>
<path fill-rule="evenodd" clip-rule="evenodd" d="M277.816 256.653C277.925 256.718 278.031 256.847 278.097 256.955C278.161 257.062 278.194 257.17 278.194 257.288V258.601C278.194 258.698 278.128 258.763 278.042 258.795C277.945 258.827 277.839 258.763 277.752 258.709C277.645 258.644 277.536 258.515 277.473 258.408C277.407 258.3 277.376 258.192 277.376 258.074V256.761C277.376 256.664 277.439 256.6 277.516 256.567C277.613 256.535 277.73 256.6 277.816 256.653Z" fill="#765040"/>
<path fill-rule="evenodd" clip-rule="evenodd" d="M284.438 314.438H193.087C193.087 314.438 189.827 296.707 186.437 275.883H282.412C284.048 297.31 284.902 314.222 284.438 314.438Z" fill="#765040"/>
<path fill-rule="evenodd" clip-rule="evenodd" d="M53.87 303.37C51.5024 303.004 49.1562 302.552 46.8317 302.003C44.5071 301.476 42.1932 300.873 39.8687 300.313C37.5667 299.743 35.2087 299.194 32.8411 299.549C30.4853 299.872 28.1166 300.249 25.7382 300.443C25.7167 300.443 25.7059 300.432 25.7059 300.421C25.7059 300.41 25.7167 300.389 25.7285 300.389C28.1069 300.141 30.4519 299.722 32.8196 299.345C35.2087 298.936 37.6302 299.474 39.9451 299.98C42.2793 300.496 44.6255 300.959 46.95 301.487C49.2854 302.003 51.5885 302.617 53.8808 303.316C53.8926 303.327 53.9023 303.338 53.9023 303.348C53.8926 303.359 53.8808 303.37 53.87 303.37ZM37.6625 303.424C36.4044 304.274 35.1022 305.027 33.8 305.791C32.4859 306.545 31.1299 307.212 29.7954 307.901L21.7455 312.055C21.7358 312.066 21.7132 312.055 21.7132 312.044C21.7024 312.033 21.7132 312.012 21.724 312.012L29.591 307.524C30.9039 306.781 32.1954 306.007 33.5406 305.318C34.8859 304.64 36.2311 303.962 37.6302 303.37C37.6528 303.37 37.6625 303.37 37.6732 303.391C37.6732 303.402 37.6732 303.413 37.6625 303.424ZM208.908 159.741C208.886 159.73 208.875 159.719 208.853 159.708C204.322 156.566 200.932 154.047 200.534 153.746C190.45 156.953 183.079 164.142 177.73 181.286C177.579 181.781 177.439 182.33 177.321 182.943C174.705 187.883 171.875 192.704 168.851 197.407C168.84 197.429 168.82 197.45 168.808 197.472C164.32 204.478 159.403 211.204 154.086 217.608C152.482 219.556 150.836 221.471 149.146 223.355C148.974 223.538 148.813 223.731 148.629 223.914C143.625 229.467 138.298 234.751 132.712 239.691C121.122 249.99 108.347 258.944 94.7117 266.349C91.2033 268.254 87.6303 270.051 84.0143 271.751C82.9166 272.268 81.8081 272.774 80.7007 273.269C74.2865 276.142 67.7207 278.682 61.0375 280.867C59.4555 281.394 57.8745 281.889 56.2807 282.373C48.1554 284.827 34.9504 286.291 30.5714 288.26C24.1454 291.133 17.7001 294.05 11.4689 297.3C10.3927 297.849 -2.41515 305.038 0.404487 306.179C4.14966 307.728 21.8757 300.852 26.1149 300.948C22.4569 303.768 6.7971 313.712 7.41053 315.036C8.34683 316.984 14.7072 315.628 22.3697 312.033C18.4846 315.004 16.3322 317.522 16.936 318.759C18.0552 321.052 28.1811 318.135 39.5361 312.238C43.4739 310.193 53.9023 305.382 53.6978 306.771C53.0951 311.043 36.8456 317.027 36.5647 321.31C36.3172 324.98 49.5652 320.858 62.0502 316.273C70.3046 313.249 78.2136 310.021 81.6574 308.708C85.3488 307.309 88.9982 305.824 92.5916 304.242C93.8411 303.693 95.0776 303.133 96.3152 302.563C101.126 300.378 105.84 298.01 110.489 295.503C115.106 292.995 119.658 290.326 124.081 287.517C126.449 286.032 128.784 284.504 131.087 282.933C131.239 282.825 131.389 282.728 131.539 282.61C133.412 281.329 135.275 280.016 137.115 278.682C141.343 275.593 145.487 272.354 149.491 268.985C151.418 267.371 153.332 265.724 155.205 264.046C157.239 262.227 159.241 260.376 161.21 258.492C162.492 257.276 163.751 256.039 164.998 254.78C166.279 253.499 167.549 252.197 168.808 250.884C169.109 250.572 169.411 250.259 169.701 249.937C170.551 249.033 171.391 248.139 172.23 247.225C174.845 244.351 177.396 241.424 179.86 238.432C180.14 238.098 180.409 237.765 180.689 237.431C181.303 236.689 181.906 235.946 182.498 235.193C182.767 234.848 183.036 234.515 183.305 234.17L207.303 197.085C207.692 196.364 208.068 195.632 208.434 194.9C208.692 194.405 208.939 193.91 209.177 193.415C209.294 193.21 209.391 192.995 209.499 192.78C211.565 188.669 213.492 184.482 215.3 180.264C215.353 180.145 215.408 180.016 215.44 179.898C215.838 178.908 216.129 177.907 216.333 176.906C216.333 176.884 216.345 176.863 216.345 176.841C217.152 170.535 215.472 164.347 208.908 159.741Z" fill="#765040"/>
<path fill-rule="evenodd" clip-rule="evenodd" d="M37.6304 303.371C37.653 303.371 37.6627 303.371 37.6735 303.393C37.6735 303.403 37.6735 303.414 37.6627 303.425C36.4035 304.275 35.1013 305.028 33.7991 305.793C32.4862 306.546 31.1302 307.213 29.7957 307.902L21.7457 312.056C21.735 312.067 21.7134 312.056 21.7134 312.045C21.7027 312.034 21.7134 312.013 21.7242 312.013L29.5912 307.525C30.9042 306.783 32.1956 306.008 33.5409 305.319C34.8861 304.641 36.2314 303.963 37.6304 303.371Z" fill="#765040"/>
<path fill-rule="evenodd" clip-rule="evenodd" d="M53.8809 303.317C53.8927 303.328 53.9035 303.338 53.9035 303.349C53.8927 303.36 53.8809 303.371 53.8701 303.371C51.5025 303.005 49.1564 302.553 46.8318 302.004C44.5072 301.476 42.1945 300.874 39.8688 300.314C37.5668 299.744 35.2089 299.195 32.8412 299.55C30.4854 299.873 28.1178 300.25 25.7394 300.443C25.7168 300.443 25.7061 300.433 25.7061 300.422C25.7061 300.411 25.7168 300.39 25.7287 300.39C28.1071 300.142 30.4521 299.722 32.8208 299.346C35.2089 298.937 37.6303 299.475 39.9452 299.981C42.2806 300.497 44.6256 300.96 46.9513 301.487C49.2855 302.004 51.5886 302.617 53.8809 303.317Z" fill="#765040"/>
<path fill-rule="evenodd" clip-rule="evenodd" d="M207.303 197.084C205.204 201.13 202.976 205.091 200.641 208.997C198.596 212.409 196.475 215.778 194.27 219.081C193.516 220.201 192.752 221.32 191.978 222.428C189.965 225.356 187.866 228.24 185.704 231.07C184.906 232.114 184.111 233.147 183.304 234.17L207.303 197.084Z" fill="#765040"/>
<path fill-rule="evenodd" clip-rule="evenodd" d="M216.344 176.841C217.151 170.534 215.471 164.346 208.907 159.74C210.123 160.504 211.209 161.408 212.156 162.42C212.21 162.485 212.265 162.538 212.319 162.603C213.212 163.582 213.976 164.658 214.6 165.81C214.837 166.24 215.052 166.671 215.245 167.123C215.494 167.693 215.708 168.285 215.891 168.877C216.677 171.417 216.859 174.14 216.344 176.841Z" fill="#765040"/>
<path fill-rule="evenodd" clip-rule="evenodd" d="M225.557 160.849C225.568 160.859 225.568 160.87 225.557 160.892C225.557 160.902 225.546 160.902 225.534 160.902C224.9 160.87 224.298 160.741 223.706 160.59C223.125 160.44 222.565 160.16 222.005 159.945L221.198 159.622C221.241 159.493 221.306 159.374 221.381 159.256C221.639 159.32 221.898 159.396 222.156 159.471C222.748 159.643 223.351 159.751 223.91 159.998C224.47 160.224 225.03 160.483 225.557 160.849Z" fill="#765040"/>
<path fill-rule="evenodd" clip-rule="evenodd" d="M249.083 157.955C249.083 157.966 249.083 157.966 249.071 157.977C248.329 158.213 247.586 158.439 246.844 158.665C246.478 158.773 246.111 158.913 245.725 158.978C245.347 159.042 244.961 159.096 244.552 159.085C244.54 159.085 244.54 159.074 244.54 159.064C244.54 159.053 244.54 159.053 244.552 159.042C244.895 158.848 245.261 158.708 245.628 158.59C246.005 158.472 246.392 158.429 246.769 158.353C247.533 158.203 248.297 158.063 249.06 157.934C249.071 157.934 249.083 157.944 249.083 157.955Z" fill="#765040"/>
<path fill-rule="evenodd" clip-rule="evenodd" d="M219.853 167.726C219.68 167.651 219.508 167.586 219.336 167.532C219.325 167.511 219.325 167.5 219.325 167.479C219.508 167.554 219.68 167.64 219.853 167.726Z" fill="#765040"/>
<path fill-rule="evenodd" clip-rule="evenodd" d="M257.497 181.414C257.357 182.781 257.142 184.126 256.679 185.471C256.41 186.128 256.152 186.827 255.496 187.387C255.313 187.505 255.129 187.634 254.925 187.71C254.72 187.763 254.494 187.85 254.291 187.839C253.859 187.86 253.473 187.763 253.118 187.645C251.73 187.128 250.641 186.332 249.479 185.643L246.014 183.566L232.325 174.924C230.043 173.493 227.729 172.115 225.383 170.792C224.21 170.125 223.037 169.5 221.842 168.844C221.175 168.467 220.529 168.058 219.853 167.725C224.33 169.468 228.569 171.846 232.744 174.225C237.427 176.937 241.946 179.886 246.575 182.641L250.029 184.772C251.169 185.471 252.288 186.278 253.44 186.719C254.011 186.924 254.527 186.956 254.903 186.644C255.301 186.332 255.57 185.729 255.808 185.159C256.227 183.943 256.496 182.619 256.679 181.317C257.293 176.872 256.55 172.331 256.27 167.789C256.356 167.908 256.443 168.026 256.518 168.155C256.518 168.166 256.529 168.166 256.529 168.166C256.744 169.866 257.002 171.556 257.24 173.256C257.572 175.936 257.766 178.68 257.497 181.414Z" fill="#765040"/>
<path fill-rule="evenodd" clip-rule="evenodd" d="M277.709 249.603C277.407 249.312 277.128 249.011 276.859 248.72C276.74 247.494 276.643 246.267 276.536 245.04C276.482 244.416 277.311 244.975 277.343 245.363L277.709 249.603Z" fill="#765040"/>
<path fill-rule="evenodd" clip-rule="evenodd" d="M454.129 187.906C449.674 191.371 444.994 194.61 440.311 197.817C437.136 200.002 433.704 202.24 430.119 204.113C429.646 204.361 425.75 209.968 420.564 217.307C413.374 227.477 403.667 240.994 397.017 248.312C395.262 250.26 393.443 252.187 391.602 254.07C389.138 256.61 386.621 259.085 384.047 261.517C380.302 265.037 376.46 268.448 372.511 271.763C358.091 283.913 339.031 287.529 321.812 282.611C314.579 280.545 307.659 276.972 301.568 271.881C293.959 265.542 287.168 259.268 280.958 252.962C280.808 252.811 280.658 252.65 280.506 252.499C280.453 251.832 280.399 251.164 280.335 250.497C280.237 249.26 280.13 248.033 280.023 246.795C280.011 246.73 280.011 246.666 280.001 246.601C279.775 244.018 279.549 241.446 279.323 238.907C279.226 237.82 279.13 236.743 279.033 235.667C278.849 233.612 278.655 231.588 278.472 229.608C278.463 229.49 278.452 229.361 278.44 229.232C278.333 228.155 278.237 227.09 278.14 226.046C278.042 225.045 277.957 224.066 277.859 223.086C277.73 221.763 277.611 220.461 277.482 219.191C277.376 218.114 277.267 217.049 277.17 216.016C277.009 214.445 276.858 212.927 276.709 211.474C276.612 210.506 276.514 209.559 276.417 208.655C276.363 208.149 276.31 207.632 276.245 207.126C276.116 206.104 275.976 205.082 275.825 204.07C275.675 203.048 275.503 202.036 275.308 201.024C275.115 200.013 274.911 199.012 274.696 198.011C274.427 196.773 274.135 195.568 273.812 194.352C274.62 195.557 275.438 196.784 276.277 198.011C280.216 203.876 284.445 209.925 288.89 215.736C291.194 218.739 293.55 221.677 295.951 224.496C296.166 224.733 296.37 224.981 296.585 225.228C296.822 225.497 297.059 225.766 297.285 226.024C309.456 239.95 322.802 250.626 336.135 250.949C354.335 251.401 368.959 230.975 379.377 218.276C389.988 205.34 397.209 190.026 409.221 178.22C415.236 172.301 422.005 166.199 430.519 164.391C430.841 164.315 431.249 164.272 431.498 164.498C432.649 165.553 430.465 169.599 429.915 170.622C428.925 172.484 427.569 174.281 426.288 175.863C424.6 177.983 420.972 181.395 421.102 184.376C421.155 185.742 421.833 186.485 422.92 186.765H422.942L422.952 186.776C423.244 186.851 423.567 186.894 423.91 186.905C423.985 186.915 424.071 186.915 424.148 186.915C425.805 186.915 427.957 186.313 430.173 185.441C430.27 185.409 430.356 185.366 430.442 185.333C432.348 184.58 434.275 183.633 435.974 182.718C436.427 182.481 436.867 182.234 437.308 181.976C437.826 181.685 438.342 181.373 438.859 181.061C438.869 181.05 438.89 181.039 438.902 181.029C439.796 180.491 440.494 180.006 440.903 179.683C447.426 174.528 453.614 171.676 454.786 173.291C455.464 174.249 444.509 184.376 442.022 187.131C442.303 187.088 442.636 186.991 443.045 186.862C443.088 186.84 443.121 186.829 443.153 186.819C444.045 186.506 445.186 186.001 446.479 185.376L446.671 185.29C448.2 184.569 449.922 183.708 451.643 182.869C455.799 180.846 459.984 178.941 461.598 179.296C463.998 179.78 454.894 187.324 454.129 187.906Z" fill="#765040"/>
<path fill-rule="evenodd" clip-rule="evenodd" d="M313.124 259.684C312.904 258.322 312.948 256.904 313.272 255.534C313.611 254.168 314.225 252.863 315.074 251.715C315.916 250.57 316.974 249.52 318.277 248.884C319.571 248.253 321.02 247.929 322.425 248.069C322.455 248.073 322.476 248.099 322.474 248.13C322.472 248.152 322.456 248.169 322.435 248.177C321.116 248.622 319.903 249.135 318.797 249.827C317.698 250.511 316.621 251.259 315.748 252.254C314.023 254.239 313.079 256.941 313.232 259.672C313.234 259.702 313.21 259.727 313.181 259.729C313.152 259.73 313.128 259.711 313.124 259.684Z" fill="#672348"/>
<path fill-rule="evenodd" clip-rule="evenodd" d="M451.64 182.865C450.603 183.906 449.243 184.524 447.964 185.188C446.663 185.831 445.332 186.399 444.019 187.004C441.36 188.142 438.744 189.337 436.134 190.601C437.325 189.773 438.592 189.057 439.877 188.383C441.163 187.709 442.487 187.116 443.803 186.512L447.793 184.813C448.459 184.535 449.12 184.248 449.769 183.936C450.417 183.627 451.073 183.317 451.64 182.865Z" fill="#672348"/>
<path fill-rule="evenodd" clip-rule="evenodd" d="M438.9 181.031C437.799 181.975 436.592 182.788 435.352 183.541C434.106 184.287 432.806 184.946 431.462 185.51C430.101 186.028 428.714 186.506 427.269 186.748C425.828 186.979 424.347 187.04 422.92 186.76C425.82 186.867 428.619 186.113 431.257 185.012C432.597 184.501 433.875 183.842 435.15 183.183C436.42 182.511 437.67 181.793 438.9 181.031Z" fill="#672348"/>
<path fill-rule="evenodd" clip-rule="evenodd" d="M403.722 191.824C405.606 191.029 407.647 190.689 409.679 190.52C411.718 190.373 413.769 190.479 415.798 190.737C417.828 190.994 419.836 191.439 421.782 192.07C422.753 192.392 423.698 192.788 424.646 193.16C425.578 193.581 426.489 194.043 427.396 194.504C427.41 194.511 427.415 194.526 427.408 194.54C427.403 194.552 427.386 194.557 427.375 194.553C426.409 194.22 425.459 193.862 424.511 193.509C423.54 193.214 422.596 192.848 421.621 192.584C419.681 192.027 417.735 191.475 415.736 191.163C413.741 190.855 411.716 190.697 409.695 190.788C407.68 190.883 405.641 191.151 403.745 191.872C403.732 191.88 403.714 191.875 403.708 191.861C403.7 191.848 403.709 191.83 403.722 191.824Z" fill="#672348"/>
<path fill-rule="evenodd" clip-rule="evenodd" d="M281.314 262.205C281.11 259.622 280.884 257.018 280.668 254.413C280.615 253.779 280.562 253.133 280.507 252.498C280.453 251.831 280.399 251.163 280.336 250.496C280.238 249.258 280.13 248.032 280.023 246.794C280.012 246.729 280.012 246.665 280.001 246.6C279.775 244.017 279.549 241.445 279.323 238.905C279.227 237.818 279.13 236.742 279.033 235.666C278.849 233.611 278.656 231.587 278.473 229.607C278.463 229.489 278.452 229.36 278.44 229.23C278.333 228.154 278.237 227.089 278.14 226.045C278.042 225.044 277.957 224.065 277.859 223.085C277.73 221.762 277.613 220.459 277.483 219.19C277.376 218.113 277.267 217.048 277.17 216.015C277.009 214.443 276.858 212.926 276.709 211.473C276.612 210.505 276.514 209.558 276.417 208.654C276.363 208.148 276.311 207.631 276.245 207.125C276.116 206.103 275.976 205.081 275.825 204.069C275.676 203.047 275.503 202.035 275.309 201.023C275.115 200.012 274.912 199.011 274.696 198.01C274.427 196.772 274.136 195.567 273.813 194.351V194.34L273.803 194.329C273.609 193.565 273.394 192.801 273.178 192.049C272.607 190.078 271.983 188.141 271.285 186.236C270.982 185.408 270.661 184.579 270.338 183.761C270.003 182.932 269.67 182.125 269.315 181.318C268.615 179.704 267.861 178.133 267.066 176.583C266.602 175.7 266.139 174.83 265.655 173.98C263.708 170.535 261.513 167.317 259.091 164.357C258.241 163.324 257.251 162.226 256.132 161.139C255.56 160.58 254.959 160.032 254.323 159.494C254.118 159.31 253.903 159.127 253.688 158.956C253.462 158.772 253.247 158.589 253.021 158.418C252.3 157.846 251.535 157.287 250.74 156.749C250.309 156.458 249.878 156.178 249.426 155.898C249.406 155.888 249.372 155.866 249.352 155.855L249.684 158.061L253.614 183.998L226.978 166.703L220.036 162.463L204.205 152.777L204.162 152.788L201.363 153.498L200.491 153.714C200.491 153.714 200.502 153.724 200.534 153.746C200.934 154.047 204.323 156.566 208.853 159.708C208.875 159.72 208.886 159.73 208.908 159.74C215.472 164.346 217.152 170.535 216.345 176.841C216.345 176.863 216.333 176.884 216.333 176.906C215.558 182.868 212.578 188.938 209.403 193.845L207.304 197.084L183.306 234.17L180.775 238.077L180.765 238.088C180.862 238.852 180.97 239.616 181.077 240.38C181.529 243.727 182.003 247.095 182.498 250.442C182.616 251.282 182.734 252.11 182.864 252.95C183.326 256.06 183.79 259.138 184.262 262.184C184.445 263.367 184.628 264.53 184.811 265.692C184.886 266.209 184.973 266.714 185.049 267.22C185.286 268.705 185.521 270.169 185.747 271.611C185.984 273.053 186.211 274.474 186.437 275.884H282.413C282.067 271.471 281.701 266.865 281.314 262.205Z" fill="#F2E14A"/>
<path fill-rule="evenodd" clip-rule="evenodd" d="M225.556 160.85C225.567 160.86 225.567 160.871 225.556 160.893C225.556 160.903 225.546 160.903 225.534 160.903C224.9 160.871 224.297 160.742 223.705 160.591C223.124 160.441 222.564 160.161 222.005 159.946L221.198 159.623C220.326 159.289 219.465 158.934 218.604 158.568C218.593 158.557 218.583 158.547 218.593 158.525C218.593 158.514 218.615 158.503 218.626 158.514C219.551 158.751 220.466 158.999 221.381 159.257C221.639 159.321 221.897 159.397 222.156 159.472C222.747 159.644 223.35 159.752 223.91 159.999C224.469 160.225 225.029 160.484 225.556 160.85Z" fill="#672448"/>
<path fill-rule="evenodd" clip-rule="evenodd" d="M249.083 157.955C249.083 157.966 249.083 157.966 249.071 157.977C248.329 158.213 247.586 158.439 246.844 158.665C246.478 158.773 246.111 158.913 245.725 158.978C245.347 159.042 244.961 159.096 244.552 159.085C244.54 159.085 244.54 159.074 244.54 159.064C244.54 159.053 244.54 159.053 244.552 159.042C244.895 158.848 245.261 158.708 245.628 158.59C246.005 158.472 246.392 158.429 246.769 158.353C247.533 158.203 248.297 158.063 249.06 157.934C249.071 157.934 249.083 157.944 249.083 157.955Z" fill="#672448"/>
<path fill-rule="evenodd" clip-rule="evenodd" d="M199.706 221.082C199.718 221.093 199.718 221.115 199.706 221.125L192.84 229.735C191.689 231.166 190.57 232.619 189.374 234.007C188.169 235.396 186.964 236.784 185.684 238.097C185.673 238.108 185.651 238.108 185.641 238.097C185.63 238.086 185.63 238.075 185.641 238.065C186.684 236.547 187.826 235.116 188.956 233.663C190.095 232.232 191.311 230.854 192.507 229.455L199.664 221.082C199.674 221.072 199.695 221.072 199.706 221.082Z" fill="#2A4D52"/>
<path fill-rule="evenodd" clip-rule="evenodd" d="M277.859 271.741C274.061 271.86 270.261 271.913 266.462 272L255.076 272.15L232.282 272.279L209.489 272.15C201.89 272.064 194.293 271.956 186.706 271.741C194.293 271.515 201.89 271.418 209.489 271.332L232.282 271.203L255.076 271.322L266.462 271.472C270.261 271.569 274.061 271.623 277.859 271.741Z" fill="#2A4D52"/>
<path fill-rule="evenodd" clip-rule="evenodd" d="M187.609 243.381C187.457 243.823 187.317 244.264 187.179 244.705C187.145 244.791 187.048 244.813 186.962 244.802C186.845 244.802 186.736 244.716 186.662 244.641C186.49 244.49 186.328 244.232 186.404 243.995C186.544 243.554 186.684 243.112 186.833 242.682C186.856 242.585 186.962 242.574 187.039 242.574C187.157 242.585 187.265 242.671 187.351 242.736C187.523 242.886 187.683 243.155 187.609 243.381Z" fill="#2A4D52"/>
<path fill-rule="evenodd" clip-rule="evenodd" d="M186.707 253.897C186.588 254.112 186.319 253.951 186.19 253.833C186.093 253.757 185.996 253.617 185.953 253.499C185.921 253.413 185.888 253.273 185.931 253.187C186.146 252.821 186.297 252.412 186.351 251.992C186.415 251.551 186.394 251.185 186.276 250.744C186.222 250.507 186.415 250.4 186.609 250.475C186.857 250.572 187.019 250.819 187.083 251.067C187.33 252.014 187.202 253.058 186.707 253.897Z" fill="#2A4D52"/>
<path fill-rule="evenodd" clip-rule="evenodd" d="M277.827 251.047C277.881 251.671 277.063 251.111 277.031 250.724C276.965 250.057 276.911 249.39 276.859 248.722C276.739 247.495 276.642 246.269 276.536 245.042C276.482 244.418 277.311 244.977 277.343 245.365L277.709 249.605L277.827 251.047Z" fill="#2A4D52"/>
<path fill-rule="evenodd" clip-rule="evenodd" d="M278.193 257.286V258.599C278.193 258.696 278.127 258.761 278.041 258.793C277.945 258.825 277.838 258.761 277.752 258.707C277.644 258.642 277.536 258.513 277.472 258.406C277.407 258.298 277.375 258.19 277.375 258.072V256.759C277.375 256.662 277.44 256.598 277.515 256.565C277.612 256.533 277.729 256.598 277.815 256.651C277.924 256.716 278.031 256.845 278.096 256.953C278.161 257.06 278.193 257.168 278.193 257.286Z" fill="#2A4D52"/>
<path fill-rule="evenodd" clip-rule="evenodd" d="M191.871 266.186L187.555 270.201C187.254 270.48 186.564 269.652 186.876 269.361C188.307 268.027 189.75 266.692 191.193 265.358C191.483 265.078 192.171 265.907 191.871 266.186Z" fill="#2A4D52"/>
<path fill-rule="evenodd" clip-rule="evenodd" d="M190.084 262.657C189.211 263.69 188.341 264.712 187.469 265.745C187.318 265.917 186.985 265.616 186.898 265.509C186.769 265.358 186.64 265.089 186.79 264.906C187.663 263.883 188.534 262.85 189.406 261.828C189.557 261.645 189.89 261.957 189.976 262.054C190.106 262.215 190.235 262.484 190.084 262.657Z" fill="#2A4D52"/>
<path fill-rule="evenodd" clip-rule="evenodd" d="M53.9034 303.349C53.8926 303.36 53.8808 303.371 53.8711 303.371C51.5035 303.005 49.1574 302.553 46.8328 302.004C44.5082 301.477 42.1944 300.874 39.8698 300.314C37.5667 299.744 35.2099 299.195 32.8422 299.55C30.4853 299.873 28.1177 300.25 25.7393 300.443C25.7178 300.443 25.707 300.433 25.707 300.422C25.707 300.411 25.7178 300.39 25.7286 300.39C28.107 300.142 30.4531 299.722 32.8207 299.346C35.2099 298.937 37.6313 299.475 39.9451 299.981C42.2805 300.497 44.6266 300.96 46.9512 301.487C49.2865 302.004 51.5896 302.617 53.8808 303.317C53.8926 303.328 53.9034 303.338 53.9034 303.349Z" fill="#672348"/>
<path fill-rule="evenodd" clip-rule="evenodd" d="M37.6735 303.393C37.6735 303.403 37.6735 303.414 37.6627 303.425C36.4035 304.275 35.1013 305.028 33.7991 305.793C32.4862 306.546 31.1302 307.213 29.7957 307.902L21.7457 312.056C21.735 312.067 21.7134 312.056 21.7134 312.045C21.7027 312.034 21.7134 312.013 21.7242 312.013L29.5912 307.525C30.9042 306.783 32.1956 306.008 33.5409 305.319C34.8861 304.641 36.2314 303.963 37.6304 303.371C37.6519 303.371 37.6627 303.371 37.6735 303.393Z" fill="#672348"/>
<path fill-rule="evenodd" clip-rule="evenodd" d="M219.853 167.727C219.681 167.651 219.508 167.587 219.336 167.533C218.97 167.382 218.594 167.242 218.216 167.113C218.604 167.199 218.97 167.329 219.325 167.479C219.508 167.555 219.681 167.641 219.853 167.727Z" fill="#2A4D52"/>
<path fill-rule="evenodd" clip-rule="evenodd" d="M257.497 181.415C257.357 182.781 257.142 184.127 256.679 185.472C256.41 186.128 256.152 186.828 255.496 187.387C255.313 187.506 255.129 187.635 254.925 187.71C254.72 187.764 254.494 187.85 254.291 187.839C253.859 187.861 253.473 187.764 253.118 187.646C251.73 187.129 250.641 186.333 249.479 185.644L246.014 183.567L232.325 174.925C230.043 173.494 227.729 172.116 225.383 170.792C224.21 170.125 223.037 169.501 221.842 168.845C221.175 168.468 220.529 168.059 219.853 167.725C224.33 169.469 228.569 171.847 232.744 174.226C237.427 176.938 241.946 179.886 246.575 182.641L250.029 184.772C251.169 185.472 252.288 186.279 253.44 186.72C254.011 186.925 254.527 186.957 254.903 186.645C255.301 186.333 255.57 185.73 255.808 185.16C256.227 183.944 256.496 182.62 256.679 181.318C257.293 176.873 256.55 172.331 256.27 167.79C256.227 166.94 256.184 166.079 256.184 165.229C256.27 166.208 256.389 167.187 256.518 168.156C256.518 168.167 256.529 168.167 256.529 168.167C256.744 169.867 257.002 171.557 257.24 173.257C257.572 175.937 257.766 178.681 257.497 181.415Z" fill="#2A4D52"/>
<g clip-path="url(#clip0)">
<path d="M371.882 109.169C392.428 79.9696 427.125 76.5878 398.787 56.6484C370.45 36.7089 339.269 32.2101 318.724 61.4093C298.178 90.6086 304.495 130.443 332.832 150.383C361.17 170.322 351.336 138.368 371.882 109.169Z" fill="#9B51E0"/>
<path d="M364.217 94.2156C336.221 134.004 288.941 138.612 327.555 165.782C366.169 192.952 408.656 199.082 436.652 159.294C464.648 119.506 456.041 65.2262 417.427 38.0561C378.813 10.8859 392.213 54.4278 364.217 94.2156Z" fill="#F6D446"/>
<path fill-rule="evenodd" clip-rule="evenodd" d="M379.037 84.1493C379.037 83.1877 378.258 82.4082 377.296 82.4082C376.335 82.4082 375.555 83.1877 375.555 84.1493V89.3739H372.945C370.867 89.3739 368.874 90.1994 367.405 91.6687C365.936 93.138 365.11 95.1309 365.11 97.2088C365.11 99.2868 365.936 101.28 367.405 102.749C368.874 104.218 370.867 105.044 372.945 105.044H375.555V113.749H366.851C365.89 113.749 365.11 114.529 365.11 115.49C365.11 116.452 365.89 117.231 366.851 117.231H375.555V122.453C375.555 123.415 376.335 124.194 377.296 124.194C378.258 124.194 379.037 123.415 379.037 122.453V117.231H381.651C383.729 117.231 385.721 116.406 387.191 114.937C388.66 113.467 389.486 111.474 389.486 109.396C389.486 107.318 388.66 105.326 387.191 103.856C385.721 102.387 383.729 101.562 381.651 101.562H379.037V92.8561H386.003C386.965 92.8561 387.744 92.0766 387.744 91.115C387.744 90.1534 386.965 89.3739 386.003 89.3739H379.037V84.1493ZM375.555 92.8561H372.945C371.791 92.8561 370.684 93.3147 369.867 94.131C369.051 94.9473 368.593 96.0544 368.593 97.2088C368.593 98.3632 369.051 99.4704 369.867 100.287C370.684 101.103 371.791 101.562 372.945 101.562H375.555V92.8561ZM379.037 105.044V113.749H381.651C382.805 113.749 383.912 113.291 384.729 112.474C385.545 111.658 386.003 110.551 386.003 109.396C386.003 108.242 385.545 107.135 384.729 106.319C383.912 105.502 382.805 105.044 381.651 105.044H379.037Z" fill="white"/>
<path fill-rule="evenodd" clip-rule="evenodd" d="M347.75 80.654C345.71 80.654 344.056 82.3075 344.056 84.3472V121.279C344.056 123.319 345.71 124.973 347.75 124.973H406.841C408.881 124.973 410.534 123.319 410.534 121.279V84.3472C410.534 82.3075 408.881 80.654 406.841 80.654H347.75ZM336.67 84.3472C336.67 78.2281 341.63 73.2676 347.75 73.2676H406.841C412.96 73.2676 417.921 78.2281 417.921 84.3472V121.279C417.921 127.399 412.96 132.359 406.841 132.359H380.988V139.746H392.068C394.108 139.746 395.762 141.4 395.762 143.439C395.762 145.479 394.108 147.132 392.068 147.132H377.355C377.335 147.133 377.315 147.133 377.295 147.133C377.275 147.133 377.255 147.133 377.235 147.132H362.523C360.483 147.132 358.83 145.479 358.83 143.439C358.83 141.4 360.483 139.746 362.523 139.746H373.602V132.359H347.75C341.63 132.359 336.67 127.399 336.67 121.279V84.3472Z" fill="white"/>
<rect x="344.796" y="74.6191" width="70.4173" height="50.1046" fill="white"/>
<path fill-rule="evenodd" clip-rule="evenodd" d="M350.46 77.945C348.42 77.945 346.766 79.5985 346.766 81.6382V118.57C346.766 120.61 348.42 122.264 350.46 122.264H379.929C379.953 122.263 379.977 122.263 380.001 122.263C380.025 122.263 380.049 122.263 380.073 122.264H409.551C411.591 122.264 413.244 120.61 413.244 118.57V81.6382C413.244 79.5985 411.591 77.945 409.551 77.945H350.46ZM383.694 129.65H409.551C415.67 129.65 420.631 124.69 420.631 118.57V81.6382C420.631 75.5191 415.67 70.5586 409.551 70.5586H350.46C344.34 70.5586 339.38 75.5191 339.38 81.6382V118.57C339.38 124.69 344.34 129.65 350.46 129.65H376.308V137.035H365.23C363.19 137.035 361.537 138.689 361.537 140.729C361.537 142.768 363.19 144.422 365.23 144.422H379.942C379.961 144.422 379.981 144.422 380.001 144.422C380.021 144.422 380.041 144.422 380.061 144.422H394.776C396.815 144.422 398.469 142.768 398.469 140.729C398.469 138.689 396.815 137.035 394.776 137.035H383.694V129.65Z" fill="#321F4A"/>
<path d="M389.421 99.002H370.088C368.563 99.002 367.326 100.238 367.326 101.764V111.43C367.326 112.955 368.563 114.192 370.088 114.192H389.421C390.946 114.192 392.182 112.955 392.182 111.43V101.764C392.182 100.238 390.946 99.002 389.421 99.002Z" stroke="#321F4A" stroke-width="2.45494" stroke-linecap="round" stroke-linejoin="round"/>
<path d="M372.85 99.0024V93.4788C372.85 91.6476 373.577 89.8914 374.872 88.5965C376.167 87.3017 377.923 86.5742 379.754 86.5742C381.585 86.5742 383.342 87.3017 384.636 88.5965C385.931 89.8914 386.659 91.6476 386.659 93.4788V99.0024" stroke="#321F4A" stroke-width="2.45494" stroke-linecap="round" stroke-linejoin="round"/>
</g>
<path fill-rule="evenodd" clip-rule="evenodd" d="M277.884 99.5396C277.411 99.3136 276.969 98.9908 276.582 98.6249C276.391 97.5917 278.35 99.3728 278.82 99.4309C279.679 100.153 278.13 99.728 277.884 99.5396ZM211.494 97.3334L211.407 97.5487C208.625 95.322 204.589 99.0607 208.555 100.81L208.535 100.885C204.497 99.3707 208.04 95.11 211.192 96.989C211.391 87.4658 192.668 91.8771 201.539 104.307L201.474 104.361C190.354 91.1195 212.957 86.3325 211.494 97.3334ZM283.168 91.5758C274.37 78.7905 278.109 61.5068 269.878 48.248C262.684 59.8419 254.484 55.8083 245.823 60.1917C243.5 63.6904 241.609 68.1265 237.28 69.3953C237.703 77.0826 231.818 77.9124 228.787 82.4593C226.634 91.5037 214.241 94.0349 208.684 86.8405C208.566 86.6898 207.64 86.7652 207.447 86.7652C187.162 87.7058 189.845 117.567 210.083 114.692C218.39 123.888 253.095 145.244 264.742 135.927C274.72 127.663 280.681 113.285 280.079 100.519C286.231 102.432 287.722 94.8065 283.168 91.5758Z" fill="#765040"/>
<path fill-rule="evenodd" clip-rule="evenodd" d="M211.494 97.3345L211.408 97.5498C208.624 95.3231 204.589 99.0618 208.556 100.811L208.534 100.886C204.496 99.3718 208.039 95.1111 211.192 96.9901C211.39 87.4679 192.669 91.8782 201.539 104.308L201.473 104.362C190.354 91.1216 212.956 86.3336 211.494 97.3345Z" fill="#765040"/>
<path fill-rule="evenodd" clip-rule="evenodd" d="M277.884 99.5391C277.411 99.3131 276.969 98.9903 276.581 98.6244C276.391 97.5912 278.35 99.3723 278.82 99.4305C279.679 100.153 278.13 99.7275 277.884 99.5391Z" fill="#765040"/>
<path fill-rule="evenodd" clip-rule="evenodd" d="M277.884 99.5391C277.411 99.3131 276.969 98.9903 276.581 98.6244C276.391 97.5912 278.35 99.3723 278.82 99.4305C279.679 100.153 278.13 99.7275 277.884 99.5391Z" fill="#672348"/>
<path fill-rule="evenodd" clip-rule="evenodd" d="M211.494 97.3345L211.408 97.5498C208.624 95.3231 204.589 99.0618 208.556 100.811L208.534 100.886C204.496 99.3718 208.039 95.1111 211.192 96.9901C211.39 87.4679 192.669 91.8782 201.539 104.308L201.473 104.362C190.354 91.1216 212.956 86.3336 211.494 97.3345Z" fill="#672348"/>
<path fill-rule="evenodd" clip-rule="evenodd" d="M281.188 57.7944C282.533 62.0992 280.757 67.5555 276.958 73.5607C275.548 64.809 274.485 56.0509 269.877 48.2485C262.684 59.8424 254.484 55.8088 245.823 60.1932C243.499 63.6909 241.609 68.127 237.279 69.3958C237.703 77.0831 231.818 77.9128 228.787 82.4598C226.634 91.5041 214.241 94.0353 208.684 86.841C208.566 86.6903 207.64 86.7656 207.446 86.7656C187.162 87.7062 189.845 117.567 210.083 114.693L210.374 127.919C201.996 131.354 199.814 128.099 197.147 122.162C182.725 130.341 164.045 112.643 169.93 97.4738C158.762 97.5749 153.887 88.3541 162.774 80.7066C150.134 70.1125 153.174 53.1248 169.575 47.2046C162.925 41.815 164.328 36.7203 173.276 38.7242C170.877 13.7596 195.912 -6.98411 216.497 7.68661C225.804 -5.24175 244.985 -0.727099 251.657 12.7986C255.697 6.63086 258.745 6.10676 257.231 13.3259C276.986 11.9667 295.991 43.9749 281.188 57.7944Z" fill="black"/>
<path fill-rule="evenodd" clip-rule="evenodd" d="M235.186 139.362L235.078 130.871C234.923 130.919 210.228 114.73 210.087 114.689C210.283 124.494 210.791 147.427 211.176 156.937H235.401L235.186 139.362Z" fill="#765040"/>
<path fill-rule="evenodd" clip-rule="evenodd" d="M235.252 139.395C230.463 137.507 210.743 115.393 210.087 114.689C210.266 114.748 234.893 130.912 235.09 130.871C235.11 132.061 235.174 138.356 235.252 139.395Z" fill="#765040"/>
<path fill-rule="evenodd" clip-rule="evenodd" d="M266.897 85.0197C264.795 78.8385 256.264 79.2943 252.964 84.7683C251.869 75.9614 267.013 76.966 266.897 85.0197Z" fill="#672348"/>
<path fill-rule="evenodd" clip-rule="evenodd" d="M265.424 66.4692C261.514 65.566 256.121 67.716 253.983 71.0295C256.914 59.5665 271.521 63.9243 265.424 66.4692Z" fill="#672348"/>
<path fill-rule="evenodd" clip-rule="evenodd" d="M264.491 113C261.272 113 258.115 111.403 256.223 108.463C256.062 108.211 256.13 107.874 256.377 107.709C256.623 107.544 256.956 107.613 257.118 107.867C259.779 111.997 265.242 113.153 269.297 110.446C269.543 110.282 269.875 110.351 270.039 110.603C270.2 110.855 270.132 111.193 269.885 111.358C268.22 112.469 266.345 113 264.491 113Z" fill="#672348"/>
<path fill-rule="evenodd" clip-rule="evenodd" d="M264.356 78.521C263.892 77.6859 263.02 77.402 262.593 76.5921C262.773 75.6061 265.8 78.9703 264.356 78.521Z" fill="#672348"/>
<defs>
<clipPath id="clip0">
<rect width="159.08" height="159.08" fill="white" transform="translate(299.109 28.5781)"/>
</clipPath>
</defs>
</svg>
