<svg width="566" height="669" viewBox="0 0 566 669" fill="none" xmlns="http://www.w3.org/2000/svg">
<g clip-path="url(#clip0)">
<path fill-rule="evenodd" clip-rule="evenodd" d="M88.9502 569.624C88.9502 558.085 240.442 548.731 427.315 548.731C614.189 548.731 765.679 558.085 765.679 569.624C765.679 576.305 714.88 582.254 635.83 586.079C642.777 588.847 646.617 591.89 646.617 595.084C646.617 607.88 584.98 618.253 508.947 618.253C446.305 618.253 393.435 602.527 376.755 596.987C373.096 595.772 369.14 595.407 365.273 595.943C347.435 598.415 293.132 605.373 247.035 605.373C171.002 605.373 109.365 595 109.365 582.204C109.365 580.519 110.444 578.876 112.475 577.293C97.293 574.919 88.9502 572.331 88.9502 569.624Z" fill="#F2E14A" fill-opacity="0.2"/>
<path fill-rule="evenodd" clip-rule="evenodd" d="M296.643 620.726C296.643 623.639 306.98 626 319.732 626C332.483 626 342.821 623.639 342.821 620.726C342.821 617.813 332.483 615.451 319.732 615.451C306.98 615.451 296.643 617.813 296.643 620.726Z" fill="#9B51E0"/>
<path fill-rule="evenodd" clip-rule="evenodd" d="M97.0344 149.658C88.662 152.109 79.8878 147.309 77.4371 138.937C74.9865 130.565 79.786 121.791 88.1584 119.34C96.5304 116.888 105.304 121.689 107.756 130.061C110.206 138.433 105.406 147.207 97.0344 149.658Z" fill="#9B51E0"/>
<path fill-rule="evenodd" clip-rule="evenodd" d="M42.1583 105.634C42.1583 111.507 37.3973 116.269 31.5237 116.269C25.6506 116.269 20.8896 111.507 20.8896 105.634C20.8896 99.7614 25.6506 95 31.5237 95C37.3973 95 42.1583 99.7614 42.1583 105.634Z" stroke="#9B51E0" stroke-width="0.934771"/>
<path fill-rule="evenodd" clip-rule="evenodd" d="M12.9582 218.314C10.1297 229.538 -1.26345 236.345 -12.4883 233.516C-23.7125 230.688 -30.5192 219.295 -27.6907 208.07C-24.8622 196.845 -13.4697 190.039 -2.24487 192.867C8.97995 195.696 15.7867 207.088 12.9582 218.314Z" stroke="#F2E14A" stroke-width="0.934771"/>
<path fill-rule="evenodd" clip-rule="evenodd" d="M125.823 219.613C124.963 223.029 121.495 225.101 118.079 224.24C114.663 223.38 112.591 219.912 113.452 216.496C114.313 213.08 117.78 211.008 121.196 211.869C124.612 212.73 126.684 216.197 125.823 219.613Z" fill="#9B51E0"/>
<path fill-rule="evenodd" clip-rule="evenodd" d="M342.957 105.634C342.957 109.158 340.1 112.015 336.577 112.015C333.053 112.015 330.196 109.158 330.196 105.634C330.196 102.11 333.053 99.2534 336.577 99.2534C340.1 99.2534 342.957 102.11 342.957 105.634Z" fill="#9B51E0"/>
<path fill-rule="evenodd" clip-rule="evenodd" d="M379.418 126.903C379.418 128.749 377.921 130.245 376.076 130.245C374.229 130.245 372.733 128.749 372.733 126.903C372.733 125.058 374.229 123.561 376.076 123.561C377.921 123.561 379.418 125.058 379.418 126.903Z" fill="#F2E14A"/>
<path fill-rule="evenodd" clip-rule="evenodd" d="M62.7305 178.478C57.7393 179.939 52.5086 177.078 51.0479 172.087C49.5865 167.095 52.4479 161.865 57.4391 160.404C62.4303 158.943 67.661 161.804 69.1223 166.795C70.5831 171.786 67.7217 177.017 62.7305 178.478Z" fill="#9B51E0"/>
<path fill-rule="evenodd" clip-rule="evenodd" d="M212.532 577.415V577.431C212.515 577.76 212.745 578.089 213.189 578.171L232.145 581.788L234.167 582.166L247.927 584.78L249.391 585.06L254.75 586.079L254.767 586.046C254.8 585.882 254.898 585.619 255.013 585.224C255.309 584.287 255.819 582.676 256.526 580.489C256.657 580.078 256.789 579.634 256.937 579.19C262.395 562.175 277.125 516.685 291.79 471.474V471.458C289.636 471.606 287.532 471.688 285.428 471.704C276.534 471.803 268.017 470.866 259.37 469.123C257.825 476.735 256.312 484.314 254.8 491.712C254.701 492.271 254.586 492.83 254.471 493.389C245.741 536.561 238.31 573.288 237.866 574.85L229.58 575.475L227.92 575.59H227.903L217.349 576.379H217.332L213.189 576.692C212.943 576.741 212.778 576.856 212.663 577.02C212.565 577.152 212.532 577.267 212.532 577.415Z" fill="#765040"/>
<path fill-rule="evenodd" clip-rule="evenodd" d="M323.01 472.954C327.86 479.366 332.973 485.646 338.3 491.778C338.842 492.386 339.368 492.995 339.911 493.603C363.585 520.483 391.352 544.403 419.514 563.753L416.621 571.563L413.053 581.147L411.689 584.813C411.64 585.011 411.673 585.192 411.771 585.323C412.034 585.767 412.807 585.898 413.201 585.405L441.791 552.821C441.791 552.804 441.791 552.804 441.775 552.788C441.462 552.574 441.166 552.36 440.854 552.13C420.55 537.877 398.997 517.721 384.02 499.373C373.58 486.599 365.295 474.302 357.206 460.657C354.987 461.857 352.784 462.958 350.564 463.994C341.654 468.121 332.611 470.915 323.01 472.954Z" fill="#765040"/>
<path fill-rule="evenodd" clip-rule="evenodd" d="M251.198 354.248H342.536C343.933 356.401 374.738 411.492 377.681 416.129C374.558 419.926 377.089 419.236 378.553 417.542C383.698 425.697 414.385 503.192 428.508 523.188C427.554 524.306 382.449 553.976 378.553 554.567C365.019 546.525 318.731 479.86 309.451 450.444C303.667 479.329 299.711 550.829 292.155 562.545C286.044 564.288 226.361 554.128 226.361 554.128C226.554 554.136 250.556 357.897 251.198 354.248Z" fill="#321F4A"/>
<path fill-rule="evenodd" clip-rule="evenodd" d="M338.201 410.53C344.53 422.843 360.773 426.559 373.005 421.38C375.109 420.476 377.082 419.243 378.545 417.55C378.265 417.089 377.97 416.613 377.674 416.136C374.55 419.933 368.977 421.43 364.275 421.988C357.814 422.778 351.057 421.545 345.681 417.763C342.935 415.84 340.699 413.292 339.154 410.316C339.055 410.119 338.908 409.971 338.76 409.888C338.48 409.724 338.168 409.741 338.102 409.971C338.053 410.086 338.069 410.283 338.201 410.53Z" fill="#2A4D52"/>
<path fill-rule="evenodd" clip-rule="evenodd" d="M411.208 587.097C410.904 586.828 410.868 586.366 411.137 586.055L411.203 585.979L415.246 581.332L413.054 581.154L416.622 571.561L423.288 572.102L439.285 553.724L440.501 552.328C440.771 552.024 441.239 551.994 441.544 552.257C441.848 552.525 441.884 552.995 441.614 553.298L423.675 573.904L417.076 581.481L412.25 587.027C411.981 587.337 411.512 587.359 411.208 587.097Z" fill="#2A4D52"/>
<path fill-rule="evenodd" clip-rule="evenodd" d="M271.198 488.785C271.231 488.818 271.231 488.868 271.198 488.9C269.801 490.446 268.091 491.745 266.167 492.649C264.227 493.537 262.107 494.046 259.953 494.128C258.112 494.211 256.221 494.03 254.478 493.389C254.593 492.83 254.708 492.271 254.807 491.712C256.468 492.271 258.161 492.747 259.953 492.813C263.915 492.978 268.009 491.547 271.083 488.785C271.116 488.753 271.165 488.753 271.198 488.785Z" fill="black"/>
<path fill-rule="evenodd" clip-rule="evenodd" d="M355.635 484.839C354.698 486.713 353.399 488.407 351.805 489.821C350.177 491.202 348.27 492.254 346.215 492.928C344.209 493.569 342.039 493.931 339.918 493.602C339.376 492.994 338.85 492.385 338.307 491.777C338.866 491.859 339.425 491.925 339.984 491.958C341.924 492.073 343.913 492.106 345.87 491.662C349.733 490.741 353.268 488.242 355.487 484.757C355.504 484.724 355.569 484.708 355.602 484.741C355.635 484.757 355.652 484.806 355.635 484.839Z" fill="black"/>
<path fill-rule="evenodd" clip-rule="evenodd" d="M338.201 410.53C344.53 422.843 360.773 426.559 373.005 421.38C375.109 420.476 377.082 419.243 378.545 417.55C378.265 417.089 377.97 416.613 377.674 416.136C374.55 419.933 368.977 421.43 364.275 421.988C357.814 422.778 351.057 421.545 345.681 417.763C342.935 415.84 340.699 413.292 339.154 410.316C339.055 410.119 338.908 409.971 338.76 409.888C338.48 409.724 338.168 409.741 338.102 409.971C338.053 410.086 338.069 410.283 338.201 410.53Z" fill="#96DAD5"/>
<path fill-rule="evenodd" clip-rule="evenodd" d="M211.356 577.954C211.432 577.554 211.811 577.288 212.216 577.362L212.315 577.378L218.373 578.491L217.294 576.275L227.591 574.919L230.414 580.711L254.377 585.115L256.198 585.451C256.598 585.528 256.861 585.916 256.79 586.31C256.713 586.71 256.328 586.98 255.93 586.904L229.061 581.96L219.178 580.144L211.948 578.814C211.542 578.741 211.285 578.348 211.356 577.954Z" fill="#2A4D52"/>
<path fill-rule="evenodd" clip-rule="evenodd" d="M166.803 287.585C169.351 289.328 172.097 291.12 174.957 292.616C179.462 294.934 183.868 304.979 186.959 309.171C192.548 316.701 198.154 324.329 204.303 331.415C213.658 342.249 226.119 354.711 241.491 350.387C246.028 349.121 251.815 346.901 255.745 344.271V344.255L255.761 344.238C255.942 343.449 260.101 325.71 260.578 323.803C262.091 317.819 261.959 312.163 263.488 307.001C263.504 306.935 263.537 306.87 263.554 306.787C260.331 309.714 256.517 312.788 251.404 316.816C245.996 321.09 237.677 326.121 230.706 322.307C228.552 321.123 226.925 319.2 225.347 317.309C214.611 304.436 202.314 294.49 193.962 279.858C190.625 273.989 178.952 265.292 178.739 265.473C174.711 269.008 187.337 277.376 180.07 279.201C177.045 279.957 172.13 276.636 169.877 274.86C164.682 270.734 159.717 268.449 158.78 269.747C158.238 270.504 167.017 278.609 169.006 280.812C166.31 280.384 155.87 273.989 153.322 274.548C152.198 274.769 154.223 276.926 156.222 278.774C157.644 280.088 159.053 281.245 159.306 281.436C162.874 284.215 163.071 285.02 166.803 287.585Z" fill="#765040"/>
<path fill-rule="evenodd" clip-rule="evenodd" d="M341.646 331.081C341.646 331.081 330.759 270.672 299.415 273.22C268.075 275.766 263.531 304.098 263.531 304.098L257.503 331.233L341.646 331.081Z" fill="#FF90A0"/>
<path fill-rule="evenodd" clip-rule="evenodd" d="M252.54 359.051C251.965 359.413 249.811 360.498 252.392 360.333C252.195 360.103 251.652 360.218 251.554 360.038C253.691 359.807 253.74 359.117 254.875 359.511C254.53 359.824 251.735 360.892 253.971 360.514C254.431 360.416 255.368 360.054 255.911 359.922C255.467 360.005 254.957 360.12 254.727 360.136L256.157 359.347C256.322 358.755 255.795 358.689 253.987 358.739L253.313 359.15C253.477 358.969 252.77 359.084 252.54 359.051Z" fill="#ED7480"/>
<path fill-rule="evenodd" clip-rule="evenodd" d="M254.994 358.396C255.06 358.446 255.109 358.495 255.158 358.544C255.208 358.594 255.24 358.626 255.273 358.659C255.438 358.626 255.553 358.594 255.651 358.544C255.882 358.462 255.98 358.363 256.062 358.331L254.994 358.396Z" fill="#ED7480"/>
<path fill-rule="evenodd" clip-rule="evenodd" d="M251.262 358.544C251.278 358.577 251.295 358.627 251.327 358.643C251.59 358.61 251.738 358.577 251.854 358.544H251.262Z" fill="#ED7480"/>
<path fill-rule="evenodd" clip-rule="evenodd" d="M251.244 358.545H251.261C251.211 358.495 251.211 358.495 251.244 358.545Z" fill="#ED7480"/>
<path fill-rule="evenodd" clip-rule="evenodd" d="M252.392 360.334C252.195 360.104 251.652 360.219 251.554 360.038C253.691 359.808 253.74 359.117 254.875 359.512C254.53 359.824 251.735 360.893 253.971 360.515C254.431 360.416 255.368 360.054 255.911 359.923C255.467 360.005 254.957 360.12 254.727 360.137L256.157 359.348C256.322 358.756 255.795 358.69 253.987 358.739L253.313 359.15C253.477 358.969 252.77 359.084 252.54 359.052C251.965 359.413 249.811 360.498 252.392 360.334Z" fill="white"/>
<path fill-rule="evenodd" clip-rule="evenodd" d="M256.322 360.054C256.93 359.759 256.618 359.791 256.108 359.906C256.305 359.857 256.42 359.89 256.322 360.054Z" fill="white"/>
<path fill-rule="evenodd" clip-rule="evenodd" d="M252.541 359.051C252.689 358.952 252.722 358.887 252.59 358.887C252.41 358.985 252.442 359.035 252.541 359.051Z" fill="white"/>
<path fill-rule="evenodd" clip-rule="evenodd" d="M255.154 358.541L255.269 358.656C255.434 358.623 255.549 358.59 255.647 358.541H255.154Z" fill="white"/>
<path fill-rule="evenodd" clip-rule="evenodd" d="M251.262 358.544C251.278 358.577 251.295 358.627 251.327 358.643C251.59 358.61 251.738 358.577 251.854 358.544H251.262Z" fill="white"/>
<path fill-rule="evenodd" clip-rule="evenodd" d="M246.56 358.545C246.757 358.249 247.694 356.72 247.957 356.276C247.678 356.72 246.56 358.545 246.56 358.545Z" fill="#298B7A"/>
<path fill-rule="evenodd" clip-rule="evenodd" d="M254.994 358.396C255.06 358.446 255.109 358.495 255.158 358.544H255.651C255.882 358.462 255.98 358.363 256.062 358.331L254.994 358.396Z" fill="#298B7A"/>
<path fill-rule="evenodd" clip-rule="evenodd" d="M251.244 358.545H251.261C251.211 358.495 251.211 358.495 251.244 358.545Z" fill="#298B7A"/>
<path fill-rule="evenodd" clip-rule="evenodd" d="M315.278 357.41L335.085 358.541C335.102 358.607 335.118 358.656 335.135 358.706C335.184 358.656 335.233 358.607 335.283 358.541H336.746C336.943 358.903 337.14 359.265 337.387 359.676L337.732 360.267L337.831 360.415L337.963 360.284L337.995 360.235L338.061 360.152L338.11 360.087C339.113 362.388 340.149 364.673 341.201 366.959C342.467 369.753 343.766 372.532 345.032 375.31C346.577 378.681 348.024 382.1 349.421 385.52C349.569 385.881 349.717 386.259 349.865 386.621C337.847 392.836 313.171 396.979 288.79 396.979H287.688C286.603 396.962 285.518 396.962 284.433 396.929H284.417C283.792 396.929 283.167 396.913 282.542 396.896L279.978 396.798C279.583 396.781 279.189 396.765 278.811 396.748H278.794C278.482 396.732 278.169 396.715 277.873 396.699C276.838 396.633 275.802 396.584 274.783 396.502C274.421 396.485 274.059 396.452 273.698 396.42H273.632C272.941 396.387 272.267 396.321 271.593 396.272C271.544 396.272 271.511 396.255 271.462 396.255H271.445C271.117 396.222 270.804 396.206 270.475 396.173C269.505 396.074 268.535 395.992 267.582 395.877H267.533C266.826 395.811 266.135 395.729 265.445 395.647H265.428C263.981 395.482 262.568 395.285 261.187 395.088C252.046 393.784 243.508 391.685 235.573 388.791C235.573 388.791 246.489 358.656 246.555 358.541H251.257C251.273 358.574 251.29 358.623 251.322 358.64C251.585 358.607 251.733 358.574 251.849 358.541" fill="#FF90A0"/>
<path fill-rule="evenodd" clip-rule="evenodd" d="M327.328 339.701C327.312 339.701 327.295 339.684 327.279 339.668C327.361 339.75 327.443 339.799 327.525 339.865C327.443 339.799 327.377 339.75 327.328 339.701Z" fill="#298B7A"/>
<path fill-rule="evenodd" clip-rule="evenodd" d="M327.245 339.651L327.262 339.668V339.651H327.245Z" fill="#298B7A"/>
<path fill-rule="evenodd" clip-rule="evenodd" d="M327.209 339.602C327.209 339.619 327.209 339.635 327.226 339.652H327.242C327.242 339.619 327.242 339.619 327.226 339.619C327.226 339.602 327.209 339.602 327.209 339.602Z" fill="#298B7A"/>
<path fill-rule="evenodd" clip-rule="evenodd" d="M327.328 339.701C327.312 339.701 327.295 339.684 327.279 339.668C327.361 339.75 327.443 339.799 327.525 339.865C327.443 339.799 327.377 339.75 327.328 339.701Z" fill="#765040"/>
<path fill-rule="evenodd" clip-rule="evenodd" d="M327.245 339.651L327.262 339.668V339.651H327.245Z" fill="#765040"/>
<path fill-rule="evenodd" clip-rule="evenodd" d="M327.209 339.602C327.209 339.619 327.209 339.635 327.226 339.652H327.242C327.242 339.619 327.242 339.619 327.226 339.619C327.226 339.602 327.209 339.602 327.209 339.602Z" fill="#765040"/>
<path fill-rule="evenodd" clip-rule="evenodd" d="M326.078 335.871L326.094 335.887C326.275 335.706 326.423 335.525 326.538 335.328L326.078 335.871Z" fill="#765040"/>
<path fill-rule="evenodd" clip-rule="evenodd" d="M257.405 330.05C257.438 329.919 257.455 329.804 257.471 329.721C257.487 329.672 257.504 329.639 257.504 329.59H327.474C327.506 329.688 327.556 329.853 327.622 330.083C327.654 330.215 327.704 330.346 327.753 330.51C328.098 331.744 336.269 355.796 336.417 356.174C336.466 356.256 336.499 356.355 336.532 356.437C336.828 357.144 337.124 357.834 337.42 358.541H337.124C336.976 358.492 336.812 358.442 336.664 358.41C336.697 358.459 336.713 358.492 336.746 358.541H246.555C246.588 358.492 257.356 330.247 257.405 330.05Z" fill="#9B51E0"/>
<path fill-rule="evenodd" clip-rule="evenodd" d="M320.667 303.088L320.749 302.578L320.486 302.808L320.667 303.088ZM314.189 277.918C314.239 277.869 314.255 277.852 314.305 277.819C320.092 273.857 339.261 308.283 341.086 312.295C347.925 327.222 352.249 343.498 358.759 358.311C362.244 366.284 365.927 374.225 368.853 382.429C369.626 384.615 370.07 387.344 371.155 389.383C371.977 390.945 373.457 391.98 373.983 393.822C374.69 396.321 377.32 400.743 378.915 401.631C383.584 404.195 389.502 409.259 389.173 411.232C388.68 412.416 385.54 411.396 382.071 409.834C379.326 408.601 376.366 407.023 374.377 405.971C378.158 410.903 385.622 418.482 383.929 419.255C383.403 419.485 382.86 419.567 382.301 419.518H382.285C381.594 419.468 380.904 419.205 380.181 418.844C380.082 418.778 379.967 418.729 379.868 418.679C378.816 418.055 377.747 417.2 376.695 416.263C376.449 416.032 376.202 415.802 375.955 415.572C375.857 415.49 375.775 415.424 375.692 415.309H375.676C375.413 415.079 375.166 414.832 374.903 414.586H374.887L374.87 414.553C374.607 414.306 374.328 414.027 374.065 413.78C372.947 412.711 371.911 411.758 371.023 411.215C371.697 412.185 372.618 413.353 373.621 414.569L373.637 414.586C374.805 416.065 376.054 417.611 377.024 419.09C377.123 419.238 377.221 419.386 377.32 419.534C377.682 420.093 377.994 420.636 378.224 421.129C378.274 421.195 378.29 421.244 378.323 421.31C378.438 421.573 378.471 421.803 378.421 422.033V422.05C378.274 422.937 377.172 423.529 376.235 423.003C373.391 421.425 370.941 419.288 368.492 417.2C366.93 415.868 365.417 413.994 363.642 412.942C363.675 413.254 363.757 413.566 363.839 413.895C363.839 413.912 363.855 413.928 363.855 413.944C363.872 413.994 363.888 414.06 363.921 414.109L363.938 414.125C364.628 416.147 366.42 418.318 367.374 420.011C367.965 421.014 370.497 424.598 369.429 425.798C369.199 426.061 368.952 426.209 368.689 426.291H368.672C368.607 426.308 368.574 426.324 368.508 426.34C367.193 426.554 365.598 424.976 364.398 423.694C364.316 423.595 364.217 423.496 364.135 423.398C364.118 423.381 364.118 423.381 364.102 423.365C363.872 423.118 363.642 422.888 363.461 422.691C363.313 422.543 363.149 422.378 363.001 422.214C362.392 421.589 361.8 420.899 361.241 420.175L361.225 420.159C360.65 419.403 360.074 418.614 359.565 417.792C359.565 417.792 359.565 417.775 359.548 417.775C359.252 417.265 358.94 416.739 358.693 416.23C358.677 416.23 358.677 416.213 358.677 416.213L358.66 416.197V416.18V416.164C358.578 416.016 358.496 415.884 358.43 415.736C358.282 415.408 358.101 414.997 357.888 414.52V414.503C357.822 414.372 357.756 414.24 357.69 414.092V414.076C357.657 414.01 357.625 413.961 357.608 413.879L357.592 413.862C357.46 413.566 357.329 413.254 357.181 412.909C356.786 411.988 356.342 410.936 355.865 409.818C352.627 402.124 349.717 394.331 346.577 386.621C346.429 386.259 346.281 385.881 346.133 385.519C344.735 382.1 343.289 378.68 341.743 375.31C340.477 372.532 329.347 346.523 328.229 342.923L327.934 341.986C327.917 341.92 327.884 341.838 327.868 341.772C327.835 341.64 327.786 341.509 327.753 341.377C327.736 341.328 327.375 340.177 327.227 339.651H327.243L327.259 339.667V339.651H327.243C327.243 339.618 327.243 339.618 327.227 339.618C327.227 339.602 327.21 339.602 327.21 339.602C327.144 339.421 327.095 339.24 327.046 339.059C326.947 338.763 326.848 338.451 326.766 338.155C326.717 338.007 326.684 337.876 326.651 337.728L326.635 337.711C326.585 337.563 326.536 337.415 326.503 337.267C326.421 337.054 326.257 336.478 326.076 335.87C325.862 335.212 325.665 334.505 325.583 334.209C325.204 332.976 324.81 331.743 324.465 330.51C324.415 330.346 324.366 330.214 324.333 330.083C324.267 329.853 324.218 329.688 324.185 329.59C324.037 329.146 323.906 328.685 323.774 328.242C323.067 325.923 322.377 323.605 321.686 321.287C321.571 320.86 321.44 320.449 321.325 320.038C321.209 319.676 321.111 319.331 321.012 318.986C320.864 318.492 320.716 317.999 320.568 317.506C320.552 317.473 320.552 317.44 320.552 317.407C320.256 316.454 319.976 315.484 319.697 314.53C319.631 314.366 319.582 314.202 319.549 314.037C319.253 313.051 318.957 312.081 318.678 311.094C318.628 310.963 318.595 310.848 318.563 310.716C318.431 310.256 318.283 309.779 318.152 309.319C318.069 309.039 317.987 308.743 317.905 308.464C317.741 307.921 317.576 307.362 317.412 306.82V306.803C317.379 306.688 317.346 306.606 317.33 306.491C317.165 305.981 317.017 305.472 316.869 304.962C316.491 303.696 316.129 302.414 315.751 301.148C314.847 298.074 313.4 294.523 312.562 290.972C311.526 286.566 310.441 280.631 314.173 277.918H314.189Z" fill="#765040"/>
<path fill-rule="evenodd" clip-rule="evenodd" d="M319.66 218.404L319.841 218.815L320.202 218.585C321.287 217.911 322.619 217.566 323.918 217.549C325.217 217.533 326.614 217.845 327.518 218.749C328.488 219.637 328.537 221.133 328.192 222.366C327.765 223.616 326.68 224.635 325.364 224.964L325.397 225.112C326.778 224.832 327.962 223.796 328.472 222.481C328.899 221.166 328.916 219.522 327.847 218.437C326.828 217.352 325.315 216.99 323.934 216.957C322.652 216.924 321.37 217.155 320.219 217.746C319.594 215.921 319.808 213.916 320.893 212.403C322.06 210.759 323.951 209.707 325.874 209C327.831 208.31 329.918 207.915 331.973 207.948C334.028 207.964 336.034 208.523 337.793 209.46C341.344 211.433 342.939 215.626 342.873 219.719C342.824 223.846 341.361 227.972 338.845 231.425L338.961 231.54C340.49 230.011 341.723 228.169 342.61 226.164C343.547 224.174 344.106 221.988 344.221 219.769C344.337 217.549 344.09 215.247 343.136 213.143C342.232 211.039 340.572 209.197 338.533 208.145C336.478 207.126 334.209 206.6 331.973 206.666C329.738 206.699 327.551 207.159 325.496 207.964C323.457 208.786 321.419 209.954 320.136 211.877C318.805 213.784 318.739 216.382 319.66 218.404ZM197.953 212.37C199.12 211.269 200.583 210.562 202.112 210.167C202.046 208.902 201.997 207.603 201.997 206.304C201.997 203.953 202.096 201.635 202.293 199.35C202.293 199.333 202.309 199.3 202.309 199.284C203.016 191.047 205.006 183.222 208.047 176.07C208.491 175.972 208.951 175.89 209.428 175.791C209.346 176.054 209.264 176.317 209.198 176.596C207.85 182.367 213.061 180.065 217.697 175.018C218.026 174.656 218.388 174.344 218.733 173.999C245.185 155.356 277.227 153.662 282.636 165.17C280.927 167.817 280.006 170.957 280.072 174.13C280.072 174.492 280.285 174.821 280.565 175.051C280.746 175.166 281.173 175.396 281.288 175.067C282.636 171.599 285.152 168.623 288.308 166.667C289.18 174.92 289.245 185.228 295.887 171.714C294.26 177.862 293.947 188.927 295.361 195.174C296.397 199.761 298.468 204.117 301.493 207.701C302.299 209.378 303.285 210.989 304.568 212.37C304.831 212.666 305.636 213.094 305.538 212.338C305.077 208.902 305.275 205.433 306.047 202.095C309.5 211.713 312.656 217.911 313.347 215.099C313.363 215.05 313.38 214.968 313.396 214.919C313.544 215.116 313.725 215.313 313.922 215.51C317.67 219.292 315.237 205.219 330.214 194.599C330.543 194.631 330.888 194.681 331.217 194.746C331.382 194.763 331.53 194.796 331.694 194.829C332.006 194.878 332.319 194.944 332.631 195.01C333.946 195.305 335.229 195.684 336.478 196.16C336.642 196.226 336.807 196.292 336.971 196.374C337.448 196.604 337.876 196.801 338.221 196.966C340.078 197.837 341.838 198.922 343.449 200.205C344.895 201.372 346.178 202.654 347.279 204.019C347.559 204.364 347.805 204.726 348.068 205.071C348.184 205.252 348.315 205.433 348.43 205.613C348.496 205.696 348.562 205.778 348.611 205.877C348.677 205.975 348.743 206.074 348.792 206.156C348.956 206.419 349.121 206.699 349.269 206.962C349.417 207.241 349.565 207.504 349.712 207.784C349.86 208.063 349.992 208.343 350.123 208.622C350.255 208.902 350.387 209.181 350.502 209.46C350.666 209.839 350.814 210.233 350.945 210.628C351.077 211.022 351.209 211.417 351.324 211.811C351.439 212.222 351.554 212.633 351.636 213.061C351.652 213.094 351.652 213.127 351.669 213.16C351.735 213.423 351.784 213.686 351.833 213.965V214.014C351.883 214.146 351.899 214.277 351.915 214.409C351.981 214.754 352.031 215.099 352.063 215.445V215.461V215.51C352.113 215.905 352.146 216.316 352.162 216.711C352.491 222.596 350.452 228.613 345.948 233.414C339.273 240.533 329.014 243.048 319.841 240.68C319.627 241.026 319.397 241.371 319.15 241.716C313.659 248.769 310.371 251.383 303.795 257.614L303.778 257.63C303.598 257.762 303.4 257.893 303.203 258.008C301.921 258.929 300.589 259.768 299.208 260.557C300.803 259.357 301.789 258.617 301.789 258.617L274.712 268.448V269.139C269.057 270.109 263.072 270.585 256.759 270.585C245.07 270.585 230.882 268.234 221.512 258.387C220.854 257.696 220.213 256.989 219.588 256.266C218.963 255.559 218.355 254.819 217.747 254.063C217.73 254.03 217.714 253.997 217.681 253.964C217.106 253.224 216.53 252.468 215.971 251.679C215.429 250.939 214.903 250.167 214.393 249.394C214.294 249.246 214.212 249.114 214.113 248.966C213.637 248.21 213.16 247.437 212.683 246.648C211.647 244.906 210.661 243.081 209.773 241.207C209.313 240.269 208.869 239.316 208.458 238.346C207.061 235.124 205.877 231.737 204.907 228.202C204.841 228.202 204.825 228.252 204.759 228.252C199.86 228.301 195.848 223.895 195.454 219.062C195.24 216.563 196.144 214.047 197.953 212.37Z" fill="#765040"/>
<path fill-rule="evenodd" clip-rule="evenodd" d="M336.478 196.16C336.642 196.225 336.807 196.291 336.971 196.373C337.448 196.604 337.875 196.801 338.221 196.965C340.078 197.837 341.838 198.922 343.449 200.204C344.895 201.371 346.178 202.654 347.279 204.018C346.178 202.621 344.879 201.305 343.399 200.122C343.284 200.023 343.169 199.941 343.054 199.859C342.808 199.661 342.545 199.464 342.281 199.283C342.035 199.086 341.772 198.905 341.509 198.741C341.311 198.609 341.098 198.478 340.9 198.346C340.621 198.182 340.342 198.017 340.062 197.853C339.783 197.689 339.487 197.524 339.191 197.376C339.026 197.294 338.845 197.195 338.681 197.113C338.55 197.047 338.434 196.998 338.303 196.932C338.089 196.834 337.859 196.735 337.629 196.636C337.251 196.456 336.873 196.308 336.478 196.16Z" fill="#765040"/>
<path fill-rule="evenodd" clip-rule="evenodd" d="M319.66 218.404L319.841 218.815L320.203 218.585C321.288 217.911 322.619 217.566 323.918 217.549C325.217 217.533 326.614 217.845 327.519 218.749C328.489 219.637 328.538 221.133 328.193 222.366C327.765 223.616 326.68 224.635 325.365 224.964L325.398 225.112C326.779 224.832 327.962 223.796 328.472 222.481C328.9 221.166 328.916 219.522 327.847 218.437C326.828 217.352 325.316 216.99 323.935 216.957C322.652 216.924 321.37 217.155 320.219 217.746C319.594 215.922 319.808 213.916 320.893 212.403C322.06 210.759 323.951 209.707 325.875 209C327.831 208.31 329.919 207.915 331.974 207.948C334.029 207.964 336.035 208.523 337.794 209.46C341.345 211.433 342.939 215.626 342.874 219.719C342.824 223.846 341.361 227.972 338.846 231.425L338.961 231.54C340.49 230.011 341.723 228.169 342.611 226.164C343.548 224.175 344.107 221.988 344.222 219.769C344.337 217.549 344.09 215.247 343.137 213.143C342.233 211.039 340.572 209.197 338.534 208.145C336.478 207.126 334.21 206.6 331.974 206.666C329.738 206.699 327.551 207.159 325.496 207.964C323.458 208.786 321.419 209.954 320.137 211.877C318.805 213.784 318.739 216.382 319.66 218.404Z" fill="#765040"/>
<path fill-rule="evenodd" clip-rule="evenodd" d="M303.795 257.614C309.763 253.405 314.925 248.128 319.15 241.716C313.659 248.769 310.371 251.383 303.795 257.614Z" fill="#765040"/>
<path fill-rule="evenodd" clip-rule="evenodd" d="M274.712 268.447V269.138C283.803 267.576 292.024 264.748 299.208 260.556C300.803 259.356 301.789 258.616 301.789 258.616L274.712 268.447Z" fill="#765040"/>
<path fill-rule="evenodd" clip-rule="evenodd" d="M303.795 257.614C309.763 253.405 314.925 248.128 319.15 241.716C313.659 248.769 310.371 251.383 303.795 257.614Z" fill="#765040"/>
<path fill-rule="evenodd" clip-rule="evenodd" d="M336.478 196.16C336.642 196.225 336.807 196.291 336.971 196.373C337.448 196.604 337.875 196.801 338.221 196.965C340.078 197.837 341.838 198.922 343.449 200.204C344.895 201.371 346.178 202.654 347.279 204.018C346.178 202.621 344.879 201.305 343.399 200.122C343.284 200.023 343.169 199.941 343.054 199.859C342.808 199.661 342.545 199.464 342.281 199.283C342.035 199.086 341.772 198.905 341.509 198.741C341.311 198.609 341.098 198.478 340.9 198.346C340.621 198.182 340.342 198.017 340.062 197.853C339.783 197.689 339.487 197.524 339.191 197.376C339.026 197.294 338.845 197.195 338.681 197.113C338.55 197.047 338.434 196.998 338.303 196.932C338.089 196.834 337.859 196.735 337.629 196.636C337.251 196.456 336.873 196.308 336.478 196.16Z" fill="#765040"/>
<path fill-rule="evenodd" clip-rule="evenodd" d="M274.713 277.145V292.401C274.713 293.01 274.861 293.536 275.14 293.963C275.288 294.177 275.452 294.374 275.65 294.555C275.913 294.785 276.225 294.982 276.587 295.147C276.751 295.229 276.916 295.295 277.08 295.344C277.425 295.476 277.803 295.574 278.214 295.64C278.362 295.673 278.527 295.689 278.691 295.706C279.283 295.804 279.941 295.837 280.631 295.837C280.96 295.837 281.305 295.821 281.65 295.804C281.913 295.788 282.193 295.772 282.456 295.739C282.735 295.722 283.015 295.689 283.311 295.656C283.623 295.624 283.952 295.591 284.281 295.525C285.103 295.41 285.941 295.245 286.813 295.065C287.224 294.982 287.635 294.884 288.046 294.769C288.161 294.752 288.276 294.719 288.391 294.686C289.18 294.489 289.986 294.259 290.775 294.012C290.808 293.782 290.84 293.585 290.873 293.388L290.791 294.012C290.939 293.963 291.087 293.93 291.219 293.881C292.583 293.453 293.931 292.96 295.246 292.418C295.756 292.204 296.249 291.99 296.743 291.777C297.137 291.596 297.515 291.415 297.893 291.234C298.321 291.02 298.732 290.807 299.143 290.593C299.587 290.363 300.014 290.116 300.425 289.869C300.491 289.837 300.54 289.804 300.59 289.771C301.74 287.305 302.908 284.872 304.141 282.455L303.96 277.819L303.927 276.865L303.763 272.772L303.204 258.008C301.921 258.929 300.59 259.767 299.209 260.557C293.307 264.963 278.971 275.534 274.713 277.145Z" fill="#765040"/>
<path fill-rule="evenodd" clip-rule="evenodd" d="M300.593 289.773C300.774 289.691 300.939 289.576 301.103 289.477C301.284 289.378 301.448 289.28 301.596 289.165C301.662 289.132 301.728 289.099 301.777 289.05C302.024 288.885 302.27 288.721 302.5 288.556C303.174 288.096 303.783 287.619 304.325 287.126L304.144 282.457C302.911 284.874 301.744 287.307 300.593 289.773Z" fill="#765040"/>
<path fill-rule="evenodd" clip-rule="evenodd" d="M300.427 289.872C300.493 289.855 300.542 289.822 300.592 289.789V289.773C300.542 289.806 300.493 289.839 300.427 289.872Z" fill="#765040"/>
<path fill-rule="evenodd" clip-rule="evenodd" d="M290.777 294.015H290.794L290.876 293.39C290.843 293.587 290.81 293.785 290.777 294.015Z" fill="#765040"/>
<path fill-rule="evenodd" clip-rule="evenodd" d="M274.712 268.447V277.144C278.97 275.533 293.306 264.962 299.208 260.556C300.803 259.356 301.789 258.616 301.789 258.616L274.712 268.447Z" fill="#765040"/>
<path fill-rule="evenodd" clip-rule="evenodd" d="M274.712 268.447V277.144C278.97 275.533 293.306 264.962 299.208 260.556C300.803 259.356 301.789 258.616 301.789 258.616L274.712 268.447Z" fill="#765040"/>
<path fill-rule="evenodd" clip-rule="evenodd" d="M319.66 218.404L319.841 218.815L320.203 218.585C321.288 217.911 322.619 217.566 323.918 217.549C325.217 217.533 326.614 217.845 327.519 218.749C328.489 219.637 328.538 221.133 328.193 222.366C327.765 223.616 326.68 224.635 325.365 224.964L325.398 225.112C326.779 224.832 327.962 223.796 328.472 222.481C328.9 221.166 328.916 219.522 327.847 218.437C326.828 217.352 325.316 216.99 323.935 216.957C322.652 216.924 321.37 217.155 320.219 217.746C319.594 215.922 319.808 213.916 320.893 212.403C322.06 210.759 323.951 209.707 325.875 209C327.831 208.31 329.919 207.915 331.974 207.948C334.029 207.964 336.035 208.523 337.794 209.46C341.345 211.433 342.939 215.626 342.874 219.719C342.824 223.846 341.361 227.972 338.846 231.425L338.961 231.54C340.49 230.011 341.723 228.169 342.611 226.164C343.548 224.175 344.107 221.988 344.222 219.769C344.337 217.549 344.09 215.247 343.137 213.143C342.233 211.039 340.572 209.197 338.534 208.145C336.478 207.126 334.21 206.6 331.974 206.666C329.738 206.699 327.551 207.159 325.496 207.964C323.458 208.786 321.419 209.954 320.137 211.877C318.805 213.784 318.739 216.382 319.66 218.404Z" fill="black"/>
<path fill-rule="evenodd" clip-rule="evenodd" d="M337.629 196.636C337.415 196.554 337.201 196.456 336.971 196.373C336.807 196.291 336.642 196.225 336.478 196.16C336.873 196.308 337.251 196.456 337.629 196.636Z" fill="black"/>
<path fill-rule="evenodd" clip-rule="evenodd" d="M193.219 167.554C196.441 171.089 200.781 172.387 205.286 172.897C202.228 173.719 199.466 175.314 198.315 178.52C198.907 178.092 202.557 177.204 208.048 176.07C208.492 175.971 208.952 175.889 209.429 175.79C209.347 176.054 209.264 176.317 209.199 176.596C207.851 182.367 213.062 180.065 217.698 175.018C218.027 174.656 218.389 174.344 218.734 173.998C245.186 155.355 277.228 153.662 282.637 165.17C280.927 167.817 280.007 170.957 280.072 174.13C280.072 174.492 280.286 174.82 280.566 175.051C280.747 175.166 281.174 175.396 281.289 175.067C282.637 171.598 285.153 168.623 288.309 166.666C289.18 174.919 289.246 185.227 295.888 171.713C294.26 177.862 293.948 188.926 295.362 195.174C296.398 199.76 298.469 204.117 301.494 207.701C302.3 209.378 303.286 210.989 304.568 212.37C304.831 212.666 305.637 213.093 305.538 212.337C305.078 208.901 305.275 205.432 306.048 202.095C309.5 211.712 312.657 217.91 313.348 215.099C313.364 215.05 313.38 214.968 313.397 214.918C313.545 215.116 313.726 215.313 313.923 215.51C317.671 219.291 315.238 205.218 330.215 194.598C330.544 194.631 330.889 194.68 331.218 194.746C331.382 194.762 331.53 194.795 331.695 194.828C332.007 194.878 332.32 194.943 332.632 195.009C333.947 195.305 335.229 195.683 336.479 196.16C336.873 196.308 337.252 196.456 337.63 196.637C337.86 196.735 338.09 196.834 338.304 196.933C338.435 196.998 338.55 197.048 338.682 197.113V193.743C338.682 192.477 338.665 191.211 338.633 189.929C338.616 188.893 338.6 187.874 338.6 186.838C338.583 185.638 338.583 184.438 338.616 183.238C338.633 182.613 338.649 182.005 338.682 181.397C338.731 180.377 338.863 179.358 339.011 178.322C339.718 173.423 339.586 169.198 338.633 165.367C336.989 158.824 332.895 153.432 326.27 147.858C322.85 144.998 319.233 142.762 315.468 140.986C317.178 139.836 319.019 138.882 320.992 138.225C321.65 137.994 320.729 136.646 320.17 136.827C318.181 137.518 316.29 138.471 314.531 139.638V137.452C314.531 137.074 314.285 136.679 313.956 136.482C313.742 136.35 313.282 136.252 313.282 136.646V139.129C300.952 123.872 277.968 122.853 244.644 127.736C238.281 128.673 231.705 126.486 227.612 121.521C227.579 121.488 227.562 121.455 227.529 121.423C225.474 117.674 223.617 113.35 222.038 108.32C220.493 103.437 217.83 109.832 216.794 118.957C211.878 109.52 211.204 103.19 207.637 107.251C198.71 117.477 198.677 132.701 206.519 144.62C199.318 141.808 191.575 137.616 183.371 131.533C173.688 124.349 186.084 155.01 202.77 169.329C199.614 168.655 196.49 167.768 193.449 166.617C192.775 166.354 192.939 167.242 193.219 167.554Z" fill="black"/>
<path fill-rule="evenodd" clip-rule="evenodd" d="M198.32 178.516C197.789 178.89 198.153 178.983 198.32 178.516V178.516Z" fill="black"/>
<path fill-rule="evenodd" clip-rule="evenodd" d="M206.637 228.27C207.459 228.336 208.281 228.27 209.07 228.057C209.284 228.007 211.24 227.448 210.533 227.054C210.385 226.972 210.221 227.005 210.057 227.021C209.909 227.037 209.761 227.07 209.596 227.087C208.659 227.268 207.771 227.629 206.719 227.564C206.292 227.531 206.193 228.238 206.637 228.27Z" fill="black"/>
<path fill-rule="evenodd" clip-rule="evenodd" d="M251.287 181.864C251.599 182.192 252.026 182.143 252.355 181.913C252.52 181.798 252.848 181.65 253.079 181.601C253.407 181.518 253.621 181.502 253.966 181.518C254.213 181.551 254.525 181.617 254.821 181.748C254.838 181.765 254.953 181.814 254.953 181.814C255.035 181.864 255.101 181.913 255.167 181.962C255.315 182.061 255.347 182.077 255.43 182.176C256.317 183.064 256.383 184.527 255.66 185.53C255.43 185.875 255.578 186.385 255.906 186.598C256.268 186.829 256.712 186.697 256.942 186.352C258.044 184.806 257.879 182.39 256.498 181.074C255.068 179.726 252.914 179.628 251.352 180.762C251.007 181.009 251.04 181.584 251.287 181.864Z" fill="black"/>
<path fill-rule="evenodd" clip-rule="evenodd" d="M226.457 244.145C232.482 244.927 238.774 242.757 243.017 237.814C243.381 237.391 243.331 236.753 242.909 236.39C242.488 236.027 241.85 236.071 241.483 236.499C235.519 243.445 225.014 244.244 218.068 238.282C217.647 237.921 217.009 237.965 216.642 238.391C216.279 238.815 216.328 239.453 216.751 239.816C219.602 242.261 222.985 243.694 226.457 244.145Z" fill="black"/>
<path fill-rule="evenodd" clip-rule="evenodd" d="M234.821 210.922C236.003 210.897 236.659 209.986 236.792 208.949C236.858 208.429 237.151 207.537 237.46 207.007C237.879 206.228 238.223 205.787 238.86 205.151C239.357 204.733 240.031 204.247 240.804 203.908C240.864 203.905 241.162 203.77 241.162 203.77C241.4 203.698 241.611 203.658 241.823 203.617C242.272 203.505 242.362 203.471 242.696 203.486C245.966 203.333 248.9 205.776 249.563 208.931C249.824 209.98 251.067 210.59 252.055 210.331C253.135 210.037 253.66 208.952 253.399 207.902C252.355 203.066 247.408 199.139 242.449 199.492C237.34 199.884 233.369 203.861 232.814 208.862C232.682 209.96 233.849 210.907 234.821 210.922Z" fill="black"/>
</g>
<defs>
<clipPath id="clip0">
<rect width="566" height="669" fill="white"/>
</clipPath>
</defs>
</svg>
