<svg width="485" height="959" viewBox="0 0 485 959" fill="none" xmlns="http://www.w3.org/2000/svg">
<g clip-path="url(#clip0)">
<g clip-path="url(#clip1)">
<path d="M342.513 228.781C377.385 179.223 436.275 173.483 388.179 139.641C340.083 105.798 287.162 98.1627 252.29 147.721C217.419 197.28 228.14 264.89 276.236 298.732C324.333 332.574 307.642 278.34 342.513 228.781Z" fill="#9B51E0"/>
<path d="M329.505 203.405C281.988 270.935 201.742 278.756 267.28 324.871C332.817 370.986 404.929 381.39 452.446 313.86C499.963 246.33 485.354 154.203 419.816 108.088C354.279 61.9733 377.022 135.875 329.505 203.405Z" fill="#F6D446"/>
<path d="M292.124 230.75C292.124 269.75 332.125 300.125 355.875 303.875L408.375 247.625L412.125 180.125L355.875 157.625L290.25 178.25C288.375 186.375 292.124 191.75 292.124 230.75Z" fill="white"/>
<path fill-rule="evenodd" clip-rule="evenodd" d="M359.633 152.434C358.089 151.855 356.388 151.855 354.845 152.434L300.299 172.889C297.638 173.887 295.875 176.431 295.875 179.273V227C295.875 250.499 311.432 269.275 325.476 281.563C332.641 287.833 339.774 292.733 345.102 296.064C347.774 297.733 350.009 299.019 351.593 299.896C352.385 300.334 353.015 300.671 353.457 300.903C353.678 301.019 353.851 301.108 353.975 301.172L354.121 301.246L354.165 301.268L354.185 301.279C356.105 302.238 358.369 302.24 360.288 301.281L357.239 295.182C360.288 301.281 360.295 301.277 360.298 301.276L360.312 301.268L360.356 301.246L360.503 301.172C360.626 301.108 360.8 301.019 361.021 300.903C361.462 300.671 362.093 300.334 362.885 299.896C364.468 299.019 366.704 297.733 369.375 296.064C374.703 292.733 381.836 287.833 389.001 281.563C403.045 269.275 418.603 250.499 418.603 227V179.273C418.603 176.431 416.84 173.887 414.178 172.889L359.633 152.434ZM357.239 295.182L354.185 301.279C354.188 301.28 354.19 301.281 357.239 295.182ZM362.148 284.5C360.216 285.707 358.545 286.688 357.239 287.428C355.932 286.688 354.261 285.707 352.33 284.5C347.431 281.438 340.927 276.963 334.456 271.301C321.227 259.726 309.511 244.411 309.511 227V183.998L357.239 166.1L404.966 183.998V227C404.966 244.411 393.251 259.726 380.022 271.301C373.551 276.963 367.047 281.438 362.148 284.5ZM357.368 194.624C353.661 193.179 349.665 192.635 345.707 193.038C341.749 193.441 337.944 194.779 334.605 196.941C331.266 199.104 328.489 202.028 326.502 205.475C324.515 208.921 323.376 212.79 323.178 216.763C322.98 220.737 323.729 224.7 325.364 228.326C326.998 231.953 329.471 235.14 332.579 237.623C333.783 238.585 335.538 238.389 336.499 237.185C337.461 235.982 337.265 234.227 336.062 233.265C333.644 231.333 331.721 228.855 330.45 226.034C329.178 223.214 328.596 220.131 328.75 217.041C328.904 213.951 329.79 210.941 331.335 208.261C332.88 205.58 335.04 203.306 337.637 201.624C340.234 199.942 343.194 198.902 346.272 198.588C349.35 198.275 352.459 198.697 355.341 199.821C358.224 200.945 360.798 202.738 362.852 205.052C364.906 207.366 366.381 210.135 367.154 213.13C367.472 214.362 368.583 215.222 369.855 215.222H373.367C375.928 215.225 378.409 216.109 380.395 217.725C382.381 219.342 383.751 221.592 384.274 224.099C384.798 226.606 384.443 229.216 383.269 231.492C382.095 233.768 380.175 235.571 377.829 236.599C376.418 237.217 375.775 238.861 376.393 240.273C377.011 241.684 378.656 242.326 380.067 241.708C383.585 240.167 386.467 237.463 388.227 234.049C389.988 230.635 390.52 226.719 389.735 222.959C388.95 219.199 386.895 215.823 383.916 213.399C380.937 210.974 377.214 209.648 373.373 209.644H371.917C370.839 206.595 369.18 203.777 367.024 201.349C364.384 198.373 361.074 196.068 357.368 194.624ZM345.481 231.957C343.94 231.957 342.692 233.206 342.692 234.747C342.692 236.287 343.94 237.536 345.481 237.536H345.509C347.049 237.536 348.298 236.287 348.298 234.747C348.298 233.206 347.049 231.957 345.509 231.957H345.481ZM342.692 245.904C342.692 244.363 343.94 243.114 345.481 243.114H345.509C347.049 243.114 348.298 244.363 348.298 245.904C348.298 247.444 347.049 248.693 345.509 248.693H345.481C343.94 248.693 342.692 247.444 342.692 245.904ZM356.632 237.536C355.092 237.536 353.843 238.785 353.843 240.325C353.843 241.866 355.092 243.114 356.632 243.114H356.66C358.201 243.114 359.449 241.866 359.449 240.325C359.449 238.785 358.201 237.536 356.66 237.536H356.632ZM353.843 251.482C353.843 249.942 355.092 248.693 356.632 248.693H356.66C358.201 248.693 359.449 249.942 359.449 251.482C359.449 253.022 358.201 254.271 356.66 254.271H356.632C355.092 254.271 353.843 253.022 353.843 251.482ZM367.794 231.957C366.253 231.957 365.005 233.206 365.005 234.747C365.005 236.287 366.253 237.536 367.794 237.536H367.822C369.362 237.536 370.611 236.287 370.611 234.747C370.611 233.206 369.362 231.957 367.822 231.957H367.794ZM365.005 245.904C365.005 244.363 366.253 243.114 367.794 243.114H367.822C369.362 243.114 370.611 244.363 370.611 245.904C370.611 247.444 369.362 248.693 367.822 248.693H367.794C366.253 248.693 365.005 247.444 365.005 245.904Z" fill="#321F4A"/>
</g>
<path fill-rule="evenodd" clip-rule="evenodd" d="M226.744 858.743C227.007 858.296 227.19 857.824 227.295 857.299C227.505 857.798 227.322 858.428 226.744 858.743Z" fill="#C79C89"/>
<path fill-rule="evenodd" clip-rule="evenodd" d="M227.295 857.273V857.299C227.19 857.824 227.006 858.297 226.744 858.743H226.718C225.956 860.056 224.539 861.027 222.753 861.027L159.612 871.739C159.455 871.581 159.35 871.397 159.192 871.214C155.674 866.619 155.543 856.17 151.211 846.614C151.211 846.193 120.231 787.227 120.231 787.227L130.812 785.967L132.335 785.783L172.031 781.031L174.131 780.769L179.828 780.086L186.05 844.566C200.857 845.012 219.655 844.697 226.429 853.623C227.295 854.752 227.531 856.065 227.295 857.273Z" fill="black"/>
<path fill-rule="evenodd" clip-rule="evenodd" d="M163.814 697.752L155.281 698.146L144.832 698.645C148.114 697.437 151.369 696.072 154.572 694.602C155.071 694.392 155.544 694.156 156.016 693.919L163.21 693.578C163.42 694.97 163.604 696.335 163.814 697.752Z" fill="white"/>
<path fill-rule="evenodd" clip-rule="evenodd" d="M156.016 693.92C155.543 694.156 155.071 694.392 154.572 694.603C154.519 694.392 154.493 694.182 154.44 693.999L156.016 693.92Z" fill="white"/>
<path fill-rule="evenodd" clip-rule="evenodd" d="M163.21 693.579L156.017 693.92C158.301 692.87 160.559 691.767 162.764 690.586C162.921 691.584 163.053 692.581 163.21 693.579Z" fill="white"/>
<path fill-rule="evenodd" clip-rule="evenodd" d="M165.074 706.208L156.988 706.575L107.447 708.912C107.394 708.754 107.342 708.597 107.289 708.439C112.199 707.73 117.056 706.785 121.834 705.683C124.38 705.079 126.927 704.422 129.474 703.687C129.5 703.661 129.5 703.661 129.526 703.661H129.579H129.605L156.174 702.427L164.47 702.033C164.68 703.398 164.838 704.79 165.074 706.208Z" fill="white"/>
<path fill-rule="evenodd" clip-rule="evenodd" d="M107.446 708.91L103.718 709.094C103.691 709.041 103.691 709.015 103.665 708.963C104.873 708.805 106.08 708.648 107.288 708.438C107.341 708.595 107.393 708.753 107.446 708.91Z" fill="white"/>
<path fill-rule="evenodd" clip-rule="evenodd" d="M166.281 714.635L158.694 715.003L110.15 717.313L106.527 717.497C106.055 716.106 105.582 714.74 105.136 713.349L108.811 713.165L157.827 710.828L165.704 710.461C165.887 711.852 166.097 713.218 166.281 714.635Z" fill="white"/>
<path fill-rule="evenodd" clip-rule="evenodd" d="M167.437 723.139L160.375 723.481L112.881 725.738L109.363 725.896C108.89 724.504 108.418 723.139 107.945 721.748L111.542 721.59L159.561 719.306L166.886 718.965C167.096 720.33 167.253 721.748 167.437 723.139Z" fill="white"/>
<path fill-rule="evenodd" clip-rule="evenodd" d="M168.565 731.62L162.106 731.935L115.61 734.14L112.25 734.298C111.777 732.88 111.305 731.488 110.832 730.123L114.245 729.966L161.266 727.76L168.039 727.445C168.197 728.863 168.433 730.228 168.565 731.62Z" fill="white"/>
<path fill-rule="evenodd" clip-rule="evenodd" d="M169.642 740.075L163.813 740.337L118.315 742.437L115.191 742.595C114.666 741.23 114.193 739.838 113.721 738.473L116.976 738.316L162.947 736.136L169.117 735.848C169.327 737.213 169.51 738.631 169.642 740.075Z" fill="white"/>
<path fill-rule="evenodd" clip-rule="evenodd" d="M170.719 748.503L165.495 748.739L121.02 750.865L118.159 750.997C117.634 749.631 117.161 748.24 116.688 746.875L119.708 746.744L164.655 744.591L170.194 744.328C170.378 745.72 170.535 747.137 170.719 748.503Z" fill="white"/>
<path fill-rule="evenodd" clip-rule="evenodd" d="M171.69 756.983L167.2 757.193L123.75 759.267L121.125 759.398C120.652 758.033 120.127 756.642 119.654 755.276L122.411 755.145L166.36 753.045L171.217 752.809C171.401 754.226 171.532 755.618 171.69 756.983Z" fill="white"/>
<path fill-rule="evenodd" clip-rule="evenodd" d="M172.609 765.436L168.907 765.62L126.48 767.668L124.196 767.773C123.671 766.381 123.146 765.016 122.621 763.625L125.115 763.52L168.067 761.498L172.162 761.314C172.346 762.68 172.477 764.071 172.609 765.436Z" fill="white"/>
<path fill-rule="evenodd" clip-rule="evenodd" d="M173.501 773.917L170.613 774.048L129.184 776.017L127.189 776.122C126.69 774.73 126.165 773.365 125.692 771.974L127.819 771.869L169.773 769.9L173.081 769.742C173.212 771.134 173.343 772.551 173.501 773.917Z" fill="white"/>
<path fill-rule="evenodd" clip-rule="evenodd" d="M174.131 780.767L172.031 781.03L132.335 785.782L130.812 785.966C130.13 784.102 129.421 782.238 128.738 780.347L130.55 780.269L171.48 778.326L173.895 778.221C173.974 779.061 174.053 779.927 174.131 780.767Z" fill="white"/>
<path fill-rule="evenodd" clip-rule="evenodd" d="M163.21 693.579L156.017 693.92C158.301 692.87 160.559 691.767 162.764 690.586C162.921 691.584 163.053 692.581 163.21 693.579Z" fill="black"/>
<path fill-rule="evenodd" clip-rule="evenodd" d="M164.47 702.031L156.174 702.425L129.604 703.659C134.724 702.268 139.791 700.587 144.806 698.671L144.832 698.645L155.281 698.146L163.813 697.752L164.47 702.031Z" fill="black"/>
<path fill-rule="evenodd" clip-rule="evenodd" d="M165.703 710.46L157.827 710.828L108.811 713.164L105.135 713.348C104.637 711.93 104.164 710.46 103.718 709.095L107.446 708.911L156.987 706.575L165.073 706.207C165.283 707.625 165.493 709.042 165.703 710.46Z" fill="black"/>
<path fill-rule="evenodd" clip-rule="evenodd" d="M166.885 718.967L159.56 719.308L111.542 721.592L107.945 721.75C107.472 720.332 107 718.914 106.527 717.496L110.15 717.313L158.694 715.002L166.281 714.635C166.491 716.079 166.701 717.496 166.885 718.967Z" fill="black"/>
<path fill-rule="evenodd" clip-rule="evenodd" d="M168.041 727.446L161.267 727.761L114.247 729.967L110.834 730.124C110.308 728.68 109.836 727.263 109.363 725.897L112.881 725.74L160.375 723.482L167.437 723.141C167.647 724.558 167.857 726.029 168.041 727.446Z" fill="black"/>
<path fill-rule="evenodd" clip-rule="evenodd" d="M169.117 735.848L162.947 736.137L116.977 738.316L113.721 738.473C113.196 737.056 112.724 735.664 112.251 734.299L115.611 734.141L162.107 731.936L168.566 731.621C168.776 733.039 168.933 734.43 169.117 735.848Z" fill="black"/>
<path fill-rule="evenodd" clip-rule="evenodd" d="M170.193 744.327L164.654 744.59L119.707 746.743L116.688 746.874C116.163 745.456 115.664 744.039 115.191 742.595L118.316 742.437L163.814 740.337L169.642 740.074C169.852 741.492 170.01 742.91 170.193 744.327Z" fill="black"/>
<path fill-rule="evenodd" clip-rule="evenodd" d="M171.218 752.808L166.361 753.044L122.411 755.144L119.655 755.275C119.156 753.858 118.631 752.414 118.158 750.996L121.02 750.865L165.494 748.738L170.719 748.502C170.876 749.972 171.06 751.39 171.218 752.808Z" fill="black"/>
<path fill-rule="evenodd" clip-rule="evenodd" d="M172.162 761.314L168.066 761.498L125.115 763.52L122.62 763.625C122.148 762.207 121.649 760.789 121.124 759.398L123.749 759.267L167.2 757.192L171.689 756.982C171.873 758.426 172.004 759.87 172.162 761.314Z" fill="black"/>
<path fill-rule="evenodd" clip-rule="evenodd" d="M173.081 769.741L169.773 769.899L127.819 771.868L125.693 771.973C125.168 770.608 124.669 769.19 124.196 767.772L126.48 767.667L168.907 765.619L172.609 765.436C172.766 766.906 172.95 768.323 173.081 769.741Z" fill="black"/>
<path fill-rule="evenodd" clip-rule="evenodd" d="M173.894 778.22L171.479 778.325L130.549 780.268L128.737 780.346C128.239 778.929 127.714 777.537 127.188 776.119L129.184 776.014L170.613 774.045L173.5 773.914C173.632 775.332 173.763 776.802 173.894 778.22Z" fill="black"/>
<path fill-rule="evenodd" clip-rule="evenodd" d="M2.61321 748.16C1.61556 749.184 0.591651 750.129 -0.432254 751.075C-0.957333 751.573 -1.48242 752.072 -2.0075 752.571C-1.48242 752.072 -0.957333 751.547 -0.432254 751.048L-0.931076 750.418L-30.8606 712.796L-36.584 705.576V705.55C-35.7439 704.369 -34.9037 703.187 -34.0636 702.006L-28.314 709.252L2.03562 747.425L2.61321 748.16Z" fill="white"/>
<path fill-rule="evenodd" clip-rule="evenodd" d="M14.9533 736.318C13.9819 737.29 12.958 738.235 11.9341 739.259C10.8839 740.256 9.86001 741.254 8.8361 742.278C7.8122 743.223 6.8408 744.195 5.76438 745.166L5.05553 744.273L-25.6879 705.549L-31.4375 698.329C-30.5974 697.147 -29.7573 695.94 -28.8909 694.785L-23.1938 701.952L7.99598 741.202L8.8361 742.252C9.86001 741.254 10.8839 740.256 11.9078 739.233L10.9889 738.051L-20.6471 698.198L-26.2655 691.161V691.135C-25.3728 689.901 -24.5852 688.772 -23.7188 687.617L-18.2318 694.548L13.8769 734.953L14.9533 736.318Z" fill="white"/>
<path fill-rule="evenodd" clip-rule="evenodd" d="M27.1617 724.346C26.1903 725.37 25.1926 726.342 24.1687 727.366C23.1448 728.363 22.1209 729.361 21.097 730.385C20.0994 731.356 19.0755 732.301 18.0516 733.299L-15.7373 690.768C-15.4485 690.321 -15.1597 689.849 -14.8709 689.402C-12.9544 690.453 -11.0116 691.45 -9.0688 692.448L-9.04254 692.474H-9.01629L21.0708 730.359C22.0947 729.361 23.1448 728.363 24.1687 727.339L-0.431239 696.36C2.14165 697.489 4.76705 698.512 7.39245 699.458L25.4027 722.141L27.1617 724.346Z" fill="white"/>
<path fill-rule="evenodd" clip-rule="evenodd" d="M33.4622 718.127C32.412 719.203 31.3619 720.253 30.2854 721.33C29.2353 722.328 28.2114 723.325 27.1612 724.349C28.2114 723.325 29.2353 722.328 30.2592 721.304L28.2901 718.809L14.9531 702.033C17.421 702.847 19.9151 703.556 22.383 704.212H22.4093L31.2568 715.344L33.4622 718.127Z" fill="white"/>
<path fill-rule="evenodd" clip-rule="evenodd" d="M40.6822 710.96C39.5795 712.062 38.5294 713.165 37.3742 714.241C37.1117 714.504 36.8229 714.793 36.5603 715.055L34.0925 711.984L29.2617 705.893C32.0709 706.575 34.8801 707.127 37.7155 707.625C37.7943 707.652 37.8468 707.678 37.9255 707.652H37.9518C37.9781 707.678 37.978 707.704 38.0043 707.678L38.0306 707.704L40.6822 710.96Z" fill="white"/>
<path fill-rule="evenodd" clip-rule="evenodd" d="M37.9259 707.65C37.8471 707.676 37.7946 707.65 37.7158 707.624C37.7421 707.597 37.7683 707.571 37.7683 707.545C37.8208 707.571 37.8733 707.624 37.9259 707.65Z" fill="white"/>
<path fill-rule="evenodd" clip-rule="evenodd" d="M30.2598 721.304C29.2359 722.328 28.212 723.326 27.1618 724.35L25.4028 722.144L7.39258 699.461C9.88671 700.406 12.4333 701.246 14.9537 702.034L28.2907 718.81L30.2598 721.304Z" fill="black"/>
<path fill-rule="evenodd" clip-rule="evenodd" d="M24.1674 727.342C23.1435 728.366 22.0934 729.363 21.0695 730.361L-9.01758 692.477C-6.18215 693.842 -3.34672 695.154 -0.432526 696.362L24.1674 727.342Z" fill="black"/>
<path fill-rule="evenodd" clip-rule="evenodd" d="M18.0523 733.301L14.9543 736.32L-18.2307 694.55L-23.7178 687.619C-23.1402 686.805 -22.5363 686.017 -21.9588 685.256C-20.7773 686.017 -19.6222 686.726 -18.4145 687.409H-18.3882L-15.7366 690.769L18.0523 733.301Z" fill="black"/>
<path fill-rule="evenodd" clip-rule="evenodd" d="M11.9071 739.235C10.8832 740.259 9.85927 741.257 8.83537 742.254L7.99524 741.204L-23.1945 701.954L-28.8916 694.787C-28.0515 693.553 -27.1588 692.319 -26.2662 691.164L-20.6479 698.2L10.9882 738.054L11.9071 739.235Z" fill="black"/>
<path fill-rule="evenodd" clip-rule="evenodd" d="M5.76478 745.167C4.74088 746.165 3.71697 747.162 2.6143 748.16L2.03672 747.425L-28.3129 709.252L-34.0625 702.006V701.979C-33.1961 700.772 -32.3035 699.538 -31.4371 698.33L-25.6875 705.55L5.05592 744.275L5.76478 745.167Z" fill="black"/>
<path fill-rule="evenodd" clip-rule="evenodd" d="M36.5601 715.054C35.5362 716.078 34.5123 717.102 33.4621 718.126L31.2568 715.343L22.4092 704.211C24.352 704.736 26.2948 705.235 28.2376 705.681C28.5789 705.76 28.9202 705.839 29.2615 705.891L34.0922 711.982L36.5601 715.054Z" fill="black"/>
<path fill-rule="evenodd" clip-rule="evenodd" d="M43.3344 708.544L41.2604 710.382C41.2079 710.408 41.2079 710.408 41.1816 710.434C40.9978 710.618 40.8403 710.776 40.6828 710.959L38.0311 707.704L38.0049 707.678C39.7376 707.993 41.4967 708.282 43.2557 708.518H43.3082C43.3082 708.518 43.3082 708.544 43.3344 708.544Z" fill="black"/>
<path fill-rule="evenodd" clip-rule="evenodd" d="M-58.6895 650.307C-56.2216 654.351 -49.2643 662.778 -49.0542 662.936C-37.8963 675.091 -8.99066 692.314 -8.99066 692.314C2.9549 698.195 15.6356 702.605 28.29 705.546C35.6936 707.305 43.2548 708.565 50.8684 709.326C51.3672 709.405 51.8923 709.458 52.3912 709.51C59.8998 710.272 67.5134 710.56 75.1008 710.429C82.8983 710.56 90.6957 710.245 98.4144 709.431C101.539 709.116 104.663 708.723 107.761 708.224C112.513 707.541 117.238 706.622 121.885 705.546C137.375 701.949 152.944 696.147 167.121 688.087C167.121 688.034 190.041 672.912 199.177 662.936C199.335 662.778 199.466 662.594 199.65 662.437C207.106 654.141 212.173 645.713 214.483 637.916L155.836 505.824H6.07965C-4.15153 532.249 -46.358 620.858 -52.3097 635.08C-56.3266 644.637 -58.6632 650.229 -58.6895 650.307Z" fill="black"/>
<path fill-rule="evenodd" clip-rule="evenodd" d="M120.409 445.865C120.409 445.865 120.409 445.891 120.383 445.891V445.865H120.409Z" fill="#C79C89"/>
<path fill-rule="evenodd" clip-rule="evenodd" d="M309.832 386.925C304.135 391.362 303.82 392.648 297.86 396.744C293.791 399.527 289.406 402.388 284.838 404.777C277.644 408.479 270.608 424.52 265.673 431.215C256.746 443.24 247.794 455.421 237.975 466.737C223.036 484.038 203.136 503.939 178.588 497.034C168.927 494.33 160.368 488.948 152.334 482.857V482.831L150.838 476.083C149.184 468.732 147.503 461.434 145.797 454.319L157.034 438.881C158.819 440.299 160.735 441.822 162.757 443.423C171.395 450.249 184.679 458.283 195.811 452.192C199.25 450.302 201.849 447.23 204.37 444.211C221.513 423.654 241.151 407.77 254.488 384.431C259.818 375.032 278.458 361.143 278.8 361.432C285.232 367.077 265.069 380.44 276.673 383.354C281.504 384.562 289.354 379.259 292.95 376.423C301.247 369.833 309.175 366.184 310.672 368.258C311.538 369.466 297.519 382.409 294.342 385.927C298.648 385.245 315.319 375.032 319.388 375.924C322.46 376.554 310.803 386.19 309.832 386.925Z" fill="#C79C89"/>
<path fill-rule="evenodd" clip-rule="evenodd" d="M90.9524 406.326H90.9262L90.7949 405.328C90.8474 405.643 90.8999 405.958 90.9524 406.326Z" fill="#96DAD5"/>
<path fill-rule="evenodd" clip-rule="evenodd" d="M120.409 445.865C120.409 445.865 120.409 445.891 120.383 445.891V445.865H120.409Z" fill="#96DAD5"/>
<path fill-rule="evenodd" clip-rule="evenodd" d="M123.595 388.739C122.02 387.794 120.655 386.954 119.552 386.323C117.845 385.3 116.795 384.696 116.612 384.591V403.756C116.612 404.728 116.375 405.568 115.929 406.25C115.693 406.592 115.43 406.907 115.115 407.195C114.695 407.563 114.196 407.878 113.619 408.141C113.356 408.272 113.094 408.377 112.831 408.456C112.28 408.666 111.676 408.823 111.019 408.928C110.783 408.981 110.521 409.007 110.258 409.033C109.313 409.191 108.263 409.243 107.16 409.243C106.635 409.243 106.084 409.217 105.532 409.191C105.112 409.164 104.666 409.138 104.246 409.086C103.8 409.059 103.353 409.007 102.881 408.954C102.382 408.902 101.857 408.849 101.332 408.744C100.019 408.561 98.6801 408.298 97.2886 408.009C96.6323 407.878 95.9759 407.72 95.3196 407.537C95.1358 407.51 94.952 407.458 94.7682 407.405C93.508 407.09 92.2216 406.723 90.9614 406.329H90.9351C90.6989 406.25 90.4626 406.198 90.2526 406.119C88.0735 405.436 85.9206 404.649 83.8203 403.782C83.0064 403.441 82.2188 403.1 81.4312 402.758C80.8011 402.47 80.1973 402.181 79.5934 401.892C78.9108 401.551 78.2545 401.209 77.5981 400.868C76.8893 400.501 76.2067 400.107 75.5503 399.713C75.4453 399.687 75.3665 399.634 75.2878 399.582V399.555C74.999 399.424 74.7364 399.24 74.4739 399.083C74.1851 398.925 73.9226 398.768 73.6863 398.584C73.5813 398.532 73.4763 398.479 73.3975 398.4C73.0037 398.138 72.6099 397.875 72.2423 397.613C71.1659 396.878 70.1945 396.116 69.3281 395.329L69.6169 387.872L69.9057 380.469C68.4092 380.259 66.939 380.18 65.495 380.233C65.2325 380.206 64.97 380.233 64.7074 380.259C64.7074 380.259 64.6287 380.259 64.4974 380.285C64.3924 380.285 64.2349 380.311 64.0773 380.311C63.9461 380.338 63.7885 380.338 63.6573 380.338H63.526C62.3183 380.443 61.1631 380.626 60.008 380.915C58.1964 381.309 56.4637 381.913 54.7834 382.648C59.1153 399.897 67.2541 432.924 67.2541 432.951C67.5691 442.376 53.497 502.629 31.3649 506.304C28.8445 506.75 26.2453 506.961 23.5674 506.961H17.6603C15.3499 510.216 13.0133 513.498 10.7292 516.701L10.703 516.727C2.74802 530.274 -4.05176 542.088 -5.99455 545.501C-6.07331 545.659 -6.12582 545.79 -6.20458 545.921C-6.70341 546.814 -7.20223 547.707 -7.6748 548.626C-6.86093 548.941 -6.04706 549.229 -5.20693 549.544C-2.21398 550.647 0.831484 551.671 3.87695 552.59C7.13244 553.614 10.4404 554.559 13.7484 555.399C16.085 556.003 18.4479 556.581 20.8108 557.079C22.7011 557.499 24.6176 557.893 26.5341 558.261C26.8754 558.34 27.2167 558.392 27.5843 558.471C28.2931 558.602 29.002 558.733 29.7109 558.865C30.656 559.048 31.6274 559.232 32.5725 559.39H32.6513C49.9264 562.435 67.5428 563.643 84.9492 563.932H86.1569C89.1499 563.879 92.1691 563.8 95.1883 563.695C98.8639 563.564 102.539 563.38 106.215 563.144C114.249 562.645 122.282 561.858 130.264 560.702C135.042 560.02 139.82 559.232 144.572 558.261C146.804 557.841 149.035 557.368 151.241 556.869C152.973 556.476 154.706 556.082 156.439 555.635C159.537 554.874 162.609 554.034 165.654 553.115C165.917 553.036 166.153 552.957 166.415 552.879C166.1 551.172 165.759 549.439 165.418 547.707C165.129 546.105 164.814 544.477 164.499 542.823C163.632 538.255 162.714 533.556 161.795 528.751C160.351 521.348 158.828 513.76 157.253 506.068C156.623 503.022 155.993 499.977 155.362 496.932C155.31 496.643 155.231 496.328 155.179 496.039C154.233 491.628 153.315 487.27 152.343 482.859V482.833L150.847 476.086C149.193 468.735 147.512 461.436 145.806 454.321L157.043 438.884L159.511 435.497L168.174 423.63L170.432 420.48C172.007 418.301 138.534 397.718 123.595 388.739Z" fill="#96DAD5"/>
<path fill-rule="evenodd" clip-rule="evenodd" d="M54.7749 382.645C46.2161 386.294 39.075 393.671 33.0104 400.917C19.227 417.457 8.96174 435.441 -3.53516 452.848L-0.988522 454.633L-0.17465 455.237C-0.0171262 454.869 0.140398 454.528 0.297922 454.187L14.7639 462.745L16.8642 464.006L24.8716 468.705L27.4445 470.228L35.9508 475.269C29.3348 485.376 19.3321 502.021 10.7208 516.697C13.0049 513.494 15.3415 510.213 17.6518 506.957H23.5589C26.2369 506.957 28.836 506.747 31.3564 506.301C53.4885 502.625 67.5606 442.372 67.2456 432.947C67.2456 432.921 59.1068 399.893 54.7749 382.645Z" fill="#96DAD5"/>
<path fill-rule="evenodd" clip-rule="evenodd" d="M36.1082 478.421C36.1082 478.447 36.1082 478.473 36.082 478.473C36.0557 478.473 36.0557 478.447 36.0295 478.447C36.0032 478.421 36.0032 478.421 36.0295 478.395H36.0557C36.082 478.395 36.082 478.421 36.1082 478.421Z" fill="#96DAD5"/>
<path fill-rule="evenodd" clip-rule="evenodd" d="M57.8991 442.277L37.1584 475.121C37.0534 475.278 36.8696 475.305 36.7121 475.226C35.5044 474.491 34.2967 473.756 33.1153 472.994C33.0628 472.968 33.0103 472.916 32.9578 472.889C31.7501 472.128 30.5424 471.367 29.3347 470.605C27.497 469.45 24.294 467.35 22.8238 466.378C22.3512 466.037 22.0361 465.853 22.0361 465.827H22.0624C24.609 467.245 27.1031 468.715 29.5973 470.185C30.8575 470.92 32.1177 471.682 33.3779 472.417C34.533 473.126 35.6619 473.808 36.7909 474.517L36.8434 474.412L57.8466 442.251C57.8466 442.225 57.8728 442.225 57.8728 442.225C57.8991 442.251 57.8991 442.251 57.8991 442.277Z" fill="#2A8C79"/>
<path fill-rule="evenodd" clip-rule="evenodd" d="M35.9589 475.271C29.3429 485.379 19.3402 502.024 10.7289 516.7L10.7026 516.726C2.74766 530.273 -4.05213 542.088 -5.99493 545.501C-6.07369 545.658 -6.1262 545.79 -6.20496 545.921C-6.70378 546.813 -7.20261 547.706 -7.67518 548.625C-12.926 558.286 -17.5729 568.316 -22.8762 577.977C-25.0291 581.889 -26.8668 585.171 -27.9433 586.93C-28.022 587.061 -28.1533 587.245 -28.2846 587.455C-28.2846 587.455 -28.2846 587.481 -28.3108 587.481C-30.2799 590.526 -32.984 593.572 -35.8194 596.066C-35.872 596.092 -35.8982 596.118 -35.9245 596.171C-36.3183 596.486 -36.7121 596.827 -37.1059 597.142C-39.1537 598.823 -43.0655 602.813 -45.7172 602.078C-46.2423 601.921 -46.7148 601.606 -47.1087 601.054C-48.6051 598.98 -43.9582 593.729 -42.8555 592.233C-40.7027 589.214 -36.5021 585.276 -35.7407 581.626C-38.7336 582.991 -41.4641 585.722 -44.1682 587.56C-48.3951 590.474 -52.6482 593.467 -57.4265 595.488C-59.4218 596.355 -61.5484 594.307 -60.4719 592.443C-59.8681 591.419 -59.028 590.29 -58.0303 589.135C-54.7486 585.144 -49.8916 580.812 -47.1612 577.636C-52.8058 580.34 -62.861 591.839 -69.0307 588.216C-71.5774 586.72 -58.4504 575.929 -51.6243 568.736C-59.1592 571.807 -74.9379 578.134 -75.988 574.616C-76.1981 571.413 -65.9328 564.377 -58.0828 561.096C-55.4049 559.94 -50.4954 553.377 -48.9464 549.518C-48.0276 547.234 -46.4523 545.448 -43.9844 543.663C-43.3543 542.167 -42.7768 540.618 -42.0941 539.121C-41.5428 537.887 -40.9915 536.627 -40.3876 535.393C-38.1561 530.536 -35.7407 525.837 -33.1678 521.163C-24.8978 506.172 -15.7877 491.549 -8.54156 475.691C-5.75864 469.679 -3.29076 462.118 -0.16654 455.24C-0.00901564 454.872 0.148509 454.531 0.306033 454.189L14.772 462.748L16.8723 464.008L24.8798 468.708L27.4527 470.231L35.9589 475.271Z" fill="#C79C89"/>
<path fill-rule="evenodd" clip-rule="evenodd" d="M120.409 445.865C120.409 445.865 120.409 445.891 120.383 445.891V445.865H120.409Z" fill="#C79C89"/>
<path fill-rule="evenodd" clip-rule="evenodd" d="M309.832 386.925C304.135 391.362 303.82 392.648 297.86 396.744C293.791 399.527 289.406 402.388 284.838 404.777C277.644 408.479 270.608 424.52 265.673 431.215C256.746 443.24 247.794 455.421 237.975 466.737C223.036 484.038 203.136 503.939 178.588 497.034C168.927 494.33 160.368 488.948 152.334 482.857V482.831L150.838 476.083C149.184 468.732 147.503 461.434 145.797 454.319L157.034 438.881C158.819 440.299 160.735 441.822 162.757 443.423C171.395 450.249 184.679 458.283 195.811 452.192C199.25 450.302 201.849 447.23 204.37 444.211C221.513 423.654 241.151 407.77 254.488 384.431C259.818 375.032 278.458 361.143 278.8 361.432C285.232 367.077 265.069 380.44 276.673 383.354C281.504 384.562 289.354 379.259 292.95 376.423C301.247 369.833 309.175 366.184 310.672 368.258C311.538 369.466 297.519 382.409 294.342 385.927C298.648 385.245 315.319 375.032 319.388 375.924C322.46 376.554 310.803 386.19 309.832 386.925Z" fill="#C79C89"/>
<path fill-rule="evenodd" clip-rule="evenodd" d="M90.9524 406.326H90.9262L90.7949 405.328C90.8474 405.643 90.8999 405.958 90.9524 406.326Z" fill="#96DAD5"/>
<path fill-rule="evenodd" clip-rule="evenodd" d="M120.409 445.865C120.409 445.865 120.409 445.891 120.383 445.891V445.865H120.409Z" fill="#96DAD5"/>
<path fill-rule="evenodd" clip-rule="evenodd" d="M119.552 386.323C117.845 385.3 116.795 384.696 116.612 384.591L69.9057 380.469C68.4092 380.259 66.939 380.18 65.495 380.233C65.2325 380.206 64.97 380.233 64.7074 380.259C64.7074 380.259 64.6287 380.259 64.4974 380.285C64.3924 380.285 64.2349 380.311 64.0773 380.311C63.9461 380.338 63.7885 380.338 63.6573 380.338H63.526C62.3183 380.443 61.1631 380.626 60.008 380.915C58.1964 381.309 56.4637 381.913 54.7834 382.648C59.1153 399.897 67.2541 432.924 67.2541 432.951C67.5691 442.376 53.497 502.629 31.3649 506.304C28.8445 506.75 26.2453 506.961 23.5674 506.961H17.6603C15.3499 510.216 13.0133 513.498 10.7292 516.701L10.703 516.727C2.74802 530.274 -4.05176 542.088 -5.99455 545.501C-6.07331 545.659 -6.12582 545.79 -6.20458 545.921C-6.70341 546.814 -7.20223 547.707 -7.6748 548.626C-6.86093 548.941 -6.04706 549.229 -5.20693 549.544C-2.21398 550.647 0.831484 551.671 3.87695 552.59C7.13244 553.614 10.4404 554.559 13.7484 555.399C16.085 556.003 18.4479 556.581 20.8108 557.079C22.7011 557.499 24.6176 557.893 26.5341 558.261C26.8754 558.34 27.2167 558.392 27.5843 558.471C28.2931 558.602 29.002 558.733 29.7109 558.865C30.656 559.048 31.6274 559.232 32.5725 559.39H32.6513C49.9264 562.435 67.5428 563.643 84.9492 563.932H86.1569C89.1499 563.879 92.1691 563.8 95.1883 563.695C98.8639 563.564 102.539 563.38 106.215 563.144C114.249 562.645 122.282 561.858 130.264 560.702C135.042 560.02 139.82 559.232 144.572 558.261C146.804 557.841 149.035 557.368 151.241 556.869C152.973 556.476 154.706 556.082 156.439 555.635C159.537 554.874 162.609 554.034 165.654 553.115C165.917 553.036 166.153 552.957 166.415 552.879C166.1 551.172 165.759 549.439 165.418 547.707C165.129 546.105 164.814 544.477 164.499 542.823C163.632 538.255 162.714 533.556 161.795 528.751C160.351 521.348 158.828 513.76 157.253 506.068C156.623 503.022 155.993 499.977 155.362 496.932C155.31 496.643 155.231 496.328 155.179 496.039C154.233 491.628 153.315 487.27 152.343 482.859V482.833L150.847 476.086C149.193 468.735 147.512 461.436 145.806 454.321L157.043 438.884L159.511 435.497L168.174 423.63L170.432 420.48C172.007 418.301 138.534 397.718 123.595 388.739C122.02 387.794 120.655 386.954 119.552 386.323Z" fill="#F2E14A"/>
<path fill-rule="evenodd" clip-rule="evenodd" d="M54.7749 382.645C46.2161 386.294 39.075 393.671 33.0104 400.917C19.227 417.457 8.96174 435.441 -3.53516 452.848L-0.988522 454.633L-0.17465 455.237C-0.0171262 454.869 0.140398 454.528 0.297922 454.187L14.7639 462.745L16.8642 464.006L24.8716 468.705L27.4445 470.228L35.9508 475.269C29.3348 485.376 19.3321 502.021 10.7208 516.697C13.0049 513.494 15.3415 510.213 17.6518 506.957H23.5589C26.2369 506.957 28.836 506.747 31.3564 506.301C53.4885 502.625 67.5606 442.372 67.2456 432.947C67.2456 432.921 59.1068 399.893 54.7749 382.645Z" fill="#F2E14A"/>
<path fill-rule="evenodd" clip-rule="evenodd" d="M36.1082 478.421C36.1082 478.447 36.1082 478.473 36.082 478.473C36.0557 478.473 36.0557 478.447 36.0295 478.447C36.0032 478.421 36.0032 478.421 36.0295 478.395H36.0557C36.082 478.395 36.082 478.421 36.1082 478.421Z" fill="#96DAD5"/>
<path fill-rule="evenodd" clip-rule="evenodd" d="M57.8991 442.277L37.1584 475.121C37.0534 475.278 36.8696 475.305 36.7121 475.226C35.5044 474.491 34.2967 473.756 33.1153 472.994C33.0628 472.968 33.0103 472.916 32.9578 472.889C31.7501 472.128 30.5424 471.367 29.3347 470.605C27.497 469.45 24.294 467.35 22.8238 466.378C22.3512 466.037 22.0361 465.853 22.0361 465.827H22.0624C24.609 467.245 27.1031 468.715 29.5973 470.185C30.8575 470.92 32.1177 471.682 33.3779 472.417C34.533 473.126 35.6619 473.808 36.7909 474.517L36.8434 474.412L57.8466 442.251C57.8466 442.225 57.8728 442.225 57.8728 442.225C57.8991 442.251 57.8991 442.251 57.8991 442.277Z" fill="#2A8C79"/>
<path fill-rule="evenodd" clip-rule="evenodd" d="M35.9589 475.271C29.3429 485.379 19.3402 502.024 10.7289 516.7L10.7026 516.726C2.74766 530.273 -4.05213 542.088 -5.99493 545.501C-6.07369 545.658 -6.1262 545.79 -6.20496 545.921C-6.70378 546.813 -7.20261 547.706 -7.67518 548.625C-12.926 558.286 -17.5729 568.316 -22.8762 577.977C-25.0291 581.889 -26.8668 585.171 -27.9433 586.93C-28.022 587.061 -28.1533 587.245 -28.2846 587.455C-28.2846 587.455 -28.2846 587.481 -28.3108 587.481C-30.2799 590.526 -32.984 593.572 -35.8194 596.066C-35.872 596.092 -35.8982 596.118 -35.9245 596.171C-36.3183 596.486 -36.7121 596.827 -37.1059 597.142C-39.1537 598.823 -43.0655 602.813 -45.7172 602.078C-46.2423 601.921 -46.7148 601.606 -47.1087 601.054C-48.6051 598.98 -43.9582 593.729 -42.8555 592.233C-40.7027 589.214 -36.5021 585.276 -35.7407 581.626C-38.7336 582.991 -41.4641 585.722 -44.1682 587.56C-48.3951 590.474 -52.6482 593.467 -57.4265 595.488C-59.4218 596.355 -61.5484 594.307 -60.4719 592.443C-59.8681 591.419 -59.028 590.29 -58.0303 589.135C-54.7486 585.144 -49.8916 580.812 -47.1612 577.636C-52.8058 580.34 -62.861 591.839 -69.0307 588.216C-71.5774 586.72 -58.4504 575.929 -51.6243 568.736C-59.1592 571.807 -74.9379 578.134 -75.988 574.616C-76.1981 571.413 -65.9328 564.377 -58.0828 561.096C-55.4049 559.94 -50.4954 553.377 -48.9464 549.518C-48.0276 547.234 -46.4523 545.448 -43.9844 543.663C-43.3543 542.167 -42.7768 540.618 -42.0941 539.121C-41.5428 537.887 -40.9915 536.627 -40.3876 535.393C-38.1561 530.536 -35.7407 525.837 -33.1678 521.163C-24.8978 506.172 -15.7877 491.549 -8.54156 475.691C-5.75864 469.679 -3.29076 462.118 -0.16654 455.24C-0.00901564 454.872 0.148509 454.531 0.306033 454.189L14.772 462.748L16.8723 464.008L24.8798 468.708L27.4527 470.231L35.9589 475.271Z" fill="#C79C89"/>
<path fill-rule="evenodd" clip-rule="evenodd" d="M157.254 506.067C156.597 503.022 152.444 483.318 152.444 483.318L150.937 476.492C149.204 469.141 147.582 461.433 145.796 454.318C145.061 451.404 142.604 448.545 141.869 445.736C141.501 444.318 141.107 442.9 140.766 441.535C139.27 435.969 137.799 430.561 136.277 425.415C135.909 424.129 135.542 422.868 135.174 421.608C135.043 421.267 134.964 420.926 134.859 420.584C134.413 419.114 133.993 417.644 133.546 416.2C132.444 412.682 131.367 409.321 130.265 406.118C128.033 399.476 125.801 393.622 123.596 388.738C122.021 387.793 120.656 386.953 119.553 386.323L125.828 407.667C125.828 407.667 127.534 413.47 127.534 413.496L131.367 426.544C132.181 429.222 132.155 431.926 131.446 434.446C131.446 445.342 114.801 447.075 106.452 446.943C98.576 446.812 84.6087 445.359 81.4058 439.189C75.7086 428.294 58.9843 381.3 57.1727 381.694C55.3612 382.088 56.4647 381.912 54.7844 382.647C59.1163 399.896 67.255 432.924 67.255 432.95C67.5701 442.375 53.4979 502.628 31.3658 506.304C28.8455 506.75 26.2463 506.96 23.5684 506.96H17.6613C15.3509 510.215 13.0143 513.497 10.7302 516.7L10.704 516.726C2.749 530.274 -4.05078 542.088 -5.99357 545.501C-6.07233 545.658 -6.12484 545.79 -6.20361 545.921C-6.70243 546.814 -7.20126 547.706 -7.67383 548.625C-6.85995 548.94 -6.04608 549.229 -5.20595 549.544C-2.213 550.647 0.832461 551.67 3.87792 552.589C7.13342 553.613 10.4414 554.558 13.7494 555.399C16.086 556.002 18.4489 556.58 20.8117 557.079C22.702 557.499 24.6186 557.893 26.5351 558.26C26.8764 558.339 27.2177 558.392 27.5853 558.47C28.2941 558.602 29.003 558.733 29.7118 558.864C30.657 559.048 31.6284 559.232 32.5735 559.389H32.6523C49.9274 562.435 67.5438 563.642 84.9502 563.931H86.1579C89.1509 563.879 92.1701 563.8 95.1893 563.695C98.8648 563.564 102.54 563.38 106.216 563.143C114.25 562.645 122.283 561.857 130.265 560.702C135.043 560.019 139.821 559.232 144.573 558.26C146.805 557.84 149.036 557.368 151.242 556.869C152.974 556.475 154.707 556.081 156.44 555.635C159.538 554.873 162.609 554.033 165.655 553.114C165.629 553.036 166.443 552.957 166.418 552.878C166.075 551.172 158.908 513.76 157.254 506.067Z" fill="#9B51E0"/>
<path fill-rule="evenodd" clip-rule="evenodd" d="M100.873 467.348C102.574 486.131 113.346 500.505 124.935 499.454C136.521 498.407 144.533 482.329 142.835 463.547L100.873 467.348Z" fill="black"/>
<path fill-rule="evenodd" clip-rule="evenodd" d="M111.842 266.181C107.773 276.893 93.7271 279.151 83.6456 277.733C80.2588 277.234 76.9771 276.184 73.9316 274.661C74.6142 274.872 75.2968 275.108 76.0057 275.239C78.5523 275.895 81.1252 276.21 83.6719 276.263C96.5888 276.473 108.456 269.306 111.921 258.41C112.105 257.78 112.394 257.176 112.788 256.625C113.339 259.802 113.024 263.136 111.842 266.181Z" fill="#C79C89"/>
<path fill-rule="evenodd" clip-rule="evenodd" d="M73.458 353.266C73.458 353.266 75.007 354.447 77.5274 356.337C77.5536 356.364 77.5799 356.364 77.6061 356.39C77.6061 356.39 77.6324 356.39 77.6324 356.416C77.6586 356.416 77.6586 356.442 77.6849 356.442C89.1316 363.085 102.206 367.574 116.698 370.068V368.966L73.458 353.266Z" fill="#C79C89"/>
<path fill-rule="evenodd" clip-rule="evenodd" d="M225.442 304.802C224.13 304.881 222.817 304.776 221.557 304.461C221.216 304.382 218.091 303.489 219.194 302.859C219.43 302.728 219.719 302.754 219.955 302.807C220.218 302.833 220.454 302.859 220.691 302.912C222.213 303.201 223.631 303.778 225.285 303.673C225.994 303.621 226.125 304.75 225.442 304.802ZM128.985 332.605C116.121 332.605 105.672 322.156 105.672 309.292C105.672 296.427 116.121 286.004 128.985 286.004C141.85 286.004 152.273 296.427 152.273 309.292C152.273 322.156 141.85 332.605 128.985 332.605ZM44.9464 289.05L44.6313 289.706L44.0537 289.339C42.3472 288.262 40.2207 287.711 38.1203 287.685C36.0463 287.632 33.8409 288.131 32.3707 289.575C30.848 290.993 30.743 293.408 31.3206 295.377C32.0032 297.372 33.7359 299 35.81 299.499L35.7575 299.735C33.5784 299.289 31.6881 297.661 30.8742 295.535C30.1654 293.46 30.1391 290.835 31.8719 289.076C33.4996 287.37 35.8888 286.766 38.1203 286.713C40.1419 286.687 42.1635 287.081 44.0275 288C45.0251 285.085 44.7101 281.882 42.9511 279.441C41.1133 276.815 38.0678 275.161 34.9961 274.006C31.8982 272.904 28.5639 272.273 25.2559 272.352C22.0004 272.379 18.7712 273.271 15.9882 274.768C10.2911 277.918 7.74449 284.613 7.8495 291.124C7.92826 297.74 10.2911 304.33 14.2817 309.843L14.098 310C11.6563 307.559 9.68728 304.618 8.26957 301.415C6.79934 298.239 5.88045 294.773 5.72293 291.203C5.51289 287.658 5.93297 283.983 7.4557 280.649C8.89967 277.288 11.5251 274.348 14.8068 272.641C18.0886 271.013 21.6854 270.199 25.2821 270.278C28.8264 270.357 32.3182 271.092 35.6262 272.352C38.8817 273.691 42.111 275.529 44.185 278.601C46.2853 281.672 46.4166 285.821 44.9464 289.05ZM239.278 279.388C237.414 277.656 235.078 276.5 232.636 275.897C232.715 273.849 232.82 271.801 232.82 269.727C232.82 259.593 231.638 249.774 229.407 240.427C226.493 239.062 223.841 236.778 221.898 233.733C220.638 231.737 219.772 229.585 219.325 227.458C218.196 228.429 216.989 229.322 215.729 230.136C198.611 241.084 174.405 233.811 161.672 213.911C160.753 212.493 159.939 211.023 159.177 209.553C158.757 209.684 158.364 209.842 157.944 209.999C152.903 212.021 150.54 216.641 147.626 220.894C144.922 224.833 141.325 227.668 136.993 229.69C138.647 235.728 139.067 242.344 136.914 248.304C134.945 253.843 130.797 257.939 125.179 258.543C122.186 258.858 119.193 258.333 116.226 257.519C117.906 259.225 119.429 261.116 120.637 263.19C120.742 263.4 120.663 263.741 120.584 263.925C120.479 264.24 120.243 264.555 120.007 264.765C119.665 265.054 119.035 265.421 118.72 264.922C117.67 263.111 116.383 261.483 114.966 259.96C114.519 266.156 111.264 272.195 105.934 275.608C100.684 278.995 93.9363 280.307 87.7666 280.307C81.5969 280.307 75.4798 278.863 70.1502 275.66C66.6322 273.534 63.5605 270.672 61.2501 267.311C60.5412 267.285 59.6486 267.311 59.2023 267.338C58.4934 270.016 57.7846 272.72 57.0495 275.424C56.8919 276.028 56.4981 276.632 55.8943 276.868C55.4217 277.052 54.9492 276.763 55.0804 276.212C55.868 273.271 56.6557 270.331 57.4433 267.364C57.2595 267.39 57.0757 267.39 56.8657 267.39C55.7105 269.018 54.5291 270.672 53.3477 272.3C53.1114 272.641 52.4025 273.219 51.9562 272.851C51.5099 272.484 51.9825 271.722 52.2187 271.381C52.8226 270.541 53.4264 269.753 54.004 268.913C53.7677 268.992 53.5314 269.071 53.2689 269.149C51.4311 269.648 49.8821 269.438 48.4644 268.86C47.0467 268.257 45.7603 267.285 44.4213 266.183C41.5334 263.846 38.5929 261.562 35.6 259.357C33.6309 257.886 31.6356 256.469 29.6141 255.051C28.3014 254.132 26.3586 252.005 24.7571 251.717C24.5995 251.69 24.442 251.69 24.2845 251.69H24.232H24.2057C22.0004 252.163 19.8476 252.819 17.721 253.659C17.6948 253.686 17.6422 253.686 17.616 253.712H17.5897C17.5372 253.738 17.511 253.764 17.4585 253.791C16.6183 254.158 15.8832 254.552 15.2794 254.815C12.3127 256.18 9.50351 257.913 6.93062 259.96C5.77544 260.906 4.67277 261.877 3.64886 262.901C2.70372 263.846 1.83734 264.844 1.02347 265.841C0.970959 265.894 0.918452 265.973 0.865944 266.051C0.787182 266.13 0.734674 266.235 0.655913 266.314C-0.026691 267.206 -0.683039 268.099 -1.26063 269.018C-1.49691 269.386 -1.75945 269.753 -1.99574 270.147C-2.23203 270.514 -2.44206 270.882 -2.65209 271.276C-2.80961 271.538 -2.94088 271.801 -3.07215 272.09C-3.15092 272.247 -3.22968 272.405 -3.30844 272.536L-3.33469 272.562C-3.33469 272.615 -3.36094 272.667 -3.3872 272.694C-3.57098 273.061 -3.75476 273.429 -3.91228 273.822C-4.0698 274.138 -4.20107 274.453 -4.30609 274.768C-4.3586 274.925 -4.43736 275.056 -4.48987 275.214C-4.67364 275.687 -4.85742 276.159 -5.01495 276.632C-5.06745 276.684 -5.06746 276.737 -5.06746 276.789C-5.14622 276.947 -5.19873 277.13 -5.25123 277.288C-5.27749 277.341 -5.27749 277.367 -5.30374 277.419C-5.33 277.498 -5.35625 277.577 -5.3825 277.656C-5.3825 277.682 -5.40876 277.734 -5.40876 277.761C-5.40876 277.813 -5.43501 277.839 -5.43501 277.892C-5.54003 278.154 -5.61879 278.417 -5.6713 278.679C-5.85507 279.231 -5.98634 279.782 -6.11761 280.333C-6.30139 281.042 -6.43266 281.777 -6.56393 282.486C-6.66895 283.116 -6.74771 283.72 -6.82647 284.35C-7.92914 294.379 -4.75241 304.802 2.94001 313.02C13.5991 324.388 29.9554 328.378 44.6313 324.624C44.9726 325.149 45.2877 325.674 45.6552 326.173C45.6815 326.199 45.7078 326.225 45.7078 326.252C45.734 326.278 45.7602 326.304 45.7602 326.33C45.7865 326.357 45.8128 326.383 45.8128 326.409C45.839 326.435 45.8653 326.462 45.8653 326.488C45.8915 326.514 45.9178 326.54 45.9178 326.567C45.944 326.593 45.944 326.593 45.9703 326.619C52.4288 334.837 57.0495 339.3 63.2192 345.102C65.3457 347.071 67.6036 349.145 70.229 351.639L70.2815 351.692C70.5703 351.902 70.8853 352.112 71.2004 352.322C73.2482 353.74 75.3485 355.079 77.5276 356.339C75.0072 354.448 73.4582 353.267 73.4582 353.267L116.699 368.967V370.07C125.73 371.619 135.313 372.38 145.368 372.38C164.008 372.38 186.692 368.626 201.656 352.899V352.873C206.75 347.544 211.397 341.426 215.466 334.627C215.571 334.469 215.676 334.312 215.755 334.154C215.807 334.049 215.86 333.97 215.912 333.892C216.674 332.579 217.409 331.266 218.118 329.901C218.38 329.455 218.616 328.982 218.853 328.51C219.588 327.118 220.297 325.7 220.979 324.256L222.476 320.87C224.734 315.724 226.624 310.316 228.173 304.697C228.278 304.697 228.304 304.75 228.383 304.75C236.233 304.855 242.639 297.819 243.243 290.074C243.61 286.109 242.166 282.066 239.278 279.388Z" fill="#C79C89"/>
<path fill-rule="evenodd" clip-rule="evenodd" d="M222.502 320.869C222.003 321.998 221.505 323.127 220.979 324.256L222.476 320.869H222.502Z" fill="#672448"/>
<path fill-rule="evenodd" clip-rule="evenodd" d="M17.5904 253.711C17.5378 253.737 17.5116 253.763 17.4591 253.79C16.619 254.157 15.8838 254.551 15.28 254.814C12.3133 256.179 9.50413 257.912 6.93124 259.959C5.77606 260.905 4.67339 261.876 3.64949 262.9C2.70434 263.845 1.83796 264.843 1.02409 265.84C0.971582 265.893 0.919075 265.972 0.866567 266.05C0.787805 266.129 0.735297 266.234 0.656536 266.313C-0.0260679 267.205 -0.682421 268.098 -1.26001 269.017C-1.49629 269.385 -1.75883 269.752 -1.99512 270.146C0.236471 266.339 3.25568 262.821 7.00999 259.828C10.2655 257.203 13.8623 255.181 17.5904 253.711Z" fill="#672448"/>
<path fill-rule="evenodd" clip-rule="evenodd" d="M111.842 266.181C107.773 276.893 93.7268 279.151 83.6452 277.733C80.2585 277.234 76.9767 276.184 73.9313 274.661C74.6139 274.871 75.2965 275.108 76.0053 275.239C78.552 275.895 81.1249 276.21 83.6715 276.263C96.5885 276.473 108.455 269.305 111.921 258.41C112.105 257.78 112.393 257.176 112.787 256.625C113.338 259.802 113.023 263.136 111.842 266.181ZM28.4331 342.58C28.8007 342.738 29.1945 342.869 29.562 343.027C22.1584 345.705 14.361 347.28 6.45854 346.939C-7.9549 346.308 -21.6332 339.167 -28.5643 326.25C-29.5094 324.491 -30.297 322.654 -30.9796 320.79C-29.1156 323.993 -26.7265 327.064 -23.8386 329.9C-10.1602 343.315 10.8167 347.857 28.4331 342.58ZM36.4668 345.6C38.4096 348.514 40.6937 351.297 43.3716 353.922C45.9183 356.442 53.0331 355.655 63.1671 352.399V351.139C63.2984 351.165 63.4559 351.165 63.6135 351.165C63.5084 354.893 58.8615 355.839 55.7898 356.154C52.403 356.469 48.9375 356.259 45.6557 355.209C40.7462 353.66 36.4931 349.931 34.9441 345.074C35.4429 345.232 35.9418 345.442 36.4668 345.6ZM-71.0695 226.091C-69.7043 236.593 -62.5632 246.491 -51.6415 254.735C-52.5342 255.417 -53.3743 256.126 -54.1882 256.835C-58.5726 255.391 -62.7732 253.448 -66.3963 250.508C-79.3132 240.085 -78.9194 220.289 -71.017 206.979C-65.0573 196.871 -54.687 190.412 -43.3978 188.653C-62.1431 197.107 -73.091 210.549 -71.0695 226.091ZM248.73 199.339C259.914 182.195 255.163 156.991 235.393 137.563C220.481 122.913 200.528 115.037 182.413 115.037C183.83 109.182 183.725 105.166 181.73 104.168C179.63 103.118 175.718 105.796 171.071 110.994C171.281 108.421 172.095 105.927 173.565 103.774C173.775 103.433 173.985 102.645 173.434 102.488C172.856 102.33 172.305 103.039 172.016 103.433C170.047 106.373 169.049 109.865 169.049 113.357C168.892 113.567 168.734 113.724 168.577 113.934C168.498 113.829 168.419 113.724 168.341 113.593C167.816 110.023 167.29 106.452 166.765 102.882C166.582 101.621 164.639 103.275 164.77 104.194C165.059 106.085 165.321 108.001 165.61 109.918C157.786 100.099 146.944 92.5112 134.132 89.0457C115.544 84.0574 97.3236 88.8094 84.6691 100.204V95.7142C84.6691 95.0841 83.934 95.2416 83.5927 95.4516C83.0677 95.7929 82.6476 96.3968 82.6476 97.0006V101.674L80.6523 98.7859C80.311 98.3133 79.7334 98.6284 79.3658 98.9434C79.1296 99.1535 78.8933 99.4685 78.7883 99.7835C78.7357 99.9411 78.6307 100.335 78.762 100.519C79.2608 101.228 79.7597 101.963 80.2585 102.671C75.1127 99.9411 69.6519 97.6832 63.8497 96.108C23.2086 85.1076 -16.3037 108.736 -24.3636 148.931C-25.2825 153.368 -25.6763 157.805 -25.7288 162.189C-28.223 159.511 -30.7171 156.807 -33.2375 154.129C-33.8676 153.42 -35.5741 155.389 -34.8915 156.151C-31.8723 159.406 -28.8531 162.636 -25.8601 165.891C-30.0345 163.239 -34.3664 160.903 -38.8558 158.829C-39.696 158.435 -41.1924 160.562 -40.1423 161.034C-36.1517 162.872 -32.2923 164.946 -28.538 167.256C-37.2543 166.154 -43.6078 167.23 -44.973 170.827C-46.4432 174.476 -42.2951 179.884 -34.7602 185.266C-35.3641 185.477 -35.9679 185.713 -36.5455 185.923C-43.319 185.975 -50.0138 187.656 -56.0259 190.806C-70.7282 198.551 -79.9958 215.275 -78.4468 231.894C-77.6592 240.4 -73.8786 248.381 -66.8688 253.448C-63.6396 255.811 -60.0428 257.491 -56.2622 258.778C-62.6419 265.236 -65.0048 272.246 -61.7493 278.232C-57.9425 285.163 -47.4409 289.101 -34.4452 289.521C-36.808 290.965 -39.1709 292.435 -41.5337 293.879C-42.0063 294.168 -42.5314 294.851 -42.4789 295.428C-42.4001 296.032 -41.77 295.927 -41.4025 295.691L-34.5502 291.49C-36.0204 296.085 -36.5455 300.915 -36.0467 305.746C-35.9941 307.558 -35.8891 309.395 -35.6528 311.207C-33.9463 325.016 -26.5952 337.723 -13.9671 344.182C0.498886 351.585 17.3539 349.984 32.0299 344.024C32.1612 344.077 32.2662 344.129 32.3975 344.182C33.3426 351.743 40.1949 356.941 47.4935 358.175C51.4841 358.832 56.2623 358.805 60.0692 357.256C62.6158 356.206 64.8999 354.001 65.5037 351.323C67.079 351.454 68.6542 351.612 70.282 351.69L70.2295 351.638C67.6041 349.144 65.3462 347.07 63.2196 345.101C57.05 339.299 52.4293 334.835 45.9708 326.618C45.9445 326.592 45.9445 326.592 45.9183 326.565C45.9183 326.539 45.892 326.513 45.8658 326.487C45.8658 326.46 45.8395 326.434 45.8132 326.408C45.8132 326.382 45.787 326.355 45.7607 326.329C45.7607 326.303 45.7345 326.277 45.7082 326.25C45.7082 326.224 45.682 326.198 45.6557 326.172C45.2882 325.699 44.9206 325.226 44.5531 324.754C29.8771 328.534 13.5209 324.518 2.86174 313.15C-4.85693 304.906 -8.05991 294.431 -6.82598 284.349C-6.74721 283.719 -6.66845 283.115 -6.56344 282.485C-6.43217 281.776 -6.3009 281.041 -6.11712 280.332C-5.98585 279.781 -5.85458 279.23 -5.6708 278.678C-5.61829 278.416 -5.53953 278.153 -5.43451 277.891C-5.43451 277.838 -5.40826 277.812 -5.40826 277.759C-5.40826 277.733 -5.382 277.681 -5.382 277.654C-5.35575 277.576 -5.3295 277.497 -5.30325 277.418C-5.27699 277.365 -5.27699 277.339 -5.25074 277.287C-5.19823 277.129 -5.14572 276.945 -5.06696 276.788C-5.06696 276.735 -5.06696 276.683 -5.01445 276.63C-4.85693 276.158 -4.67315 275.685 -4.48937 275.213C-4.43686 275.055 -4.3581 274.924 -4.30559 274.766C-4.20058 274.451 -4.06931 274.136 -3.91178 273.821C-3.75426 273.427 -3.57048 273.06 -3.3867 272.692C-3.36045 272.666 -3.3342 272.613 -3.3342 272.561L-3.30794 272.535C-3.22918 272.403 -3.15042 272.246 -3.07166 272.088C-2.94039 271.8 -2.80912 271.537 -2.65159 271.275C-2.44156 270.881 -2.23153 270.513 -1.99524 270.146C0.236345 266.339 3.25555 262.821 7.00987 259.828C10.2654 257.202 13.8622 255.181 17.5902 253.711H17.6165C17.6427 253.684 17.6952 253.684 17.7215 253.658C19.8481 252.818 22.0009 252.162 24.2062 251.689H24.2325H24.285C24.4425 251.689 24.6 251.689 24.7576 251.715C26.359 252.004 28.3018 254.131 29.6145 255.05C31.6361 256.467 33.6314 257.885 35.6005 259.355C38.5934 261.561 41.5339 263.845 44.4218 266.181C45.7607 267.284 47.0472 268.255 48.4649 268.859C49.8826 269.437 51.4316 269.647 53.2694 269.148C53.5319 269.069 53.7682 268.99 54.0045 268.912C53.4269 269.752 52.8231 270.539 52.2192 271.38C51.9829 271.721 51.5104 272.482 51.9567 272.85C52.403 273.217 53.1119 272.64 53.3481 272.298C54.5296 270.671 55.711 269.017 56.8662 267.389C57.0762 267.389 57.26 267.389 57.4438 267.363C56.6561 270.329 55.8685 273.27 55.0809 276.21C54.9496 276.762 55.4222 277.05 55.8948 276.867C56.4986 276.63 56.8924 276.027 57.05 275.423C57.7851 272.719 58.4939 270.014 59.2028 267.336C59.6491 267.31 60.5417 267.284 61.2506 267.31C63.5609 270.671 66.6327 273.532 70.1507 275.659C75.4802 278.862 81.5974 280.306 87.7671 280.306C93.9368 280.306 100.684 278.993 105.935 275.606C111.264 272.193 114.52 266.155 114.966 259.959C116.384 261.482 117.67 263.11 118.721 264.921C119.036 265.42 119.666 265.052 120.007 264.764C120.243 264.554 120.48 264.238 120.585 263.923C120.663 263.74 120.742 263.398 120.637 263.188C119.429 261.114 117.907 259.224 116.226 257.517C119.193 258.331 122.186 258.856 125.179 258.541C130.797 257.938 134.946 253.842 136.915 248.302C139.067 242.343 138.647 235.727 136.993 229.688C141.325 227.667 144.922 224.831 147.626 220.893C150.54 216.64 152.903 212.019 157.944 209.998C158.364 209.84 158.758 209.683 159.178 209.551C159.939 211.022 160.753 212.492 161.672 213.91C174.405 233.81 198.611 241.082 215.729 230.135C216.989 229.321 218.197 228.428 219.326 227.457C219.772 229.583 220.639 231.736 221.899 233.731C223.842 236.777 226.493 239.061 229.407 240.426C233.766 242.474 238.675 242.474 242.613 239.954C249.177 235.753 250.542 226.17 245.659 218.53C244.53 216.771 243.164 215.249 241.642 214.041C242.272 211.363 242.403 209 241.747 207.241C244.53 204.878 246.866 202.227 248.73 199.339Z" fill="black"/>
<path fill-rule="evenodd" clip-rule="evenodd" d="M44.9468 289.048L44.6318 289.705L44.0542 289.337C42.3477 288.261 40.2211 287.709 38.1208 287.683C36.0467 287.631 33.8414 288.129 32.3711 289.573C30.8484 290.991 30.7434 293.406 31.321 295.376C32.0036 297.371 33.7364 298.999 35.8104 299.497L35.7579 299.734C33.5788 299.287 31.6885 297.66 30.8747 295.533C30.1658 293.459 30.1396 290.834 31.8723 289.075C33.5001 287.368 35.8892 286.764 38.1208 286.712C40.1423 286.685 42.1639 287.079 44.0279 287.998C45.0256 285.084 44.7105 281.881 42.9515 279.439C41.1137 276.814 38.0683 275.16 34.9965 274.005C31.8986 272.902 28.5643 272.272 25.2563 272.351C22.0008 272.377 18.7716 273.27 15.9887 274.766C10.2916 277.917 7.74491 284.611 7.84993 291.122C7.92869 297.738 10.2916 304.328 14.2822 309.841L14.0984 309.999C11.6568 307.557 9.68771 304.617 8.26999 301.414C6.79977 298.237 5.88088 294.772 5.72335 291.201C5.51332 287.657 5.9334 283.981 7.45613 280.647C8.90009 277.287 11.5255 274.346 14.8072 272.64C18.089 271.012 21.6858 270.198 25.2826 270.277C28.8269 270.355 32.3186 271.091 35.6266 272.351C38.8821 273.69 42.1114 275.528 44.1854 278.599C46.2858 281.671 46.417 285.819 44.9468 289.048Z" fill="black"/>
<path fill-rule="evenodd" clip-rule="evenodd" d="M225.443 304.802C224.13 304.881 222.818 304.776 221.557 304.461C221.216 304.382 218.092 303.489 219.195 302.859C219.431 302.728 219.72 302.754 219.956 302.807C220.218 302.833 220.455 302.859 220.691 302.912C222.214 303.2 223.631 303.778 225.285 303.673C225.994 303.621 226.126 304.749 225.443 304.802Z" fill="black"/>
<path fill-rule="evenodd" clip-rule="evenodd" d="M152.273 309.291C152.273 322.156 141.85 332.605 128.985 332.605C116.121 332.605 105.672 322.156 105.672 309.291C105.672 296.427 116.121 286.004 128.985 286.004C141.85 286.004 152.273 296.427 152.273 309.291Z" fill="#C79C89"/>
<path fill-rule="evenodd" clip-rule="evenodd" d="M152.273 309.291C152.273 322.156 141.85 332.605 128.985 332.605C116.121 332.605 105.672 322.156 105.672 309.291C105.672 296.427 116.121 286.004 128.985 286.004C141.85 286.004 152.273 296.427 152.273 309.291Z" fill="#C57450"/>
<path fill-rule="evenodd" clip-rule="evenodd" d="M116.699 370.068V407.217C116.699 419.005 81.5979 409.764 69.416 398.764L70.0461 382.539L71.2013 352.32C73.2491 353.738 75.3494 355.077 77.5285 356.337C77.5548 356.363 77.581 356.363 77.6073 356.39C77.6073 356.39 77.6335 356.39 77.6335 356.416C77.6598 356.416 77.6598 356.442 77.686 356.442C89.1328 363.084 102.207 367.574 116.699 370.068Z" fill="#C79C89"/>
<path fill-rule="evenodd" clip-rule="evenodd" d="M116.699 368.966V382.854C116.227 382.67 115.675 382.434 115.072 382.119C114.153 381.646 113.076 381.042 111.895 380.36C111.685 380.228 111.448 380.097 111.238 379.94C108.718 378.443 105.751 376.5 102.575 374.348C102.076 374.006 101.577 373.665 101.052 373.324C99.6342 372.326 98.164 371.328 96.72 370.278C95.066 369.123 93.412 367.968 91.7843 366.786C91.2067 366.366 90.6028 365.946 90.0252 365.526C89.6839 365.29 89.3689 365.054 89.0538 364.817C88.8438 364.66 88.6075 364.476 88.3712 364.319C87.4786 363.688 86.6122 363.032 85.7721 362.428C85.6146 362.297 85.4308 362.166 85.2733 362.061C85.0107 361.851 84.7219 361.641 84.4594 361.457C82.7266 360.197 81.1251 359.015 79.7074 357.939C79.2611 357.624 78.8411 357.309 78.4472 356.994C78.1847 356.81 77.9222 356.6 77.6859 356.442C77.6596 356.442 77.6596 356.416 77.6334 356.416C77.6334 356.39 77.6071 356.39 77.6071 356.39C77.5809 356.364 77.5546 356.364 77.5283 356.337C75.008 354.447 73.459 353.266 73.459 353.266L116.699 368.966Z" fill="#C79C89"/>
<path fill-rule="evenodd" clip-rule="evenodd" d="M157.355 230.47C156.883 230.983 156.2 230.906 155.648 230.547C155.386 230.367 154.887 230.136 154.519 230.059C153.994 229.931 153.653 229.906 153.075 229.931C152.681 229.983 152.208 230.085 151.736 230.29C151.709 230.316 151.525 230.393 151.525 230.393C151.394 230.47 151.289 230.547 151.184 230.624C150.948 230.777 150.895 230.803 150.738 230.957C149.319 232.342 149.241 234.624 150.37 236.188C150.764 236.727 150.527 237.522 150.002 237.855C149.425 238.214 148.715 238.009 148.322 237.471C146.562 235.06 146.825 231.29 149.057 229.239C151.342 227.136 154.782 226.982 157.277 228.752C157.828 229.136 157.749 230.034 157.355 230.47Z" fill="black"/>
<path fill-rule="evenodd" clip-rule="evenodd" d="M170.079 295.769C165.847 296.277 161.566 289.08 160.533 279.67C159.475 270.26 162.058 262.224 166.265 261.689C170.497 261.181 174.778 268.378 175.811 277.788C176.869 287.198 174.286 295.235 170.079 295.769Z" fill="black"/>
<path fill-rule="evenodd" clip-rule="evenodd" d="M165.546 255.088C165.57 255.864 165.082 256.41 164.473 256.496C161.304 256.869 158.354 259.6 157.281 263.221C157.086 263.91 156.599 264.428 155.941 264.255C155.404 264.112 154.892 263.307 155.087 262.646C156.526 257.789 160.134 254.312 164.4 253.794C165.009 253.708 165.546 254.398 165.546 255.088Z" fill="black"/>
<path fill-rule="evenodd" clip-rule="evenodd" d="M177.878 311.73C187.521 312.804 196.458 318.559 201.163 327.837C201.564 328.632 201.247 329.604 200.454 330.006C199.663 330.41 198.689 330.097 198.283 329.297C191.669 316.256 175.675 311.029 162.64 317.637C161.85 318.039 160.876 317.729 160.472 316.928C160.067 316.133 160.385 315.164 161.178 314.76C166.528 312.048 172.32 311.111 177.878 311.73Z" fill="black"/>
</g>
<defs>
<clipPath id="clip0">
<rect width="485" height="959" fill="white"/>
</clipPath>
<clipPath id="clip1">
<rect width="270" height="270" fill="white" transform="translate(219 92)"/>
</clipPath>
</defs>
</svg>
