<svg width="485" height="667" viewBox="0 0 485 667" fill="none" xmlns="http://www.w3.org/2000/svg">
<g clip-path="url(#clip0)">
<g clip-path="url(#clip1)">
<path d="M342.514 228.781C377.385 179.223 436.275 173.483 388.179 139.641C340.083 105.798 287.162 98.1627 252.29 147.721C217.419 197.28 228.14 264.89 276.236 298.732C324.333 332.574 307.642 278.34 342.514 228.781Z" fill="#9B51E0"/>
<path d="M329.505 203.405C281.988 270.935 201.742 278.756 267.28 324.871C332.817 370.986 404.929 381.39 452.446 313.86C499.963 246.33 485.354 154.203 419.816 108.088C354.279 61.9733 377.022 135.875 329.505 203.405Z" fill="#F6D446"/>
<path d="M292.124 230.75C292.124 269.75 332.125 300.125 355.875 303.875L408.375 247.625L412.125 180.125L355.875 157.625L290.25 178.25C288.375 186.375 292.124 191.75 292.124 230.75Z" fill="white"/>
<path fill-rule="evenodd" clip-rule="evenodd" d="M359.633 152.434C358.089 151.855 356.388 151.855 354.845 152.434L300.299 172.889C297.638 173.887 295.875 176.431 295.875 179.273V227C295.875 250.499 311.432 269.275 325.476 281.563C332.641 287.833 339.774 292.733 345.102 296.064C347.774 297.733 350.009 299.019 351.593 299.896C352.385 300.334 353.015 300.671 353.457 300.903C353.678 301.019 353.851 301.108 353.975 301.172L354.121 301.246L354.165 301.268L354.185 301.279C356.105 302.238 358.369 302.24 360.288 301.281L357.239 295.182C360.288 301.281 360.295 301.277 360.298 301.276L360.312 301.268L360.356 301.246L360.503 301.172C360.626 301.108 360.8 301.019 361.021 300.903C361.462 300.671 362.093 300.334 362.885 299.896C364.468 299.019 366.704 297.733 369.375 296.064C374.703 292.733 381.836 287.833 389.001 281.563C403.045 269.275 418.603 250.499 418.603 227V179.273C418.603 176.431 416.84 173.887 414.178 172.889L359.633 152.434ZM357.239 295.182L354.185 301.279C354.188 301.28 354.19 301.281 357.239 295.182ZM362.148 284.5C360.216 285.707 358.545 286.688 357.239 287.428C355.932 286.688 354.261 285.707 352.33 284.5C347.431 281.438 340.927 276.963 334.456 271.301C321.227 259.726 309.511 244.411 309.511 227V183.998L357.239 166.1L404.966 183.998V227C404.966 244.411 393.251 259.726 380.022 271.301C373.551 276.963 367.047 281.438 362.148 284.5ZM357.368 194.624C353.661 193.179 349.665 192.635 345.707 193.038C341.749 193.441 337.944 194.779 334.605 196.941C331.266 199.104 328.489 202.028 326.502 205.475C324.515 208.921 323.376 212.79 323.178 216.763C322.98 220.737 323.729 224.7 325.364 228.326C326.998 231.953 329.471 235.14 332.579 237.623C333.783 238.585 335.538 238.389 336.499 237.185C337.461 235.982 337.265 234.227 336.062 233.265C333.644 231.333 331.721 228.855 330.45 226.034C329.178 223.214 328.596 220.131 328.75 217.041C328.904 213.951 329.79 210.941 331.335 208.261C332.88 205.58 335.04 203.306 337.637 201.624C340.234 199.942 343.194 198.902 346.272 198.588C349.35 198.275 352.459 198.697 355.341 199.821C358.224 200.945 360.798 202.738 362.852 205.052C364.906 207.366 366.381 210.135 367.154 213.13C367.472 214.362 368.583 215.222 369.855 215.222H373.367C375.928 215.225 378.409 216.109 380.395 217.725C382.381 219.342 383.751 221.592 384.274 224.099C384.798 226.606 384.443 229.216 383.269 231.492C382.095 233.768 380.174 235.571 377.829 236.599C376.418 237.217 375.775 238.861 376.393 240.273C377.011 241.684 378.656 242.326 380.067 241.708C383.585 240.167 386.467 237.463 388.227 234.049C389.988 230.635 390.52 226.719 389.735 222.959C388.95 219.199 386.895 215.823 383.916 213.399C380.937 210.974 377.214 209.648 373.373 209.644H371.917C370.839 206.595 369.18 203.777 367.024 201.349C364.384 198.373 361.074 196.068 357.368 194.624ZM345.481 231.957C343.94 231.957 342.692 233.206 342.692 234.747C342.692 236.287 343.94 237.536 345.481 237.536H345.509C347.049 237.536 348.298 236.287 348.298 234.747C348.298 233.206 347.049 231.957 345.509 231.957H345.481ZM342.692 245.904C342.692 244.363 343.94 243.114 345.481 243.114H345.509C347.049 243.114 348.298 244.363 348.298 245.904C348.298 247.444 347.049 248.693 345.509 248.693H345.481C343.94 248.693 342.692 247.444 342.692 245.904ZM356.632 237.536C355.092 237.536 353.843 238.785 353.843 240.325C353.843 241.866 355.092 243.114 356.632 243.114H356.66C358.201 243.114 359.449 241.866 359.449 240.325C359.449 238.785 358.201 237.536 356.66 237.536H356.632ZM353.843 251.482C353.843 249.942 355.092 248.693 356.632 248.693H356.66C358.201 248.693 359.449 249.942 359.449 251.482C359.449 253.022 358.201 254.271 356.66 254.271H356.632C355.092 254.271 353.843 253.022 353.843 251.482ZM367.794 231.957C366.253 231.957 365.005 233.206 365.005 234.747C365.005 236.287 366.253 237.536 367.794 237.536H367.822C369.362 237.536 370.611 236.287 370.611 234.747C370.611 233.206 369.362 231.957 367.822 231.957H367.794ZM365.005 245.904C365.005 244.363 366.253 243.114 367.794 243.114H367.822C369.362 243.114 370.611 244.363 370.611 245.904C370.611 247.444 369.362 248.693 367.822 248.693H367.794C366.253 248.693 365.005 247.444 365.005 245.904Z" fill="#321F4A"/>
</g>
<path fill-rule="evenodd" clip-rule="evenodd" d="M255.958 616.753C256.138 616.447 256.264 616.122 256.336 615.762C256.481 616.104 256.354 616.537 255.958 616.753Z" fill="#C79C89"/>
<path fill-rule="evenodd" clip-rule="evenodd" d="M256.336 615.745V615.763C256.264 616.124 256.138 616.448 255.958 616.755H255.94C255.417 617.656 254.444 618.322 253.219 618.322L209.878 625.675C209.77 625.567 209.698 625.441 209.59 625.315C207.175 622.161 207.085 614.989 204.111 608.429C204.111 608.141 182.847 567.665 182.847 567.665L190.109 566.8L191.154 566.674L218.402 563.412L219.844 563.232L223.754 562.764L228.025 607.023C238.189 607.33 251.092 607.113 255.742 613.241C256.336 614.015 256.498 614.917 256.336 615.745Z" fill="black"/>
<path fill-rule="evenodd" clip-rule="evenodd" d="M212.763 506.248L206.906 506.518L199.733 506.861C201.986 506.032 204.221 505.095 206.419 504.086C206.762 503.941 207.086 503.779 207.41 503.617L212.348 503.383C212.492 504.338 212.618 505.275 212.763 506.248Z" fill="white"/>
<path fill-rule="evenodd" clip-rule="evenodd" d="M207.409 503.619C207.085 503.781 206.761 503.944 206.418 504.088C206.382 503.944 206.364 503.799 206.328 503.673L207.409 503.619Z" fill="white"/>
<path fill-rule="evenodd" clip-rule="evenodd" d="M212.348 503.384L207.41 503.619C208.978 502.898 210.528 502.141 212.042 501.33C212.15 502.015 212.24 502.7 212.348 503.384Z" fill="white"/>
<path fill-rule="evenodd" clip-rule="evenodd" d="M213.627 512.053L208.077 512.305L174.071 513.909C174.035 513.801 173.999 513.693 173.963 513.585C177.333 513.098 180.667 512.449 183.946 511.692C185.695 511.278 187.443 510.827 189.191 510.323C189.209 510.305 189.209 510.305 189.227 510.305H189.263H189.281L207.518 509.458L213.213 509.188C213.357 510.125 213.465 511.08 213.627 512.053Z" fill="white"/>
<path fill-rule="evenodd" clip-rule="evenodd" d="M174.071 513.908L171.512 514.034C171.494 513.998 171.494 513.98 171.476 513.944C172.305 513.836 173.134 513.728 173.962 513.584C173.999 513.692 174.035 513.8 174.071 513.908Z" fill="white"/>
<path fill-rule="evenodd" clip-rule="evenodd" d="M214.456 517.838L209.248 518.09L175.927 519.676L173.44 519.802C173.116 518.847 172.792 517.91 172.485 516.955L175.008 516.829L208.653 515.225L214.06 514.973C214.186 515.928 214.33 516.865 214.456 517.838Z" fill="white"/>
<path fill-rule="evenodd" clip-rule="evenodd" d="M215.25 523.676L210.402 523.91L177.802 525.46L175.387 525.568C175.063 524.613 174.738 523.676 174.414 522.721L176.883 522.613L209.843 521.045L214.871 520.811C215.015 521.748 215.123 522.721 215.25 523.676Z" fill="white"/>
<path fill-rule="evenodd" clip-rule="evenodd" d="M216.024 529.496L211.59 529.713L179.675 531.226L177.369 531.334C177.044 530.361 176.72 529.406 176.396 528.469L178.738 528.361L211.014 526.847L215.663 526.631C215.771 527.604 215.934 528.541 216.024 529.496Z" fill="white"/>
<path fill-rule="evenodd" clip-rule="evenodd" d="M216.763 535.3L212.762 535.48L181.532 536.922L179.387 537.03C179.027 536.093 178.702 535.138 178.378 534.201L180.613 534.092L212.167 532.597L216.402 532.398C216.546 533.336 216.672 534.309 216.763 535.3Z" fill="white"/>
<path fill-rule="evenodd" clip-rule="evenodd" d="M217.502 541.084L213.916 541.246L183.389 542.706L181.424 542.796C181.064 541.859 180.739 540.904 180.415 539.967L182.487 539.877L213.339 538.399L217.142 538.219C217.268 539.174 217.376 540.147 217.502 541.084Z" fill="white"/>
<path fill-rule="evenodd" clip-rule="evenodd" d="M218.169 546.906L215.087 547.05L185.262 548.474L183.46 548.564C183.136 547.627 182.776 546.672 182.451 545.735L184.343 545.645L214.51 544.203L217.844 544.041C217.971 545.014 218.061 545.969 218.169 546.906Z" fill="white"/>
<path fill-rule="evenodd" clip-rule="evenodd" d="M218.799 552.708L216.258 552.834L187.136 554.24L185.569 554.312C185.208 553.357 184.848 552.42 184.487 551.465L186.199 551.393L215.682 550.005L218.493 549.879C218.619 550.816 218.709 551.771 218.799 552.708Z" fill="white"/>
<path fill-rule="evenodd" clip-rule="evenodd" d="M219.412 558.529L217.43 558.62L188.992 559.971L187.623 560.043C187.28 559.088 186.92 558.151 186.596 557.196L188.055 557.124L216.853 555.772L219.124 555.664C219.214 556.619 219.304 557.592 219.412 558.529Z" fill="white"/>
<path fill-rule="evenodd" clip-rule="evenodd" d="M219.845 563.232L218.403 563.413L191.155 566.675L190.11 566.801C189.642 565.521 189.155 564.242 188.687 562.944L189.93 562.89L218.025 561.556L219.683 561.484C219.737 562.061 219.791 562.656 219.845 563.232Z" fill="white"/>
<path fill-rule="evenodd" clip-rule="evenodd" d="M212.348 503.384L207.41 503.619C208.978 502.898 210.528 502.141 212.042 501.33C212.15 502.015 212.24 502.7 212.348 503.384Z" fill="black"/>
<path fill-rule="evenodd" clip-rule="evenodd" d="M213.213 509.185L207.518 509.456L189.281 510.303C192.795 509.348 196.273 508.194 199.715 506.879L199.733 506.861L206.906 506.518L212.763 506.248L213.213 509.185Z" fill="black"/>
<path fill-rule="evenodd" clip-rule="evenodd" d="M214.059 514.972L208.653 515.225L175.008 516.828L172.485 516.955C172.142 515.981 171.818 514.972 171.512 514.035L174.071 513.909L208.076 512.305L213.627 512.053C213.771 513.026 213.915 513.999 214.059 514.972Z" fill="black"/>
<path fill-rule="evenodd" clip-rule="evenodd" d="M214.871 520.811L209.843 521.046L176.882 522.613L174.414 522.721C174.089 521.748 173.765 520.775 173.44 519.802L175.927 519.676L209.248 518.09L214.456 517.838C214.6 518.829 214.745 519.802 214.871 520.811Z" fill="black"/>
<path fill-rule="evenodd" clip-rule="evenodd" d="M215.664 526.631L211.014 526.847L178.739 528.361L176.396 528.469C176.035 527.478 175.711 526.505 175.387 525.568L177.802 525.46L210.401 523.91L215.249 523.676C215.393 524.649 215.537 525.658 215.664 526.631Z" fill="black"/>
<path fill-rule="evenodd" clip-rule="evenodd" d="M216.403 532.399L212.168 532.598L180.613 534.093L178.378 534.201C178.018 533.228 177.694 532.273 177.369 531.336L179.676 531.228L211.591 529.714L216.024 529.498C216.168 530.471 216.276 531.426 216.403 532.399Z" fill="black"/>
<path fill-rule="evenodd" clip-rule="evenodd" d="M217.142 538.218L213.339 538.398L182.487 539.876L180.415 539.966C180.054 538.993 179.712 538.02 179.388 537.029L181.532 536.921L212.763 535.479L216.763 535.299C216.907 536.272 217.015 537.245 217.142 538.218Z" fill="black"/>
<path fill-rule="evenodd" clip-rule="evenodd" d="M217.844 544.04L214.51 544.202L184.343 545.644L182.451 545.734C182.109 544.76 181.748 543.769 181.424 542.796L183.388 542.706L213.916 541.246L217.502 541.084C217.61 542.093 217.736 543.066 217.844 544.04Z" fill="black"/>
<path fill-rule="evenodd" clip-rule="evenodd" d="M218.493 549.88L215.681 550.006L186.199 551.394L184.487 551.466C184.163 550.492 183.82 549.519 183.46 548.564L185.262 548.474L215.087 547.05L218.168 546.906C218.295 547.897 218.385 548.889 218.493 549.88Z" fill="black"/>
<path fill-rule="evenodd" clip-rule="evenodd" d="M219.123 555.662L216.853 555.771L188.055 557.122L186.596 557.194C186.235 556.257 185.893 555.284 185.568 554.311L187.136 554.239L216.258 552.833L218.799 552.707C218.907 553.716 219.033 554.689 219.123 555.662Z" fill="black"/>
<path fill-rule="evenodd" clip-rule="evenodd" d="M219.681 561.483L218.023 561.555L189.929 562.888L188.685 562.943C188.343 561.969 187.982 561.014 187.622 560.041L188.992 559.969L217.429 558.617L219.411 558.527C219.501 559.5 219.591 560.51 219.681 561.483Z" fill="black"/>
<path fill-rule="evenodd" clip-rule="evenodd" d="M71.82 568.404C70.5765 569.485 69.3151 570.548 68.0536 571.612L52.2492 548.545L50.9697 546.707V546.689C51.5284 545.878 52.069 545.085 52.6457 544.256L54.3216 546.382L71.82 568.404Z" fill="white"/>
<path fill-rule="evenodd" clip-rule="evenodd" d="M76.2174 564.567C75.4966 565.216 74.7757 565.847 74.0549 566.46L56.3763 544.222L54.376 541.699V541.681C54.9346 540.834 55.4933 540.005 56.0699 539.176L58.3586 542.059L76.2174 564.567Z" fill="white"/>
<path fill-rule="evenodd" clip-rule="evenodd" d="M80.5789 560.692C79.858 561.323 79.1552 561.953 78.4524 562.584L60.3593 539.86L57.8184 536.652C58.377 535.805 58.9357 534.958 59.4943 534.129L62.3056 537.661L80.5789 560.692Z" fill="white"/>
<path fill-rule="evenodd" clip-rule="evenodd" d="M84.9037 556.727C84.2009 557.376 83.4801 558.025 82.7773 558.673L64.2697 535.408L61.2422 531.588C61.8189 530.777 62.3775 529.93 62.9542 529.119L66.1799 533.174L84.9037 556.727Z" fill="white"/>
<path fill-rule="evenodd" clip-rule="evenodd" d="M84.9925 556.853C84.2716 557.538 83.5688 558.15 82.866 558.799C82.1451 559.466 81.3702 560.114 80.6494 560.781C79.9466 561.448 79.2438 562.061 78.5229 562.691C77.7841 563.358 77.0452 564.025 76.3063 564.674C75.5855 565.323 74.8647 565.953 74.1618 566.602C73.423 567.233 72.6661 567.9 71.9272 568.53H71.9092C70.6658 569.648 69.4043 570.729 68.1609 571.792L68.0527 571.612C69.3142 570.549 70.5757 569.485 71.8191 568.404C72.576 567.755 73.3149 567.107 74.0537 566.458C74.7746 565.845 75.4954 565.214 76.2162 564.566C76.9551 563.917 77.712 563.25 78.4508 562.583C79.1537 561.953 79.8565 561.322 80.5773 560.691C81.2982 560.024 82.037 559.358 82.7759 558.673C83.4787 558.024 84.1995 557.375 84.9024 556.727L84.9925 556.853Z" fill="white"/>
<path fill-rule="evenodd" clip-rule="evenodd" d="M89.1918 552.707C88.507 553.356 87.8042 554.023 87.0833 554.69L68.1072 530.83L64.7373 526.577V526.559C65.296 525.73 65.8726 524.901 66.4493 524.09L69.9814 528.541L89.1918 552.707Z" fill="white"/>
<path fill-rule="evenodd" clip-rule="evenodd" d="M91.4631 550.852C90.7422 551.572 90.0394 552.221 89.3186 552.888C88.6158 553.537 87.8949 554.185 87.1921 554.834L87.084 554.69C87.8048 554.023 88.5076 553.356 89.1924 552.708L89.3186 552.87C90.0394 552.203 90.7603 551.536 91.4631 550.852Z" fill="white"/>
<path fill-rule="evenodd" clip-rule="evenodd" d="M93.6074 548.869C92.9226 549.572 92.2198 550.22 91.4809 550.851H91.4629L91.3187 550.653L71.8741 526.144L68.2158 521.549V521.531C68.7745 520.702 69.3511 519.891 69.9458 519.08L73.6942 523.802L93.4091 548.635L93.6074 548.869Z" fill="white"/>
<path fill-rule="evenodd" clip-rule="evenodd" d="M97.8603 544.905C97.1394 545.572 96.4546 546.238 95.7518 546.869H95.7338L95.4995 546.581L75.5323 521.423L71.6758 516.576C72.2705 515.747 72.8652 514.936 73.4418 514.125L77.3344 519.027L97.5719 544.544L97.8603 544.905Z" fill="white"/>
<path fill-rule="evenodd" clip-rule="evenodd" d="M102.112 540.849C101.428 541.552 100.725 542.2 100.022 542.849C99.6615 543.192 99.3011 543.534 98.9407 543.876C99.3011 543.534 99.6615 543.174 100.022 542.831L99.6795 542.399L79.1356 516.575L75.207 511.619V511.601C75.7837 510.79 76.3604 509.979 76.937 509.168L80.8836 514.142L101.716 540.344L102.112 540.849Z" fill="white"/>
<path fill-rule="evenodd" clip-rule="evenodd" d="M110.583 532.722C109.917 533.389 109.214 534.037 108.511 534.74C107.79 535.425 107.087 536.11 106.384 536.813C105.682 537.461 105.015 538.128 104.276 538.795L103.789 538.182L82.6868 511.601L78.7402 506.646C79.3169 505.835 79.8936 505.006 80.4883 504.213L84.3988 509.132L105.808 536.074L106.384 536.795C107.087 536.11 107.79 535.425 108.493 534.722L107.862 533.911L86.1469 506.555L82.2904 501.726V501.708C82.9031 500.861 83.4437 500.086 84.0384 499.293L87.8048 504.05L109.844 531.785L110.583 532.722Z" fill="white"/>
<path fill-rule="evenodd" clip-rule="evenodd" d="M118.963 524.503C118.296 525.206 117.611 525.873 116.908 526.576C116.206 527.261 115.503 527.946 114.8 528.648C114.115 529.315 113.412 529.964 112.71 530.649L89.5166 501.455C89.7148 501.148 89.9131 500.824 90.1113 500.518C91.4268 501.238 92.7604 501.923 94.0939 502.608L94.112 502.626H94.13L114.782 528.63C115.485 527.946 116.206 527.261 116.908 526.558L100.023 505.293C101.789 506.068 103.591 506.771 105.393 507.42L117.755 522.99L118.963 524.503Z" fill="white"/>
<path fill-rule="evenodd" clip-rule="evenodd" d="M90.1111 500.518C89.9129 500.824 89.7146 501.149 89.5164 501.455L87.6963 499.148C88.4892 499.617 89.3002 500.086 90.1111 500.518Z" fill="white"/>
<path fill-rule="evenodd" clip-rule="evenodd" d="M123.288 520.234C122.567 520.973 121.846 521.694 121.107 522.433C120.386 523.118 119.684 523.802 118.963 524.505C119.684 523.802 120.386 523.118 121.089 522.415L119.738 520.703L110.583 509.188C112.277 509.746 113.989 510.233 115.683 510.683H115.701L121.774 518.324L123.288 520.234Z" fill="white"/>
<path fill-rule="evenodd" clip-rule="evenodd" d="M128.243 515.314C127.487 516.071 126.766 516.828 125.973 517.567C125.793 517.747 125.594 517.945 125.414 518.125L123.72 516.017L120.404 511.836C122.333 512.304 124.261 512.683 126.207 513.025C126.261 513.043 126.297 513.061 126.351 513.043H126.369C126.387 513.061 126.387 513.079 126.405 513.061L126.423 513.079L128.243 515.314Z" fill="white"/>
<path fill-rule="evenodd" clip-rule="evenodd" d="M126.352 513.043C126.298 513.061 126.262 513.043 126.208 513.025C126.226 513.007 126.244 512.989 126.244 512.971C126.28 512.989 126.316 513.025 126.352 513.043Z" fill="white"/>
<path fill-rule="evenodd" clip-rule="evenodd" d="M121.09 522.415C120.387 523.118 119.684 523.803 118.963 524.506L117.756 522.992L105.394 507.422C107.106 508.071 108.854 508.647 110.584 509.188L119.738 520.703L121.09 522.415Z" fill="black"/>
<path fill-rule="evenodd" clip-rule="evenodd" d="M116.907 526.561C116.205 527.264 115.484 527.948 114.781 528.633L94.1289 502.629C96.0752 503.566 98.0214 504.467 100.022 505.296L116.907 526.561Z" fill="black"/>
<path fill-rule="evenodd" clip-rule="evenodd" d="M112.71 530.65L110.584 532.723L87.8054 504.051L84.0391 499.294C84.4355 498.735 84.85 498.194 85.2465 497.672C86.0574 498.194 86.8503 498.681 87.6793 499.15H87.6973L89.5174 501.456L112.71 530.65Z" fill="black"/>
<path fill-rule="evenodd" clip-rule="evenodd" d="M108.492 534.723C107.789 535.426 107.086 536.111 106.383 536.795L105.807 536.075L84.3979 509.133L80.4873 504.213C81.064 503.366 81.6767 502.519 82.2894 501.727L86.1459 506.556L107.861 533.912L108.492 534.723Z" fill="black"/>
<path fill-rule="evenodd" clip-rule="evenodd" d="M104.276 538.794C103.573 539.479 102.871 540.164 102.114 540.848L101.717 540.344L80.8851 514.141L76.9385 509.167V509.149C77.5332 508.32 78.1459 507.473 78.7406 506.645L82.6872 511.6L103.79 538.181L104.276 538.794Z" fill="black"/>
<path fill-rule="evenodd" clip-rule="evenodd" d="M78.74 506.646C78.1454 507.475 77.5326 508.322 76.9379 509.151V509.169L76.9199 509.151C77.5326 508.304 78.1273 507.475 78.74 506.646Z" fill="black"/>
<path fill-rule="evenodd" clip-rule="evenodd" d="M100.022 542.834C99.6619 543.176 99.3015 543.536 98.9411 543.879C98.5807 544.221 98.2202 544.582 97.8598 544.906L97.5715 544.546L77.3339 519.028L73.4414 514.126V514.108C74.0181 513.261 74.6128 512.432 75.2075 511.621L79.136 516.577L99.6799 542.401L100.022 542.834Z" fill="black"/>
<path fill-rule="evenodd" clip-rule="evenodd" d="M75.2079 511.62C74.6132 512.431 74.0185 513.259 73.4419 514.106V514.124L73.4238 514.106C74.0185 513.241 74.6132 512.412 75.1899 511.602L75.2079 511.62Z" fill="black"/>
<path fill-rule="evenodd" clip-rule="evenodd" d="M95.7324 546.867C95.0295 547.552 94.3267 548.201 93.6059 548.868L93.4076 548.634L73.6927 523.801L69.9443 519.079V519.061C70.2327 518.629 70.521 518.214 70.8093 517.8C71.0977 517.385 71.386 516.971 71.6744 516.574L75.5308 521.422L95.4981 546.579L95.7324 546.867Z" fill="black"/>
<path fill-rule="evenodd" clip-rule="evenodd" d="M70.8108 517.801C70.5224 518.215 70.2341 518.63 69.9458 519.062V519.08L69.9277 519.062C70.2161 518.63 70.5224 518.215 70.8108 517.801Z" fill="black"/>
<path fill-rule="evenodd" clip-rule="evenodd" d="M91.4633 550.849C90.7605 551.534 90.0397 552.201 89.3188 552.867L89.1927 552.705L69.9823 528.539L66.4502 524.088C67.0269 523.223 67.6216 522.394 68.2163 521.547L71.8745 526.142L91.3191 550.651L91.4633 550.849Z" fill="black"/>
<path fill-rule="evenodd" clip-rule="evenodd" d="M87.1923 554.835C86.4535 555.52 85.7326 556.187 84.9938 556.853L84.9037 556.727L66.1799 533.174L62.9541 529.119C63.2605 528.687 63.5488 528.254 63.8371 527.822C64.1435 527.407 64.4318 526.993 64.7382 526.578L68.1081 530.831L87.0842 554.691L87.1923 554.835Z" fill="black"/>
<path fill-rule="evenodd" clip-rule="evenodd" d="M64.738 526.579C64.4316 526.993 64.1433 527.408 63.8369 527.822C64.1252 527.39 64.4136 526.975 64.7199 526.561L64.738 526.579Z" fill="black"/>
<path fill-rule="evenodd" clip-rule="evenodd" d="M82.7772 558.673C82.0384 559.358 81.2995 560.025 80.5787 560.692L62.3054 537.661L59.4941 534.129C60.1069 533.3 60.6835 532.435 61.2422 531.588L64.2697 535.408L82.7772 558.673Z" fill="black"/>
<path fill-rule="evenodd" clip-rule="evenodd" d="M82.8678 558.798C82.1469 559.465 81.372 560.114 80.6512 560.78L80.5791 560.69C81.2999 560.023 82.0388 559.357 82.7777 558.672L82.8678 558.798Z" fill="black"/>
<path fill-rule="evenodd" clip-rule="evenodd" d="M78.4524 562.583C77.7135 563.249 76.9566 563.916 76.2178 564.565L58.359 542.057L56.0703 539.173C56.629 538.344 57.2237 537.479 57.8183 536.65L60.3593 539.858L78.4524 562.583Z" fill="black"/>
<path fill-rule="evenodd" clip-rule="evenodd" d="M78.5235 562.69C77.7846 563.357 77.0458 564.024 76.3069 564.672L76.2168 564.564C76.9557 563.916 77.7125 563.249 78.4514 562.582L78.5235 562.69Z" fill="black"/>
<path fill-rule="evenodd" clip-rule="evenodd" d="M74.0544 566.456C73.3156 567.105 72.5767 567.754 71.8198 568.402L54.3215 546.381L52.6455 544.254V544.236C53.2222 543.371 53.7808 542.56 54.3755 541.695L56.3759 544.218L74.0544 566.456Z" fill="black"/>
<path fill-rule="evenodd" clip-rule="evenodd" d="M54.357 541.68L54.375 541.698C53.7803 542.563 53.2216 543.374 52.645 544.239V544.257L52.627 544.239C53.2216 543.374 53.7803 542.527 54.357 541.68Z" fill="black"/>
<path fill-rule="evenodd" clip-rule="evenodd" d="M74.1621 566.583C73.4232 567.232 72.6663 567.881 71.9275 568.529H71.9094L71.8193 568.403C72.5762 567.754 73.3151 567.106 74.0539 566.457L74.1621 566.583Z" fill="black"/>
<path fill-rule="evenodd" clip-rule="evenodd" d="M125.414 518.126C124.712 518.829 124.009 519.532 123.288 520.235L121.774 518.324L115.701 510.684C117.035 511.044 118.368 511.386 119.702 511.693C119.936 511.747 120.17 511.801 120.405 511.837L123.721 516.018L125.414 518.126Z" fill="black"/>
<path fill-rule="evenodd" clip-rule="evenodd" d="M130.064 513.657L128.641 514.919C128.605 514.937 128.605 514.937 128.587 514.955C128.461 515.081 128.353 515.189 128.244 515.315L126.424 513.081L126.406 513.062C127.596 513.279 128.803 513.477 130.01 513.639H130.046C130.046 513.639 130.046 513.657 130.064 513.657Z" fill="black"/>
<path fill-rule="evenodd" clip-rule="evenodd" d="M32.6064 598.876C37.0396 608.012 42.6621 618.23 39.3823 625.186C38.247 627.547 34.9131 627.619 33.7057 625.294L4.9082 589.433C4.96227 589.288 5.03435 589.144 5.08841 589.018C6.76436 585.414 15.3063 582.855 19.7575 577.178C19.9017 577.178 46.0321 539.479 46.0321 539.479L50.9698 546.687V546.705L52.2493 548.543L68.0537 571.61L68.1618 571.79L69.3152 573.466L32.6064 598.876Z" fill="black"/>
<path fill-rule="evenodd" clip-rule="evenodd" d="M60.0342 473.683C61.7282 476.458 66.5037 482.242 66.6479 482.351C74.3068 490.694 94.1479 502.516 94.1479 502.516C102.347 506.553 111.052 509.58 119.738 511.599C124.82 512.806 130.01 513.671 135.236 514.194C135.578 514.248 135.939 514.284 136.281 514.32C141.435 514.842 146.661 515.041 151.869 514.951C157.221 515.041 162.574 514.824 167.872 514.266C170.016 514.05 172.161 513.779 174.287 513.437C177.549 512.968 180.793 512.338 183.982 511.599C194.615 509.13 205.301 505.147 215.033 499.615C215.033 499.579 230.765 489.199 237.036 482.351C237.144 482.242 237.234 482.116 237.361 482.008C242.479 476.314 245.957 470.529 247.542 465.177L207.286 374.508H104.492C97.4695 392.646 68.4986 453.468 64.4133 463.23C61.6561 469.79 60.0522 473.628 60.0342 473.683Z" fill="black"/>
<path fill-rule="evenodd" clip-rule="evenodd" d="M182.969 333.354C182.969 333.354 182.969 333.372 182.951 333.372V333.354H182.969Z" fill="#C79C89"/>
<path fill-rule="evenodd" clip-rule="evenodd" d="M312.991 292.896C309.08 295.941 308.864 296.825 304.773 299.636C301.98 301.546 298.97 303.51 295.835 305.15C290.897 307.691 286.067 318.702 282.679 323.297C276.552 331.551 270.407 339.913 263.667 347.68C253.413 359.556 239.753 373.215 222.904 368.476C216.272 366.62 210.397 362.925 204.883 358.745V358.727L203.856 354.095C202.72 349.049 201.567 344.039 200.396 339.156L208.108 328.559C209.334 329.533 210.649 330.578 212.037 331.677C217.966 336.363 227.085 341.877 234.725 337.696C237.086 336.399 238.87 334.29 240.6 332.218C252.368 318.107 265.848 307.205 275.002 291.184C278.661 284.732 291.456 275.199 291.69 275.398C296.105 279.272 282.265 288.445 290.23 290.445C293.546 291.274 298.934 287.634 301.403 285.688C307.098 281.164 312.54 278.659 313.567 280.083C314.162 280.912 304.539 289.796 302.358 292.211C305.314 291.743 316.757 284.732 319.55 285.345C321.659 285.778 313.657 292.391 312.991 292.896Z" fill="#C79C89"/>
<path fill-rule="evenodd" clip-rule="evenodd" d="M162.75 306.214H162.732L162.642 305.529C162.678 305.746 162.714 305.962 162.75 306.214Z" fill="#96DAD5"/>
<path fill-rule="evenodd" clip-rule="evenodd" d="M182.969 333.354C182.969 333.354 182.969 333.372 182.951 333.372V333.354H182.969Z" fill="#96DAD5"/>
<path fill-rule="evenodd" clip-rule="evenodd" d="M185.156 294.141C184.074 293.492 183.137 292.915 182.38 292.483C181.209 291.78 180.488 291.365 180.362 291.293V304.449C180.362 305.115 180.2 305.692 179.894 306.161C179.731 306.395 179.551 306.611 179.335 306.809C179.047 307.062 178.704 307.278 178.308 307.458C178.127 307.548 177.947 307.62 177.767 307.674C177.389 307.819 176.974 307.927 176.524 307.999C176.361 308.035 176.181 308.053 176.001 308.071C175.352 308.179 174.631 308.215 173.875 308.215C173.514 308.215 173.136 308.197 172.757 308.179C172.469 308.161 172.163 308.143 171.874 308.107C171.568 308.089 171.261 308.053 170.937 308.017C170.595 307.981 170.234 307.945 169.874 307.873C168.973 307.746 168.054 307.566 167.099 307.368C166.648 307.278 166.198 307.17 165.747 307.044C165.621 307.026 165.495 306.99 165.369 306.954C164.504 306.737 163.621 306.485 162.756 306.215H162.738C162.575 306.161 162.413 306.125 162.269 306.071C160.773 305.602 159.296 305.061 157.854 304.467C157.295 304.232 156.755 303.998 156.214 303.764C155.781 303.566 155.367 303.367 154.953 303.169C154.484 302.935 154.033 302.701 153.583 302.466C153.096 302.214 152.628 301.944 152.177 301.673C152.105 301.655 152.051 301.619 151.997 301.583V301.565C151.799 301.475 151.619 301.349 151.438 301.241C151.24 301.133 151.06 301.025 150.898 300.898C150.826 300.862 150.754 300.826 150.7 300.772C150.429 300.592 150.159 300.412 149.907 300.232C149.168 299.727 148.501 299.205 147.906 298.664L148.105 293.546L148.303 288.464C147.276 288.32 146.266 288.266 145.275 288.302C145.095 288.284 144.915 288.302 144.735 288.32C144.735 288.32 144.681 288.32 144.59 288.338C144.518 288.338 144.41 288.356 144.302 288.356C144.212 288.374 144.104 288.374 144.014 288.374H143.924C143.095 288.446 142.302 288.572 141.509 288.77C140.265 289.041 139.076 289.455 137.923 289.96C140.896 301.8 146.483 324.47 146.483 324.488C146.699 330.957 137.04 372.316 121.848 374.839C120.118 375.145 118.334 375.289 116.496 375.289H112.441C110.855 377.524 109.251 379.776 107.683 381.975L107.665 381.993C102.205 391.292 97.5377 399.401 96.2041 401.744C96.1501 401.852 96.114 401.942 96.06 402.032C95.7176 402.645 95.3752 403.258 95.0508 403.888C95.6094 404.105 96.1681 404.303 96.7448 404.519C98.7991 405.276 100.89 405.979 102.98 406.61C105.215 407.312 107.485 407.961 109.756 408.538C111.36 408.952 112.982 409.349 114.604 409.691C115.901 409.979 117.217 410.25 118.532 410.502C118.766 410.556 119.001 410.592 119.253 410.646C119.74 410.736 120.226 410.826 120.713 410.917C121.361 411.043 122.028 411.169 122.677 411.277H122.731C134.589 413.367 146.681 414.196 158.629 414.395H159.458C161.512 414.359 163.585 414.304 165.657 414.232C168.18 414.142 170.703 414.016 173.226 413.854C178.74 413.512 184.255 412.971 189.733 412.178C193.013 411.709 196.293 411.169 199.554 410.502C201.086 410.214 202.618 409.889 204.132 409.547C205.321 409.277 206.511 409.006 207.7 408.7C209.826 408.177 211.935 407.601 214.025 406.97C214.205 406.916 214.368 406.862 214.548 406.808C214.332 405.636 214.097 404.447 213.863 403.258C213.665 402.158 213.449 401.041 213.232 399.906C212.638 396.77 212.007 393.544 211.376 390.246C210.385 385.165 209.34 379.957 208.259 374.676C207.826 372.586 207.394 370.496 206.961 368.405C206.925 368.207 206.871 367.991 206.835 367.792C206.186 364.765 205.555 361.773 204.889 358.746V358.728L203.861 354.096C202.726 349.051 201.573 344.041 200.401 339.157L208.114 328.561L209.808 326.236L215.755 318.091L217.305 315.928C218.386 314.432 195.41 300.304 185.156 294.141Z" fill="#96DAD5"/>
<path fill-rule="evenodd" clip-rule="evenodd" d="M137.917 289.959C132.042 292.464 127.141 297.528 122.978 302.502C113.517 313.855 106.471 326.199 97.8926 338.147L99.6406 339.373L100.199 339.787C100.307 339.535 100.416 339.3 100.524 339.066L110.453 344.941L111.895 345.806L117.391 349.032L119.157 350.077L124.996 353.537C120.455 360.475 113.589 371.9 107.678 381.974C109.246 379.776 110.85 377.523 112.436 375.288H116.49C118.328 375.288 120.112 375.144 121.842 374.838C137.034 372.315 146.693 330.957 146.477 324.487C146.477 324.469 140.891 301.799 137.917 289.959Z" fill="#96DAD5"/>
<path fill-rule="evenodd" clip-rule="evenodd" d="M125.105 355.7C125.105 355.718 125.105 355.736 125.087 355.736C125.069 355.736 125.069 355.718 125.051 355.718C125.033 355.7 125.033 355.7 125.051 355.682H125.069C125.087 355.682 125.087 355.7 125.105 355.7Z" fill="#96DAD5"/>
<path fill-rule="evenodd" clip-rule="evenodd" d="M140.062 330.892L125.825 353.436C125.753 353.544 125.627 353.562 125.519 353.508C124.69 353.003 123.861 352.499 123.05 351.976C123.014 351.958 122.978 351.922 122.942 351.904C122.113 351.381 121.284 350.859 120.455 350.336C119.194 349.543 116.995 348.101 115.986 347.435C115.662 347.2 115.445 347.074 115.445 347.056H115.463C117.211 348.029 118.923 349.039 120.635 350.048C121.5 350.552 122.365 351.075 123.23 351.58C124.023 352.066 124.798 352.535 125.573 353.021L125.609 352.949L140.026 330.873C140.026 330.855 140.044 330.855 140.044 330.855C140.062 330.873 140.062 330.873 140.062 330.892Z" fill="#2A8C79"/>
<path fill-rule="evenodd" clip-rule="evenodd" d="M125.002 353.537C120.461 360.475 113.595 371.901 107.684 381.974L107.666 381.992C102.205 391.291 97.5379 399.401 96.2043 401.743C96.1502 401.852 96.1142 401.942 96.0601 402.032C95.7177 402.644 95.3753 403.257 95.051 403.888C91.4468 410.52 88.2571 417.404 84.6168 424.035C83.1391 426.72 81.8776 428.973 81.1388 430.181C81.0847 430.271 80.9946 430.397 80.9045 430.541C80.9045 430.541 80.9045 430.559 80.8865 430.559C79.5349 432.649 77.6787 434.74 75.7325 436.452C75.6964 436.47 75.6784 436.488 75.6604 436.524C75.3901 436.74 75.1198 436.974 74.8494 437.191C73.4438 438.344 70.7587 441.083 68.9386 440.579C68.5781 440.47 68.2538 440.254 67.9835 439.876C66.9563 438.452 70.146 434.848 70.9029 433.821C72.3806 431.748 75.2639 429.045 75.7865 426.54C73.7321 427.477 71.858 429.352 70.0018 430.613C67.1004 432.613 64.181 434.668 60.9012 436.055C59.5316 436.65 58.0719 435.244 58.8108 433.965C59.2253 433.262 59.8019 432.487 60.4867 431.694C62.7394 428.955 66.0732 425.982 67.9474 423.801C64.0729 425.657 57.1709 433.55 52.9359 431.064C51.1879 430.036 60.1984 422.63 64.8838 417.692C59.7118 419.8 48.8812 424.143 48.1604 421.729C48.0162 419.53 55.0624 414.7 60.4507 412.448C62.2888 411.655 65.6587 407.15 66.722 404.501C67.3527 402.933 68.434 401.707 70.128 400.482C70.5605 399.455 70.9569 398.391 71.4255 397.364C71.8039 396.517 72.1823 395.652 72.5968 394.805C74.1286 391.471 75.7865 388.246 77.5526 385.038C83.2292 374.748 89.4825 364.71 94.4563 353.826C96.3665 349.699 98.0605 344.509 100.205 339.787C100.313 339.535 100.421 339.301 100.529 339.066L110.459 344.941L111.901 345.806L117.397 349.032L119.163 350.077L125.002 353.537Z" fill="#C79C89"/>
<path fill-rule="evenodd" clip-rule="evenodd" d="M182.969 333.354C182.969 333.354 182.969 333.372 182.951 333.372V333.354H182.969Z" fill="#C79C89"/>
<path fill-rule="evenodd" clip-rule="evenodd" d="M312.991 292.896C309.08 295.941 308.864 296.825 304.773 299.636C301.98 301.546 298.97 303.51 295.835 305.15C290.897 307.691 286.067 318.702 282.679 323.297C276.552 331.551 270.407 339.913 263.667 347.68C253.413 359.556 239.753 373.215 222.904 368.476C216.272 366.62 210.397 362.925 204.883 358.745V358.727L203.856 354.095C202.72 349.049 201.567 344.039 200.396 339.156L208.108 328.559C209.334 329.533 210.649 330.578 212.037 331.677C217.966 336.363 227.085 341.877 234.725 337.696C237.086 336.399 238.87 334.29 240.6 332.218C252.368 318.107 265.848 307.205 275.002 291.184C278.661 284.732 291.456 275.199 291.69 275.398C296.105 279.272 282.265 288.445 290.23 290.445C293.546 291.274 298.934 287.634 301.403 285.688C307.098 281.164 312.54 278.659 313.567 280.083C314.162 280.912 304.539 289.796 302.358 292.211C305.314 291.743 316.757 284.732 319.55 285.345C321.659 285.778 313.657 292.391 312.991 292.896Z" fill="#C79C89"/>
<path fill-rule="evenodd" clip-rule="evenodd" d="M162.75 306.214H162.732L162.642 305.529C162.678 305.746 162.714 305.962 162.75 306.214Z" fill="#96DAD5"/>
<path fill-rule="evenodd" clip-rule="evenodd" d="M182.969 333.354C182.969 333.354 182.969 333.372 182.951 333.372V333.354H182.969Z" fill="#96DAD5"/>
<path fill-rule="evenodd" clip-rule="evenodd" d="M182.38 292.483C181.209 291.78 180.488 291.365 180.362 291.293L148.303 288.464C147.276 288.32 146.266 288.266 145.275 288.302C145.095 288.284 144.915 288.302 144.735 288.32C144.735 288.32 144.681 288.32 144.59 288.338C144.518 288.338 144.41 288.356 144.302 288.356C144.212 288.374 144.104 288.374 144.014 288.374H143.924C143.095 288.446 142.302 288.572 141.509 288.77C140.265 289.041 139.076 289.455 137.923 289.96C140.896 301.8 146.483 324.47 146.483 324.488C146.699 330.957 137.04 372.316 121.848 374.839C120.118 375.145 118.334 375.289 116.496 375.289H112.441C110.855 377.524 109.251 379.776 107.683 381.975L107.665 381.993C102.205 391.292 97.5377 399.401 96.2041 401.744C96.1501 401.852 96.114 401.942 96.06 402.032C95.7176 402.645 95.3752 403.258 95.0508 403.888C95.6094 404.105 96.1681 404.303 96.7448 404.519C98.7991 405.276 100.89 405.979 102.98 406.61C105.215 407.312 107.485 407.961 109.756 408.538C111.36 408.952 112.982 409.349 114.604 409.691C115.901 409.979 117.217 410.25 118.532 410.502C118.766 410.556 119.001 410.592 119.253 410.646C119.74 410.736 120.226 410.826 120.713 410.917C121.361 411.043 122.028 411.169 122.677 411.277H122.731C134.589 413.367 146.681 414.196 158.629 414.395H159.458C161.512 414.359 163.585 414.304 165.657 414.232C168.18 414.142 170.703 414.016 173.226 413.854C178.74 413.512 184.255 412.971 189.733 412.178C193.013 411.709 196.293 411.169 199.554 410.502C201.086 410.214 202.618 409.889 204.132 409.547C205.321 409.277 206.511 409.006 207.7 408.7C209.826 408.177 211.935 407.601 214.025 406.97C214.205 406.916 214.368 406.862 214.548 406.808C214.332 405.636 214.097 404.447 213.863 403.258C213.665 402.158 213.449 401.041 213.232 399.906C212.638 396.77 212.007 393.544 211.376 390.246C210.385 385.165 209.34 379.957 208.259 374.676C207.826 372.586 207.394 370.496 206.961 368.405C206.925 368.207 206.871 367.991 206.835 367.792C206.186 364.765 205.555 361.773 204.889 358.746V358.728L203.861 354.096C202.726 349.051 201.573 344.041 200.401 339.157L208.114 328.561L209.808 326.236L215.755 318.091L217.305 315.928C218.386 314.432 195.41 300.304 185.156 294.141C184.074 293.492 183.137 292.915 182.38 292.483Z" fill="#F2E14A"/>
<path fill-rule="evenodd" clip-rule="evenodd" d="M137.917 289.959C132.042 292.464 127.141 297.528 122.978 302.502C113.517 313.855 106.471 326.199 97.8926 338.147L99.6406 339.373L100.199 339.787C100.307 339.535 100.416 339.3 100.524 339.066L110.453 344.941L111.895 345.806L117.391 349.032L119.157 350.077L124.996 353.537C120.455 360.475 113.589 371.9 107.678 381.974C109.246 379.776 110.85 377.523 112.436 375.288H116.49C118.328 375.288 120.112 375.144 121.842 374.838C137.034 372.315 146.693 330.957 146.477 324.487C146.477 324.469 140.891 301.799 137.917 289.959Z" fill="#F2E14A"/>
<path fill-rule="evenodd" clip-rule="evenodd" d="M125.105 355.7C125.105 355.718 125.105 355.736 125.087 355.736C125.069 355.736 125.069 355.718 125.051 355.718C125.033 355.7 125.033 355.7 125.051 355.682H125.069C125.087 355.682 125.087 355.7 125.105 355.7Z" fill="#96DAD5"/>
<path fill-rule="evenodd" clip-rule="evenodd" d="M140.062 330.892L125.825 353.436C125.753 353.544 125.627 353.562 125.519 353.508C124.69 353.003 123.861 352.499 123.05 351.976C123.014 351.958 122.978 351.922 122.942 351.904C122.113 351.381 121.284 350.859 120.455 350.336C119.194 349.543 116.995 348.101 115.986 347.435C115.662 347.2 115.445 347.074 115.445 347.056H115.463C117.211 348.029 118.923 349.039 120.635 350.048C121.5 350.552 122.365 351.075 123.23 351.58C124.023 352.066 124.798 352.535 125.573 353.021L125.609 352.949L140.026 330.873C140.026 330.855 140.044 330.855 140.044 330.855C140.062 330.873 140.062 330.873 140.062 330.892Z" fill="#2A8C79"/>
<path fill-rule="evenodd" clip-rule="evenodd" d="M125.002 353.537C120.461 360.475 113.595 371.901 107.684 381.974L107.666 381.992C102.205 391.291 97.5379 399.401 96.2043 401.743C96.1502 401.852 96.1142 401.942 96.0601 402.032C95.7177 402.644 95.3753 403.257 95.051 403.888C91.4468 410.52 88.2571 417.404 84.6168 424.035C83.1391 426.72 81.8776 428.973 81.1388 430.181C81.0847 430.271 80.9946 430.397 80.9045 430.541C80.9045 430.541 80.9045 430.559 80.8865 430.559C79.5349 432.649 77.6787 434.74 75.7325 436.452C75.6964 436.47 75.6784 436.488 75.6604 436.524C75.3901 436.74 75.1198 436.974 74.8494 437.191C73.4438 438.344 70.7587 441.083 68.9386 440.579C68.5781 440.47 68.2538 440.254 67.9835 439.876C66.9563 438.452 70.146 434.848 70.9029 433.821C72.3806 431.748 75.2639 429.045 75.7865 426.54C73.7321 427.477 71.858 429.352 70.0018 430.613C67.1004 432.613 64.181 434.668 60.9012 436.055C59.5316 436.65 58.0719 435.244 58.8108 433.965C59.2253 433.262 59.8019 432.487 60.4867 431.694C62.7394 428.955 66.0732 425.982 67.9474 423.801C64.0729 425.657 57.1709 433.55 52.9359 431.064C51.1879 430.036 60.1984 422.63 64.8838 417.692C59.7118 419.8 48.8812 424.143 48.1604 421.729C48.0162 419.53 55.0624 414.7 60.4507 412.448C62.2888 411.655 65.6587 407.15 66.722 404.501C67.3527 402.933 68.434 401.707 70.128 400.482C70.5605 399.455 70.9569 398.391 71.4255 397.364C71.8039 396.517 72.1823 395.652 72.5968 394.805C74.1286 391.471 75.7865 388.246 77.5526 385.038C83.2292 374.748 89.4825 364.71 94.4563 353.826C96.3665 349.699 98.0605 344.509 100.205 339.787C100.313 339.535 100.421 339.301 100.529 339.066L110.459 344.941L111.901 345.806L117.397 349.032L119.163 350.077L125.002 353.537Z" fill="#C79C89"/>
<path fill-rule="evenodd" clip-rule="evenodd" d="M208.26 374.677C207.809 372.587 204.958 359.062 204.958 359.062L203.924 354.377C202.734 349.331 201.621 344.04 200.395 339.156C199.891 337.156 198.204 335.194 197.699 333.265C197.447 332.292 197.177 331.319 196.942 330.382C195.915 326.561 194.906 322.849 193.861 319.317C193.609 318.434 193.356 317.569 193.104 316.704C193.014 316.47 192.96 316.235 192.888 316.001C192.581 314.992 192.293 313.983 191.987 312.992C191.23 310.577 190.491 308.27 189.734 306.072C188.202 301.512 186.67 297.494 185.157 294.142C184.075 293.493 183.138 292.916 182.381 292.484L186.688 307.135C186.688 307.135 187.86 311.117 187.86 311.136L190.491 320.092C191.05 321.93 191.031 323.786 190.545 325.516C190.545 332.995 179.12 334.184 173.389 334.094C167.983 334.004 158.395 333.007 156.197 328.772C152.286 321.293 140.807 289.036 139.563 289.306C138.32 289.577 139.077 289.456 137.924 289.961C140.897 301.801 146.484 324.471 146.484 324.489C146.7 330.959 137.041 372.317 121.849 374.84C120.119 375.146 118.335 375.29 116.497 375.29H112.442C110.856 377.525 109.252 379.777 107.684 381.976L107.666 381.994C102.206 391.293 97.5387 399.402 96.2051 401.745C96.151 401.853 96.115 401.943 96.0609 402.033C95.7185 402.646 95.3761 403.259 95.0518 403.889C95.6104 404.106 96.1691 404.304 96.7457 404.52C98.8001 405.277 100.891 405.98 102.981 406.611C105.216 407.313 107.486 407.962 109.757 408.539C111.361 408.953 112.983 409.35 114.605 409.692C115.902 409.981 117.218 410.251 118.533 410.503C118.767 410.557 119.002 410.593 119.254 410.647C119.741 410.737 120.227 410.828 120.714 410.918C121.362 411.044 122.029 411.17 122.678 411.278H122.732C134.59 413.368 146.682 414.197 158.63 414.396H159.459C161.513 414.36 163.586 414.306 165.658 414.234C168.181 414.143 170.704 414.017 173.227 413.855C178.741 413.513 184.256 412.972 189.734 412.179C193.014 411.711 196.294 411.17 199.555 410.503C201.087 410.215 202.619 409.89 204.133 409.548C205.322 409.278 206.512 409.007 207.701 408.701C209.827 408.178 211.936 407.602 214.026 406.971C214.008 406.917 214.567 406.863 214.55 406.809C214.315 405.637 209.395 379.958 208.26 374.677Z" fill="#9B51E0"/>
<path fill-rule="evenodd" clip-rule="evenodd" d="M169.56 348.1C170.727 360.992 178.121 370.858 186.076 370.138C194.028 369.419 199.528 358.382 198.363 345.49L169.56 348.1Z" fill="black"/>
<path fill-rule="evenodd" clip-rule="evenodd" d="M177.088 210.015C174.294 217.367 164.653 218.917 157.733 217.944C155.408 217.602 153.156 216.881 151.065 215.835C151.534 215.98 152.003 216.142 152.489 216.232C154.237 216.682 156.003 216.899 157.751 216.935C166.618 217.079 174.763 212.159 177.142 204.681C177.268 204.248 177.466 203.834 177.736 203.455C178.115 205.636 177.899 207.924 177.088 210.015Z" fill="#C79C89"/>
<path fill-rule="evenodd" clip-rule="evenodd" d="M150.741 269.791C150.741 269.791 151.804 270.602 153.534 271.899C153.552 271.917 153.571 271.917 153.589 271.936C153.589 271.936 153.607 271.936 153.607 271.954C153.625 271.954 153.625 271.972 153.643 271.972C161.5 276.531 170.474 279.612 180.422 281.324V280.568L150.741 269.791Z" fill="#C79C89"/>
<path fill-rule="evenodd" clip-rule="evenodd" d="M255.065 236.525C254.164 236.579 253.263 236.507 252.398 236.29C252.163 236.236 250.019 235.624 250.776 235.191C250.938 235.101 251.136 235.119 251.298 235.155C251.479 235.173 251.641 235.191 251.803 235.227C252.848 235.425 253.821 235.822 254.957 235.75C255.443 235.714 255.533 236.489 255.065 236.525ZM188.856 255.609C180.025 255.609 172.853 248.437 172.853 239.606C172.853 230.776 180.025 223.622 188.856 223.622C197.686 223.622 204.84 230.776 204.84 239.606C204.84 248.437 197.686 255.609 188.856 255.609ZM131.171 225.712L130.954 226.163L130.558 225.91C129.387 225.171 127.927 224.793 126.485 224.775C125.061 224.739 123.548 225.081 122.539 226.072C121.493 227.046 121.421 228.704 121.818 230.055C122.286 231.425 123.476 232.542 124.899 232.884L124.863 233.047C123.368 232.74 122.07 231.623 121.511 230.163C121.025 228.74 121.007 226.937 122.196 225.73C123.313 224.559 124.953 224.144 126.485 224.108C127.873 224.09 129.26 224.36 130.54 224.991C131.225 222.991 131.008 220.792 129.801 219.116C128.54 217.314 126.449 216.179 124.341 215.386C122.214 214.629 119.926 214.197 117.655 214.251C115.42 214.269 113.204 214.881 111.293 215.909C107.383 218.071 105.635 222.667 105.707 227.136C105.761 231.677 107.383 236.2 110.122 239.985L109.996 240.093C108.32 238.417 106.968 236.398 105.995 234.2C104.986 232.019 104.355 229.641 104.247 227.19C104.103 224.757 104.391 222.234 105.437 219.945C106.428 217.639 108.23 215.62 110.483 214.449C112.735 213.332 115.204 212.773 117.673 212.827C120.106 212.881 122.503 213.386 124.773 214.251C127.008 215.17 129.224 216.431 130.648 218.54C132.09 220.648 132.18 223.495 131.171 225.712ZM264.562 219.08C263.282 217.891 261.679 217.098 260.003 216.684C260.057 215.278 260.129 213.872 260.129 212.449C260.129 205.493 259.318 198.753 257.786 192.337C255.786 191.4 253.966 189.832 252.632 187.742C251.767 186.372 251.172 184.895 250.866 183.435C250.091 184.102 249.262 184.714 248.397 185.273C236.647 192.788 220.032 187.796 211.292 174.136C210.661 173.163 210.102 172.154 209.58 171.145C209.292 171.235 209.021 171.343 208.733 171.451C205.273 172.839 203.651 176.01 201.651 178.93C199.794 181.633 197.326 183.579 194.352 184.967C195.487 189.111 195.776 193.653 194.298 197.743C192.947 201.546 190.099 204.357 186.243 204.772C184.188 204.988 182.134 204.628 180.098 204.069C181.251 205.24 182.296 206.538 183.125 207.961C183.197 208.106 183.143 208.34 183.089 208.466C183.017 208.682 182.855 208.898 182.693 209.043C182.458 209.241 182.026 209.493 181.81 209.151C181.089 207.907 180.206 206.79 179.233 205.745C178.926 209.998 176.692 214.143 173.033 216.485C169.429 218.81 164.798 219.711 160.563 219.711C156.328 219.711 152.129 218.72 148.471 216.521C146.056 215.062 143.947 213.097 142.362 210.791C141.875 210.773 141.262 210.791 140.956 210.809C140.469 212.647 139.983 214.503 139.478 216.359C139.37 216.774 139.1 217.188 138.685 217.35C138.361 217.476 138.037 217.278 138.127 216.9C138.667 214.881 139.208 212.863 139.749 210.827C139.622 210.845 139.496 210.845 139.352 210.845C138.559 211.962 137.748 213.097 136.937 214.215C136.775 214.449 136.289 214.845 135.982 214.593C135.676 214.341 136 213.818 136.162 213.584C136.577 213.007 136.991 212.467 137.388 211.89C137.226 211.944 137.063 211.998 136.883 212.052C135.622 212.395 134.559 212.25 133.585 211.854C132.612 211.439 131.729 210.773 130.81 210.016C128.828 208.412 126.81 206.844 124.755 205.33C123.404 204.321 122.034 203.348 120.646 202.375C119.745 201.744 118.412 200.284 117.312 200.086C117.204 200.068 117.096 200.068 116.988 200.068H116.952H116.934C115.42 200.393 113.943 200.843 112.483 201.42C112.465 201.438 112.429 201.438 112.411 201.456H112.393C112.357 201.474 112.339 201.492 112.303 201.51C111.726 201.762 111.221 202.032 110.807 202.213C108.771 203.15 106.842 204.339 105.076 205.745C104.283 206.394 103.526 207.06 102.824 207.763C102.175 208.412 101.58 209.097 101.021 209.782C100.985 209.818 100.949 209.872 100.913 209.926C100.859 209.98 100.823 210.052 100.769 210.106C100.301 210.719 99.8501 211.331 99.4537 211.962C99.2915 212.214 99.1113 212.467 98.9491 212.737C98.7869 212.989 98.6427 213.242 98.4986 213.512C98.3904 213.692 98.3003 213.872 98.2102 214.071C98.1562 214.179 98.1021 214.287 98.048 214.377L98.03 214.395C98.03 214.431 98.012 214.467 97.994 214.485C97.8678 214.737 97.7417 214.99 97.6336 215.26C97.5254 215.476 97.4353 215.692 97.3632 215.909C97.3272 216.017 97.2731 216.107 97.2371 216.215C97.111 216.539 96.9848 216.864 96.8767 217.188C96.8406 217.224 96.8406 217.26 96.8406 217.296C96.7866 217.404 96.7505 217.531 96.7145 217.639C96.6965 217.675 96.6965 217.693 96.6784 217.729C96.6604 217.783 96.6424 217.837 96.6244 217.891C96.6244 217.909 96.6064 217.945 96.6064 217.963C96.6064 217.999 96.5883 218.017 96.5883 218.053C96.5163 218.233 96.4622 218.414 96.4262 218.594C96.3 218.972 96.2099 219.351 96.1198 219.729C95.9936 220.216 95.9035 220.72 95.8134 221.207C95.7414 221.639 95.6873 222.054 95.6332 222.486C94.8763 229.37 97.0569 236.525 102.337 242.165C109.654 249.968 120.881 252.707 130.954 250.13C131.189 250.491 131.405 250.851 131.657 251.194C131.675 251.212 131.693 251.23 131.693 251.248C131.711 251.266 131.729 251.284 131.729 251.302C131.747 251.32 131.765 251.338 131.765 251.356C131.783 251.374 131.801 251.392 131.801 251.41C131.819 251.428 131.837 251.446 131.837 251.464C131.855 251.482 131.855 251.482 131.873 251.5C136.307 257.141 139.478 260.204 143.713 264.187C145.173 265.538 146.723 266.962 148.525 268.674L148.561 268.71C148.759 268.854 148.975 268.998 149.192 269.143C150.597 270.116 152.039 271.035 153.535 271.9C151.805 270.602 150.741 269.791 150.741 269.791L180.422 280.568V281.325C186.621 282.388 193.199 282.911 200.101 282.911C212.896 282.911 228.466 280.334 238.738 269.539V269.521C242.234 265.863 245.424 261.664 248.217 256.996C248.289 256.888 248.361 256.78 248.415 256.672C248.451 256.6 248.487 256.546 248.523 256.492C249.046 255.591 249.55 254.69 250.037 253.753C250.217 253.446 250.379 253.122 250.542 252.798C251.046 251.842 251.533 250.869 252.001 249.878L253.028 247.553C254.578 244.021 255.876 240.309 256.939 236.453C257.011 236.453 257.029 236.489 257.083 236.489C262.471 236.561 266.869 231.731 267.283 226.415C267.535 223.694 266.544 220.918 264.562 219.08Z" fill="#C79C89"/>
<path fill-rule="evenodd" clip-rule="evenodd" d="M253.046 247.553C252.704 248.328 252.361 249.103 252.001 249.877L253.028 247.553H253.046Z" fill="#672448"/>
<path fill-rule="evenodd" clip-rule="evenodd" d="M112.393 201.455C112.357 201.473 112.339 201.491 112.303 201.509C111.726 201.761 111.222 202.032 110.807 202.212C108.771 203.149 106.842 204.338 105.076 205.744C104.283 206.393 103.527 207.06 102.824 207.762C102.175 208.411 101.58 209.096 101.022 209.781C100.986 209.817 100.95 209.871 100.914 209.925C100.859 209.979 100.823 210.051 100.769 210.105C100.301 210.718 99.8503 211.331 99.4538 211.961C99.2916 212.214 99.1114 212.466 98.9492 212.736C100.481 210.123 102.553 207.708 105.13 205.654C107.365 203.852 109.834 202.464 112.393 201.455Z" fill="#672448"/>
<path fill-rule="evenodd" clip-rule="evenodd" d="M177.088 210.015C174.295 217.368 164.654 218.917 157.734 217.944C155.409 217.602 153.156 216.881 151.066 215.836C151.534 215.98 152.003 216.142 152.489 216.232C154.237 216.683 156.004 216.899 157.752 216.935C166.618 217.079 174.763 212.159 177.142 204.681C177.268 204.248 177.467 203.834 177.737 203.455C178.115 205.636 177.899 207.925 177.088 210.015ZM119.835 262.456C120.088 262.564 120.358 262.654 120.61 262.762C115.528 264.601 110.176 265.682 104.752 265.448C94.8584 265.015 85.4694 260.113 80.7119 251.247C80.0631 250.04 79.5225 248.778 79.054 247.499C80.3335 249.697 81.9734 251.806 83.9557 253.752C93.3446 262.961 107.743 266.078 119.835 262.456ZM125.35 264.528C126.683 266.529 128.251 268.439 130.089 270.241C131.837 271.971 136.721 271.43 143.677 269.196V268.331C143.767 268.349 143.875 268.349 143.984 268.349C143.911 270.908 140.722 271.557 138.613 271.773C136.289 271.989 133.91 271.845 131.657 271.124C128.287 270.061 125.368 267.502 124.305 264.168C124.647 264.276 124.989 264.42 125.35 264.528ZM51.5359 182.497C52.473 189.705 57.3747 196.499 64.8715 202.158C64.2587 202.626 63.6821 203.113 63.1234 203.6C60.1139 202.608 57.2306 201.275 54.7437 199.256C45.8773 192.102 46.1477 178.514 51.572 169.378C55.6627 162.44 62.781 158.006 70.53 156.799C57.6631 162.602 50.1483 171.829 51.5359 182.497ZM271.049 164.134C278.726 152.366 275.465 135.066 261.895 121.73C251.659 111.675 237.963 106.268 225.528 106.268C226.502 102.25 226.43 99.4923 225.06 98.8075C223.618 98.0867 220.933 99.9248 217.743 103.493C217.888 101.727 218.446 100.015 219.455 98.5372C219.6 98.3029 219.744 97.7623 219.365 97.6542C218.969 97.5461 218.59 98.0326 218.392 98.3029C217.041 100.321 216.356 102.718 216.356 105.115C216.248 105.259 216.14 105.367 216.031 105.511C215.977 105.439 215.923 105.367 215.869 105.277C215.509 102.826 215.148 100.375 214.788 97.9245C214.662 97.0595 213.328 98.1948 213.418 98.8255C213.617 100.123 213.797 101.439 213.995 102.754C208.625 96.0143 201.182 90.8062 192.388 88.4274C179.629 85.0035 167.122 88.2653 158.436 96.0864V93.0048C158.436 92.5723 157.932 92.6804 157.698 92.8246C157.337 93.0588 157.049 93.4733 157.049 93.8878V97.0955L155.679 95.1132C155.445 94.7888 155.048 95.0051 154.796 95.2214C154.634 95.3655 154.472 95.5818 154.4 95.798C154.364 95.9061 154.292 96.1765 154.382 96.3026C154.724 96.7892 155.066 97.2938 155.409 97.7803C151.877 95.9061 148.128 94.3563 144.146 93.2751C116.249 85.7243 89.1277 101.943 83.5953 129.533C82.9645 132.579 82.6942 135.624 82.6582 138.634C80.9462 136.796 79.2342 134.94 77.5042 133.101C77.0717 132.615 75.9003 133.966 76.3688 134.489C78.4413 136.724 80.5137 138.94 82.5681 141.175C79.7027 139.355 76.7293 137.751 73.6477 136.327C73.071 136.057 72.0438 137.517 72.7646 137.841C75.5038 139.102 78.1529 140.526 80.7299 142.112C74.747 141.355 70.3859 142.094 69.4488 144.563C68.4396 147.068 71.2869 150.78 76.4589 154.474C76.0445 154.618 75.63 154.781 75.2335 154.925C70.5841 154.961 65.9888 156.114 61.8619 158.277C51.7702 163.593 45.4088 175.072 46.472 186.48C47.0127 192.318 49.6077 197.797 54.4193 201.275C56.6359 202.897 59.1047 204.05 61.6998 204.933C57.3207 209.366 55.6988 214.178 57.9334 218.287C60.5464 223.044 67.7548 225.747 76.6752 226.036C75.0533 227.027 73.4314 228.036 71.8095 229.027C71.4852 229.225 71.1247 229.694 71.1608 230.09C71.2148 230.505 71.6473 230.433 71.8996 230.271L76.6031 227.387C75.5939 230.541 75.2335 233.857 75.5759 237.173C75.612 238.416 75.684 239.678 75.8462 240.921C77.0176 250.4 82.0635 259.122 90.7316 263.555C100.661 268.637 112.231 267.538 122.304 263.447C122.394 263.483 122.466 263.519 122.557 263.555C123.205 268.745 127.909 272.314 132.919 273.161C135.658 273.611 138.938 273.593 141.551 272.53C143.299 271.809 144.867 270.295 145.281 268.457C146.362 268.547 147.444 268.655 148.561 268.709L148.525 268.673C146.723 266.961 145.173 265.538 143.713 264.186C139.478 260.203 136.307 257.14 131.873 251.499C131.855 251.481 131.855 251.481 131.837 251.463C131.837 251.445 131.819 251.427 131.801 251.409C131.801 251.391 131.783 251.373 131.765 251.355C131.765 251.337 131.747 251.319 131.729 251.301C131.729 251.283 131.711 251.265 131.693 251.247C131.693 251.229 131.675 251.211 131.657 251.193C131.405 250.869 131.153 250.544 130.9 250.22C120.827 252.815 109.6 250.058 102.283 242.255C96.9848 236.596 94.7863 229.406 95.6333 222.486C95.6873 222.053 95.7414 221.639 95.8135 221.206C95.9036 220.719 95.9937 220.215 96.1198 219.728C96.2099 219.35 96.3 218.971 96.4262 218.593C96.4622 218.413 96.5163 218.233 96.5884 218.052C96.5884 218.016 96.6064 217.998 96.6064 217.962C96.6064 217.944 96.6244 217.908 96.6244 217.89C96.6424 217.836 96.6605 217.782 96.6785 217.728C96.6965 217.692 96.6965 217.674 96.7145 217.638C96.7506 217.53 96.7866 217.404 96.8407 217.295C96.8407 217.259 96.8407 217.223 96.8767 217.187C96.9848 216.863 97.111 216.539 97.2371 216.214C97.2732 216.106 97.3272 216.016 97.3633 215.908C97.4354 215.692 97.5255 215.475 97.6336 215.259C97.7417 214.989 97.8679 214.736 97.994 214.484C98.012 214.466 98.0301 214.43 98.0301 214.394L98.0481 214.376C98.1021 214.286 98.1562 214.178 98.2103 214.07C98.3004 213.871 98.3905 213.691 98.4986 213.511C98.6428 213.241 98.7869 212.988 98.9491 212.736C100.481 210.123 102.553 207.708 105.13 205.654C107.365 203.852 109.834 202.464 112.393 201.455H112.411C112.429 201.437 112.465 201.437 112.483 201.419C113.943 200.842 115.42 200.392 116.934 200.067H116.952H116.988C117.096 200.067 117.204 200.067 117.312 200.085C118.412 200.284 119.745 201.743 120.646 202.374C122.034 203.347 123.404 204.32 124.755 205.33C126.81 206.843 128.828 208.411 130.81 210.015C131.729 210.772 132.612 211.439 133.585 211.853C134.559 212.25 135.622 212.394 136.883 212.051C137.063 211.997 137.226 211.943 137.388 211.889C136.991 212.466 136.577 213.006 136.162 213.583C136 213.817 135.676 214.34 135.982 214.592C136.289 214.845 136.775 214.448 136.937 214.214C137.748 213.097 138.559 211.961 139.352 210.844C139.496 210.844 139.622 210.844 139.749 210.826C139.208 212.862 138.667 214.881 138.127 216.899C138.037 217.277 138.361 217.476 138.685 217.35C139.1 217.187 139.37 216.773 139.478 216.358C139.983 214.502 140.469 212.646 140.956 210.808C141.262 210.79 141.875 210.772 142.362 210.79C143.948 213.097 146.056 215.061 148.471 216.521C152.129 218.719 156.328 219.71 160.563 219.71C164.798 219.71 169.429 218.809 173.033 216.485C176.692 214.142 178.926 209.997 179.233 205.744C180.206 206.789 181.089 207.907 181.81 209.15C182.026 209.492 182.458 209.24 182.693 209.042C182.855 208.898 183.017 208.681 183.089 208.465C183.143 208.339 183.197 208.105 183.125 207.961C182.296 206.537 181.251 205.239 180.098 204.068C182.134 204.627 184.188 204.987 186.243 204.771C190.099 204.356 192.947 201.545 194.298 197.743C195.776 193.652 195.487 189.111 194.352 184.966C197.326 183.578 199.795 181.632 201.651 178.929C203.651 176.009 205.273 172.838 208.733 171.45C209.021 171.342 209.292 171.234 209.58 171.144C210.103 172.153 210.661 173.162 211.292 174.135C220.032 187.795 236.647 192.787 248.397 185.272C249.262 184.714 250.091 184.101 250.866 183.434C251.172 184.894 251.767 186.371 252.632 187.741C253.966 189.831 255.786 191.399 257.786 192.336C260.778 193.742 264.147 193.742 266.851 192.012C271.356 189.129 272.293 182.551 268.941 177.307C268.166 176.1 267.229 175.054 266.184 174.225C266.616 172.387 266.706 170.765 266.256 169.558C268.166 167.936 269.77 166.116 271.049 164.134Z" fill="black"/>
<path fill-rule="evenodd" clip-rule="evenodd" d="M131.171 225.711L130.955 226.161L130.558 225.909C129.387 225.17 127.927 224.792 126.485 224.774C125.062 224.738 123.548 225.08 122.539 226.071C121.494 227.044 121.422 228.702 121.818 230.054C122.287 231.423 123.476 232.541 124.9 232.883L124.864 233.045C123.368 232.739 122.07 231.622 121.512 230.162C121.025 228.738 121.007 226.936 122.196 225.729C123.314 224.558 124.954 224.143 126.485 224.107C127.873 224.089 129.261 224.359 130.54 224.99C131.225 222.99 131.009 220.791 129.801 219.115C128.54 217.313 126.449 216.178 124.341 215.385C122.214 214.628 119.926 214.195 117.655 214.25C115.421 214.268 113.204 214.88 111.294 215.907C107.383 218.07 105.635 222.665 105.707 227.135C105.761 231.676 107.383 236.199 110.122 239.983L109.996 240.092C108.32 238.416 106.969 236.397 105.996 234.199C104.986 232.018 104.356 229.639 104.248 227.189C104.103 224.756 104.392 222.233 105.437 219.944C106.428 217.637 108.23 215.619 110.483 214.448C112.735 213.33 115.204 212.772 117.673 212.826C120.106 212.88 122.503 213.384 124.773 214.25C127.008 215.169 129.225 216.43 130.648 218.539C132.09 220.647 132.18 223.494 131.171 225.711Z" fill="black"/>
<path fill-rule="evenodd" clip-rule="evenodd" d="M255.064 236.524C254.163 236.578 253.262 236.506 252.397 236.29C252.163 236.236 250.018 235.623 250.775 235.191C250.937 235.1 251.136 235.118 251.298 235.155C251.478 235.173 251.64 235.191 251.802 235.227C252.848 235.425 253.821 235.821 254.956 235.749C255.443 235.713 255.533 236.488 255.064 236.524Z" fill="black"/>
<path fill-rule="evenodd" clip-rule="evenodd" d="M204.84 239.606C204.84 248.436 197.685 255.608 188.855 255.608C180.025 255.608 172.853 248.436 172.853 239.606C172.853 230.775 180.025 223.621 188.855 223.621C197.685 223.621 204.84 230.775 204.84 239.606Z" fill="#C79C89"/>
<path fill-rule="evenodd" clip-rule="evenodd" d="M204.84 239.606C204.84 248.436 197.685 255.608 188.855 255.608C180.025 255.608 172.853 248.436 172.853 239.606C172.853 230.775 180.025 223.621 188.855 223.621C197.685 223.621 204.84 230.775 204.84 239.606Z" fill="#C57450"/>
<path fill-rule="evenodd" clip-rule="evenodd" d="M180.423 281.325V306.824C180.423 314.916 156.329 308.572 147.967 301.022L148.399 289.885L149.192 269.143C150.598 270.116 152.04 271.035 153.535 271.9C153.553 271.918 153.571 271.918 153.589 271.936C153.589 271.936 153.607 271.936 153.607 271.954C153.625 271.954 153.625 271.972 153.643 271.972C161.501 276.531 170.475 279.613 180.423 281.325Z" fill="#C79C89"/>
<path fill-rule="evenodd" clip-rule="evenodd" d="M180.422 280.568V290.101C180.097 289.974 179.719 289.812 179.304 289.596C178.674 289.272 177.935 288.857 177.124 288.389C176.98 288.299 176.818 288.208 176.673 288.1C174.943 287.073 172.907 285.74 170.726 284.262C170.384 284.028 170.042 283.793 169.681 283.559C168.708 282.874 167.699 282.189 166.708 281.469C165.572 280.676 164.437 279.883 163.32 279.072C162.923 278.783 162.509 278.495 162.112 278.207C161.878 278.045 161.662 277.882 161.446 277.72C161.301 277.612 161.139 277.486 160.977 277.378C160.364 276.945 159.77 276.495 159.193 276.08C159.085 275.99 158.959 275.9 158.851 275.828C158.67 275.684 158.472 275.54 158.292 275.414C157.103 274.549 156.003 273.738 155.03 272.999C154.724 272.782 154.436 272.566 154.165 272.35C153.985 272.224 153.805 272.08 153.643 271.972C153.625 271.972 153.625 271.954 153.607 271.954C153.607 271.936 153.589 271.936 153.589 271.936C153.57 271.917 153.552 271.917 153.534 271.899C151.804 270.602 150.741 269.791 150.741 269.791L180.422 280.568Z" fill="#C79C89"/>
<path fill-rule="evenodd" clip-rule="evenodd" d="M208.329 185.502C208.005 185.854 207.536 185.801 207.157 185.555C206.977 185.432 206.635 185.273 206.382 185.22C206.022 185.132 205.787 185.115 205.391 185.132C205.12 185.168 204.796 185.238 204.471 185.379C204.453 185.396 204.327 185.449 204.327 185.449C204.237 185.502 204.165 185.555 204.093 185.608C203.931 185.713 203.895 185.731 203.786 185.836C202.813 186.787 202.759 188.354 203.534 189.427C203.804 189.797 203.642 190.343 203.282 190.571C202.885 190.818 202.398 190.677 202.128 190.307C200.92 188.653 201.101 186.065 202.633 184.657C204.201 183.214 206.562 183.108 208.275 184.323C208.653 184.587 208.599 185.203 208.329 185.502Z" fill="black"/>
<path fill-rule="evenodd" clip-rule="evenodd" d="M217.062 230.324C214.157 230.673 211.219 225.733 210.509 219.274C209.783 212.815 211.556 207.298 214.444 206.931C217.349 206.582 220.287 211.523 220.997 217.982C221.723 224.441 219.949 229.957 217.062 230.324Z" fill="black"/>
<path fill-rule="evenodd" clip-rule="evenodd" d="M213.951 202.401C213.968 202.933 213.633 203.308 213.215 203.367C211.039 203.624 209.015 205.498 208.278 207.983C208.144 208.457 207.81 208.812 207.358 208.693C206.99 208.595 206.638 208.042 206.772 207.589C207.76 204.255 210.236 201.868 213.164 201.513C213.583 201.454 213.951 201.927 213.951 202.401Z" fill="black"/>
<path fill-rule="evenodd" clip-rule="evenodd" d="M218.573 258.556C223.774 262.715 230.905 264.26 237.692 262.04C238.273 261.849 238.59 261.223 238.401 260.643C238.213 260.064 237.589 259.742 237.003 259.934C227.463 263.053 217.163 257.827 214.044 248.293C213.855 247.715 213.232 247.392 212.647 247.585C212.065 247.774 211.749 248.399 211.938 248.98C213.218 252.893 215.574 256.159 218.573 258.556Z" fill="black"/>
</g>
<defs>
<clipPath id="clip0">
<rect width="485" height="667" fill="white"/>
</clipPath>
<clipPath id="clip1">
<rect width="270" height="270" fill="white" transform="translate(219 92)"/>
</clipPath>
</defs>
</svg>
