<svg width="485" height="806" viewBox="0 0 485 806" fill="none" xmlns="http://www.w3.org/2000/svg">
<g clip-path="url(#clip0)">
<g clip-path="url(#clip1)">
<path d="M281.644 389.932C358.619 280.536 488.615 267.866 382.447 193.162C276.278 118.458 159.46 101.603 82.4851 210.999C5.51001 320.395 29.1757 469.638 135.344 544.341C241.512 619.045 204.669 499.328 281.644 389.932Z" fill="#9B51E0"/>
<path d="M252.929 333.918C148.04 482.984 -29.0956 500.249 115.573 602.043C260.241 703.836 419.421 726.804 524.31 577.737C629.198 428.67 596.951 225.308 452.283 123.514C307.615 21.7203 357.818 184.851 252.929 333.918Z" fill="#F6D446"/>
<path d="M170.416 394.278C170.416 480.367 258.715 547.417 311.141 555.695L427.03 431.528L435.307 282.528L311.141 232.861L166.28 278.389C162.141 296.324 170.416 308.189 170.416 394.278Z" fill="white"/>
<path fill-rule="evenodd" clip-rule="evenodd" d="M313.158 310.248C275.816 310.248 245.544 340.52 245.544 377.862C245.544 415.204 275.816 445.476 313.158 445.476C350.5 445.476 380.772 415.204 380.772 377.862C380.772 340.52 350.5 310.248 313.158 310.248ZM230.519 377.862C230.519 332.222 267.518 295.223 313.158 295.223C358.799 295.223 395.797 332.222 395.797 377.862C395.797 423.503 358.799 460.502 313.158 460.502C267.518 460.502 230.519 423.503 230.519 377.862ZM315.098 347.994C311.601 347.394 308.004 348.051 304.945 349.849C301.886 351.647 299.562 354.47 298.384 357.817C297.007 361.731 292.718 363.788 288.804 362.411C284.89 361.034 282.833 356.745 284.21 352.831C286.565 346.136 291.214 340.491 297.332 336.895C303.45 333.3 310.644 331.985 317.638 333.185C324.633 334.385 330.977 338.021 335.548 343.45C340.117 348.878 342.618 355.748 342.609 362.844C342.605 374.341 334.081 381.933 327.994 385.991C324.722 388.173 321.502 389.777 319.131 390.831C317.934 391.363 316.927 391.766 316.201 392.043C315.837 392.182 315.543 392.289 315.328 392.365L315.067 392.457L314.984 392.485L314.955 392.495L314.943 392.499C314.941 392.499 314.934 392.502 312.558 385.375L314.934 392.502C310.998 393.814 306.743 391.687 305.431 387.75C304.12 383.817 306.243 379.565 310.175 378.25L310.294 378.208C310.41 378.167 310.599 378.098 310.852 378.002C311.359 377.809 312.112 377.508 313.028 377.101C314.883 376.277 317.298 375.064 319.66 373.489C324.841 370.035 327.583 366.361 327.583 362.837V362.825C327.589 359.277 326.338 355.841 324.053 353.127C321.768 350.412 318.596 348.594 315.098 347.994ZM313.161 407.913C309.012 407.913 305.649 411.276 305.649 415.426C305.649 419.575 309.012 422.938 313.161 422.938H313.236C317.386 422.938 320.749 419.575 320.749 415.426C320.749 411.276 317.386 407.913 313.236 407.913H313.161Z" fill="#321F4A"/>
<path fill-rule="evenodd" clip-rule="evenodd" d="M308.865 221.404C312.272 220.126 316.027 220.126 319.434 221.404L439.838 266.555C445.713 268.758 449.604 274.374 449.604 280.648V386.001C449.604 437.872 415.263 479.319 384.262 506.445C368.446 520.284 352.701 531.101 340.939 538.452C335.043 542.137 330.108 544.976 326.612 546.911C324.863 547.879 323.472 548.623 322.497 549.135C322.01 549.39 321.627 549.588 321.355 549.728L321.031 549.892L320.934 549.942L320.901 549.958C320.897 549.96 320.88 549.969 314.149 536.507C307.418 549.969 307.414 549.966 307.409 549.964L307.365 549.942L307.267 549.892L306.944 549.728C306.672 549.588 306.288 549.39 305.801 549.135C304.827 548.623 303.435 547.879 301.686 546.911C298.191 544.976 293.256 542.137 287.359 538.452C275.598 531.101 259.853 520.284 244.036 506.445C213.036 479.319 178.694 437.872 178.694 386.001V280.648C178.694 274.374 182.586 268.758 188.46 266.555L308.865 221.404ZM314.149 536.507L307.409 549.964C311.646 552.083 316.643 552.087 320.88 549.969L314.149 536.507ZM314.149 519.391C317.034 517.756 320.722 515.591 324.986 512.927C335.8 506.167 350.156 496.29 364.441 483.791C393.642 458.24 419.503 424.434 419.503 386.001V291.078L314.149 251.57L208.795 291.078V386.001C208.795 424.434 234.656 458.24 263.858 483.791C278.143 496.29 292.498 506.167 303.313 512.927C307.577 515.591 311.265 517.756 314.149 519.391Z" fill="#321F4A"/>
</g>
</g>
<defs>
<clipPath id="clip0">
<rect width="485" height="806" fill="white"/>
</clipPath>
<clipPath id="clip1">
<rect width="596" height="596" fill="white" transform="translate(9 88)"/>
</clipPath>
</defs>
</svg>
