<svg width="485" height="1006" viewBox="0 0 485 1006" fill="none" xmlns="http://www.w3.org/2000/svg">
<path fill-rule="evenodd" clip-rule="evenodd" d="M52.5734 459.102C52.3825 466.478 62.1734 462.703 58.1433 457.387C55.4692 454.245 53.3696 455.614 52.5734 459.102ZM73.0235 487.341C73.7405 495.305 75.2435 505.607 69.1988 511.815C66.2795 514.478 61.9658 513.685 58.3901 513.108C48.5519 511.328 46.5826 501.173 45.0696 492.855C44.5339 491.324 43.4839 493.603 43.046 494.146C38.5207 500.893 33.3546 507.483 26.0859 511.427C12.8487 518.403 4.80161 506.038 7.44866 493.652C8.39826 486.935 14.042 482.478 18.6195 478.007C20.8597 476.392 19.1829 475.975 17.3541 476.266C4.99751 478.398 -0.973712 474.97 0.129318 461.69C1.39555 453.112 10.9922 449.407 18.2473 446.949C20.4888 446.298 20.4872 446.326 19.5577 444.163C17.996 440.528 16.5783 436.855 15.752 432.956C14.0358 424.804 18.3781 413.511 27.5684 413.155C39.1034 412.361 45.263 423.443 50.2497 431.9C50.2664 415.347 67.5871 405.368 82.9742 406.67C91.2046 406.772 95.4188 414.953 95.4923 422.36C95.6941 428.355 90.8734 432.885 88.5058 437.971C100.034 438.962 115.055 441.779 119.335 454.16C120.175 456.295 119.565 458.155 118.019 459.76C114.129 464.604 102.803 464.645 104.421 466.646C106.775 474.268 108.649 481.99 109.601 489.92C110.3 494.743 107.733 497.906 103.934 500.283C92.0921 507.434 80.06 495.808 73.0235 487.341Z" fill="#F55B80"/>
<path fill-rule="evenodd" clip-rule="evenodd" d="M188.497 440.949C188.769 426.531 215.192 429.22 216.485 420.971C217.781 414.946 219.346 408.697 224.639 404.899C236.516 394.571 249.535 396.947 260.952 406.542C270.436 414.801 276.552 379.349 302.79 397.418C313.266 402.784 316.333 423.858 324.459 423.603C333.079 421.186 341.185 426.023 346.542 432.614C348.571 436.876 367.369 451.343 356.83 453.092C344.565 453.179 332.348 451.756 320.231 450.459C302.263 450.522 284.175 450.878 266.159 450.707C241.951 449.322 217.734 451.882 193.631 450.38C192.216 450.262 189.97 450.12 190.123 448.22C189.796 445.753 188.81 443.447 188.497 440.949Z" fill="#7DB4DB"/>
<path fill-rule="evenodd" clip-rule="evenodd" d="M356.305 586.556C369.277 585.57 369.652 568.598 356.708 566.252C342.581 562.776 340.938 587.587 356.305 586.556ZM357.511 512.566C360.623 509.1 367.438 496.888 372.224 503.147C378.839 514.352 383.17 526.492 390.031 537.637C381.499 534.04 372.504 539.992 372.192 549.104C371.729 562.92 393.376 562.675 396.489 550.628C397.374 547.966 403.902 562.243 404.637 563.729C404.971 564.551 405.335 565.3 404.426 565.924C395.738 571.154 396.175 584.367 407.07 586.892C408.603 587.454 410.985 586.433 411.695 588.356C414.338 594.263 416.772 600.254 418.923 606.36C423.018 616.331 410.46 613.788 404.509 613.994C403.511 613.989 403.389 613.79 403.423 612.796C403.574 608.24 401.753 604.684 398.034 602.057C395.49 599.41 392.706 596.839 388.901 598.895C383.796 601.675 380.393 607.424 380.721 613.276C380.783 614.265 380.159 614.419 379.329 614.368C366.327 614.526 353.298 615.111 340.323 614.009C337.397 614.156 344.14 605.663 337.151 600.012C329.732 588.364 313.015 602.259 319.906 612.776C276.217 605.193 285.496 615.538 298.673 587.421C300.252 584.176 310.683 594.83 318.845 583.497C324.403 575.355 312.022 571.813 313.111 566.938C316.307 563.205 319.396 559.379 322.546 555.607C323.607 553.771 324.782 556.564 325.972 556.994C337.923 566.006 354.155 540.974 338.9 535.779C339.411 534.371 349.853 521.484 352.055 519.588C351.619 527.95 363.089 534.19 368.429 526.606C375.739 518.705 365.175 509.763 357.511 512.566Z" fill="#EBBF5E"/>
<path fill-rule="evenodd" clip-rule="evenodd" d="M471.779 406.651C471 414.607 471.006 422.833 466.971 429.997C461.721 441.051 455.644 452.9 444.646 459.243C417.408 475.985 389.449 461.389 384.967 430.392C384.029 424.982 383.504 419.501 382.66 414.072C381.782 410.516 383.615 406.831 382.264 403.472C381.683 402.619 381.988 401.947 382.975 401.186C396.147 393.722 410.086 406.245 415.691 417.692C418.949 422.576 420.139 393.391 422.661 391.55C425.339 387.12 431.581 389.67 435.219 391.529C440.713 394.757 440.504 402.101 440.995 407.701C441.518 409.842 440.907 418.636 444.538 413.887C450.508 406.345 449.45 395.844 454.807 388.05C462.425 378.891 472.627 399.901 471.779 406.651Z" fill="#60D6E1"/>
<path fill-rule="evenodd" clip-rule="evenodd" d="M460.531 540.951C460.714 557.513 463.279 573.822 465.423 590.206C466.017 595.495 466.434 600.805 466.934 606.105C467.066 607.495 466.975 607.652 465.513 607.64C460.684 607.696 456.225 605.578 451.558 605.146C448.832 604.85 446.872 603.586 445.692 601.048C441.114 592.846 436.952 584.848 444.275 576.714C459.704 555.179 430.239 548.167 442.871 528.113C457.124 512.855 448.787 508.203 447.018 491.053C448.165 473.745 474.982 469.158 477.368 488.635C480.08 499.051 466.557 516.874 472.058 523.022C482.204 533.167 479.575 546.382 480.128 559.357C482.192 571.235 488.422 579.73 482.529 592.41C480.787 596.222 480.461 601.397 475.807 602.787C473.392 602.659 469.219 609.184 468.875 604.408C467.897 588.562 464.874 572.973 463.394 557.182C462.693 548.69 462.942 540.183 462.674 531.691C459.649 526.605 460.909 539.57 460.685 540.94C460.634 540.943 460.583 540.947 460.531 540.951Z" fill="#52DC82"/>
<path fill-rule="evenodd" clip-rule="evenodd" d="M74.0172 615.7C75.7587 618.954 59.1408 618.183 56.7122 618.95C56.7077 618.898 56.7035 618.846 56.699 618.794C54.771 619.094 52.3603 617.968 50.9535 619.764C49.3172 621.462 47.5371 618.04 48.0204 616.537C48.1787 615.867 48.2819 615.14 48.1977 614.465C47.6014 609.705 46.3424 605.09 45.083 600.472C44.9807 597.738 41.8104 592.616 44.2958 590.777C51.1121 586.747 57.7741 582.467 64.4802 578.261C68.2406 573.937 72.5126 611.703 74.0172 615.7ZM91.2095 533.265C96.083 538.147 100.03 543.689 103.027 549.885C105.316 555.96 110.488 565.519 109.141 571.729C101.691 583.92 95.7845 597.985 97.2145 612.525C97.3792 614.993 97.3636 615.154 94.8997 615.477C92.1106 615.168 76.1329 618.511 76.5373 615.696C74.0935 602.771 71.3931 589.888 68.6476 577.026C68.3696 573.904 73.106 572.912 74.7549 570.638C79.9612 566.707 86.0233 557.171 75.0424 556.996C72.3028 556.316 65.4258 559.578 66.4815 554.734C67.0811 546.894 69.7592 539.831 74.5044 533.542C76.4548 530.948 80.1805 532.515 82.9637 532.094V532.053C85.6877 532.405 89.0818 531.095 91.2095 533.265ZM110.74 574.458C111.74 580.628 117.192 612.066 112.417 614.44C108.77 614.586 105.125 614.721 101.479 614.846C99.8096 614.903 99.8583 614.881 99.6379 613.238C98.2432 599.735 103.012 585.232 110.74 574.458ZM157.446 571.724C158.337 573.335 158.332 573.363 157.053 574.633C147.209 584.365 142.511 597.453 141.904 611.066C141.769 612.792 141.651 612.911 139.865 613.02C132.529 613.619 125.18 613.983 117.819 614.105C114.979 614.514 117.012 609.408 116.598 607.821C116.508 595.698 114.85 584.046 112.751 572.21C114.145 565.522 121.831 559.094 127.46 555.36C139.839 548.471 151.794 561.826 157.446 571.724ZM164.284 598.469C163.899 601.971 163.554 605.478 163.113 608.973C163.064 612.027 158.814 610.946 156.704 611.546C153.195 611.872 149.673 612.088 146.165 612.417C144.498 612.689 144.31 612.565 144.345 610.823C144.437 606.31 145.266 601.909 146.507 597.582C148.687 589.981 152.279 583.157 157.751 577.378C161.528 571.536 164.552 595.997 164.284 598.469ZM186.643 578.62C190.965 587.494 195.36 596.333 199.743 605.177C200.55 606.805 200.43 607.084 198.626 607.251C188.033 608.062 177.513 609.55 166.927 610.43C165.756 610.478 165.49 610.169 165.638 608.929C167.546 597.939 166.581 586.886 162.431 576.525C161.403 573.847 161.385 573.862 163.706 572.224C168.463 568.865 173.818 567.09 179.532 566.272C182.193 565.371 184.894 576.438 186.643 578.62ZM185.673 565.883C206.248 565.356 219.65 584.336 225.622 601.96C225.944 603.18 226.732 604.486 224.859 604.404C220.933 604.056 203.172 608.423 202.512 605.165C195.967 592.926 190.38 580.199 184.336 567.706C183.489 566.147 184.03 565.746 185.673 565.883ZM213.657 522.36C215.131 524.605 226.943 533.667 224.489 535.408C218.669 543.197 219.579 553.323 222.576 562.05C226.974 572.923 228.673 585.641 236.676 594.611C241.692 600.627 255.8 602.413 256.369 592.141C255.063 571.024 243.848 550.574 229.589 535.231C229.743 530.34 244.029 533.015 247.36 534.329C251.665 535.599 250.593 534.805 252.437 538.646C255.696 546.624 260.274 554.043 264.046 561.663C264.746 568.854 266.065 576.023 265.792 583.263C265.882 583.268 265.972 583.273 266.062 583.278C265.795 586.431 265.513 589.583 265.272 592.739L265.295 592.995C265.537 595.624 265.739 598.479 262.594 599.277C251.98 602.172 240.836 602.302 229.989 603.874C228.717 604.17 228.59 602.994 228.291 602.099C225.224 592.425 220.286 583.797 213.621 576.156C208.69 570.502 202.702 566.47 195.316 564.703C191.977 563.025 182.808 564.824 181.765 562.001C176.867 550.441 172.17 538.679 170.091 526.234C169.924 525.288 170.126 525.007 171.041 524.902C182.639 523.61 194.275 522.702 205.921 521.977C208.424 522.262 211.672 520.461 213.657 522.36ZM228.227 537.45C241.991 551.926 251.17 570.959 254.002 590.718C254.269 600.304 241.507 597.544 237.633 592.026C233.328 587.162 231.882 580.632 229.555 574.726C225.916 562.978 218.347 549.296 225.982 537.61C226.927 536.222 227.072 536.233 228.227 537.45ZM65.4894 573.279C65.6519 574.393 65.1345 574.937 64.3285 575.452C57.1626 580.039 50.2126 584.625 42.7672 588.8C40.9399 562.096 33.8232 567.253 52.5467 562.334C67.9922 558.78 62.872 559.951 65.4894 573.279ZM73.6465 559.242C79.397 559.363 80.3736 561.141 76.4228 565.621C75.3069 566.685 67.7995 575.045 67.5844 571.377C67.0614 560.66 62.7865 559.605 73.6465 559.242ZM167.645 526.955C168.507 530.683 169.251 534.444 170.295 538.121C172.571 546.134 175.63 553.873 178.909 561.526C179.886 563.807 179.879 563.773 177.48 564.174C171.898 565.106 166.742 567.104 162.112 570.39C160.657 571.737 159.934 571.575 159.164 569.741C145.056 546.897 127.841 544.137 112.018 567.208C107.637 554.55 103.376 541.603 93.3737 531.904C117.566 530.035 141.55 527.752 165.693 525.504C167.287 525.324 167.264 525.305 167.645 526.955ZM70.3276 531.968C70.8822 532.111 71.4371 532.253 71.9917 532.396C56.3764 557.13 73.8752 556.863 51.7513 560.094C49.4734 559.938 38.4847 565.238 39.1855 561.623C38.9176 557.696 38.6774 553.758 38.002 549.875C36.5972 546.393 32.1972 540.421 38.1832 538.568C48.6447 535.376 59.205 531.739 70.2985 532.226C70.3083 532.14 70.3178 532.054 70.3276 531.968ZM254.599 537.005C257.224 538.151 262.2 538.729 263.012 541.648C263.574 546.296 263.943 550.881 263.88 555.595C260.048 549.783 257.385 543.413 254.599 537.005ZM262.327 537.303C259.1 535.376 254.694 535.167 252.216 532.43C251.884 530.202 244.596 518.493 247.727 518.415C266.058 517.047 262.517 515.934 262.327 537.303ZM249.048 532.036C221.057 524.211 234.809 542.483 216.431 521.204C225.057 520.188 233.935 519.764 242.635 518.792C244.93 518.377 247.967 529.699 249.048 532.036Z" fill="#60D6E1"/>
<path fill-rule="evenodd" clip-rule="evenodd" d="M321.096 487.537C322.365 487.963 324.204 488.905 322.722 490.326C315.693 501.125 309.52 512.797 300.266 521.879C292.996 517.235 294.607 516.488 299.643 511.029C306.943 503.461 313.649 494.667 321.096 487.537ZM327.209 490.548C341.024 492.202 310.188 515.236 306.607 518.515C306.558 518.441 306.508 518.366 306.459 518.291C313.443 509.882 318.843 500.374 324.753 491.216C325.637 489.844 325.681 489.893 327.209 490.548ZM318.495 486.341C311.049 495.919 302.741 504.55 294.571 513.483C293.625 514.512 293.482 514.49 292.847 513.252C290.353 509.739 294.64 506.678 296.635 503.858C301.528 497.954 306.383 492.007 311.301 486.129C313.319 484.313 315.807 486.266 318.495 486.341ZM309.292 484.954C303.445 492.598 297.087 499.687 291.125 507.228C289.694 508.823 289.319 504.981 288.874 504.108C288.65 503.218 288.861 502.382 289.456 501.589C293.294 496.465 297.126 491.335 300.875 486.146C302.765 483.408 306.438 484.627 309.292 484.954ZM299.186 484.781C295.494 489.844 292.184 495.048 287.898 500.024C287.322 495.176 284.131 490.124 287.46 486.06C287.46 482.957 296.983 484.422 299.186 484.781Z" fill="#F55B80"/>
<path fill-rule="evenodd" clip-rule="evenodd" d="M189.323 747.21C189.357 747.176 189.392 747.119 189.414 747.074C192.669 740.623 199.141 736.556 206.757 736.206C215.129 735.822 222.821 739.923 227.364 747.165C227.375 747.176 227.386 747.198 227.397 747.21H189.323ZM229.69 747.21H229.251C229.262 747.198 229.284 747.176 229.284 747.153C229.499 746.814 229.51 746.374 229.284 746.001C227.183 742.657 224.471 739.923 221.33 737.912C217.048 735.144 211.977 733.732 206.655 733.991C200.588 734.263 195.177 736.669 191.268 740.668C189.72 742.25 188.408 744.069 187.392 746.091C187.212 746.475 187.257 746.893 187.494 747.21H187.053C186.421 747.21 185.923 747.696 185.923 748.317C185.923 748.927 186.421 749.424 187.053 749.424H229.69C230.312 749.424 230.82 748.927 230.82 748.317C230.82 747.696 230.312 747.21 229.69 747.21Z" fill="#2A4D52"/>
<path fill-rule="evenodd" clip-rule="evenodd" d="M227.4 747.213H189.326C189.36 747.179 189.394 747.124 189.417 747.08C192.671 740.619 199.144 736.55 206.759 736.207C215.131 735.819 222.824 739.919 227.367 747.168C227.377 747.179 227.388 747.202 227.4 747.213Z" fill="#765040"/>
<path fill-rule="evenodd" clip-rule="evenodd" d="M237.804 557.895C230.62 635.059 223.559 711.469 221.332 737.914C217.05 735.144 211.979 733.736 206.658 733.99C200.591 734.268 195.179 736.672 191.27 740.674C190.942 716.645 190.004 636.81 189.077 556.222C202.578 555.734 214.611 556.034 225.32 556.787C229.704 557.097 233.863 557.474 237.804 557.895Z" fill="#765040"/>
<path fill-rule="evenodd" clip-rule="evenodd" d="M229.331 747.214H229.253C229.263 747.202 229.286 747.18 229.286 747.158L229.331 747.214Z" fill="#765040"/>
<path fill-rule="evenodd" clip-rule="evenodd" d="M248.831 539.718L246.943 539.142C246.932 538.888 246.922 538.632 246.899 538.377L248.831 539.718Z" fill="#765040"/>
<path fill-rule="evenodd" clip-rule="evenodd" d="M268.17 747.39C268.17 747.514 268.17 747.638 268.159 747.763H258.726C258.657 746.045 258.478 742.746 258.217 738.058V738.035C258.387 738.137 258.579 738.193 258.782 738.193C259.009 738.193 259.235 738.205 259.46 738.216C264.319 738.555 268.17 742.543 268.17 747.39Z" fill="#765040"/>
<path fill-rule="evenodd" clip-rule="evenodd" d="M300.165 740.285L292.551 747.764H270.419C270.43 747.639 270.43 747.515 270.43 747.391C270.43 741.29 265.504 736.285 259.358 735.991C259.166 735.98 258.974 735.98 258.782 735.98C258.533 735.98 258.307 736.059 258.115 736.195V736.183C256.534 707.634 252.376 632.504 248.105 559.182C254.681 560.074 260.567 561.091 265.888 562.04C279.129 564.435 288.687 566.514 295.646 566.051C295.341 572.423 295.048 578.749 294.743 585.031C294.743 585.099 294.731 585.178 294.731 585.246C294.731 585.325 294.72 585.404 294.72 585.483C291.026 662.533 287.852 733.641 287.907 736.443L300.165 740.285Z" fill="#765040"/>
<path fill-rule="evenodd" clip-rule="evenodd" d="M323.789 747.764H295.748L302.582 741.053L323.552 747.617C323.642 747.662 323.721 747.707 323.789 747.764Z" fill="#765040"/>
<path fill-rule="evenodd" clip-rule="evenodd" d="M328.376 748.871C328.376 749.481 327.88 749.978 327.246 749.978H258.782C258.162 749.978 257.652 749.481 257.652 748.871C257.652 748.284 258.127 747.798 258.727 747.764H268.159C268.171 747.64 268.171 747.515 268.171 747.391C268.171 742.544 264.319 738.556 259.46 738.217C259.235 738.206 259.009 738.195 258.782 738.195C258.58 738.195 258.388 738.138 258.217 738.037C257.879 737.856 257.652 737.494 257.652 737.088C257.652 736.715 257.834 736.387 258.117 736.195C258.308 736.06 258.535 735.98 258.782 735.98C258.974 735.98 259.166 735.98 259.358 735.992C265.505 736.286 270.43 741.29 270.43 747.391C270.43 747.515 270.43 747.64 270.419 747.764H292.551L300.166 740.285L302.583 741.053L295.748 747.764H327.246C327.88 747.764 328.376 748.261 328.376 748.871Z" fill="#2A4D52"/>
<path fill-rule="evenodd" clip-rule="evenodd" d="M294.743 585.031C294.743 585.099 294.731 585.178 294.731 585.246C294.731 585.325 294.719 585.404 294.719 585.483C293.986 585.856 293.195 586.139 292.404 586.365C291.105 586.726 289.738 586.907 288.382 586.896C287.026 586.873 285.659 586.726 284.36 586.331C283.05 585.98 281.829 585.382 280.711 584.67C282.021 584.964 283.276 585.303 284.551 585.483C285.829 585.698 287.105 585.788 288.382 585.788C289.659 585.822 290.947 585.698 292.223 585.517C293.059 585.393 293.895 585.235 294.743 585.031Z" fill="#672448"/>
<path fill-rule="evenodd" clip-rule="evenodd" d="M221.54 582.993C220.461 583.783 219.196 584.31 217.896 584.67C216.593 585.037 215.232 585.214 213.87 585.207C212.512 585.184 211.145 585.036 209.848 584.635C208.541 584.287 207.315 583.69 206.2 582.973C207.512 583.271 208.76 583.613 210.044 583.791C211.314 584.005 212.596 584.096 213.874 584.1C215.154 584.127 216.433 584.008 217.709 583.828C218.987 583.638 220.258 583.368 221.54 582.993Z" fill="#672448"/>
<path fill-rule="evenodd" clip-rule="evenodd" d="M196.532 337.637C192.399 343.168 173.233 393.162 162.627 454.17C152.021 515.178 151.104 556.554 151.104 555.984C151.104 555.984 218.17 554.896 248.107 559.181C279.083 563.615 305.771 575.197 308.589 553.492L306.403 440.929C306.403 440.929 298.51 329.895 298.881 329.895H205.562C205.562 329.895 200.664 332.107 196.532 337.637Z" fill="#9B51E0"/>
<path fill-rule="evenodd" clip-rule="evenodd" d="M187.111 556.287C186.806 556.287 186.49 556.31 186.174 556.321C185.61 556.342 185.032 556.365 184.456 556.409C184.332 556.409 184.185 556.409 184.062 556.432C183.836 556.432 183.599 556.443 183.361 556.464C182.999 556.476 182.626 556.498 182.264 556.509H182.253C182.051 556.52 181.869 556.531 181.667 556.554C180.492 554.647 179.78 553.406 179.407 552.708C178.842 551.688 178.638 551.255 178.57 550.845C178.515 550.557 178.56 550.313 178.605 550.091C178.661 549.826 178.717 549.493 178.548 548.695C178.254 549.205 177.611 549.25 176.967 549.271L176.469 549.294L176.333 549.16C175.735 548.617 175.282 548.152 175.543 547.609C175.826 547.055 176.423 547.255 177.419 547.564C177.734 547.675 178.097 547.764 178.254 547.808L178.322 547.819L177.836 546.234L179.068 547.165C180.062 547.919 180.931 548.685 181.745 549.515L184.456 552.319L183.406 552.962C184.875 554.747 185.666 555.346 186.433 555.844L187.111 556.287Z" fill="white"/>
<path fill-rule="evenodd" clip-rule="evenodd" d="M161.769 537.649C161.17 537.174 160.628 536.971 160.176 536.858C159.69 536.632 159.181 536.406 158.605 536.169C158.583 536.146 158.56 536.124 158.526 536.078L158.448 535.999C158.403 535.977 158.357 535.931 158.323 535.909C159.068 535.988 160.289 536.451 161.577 537.423C161.983 537.66 162.322 537.852 162.627 538.067L161.769 537.649ZM173.925 545.105L172.66 544.845C171.541 544.608 170.389 544.371 169.248 544.077L169.136 544.043L168.807 542.202L169.327 542.416L167.711 540.586C166.762 539.502 165.644 538.248 164.48 537.027L164.401 536.96C162.266 535.559 159.916 534.621 157.408 534.192C156.572 534.033 155.815 533.909 155.137 533.808C154.301 533.683 153.566 533.582 152.956 533.412L152.493 534.372C153.612 535.536 155.216 536.124 157.25 536.858L158.074 537.152C158.526 537.626 159.046 537.762 159.599 537.875L159.848 537.931C160.425 538.202 161 538.519 161.61 538.925L161.927 538.406L163.542 538.779C163.847 539.038 164.085 539.298 164.311 539.535C164.921 540.179 165.497 540.801 167.18 541.513L167.779 541.772L163.723 541.061L168.762 543.953L164.921 542.97L168.909 545.128C169.993 545.715 171.089 546.258 172.163 546.766L173.202 547.286L173.676 546.303C173.655 546.28 173.62 546.246 173.575 546.235C173.801 546.224 173.97 546.156 174.094 545.93L174.265 545.546L173.925 545.105Z" fill="white"/>
<path fill-rule="evenodd" clip-rule="evenodd" d="M208.835 513.772L208.664 514.048C208.127 513.433 207.497 512.744 206.78 511.97C206.773 511.949 206.765 511.917 206.749 511.907C206.998 511.96 207.185 511.928 207.356 511.875L207.427 511.843C207.528 511.811 207.598 511.779 207.691 511.79C208.859 512.659 208.991 513.189 209.007 513.327C209.022 513.443 208.96 513.56 208.835 513.772ZM246.957 538.202L246.146 537.513C245.829 537.254 245.596 537.039 245.41 536.881C245.69 536.847 245.932 536.757 246.062 536.429C246.156 536.237 246.202 535.898 245.997 535.492L245.941 535.367L245.857 535.311C244.124 534.113 242.716 533.368 241.384 532.679C241.318 532.645 241.253 532.611 241.188 532.577C239.52 531.741 237.944 530.917 235.838 529.335C235.922 528.759 235.54 528.217 235.4 528.025L235.279 527.901C234.011 527.133 232.762 526.365 231.569 525.597C225.716 521.835 220.43 517.983 217.16 515.126L217.179 515.058C217.104 514.99 217.011 514.922 216.927 514.843L215.706 513.827L215.697 513.872C213.32 511.985 210.999 510.404 208.1 508.653C206.33 507.58 204.484 506.541 202.35 505.321L202.247 505.276C201.064 504.508 199.899 503.751 198.752 503.028C189.404 497.019 181.425 492.139 173.885 487.813C169.421 485.237 164.733 482.662 159.942 480.166L159.923 480.154C159.905 480.245 159.886 480.335 159.858 480.414C159.83 480.504 159.811 480.584 159.793 480.674C159.672 481.114 159.56 481.555 159.439 482.007C159.401 482.176 159.345 482.357 159.299 482.538C159.821 482.786 160.343 483.08 160.855 483.351C165.152 485.712 168.927 488.31 171.192 490.467L172.896 492.06L172.254 490.704C172.469 490.817 172.739 490.964 173.065 491.156C173.512 491.416 174.025 491.71 174.547 492.026L175.628 492.659C176.159 492.975 176.635 493.235 177.064 493.472C177.026 493.483 176.97 493.483 176.831 493.461L174.118 492.997L176.598 494.534C177.707 495.223 178.322 495.516 178.695 495.573C179.011 495.618 179.142 495.494 179.244 495.257C179.356 494.985 179.319 494.737 179.188 494.477C180.027 494.793 180.493 494.76 180.764 494.455C181.696 495.324 182.302 495.742 183.373 496.488C183.756 496.736 184.194 497.053 184.734 497.425L184.855 497.516L185.722 497.278C187.185 498.205 187.773 498.815 188.406 499.459C189.124 500.215 189.87 500.972 191.93 502.215L194.828 503.943L192.358 501.255C192.246 501.142 192.163 501.029 192.088 500.938C192.265 500.983 192.461 501.029 192.619 501.074C193.095 501.175 193.579 501.3 193.999 501.322C195.527 502.689 197.149 504.135 198.78 505.558C198.836 505.615 198.901 505.66 198.957 505.716C201.474 507.919 204.083 510.212 206.199 512.2C206.525 512.979 206.973 513.612 209.89 515.916L210.365 514.99C210.328 514.945 210.281 514.9 210.244 514.854C211.987 516.086 213.488 516.741 214.83 517.317C216.545 518.062 218.036 518.718 219.611 520.355L221.559 522.411L220.264 519.712C221.82 520.909 223.265 522.14 224.775 523.45C226.555 524.975 228.391 526.557 230.46 528.07C229.92 527.731 229.332 527.37 228.764 527.009C227.571 526.229 226.434 525.495 225.697 525.133L223.358 524.004L225.287 526.105C225.679 526.523 226.247 527.042 226.853 527.596C227.105 527.822 227.366 528.07 227.617 528.296L227.394 529.2L227.534 529.279C228.018 529.539 228.466 529.799 229.109 530.352L229.304 530.51L229.509 530.352C229.593 530.296 229.659 530.205 229.705 530.104C230.097 530.284 230.507 530.465 230.954 530.657C232.212 531.222 233.648 531.888 235.064 532.532C235.903 532.927 236.741 533.311 237.534 533.662C237.45 534.057 237.581 534.452 238.066 534.972C237.087 534.407 236.08 533.808 235.036 533.176L234.692 534.204L238.821 536.757L240.396 537.547L240.535 537.062C240.694 537.186 240.862 537.31 241.02 537.434C241.654 537.897 242.269 538.315 242.791 538.688C243.155 538.948 243.462 539.163 243.704 539.355L243.676 539.535L243.993 539.705C244.133 539.773 244.282 539.852 244.413 539.874C244.413 539.874 244.413 539.863 244.422 539.863L244.663 540.032L244.627 539.84C244.72 539.795 244.795 539.705 244.86 539.524C245.009 539.084 244.776 538.858 244.422 538.587C244.329 538.27 244.133 537.931 243.76 537.513C244.506 537.931 245.233 538.304 245.802 538.519L246.994 538.959L248.551 539.535L246.957 538.202Z" fill="white"/>
<path fill-rule="evenodd" clip-rule="evenodd" d="M302.561 564.277C302.493 564.322 302.437 564.356 302.358 564.39C301.996 564.582 301.601 564.751 301.205 564.921C301.601 564.763 301.996 564.593 302.358 564.401C302.437 564.356 302.504 564.322 302.561 564.288C302.776 564.175 302.979 564.062 303.171 563.949C302.979 564.062 302.776 564.164 302.561 564.277ZM300.979 564.989C300.595 565.135 300.2 565.271 299.793 565.373C300.211 565.282 300.595 565.147 300.979 565C301.058 564.977 301.137 564.955 301.205 564.921C301.137 564.943 301.058 564.966 300.979 564.989Z" fill="white"/>
<path fill-rule="evenodd" clip-rule="evenodd" d="M297.771 562.841C297.161 562.796 296.528 562.74 295.85 562.672C296.608 562.604 297.093 562.514 297.353 562.243C298.11 562.525 298.878 562.774 299.601 562.988C298.991 562.932 298.37 562.875 297.771 562.841ZM306.076 561.045C303.069 560.514 299.703 559.712 296.008 558.684H295.998C295.24 558.48 294.472 558.266 293.681 558.029C292.009 557.531 290.349 557.023 288.733 556.515C284.869 555.34 281.221 554.199 278.124 553.589L278.406 552.707C275.503 551.419 274.181 551.6 273.017 551.747C272.859 551.758 272.702 551.781 272.543 551.803C271.673 551.883 270.701 551.871 269.03 551.16C269.187 551.092 269.278 550.967 269.346 550.809C269.628 550.165 269.041 549.691 267.855 548.742C267.573 548.505 267.199 548.222 266.894 547.928L267.402 548.12L267.775 547.081C266.047 546.245 264.127 545.375 262.207 544.494C258.263 542.686 254.207 540.822 251.947 539.489L251.619 539.297L251.348 539.602C251.044 539.986 251.191 540.472 251.36 540.845C251.009 540.72 250.445 540.449 249.529 539.963L249.055 540.958C249.473 541.217 249.677 541.398 249.779 541.5C249.744 541.523 249.71 541.534 249.688 541.556C249.563 541.658 249.45 541.748 249.35 541.861L248.772 542.483L249.497 542.777C251.687 543.658 253.371 544.494 254.863 545.239C256.603 546.098 258.025 546.799 259.618 547.284C259.404 547.77 259.845 548.177 260.488 548.764L264.002 549.951C263.992 549.985 263.979 550.018 263.968 550.052C263.8 550.629 264.184 550.888 265.866 551.837L266.014 551.894L266.171 551.871C266.51 551.837 268.081 552.301 270.091 553.114L267.053 553.351L272.848 554.651C273.582 554.899 274.384 555.249 275.153 555.566C277.412 556.515 278.497 556.944 279.028 556.447L282.406 559.554L281.988 557.904C283.333 558.582 284.632 559.237 285.818 559.915C287.23 560.717 288.564 561.44 290.009 562.186L290.145 562.254C290.824 562.582 291.524 562.943 292.281 563.271C293.161 563.61 293.997 563.926 294.856 564.186C295.138 564.287 295.421 564.389 295.726 564.48C296.867 564.818 298.167 565.112 299.793 565.372C300.2 565.27 300.595 565.135 300.979 564.988C301.058 564.965 301.138 564.943 301.205 564.92C301.602 564.751 301.996 564.581 302.359 564.389C302.437 564.355 302.494 564.321 302.561 564.276C302.777 564.163 302.979 564.062 303.171 563.949C303.363 563.824 303.567 563.7 303.747 563.564C304.154 563.305 304.538 562.988 304.911 562.661C305.092 562.502 305.274 562.344 305.453 562.152C305.634 561.971 305.803 561.791 305.985 561.599C306.121 561.429 306.268 561.271 306.403 561.113L306.076 561.045Z" fill="white"/>
<path fill-rule="evenodd" clip-rule="evenodd" d="M300.397 514.941L300.489 514.829C300.34 514.736 300.203 514.634 300.077 514.541C299.802 514.346 299.585 514.188 299.39 514.048C299.596 514.123 299.779 514.188 299.951 514.243C300.008 514.262 300.054 514.281 300.1 514.29C300.707 514.495 301.072 514.597 301.301 514.643C302.045 515.211 303.006 515.778 303.909 516.308L300.397 514.941ZM312.569 521.803L312.528 521.52L312.314 521.407C311.192 520.819 309.663 519.812 307.94 518.614L308.297 517.833L304.127 514.689L303.627 515.572C302.475 514.757 301.323 513.954 300.244 513.242C299.967 513.05 299.702 512.88 299.447 512.722C295.736 510.302 294.523 509.951 293.993 510.188C293.932 509.804 293.748 509.397 293.565 508.978C293.493 508.82 293.381 508.56 293.3 508.356L294.951 508.526L293.504 507.327C291.73 505.834 290.751 505.71 289.721 505.574C288.875 505.484 287.998 505.382 286.489 504.489C285.816 503.346 284.105 502.385 281.942 501.186C281.432 500.892 280.892 500.598 280.382 500.293L280.515 500.146L280.536 499.875C280.566 499.434 280.352 498.981 279.016 497.715C278.517 497.228 277.946 496.708 277.375 496.199C276.223 495.17 274.796 493.869 274.541 493.361L274.46 493.191L274.316 493.134C270.044 491.404 268.281 489.493 266.578 487.344L266.099 486.733C264.57 484.788 262.99 482.753 259.37 480.253C257.27 478.862 256.893 478.794 256.607 479.281C256.445 479.552 256.464 479.812 256.628 480.152C256.281 479.903 255.935 479.665 255.588 479.428C255.567 479.405 255.558 479.394 255.526 479.383L255.385 478.67C255.119 477.392 254.201 476.793 253.059 476.035C252.131 475.402 250.979 474.633 249.858 473.276L249.46 473.739C246.769 471.534 245.566 470.923 244.414 470.324L243.894 470.064C243.048 469.645 242.232 469.17 240.927 468.322C239.561 467.418 238.042 466.343 236.288 465.031L236.196 464.986C235.85 464.862 235.523 464.703 235.208 464.568C234.198 464.127 233.484 463.833 232.996 464.194C232.985 464.206 232.975 464.217 232.975 464.217C231.099 462.487 230.447 461.774 229.865 461.141C229.223 460.44 228.663 459.818 226.613 458.042C226.154 457.647 225.624 457.194 224.973 456.64L224.197 455.995L224.268 457.183C224.299 457.5 224.463 457.861 224.788 458.551C225.022 459.038 225.268 459.58 225.43 460.067C221.393 456.595 219.181 455.238 217.233 454.039C216.377 453.519 215.583 453.021 214.705 452.399L214.674 451.947C214.583 450.522 212.962 449.662 210.729 448.486C209.485 447.842 208.119 447.118 206.946 446.236L207.864 445.229L207.283 444.867C206.824 444.573 206.294 444.245 205.724 443.917C203.94 442.82 201.767 441.475 199.749 439.948C198.698 439.168 197.689 438.319 196.803 437.426L198.749 437.55L196.833 436.352C193.704 434.373 190.359 431.771 186.892 428.639L185.557 427.417C182.59 424.624 179.593 421.48 176.117 417.499C175.892 417.081 175.657 416.651 175.433 416.244L175.168 415.758C175.107 415.973 175.057 416.199 174.995 416.436C174.984 416.47 174.974 416.504 174.954 416.538C174.954 416.549 174.944 416.561 174.944 416.572C174.934 416.629 174.923 416.696 174.903 416.753C174.872 416.866 174.852 416.979 174.821 417.081C174.761 417.307 174.709 417.533 174.648 417.748C174.658 417.76 174.668 417.782 174.679 417.793L174.648 417.771C174.629 417.85 174.607 417.929 174.577 418.008C174.556 418.121 174.526 418.212 174.495 418.314V418.325C174.383 418.789 174.261 419.241 174.148 419.682C174.097 419.897 174.047 420.1 173.985 420.304C174.862 421.435 175.79 422.656 176.85 423.991L176.983 424.138L177.177 424.127C177.89 424.104 179.317 425.631 180.571 426.988L180.755 427.18C182.315 428.865 183.723 430.29 184.853 430.686C184.904 430.991 184.986 431.308 185.079 431.613C185.169 431.952 185.271 432.326 185.271 432.552L185.363 432.925L185.557 433.095C188.248 435.322 188.412 435.3 188.717 434.847C188.82 434.689 188.861 434.553 188.84 434.395C189.553 435.232 190.012 435.933 190.176 436.329L189.676 436.6L190.328 437.166C192.663 439.145 192.887 439.247 193.235 438.93C193.449 438.749 193.468 438.5 193.449 438.297C193.53 438.319 193.631 438.365 193.774 438.41C194.488 439.699 195.222 440.977 195.957 442.244L196.089 442.379C197.292 443.261 198.525 444.144 199.8 445.037C206.621 449.843 214.328 454.797 221.75 459.49C222.424 459.92 223.096 460.349 223.78 460.768L225.298 461.729C228.968 464.07 232.281 466.185 235.615 468.368C237.196 469.408 238.777 470.448 240.315 471.5C240.998 471.986 241.681 472.461 242.345 472.936C244.454 474.474 246.565 476.171 248.614 477.924L250.052 479.145L249.277 477.2C251.713 479.168 254.018 480.694 256.261 482.165C260.074 484.653 263.662 487.016 266.965 491.234L267.057 491.348L268.984 491.958C268.964 492.173 268.984 492.399 269.004 492.569C269.015 492.671 269.035 492.829 269.035 492.931C268.954 492.942 268.78 492.931 268.434 492.806C267.965 492.558 267.537 492.343 267.139 492.196L266.802 493.236C267.312 493.519 267.761 493.722 268.138 493.869C269.107 494.401 270.034 495.057 271.013 495.747C272.248 496.629 273.511 497.534 274.867 498.144L277.242 499.219C277.345 499.377 277.426 499.513 277.487 499.626L277.497 499.66C277.497 499.66 277.507 499.671 277.507 499.682C277.436 499.682 277.314 499.694 277.14 499.66L274.275 499.173L276.865 500.734C277.895 501.333 278.843 501.888 279.709 502.385C281.382 503.358 282.839 504.217 284.297 505.133C286.877 506.762 289.109 508.526 291.77 510.98L291.903 511.059C292.29 511.218 292.638 511.331 292.933 511.376C293.177 511.41 293.391 511.387 293.555 511.297C293.646 511.704 293.872 512.134 294.136 512.552C295.125 513.728 296.206 514.407 297.347 515.108C297.95 515.47 298.571 515.854 299.203 516.318L299.305 516.137L299.407 515.956L301.293 517.618C305.005 520.898 309.184 524.607 313.568 528.52L313.793 528.735C313.802 528.509 313.812 528.283 313.833 528.068C313.863 527.559 313.894 527.05 313.926 526.507C313.935 526.372 313.945 526.225 313.945 526.066C313.955 525.998 313.966 525.919 313.955 525.84C313.966 525.806 313.966 525.772 313.966 525.727C313.975 525.693 313.975 525.659 313.975 525.614V525.603C313.996 525.241 314.016 524.902 314.037 524.528C314.048 524.291 314.067 524.065 314.077 523.827C313.425 523.137 312.63 522.233 312.569 521.803Z" fill="white"/>
<path fill-rule="evenodd" clip-rule="evenodd" d="M280.148 498.621L279.742 499.652L277.279 498.787L276.6 496.449L280.148 498.621Z" fill="white"/>
<path fill-rule="evenodd" clip-rule="evenodd" d="M244.22 372.632L244.57 372.643C244.897 372.858 245.225 373.05 245.518 373.219C245.033 372.994 244.604 372.801 244.22 372.632ZM315.936 424.726C315.846 423.664 315.768 422.591 315.678 421.483C315.644 421.111 315.609 420.749 315.575 420.365C315.575 420.354 315.564 420.354 315.564 420.342V420.331C315.497 420.196 315.441 420.06 315.383 419.902C315.135 419.269 314.853 418.569 313.824 417.495L313.712 417.405C310.807 415.767 307.34 412.66 303.995 409.632C303.736 409.395 303.475 409.18 303.227 408.943C302.493 408.299 301.78 407.644 301.058 407.022C295.545 402.198 292.313 400.278 290.597 400.809L289.659 401.091C289.377 400.922 289.083 400.73 288.777 400.537L290.224 399.419L289.726 398.956C285.219 394.73 279.92 392.2 275.661 390.155L274.644 389.669C270.408 387.658 266.418 385.749 263.392 382.653L263.256 382.563C261.46 381.715 259.438 380.665 257.471 379.648C254.793 378.258 252.025 376.835 249.845 375.908L250.298 375.682L248.963 374.982C247.914 374.417 247.01 373.965 246.229 373.558C246.298 373.581 246.355 373.615 246.41 373.638L249.427 374.654L246.863 372.632C246.027 371.988 244.31 370.644 242.411 369.616L238.784 367.684L241.632 370.339L241.292 370.892L242.593 372.011C241.734 371.785 241.452 371.932 241.26 372.27C240.908 372.892 241.44 373.558 242.627 374.699L242.717 374.779L244.186 375.14C247.585 376.823 248.185 377.671 248.931 378.755C249.496 379.569 250.151 380.507 252.038 381.919C254.738 383.489 257.088 384.246 259.357 384.98C261.742 385.76 263.978 386.472 266.373 388.11C266.746 388.291 267.007 388.46 267.199 388.584L265.561 388.686L267.109 389.624C269.877 391.33 271.967 391.951 273.807 392.505C275.074 392.889 276.283 393.25 277.581 393.928C277.593 396.549 281.433 398.572 285.852 400.899C290.179 403.113 295.465 406.164 297.962 409.915L298.076 410.05C299.611 411.101 301.261 412.411 302.99 413.846C303.623 414.366 304.256 414.897 304.911 415.439C307.227 417.371 309.611 419.348 312.096 421.178C312.017 421.642 312.526 422.127 313.869 423.404C314.458 423.98 315.135 424.624 315.587 425.133L316.005 425.607C315.993 425.325 315.96 425.02 315.936 424.726Z" fill="white"/>
<path fill-rule="evenodd" clip-rule="evenodd" d="M251.94 424.753C251.247 425.014 248.419 424.056 245.162 422.536C246.35 422.985 247.308 423.109 248.364 423.271C249.409 423.42 250.488 423.57 251.94 424.068V424.753ZM242.029 420.683C241.914 420.525 241.833 420.378 241.772 420.288C242.192 420.717 242.564 421.079 242.902 421.395C242.611 421.158 242.314 420.921 242.029 420.683ZM316.327 449.715C315.852 449.613 315.386 449.5 314.909 449.375C310.534 448.196 306.754 447.267 303.411 446.507C303.462 446.428 303.492 446.348 303.512 446.235C303.593 445.702 303.23 445.498 302.58 445.238C302.489 445.204 302.398 445.181 302.297 445.136C298.69 443.515 295.804 442.97 293.007 442.449C290.739 442.018 288.57 441.61 286.28 440.624L289.674 439.717L286.189 439.536C283.809 439.4 279.432 437.359 274.803 435.183C272.078 433.902 269.252 432.576 266.739 431.601L264.885 430.898L265.028 431.068C264.328 430.762 263.468 430.422 262.423 430.025L261.714 429.765C260.135 429.152 258.432 428.461 256.802 427.645C254.937 426.727 253.144 425.65 251.654 424.335L251.421 424.131L251.695 423.179C249.801 422.34 247.562 421.059 245.405 419.812C243.428 418.678 241.412 417.511 239.63 416.672L240.784 416.57L239.336 415.663C236.611 413.985 235.062 413.691 233.683 413.43C232.224 413.169 230.927 412.92 228.456 411.14L229.499 410.641L226.906 409.202C221.06 405.926 215.033 402.548 209.005 399.782L208.742 399.657C205.511 398.07 202.451 396.585 199.412 395.418C196.059 394.126 193.029 393.355 190.426 393.162L190.264 393.196C189.909 393.355 189.828 393.672 189.809 393.82C189.737 394.477 190.294 394.964 191.743 396.121C192.422 396.676 193.821 397.81 193.961 398.014L194.033 398.32L194.275 398.388C196.717 399.079 198.783 399.601 200.699 400.088C203.474 400.802 205.896 401.426 208.59 402.287L208.469 402.627C208.316 402.707 208.144 402.854 208.073 403.126C208.033 403.251 208.012 403.443 208.083 403.647L208.012 403.852L208.144 403.806C208.175 403.874 208.195 403.931 208.235 403.999L208.691 404.668L209.066 403.602C209.603 403.557 210.626 403.761 211.468 403.931C213.25 404.282 213.918 404.418 214.131 403.749C215.023 404.135 215.468 404.543 215.944 404.985C216.471 405.461 217.049 405.983 218.254 406.549C218.143 406.538 218.031 406.538 217.93 406.538C216.998 406.504 216.117 406.47 215.803 407.32L215.58 407.921L216.076 408.091C216.552 408.25 217.04 408.408 217.525 408.567C218.153 408.76 218.761 408.953 219.379 409.168C219.48 409.463 219.794 409.712 220.24 410.041C220.422 410.188 220.726 410.426 220.787 410.528C220.756 410.46 220.686 410.279 220.756 410.063C220.777 409.984 220.827 409.927 220.868 409.882C220.879 409.893 220.879 409.893 220.888 409.905L220.787 410.528L220.746 410.857C224.891 412.07 227.199 413.713 229.884 415.64C231.91 417.08 234.008 418.576 237.117 420.05L237.492 419.052C238.667 420.605 239.65 421.308 241.575 422.668C242.162 423.088 242.831 423.564 243.621 424.153L243.713 424.21C244.939 424.675 246.033 424.958 247.086 425.23C248.787 425.65 250.54 426.08 252.951 427.384C252.951 427.475 252.961 427.565 252.992 427.645C253.144 428.212 253.863 428.88 256.254 430.388C256.589 430.592 256.923 430.819 257.267 431.034C258.432 431.771 260.194 432.882 260.347 433.347L260.498 433.936L260.944 433.641C261.461 433.335 263.831 434.389 265.472 435.126L265.817 435.274C268.37 436.441 269.535 436.951 270.132 436.815C270.902 437.065 271.632 437.371 272.31 437.665L271.986 438.55C272.372 438.81 272.857 439.037 273.496 439.264L275.39 440.125L275.319 440.431C276.211 440.817 276.798 440.885 277.335 440.953L277.528 440.987L277.386 441.542C279.949 442.71 282.319 443.208 284.619 443.662C287.253 444.206 289.766 444.716 292.075 446.28L292.217 446.36L292.369 446.337C292.673 446.258 293.807 446.462 294.81 446.654C297.434 447.165 298.731 447.323 299.218 446.7C299.359 446.847 299.471 446.983 299.592 447.142C300.078 447.743 300.564 448.366 302.418 449.08C302.925 449.284 303.543 449.477 304.283 449.692L304.343 449.715L304.415 449.704C305.923 449.534 307.21 450.112 308.699 450.781C309.135 450.973 309.602 451.189 310.087 451.381C309.814 451.393 309.418 451.393 308.871 451.37L306.318 451.325L308.679 452.458C310.391 453.274 312.6 453.637 314.899 453.977L316.226 454.17C316.226 453.977 316.236 453.796 316.236 453.603C316.236 453.535 316.236 453.456 316.246 453.388C316.246 452.889 316.267 452.402 316.277 451.891C316.287 451.37 316.297 450.826 316.318 450.293V450.282C316.327 450.089 316.327 449.896 316.337 449.715H316.327Z" fill="white"/>
<path fill-rule="evenodd" clip-rule="evenodd" d="M241.284 370.283L240.753 371.226C240.551 371.104 240.369 371.004 240.211 370.926C240.211 371.014 240.188 371.115 240.143 371.203C240.087 371.325 239.917 371.58 239.533 371.569H239.476L239.431 371.558C235.545 370.472 232.788 368.82 230.077 367.103L229.704 366.848C226.913 365.03 223.75 362.979 219.322 360.475L217.254 359.311L219.413 359.422C218.406 358.823 217.333 358.302 216.306 357.793C214.497 356.906 212.962 356.141 212.034 355.122L210.068 352.949C209.154 352.339 208.182 351.752 207.108 351.176L207.944 352.417L205.674 350.854C204.928 350.333 204.443 349.9 203.969 349.491C203.788 349.335 203.617 349.18 203.437 349.026L203.764 350.477L202.488 349.07C201.911 348.427 201.336 347.873 200.737 347.363C200.431 347.097 200.138 346.853 199.821 346.642L198.68 345.833C197.347 344.969 195.811 344.27 194.195 343.55C193.585 343.284 192.964 343.006 192.343 342.708C191.845 342.475 191.371 342.275 190.919 342.031L190.841 341.987C190.931 341.832 191.043 341.676 191.133 341.522C191.461 341.034 191.779 340.557 192.082 340.103C192.184 339.948 192.298 339.793 192.389 339.648L192.399 339.66C192.818 340.037 193.518 340.491 194.467 341.012C195.168 341.31 195.89 341.611 196.59 341.888C197.743 342.353 198.827 342.773 199.776 343.284L199.415 344.303C199.652 344.436 199.867 344.558 200.071 344.713C200.511 345.013 200.862 345.367 201.201 345.844H201.437C201.799 345.823 202.25 345.811 202.77 345.867C202.194 345.357 201.709 344.891 201.483 344.536L200.273 342.697L202.104 343.683C202.544 343.927 203.007 344.16 203.471 344.404C204.984 345.19 206.544 345.999 207.38 346.798L210.543 349.79L209.086 348.982C210.532 350.233 212.102 351.109 213.819 352.051C216.361 353.459 219.242 355.044 222.667 358.291L224.112 359.676L222.225 359.267C221.829 359.189 221.332 358.989 220.756 358.724C221.129 359.067 221.435 359.366 221.718 359.654C222.53 360.463 223.072 361.007 224.462 361.35L224.734 360.729C225.75 361.228 226.744 361.694 227.738 362.148C229.581 363.012 231.321 363.811 233.093 364.775C236.132 366.404 238.742 368.155 241.284 370.283Z" fill="white"/>
<path fill-rule="evenodd" clip-rule="evenodd" d="M281.13 358.274C280.96 358.556 280.688 358.68 280.192 358.613C279.649 358.545 278.825 358.274 277.536 357.754C277.074 357.562 276.577 357.359 276.057 357.144C273.899 356.229 271.448 355.201 269.617 354.93L269.685 354.399C269.165 354.071 267.957 353.483 267.019 353.032C265.098 352.083 263.754 351.405 263.212 350.896C260.534 350.094 258.138 349.394 255.868 348.772L255.484 348.659L255.505 348.207C255.518 347.948 255.631 347.722 255.812 347.541C255.98 347.394 256.196 347.315 256.443 347.292C255.676 347.089 254.975 346.953 254.33 346.863C253.744 346.773 253.201 346.716 252.671 346.671C251.767 346.558 250.908 346.468 250.061 346.242L250.049 346.276C245.892 345.191 242.198 343.971 238.457 342.728L238.186 342.649C235.724 341.847 233.52 341.124 231.578 340.807L234.334 343.022L231.092 341.756C229.283 341.067 227.351 340.209 225.329 339.305C224.244 338.83 223.15 338.344 222.02 337.859C218.066 336.175 214.969 335.328 212.315 335.181C210.982 336.096 206.339 335.599 205.661 335.407L205.762 334.933C203.175 334.786 200.351 334.537 197.662 334.255C197.425 334.232 197.187 334.198 196.949 334.176L196.532 334.13C196.702 333.938 196.86 333.78 197.018 333.622C197.559 333.068 198.069 332.22 198.409 332.141C198.77 332.118 208.352 332.141 208.352 332.141C208.589 332.152 208.846 332.13 209.083 332.141L211.57 332.537C212.496 332.605 213.411 332.718 214.314 332.876C217.703 333.475 220.879 334.605 223.941 335.701L224.585 335.938C226.03 336.469 227.724 337.057 229.363 337.554C230.786 337.96 232.335 338.39 234.255 338.864C235.542 339.169 236.843 339.474 238.153 339.779C240.198 340.254 242.321 340.762 244.412 341.316C248.366 342.344 251.687 343.462 254.591 344.728C257.9 346.151 261.076 347.654 263.787 348.942L265.234 349.62C270.6 352.173 275.684 354.579 280.429 356.432L280.541 356.477L280.61 356.579C280.915 356.952 281.49 357.675 281.13 358.274Z" fill="white"/>
<path fill-rule="evenodd" clip-rule="evenodd" d="M288.644 359.921H288.509C288.542 360.11 288.509 360.309 288.407 360.476C288.284 360.686 288.001 361.163 285.889 361.007C285.729 360.986 285.55 360.974 285.345 360.941C284.294 360.808 282.725 360.497 281.313 359.788L279.041 358.636L281.56 358.724C281.923 358.736 282.283 358.746 282.645 358.746L282.227 358.315L282.747 357.905C283.187 357.561 283.843 357.737 285.086 358.237L285.571 358.447C286.397 358.78 287.322 359.168 288.148 359.412L288.339 359.478L288.441 359.677C288.476 359.744 288.486 359.811 288.509 359.877L288.644 359.921Z" fill="white"/>
<path fill-rule="evenodd" clip-rule="evenodd" d="M309.782 371.515L309.455 371.326C306.608 369.742 305.14 369.531 303.773 369.375C303.715 369.365 303.671 369.365 303.614 369.354C302.009 369.176 300.495 368.999 297.277 366.782L295.558 365.596L296.384 365.663C295.627 365.331 294.858 364.987 294.09 364.654L293.13 364.255L293.818 363.801C292.712 363.269 291.604 363.069 290.882 362.937C290.271 362.826 290 362.771 289.808 362.571C289.549 362.227 289.017 361.573 289.368 361.018C289.717 360.453 290.408 360.565 292.566 361.518C293.221 361.806 293.943 362.149 294.655 362.494C296.089 363.169 297.569 363.889 298.473 364.1L298.62 364.133L300.384 366.218C301.66 366.761 302.688 367.082 303.568 367.315C304.167 367.459 304.711 367.57 305.218 367.679C306.585 367.957 307.783 368.201 309.443 369.144C309.467 369.365 309.512 369.598 309.534 369.819C309.59 370.151 309.635 370.485 309.692 370.828C309.714 371.061 309.76 371.294 309.782 371.515Z" fill="white"/>
<path fill-rule="evenodd" clip-rule="evenodd" d="M236.785 168.857C236.796 168.868 236.796 168.879 236.785 168.902C236.785 168.913 236.774 168.913 236.761 168.913C236.096 168.879 235.463 168.744 234.842 168.586C234.232 168.427 233.644 168.134 233.057 167.908L232.209 167.569C231.294 167.219 230.39 166.846 229.487 166.462C229.475 166.45 229.464 166.439 229.475 166.416C229.475 166.405 229.498 166.394 229.509 166.405C230.481 166.654 231.441 166.913 232.401 167.185C232.673 167.252 232.944 167.331 233.215 167.411C233.836 167.591 234.469 167.704 235.056 167.964C235.644 168.201 236.231 168.473 236.785 168.857Z" fill="#765040"/>
<path fill-rule="evenodd" clip-rule="evenodd" d="M261.483 165.818C261.483 165.829 261.483 165.829 261.47 165.84C260.692 166.089 259.911 166.326 259.133 166.563C258.749 166.676 258.363 166.823 257.958 166.891C257.561 166.959 257.156 167.015 256.726 167.004C256.714 167.004 256.714 166.992 256.714 166.981C256.714 166.97 256.714 166.97 256.726 166.959C257.087 166.755 257.471 166.608 257.856 166.484C258.251 166.36 258.658 166.315 259.054 166.236C259.856 166.077 260.658 165.93 261.459 165.795C261.47 165.795 261.483 165.806 261.483 165.818Z" fill="#765040"/>
<path fill-rule="evenodd" clip-rule="evenodd" d="M261.47 165.84C260.692 166.088 259.911 166.325 259.133 166.563C258.749 166.676 258.363 166.822 257.958 166.89C257.561 166.958 257.156 167.015 256.726 167.003C256.714 167.003 256.714 166.992 256.714 166.981C256.714 166.969 256.714 166.969 256.726 166.958C257.087 166.755 257.471 166.608 257.856 166.484C258.25 166.359 258.658 166.314 259.053 166.235C259.855 166.077 260.657 165.93 261.459 165.794C261.47 165.794 261.483 165.806 261.483 165.817C261.483 165.828 261.483 165.828 261.47 165.84ZM236.785 168.901C236.785 168.913 236.775 168.913 236.762 168.913C236.096 168.879 235.463 168.743 234.843 168.585C234.233 168.427 233.644 168.133 233.058 167.907L232.21 167.568C231.294 167.218 230.39 166.845 229.486 166.461C229.476 166.45 229.464 166.438 229.476 166.416C229.476 166.404 229.498 166.393 229.509 166.404C230.481 166.653 231.441 166.913 232.402 167.184C232.673 167.252 232.943 167.331 233.215 167.41C233.836 167.591 234.47 167.704 235.056 167.964C235.645 168.201 236.231 168.472 236.785 168.856C236.796 168.867 236.796 168.879 236.785 168.901ZM262.114 165.93L261.765 163.614C260.545 162.868 259.256 162.157 257.889 161.524C257.889 161.524 257.878 161.501 257.867 161.513C254.274 159.852 250.185 158.654 245.608 158.293H245.586C244.151 158.168 242.637 158.135 241.102 158.202C230.742 158.632 221.906 158.733 214.371 160.383L230.99 170.551L238.277 175.002L266.239 193.158L262.114 165.93Z" fill="#765040"/>
<path fill-rule="evenodd" clip-rule="evenodd" d="M270.316 190.445C270.169 191.88 269.943 193.292 269.458 194.704C269.175 195.393 268.904 196.128 268.216 196.715C268.024 196.839 267.831 196.975 267.616 197.054C267.401 197.111 267.164 197.201 266.951 197.19C266.498 197.212 266.092 197.111 265.719 196.986C264.262 196.444 263.12 195.608 261.899 194.885L258.262 192.704L243.891 183.632C241.496 182.13 239.067 180.684 236.604 179.294C235.372 178.594 234.141 177.938 232.887 177.249C232.186 176.854 231.508 176.424 230.798 176.074C235.498 177.904 239.948 180.401 244.331 182.898C249.247 185.745 253.991 188.841 258.85 191.733L262.477 193.97C263.673 194.704 264.848 195.552 266.057 196.015C266.657 196.229 267.198 196.263 267.593 195.936C268.012 195.608 268.294 194.975 268.544 194.377C268.983 193.1 269.266 191.71 269.458 190.343C270.103 185.677 269.322 180.91 269.028 176.142C268.983 175.249 268.938 174.346 268.938 173.453C269.028 174.481 269.154 175.509 269.288 176.526C269.288 176.537 269.301 176.537 269.301 176.537C269.525 178.322 269.797 180.096 270.046 181.881C270.395 184.694 270.599 187.575 270.316 190.445Z" fill="#765040"/>
<path fill-rule="evenodd" clip-rule="evenodd" d="M191.583 246.901C191.865 246.54 192.148 246.19 192.43 245.828L189.774 249.929C189.729 249.703 189.707 249.477 189.684 249.251C190.329 248.472 190.961 247.692 191.583 246.901Z" fill="#765040"/>
<path fill-rule="evenodd" clip-rule="evenodd" d="M195.458 266.468C195.356 266.389 195.255 266.242 195.209 266.118C195.176 266.027 195.142 265.88 195.187 265.79C195.413 265.406 195.571 264.977 195.627 264.536C195.695 264.073 195.673 263.689 195.548 263.225C195.492 262.977 195.695 262.864 195.899 262.943C196.158 263.045 196.329 263.304 196.396 263.564C196.656 264.558 196.52 265.654 196 266.536C195.876 266.762 195.594 266.592 195.458 266.468Z" fill="#765040"/>
<path fill-rule="evenodd" clip-rule="evenodd" d="M196.678 254.82C196.859 254.978 197.028 255.26 196.949 255.498C196.791 255.961 196.644 256.424 196.497 256.887C196.464 256.978 196.362 257 196.272 256.989C196.147 256.989 196.034 256.899 195.955 256.82C195.774 256.661 195.605 256.39 195.684 256.142C195.831 255.678 195.978 255.215 196.136 254.763C196.159 254.662 196.271 254.65 196.351 254.65C196.475 254.662 196.588 254.752 196.678 254.82Z" fill="#765040"/>
<path fill-rule="evenodd" clip-rule="evenodd" d="M196.09 278.093C197.006 277.02 197.92 275.935 198.836 274.862C198.993 274.67 199.345 274.998 199.435 275.099C199.569 275.269 199.705 275.551 199.548 275.732C198.632 276.816 197.717 277.89 196.803 278.974C196.643 279.155 196.294 278.839 196.204 278.726C196.067 278.568 195.932 278.285 196.09 278.093Z" fill="#765040"/>
<path fill-rule="evenodd" clip-rule="evenodd" d="M196.181 282.77C197.683 281.369 199.197 279.968 200.712 278.568C201.016 278.274 201.739 279.144 201.424 279.437L196.894 283.652C196.577 283.945 195.853 283.075 196.181 282.77Z" fill="#765040"/>
<path fill-rule="evenodd" clip-rule="evenodd" d="M198.802 245.657C197.537 247.115 196.271 248.572 194.927 249.95C194.917 249.962 194.893 249.962 194.882 249.95C194.871 249.939 194.871 249.928 194.882 249.916C195.978 248.323 197.176 246.821 198.361 245.296C199.559 243.793 200.836 242.347 202.09 240.878L209.604 232.089C209.614 232.077 209.636 232.077 209.648 232.089C209.659 232.1 209.659 232.122 209.648 232.134L202.44 241.172C201.231 242.675 200.056 244.2 198.802 245.657Z" fill="#765040"/>
<path fill-rule="evenodd" clip-rule="evenodd" d="M194.949 242.573C194.113 243.669 193.278 244.753 192.431 245.827L217.624 206.895C215.42 211.142 213.082 215.3 210.63 219.401C208.484 222.983 206.258 226.519 203.942 229.987C203.151 231.162 202.349 232.337 201.536 233.501C199.423 236.574 197.22 239.602 194.949 242.573Z" fill="#765040"/>
<path fill-rule="evenodd" clip-rule="evenodd" d="M219.827 203.496L217.624 206.896C218.031 206.139 218.426 205.371 218.81 204.603C219.081 204.083 219.34 203.563 219.59 203.044C219.713 202.829 219.815 202.603 219.929 202.377C222.098 198.061 224.12 193.667 226.017 189.238C226.074 189.114 226.131 188.978 226.164 188.854C226.582 187.814 226.888 186.764 227.102 185.713C226.289 191.972 223.16 198.344 219.827 203.496Z" fill="#765040"/>
<path fill-rule="evenodd" clip-rule="evenodd" d="M219.308 167.691C220.584 168.494 221.725 169.443 222.72 170.505C222.775 170.572 222.833 170.629 222.889 170.697C223.827 171.725 224.629 172.854 225.284 174.063C225.533 174.515 225.759 174.967 225.962 175.442C226.222 176.04 226.447 176.662 226.639 177.283C227.465 179.949 227.657 182.808 227.114 185.644C227.962 179.023 226.199 172.527 219.308 167.691Z" fill="#765040"/>
<path fill-rule="evenodd" clip-rule="evenodd" d="M230.255 175.872C229.871 175.714 229.477 175.567 229.08 175.432C229.487 175.522 229.871 175.658 230.244 175.816C230.436 175.895 230.617 175.985 230.797 176.076C230.617 175.997 230.436 175.929 230.255 175.872Z" fill="#765040"/>
<path fill-rule="evenodd" clip-rule="evenodd" d="M219.918 284.839L243.847 284.703L267.774 284.827L279.727 284.986C283.717 285.087 287.705 285.144 291.692 285.268C287.705 285.392 283.717 285.449 279.727 285.539L267.774 285.697L243.847 285.833L219.918 285.697C211.941 285.607 203.966 285.494 196.001 285.268C203.966 285.031 211.941 284.929 219.918 284.839Z" fill="#765040"/>
<path fill-rule="evenodd" clip-rule="evenodd" d="M290.641 261.101C290.517 259.813 290.415 258.525 290.302 257.237C290.246 256.582 291.116 257.17 291.15 257.576L291.534 262.028L291.658 263.541C291.715 264.197 290.856 263.609 290.822 263.203C290.754 262.502 290.698 261.802 290.641 261.101Z" fill="#765040"/>
<path fill-rule="evenodd" clip-rule="evenodd" d="M291.647 269.43C291.761 269.497 291.873 269.633 291.941 269.746C292.008 269.859 292.043 269.972 292.043 270.096V271.474C292.043 271.576 291.974 271.644 291.884 271.678C291.782 271.712 291.67 271.644 291.579 271.587C291.467 271.52 291.353 271.384 291.286 271.271C291.217 271.158 291.185 271.045 291.185 270.921V269.543C291.185 269.441 291.251 269.373 291.331 269.339C291.433 269.305 291.556 269.373 291.647 269.43Z" fill="#765040"/>
<path fill-rule="evenodd" clip-rule="evenodd" d="M298.598 330.091H202.7C202.7 330.091 199.277 311.478 195.718 289.617H296.471C298.188 312.111 299.085 329.865 298.598 330.091Z" fill="#765040"/>
<path fill-rule="evenodd" clip-rule="evenodd" d="M56.5518 318.471C54.0663 318.087 51.6034 317.612 49.1631 317.036C46.7228 316.483 44.2938 315.85 41.8535 315.262C39.4369 314.664 36.9615 314.087 34.476 314.46C32.003 314.799 29.5163 315.195 27.0195 315.398C26.9969 315.398 26.9856 315.387 26.9856 315.375C26.9856 315.364 26.9969 315.342 27.0093 315.342C29.5062 315.082 31.9679 314.641 34.4534 314.246C36.9615 313.816 39.5035 314.381 41.9337 314.912C44.3842 315.455 46.8471 315.94 49.2874 316.494C51.739 317.036 54.1567 317.68 56.5631 318.415C56.5756 318.426 56.5857 318.437 56.5857 318.448C56.5756 318.46 56.5631 318.471 56.5518 318.471ZM39.5374 318.527C38.2167 319.42 36.8497 320.211 35.4827 321.013C34.1032 321.804 32.6797 322.504 31.2788 323.227L22.8281 327.588C22.8179 327.6 22.7942 327.588 22.7942 327.577C22.7829 327.566 22.7942 327.543 22.8055 327.543L31.0641 322.832C32.4424 322.052 33.7982 321.239 35.2104 320.516C36.6226 319.804 38.0348 319.092 39.5035 318.471C39.5273 318.471 39.5374 318.471 39.5487 318.494C39.5487 318.505 39.5487 318.516 39.5374 318.527ZM219.308 167.691C219.285 167.68 219.273 167.669 219.251 167.657C214.494 164.358 210.936 161.715 210.518 161.398C199.932 164.765 192.194 172.312 186.578 190.309C186.419 190.829 186.273 191.405 186.148 192.049C183.403 197.235 180.432 202.296 177.257 207.233C177.246 207.256 177.224 207.279 177.212 207.301C172.501 214.656 167.339 221.717 161.756 228.439C160.073 230.484 158.346 232.495 156.571 234.472C156.39 234.664 156.222 234.868 156.028 235.06C150.775 240.889 145.183 246.437 139.319 251.622C127.151 262.434 113.741 271.834 99.4268 279.607C95.7437 281.606 91.9929 283.493 88.1968 285.278C87.0444 285.821 85.8808 286.352 84.7182 286.871C77.9848 289.888 71.092 292.554 64.0761 294.847C62.4154 295.401 60.7557 295.921 59.0825 296.429C50.5527 299.005 36.6904 300.541 32.0933 302.609C25.3475 305.625 18.5812 308.687 12.0398 312.099C10.9101 312.675 -2.53539 320.222 0.424624 321.42C4.35624 323.047 22.9648 315.827 27.4149 315.929C23.5748 318.889 7.13548 329.328 7.77946 330.718C8.76236 332.763 15.4393 331.339 23.4833 327.566C19.4048 330.684 17.1453 333.328 17.7791 334.627C18.9541 337.033 29.5841 333.972 41.5044 327.78C45.6382 325.634 56.5857 320.584 56.3711 322.041C55.7384 326.526 38.6799 332.808 38.3851 337.304C38.1252 341.157 52.0327 336.83 65.1392 332.017C73.8046 328.842 82.1073 325.453 85.7226 324.075C89.5977 322.606 93.4288 321.047 97.2011 319.386C98.5128 318.81 99.8109 318.222 101.11 317.624C106.16 315.33 111.109 312.845 115.989 310.212C120.836 307.58 125.615 304.778 130.258 301.829C132.744 300.27 135.195 298.666 137.613 297.017C137.772 296.904 137.929 296.802 138.088 296.678C140.053 295.333 142.009 293.955 143.941 292.554C148.38 289.312 152.73 285.911 156.933 282.375C158.956 280.68 160.966 278.951 162.931 277.189C165.067 275.28 167.168 273.337 169.236 271.359C170.581 270.083 171.903 268.784 173.212 267.462C174.557 266.117 175.89 264.75 177.212 263.372C177.528 263.044 177.844 262.717 178.149 262.378C179.042 261.429 179.923 260.491 180.804 259.531C183.55 256.514 186.227 253.441 188.815 250.3C189.108 249.95 189.391 249.6 189.684 249.25C190.328 248.47 190.962 247.691 191.584 246.9C191.866 246.538 192.148 246.188 192.431 245.826L217.624 206.894C218.032 206.138 218.426 205.369 218.81 204.601C219.081 204.081 219.341 203.562 219.591 203.042C219.714 202.827 219.816 202.601 219.929 202.375C222.098 198.06 224.12 193.665 226.018 189.236C226.074 189.112 226.132 188.976 226.165 188.852C226.583 187.813 226.889 186.762 227.103 185.711C227.103 185.689 227.115 185.666 227.115 185.643C227.962 179.023 226.199 172.527 219.308 167.691Z" fill="#765040"/>
<path fill-rule="evenodd" clip-rule="evenodd" d="M39.5041 318.473C39.5278 318.473 39.538 318.473 39.5493 318.495C39.5493 318.507 39.5493 318.518 39.538 318.529C38.2161 319.422 36.8491 320.213 35.4821 321.015C34.1038 321.805 32.6802 322.506 31.2793 323.229L22.8286 327.59C22.8173 327.601 22.7947 327.59 22.7947 327.579C22.7834 327.567 22.7947 327.545 22.806 327.545L31.0647 322.834C32.443 322.054 33.7987 321.241 35.2109 320.518C36.6232 319.806 38.0354 319.094 39.5041 318.473Z" fill="#765040"/>
<path fill-rule="evenodd" clip-rule="evenodd" d="M56.5628 318.416C56.5753 318.428 56.5866 318.439 56.5866 318.45C56.5753 318.461 56.5628 318.473 56.5516 318.473C54.066 318.089 51.6031 317.614 49.1628 317.038C46.7225 316.484 44.2946 315.852 41.8532 315.264C39.4366 314.665 36.9613 314.089 34.4758 314.462C32.0027 314.801 29.5172 315.196 27.0204 315.4C26.9966 315.4 26.9854 315.388 26.9854 315.377C26.9854 315.366 26.9966 315.343 27.0091 315.343C29.5059 315.083 31.9677 314.643 34.4543 314.247C36.9613 313.818 39.5033 314.383 41.9334 314.914C44.385 315.456 46.8468 315.942 49.2882 316.496C51.7387 317.038 54.1564 317.682 56.5628 318.416Z" fill="#765040"/>
<path fill-rule="evenodd" clip-rule="evenodd" d="M217.624 206.895C215.421 211.142 213.081 215.3 210.63 219.401C208.484 222.983 206.257 226.519 203.942 229.987C203.15 231.162 202.348 232.337 201.536 233.501C199.423 236.574 197.219 239.602 194.949 242.573C194.112 243.669 193.277 244.753 192.43 245.827L217.624 206.895Z" fill="#765040"/>
<path fill-rule="evenodd" clip-rule="evenodd" d="M227.114 185.644C227.962 179.023 226.198 172.527 219.308 167.691C220.584 168.494 221.724 169.443 222.718 170.505C222.775 170.572 222.833 170.629 222.889 170.697C223.827 171.725 224.629 172.854 225.284 174.063C225.533 174.515 225.759 174.967 225.961 175.442C226.222 176.04 226.447 176.662 226.639 177.283C227.465 179.949 227.656 182.808 227.114 185.644Z" fill="#765040"/>
<path fill-rule="evenodd" clip-rule="evenodd" d="M236.786 168.856C236.797 168.867 236.797 168.878 236.786 168.901C236.786 168.912 236.774 168.912 236.762 168.912C236.096 168.878 235.464 168.743 234.842 168.585C234.232 168.426 233.645 168.133 233.057 167.907L232.21 167.568C232.255 167.432 232.323 167.308 232.402 167.184C232.673 167.251 232.944 167.33 233.215 167.41C233.837 167.59 234.469 167.703 235.057 167.963C235.644 168.2 236.232 168.472 236.786 168.856Z" fill="#765040"/>
<path fill-rule="evenodd" clip-rule="evenodd" d="M261.483 165.818C261.483 165.829 261.483 165.829 261.47 165.84C260.692 166.089 259.911 166.326 259.133 166.563C258.749 166.676 258.363 166.823 257.958 166.891C257.561 166.959 257.156 167.015 256.726 167.004C256.714 167.004 256.714 166.992 256.714 166.981C256.714 166.97 256.714 166.97 256.726 166.959C257.087 166.755 257.471 166.608 257.856 166.484C258.251 166.36 258.658 166.315 259.054 166.236C259.856 166.077 260.658 165.93 261.459 165.795C261.47 165.795 261.483 165.806 261.483 165.818Z" fill="#765040"/>
<path fill-rule="evenodd" clip-rule="evenodd" d="M230.798 176.076C230.617 175.997 230.436 175.929 230.255 175.873C230.244 175.85 230.244 175.839 230.244 175.816C230.436 175.895 230.617 175.986 230.798 176.076Z" fill="#765040"/>
<path fill-rule="evenodd" clip-rule="evenodd" d="M270.316 190.445C270.169 191.88 269.943 193.292 269.458 194.704C269.175 195.393 268.904 196.128 268.216 196.715C268.024 196.839 267.831 196.975 267.616 197.054C267.401 197.111 267.164 197.201 266.951 197.19C266.498 197.212 266.092 197.111 265.719 196.986C264.262 196.444 263.12 195.608 261.899 194.885L258.262 192.705L243.891 183.632C241.496 182.13 239.067 180.684 236.604 179.294C235.372 178.594 234.141 177.938 232.887 177.249C232.186 176.854 231.508 176.424 230.798 176.074C235.498 177.904 239.948 180.401 244.331 182.898C249.247 185.745 253.991 188.841 258.85 191.733L262.477 193.97C263.673 194.704 264.848 195.552 266.057 196.015C266.657 196.229 267.198 196.263 267.593 195.936C268.012 195.608 268.294 194.975 268.544 194.377C268.983 193.1 269.266 191.71 269.458 190.343C270.103 185.677 269.322 180.91 269.028 176.142C269.119 176.266 269.21 176.391 269.288 176.526C269.288 176.537 269.301 176.537 269.301 176.537C269.525 178.322 269.797 180.096 270.046 181.881C270.395 184.694 270.599 187.575 270.316 190.445Z" fill="#765040"/>
<path fill-rule="evenodd" clip-rule="evenodd" d="M291.534 262.028C291.218 261.723 290.924 261.406 290.641 261.101C290.517 259.813 290.415 258.525 290.302 257.237C290.246 256.582 291.116 257.17 291.15 257.576L291.534 262.028Z" fill="#765040"/>
<path fill-rule="evenodd" clip-rule="evenodd" d="M476.737 197.259C472.06 200.897 467.146 204.297 462.231 207.664C458.898 209.958 455.295 212.307 451.532 214.273C451.035 214.533 446.945 220.419 441.501 228.124C433.953 238.801 423.762 252.991 416.781 260.673C414.94 262.718 413.029 264.74 411.097 266.717C408.51 269.384 405.867 271.982 403.166 274.535C399.235 278.23 395.201 281.811 391.055 285.291C375.917 298.046 355.909 301.842 337.832 296.679C330.239 294.51 322.975 290.759 316.58 285.415C308.593 278.761 301.464 272.174 294.945 265.554C294.787 265.396 294.63 265.226 294.471 265.068C294.414 264.367 294.358 263.667 294.291 262.967C294.188 261.667 294.075 260.379 293.963 259.08C293.951 259.012 293.951 258.945 293.94 258.877C293.702 256.165 293.465 253.465 293.228 250.799C293.126 249.658 293.026 248.528 292.924 247.398C292.731 245.24 292.527 243.116 292.335 241.038C292.325 240.913 292.314 240.778 292.301 240.642C292.188 239.512 292.088 238.394 291.986 237.298C291.883 236.247 291.794 235.219 291.691 234.191C291.556 232.802 291.431 231.435 291.296 230.101C291.184 228.972 291.07 227.853 290.968 226.769C290.799 225.119 290.641 223.526 290.484 222.001C290.382 220.984 290.279 219.99 290.177 219.041C290.121 218.51 290.066 217.968 289.997 217.437C289.861 216.363 289.714 215.29 289.556 214.228C289.399 213.155 289.218 212.093 289.014 211.031C288.81 209.969 288.597 208.918 288.371 207.867C288.088 206.568 287.782 205.303 287.443 204.026C288.291 205.292 289.149 206.58 290.031 207.867C294.166 214.025 298.606 220.374 303.272 226.475C305.69 229.627 308.163 232.711 310.684 235.671C310.91 235.92 311.123 236.18 311.349 236.439C311.598 236.722 311.848 237.004 312.085 237.276C324.862 251.895 338.872 263.102 352.869 263.441C371.974 263.916 387.327 242.472 398.263 229.141C409.403 215.561 416.983 199.485 429.593 187.091C435.907 180.877 443.013 174.471 451.951 172.573C452.289 172.494 452.718 172.449 452.979 172.686C454.187 173.793 451.894 178.041 451.317 179.115C450.278 181.069 448.854 182.956 447.51 184.617C445.737 186.842 441.929 190.424 442.065 193.553C442.121 194.988 442.833 195.768 443.974 196.061H443.997L444.008 196.073C444.314 196.152 444.653 196.197 445.013 196.208C445.092 196.219 445.183 196.219 445.263 196.219C447.003 196.219 449.262 195.587 451.588 194.672C451.69 194.638 451.78 194.593 451.871 194.559C453.872 193.768 455.894 192.774 457.678 191.813C458.153 191.565 458.616 191.305 459.079 191.034C459.622 190.729 460.163 190.401 460.707 190.074C460.717 190.062 460.74 190.051 460.752 190.04C461.69 189.475 462.423 188.966 462.852 188.627C469.7 183.216 476.196 180.222 477.426 181.917C478.138 182.922 466.638 193.553 464.027 196.445C464.322 196.4 464.671 196.299 465.1 196.163C465.146 196.14 465.181 196.129 465.215 196.118C466.151 195.79 467.349 195.259 468.706 194.604L468.908 194.514C470.512 193.757 472.32 192.853 474.127 191.972C478.489 189.848 482.883 187.848 484.578 188.221C487.097 188.729 477.539 196.649 476.737 197.259Z" fill="#765040"/>
<path fill-rule="evenodd" clip-rule="evenodd" d="M328.713 272.611C328.481 271.182 328.528 269.693 328.868 268.255C329.224 266.821 329.869 265.451 330.76 264.246C331.644 263.044 332.754 261.942 334.122 261.274C335.48 260.612 337.002 260.272 338.476 260.419C338.508 260.422 338.531 260.45 338.528 260.482C338.526 260.506 338.509 260.524 338.488 260.532C337.103 260.999 335.829 261.537 334.668 262.264C333.515 262.982 332.384 263.767 331.467 264.811C329.656 266.896 328.666 269.732 328.826 272.599C328.828 272.63 328.803 272.656 328.773 272.659C328.742 272.66 328.717 272.639 328.713 272.611Z" fill="#672348"/>
<path fill-rule="evenodd" clip-rule="evenodd" d="M474.124 191.969C473.036 193.061 471.608 193.71 470.265 194.407C468.899 195.082 467.502 195.679 466.124 196.314C463.332 197.508 460.585 198.763 457.846 200.09C459.096 199.221 460.426 198.468 461.775 197.761C463.125 197.054 464.515 196.431 465.896 195.798L470.086 194.014C470.785 193.722 471.479 193.421 472.16 193.093C472.84 192.769 473.528 192.443 474.124 191.969Z" fill="#672348"/>
<path fill-rule="evenodd" clip-rule="evenodd" d="M460.751 190.043C459.595 191.034 458.327 191.887 457.026 192.678C455.717 193.461 454.353 194.153 452.942 194.745C451.514 195.289 450.057 195.79 448.54 196.044C447.027 196.287 445.473 196.351 443.975 196.057C447.019 196.17 449.958 195.378 452.727 194.222C454.134 193.685 455.475 192.994 456.813 192.301C458.147 191.596 459.459 190.843 460.751 190.043Z" fill="#672348"/>
<path fill-rule="evenodd" clip-rule="evenodd" d="M423.82 201.373C425.799 200.538 427.941 200.181 430.074 200.003C432.215 199.85 434.368 199.96 436.498 200.232C438.628 200.502 440.736 200.968 442.779 201.631C443.799 201.969 444.791 202.385 445.787 202.775C446.765 203.218 447.721 203.702 448.673 204.186C448.688 204.194 448.693 204.21 448.686 204.224C448.68 204.237 448.663 204.242 448.651 204.238C447.637 203.888 446.64 203.512 445.644 203.142C444.625 202.832 443.634 202.448 442.611 202.17C440.574 201.586 438.531 201.007 436.432 200.679C434.339 200.356 432.212 200.19 430.091 200.285C427.976 200.385 425.835 200.667 423.844 201.423C423.831 201.431 423.812 201.426 423.806 201.411C423.798 201.398 423.807 201.379 423.82 201.373Z" fill="#672348"/>
<path fill-rule="evenodd" clip-rule="evenodd" d="M295.319 275.258C295.105 272.547 294.868 269.813 294.641 267.079C294.585 266.412 294.529 265.734 294.471 265.068C294.415 264.367 294.358 263.667 294.292 262.966C294.189 261.667 294.076 260.379 293.964 259.08C293.951 259.012 293.952 258.944 293.94 258.877C293.703 256.165 293.466 253.465 293.228 250.799C293.128 249.658 293.026 248.528 292.925 247.398C292.731 245.24 292.528 243.116 292.336 241.037C292.326 240.913 292.314 240.778 292.302 240.642C292.189 239.512 292.088 238.394 291.987 237.298C291.884 236.247 291.795 235.219 291.692 234.191C291.556 232.801 291.433 231.434 291.297 230.101C291.185 228.971 291.071 227.853 290.969 226.768C290.799 225.119 290.641 223.526 290.484 222.001C290.383 220.984 290.28 219.99 290.178 219.041C290.122 218.51 290.066 217.967 289.997 217.436C289.862 216.363 289.715 215.29 289.557 214.228C289.4 213.155 289.219 212.093 289.014 211.031C288.811 209.969 288.597 208.918 288.372 207.867C288.089 206.568 287.783 205.303 287.444 204.026V204.015L287.434 204.003C287.23 203.201 287.005 202.399 286.777 201.609C286.179 199.541 285.523 197.507 284.79 195.508C284.473 194.638 284.135 193.768 283.796 192.909C283.445 192.039 283.095 191.192 282.723 190.344C281.987 188.65 281.196 187 280.361 185.373C279.874 184.447 279.389 183.533 278.88 182.641C276.837 179.024 274.532 175.646 271.99 172.539C271.097 171.455 270.058 170.302 268.883 169.161C268.283 168.574 267.651 167.999 266.984 167.434C266.769 167.241 266.543 167.048 266.317 166.869C266.08 166.676 265.854 166.484 265.617 166.304C264.86 165.704 264.058 165.117 263.223 164.552C262.77 164.247 262.318 163.953 261.843 163.659C261.822 163.648 261.787 163.625 261.765 163.614L262.114 165.93L266.239 193.158L238.277 175.002L230.99 170.551L214.371 160.383L214.326 160.394L211.388 161.14L210.472 161.366C210.472 161.366 210.484 161.377 210.518 161.4C210.937 161.716 214.494 164.36 219.251 167.659C219.273 167.671 219.285 167.681 219.308 167.692C226.199 172.528 227.962 179.024 227.115 185.645C227.115 185.667 227.103 185.69 227.103 185.712C226.289 191.971 223.161 198.343 219.828 203.495L217.624 206.896L192.431 245.828L189.775 249.929L189.764 249.94C189.865 250.742 189.979 251.544 190.091 252.346C190.566 255.86 191.064 259.396 191.584 262.91C191.707 263.791 191.831 264.661 191.968 265.542C192.453 268.807 192.939 272.038 193.435 275.236C193.628 276.478 193.82 277.699 194.012 278.919C194.091 279.461 194.181 279.992 194.261 280.523C194.51 282.082 194.757 283.619 194.995 285.133C195.243 286.646 195.481 288.138 195.719 289.618H296.472C296.109 284.986 295.725 280.15 295.319 275.258Z" fill="#F2E14A"/>
<path fill-rule="evenodd" clip-rule="evenodd" d="M236.785 168.857C236.796 168.868 236.796 168.879 236.785 168.902C236.785 168.913 236.774 168.913 236.761 168.913C236.096 168.879 235.463 168.744 234.842 168.586C234.232 168.427 233.644 168.134 233.057 167.908L232.209 167.569C231.294 167.219 230.39 166.846 229.487 166.462C229.475 166.45 229.464 166.439 229.475 166.416C229.475 166.405 229.498 166.394 229.509 166.405C230.481 166.654 231.441 166.913 232.401 167.185C232.673 167.252 232.944 167.331 233.215 167.411C233.836 167.591 234.469 167.704 235.056 167.964C235.644 168.201 236.231 168.473 236.785 168.857Z" fill="#672448"/>
<path fill-rule="evenodd" clip-rule="evenodd" d="M261.483 165.818C261.483 165.829 261.483 165.829 261.47 165.84C260.692 166.089 259.911 166.326 259.133 166.563C258.749 166.676 258.363 166.823 257.958 166.891C257.561 166.959 257.156 167.015 256.726 167.004C256.714 167.004 256.714 166.992 256.714 166.981C256.714 166.97 256.714 166.97 256.726 166.959C257.087 166.755 257.471 166.608 257.856 166.484C258.251 166.36 258.658 166.315 259.054 166.236C259.856 166.077 260.658 165.93 261.459 165.795C261.47 165.795 261.483 165.806 261.483 165.818Z" fill="#672448"/>
<path fill-rule="evenodd" clip-rule="evenodd" d="M209.648 232.089C209.66 232.1 209.66 232.122 209.648 232.134L202.44 241.172C201.232 242.675 200.057 244.2 198.802 245.657C197.536 247.115 196.271 248.572 194.928 249.95C194.916 249.962 194.893 249.962 194.882 249.95C194.871 249.939 194.871 249.928 194.882 249.916C195.977 248.323 197.176 246.821 198.362 245.296C199.559 243.793 200.835 242.347 202.09 240.878L209.603 232.089C209.615 232.077 209.636 232.077 209.648 232.089Z" fill="#2A4D52"/>
<path fill-rule="evenodd" clip-rule="evenodd" d="M291.692 285.268C287.705 285.392 283.716 285.449 279.727 285.539L267.774 285.697L243.846 285.833L219.918 285.697C211.941 285.607 203.966 285.494 196.001 285.268C203.966 285.031 211.941 284.929 219.918 284.839L243.846 284.703L267.774 284.827L279.727 284.986C283.716 285.087 287.705 285.144 291.692 285.268Z" fill="#2A4D52"/>
<path fill-rule="evenodd" clip-rule="evenodd" d="M196.949 255.498C196.79 255.961 196.643 256.424 196.497 256.887C196.462 256.978 196.361 257 196.27 256.989C196.147 256.989 196.033 256.899 195.955 256.82C195.774 256.661 195.605 256.39 195.684 256.142C195.831 255.678 195.978 255.215 196.135 254.763C196.159 254.662 196.27 254.65 196.351 254.65C196.475 254.662 196.588 254.752 196.678 254.82C196.859 254.978 197.027 255.26 196.949 255.498Z" fill="#2A4D52"/>
<path fill-rule="evenodd" clip-rule="evenodd" d="M196.001 266.536C195.877 266.762 195.594 266.592 195.459 266.468C195.357 266.389 195.255 266.242 195.21 266.118C195.176 266.027 195.141 265.88 195.187 265.79C195.412 265.406 195.571 264.976 195.628 264.536C195.695 264.073 195.673 263.689 195.549 263.225C195.493 262.977 195.695 262.864 195.898 262.943C196.159 263.045 196.329 263.304 196.397 263.564C196.655 264.558 196.521 265.654 196.001 266.536Z" fill="#2A4D52"/>
<path fill-rule="evenodd" clip-rule="evenodd" d="M291.658 263.543C291.715 264.199 290.856 263.611 290.822 263.204C290.753 262.504 290.697 261.804 290.641 261.103C290.516 259.815 290.414 258.527 290.302 257.239C290.246 256.584 291.116 257.171 291.15 257.578L291.534 262.03L291.658 263.543Z" fill="#2A4D52"/>
<path fill-rule="evenodd" clip-rule="evenodd" d="M292.042 270.094V271.472C292.042 271.574 291.973 271.642 291.883 271.676C291.782 271.71 291.669 271.642 291.579 271.585C291.466 271.518 291.353 271.382 291.285 271.269C291.217 271.156 291.184 271.043 291.184 270.919V269.541C291.184 269.439 291.251 269.371 291.33 269.337C291.432 269.303 291.555 269.371 291.646 269.428C291.76 269.495 291.873 269.631 291.941 269.744C292.008 269.857 292.042 269.97 292.042 270.094Z" fill="#2A4D52"/>
<path fill-rule="evenodd" clip-rule="evenodd" d="M201.423 279.437L196.893 283.652C196.576 283.945 195.852 283.075 196.18 282.77C197.682 281.369 199.196 279.968 200.711 278.568C201.016 278.274 201.738 279.144 201.423 279.437Z" fill="#2A4D52"/>
<path fill-rule="evenodd" clip-rule="evenodd" d="M199.547 275.732C198.631 276.816 197.717 277.89 196.802 278.974C196.644 279.155 196.293 278.839 196.203 278.726C196.068 278.568 195.932 278.285 196.089 278.093C197.005 277.02 197.92 275.935 198.835 274.862C198.994 274.67 199.344 274.998 199.434 275.099C199.57 275.269 199.705 275.551 199.547 275.732Z" fill="#2A4D52"/>
<path fill-rule="evenodd" clip-rule="evenodd" d="M56.5864 318.45C56.5751 318.461 56.5627 318.473 56.5525 318.473C54.067 318.089 51.6041 317.614 49.1638 317.038C46.7235 316.484 44.2945 315.852 41.8542 315.264C39.4364 314.665 36.9622 314.089 34.4767 314.462C32.0025 314.801 29.517 315.196 27.0202 315.4C26.9976 315.4 26.9863 315.388 26.9863 315.377C26.9863 315.366 26.9976 315.343 27.0089 315.343C29.5057 315.083 31.9686 314.643 34.4541 314.247C36.9622 313.818 39.5042 314.383 41.9332 314.914C44.3849 315.456 46.8478 315.942 49.2881 316.496C51.7397 317.038 54.1574 317.682 56.5627 318.416C56.5751 318.428 56.5864 318.439 56.5864 318.45Z" fill="#672348"/>
<path fill-rule="evenodd" clip-rule="evenodd" d="M39.5493 318.495C39.5493 318.507 39.5493 318.518 39.538 318.529C38.2161 319.422 36.8491 320.213 35.4821 321.015C34.1038 321.805 32.6802 322.506 31.2793 323.229L22.8286 327.59C22.8173 327.601 22.7947 327.59 22.7947 327.579C22.7834 327.567 22.7947 327.545 22.806 327.545L31.0647 322.834C32.443 322.054 33.7987 321.241 35.2109 320.518C36.6232 319.806 38.0354 319.094 39.5041 318.473C39.5267 318.473 39.538 318.473 39.5493 318.495Z" fill="#672348"/>
<path fill-rule="evenodd" clip-rule="evenodd" d="M230.797 176.076C230.617 175.997 230.436 175.929 230.255 175.872C229.871 175.714 229.476 175.567 229.079 175.432C229.487 175.522 229.871 175.658 230.244 175.816C230.436 175.895 230.617 175.985 230.797 176.076Z" fill="#2A4D52"/>
<path fill-rule="evenodd" clip-rule="evenodd" d="M270.316 190.445C270.169 191.88 269.943 193.292 269.458 194.704C269.175 195.393 268.904 196.128 268.216 196.715C268.024 196.839 267.831 196.975 267.616 197.054C267.401 197.111 267.164 197.201 266.951 197.19C266.498 197.212 266.092 197.111 265.719 196.986C264.262 196.444 263.12 195.608 261.899 194.885L258.262 192.704L243.891 183.632C241.496 182.13 239.067 180.684 236.604 179.294C235.372 178.594 234.141 177.938 232.887 177.249C232.186 176.854 231.508 176.424 230.798 176.074C235.498 177.904 239.948 180.401 244.331 182.898C249.247 185.745 253.991 188.841 258.85 191.733L262.477 193.97C263.673 194.704 264.848 195.552 266.057 196.015C266.657 196.229 267.198 196.263 267.593 195.936C268.012 195.608 268.294 194.975 268.544 194.377C268.983 193.1 269.266 191.71 269.458 190.343C270.103 185.677 269.322 180.91 269.028 176.142C268.983 175.249 268.938 174.346 268.938 173.453C269.028 174.481 269.154 175.509 269.288 176.526C269.288 176.537 269.301 176.537 269.301 176.537C269.525 178.322 269.797 180.096 270.046 181.881C270.395 184.694 270.599 187.575 270.316 190.445Z" fill="#2A4D52"/>
<path fill-rule="evenodd" clip-rule="evenodd" d="M291.717 104.495C291.221 104.258 290.757 103.919 290.35 103.535C290.15 102.451 292.206 104.32 292.7 104.381C293.602 105.139 291.976 104.693 291.717 104.495ZM222.023 102.179L221.931 102.405C219.011 100.068 214.774 103.993 218.937 105.829L218.916 105.908C214.677 104.318 218.396 99.8453 221.705 101.818C221.914 91.8205 202.259 96.4515 211.572 109.5L211.503 109.557C199.83 95.6561 223.558 90.6309 222.023 102.179ZM297.264 96.1351C288.029 82.7134 291.953 64.5692 283.313 50.6504C275.76 62.8215 267.153 58.5871 258.06 63.1886C255.622 66.8615 253.637 71.5185 249.092 72.8505C249.536 80.9204 243.358 81.7915 240.176 86.5648C237.916 96.0594 224.906 98.7167 219.073 91.1641C218.949 91.0059 217.977 91.085 217.774 91.085C196.48 92.0725 199.296 123.42 220.541 120.403C229.262 130.055 265.694 152.475 277.922 142.694C288.396 134.019 294.654 118.925 294.022 105.524C300.48 107.532 302.046 99.5267 297.264 96.1351Z" fill="#765040"/>
<path fill-rule="evenodd" clip-rule="evenodd" d="M222.022 102.179L221.932 102.405C219.01 100.068 214.773 103.993 218.938 105.829L218.915 105.908C214.676 104.318 218.396 99.8453 221.706 101.818C221.914 91.8216 202.26 96.4515 211.572 109.5L211.503 109.557C199.83 95.6572 223.557 90.6309 222.022 102.179Z" fill="#765040"/>
<path fill-rule="evenodd" clip-rule="evenodd" d="M291.718 104.495C291.222 104.258 290.757 103.919 290.351 103.535C290.151 102.45 292.207 104.32 292.7 104.381C293.602 105.139 291.976 104.693 291.718 104.495Z" fill="#765040"/>
<path fill-rule="evenodd" clip-rule="evenodd" d="M291.718 104.495C291.222 104.258 290.757 103.919 290.351 103.535C290.151 102.45 292.207 104.32 292.7 104.381C293.602 105.139 291.976 104.693 291.718 104.495Z" fill="#672348"/>
<path fill-rule="evenodd" clip-rule="evenodd" d="M222.022 102.179L221.932 102.405C219.01 100.068 214.773 103.993 218.938 105.829L218.915 105.908C214.676 104.318 218.396 99.8453 221.706 101.818C221.914 91.8216 202.26 96.4515 211.572 109.5L211.503 109.557C199.83 95.6572 223.557 90.6309 222.022 102.179Z" fill="#672348"/>
<path fill-rule="evenodd" clip-rule="evenodd" d="M295.186 60.6716C296.598 65.1907 294.734 70.9186 290.746 77.2228C289.266 68.0355 288.15 58.8414 283.312 50.6505C275.761 62.8216 267.153 58.5872 258.06 63.1899C255.621 66.8616 253.637 71.5186 249.091 72.8506C249.536 80.9205 243.359 81.7916 240.176 86.5649C237.917 96.0595 224.906 98.7168 219.073 91.1642C218.949 91.006 217.977 91.0851 217.773 91.0851C196.48 92.0726 199.296 123.42 220.542 120.403L220.847 134.288C212.051 137.893 209.761 134.476 206.962 128.243C191.822 136.83 172.211 118.251 178.39 102.326C166.665 102.433 161.548 92.7527 170.877 84.7245C157.608 73.603 160.799 55.7695 178.017 49.5546C171.036 43.8967 172.508 38.5483 181.902 40.652C179.384 14.4446 205.665 -7.33181 227.275 8.06928C237.045 -5.5027 257.181 -0.763296 264.185 13.4357C268.426 6.96097 271.626 6.41077 270.037 13.9893C290.775 12.5624 310.726 46.1642 295.186 60.6716Z" fill="black"/>
<path fill-rule="evenodd" clip-rule="evenodd" d="M246.894 146.3L246.782 137.386C246.619 137.435 220.694 120.441 220.546 120.398C220.752 130.691 221.285 154.766 221.689 164.749H247.12L246.894 146.3Z" fill="#765040"/>
<path fill-rule="evenodd" clip-rule="evenodd" d="M246.963 146.334C241.936 144.352 221.235 121.137 220.546 120.398C220.733 120.459 246.587 137.429 246.794 137.386C246.814 138.635 246.882 145.243 246.963 146.334Z" fill="#765040"/>
<path fill-rule="evenodd" clip-rule="evenodd" d="M280.183 89.2513C277.977 82.7624 269.021 83.2408 265.556 88.9874C264.407 79.7421 280.305 80.7966 280.183 89.2513Z" fill="#672348"/>
<path fill-rule="evenodd" clip-rule="evenodd" d="M278.637 69.7773C274.532 68.8292 268.871 71.0863 266.627 74.5647C269.703 62.531 285.038 67.1058 278.637 69.7773Z" fill="#672348"/>
<path fill-rule="evenodd" clip-rule="evenodd" d="M277.658 118.625C274.279 118.625 270.965 116.949 268.979 113.862C268.809 113.598 268.881 113.244 269.14 113.07C269.398 112.898 269.747 112.97 269.918 113.236C272.711 117.572 278.447 118.786 282.703 115.945C282.962 115.772 283.31 115.844 283.482 116.109C283.652 116.374 283.58 116.729 283.32 116.902C281.572 118.068 279.604 118.625 277.658 118.625Z" fill="#672348"/>
<path fill-rule="evenodd" clip-rule="evenodd" d="M277.516 82.4288C277.029 81.5522 276.113 81.2541 275.665 80.4039C275.855 79.3688 279.032 82.9005 277.516 82.4288Z" fill="#672348"/>
</svg>
