<svg width="485" height="764" viewBox="0 0 485 764" fill="none" xmlns="http://www.w3.org/2000/svg">
<g clip-path="url(#clip0)">
<path fill-rule="evenodd" clip-rule="evenodd" d="M363.975 670.25C382.447 690.105 383.666 719.695 384.752 745.41C385.175 749.551 384.614 754.195 386.59 757.961C387.736 759.695 384.456 761.663 382.949 760.421C380.513 759.668 370.698 763.188 372.131 758.573C376.181 740.126 372.584 721.42 371.64 702.831C372.092 695.372 365.865 681.439 365.034 697.795C360.445 689.055 355.654 682.896 357.303 697.917C356.128 693.335 351.579 689.413 347.494 693.454C346.012 697.009 349.287 701.271 349.68 705.019C354.962 722.205 358.427 739.787 357.69 757.843C357.278 760.28 359.583 760.897 359.476 758.076C360.088 742.484 358.252 726.886 353.657 711.956C352.223 706.861 350.742 701.78 349.298 696.687C347.787 693.552 352.404 692.999 353.528 694.662C356.179 697.66 355.414 703.902 359.029 705.681C361.083 702.764 358.228 695.55 359.253 691.79C361.988 695.25 363.379 699.185 364.572 703.338C364.881 704.187 364.967 705.771 366.081 705.855C368.469 703.747 366.243 696.523 367.484 692.962C370.796 700.054 369.644 708.52 370.633 716.202L370.87 718.809C372.082 732.28 373.049 745.767 370.186 759.122C370.71 763.574 354.995 760.763 351.586 761.72C344.205 762.263 336.799 761.62 329.453 762.366L329.299 762.368C327.854 762.384 327.678 762.147 327.682 760.654C327.921 755.931 327.766 751.2 327.634 746.473C327.335 744.568 328.909 743.713 329.907 742.374C333.223 737.685 336.537 732.996 339.816 728.281C344.812 720.449 340.849 719.731 334.342 723.999C344.514 708.608 336.46 709.715 325.922 719.132C344.768 681.454 301.037 717.845 307.562 759.177C307.521 760.635 308.264 763.068 306.037 762.789C303.387 762.246 289.266 764.771 289.751 761.74C289.574 747.433 287.73 733.206 286.376 718.976C286.883 707.708 281.505 686.945 278.001 711.675C275.192 702.087 270.756 692.04 268.785 709.121C266.168 699.495 256.787 695.809 260.697 709.357C263.984 726.391 264.66 744.01 264.119 761.292C264.444 765.545 255.314 762.594 252.36 763.187C250.11 762.598 243.934 764.651 244.126 761.341C242.777 751.632 242.413 741.885 242.803 732.093L242.823 731.749C243.137 725.933 243.124 710.192 236.806 723.356C234.926 711.144 228.952 726.318 227.794 730.563C227.037 725.679 226.934 720.592 225.592 715.84C220.765 711.723 217.177 734.7 218.304 738.004C219.053 745.718 219.959 753.416 220.776 761.122L220.787 761.283C220.879 762.88 220.617 763.16 218.95 763.13C201.811 761.346 196.777 768.924 201.459 748.636C202.233 741.765 201.196 734.789 199.981 728.003C197.388 716.502 200.806 704.957 202.91 693.656C204.159 686.43 209.55 680.755 216.432 678.402C225.495 675.63 233.083 684.207 239.042 689.873L239.202 690.067C240.054 691.08 240.681 691.428 241.127 689.733C243.914 681.391 250.458 674.105 258.983 671.467C269.233 668.797 274.591 681.004 277.903 688.622C282.264 679.268 287.314 673.608 298.049 671.64C311.907 668.141 321.935 678.5 325.846 690.781C327.967 687.787 328.202 683.732 329.995 680.45C335.036 667.798 353.235 659.186 363.975 670.25ZM272.505 702.166C274.13 703.655 279.046 726.106 281.204 720.442C280.174 715.251 279.89 709.899 281.213 704.72C284.182 696.271 285.036 728.221 285.642 729.978C285.391 733.872 290.659 764.812 286.334 763.276C280.171 763.195 274.019 763.49 267.863 763.637C264.627 762.557 268.798 756.666 268.057 754.278L266.671 754.562C265.787 740.094 266.25 725.468 263.196 711.2C259.427 695.801 265.992 704.794 267.987 712.985C269.342 715.381 269.34 722.287 271.841 722.916C272.92 722.367 272.444 721.373 272.314 720.563C271.77 714.534 269.948 707.892 272.505 702.166ZM224.282 718.375C225.357 720.444 226.108 745.515 228.844 741.279L228.884 740.858C229.531 733.97 229.761 726.483 234.425 720.9C235.486 722.48 233.49 742.619 236.912 736.783L236.91 736.321C236.906 730.933 237.341 725.755 240.236 720.992C242.054 730.451 240.154 741.61 241.225 751.535C240.653 753.996 244.215 763.914 240.329 763.142C237.492 762.528 221.546 764.835 222.674 761.356C221.572 747.314 216.779 731.211 224.282 718.375ZM328.825 705.836C329.143 712.178 324.292 717.814 321.419 723.204L321.229 723.488C320.817 724.115 320.383 724.903 320.952 725.513C321.872 726.062 322.81 725.031 323.509 724.504L325.41 722.836C328.265 720.338 331.144 717.871 334.194 715.612L334.704 715.238C337.998 712.781 337.224 715.872 336.013 717.918C333.645 721.785 331.179 725.596 328.575 729.308C327.233 730.683 328.99 732.092 330.161 730.661L330.57 730.323C333.688 727.725 336.526 724.985 340.342 723.36C337.1 731.75 329.618 737.907 325.904 745.649C326.047 750.13 326.009 754.615 325.997 759.099L325.993 760.394C325.974 762.458 325.757 762.6 323.667 762.661C320.373 762.757 317.08 762.883 313.787 762.971L311.81 763.02C309.809 763.063 309.675 762.922 309.667 760.867C308.503 741.297 311.718 717.762 328.825 705.836Z" fill="#EBBF5E"/>
<path fill-rule="evenodd" clip-rule="evenodd" d="M57.8555 697.095C57.6109 669.105 57.7262 639.836 61.9384 612.725C58.3127 612.382 58.385 627.221 57.7535 630.339C56.5014 645.968 55.8711 661.622 55.9022 677.301C56.0778 703.513 55.1664 729.811 57.3243 755.953C57.3743 757.446 57.9563 759.051 55.8426 759.008C52.7116 760.044 51.6429 759.491 49.6926 756.934C30.6034 743.376 22.108 718.622 21.0038 695.956C18.7515 677.027 35.5815 671.523 37.8211 655.366C37.55 631.465 33.6703 606.879 44.1104 584.286C50.0113 571.589 72.0931 540.55 86.936 556.701C92.7851 567.206 83.2296 579.006 81.1403 589.501C79.4342 594.795 86.2148 596.416 89.257 599.25C113.74 617.779 101.876 636.248 87.4096 656.292C84.4035 661.776 81.2617 668.034 83.4113 674.391C86.2398 683.586 85.842 693.232 86.1731 702.738C85.9093 723.127 78.1048 746.439 61.1608 758.589C58.2944 759.923 59.369 753.82 58.8636 752.256C57.623 733.891 58.0845 715.488 58.0375 697.095H57.8555Z" fill="#EBBF5E"/>
<path fill-rule="evenodd" clip-rule="evenodd" d="M96.6426 740.394C96.6773 735.526 98.6113 731.439 101.967 727.995C112.08 714.715 91.4596 696.568 104.385 684.219C115.848 674.286 117.329 669.951 120.086 655.282C121.435 646.515 135.697 626.071 143.42 639.442C149.27 654.515 131.019 665.876 142.031 685.485C147.274 697.59 145.071 711.58 138.713 722.829C135.493 729.127 141.184 735.022 140.986 741.471C141.757 751.765 133.343 760.935 123.699 763.488C122.195 764.045 117.635 764.915 117.99 762.311C120.984 738.389 124.438 714.548 128.129 690.726C128.473 666.892 116.175 759.234 116.104 761.64C115.972 765.838 108.235 761.009 105.788 760.885C102.029 759.84 103.759 758.717 101.942 757.058C96.5006 753.874 97.4378 745.836 96.6426 740.394Z" fill="#52DC82"/>
<path fill-rule="evenodd" clip-rule="evenodd" d="M252.426 539.41C257.788 545.973 255.32 555.949 260.011 563.081C268.579 579.495 273.796 551.79 279.594 546.66C285.33 538.363 290.273 557.863 291.533 561.842L291.59 562.036C291.876 563.034 291.719 563.132 290.638 563.367C282.723 563.958 277.829 569.91 275.167 576.864L275.026 577.119C272.737 581.329 270.824 587.537 264.837 586.224C258.869 585.688 256.85 580.308 254.904 575.535C251.691 567.615 245.372 564.86 243.31 575.122C242.265 578.797 243.157 588.087 237.249 586.586C227.808 586.156 230.328 562.589 219.799 571.136C216.95 574.744 217.009 579.55 216.001 583.85L215.954 584.045C212.343 599.759 204.415 590.713 197.808 582.891C188.036 571.026 184.34 582.308 182.196 574.696C181.345 570.537 177.807 566.16 179.175 561.94C182.444 555.003 189.909 549.296 193.184 559.67C198.53 569.964 212.103 577.649 210.124 559.505L209.698 559.482C209.977 556.351 210.027 553.179 210.598 550.102C211.219 545.534 217.468 538.508 221.803 543.366C227.62 548.057 226.634 573.153 237.98 565.74C243.584 561.319 243.322 532.101 252.426 539.41ZM239.598 522.38C254.213 525.734 268.107 532.48 279.649 542.072L279.817 542.207C280.639 542.877 280.582 542.988 279.706 543.773C277.208 546.011 275.588 548.855 274.088 551.779C267.075 565.707 264.538 575.138 258.6 553.46C257.476 548.752 257.711 543.436 254.686 539.41C252.465 535.903 246.816 535.4 244.81 539.461C241.562 543.454 240.056 570.304 232.562 564.433C227.229 558.068 228.73 548.024 222.701 541.992L222.516 541.81C217.64 536.885 210.527 543.13 209.075 548.29C205.527 553.21 212.585 575.129 201.58 567.059C194.745 563.636 193.718 549.308 185.703 552.603C181.93 554.027 179.854 556.976 177.668 560.273C174.493 541.783 194.678 534.25 209.052 530.148C219.77 525.897 226.853 518.85 239.598 522.38Z" fill="#60D6E1"/>
<path fill-rule="evenodd" clip-rule="evenodd" d="M484.342 691.915L484.258 692.778C483.493 700.771 483.019 708.809 480.202 716.473C476.785 725.773 470.269 731.532 460.714 733.917L460.109 734.066C458.676 734.423 458.553 734.6 458.579 736.237C459.055 740.878 458.6 745.525 458.484 750.181L458.476 750.599C458.447 752.892 458.744 752.957 461.279 752.579C465.116 751.832 468.692 753.739 472.526 753.318C475.209 753.286 478.451 752.574 480.861 753.988C483.324 756.32 479.864 758.511 477.472 758.167C471.587 757.47 466.599 761.266 460.77 760.968C453.069 759.514 445.565 762.846 437.849 762.366C431.711 762.335 432.056 756.522 437.93 756.294C443.188 755.542 450.569 756.424 454.408 752.66C453.715 750.09 455.749 733.772 452.488 735.139L450.522 735.174C419.224 735.723 427.709 735.12 426.113 710.988L425.878 708.988C424.139 694.057 425.987 704.273 444.409 701.424C457.475 699.926 469.932 696.278 481.911 690.944L482.582 690.644C484.257 689.911 484.516 690.078 484.342 691.915ZM483.988 656.672C484.371 663.804 484.649 670.942 484.957 678.078L484.844 678.083C484.181 681.441 486.587 686.64 482.818 688.464C472.119 693.492 460.732 696.955 449.099 698.992L448.295 699.131C443.786 699.879 425.393 701.554 425.081 696.688C424.796 691.196 424.512 685.706 424.226 680.215C424.592 678.17 422.403 673.201 425.613 673.276C445.285 673.749 465.465 667.575 481.763 656.581L482.036 656.374C482.841 655.775 484.012 655.042 483.988 656.672ZM482.62 638.472C482.241 642.779 485.657 651.209 482.251 654.035C467.196 664.813 448.566 670.448 430.19 671.583L430.178 671.394C428.184 671.088 423.883 672.583 424.152 669.381C424.254 663.895 424.389 658.409 424.544 652.924C424.858 651.628 424.165 648.586 426.105 648.649C444.479 650.022 462.611 642.879 478.493 634.218C483.336 630.325 481.827 634.976 482.62 638.472Z" fill="#F55B80"/>
<path fill-rule="evenodd" clip-rule="evenodd" d="M287.128 602.773C268.342 624.218 230.731 622.407 209.447 606.675C235.26 604.568 261.307 603.796 287.128 602.773ZM291.215 594.21C293.748 594.55 289.536 598.851 289.177 600.167C282.103 601.682 274.197 600.921 266.867 601.602C252.803 601.917 238.802 603.272 224.747 603.708C219.111 604.173 213.352 603.865 207.838 605.215C204.951 605.348 202.988 602.629 200.578 600.75C230.712 598.159 261.029 596.72 291.215 594.21ZM290.826 565.156C294.664 565.289 292.903 582.3 293.856 586.437C293.382 587.577 294.357 592.442 291.579 592.195C285.484 592.588 279.385 592.934 273.294 593.394C254.484 595.135 235.642 596.459 216.779 597.49C212.19 597.765 207.6 598.017 203.011 598.307C200.905 598.243 198.492 599.845 197.131 597.581C192.611 592.693 189.073 587.074 185.519 581.462C183.565 579.048 187.432 578.697 189.073 578.986C195.768 580.932 198.852 588.502 204.297 592.512C213.627 600.709 218.173 586.003 218.744 578.592C219.153 575.666 221.967 567.975 225.398 572.511C228.271 578.429 228.951 586.788 236.519 588.477L236.751 588.526C245.411 590.479 243.6 578.001 245.839 572.897C249.703 564.081 254.004 580.673 256.319 583.344C258.931 587.306 263.939 589.084 268.439 587.948C274.459 585.858 275.76 577.989 278.865 573.017C281.374 568.141 285.565 565.822 290.826 565.156Z" fill="#7DB4DB"/>
<path fill-rule="evenodd" clip-rule="evenodd" d="M480.177 603.997C480.15 609.557 480.352 614.528 480.579 619.996C480.14 623.844 483.295 629.086 479.21 631.625C467.195 638.861 453.776 643.934 439.95 646.326C437.021 646.465 424.69 649.432 425.066 644.989C425.543 638.992 426.124 633.002 426.588 627.003L426.611 626.878C426.899 625.171 426.348 622.736 428.688 622.682C446.809 619.243 464.164 613.154 480.177 603.997ZM479.799 578.001C480.396 606.352 484.758 601.298 457.651 612.809C448.34 616.25 438.805 618.91 429.095 620.963L428.791 621.018C427.16 621.302 427.087 621.099 427.267 619.304C427.685 614.352 427.995 609.389 428.346 604.431L428.502 602.268C428.606 600.942 428.759 600.859 430.319 600.487L431.367 600.204C448.508 595.583 467.07 591.085 479.799 578.001ZM479.466 566.787C483.933 585.664 442.566 595.391 428.736 598.492C428.749 555.094 426.706 587.302 477.509 559.132C480.91 556.848 478.848 565.061 479.466 566.787ZM477.481 537.02C478.912 542.781 478.768 548.202 479.19 553.956C478.299 559.511 465.36 562.936 460.538 565.291C450.984 568.787 441.103 571.052 430.988 572.141L430.647 572.169C429.456 572.259 429.447 572.119 429.423 570.628C429.424 567.047 429.374 563.466 429.35 559.885L429.339 557.487C429.342 555.848 429.463 555.854 431.243 555.298C446.984 550.042 463.754 546.85 477.481 537.02ZM473.251 521.572C473.543 525.14 478 533.36 475.856 535.862C462.817 545.41 446.606 548.517 431.504 553.421L430.967 553.581C429.046 554.144 429.074 553.919 428.834 551.614L428.479 548.82C427.851 543.851 427.255 538.878 426.902 533.879C426.686 527.589 430.31 520.682 435.526 517.434C439.247 516.771 443.037 517.02 446.71 515.998C454.827 515.599 469.53 511.98 473.251 521.572Z" fill="#7DB4DB"/>
<path fill-rule="evenodd" clip-rule="evenodd" d="M4.96753 740.756C4.57423 735.058 9.73737 730.881 4.94508 726.104C2.01292 722.23 -0.535564 717.827 0.0974013 712.747C0.26213 709.455 3.47681 703.691 7.17781 706.361C12.6695 711.472 15.6341 718.786 18.2502 725.72C21.508 733.506 26.693 740.387 29.6683 748.335C31.7151 752.127 30.3532 757.987 25.3175 757.666C24.6571 757.546 24.4638 756.808 24.2472 756.256C22.2328 749.762 18.2024 744.19 15.8565 737.906C15.5265 736.615 13.2037 732.628 12.3436 735.578C15.0839 742.799 20.0972 749.185 22.3722 756.73C22.576 757.385 22.4696 757.837 21.6398 757.864C10.8733 760.437 4.91709 750.582 4.96753 740.756Z" fill="#7DB4DB"/>
<path fill-rule="evenodd" clip-rule="evenodd" d="M367.134 766.035V766.061C367.16 766.588 366.792 767.114 366.081 767.246L335.726 773.038L332.488 773.643L310.452 777.829L308.109 778.277L299.527 779.909L299.501 779.856C299.448 779.593 299.29 779.172 299.106 778.54C298.632 777.04 297.816 774.46 296.684 770.958C296.473 770.3 296.262 769.589 296.025 768.878C287.285 741.63 263.696 668.784 240.213 596.386V596.359C243.662 596.596 247.031 596.728 250.401 596.754C264.644 596.912 278.281 595.412 292.129 592.621C294.604 604.81 297.026 616.947 299.448 628.794C299.606 629.689 299.79 630.584 299.974 631.479C313.954 700.613 325.854 759.427 326.564 761.928L339.833 762.928L342.492 763.113H342.518L359.42 764.376H359.446L366.081 764.877C366.476 764.956 366.739 765.14 366.923 765.403C367.081 765.614 367.134 765.798 367.134 766.035Z" fill="#C79C89"/>
<path fill-rule="evenodd" clip-rule="evenodd" d="M190.218 598.755C182.452 609.022 174.264 619.079 165.734 628.899C164.866 629.873 164.023 630.847 163.154 631.821C125.244 674.865 80.7781 713.171 35.6805 744.157L40.314 756.662L46.0269 772.011L48.212 777.882C48.291 778.198 48.2383 778.487 48.0803 778.698C47.6591 779.409 46.4218 779.619 45.7899 778.829L0.0078125 726.65C0.0078125 726.624 0.0078125 726.624 0.0341392 726.597C0.534346 726.255 1.00823 725.913 1.50843 725.544C34.0219 702.719 68.5362 670.442 92.5198 641.062C109.237 620.606 122.506 600.914 135.459 579.062C139.013 580.984 142.541 582.748 146.095 584.407C160.364 591.015 174.843 595.49 190.218 598.755Z" fill="#C79C89"/>
<path fill-rule="evenodd" clip-rule="evenodd" d="M223.877 543.799C223.772 544.247 223.666 544.668 223.561 545.115C223.087 547.169 222.613 549.249 222.139 551.302C220.481 558.331 218.796 565.334 217.085 572.337C217.058 572.39 217.058 572.442 217.032 572.495C215.795 577.602 214.505 582.683 213.215 587.765C213.083 588.265 212.714 588.949 212.162 589.16C212.135 589.186 212.083 589.212 212.03 589.212C211.582 589.344 211.082 589.16 211.24 588.554C213.978 577.813 216.637 567.045 219.164 556.251C220.165 552.092 221.139 547.906 222.087 543.746C223.561 537.349 225.009 530.952 226.404 524.528C226.536 523.949 226.983 523.238 227.589 523.08C228.063 522.948 228.51 523.106 228.379 523.712C226.957 530.267 225.483 536.796 223.982 543.325C223.956 543.483 223.903 543.641 223.877 543.799ZM305.214 408.664H158.95C156.712 412.113 107.381 500.334 102.669 507.758C107.671 513.839 103.617 512.733 101.274 510.022C93.0333 523.08 84.5972 541.364 90.6112 545.852C92.1382 547.643 93.902 549.249 95.6133 550.776C109.277 562.728 122.361 571.916 135.446 579.05C139 580.972 142.527 582.736 146.082 584.395C160.351 591.003 174.83 595.478 190.205 598.743C196.129 600.006 202.184 601.059 208.423 602.007C209.371 598.743 210.319 595.505 211.266 592.24C221.35 594.399 230.932 595.742 240.199 596.347C243.648 596.584 247.018 596.716 250.388 596.742C264.631 596.9 278.268 595.399 292.116 592.609C299.461 591.134 336.981 584.395 336.981 584.395C336.672 584.408 306.241 414.509 305.214 408.664Z" fill="#F2E14A"/>
<path fill-rule="evenodd" clip-rule="evenodd" d="M165.893 498.791C155.757 518.51 129.746 524.46 110.159 516.167C106.789 514.719 103.63 512.745 101.287 510.033C101.735 509.296 102.209 508.532 102.682 507.769C107.684 513.85 116.609 516.246 124.139 517.141C134.485 518.405 145.305 516.43 153.914 510.375C158.311 507.295 161.891 503.214 164.366 498.449C164.524 498.133 164.761 497.896 164.998 497.765C165.445 497.501 165.945 497.528 166.051 497.896C166.13 498.081 166.103 498.397 165.893 498.791Z" fill="#F2E14A"/>
<path fill-rule="evenodd" clip-rule="evenodd" d="M48.9821 781.539C49.4692 781.107 49.5271 780.368 49.0953 779.87L48.99 779.749L42.5163 772.306L46.0256 772.022L40.3128 756.66L29.6373 757.527L4.02142 728.096L2.07325 725.861C1.64149 725.374 0.891178 725.326 0.404135 725.748C-0.082909 726.177 -0.140828 726.93 0.29093 727.414L29.0186 760.412L39.5861 772.546L47.313 781.426C47.7448 781.923 48.4951 781.958 48.9821 781.539Z" fill="#F2E14A"/>
<path fill-rule="evenodd" clip-rule="evenodd" d="M273.188 624.106C273.135 624.159 273.135 624.238 273.188 624.29C275.426 626.765 278.164 628.845 281.244 630.293C284.35 631.714 287.747 632.53 291.195 632.662C294.144 632.794 297.172 632.504 299.962 631.477C299.778 630.582 299.594 629.687 299.436 628.792C296.777 629.687 294.065 630.451 291.195 630.556C284.851 630.819 278.295 628.529 273.372 624.106C273.32 624.053 273.241 624.053 273.188 624.106Z" fill="black"/>
<path fill-rule="evenodd" clip-rule="evenodd" d="M137.974 617.788C139.475 620.789 141.555 623.501 144.108 625.765C146.715 627.977 149.769 629.662 153.059 630.741C156.271 631.768 159.746 632.347 163.143 631.82C164.011 630.846 164.854 629.872 165.723 628.898C164.827 629.03 163.932 629.135 163.037 629.188C159.931 629.372 156.745 629.425 153.612 628.714C147.425 627.239 141.765 623.238 138.211 617.657C138.185 617.604 138.08 617.578 138.027 617.63C137.974 617.657 137.948 617.736 137.974 617.788Z" fill="black"/>
<path fill-rule="evenodd" clip-rule="evenodd" d="M165.893 498.791C155.757 518.51 129.746 524.46 110.159 516.167C106.789 514.719 103.63 512.745 101.287 510.033C101.735 509.296 102.209 508.532 102.682 507.769C107.684 513.85 116.609 516.246 124.139 517.141C134.485 518.405 145.305 516.43 153.914 510.375C158.311 507.295 161.891 503.214 164.366 498.449C164.524 498.133 164.761 497.896 164.998 497.765C165.445 497.501 165.945 497.528 166.051 497.896C166.13 498.081 166.103 498.397 165.893 498.791Z" fill="#9B51E0"/>
<path fill-rule="evenodd" clip-rule="evenodd" d="M228.391 523.722C226.969 530.277 225.495 536.806 223.995 543.335C223.968 543.493 223.916 543.651 223.889 543.809C223.784 544.257 223.679 544.678 223.573 545.125C223.099 547.179 222.626 549.259 222.152 551.312C220.493 558.341 218.808 565.344 217.097 572.347C217.071 572.4 217.071 572.453 217.044 572.505C215.807 577.613 214.517 582.694 213.227 587.775C213.095 588.275 212.727 588.959 212.174 589.17C212.148 589.196 212.095 589.223 212.042 589.223C211.595 589.354 211.094 589.17 211.252 588.565C213.99 577.823 216.649 567.056 219.177 556.262C220.177 552.102 221.151 547.916 222.099 543.757C223.573 537.359 225.021 530.962 226.417 524.538C226.548 523.959 226.996 523.248 227.601 523.09C228.075 522.958 228.523 523.116 228.391 523.722Z" fill="#9B51E0"/>
<path fill-rule="evenodd" clip-rule="evenodd" d="M369.016 766.899C368.895 766.259 368.287 765.833 367.639 765.951L367.481 765.978L357.78 767.76L359.507 764.211L343.018 762.039L338.498 771.314L300.124 778.367L297.207 778.904C296.568 779.028 296.146 779.649 296.26 780.281C296.383 780.921 296.999 781.352 297.636 781.231L340.665 773.315L356.49 770.406L368.068 768.276C368.719 768.16 369.129 767.531 369.016 766.899Z" fill="#F2E14A"/>
<path fill-rule="evenodd" clip-rule="evenodd" d="M248.127 318.337L247.89 328.104L247.39 348.587L245.968 404.926C245.626 420.011 245.231 435.07 244.757 450.129C244.573 454.473 244.388 458.79 244.204 463.134C244.151 464.371 244.099 465.609 244.046 466.846C243.835 472.48 243.598 478.14 243.335 483.774C243.256 485.67 243.177 487.565 243.072 489.461C242.993 491.409 242.888 493.357 242.782 495.305C242.782 495.332 242.756 495.358 242.73 495.358C242.677 495.358 242.651 495.332 242.651 495.305C242.651 493.331 242.677 491.356 242.73 489.382C242.756 487.591 242.756 485.828 242.809 484.037C242.835 481.194 242.888 478.324 242.94 475.455C242.993 472.585 243.046 469.716 243.098 466.846C243.125 465.609 243.151 464.371 243.177 463.134C243.283 458.764 243.362 454.42 243.441 450.076C243.862 435.017 244.362 419.958 244.915 404.899L246.889 348.981L247.653 327.473V327.394L247.969 318.285L248.1 314.546C248.1 314.494 248.153 314.467 248.179 314.467C248.206 314.467 248.232 314.494 248.232 314.546L248.127 318.337ZM239.86 336.081C240.018 333.896 240.255 331.737 240.703 329.579C241.545 325.393 243.046 321.338 245.046 317.574C245.152 317.363 245.283 317.153 245.389 316.942C245.573 316.626 245.81 316.415 246.073 316.31C246.942 315.915 248.048 316.521 247.416 317.679C247.337 317.837 247.258 317.969 247.179 318.127C246.758 318.89 246.363 319.68 245.994 320.47C244.494 323.682 243.414 327.078 242.782 330.605C242.019 334.739 242.493 339.267 240.439 343.058C239.702 344.427 237.596 343.848 238.412 342.321C239.465 340.399 239.676 338.24 239.86 336.081ZM237.227 345.796L236.201 346.823C236.095 346.954 235.964 347.086 235.806 347.165C235.7 347.244 235.543 347.323 235.385 347.349C235.227 347.402 235.095 347.402 234.937 347.349C234.805 347.349 234.674 347.27 234.568 347.191C234.489 347.112 234.437 347.033 234.358 346.981C234.279 346.796 234.226 346.612 234.226 346.401C234.226 346.296 234.252 346.217 234.252 346.112C234.305 345.875 234.41 345.664 234.568 345.506C234.911 345.138 235.253 344.796 235.595 344.453C235.7 344.322 235.832 344.216 235.99 344.137C236.122 344.032 236.253 343.953 236.411 343.927C236.569 343.9 236.727 343.9 236.859 343.927C237.017 343.953 237.122 344.006 237.254 344.111L237.438 344.322C237.543 344.48 237.596 344.664 237.596 344.875C237.57 344.98 237.57 345.085 237.543 345.19C237.491 345.401 237.385 345.612 237.227 345.796ZM225.565 337.266C224.775 339.346 223.827 341.347 222.721 343.269C222.511 343.637 222.3 344.006 222.09 344.348C221.01 346.165 219.773 347.902 218.43 349.561C215.797 352.825 212.665 355.589 209.426 358.222C208.979 358.591 208.505 358.959 208.057 359.328C205.556 361.355 203.055 363.435 200.923 365.804C199.922 366.884 199.001 368.042 198.211 369.279C198.106 369.464 197.922 369.806 197.711 370.148C197.448 370.648 197.185 371.201 197.027 371.491C197 371.543 196.974 371.622 196.948 371.649C196.421 372.833 195.921 374.044 195.421 375.334C195.394 375.413 195.368 375.492 195.342 375.571C194.999 376.703 194.683 377.862 194.183 379.02C194.078 379.31 193.92 379.573 193.762 379.836C193.762 379.863 193.762 379.889 193.736 379.889C193.604 380.152 193.446 380.416 193.262 380.652C192.946 381.126 192.604 381.6 192.314 382.1C189.918 386.102 188.207 390.525 186.391 394.895C185.522 397.08 184.627 399.265 183.679 401.451C182.652 403.557 182.415 405.768 182.573 408.059C182.889 411.797 184.311 415.43 185.022 419.274C185.206 420.143 185.311 421.038 185.39 421.933C186.312 426.356 187.18 430.831 188.023 435.28L188.576 438.203C188.576 438.229 188.549 438.255 188.523 438.282C188.47 438.282 188.444 438.255 188.444 438.229C187.18 433.332 185.996 428.383 184.864 423.46C184.758 422.986 184.653 422.538 184.548 422.064L184.521 422.012C184.074 417.378 181.889 413.061 181.31 408.164C181.02 405.768 181.415 403.135 182.494 400.95C183.416 398.792 184.311 396.58 185.18 394.395C186.996 390.025 188.813 385.602 191.34 381.495C191.656 380.995 192.024 380.495 192.367 379.994C192.683 379.547 192.946 379.073 193.183 378.573C193.657 377.546 193.973 376.414 194.341 375.282C194.71 374.15 195.131 372.991 195.658 371.912C196.158 370.806 196.763 369.753 197.421 368.753C198.159 367.647 198.975 366.594 199.87 365.62C200.212 365.225 200.607 364.83 200.976 364.462V364.435C203.029 362.355 205.319 360.539 207.584 358.722C208.505 357.985 209.426 357.248 210.348 356.511C213.086 354.273 215.719 351.93 217.956 349.192C219.062 347.876 220.115 346.48 221.063 345.032C221.326 344.611 221.589 344.216 221.853 343.795C223.169 341.663 224.301 339.451 225.222 337.134C225.512 336.397 225.802 335.634 226.065 334.87C227.434 331.211 228.513 327.394 228.566 323.471C228.566 323.418 228.592 323.392 228.619 323.392C228.671 323.392 228.698 323.418 228.698 323.471C228.671 327.525 227.618 331.474 226.276 335.292C226.065 335.95 225.802 336.608 225.565 337.266ZM202.924 471.848C201.291 470.505 199.37 468.373 197.342 466.872C196.421 466.162 195.447 465.609 194.499 465.319C194.71 465.846 194.947 466.372 195.236 466.872C196.316 468.794 197.869 470.69 198.948 472.48C201.107 476.06 203.345 479.693 204.74 483.642C205.372 485.327 203.477 486.802 202.029 485.801C198.317 483.274 193.657 477.14 190.498 473.981C192.367 478.693 201.37 487.644 197.948 492.199C196.553 494.12 188.339 482.826 182.758 476.771C184.837 483.011 189.155 496.016 186.154 496.543C183.442 496.464 178.229 487.723 175.939 481.22C175.175 479.035 169.963 474.56 166.856 473.006C166.277 472.717 165.198 470.453 163.934 466.872C163.829 466.609 163.75 466.32 163.644 466.03C171.858 464.134 191.788 456.21 192.314 454.446C194.078 455.947 196.395 457.447 199.396 459.58C202.081 461.475 204.714 464.187 206.767 466.872C206.978 467.162 207.189 467.425 207.399 467.715C208.9 469.821 213.033 474.296 210.058 475.955C208.189 476.982 204.108 472.822 202.924 471.848ZM156.957 457.421C156.931 457.421 156.878 457.395 156.878 457.368C156.852 457.237 156.826 457.079 156.799 456.947C155.983 453.051 155.404 449.128 154.72 445.232C154.035 441.178 153.351 437.097 152.587 433.069C152.245 431.094 151.587 429.094 151.06 427.145C150.481 425.224 149.481 423.433 148.664 421.511C148.217 420.485 147.875 419.405 147.638 418.326V418.3C147.401 417.352 147.243 416.378 147.085 415.456C146.848 414.509 146.716 413.271 146.874 412.271C147.032 411.27 146.901 410.296 146.769 409.243C146.769 409.217 146.795 409.191 146.822 409.191C146.848 409.164 146.901 409.191 146.901 409.217C147.269 410.165 147.69 411.218 147.69 412.271C147.769 413.35 147.901 414.166 148.243 415.193C148.375 415.641 148.506 416.062 148.585 416.509V416.536C149.007 418.063 149.296 419.59 149.796 421.064C150.455 422.959 151.376 424.855 151.876 426.908C152.35 428.936 152.824 430.91 153.193 432.964C153.877 437.018 154.456 441.099 155.088 445.153C155.72 449.233 156.247 453.314 157.01 457.342C157.01 457.342 157.01 457.368 156.984 457.395L156.957 457.421ZM228.698 286.034L220.852 285.587C220.773 285.56 220.694 285.534 220.589 285.534C220.457 285.482 220.326 285.455 220.168 285.455C220.141 285.429 220.115 285.429 220.062 285.455C219.352 285.403 218.641 285.429 217.956 285.482C217.825 285.482 217.693 285.482 217.561 285.508C216.429 285.587 215.297 285.771 214.218 286.034C213.665 286.166 213.138 286.324 212.612 286.482C199.975 288.772 189.287 291.01 175.412 308.623C148.796 306.201 133.527 315.652 131.868 307.991C130.157 300.145 154.562 286.64 183.916 281.901C201.686 279.031 213.086 278.452 220.536 280.058C220.642 280.058 220.958 280.137 221.063 280.164L221.142 278.057C221.036 278.031 220.721 277.978 220.615 277.978C207.531 276.241 192.63 276.846 177.282 280.19C151.481 285.797 130.104 297.881 117.994 312.019C109.543 321.891 128.498 332.29 130.736 342.663C133.211 354.036 138.055 362.987 146.637 368.49C144.9 375.045 143.715 381.311 143.294 386.76C142.794 393.605 144.005 399.792 146.637 409.243C141.583 418.668 135.947 430.726 125.892 445.153C115.837 459.58 127.129 476.745 133.632 479.562C136.344 480.72 138.397 483.063 141.109 484.274C142.478 484.88 143.873 485.485 145.268 486.038C160.38 492.251 176.781 495.99 193.42 498.148C193.762 498.227 194.104 498.254 194.473 498.28C201.134 499.149 207.847 499.754 214.507 500.176C224.643 500.834 234.7 501.044 244.441 501.044L244.783 489.803L245.02 483.037L245.52 466.846L245.626 463.134L249.285 346.981L249.785 331.474L250.206 318.732L250.233 317.521L249.785 287.403C248.978 287.263 241.949 286.806 228.698 286.034Z" fill="#9B51E0"/>
<path fill-rule="evenodd" clip-rule="evenodd" d="M221.063 280.165L220.668 285.483C220.563 285.483 220.431 285.457 220.326 285.457H220.168C220.141 285.43 220.115 285.43 220.062 285.457C219.352 285.404 218.641 285.43 217.956 285.483C217.825 285.483 217.693 285.483 217.561 285.509C216.429 285.588 215.297 285.773 214.218 286.036C213.665 286.168 213.139 286.325 212.612 286.483C199.975 288.774 189.287 291.012 175.412 308.624C148.796 306.202 133.527 315.653 131.868 307.992C130.157 300.147 154.562 286.641 183.916 281.903C201.686 279.033 213.086 278.454 220.536 280.06C220.642 280.06 220.958 280.139 221.063 280.165Z" fill="#9B51E0"/>
<path fill-rule="evenodd" clip-rule="evenodd" d="M228.697 323.47C228.671 327.524 227.618 331.473 226.275 335.29L226.064 334.869C227.433 331.21 228.513 327.392 228.565 323.47C228.565 323.417 228.592 323.391 228.618 323.391C228.671 323.391 228.697 323.417 228.697 323.47Z" fill="#9B51E0"/>
<path fill-rule="evenodd" clip-rule="evenodd" d="M237.596 344.874C237.57 344.979 237.57 345.084 237.544 345.19C237.491 345.4 237.386 345.611 237.228 345.795L236.201 346.822C236.096 346.954 235.964 347.085 235.806 347.164C235.701 347.243 235.543 347.322 235.385 347.348C235.227 347.401 235.095 347.401 234.937 347.348C234.806 347.348 234.674 347.269 234.569 347.191C234.49 347.112 234.437 347.033 234.358 346.98C234.279 346.796 234.227 346.611 234.227 346.401C234.227 346.295 234.253 346.216 234.253 346.111C234.306 345.874 234.411 345.664 234.569 345.506C234.911 345.137 235.253 344.795 235.596 344.453C235.701 344.321 235.832 344.216 235.99 344.137C236.122 344.031 236.254 343.952 236.412 343.926C236.57 343.9 236.728 343.9 236.859 343.926C237.017 343.952 237.122 344.005 237.254 344.11L237.438 344.321C237.544 344.479 237.596 344.663 237.596 344.874Z" fill="#9B51E0"/>
<path fill-rule="evenodd" clip-rule="evenodd" d="M248.231 314.548L248.126 318.339L247.889 328.106L247.389 348.588C247.231 348.72 247.073 348.851 246.889 348.983L247.652 327.474V327.395L247.968 318.286L248.1 314.548C248.1 314.495 248.152 314.469 248.179 314.469C248.205 314.469 248.231 314.495 248.231 314.548Z" fill="#9B51E0"/>
<path fill-rule="evenodd" clip-rule="evenodd" d="M221.063 280.165L220.852 285.588C220.773 285.562 220.694 285.536 220.589 285.536C220.484 285.483 220.378 285.457 220.326 285.457H220.168C220.141 285.43 220.115 285.43 220.062 285.457C219.352 285.404 218.641 285.43 217.956 285.483C217.825 285.483 217.693 285.483 217.561 285.509C216.429 285.588 215.297 285.773 214.218 286.036C213.665 286.168 213.139 286.325 212.612 286.483C199.975 288.774 189.287 291.012 175.412 308.624C148.796 306.202 133.527 315.653 131.868 307.992C130.157 300.147 154.562 286.641 183.916 281.903C201.686 279.033 213.086 278.454 220.536 280.06C220.642 280.06 220.958 280.139 221.063 280.165Z" fill="#F2E14A"/>
<path fill-rule="evenodd" clip-rule="evenodd" d="M451.948 352.535C451.948 352.535 451.948 352.562 451.922 352.562L451.895 352.535C451.843 352.535 451.816 352.509 451.843 352.483C451.79 352.062 451.737 351.64 451.658 351.219C451.448 349.955 451.132 348.718 450.711 347.533C450.447 346.744 450.131 345.98 449.763 345.243C449.394 344.506 448.973 343.769 448.526 343.084C447.657 341.689 446.498 340.478 445.445 339.267C445.182 338.951 444.919 338.635 444.629 338.319C444.34 338.003 444.05 337.714 443.76 337.424C443.181 336.818 442.576 336.213 441.97 335.581C441.944 335.555 441.97 335.528 441.997 335.476C442.023 335.449 442.049 335.449 442.049 335.476C443.787 335.976 445.261 336.976 446.604 338.135C447.894 339.346 448.841 340.873 449.658 342.452C451.29 345.533 452.106 349.034 451.974 352.483C451.974 352.509 451.948 352.535 451.948 352.535ZM484.804 337.292C483.487 335.528 473.22 340.004 464.295 344.322C470.061 336.66 478.117 325.314 477.774 321.944C477.774 321.628 477.669 321.417 477.485 321.233C476.248 320.154 471.956 322.813 467.086 326.577C464.374 328.684 461.452 331.185 458.74 333.501C458.609 333.37 458.477 333.212 458.293 333.08C462.321 326.472 467.718 316.942 469.376 311.65C469.955 309.755 470.008 308.412 469.376 307.938C468.981 307.675 468.35 307.727 467.586 308.07C463.321 309.939 454.054 319.89 448.183 326.498C448.973 323.55 449.71 320.417 450.316 317.547C451.711 310.887 452.396 305.121 450.816 304.489C448.289 303.331 440.496 320.522 435.757 330.21L435.731 330.237C435.599 330.526 435.441 330.816 435.31 331.106C435.31 330.869 435.31 330.632 435.283 330.395C434.915 322.128 431.387 313.783 429.017 313.783C423.936 313.835 423.41 326.051 423.647 335.37C424.252 334.87 425.305 333.896 425.885 333.896C428.096 333.896 455.134 359.275 455.134 362.224C460.767 358.986 487.542 341.162 484.804 337.292ZM438.837 373.044C438.864 373.044 438.89 373.044 438.916 373.018C439.127 372.886 439.311 372.754 439.522 372.623C439.285 372.781 439.074 372.912 438.837 373.044ZM279.982 351.456L274.296 328.341L274.085 328.526L274.059 328.552L279.377 351.088L281.667 360.881L281.693 360.907C281.957 361.144 282.194 361.355 282.483 361.566L279.982 351.456ZM320.051 383.364C319.525 382.995 318.972 382.627 318.445 382.285C316.287 377.151 313.944 372.123 311.469 367.094L303.15 349.771L303.123 349.719L303.044 349.534H303.018C302.992 349.534 302.992 349.561 302.992 349.561L310.995 367.331C313.18 372.228 315.444 377.125 317.919 381.916C318.05 382.206 318.182 382.495 318.34 382.759C318.445 382.811 318.551 382.864 318.682 382.89C319.13 383.101 319.604 383.259 320.078 383.443C320.13 383.496 320.209 383.522 320.262 383.496C320.209 383.443 320.13 383.39 320.051 383.364ZM294.277 333.87L294.304 333.923C294.462 334.317 294.62 334.686 294.778 335.055C294.936 334.528 294.83 334.001 294.277 333.87ZM299.622 335.397C299.49 335.16 299.201 334.976 298.911 334.976H297.2C296.515 334.976 295.962 335.502 295.778 336.134C295.699 336.397 295.725 336.766 295.883 337.003C296.015 337.24 296.331 337.424 296.594 337.424H298.305C298.99 337.424 299.569 336.897 299.753 336.239C299.806 335.976 299.78 335.634 299.622 335.397Z" fill="#C79C89"/>
<path fill-rule="evenodd" clip-rule="evenodd" d="M451.98 352.475C451.967 352.52 451.954 352.562 451.909 352.549C451.838 352.549 451.822 352.522 451.835 352.478C451.49 349.1 450.345 345.856 448.536 343.074C447.654 341.689 446.504 340.483 445.453 339.262C444.4 337.969 443.197 336.866 441.97 335.589C441.955 335.563 441.97 335.518 441.984 335.476C442.01 335.46 442.039 335.444 442.055 335.473C443.776 335.973 445.251 336.971 446.604 338.143C447.897 339.343 448.855 340.87 449.655 342.442C451.301 345.53 452.106 349.026 451.98 352.475Z" fill="#C79C89"/>
<path fill-rule="evenodd" clip-rule="evenodd" d="M449.394 366.043C448.657 366.648 447.183 367.807 445.287 369.097C445.156 369.176 445.05 369.255 444.919 369.334C444.892 369.386 444.84 369.413 444.813 369.413C443.418 370.361 441.865 371.361 440.232 372.203C440.469 372.045 440.706 371.914 440.943 371.756C441.022 371.703 441.128 371.651 441.207 371.598C442.128 371.019 443.023 370.44 443.918 369.834C444.445 369.492 444.971 369.15 445.471 368.781C446.814 367.886 448.104 366.964 449.394 366.043Z" fill="#C79C89"/>
<path fill-rule="evenodd" clip-rule="evenodd" d="M435.296 331.11C435.319 330.881 435.298 330.636 435.277 330.394L435.322 330.404C435.448 330.302 435.575 330.27 435.733 330.223C435.596 330.512 435.433 330.82 435.296 331.11Z" fill="#C79C89"/>
<path fill-rule="evenodd" clip-rule="evenodd" d="M451.91 352.549C451.839 352.549 451.823 352.522 451.836 352.48C451.491 349.1 450.346 345.856 448.537 343.074C447.655 341.689 446.505 340.483 445.455 339.264C444.401 337.969 443.196 336.866 441.972 335.592C441.956 335.563 441.972 335.518 441.982 335.476C442.011 335.46 442.04 335.444 442.056 335.473C443.778 335.976 445.252 336.971 446.602 338.143C447.898 339.343 448.853 340.87 449.656 342.442C451.302 345.53 452.107 349.026 451.981 352.475C451.968 352.52 451.955 352.562 451.91 352.549Z" fill="black"/>
<path fill-rule="evenodd" clip-rule="evenodd" d="M299.754 336.24C299.57 336.898 298.99 337.425 298.306 337.425H296.595C296.331 337.425 296.015 337.241 295.884 337.004C295.726 336.767 295.7 336.398 295.778 336.135C295.963 335.503 296.516 334.977 297.2 334.977H298.911C299.201 334.977 299.491 335.161 299.622 335.398C299.78 335.635 299.806 335.977 299.754 336.24Z" fill="#9B51E0"/>
<path fill-rule="evenodd" clip-rule="evenodd" d="M248.231 314.548L248.125 318.339L247.888 328.106C247.809 327.895 247.704 327.685 247.651 327.474V327.395L247.967 318.286L248.099 314.548C248.099 314.495 248.152 314.469 248.178 314.469C248.204 314.469 248.231 314.495 248.231 314.548Z" fill="#9B51E0"/>
<path fill-rule="evenodd" clip-rule="evenodd" d="M279.981 351.458C279.77 351.326 279.56 351.194 279.375 351.089L274.057 328.554L270.767 314.548C270.767 314.521 270.793 314.495 270.819 314.469C270.872 314.469 270.898 314.495 270.898 314.521L274.294 328.343L279.981 351.458Z" fill="#9B51E0"/>
<path fill-rule="evenodd" clip-rule="evenodd" d="M294.778 335.056C294.62 334.687 294.462 334.319 294.304 333.924L294.277 333.871C294.83 334.003 294.936 334.529 294.778 335.056Z" fill="#9B51E0"/>
<path fill-rule="evenodd" clip-rule="evenodd" d="M318.446 382.286C318.262 382.154 318.104 382.049 317.919 381.917C315.445 377.126 313.181 372.229 310.996 367.332L302.992 349.561C302.992 349.561 302.992 349.535 303.019 349.535H303.045L303.124 349.719L303.15 349.772L311.469 367.095C313.944 372.123 316.287 377.152 318.446 382.286Z" fill="#9B51E0"/>
<path fill-rule="evenodd" clip-rule="evenodd" d="M455.134 362.223C455.134 362.302 455.134 362.354 455.081 362.407C453.791 363.776 449.579 366.488 445.288 369.094C445.156 369.173 445.051 369.252 444.919 369.331C444.893 369.384 444.84 369.41 444.814 369.41C443.576 370.173 442.365 370.91 441.207 371.595C442.128 371.016 443.024 370.437 443.919 369.831C444.445 369.489 444.972 369.147 445.472 368.778C446.815 367.883 448.105 366.961 449.395 366.04C449.474 365.961 449.579 365.882 449.658 365.829C449.816 365.724 449.895 365.645 449.895 365.645C452.054 364.697 453.633 362.933 454.397 362.618C454.581 362.539 454.818 362.407 455.134 362.223Z" fill="#9B51E0"/>
<path fill-rule="evenodd" clip-rule="evenodd" d="M228.697 323.47C228.671 327.524 227.618 331.473 226.275 335.29L226.064 334.869C227.433 331.21 228.513 327.392 228.565 323.47C228.565 323.417 228.592 323.391 228.618 323.391C228.671 323.391 228.697 323.417 228.697 323.47Z" fill="white"/>
<path fill-rule="evenodd" clip-rule="evenodd" d="M237.596 344.874C237.57 344.979 237.57 345.084 237.544 345.19C237.491 345.4 237.386 345.611 237.228 345.795L236.201 346.822C236.096 346.954 235.964 347.085 235.806 347.164C235.701 347.243 235.543 347.322 235.385 347.348C235.227 347.401 235.095 347.401 234.937 347.348C234.806 347.348 234.674 347.269 234.569 347.191C234.49 347.112 234.437 347.033 234.358 346.98C234.279 346.796 234.227 346.611 234.227 346.401C234.227 346.295 234.253 346.216 234.253 346.111C234.306 345.874 234.411 345.664 234.569 345.506C234.911 345.137 235.253 344.795 235.596 344.453C235.701 344.321 235.832 344.216 235.99 344.137C236.122 344.031 236.254 343.952 236.412 343.926C236.57 343.9 236.728 343.9 236.859 343.926C237.017 343.952 237.122 344.005 237.254 344.11L237.438 344.321C237.544 344.479 237.596 344.663 237.596 344.874Z" fill="white"/>
<path fill-rule="evenodd" clip-rule="evenodd" d="M307.388 483.459C302.044 486.67 289.091 492.62 267.135 492.173C260.527 492.041 253.076 491.33 244.783 489.803L245.02 483.037L245.52 466.846L245.626 463.134L249.285 346.981L249.785 331.475L250.206 318.733L250.233 317.521L250.338 313.757C253.576 314.336 256.604 314.599 259.158 314.441C262.238 314.283 264.949 313.362 266.397 311.809L266.819 313.099L267.108 314.283L267.187 314.547V314.599L267.345 315.257L271.031 330.711L275.322 348.745L277.297 357.09L277.323 357.117L301.254 457.685L302.544 463.134L307.388 483.459Z" fill="white"/>
<path fill-rule="evenodd" clip-rule="evenodd" d="M248.231 314.548L248.126 318.339L247.889 328.106L247.389 348.588C247.231 348.72 247.073 348.851 246.889 348.983L247.652 327.474V327.395L247.968 318.286L248.1 314.548C248.1 314.495 248.152 314.469 248.179 314.469C248.205 314.469 248.231 314.495 248.231 314.548Z" fill="white"/>
<path fill-rule="evenodd" clip-rule="evenodd" d="M282.483 361.563C282.193 361.353 281.956 361.142 281.693 360.905L281.667 360.879L279.376 351.085L274.058 328.55L270.768 314.544C270.768 314.517 270.794 314.491 270.82 314.465C270.873 314.465 270.899 314.491 270.899 314.517L274.295 328.339L279.982 351.454L282.483 361.563Z" fill="white"/>
<path fill-rule="evenodd" clip-rule="evenodd" d="M156.984 457.393L156.958 457.419C156.931 457.419 156.879 457.393 156.879 457.367C156.852 457.235 156.826 457.077 156.8 456.945C156.852 457.103 156.905 457.235 156.984 457.393Z" fill="#9B51E0"/>
<path fill-rule="evenodd" clip-rule="evenodd" d="M210.058 475.954C208.188 476.981 204.108 472.821 202.923 471.847C201.291 470.505 199.369 468.372 197.342 466.872C196.42 466.161 195.446 465.608 194.498 465.318C194.709 465.845 194.946 466.371 195.236 466.872C196.315 468.793 197.868 470.689 198.948 472.479C201.106 476.06 203.344 479.693 204.74 483.642C205.371 485.327 203.476 486.801 202.028 485.8C198.316 483.273 193.656 477.139 190.497 473.98C192.366 478.692 201.37 487.643 197.947 492.198C196.552 494.12 188.338 482.825 182.757 476.77C184.837 483.01 189.154 496.015 186.153 496.542C183.441 496.463 178.229 487.722 175.938 481.22C175.175 479.034 169.962 474.559 166.855 473.006C166.276 472.716 165.197 470.452 163.933 466.872C163.828 466.608 163.749 466.319 163.644 466.029C171.857 464.134 191.787 456.209 192.313 454.445C194.077 455.946 196.394 457.447 199.395 459.579C202.081 461.475 204.713 464.186 206.767 466.872C206.977 467.161 207.188 467.424 207.399 467.714C208.899 469.82 213.032 474.296 210.058 475.954Z" fill="#9B51E0"/>
<path fill-rule="evenodd" clip-rule="evenodd" d="M188.575 438.204C188.575 438.23 188.549 438.256 188.523 438.282C188.496 438.256 188.496 438.23 188.496 438.204C188.312 437.229 188.128 436.255 188.022 435.281L188.575 438.204Z" fill="#9B51E0"/>
<path fill-rule="evenodd" clip-rule="evenodd" d="M228.697 323.47C228.671 327.524 227.618 331.473 226.275 335.29L226.064 334.869C227.433 331.21 228.513 327.392 228.565 323.47C228.565 323.417 228.592 323.391 228.618 323.391C228.671 323.391 228.697 323.417 228.697 323.47Z" fill="#9B51E0"/>
<path fill-rule="evenodd" clip-rule="evenodd" d="M237.596 344.874C237.57 344.979 237.57 345.084 237.544 345.19C237.491 345.4 237.386 345.611 237.228 345.795L236.201 346.822C236.096 346.954 235.964 347.085 235.806 347.164C235.701 347.243 235.543 347.322 235.385 347.348C235.227 347.401 235.095 347.401 234.937 347.348C234.806 347.348 234.674 347.269 234.569 347.191C234.49 347.112 234.437 347.033 234.358 346.98C234.279 346.796 234.227 346.611 234.227 346.401C234.227 346.295 234.253 346.216 234.253 346.111C234.306 345.874 234.411 345.664 234.569 345.506C234.911 345.137 235.253 344.795 235.596 344.453C235.701 344.321 235.832 344.216 235.99 344.137C236.122 344.031 236.254 343.952 236.412 343.926C236.57 343.9 236.728 343.9 236.859 343.926C237.017 343.952 237.122 344.005 237.254 344.11L237.438 344.321C237.544 344.479 237.596 344.663 237.596 344.874Z" fill="#9B51E0"/>
<path fill-rule="evenodd" clip-rule="evenodd" d="M197.369 370.701C197.342 370.728 197.342 370.754 197.316 370.78C197.211 371.017 197.105 371.254 197.026 371.491C197.184 371.202 197.448 370.649 197.711 370.148C197.579 370.333 197.474 370.517 197.369 370.701Z" fill="#9B51E0"/>
<path fill-rule="evenodd" clip-rule="evenodd" d="M248.231 314.548L248.126 318.339L247.889 328.106L247.389 348.588C247.231 348.72 247.073 348.851 246.889 348.983L247.652 327.474V327.395L247.968 318.286L248.1 314.548C248.1 314.495 248.152 314.469 248.179 314.469C248.205 314.469 248.231 314.495 248.231 314.548Z" fill="#9B51E0"/>
<path fill-rule="evenodd" clip-rule="evenodd" d="M197.711 370.148C197.448 370.649 197.184 371.202 197.026 371.491C197.105 371.254 197.211 371.017 197.316 370.78C197.342 370.754 197.342 370.728 197.369 370.701C197.474 370.517 197.579 370.333 197.711 370.148Z" fill="#F2E14A"/>
<path fill-rule="evenodd" clip-rule="evenodd" d="M210.058 475.954C208.188 476.981 204.108 472.821 202.923 471.847C201.291 470.505 199.369 468.372 197.342 466.872C196.42 466.161 195.446 465.608 194.498 465.318C194.709 465.845 194.946 466.371 195.236 466.872C196.315 468.793 197.868 470.689 198.948 472.479C201.106 476.06 203.344 479.693 204.74 483.642C205.371 485.327 203.476 486.801 202.028 485.8C198.316 483.273 193.656 477.139 190.497 473.98C192.366 478.692 201.37 487.643 197.947 492.198C196.552 494.12 188.338 482.825 182.757 476.77C184.837 483.01 189.154 496.015 186.153 496.542C183.441 496.463 178.229 487.722 175.938 481.22C175.175 479.034 169.962 474.559 166.855 473.006C166.276 472.716 165.197 470.452 163.933 466.872C163.828 466.608 163.749 466.319 163.644 466.029C171.857 464.134 191.787 456.209 192.313 454.445C194.077 455.946 196.394 457.447 199.395 459.579C202.081 461.475 204.713 464.186 206.767 466.872C206.977 467.161 207.188 467.424 207.399 467.714C208.899 469.82 213.032 474.296 210.058 475.954Z" fill="#C79C89"/>
<path fill-rule="evenodd" clip-rule="evenodd" d="M226.276 335.288C226.065 335.947 225.802 336.605 225.565 337.263C224.775 339.343 223.827 341.344 222.722 343.265C222.511 343.634 222.3 344.003 222.09 344.345C221.01 346.161 219.773 347.899 218.43 349.557C215.798 352.822 212.665 355.586 209.427 358.219C208.979 358.588 208.505 358.956 208.058 359.325C205.557 361.352 203.056 363.432 200.923 365.801C199.923 366.88 199.001 368.039 198.211 369.276C198.106 369.46 197.922 369.803 197.711 370.145C197.58 370.329 197.474 370.514 197.369 370.698C197.343 370.724 197.343 370.75 197.316 370.777C197.211 371.014 197.106 371.251 197.027 371.488C197 371.54 196.974 371.619 196.948 371.646C196.421 372.83 195.921 374.041 195.421 375.331C195.394 375.41 195.368 375.489 195.342 375.568C195 376.7 194.684 377.859 194.183 379.017C194.078 379.307 193.92 379.57 193.762 379.833C193.762 379.859 193.762 379.886 193.736 379.886C193.604 380.149 193.446 380.412 193.262 380.649C192.946 381.123 192.604 381.597 192.314 382.097C189.918 386.099 188.207 390.522 186.391 394.892C185.522 397.077 184.627 399.262 183.679 401.447C182.652 403.554 182.415 405.765 182.573 408.055C182.889 411.794 184.311 415.427 185.022 419.271C185.206 420.139 185.311 421.034 185.39 421.93C186.312 426.352 187.181 430.828 188.023 435.277C188.128 436.251 188.313 437.225 188.497 438.199C188.497 438.226 188.497 438.252 188.523 438.278C188.471 438.278 188.444 438.252 188.444 438.226C187.181 433.329 185.996 428.38 184.864 423.456C184.758 422.983 184.653 422.535 184.548 422.061L184.522 422.009C184.074 417.375 181.889 413.057 181.31 408.161C181.02 405.765 181.415 403.132 182.494 400.947C183.416 398.788 184.311 396.577 185.18 394.392C186.996 390.022 188.813 385.599 191.34 381.492C191.656 380.992 192.025 380.491 192.367 379.991C192.683 379.544 192.946 379.07 193.183 378.569C193.657 377.543 193.973 376.411 194.341 375.279C194.71 374.147 195.131 372.988 195.658 371.909C196.158 370.803 196.763 369.75 197.422 368.75C198.159 367.644 198.975 366.591 199.87 365.617C200.212 365.222 200.607 364.827 200.976 364.458V364.432C203.029 362.352 205.32 360.536 207.584 358.719C208.505 357.982 209.427 357.245 210.348 356.508C213.086 354.27 215.719 351.927 217.956 349.189C219.062 347.873 220.115 346.477 221.063 345.029C221.326 344.608 221.589 344.213 221.853 343.792C223.169 341.659 224.301 339.448 225.223 337.131C225.512 336.394 225.802 335.631 226.065 334.867L226.276 335.288Z" fill="#F2E14A"/>
<path fill-rule="evenodd" clip-rule="evenodd" d="M163.091 327.29C159.8 334.188 156.799 341.217 154.087 348.351C152.745 351.932 151.586 355.538 150.323 359.145C149.085 362.726 147.953 366.359 146.847 370.044C146.821 370.071 146.795 370.097 146.716 370.018C146.847 368.728 147.032 367.438 147.321 366.148C147.295 366.095 147.295 366.016 147.348 365.964C147.321 365.937 147.321 365.911 147.374 365.859C147.795 363.463 148.427 361.093 149.085 358.75C150.165 355.065 151.639 351.51 153.113 347.956C155.351 342.612 157.773 337.347 160.432 332.16C160.379 332.292 160.3 332.424 160.248 332.582C160.427 332.197 160.614 331.818 160.806 331.439C160.901 331.247 161.001 331.06 161.098 330.87C161.167 330.741 161.243 330.615 161.298 330.481C161.359 330.336 161.43 330.204 161.506 330.067C161.567 329.962 161.619 329.852 161.669 329.738C161.748 329.58 161.854 329.422 161.933 329.238C162.038 329.08 162.117 328.896 162.196 328.738C162.591 328.08 162.933 327.422 163.065 327.211C163.091 327.237 163.117 327.264 163.091 327.29Z" fill="#F2E14A"/>
<path fill-rule="evenodd" clip-rule="evenodd" d="M305.414 455.814C305.677 456.999 305.967 458.183 306.23 459.368C306.52 460.632 306.809 461.869 307.099 463.133C309.232 472.268 311.311 481.403 313.286 490.565C313.286 490.591 313.26 490.618 313.233 490.618C313.207 490.644 313.154 490.618 313.154 490.591C311.733 485.274 310.364 479.956 309.021 474.638C308.995 474.611 308.995 474.585 308.995 474.532C308.02 470.741 307.046 466.95 306.125 463.133C305.546 460.842 304.967 458.552 304.387 456.261C303.598 453.076 302.808 449.89 301.992 446.705C298.438 432.041 294.936 417.377 291.514 402.687L281.694 360.906L281.667 360.88L279.377 351.086L274.059 328.551L270.768 314.545C270.768 314.519 270.795 314.492 270.821 314.466C270.874 314.466 270.9 314.492 270.9 314.519L274.296 328.34L279.983 351.455L282.484 361.564L292.54 402.423C296.173 417.061 299.754 431.725 303.255 446.415C303.966 449.548 304.677 452.681 305.414 455.814ZM278.824 315.098C282.036 315.15 284.221 317.467 285.643 320.232C286.248 321.39 286.696 322.627 287.064 323.786C288.144 327.34 289.329 333.474 294.015 333.79C294.12 333.79 294.199 333.816 294.278 333.869C294.831 334 294.936 334.527 294.778 335.053C294.62 335.685 294.067 336.264 293.409 336.212C288.644 335.896 286.538 330.946 285.38 326.971C284.853 325.181 284.379 323.391 283.537 321.732C283.379 321.39 283.194 321.048 282.984 320.732C282.141 319.389 280.93 318.02 279.351 317.625C278.956 317.52 278.535 317.494 278.087 317.52C276.428 317.678 276.718 315.256 278.087 315.124C278.35 315.098 278.587 315.098 278.824 315.098ZM297.2 334.974H298.911C299.201 334.974 299.491 335.159 299.622 335.396C299.78 335.633 299.807 335.975 299.754 336.238C299.57 336.896 298.99 337.423 298.306 337.423H296.595C296.331 337.423 296.016 337.239 295.884 337.002C295.726 336.765 295.7 336.396 295.779 336.133C295.963 335.501 296.516 334.974 297.2 334.974ZM423.647 335.369C423.568 335.475 423.489 335.527 423.41 335.58C419.725 338.16 415.433 340.161 411.484 342.293C408.115 344.11 404.534 345.663 400.743 345.953C397.584 346.19 394.372 346.821 391.239 346.111C388.37 345.452 385.79 344.742 382.867 345.558C373.758 348.059 367.071 345.558 357.831 344.215C342.614 342.03 323.027 317.072 309.653 310.517C302.097 306.805 297.121 299.407 289.118 296.353C285.906 295.116 282.431 294.616 278.982 294.405C278.377 294.379 277.771 294.352 277.192 294.326C274.665 291.351 271.321 289.008 267.504 287.455C267.451 287.428 267.425 287.428 267.372 287.402C267.372 287.428 249.786 287.376 249.786 287.402C249.839 303.637 249.839 311.773 249.786 311.808L266.819 313.097L267.109 314.282L267.188 314.545V314.598L267.346 315.256L271.032 330.71L275.323 348.743L277.297 357.089L277.324 357.115L301.255 457.683L302.545 463.133L307.389 483.457L310.206 495.304C316.234 494.093 322.211 492.645 328.081 490.934C337.164 488.354 346.063 485.142 354.698 481.193C355.672 480.772 356.646 480.271 357.304 479.429C357.541 479.113 357.778 478.797 357.962 478.455C365.518 466.081 349.116 449.074 342.64 438.465C338.744 432.041 333.505 426.275 330.161 419.536C325.738 410.716 324.159 401.186 322.184 391.656C321.605 388.892 320.921 386.154 320.078 383.442C319.604 383.258 319.13 383.1 318.683 382.889C318.972 383.547 319.236 384.179 319.499 384.837C319.499 384.864 319.499 384.89 319.473 384.89H319.446C319.078 384.179 318.709 383.468 318.341 382.757C318.183 382.494 318.051 382.205 317.919 381.915C315.445 377.123 313.181 372.227 310.995 367.33L302.992 349.559C302.992 349.559 302.992 349.533 303.018 349.533H303.045L303.124 349.717L303.15 349.77L311.469 367.093C313.944 372.121 316.287 377.15 318.446 382.284C318.972 382.626 319.525 382.994 320.052 383.363C320.131 383.389 320.21 383.442 320.262 383.495C320.315 383.521 320.341 383.547 320.368 383.547C334.242 392.577 352.723 400.633 375.548 400.607C383.736 400.607 412.59 389.471 418.777 384.153C423.226 380.362 429.387 379.546 435.231 375.36C435.81 374.965 436.6 374.438 437.6 373.806C437.995 373.569 438.417 373.306 438.838 373.043C439.075 372.911 439.285 372.78 439.522 372.622C439.654 372.543 439.812 372.464 439.97 372.358C440.049 372.306 440.128 372.253 440.233 372.2C440.47 372.042 440.707 371.911 440.944 371.753C441.023 371.7 441.128 371.648 441.207 371.595C442.129 371.016 443.024 370.436 443.919 369.831C444.445 369.489 444.972 369.146 445.472 368.778C446.815 367.883 448.105 366.961 449.395 366.04C449.474 365.961 449.579 365.882 449.658 365.829C449.816 365.724 449.895 365.645 449.895 365.645C452.054 364.697 453.633 362.933 454.397 362.617C454.581 362.538 454.818 362.407 455.134 362.223C455.134 359.274 428.097 333.895 425.885 333.895C425.306 333.895 424.253 334.869 423.647 335.369Z" fill="#9B51E0"/>
<path fill-rule="evenodd" clip-rule="evenodd" d="M282.483 361.563C282.193 361.353 281.956 361.142 281.693 360.905L281.667 360.879L279.376 351.085L274.058 328.55L270.768 314.544C270.768 314.517 270.794 314.491 270.82 314.465C270.873 314.465 270.899 314.491 270.899 314.517L274.295 328.339L279.982 351.454L282.483 361.563Z" fill="#9B51E0"/>
<path fill-rule="evenodd" clip-rule="evenodd" d="M318.682 382.891C318.972 383.549 319.235 384.181 319.498 384.839C319.498 384.866 319.498 384.892 319.472 384.892H319.445C319.077 384.181 318.708 383.47 318.34 382.759C318.182 382.496 318.05 382.207 317.918 381.917C315.444 377.126 313.18 372.229 310.995 367.332L302.991 349.561C302.991 349.561 302.991 349.535 303.018 349.535C303.07 349.614 303.097 349.667 303.123 349.719L303.149 349.772L311.468 367.095C313.943 372.123 316.286 377.152 318.445 382.286C318.971 382.628 319.524 382.996 320.051 383.365C320.077 383.391 320.104 383.418 320.077 383.444C319.603 383.26 319.129 383.102 318.682 382.891Z" fill="#9B51E0"/>
<path fill-rule="evenodd" clip-rule="evenodd" d="M228.697 323.47C228.671 327.524 227.618 331.473 226.275 335.29L226.064 334.869C227.433 331.21 228.513 327.392 228.565 323.47C228.565 323.417 228.592 323.391 228.618 323.391C228.671 323.391 228.697 323.417 228.697 323.47Z" fill="#9B51E0"/>
<path fill-rule="evenodd" clip-rule="evenodd" d="M319.498 384.839C319.498 384.866 319.498 384.892 319.472 384.892H319.445C319.077 384.181 318.708 383.47 318.34 382.759C318.182 382.496 318.05 382.207 317.918 381.917C315.444 377.126 313.18 372.229 310.995 367.332L302.991 349.561C302.991 349.561 302.991 349.535 303.018 349.535H303.044L303.123 349.719L303.149 349.772L311.468 367.095C313.943 372.123 316.286 377.152 318.445 382.286C318.524 382.496 318.629 382.68 318.682 382.891C318.972 383.549 319.235 384.181 319.498 384.839Z" fill="#F2E14A"/>
<path fill-rule="evenodd" clip-rule="evenodd" d="M247.389 348.59L245.968 404.929C245.625 420.014 245.23 435.073 244.757 450.132C244.572 454.476 244.388 458.793 244.204 463.137C244.151 464.375 244.098 465.612 244.046 466.849C243.835 472.483 243.598 478.143 243.335 483.777C243.256 485.673 243.177 487.568 243.072 489.464C242.993 491.412 242.887 493.36 242.782 495.308C242.782 495.335 242.756 495.361 242.729 495.361C242.677 495.361 242.65 495.335 242.65 495.308C242.65 493.334 242.677 491.359 242.729 489.385C242.756 487.595 242.756 485.831 242.808 484.041C242.835 481.197 242.887 478.328 242.94 475.458C242.993 472.589 243.045 469.719 243.098 466.849C243.124 465.612 243.151 464.375 243.177 463.137C243.282 458.767 243.361 454.423 243.44 450.079C243.861 435.02 244.362 419.961 244.914 404.903L246.889 348.985C247.073 348.853 247.231 348.721 247.389 348.59Z" fill="#F2E14A"/>
<path fill-rule="evenodd" clip-rule="evenodd" d="M248.231 314.548L248.126 318.339L247.889 328.106L247.389 348.588C247.231 348.72 247.073 348.851 246.889 348.983L247.652 327.474V327.395L247.968 318.286L248.1 314.548C248.1 314.495 248.152 314.469 248.179 314.469C248.205 314.469 248.231 314.495 248.231 314.548Z" fill="#F2E14A"/>
<path fill-rule="evenodd" clip-rule="evenodd" d="M188.575 438.204C188.575 438.23 188.549 438.256 188.523 438.282C188.496 438.256 188.496 438.23 188.496 438.204C188.312 437.229 188.128 436.255 188.022 435.281L188.575 438.204Z" fill="#F2E14A"/>
<path fill-rule="evenodd" clip-rule="evenodd" d="M228.697 323.47C228.671 327.524 227.618 331.473 226.275 335.29L226.064 334.869C227.433 331.21 228.513 327.392 228.565 323.47C228.565 323.417 228.592 323.391 228.618 323.391C228.671 323.391 228.697 323.417 228.697 323.47Z" fill="#F2E14A"/>
<path fill-rule="evenodd" clip-rule="evenodd" d="M157.01 457.342C157.01 457.342 157.01 457.368 156.983 457.395C156.904 457.237 156.852 457.105 156.799 456.947C155.983 453.051 155.404 449.128 154.719 445.232C154.035 441.178 153.35 437.097 152.587 433.069C152.245 431.094 151.586 429.094 151.06 427.145C150.481 425.224 149.48 423.433 148.664 421.511C148.217 420.485 147.874 419.405 147.637 418.326V418.3C147.4 417.352 147.242 416.378 147.084 415.456C146.848 414.509 146.716 413.271 146.874 412.271C147.032 411.27 146.9 410.296 146.769 409.243C146.769 409.217 146.795 409.191 146.821 409.191C146.848 409.164 146.9 409.191 146.9 409.217C147.269 410.165 147.69 411.218 147.69 412.271C147.769 413.35 147.901 414.166 148.243 415.193C148.374 415.641 148.506 416.062 148.585 416.509V416.536C149.006 418.063 149.296 419.59 149.796 421.064C150.454 422.959 151.376 424.855 151.876 426.908C152.35 428.936 152.824 430.91 153.192 432.964C153.877 437.018 154.456 441.099 155.088 445.153C155.72 449.233 156.246 453.314 157.01 457.342Z" fill="#F2E14A"/>
<path fill-rule="evenodd" clip-rule="evenodd" d="M156.984 457.393L156.958 457.419C156.931 457.419 156.879 457.393 156.879 457.367C156.852 457.235 156.826 457.077 156.8 456.945C156.852 457.103 156.905 457.235 156.984 457.393Z" fill="#F2E14A"/>
<path fill-rule="evenodd" clip-rule="evenodd" d="M220.062 285.458C219.351 285.406 218.641 285.432 217.956 285.484C218.588 285.432 219.404 285.353 220.062 285.458Z" fill="#9B51E0"/>
<path fill-rule="evenodd" clip-rule="evenodd" d="M313.285 490.565C313.285 490.592 313.259 490.618 313.233 490.618C313.206 490.644 313.154 490.618 313.154 490.592C311.732 485.274 310.363 479.956 309.02 474.638C308.994 474.611 308.994 474.585 308.994 474.532C308.02 470.741 307.046 466.95 306.125 463.133C305.545 460.842 304.966 458.552 304.387 456.262C303.597 453.076 302.807 449.89 301.991 446.705C298.437 432.041 294.936 417.377 291.513 402.687L281.693 360.906C281.957 361.143 282.194 361.354 282.483 361.564L292.54 402.423C296.173 417.061 299.753 431.725 303.255 446.415C303.966 449.548 304.677 452.681 305.414 455.814C305.677 456.999 305.967 458.183 306.23 459.368C306.519 460.632 306.809 461.869 307.099 463.133C309.231 472.268 311.311 481.403 313.285 490.565Z" fill="#F2E14A"/>
<path fill-rule="evenodd" clip-rule="evenodd" d="M282.483 361.563C282.193 361.353 281.956 361.142 281.693 360.905L281.667 360.879L279.376 351.085L274.058 328.55L270.768 314.544C270.768 314.517 270.794 314.491 270.82 314.465C270.873 314.465 270.899 314.491 270.899 314.517L274.295 328.339L279.982 351.454L282.483 361.563Z" fill="#F2E14A"/>
<path fill-rule="evenodd" clip-rule="evenodd" d="M294.777 335.057C294.619 335.689 294.066 336.268 293.408 336.216C288.643 335.9 286.537 330.95 285.379 326.975C284.852 325.185 284.378 323.394 283.536 321.736C283.378 321.394 283.194 321.051 282.983 320.735C282.14 319.393 280.929 318.024 279.35 317.629C278.955 317.524 278.534 317.497 278.086 317.524C276.428 317.682 276.717 315.26 278.086 315.128C278.349 315.102 278.586 315.102 278.823 315.102C282.035 315.154 284.22 317.471 285.642 320.235C286.247 321.394 286.695 322.631 287.064 323.789C288.143 327.343 289.328 333.478 294.014 333.794C294.119 333.794 294.198 333.82 294.277 333.872L294.303 333.925C294.461 334.32 294.619 334.689 294.777 335.057Z" fill="#F2E14A"/>
<path fill-rule="evenodd" clip-rule="evenodd" d="M294.778 335.056C294.62 334.687 294.462 334.319 294.304 333.924L294.277 333.871C294.83 334.003 294.936 334.529 294.778 335.056Z" fill="#F2E14A"/>
<path fill-rule="evenodd" clip-rule="evenodd" d="M247.416 317.677C247.337 317.835 247.258 317.967 247.179 318.125C246.758 318.888 246.363 319.678 245.995 320.468C244.494 323.68 243.415 327.076 242.783 330.603C242.019 334.737 242.493 339.265 240.44 343.056C239.702 344.425 237.596 343.846 238.412 342.319C239.466 340.397 239.676 338.238 239.86 336.079C240.018 333.894 240.255 331.736 240.703 329.577C241.545 325.391 243.046 321.337 245.047 317.572C245.152 317.361 245.284 317.151 245.389 316.94C245.573 316.624 245.81 316.413 246.074 316.308C246.942 315.913 248.048 316.519 247.416 317.677Z" fill="#F2E14A"/>
<path fill-rule="evenodd" clip-rule="evenodd" d="M299.754 336.24C299.57 336.898 298.99 337.425 298.306 337.425H296.595C296.331 337.425 296.015 337.241 295.884 337.004C295.726 336.767 295.7 336.398 295.778 336.135C295.963 335.503 296.516 334.977 297.2 334.977H298.911C299.201 334.977 299.491 335.161 299.622 335.398C299.78 335.635 299.806 335.977 299.754 336.24Z" fill="#F2E14A"/>
<path fill-rule="evenodd" clip-rule="evenodd" d="M237.596 344.874C237.57 344.979 237.57 345.084 237.544 345.19C237.491 345.4 237.386 345.611 237.228 345.795L236.201 346.822C236.096 346.954 235.964 347.085 235.806 347.164C235.701 347.243 235.543 347.322 235.385 347.348C235.227 347.401 235.095 347.401 234.937 347.348C234.806 347.348 234.674 347.269 234.569 347.191C234.49 347.112 234.437 347.033 234.358 346.98C234.279 346.796 234.227 346.611 234.227 346.401C234.227 346.295 234.253 346.216 234.253 346.111C234.306 345.874 234.411 345.664 234.569 345.506C234.911 345.137 235.253 344.795 235.596 344.453C235.701 344.321 235.832 344.216 235.99 344.137C236.122 344.031 236.254 343.952 236.412 343.926C236.57 343.9 236.728 343.9 236.859 343.926C237.017 343.952 237.122 344.005 237.254 344.11L237.438 344.321C237.544 344.479 237.596 344.663 237.596 344.874Z" fill="#F2E14A"/>
<path fill-rule="evenodd" clip-rule="evenodd" d="M268.565 308.85C268.565 313.457 263.247 314.879 256.007 314.247C248.293 313.536 238.394 310.509 230.523 306.507C229.786 306.139 229.048 305.744 228.338 305.349C225.521 303.796 223.072 302.111 221.15 300.399L221.414 293.239L221.572 289.606V289.527L221.703 286.262C222.361 286.104 223.02 285.999 223.678 285.893C221.493 273.704 223.151 265.306 223.151 265.306C223.151 265.306 226.732 274.915 232.629 286.183C232.866 286.236 233.129 286.288 233.366 286.341C235.604 286.841 237.789 287.631 239.842 288.684C237.131 279.944 235.183 270.887 233.919 261.699C234.472 261.989 235.025 262.252 235.577 262.515C235.604 262.515 235.604 262.542 235.63 262.542C245.292 269.65 259.192 279.601 266.169 283.313C267.09 283.814 267.907 284.182 268.565 284.445V287.578C269.012 287.71 268.565 308.85 268.565 308.85Z" fill="#C79C89"/>
<path fill-rule="evenodd" clip-rule="evenodd" d="M235.577 262.518C235.025 262.254 234.472 261.991 233.919 261.701C233.893 261.543 233.866 261.412 233.866 261.254C234.419 261.649 234.998 262.07 235.577 262.518Z" fill="#C79C89"/>
<path fill-rule="evenodd" clip-rule="evenodd" d="M268.565 272.758V284.447C267.906 284.184 267.09 283.815 266.169 283.315C259.192 279.603 245.292 269.651 235.63 262.543C245.555 267.361 256.586 270.757 268.565 272.758Z" fill="#C79C89"/>
<path fill-rule="evenodd" clip-rule="evenodd" d="M268.565 272.758V284.447C267.906 284.184 267.09 283.815 266.169 283.315C259.192 279.603 245.292 269.651 235.63 262.543C245.555 267.361 256.586 270.757 268.565 272.758Z" fill="#C79C89"/>
<path fill-rule="evenodd" clip-rule="evenodd" d="M196.192 191.451L195.903 192.109L195.324 191.74C193.586 190.661 191.454 190.108 189.374 190.082C187.294 190.055 185.056 190.555 183.608 192.003C182.055 193.425 181.976 195.821 182.529 197.795C183.213 199.796 184.951 201.428 187.057 201.955L187.004 202.192C184.793 201.744 182.897 200.086 182.081 197.98C181.397 195.873 181.37 193.241 183.082 191.503C184.714 189.766 187.136 189.186 189.347 189.134C191.401 189.081 193.428 189.476 195.324 190.398C196.271 187.475 195.955 184.263 194.218 181.841C192.349 179.209 189.321 177.524 186.241 176.392C183.108 175.286 179.765 174.654 176.474 174.707C173.183 174.733 169.971 175.628 167.154 177.129C161.468 180.288 158.887 187.001 158.993 193.557C159.098 200.165 161.441 206.773 165.469 212.301L165.285 212.486C162.836 210.037 160.862 207.089 159.414 203.877C157.94 200.691 157.045 197.19 156.86 193.636C156.676 190.082 157.071 186.396 158.598 183.026C160.046 179.656 162.705 176.708 165.969 175.023C169.26 173.39 172.893 172.548 176.474 172.653C180.054 172.706 183.556 173.443 186.846 174.733C190.111 176.049 193.375 177.919 195.429 180.999C197.561 184.053 197.667 188.212 196.192 191.451Z" fill="black"/>
<path fill-rule="evenodd" clip-rule="evenodd" d="M196.192 191.451L195.903 192.109L195.324 191.74C193.586 190.661 191.454 190.108 189.374 190.082C187.294 190.055 185.056 190.555 183.608 192.003C182.055 193.425 181.976 195.821 182.529 197.795C183.213 199.796 184.951 201.428 187.057 201.955L187.004 202.192C184.793 201.744 182.897 200.086 182.081 197.98C181.397 195.873 181.37 193.241 183.082 191.503C184.714 189.766 187.136 189.186 189.347 189.134C191.401 189.081 193.428 189.476 195.324 190.398C196.271 187.475 195.955 184.263 194.218 181.841C192.349 179.209 189.321 177.524 186.241 176.392C183.108 175.286 179.765 174.654 176.474 174.707C173.183 174.733 169.971 175.628 167.154 177.129C161.468 180.288 158.887 187.001 158.993 193.557C159.098 200.165 161.441 206.773 165.469 212.301L165.285 212.486C162.836 210.037 160.862 207.089 159.414 203.877C157.94 200.691 157.045 197.19 156.86 193.636C156.676 190.082 157.071 186.396 158.598 183.026C160.046 179.656 162.705 176.708 165.969 175.023C169.26 173.39 172.893 172.548 176.474 172.653C180.054 172.706 183.556 173.443 186.846 174.733C190.111 176.049 193.375 177.919 195.429 180.999C197.561 184.053 197.667 188.212 196.192 191.451Z" fill="#C79C89"/>
<path fill-rule="evenodd" clip-rule="evenodd" d="M235.577 262.506C235.025 262.243 234.472 261.979 233.919 261.69C233.893 261.532 233.866 261.4 233.866 261.242C234.419 261.637 234.998 262.058 235.577 262.506Z" fill="#C79C89"/>
<path fill-rule="evenodd" clip-rule="evenodd" d="M196.192 191.45L195.903 192.108L195.324 191.739C193.586 190.66 191.454 190.107 189.374 190.081C187.294 190.054 185.056 190.554 183.608 192.002C182.055 193.424 181.976 195.82 182.529 197.794C183.213 199.795 184.951 201.427 187.057 201.954L187.004 202.191C184.793 201.743 182.897 200.085 182.081 197.979C181.397 195.872 181.37 193.24 183.082 191.502C184.714 189.765 187.136 189.185 189.347 189.133C191.401 189.08 193.428 189.475 195.324 190.396C196.271 187.474 195.955 184.262 194.218 181.84C192.349 179.208 189.321 177.523 186.241 176.391C183.108 175.285 179.765 174.653 176.474 174.706C173.183 174.732 169.971 175.627 167.154 177.128C161.467 180.287 158.887 187 158.993 193.556C159.098 200.164 161.441 206.772 165.469 212.3L165.285 212.485C162.836 210.036 160.862 207.088 159.414 203.876C157.94 200.69 157.045 197.189 156.86 193.635C156.676 190.081 157.071 186.395 158.598 183.025C160.046 179.655 162.705 176.707 165.969 175.022C169.26 173.389 172.893 172.547 176.474 172.652C180.054 172.705 183.556 173.442 186.846 174.732C190.111 176.048 193.375 177.918 195.429 180.998C197.561 184.052 197.667 188.211 196.192 191.45ZM391.089 181.788C389.22 180.024 386.877 178.892 384.428 178.26C384.533 176.233 384.612 174.153 384.612 172.073C384.612 168.071 384.428 164.122 384.06 160.252C383.401 159.463 381.559 158.515 378.926 157.514L374.766 132.188C374.766 132.188 362.551 139.77 353.363 150.275C345.57 148.405 339.383 147.089 339.383 147.089C342.384 133.689 345.043 125.133 345.254 124.395C344.596 125.238 337.593 134.268 330.458 147.089H281.675C288.494 132.636 292.68 121.289 292.917 120.578C292.574 121.236 286.625 131.741 277.121 147.089H266.59C267.643 131.662 270.012 121.447 270.197 120.657C269.591 121.289 258.007 133.82 248.556 150.248C245.923 152.723 243.08 154.934 240.079 156.883C232.234 161.937 223.204 165.07 213.542 165.649C216.832 180.814 212.225 199.532 212.225 199.532C212.225 199.532 210.224 192.397 205.354 182.788C202.326 176.759 198.167 169.73 192.691 162.885C186.636 160.858 181.028 157.804 176 153.855C169.629 155.171 163.468 157.909 158.177 162.174C152.595 166.623 148.673 172.178 146.409 178.181C141.722 190.554 144.145 204.85 154.096 215.486C156.018 217.539 158.124 219.356 160.388 220.909C170.629 228.07 183.845 230.229 195.903 227.122C198.772 231.624 201.905 235.81 205.354 239.654C210.593 245.577 216.438 250.737 222.888 255.134C226.389 257.556 230.075 259.741 233.919 261.689C233.892 261.531 233.866 261.4 233.866 261.242C234.419 261.637 234.998 262.058 235.577 262.505C235.603 262.505 235.603 262.532 235.63 262.532C245.555 267.349 256.586 270.746 268.564 272.746C277.489 274.273 286.967 275.01 296.918 275.01C315.61 275.01 338.356 271.246 353.363 255.476C354.416 254.37 355.442 253.238 356.443 252.08C357.443 250.948 358.417 249.763 359.391 248.552C359.418 248.499 359.444 248.447 359.497 248.394C360.418 247.209 361.34 245.998 362.235 244.735C363.156 243.471 364.051 242.155 364.946 240.786C365.815 239.443 366.658 238.074 367.5 236.679C368.343 235.283 369.132 233.862 369.922 232.414C370.686 230.94 371.449 229.465 372.16 227.965C372.897 226.464 373.608 224.937 374.266 223.384C376.504 218.224 378.399 212.8 379.953 207.14C380.058 207.14 380.084 207.219 380.163 207.219C388.035 207.298 394.459 200.243 395.09 192.476C395.433 188.501 393.985 184.473 391.089 181.788Z" fill="#C79C89"/>
<path fill-rule="evenodd" clip-rule="evenodd" d="M196.192 191.451L195.903 192.109L195.324 191.74C193.586 190.661 191.454 190.108 189.374 190.082C187.294 190.055 185.056 190.555 183.608 192.003C182.055 193.425 181.976 195.821 182.529 197.795C183.213 199.796 184.951 201.428 187.057 201.955L187.004 202.192C184.793 201.744 182.897 200.086 182.081 197.98C181.397 195.873 181.37 193.241 183.082 191.503C184.714 189.766 187.136 189.186 189.347 189.134C191.401 189.081 193.428 189.476 195.324 190.398C196.271 187.475 195.955 184.263 194.218 181.841C192.349 179.209 189.321 177.524 186.241 176.392C183.108 175.286 179.765 174.654 176.474 174.707C173.183 174.733 169.971 175.628 167.154 177.129C161.468 180.288 158.887 187.001 158.993 193.557C159.098 200.165 161.441 206.773 165.469 212.301L165.285 212.486C162.836 210.037 160.862 207.089 159.414 203.877C157.94 200.691 157.045 197.19 156.86 193.636C156.676 190.082 157.071 186.396 158.598 183.026C160.046 179.656 162.705 176.708 165.969 175.023C169.26 173.39 172.893 172.548 176.474 172.653C180.054 172.706 183.556 173.443 186.846 174.733C190.111 176.049 193.375 177.919 195.429 180.999C197.561 184.053 197.667 188.212 196.192 191.451Z" fill="#C79C89"/>
<path fill-rule="evenodd" clip-rule="evenodd" d="M235.577 262.506C235.025 262.243 234.472 261.979 233.919 261.69C233.893 261.532 233.866 261.4 233.866 261.242C234.419 261.637 234.998 262.058 235.577 262.506Z" fill="#C79C89"/>
<path fill-rule="evenodd" clip-rule="evenodd" d="M196.192 191.451L195.903 192.109L195.324 191.74C193.586 190.661 191.454 190.108 189.374 190.082C187.294 190.055 185.056 190.555 183.608 192.003C182.055 193.425 181.976 195.821 182.529 197.795C183.213 199.796 184.951 201.428 187.057 201.955L187.004 202.192C184.793 201.744 182.897 200.086 182.081 197.98C181.397 195.873 181.37 193.241 183.082 191.503C184.714 189.766 187.136 189.186 189.347 189.134C191.401 189.081 193.428 189.476 195.324 190.398C196.271 187.475 195.955 184.263 194.218 181.841C192.349 179.209 189.321 177.524 186.241 176.392C183.108 175.286 179.765 174.654 176.474 174.707C173.183 174.733 169.971 175.628 167.154 177.129C161.468 180.288 158.887 187.001 158.993 193.557C159.098 200.165 161.441 206.773 165.469 212.301L165.285 212.486C162.836 210.037 160.862 207.089 159.414 203.877C157.94 200.691 157.045 197.19 156.86 193.636C156.676 190.082 157.071 186.396 158.598 183.026C160.046 179.656 162.705 176.708 165.969 175.023C169.26 173.39 172.893 172.548 176.474 172.653C180.054 172.706 183.556 173.443 186.846 174.733C190.111 176.049 193.375 177.919 195.429 180.999C197.561 184.053 197.667 188.212 196.192 191.451Z" fill="black"/>
<path fill-rule="evenodd" clip-rule="evenodd" d="M303.5 213.785C303.5 226.685 293.022 237.163 280.122 237.163C267.222 237.163 256.744 226.685 256.744 213.785C256.744 200.885 267.222 190.434 280.122 190.434C293.022 190.434 303.5 200.885 303.5 213.785Z" fill="#C79C89"/>
<path fill-rule="evenodd" clip-rule="evenodd" d="M397.235 129.75C396.814 141.992 393.102 153.102 384.282 160.553C384.23 160.447 384.177 160.368 384.072 160.263C383.414 159.473 381.571 158.525 378.938 157.525L374.779 132.199C374.779 132.199 362.563 139.781 353.375 150.285C345.582 148.416 339.395 147.1 339.395 147.1C342.397 133.699 345.056 125.143 345.266 124.406C344.608 125.249 337.605 134.279 330.471 147.1H281.687C288.506 132.646 292.692 121.3 292.929 120.589C292.587 121.247 286.637 131.751 277.133 147.1H266.602C267.655 131.672 270.025 121.458 270.209 120.668C269.603 121.3 258.02 133.831 248.568 150.259C245.936 152.734 243.092 154.945 240.091 156.893C232.246 161.948 223.216 165.081 213.554 165.66C216.845 180.824 212.238 199.542 212.238 199.542C212.238 199.542 210.237 192.408 205.366 182.799C202.339 176.77 198.179 169.741 192.703 162.896C186.648 160.869 181.04 157.815 176.012 153.866C169.641 155.182 163.481 157.92 158.189 162.185C152.608 166.634 148.685 172.189 146.421 178.192C141.735 190.565 144.157 204.86 154.108 215.496C156.03 217.55 158.136 219.366 160.4 220.92C170.641 228.081 183.857 230.239 195.915 227.133C198.785 231.635 201.918 235.821 205.366 239.664C210.605 245.588 216.45 250.748 222.9 255.144C226.401 257.566 230.087 259.752 233.931 261.7C235.194 270.888 237.143 279.944 239.854 288.685C240.644 291.291 241.539 293.845 242.487 296.372C243.171 298.189 243.882 299.979 244.619 301.743C244.593 301.769 244.619 301.769 244.646 301.795C245.383 303.533 246.146 305.244 246.989 306.929C247.515 308.061 248.095 309.193 248.674 310.325C247.726 309.272 246.805 308.193 245.883 307.034C243.645 304.244 241.513 301.216 239.512 298.11C237.932 295.635 236.432 293.108 235.036 290.606C234.194 289.106 233.404 287.632 232.641 286.184C226.744 274.916 223.163 265.307 223.163 265.307C223.163 265.307 221.505 273.705 223.69 285.894C224.058 287.974 224.532 290.185 225.164 292.476C225.796 294.792 226.559 297.188 227.507 299.663C228.113 301.242 228.797 302.848 229.561 304.481C229.876 305.139 230.192 305.823 230.535 306.508C231.956 309.377 233.641 312.3 235.616 315.248C216.897 316.196 198.205 317.117 179.461 317.512C174.775 317.618 170.089 317.67 165.402 317.697C163.375 317.723 160.611 318.223 158.636 317.723C156.372 317.144 156.846 316.486 156.662 314.09C156.056 306.824 154.951 299.584 153.45 292.423C153.16 291.054 152.371 289.211 152.371 287.79C152.292 289.237 151.344 302.269 141.708 318.592C140.945 318.644 140.129 318.671 139.339 318.723C135.917 318.908 132.362 318.723 128.703 318.171C120.594 317.065 111.986 314.353 103.377 310.588C102.139 310.036 100.876 309.456 99.6383 308.877C57.384 288.843 16.8146 244.614 36.8755 235.11C86.475 211.547 112.354 162.211 124.754 128.75C125.044 122.774 125.833 116.877 127.439 111.085C129.019 105.451 131.573 99.9486 134.705 94.6833C138.576 88.2069 143.288 82.0991 147.974 76.7021C156.504 66.8033 170.194 52.6659 184.568 46.2158C192.308 42.1615 200.996 39.8711 210.158 39.8711C217.898 39.8711 225.243 41.5033 232.009 44.4256C221.715 32.6313 207.051 19.2046 188.28 10.1746C165.587 -0.777308 214.475 -7.1747 232.772 10.1219C241.092 17.9936 245.409 30.9727 247.647 42.7934C249.727 27.8661 250.201 9.43745 245.488 -9.33348C239.38 -33.7383 275.606 -0.303432 274.026 24.8386C273.737 29.3141 272.473 33.8423 270.525 38.2388C277.186 33.4737 284.583 29.8933 291.902 28.9455C323.52 24.8386 364.011 59.4845 364.011 59.4845C364.011 59.4845 355.639 57.8522 342.397 57.2467C374.515 65.7766 398.473 95.1308 397.235 129.75Z" fill="black"/>
<path fill-rule="evenodd" clip-rule="evenodd" d="M302.973 213.637C302.973 226.563 292.521 237.015 279.621 237.015C266.695 237.015 256.243 226.563 256.243 213.637C256.243 200.737 266.695 190.285 279.621 190.285C292.521 190.285 302.973 200.737 302.973 213.637Z" fill="#C57450"/>
<path fill-rule="evenodd" clip-rule="evenodd" d="M307.706 132.55C307.232 133.064 306.547 132.987 305.994 132.627C305.731 132.447 305.23 132.216 304.862 132.139C304.335 132.01 303.993 131.984 303.413 132.01C303.018 132.062 302.544 132.164 302.07 132.37C302.044 132.396 301.86 132.473 301.86 132.473C301.728 132.55 301.623 132.627 301.517 132.704C301.28 132.859 301.228 132.884 301.07 133.039C299.648 134.427 299.569 136.716 300.701 138.285C301.096 138.825 300.859 139.622 300.332 139.956C299.753 140.316 299.042 140.11 298.647 139.57C296.883 137.153 297.146 133.373 299.384 131.316C301.675 129.207 305.125 129.053 307.627 130.827C308.18 131.213 308.101 132.113 307.706 132.55Z" fill="black"/>
<path fill-rule="evenodd" clip-rule="evenodd" d="M320.464 198.027C316.221 198.537 311.928 191.32 310.892 181.884C309.831 172.448 312.422 164.389 316.64 163.854C320.884 163.344 325.176 170.561 326.213 179.997C327.273 189.433 324.683 197.492 320.464 198.027Z" fill="black"/>
<path fill-rule="evenodd" clip-rule="evenodd" d="M315.918 157.238C315.943 158.016 315.454 158.563 314.843 158.65C311.665 159.024 308.707 161.762 307.631 165.393C307.436 166.085 306.947 166.604 306.287 166.431C305.749 166.287 305.236 165.48 305.431 164.817C306.873 159.947 310.491 156.46 314.769 155.941C315.381 155.854 315.918 156.546 315.918 157.238Z" fill="black"/>
<path fill-rule="evenodd" clip-rule="evenodd" d="M337.564 234.561C327.915 235.814 317.837 232.339 311.045 224.422C310.463 223.746 310.539 222.724 311.219 222.142C311.893 221.561 312.914 221.632 313.499 222.316C323.053 233.439 339.875 234.719 350.998 225.173C351.67 224.593 352.694 224.665 353.281 225.346C353.863 226.026 353.784 227.047 353.107 227.629C348.542 231.544 343.124 233.839 337.564 234.561Z" fill="black"/>
</g>
<defs>
<clipPath id="clip0">
<rect width="485" height="764" fill="white"/>
</clipPath>
</defs>
</svg>
