<svg width="566" height="669" viewBox="0 0 566 669" fill="none" xmlns="http://www.w3.org/2000/svg">
<g clip-path="url(#clip0)">
<path fill-rule="evenodd" clip-rule="evenodd" d="M88.9502 569.624C88.9502 558.085 240.442 548.731 427.315 548.731C614.189 548.731 765.679 558.085 765.679 569.624C765.679 576.305 714.88 582.254 635.83 586.079C642.777 588.847 646.617 591.89 646.617 595.084C646.617 607.88 584.98 618.253 508.947 618.253C446.305 618.253 393.435 602.527 376.755 596.987C373.096 595.772 369.14 595.407 365.273 595.943C347.435 598.415 293.132 605.373 247.035 605.373C171.002 605.373 109.365 595 109.365 582.204C109.365 580.519 110.444 578.876 112.475 577.293C97.293 574.919 88.9502 572.331 88.9502 569.624Z" fill="#F2E14A" fill-opacity="0.2"/>
<path fill-rule="evenodd" clip-rule="evenodd" d="M296.643 620.726C296.643 623.639 306.98 626 319.732 626C332.483 626 342.821 623.639 342.821 620.726C342.821 617.813 332.483 615.451 319.732 615.451C306.98 615.451 296.643 617.813 296.643 620.726Z" fill="#9B51E0"/>
<path fill-rule="evenodd" clip-rule="evenodd" d="M97.0344 149.658C88.662 152.109 79.8878 147.309 77.4371 138.937C74.9865 130.565 79.786 121.791 88.1584 119.34C96.5304 116.888 105.304 121.689 107.756 130.061C110.206 138.433 105.406 147.207 97.0344 149.658Z" fill="#9B51E0"/>
<path fill-rule="evenodd" clip-rule="evenodd" d="M42.1583 105.634C42.1583 111.507 37.3973 116.269 31.5237 116.269C25.6506 116.269 20.8896 111.507 20.8896 105.634C20.8896 99.7614 25.6506 95 31.5237 95C37.3973 95 42.1583 99.7614 42.1583 105.634Z" stroke="#9B51E0" stroke-width="0.934771"/>
<path fill-rule="evenodd" clip-rule="evenodd" d="M12.9582 218.314C10.1297 229.539 -1.26345 236.346 -12.4883 233.517C-23.7125 230.688 -30.5192 219.296 -27.6907 208.071C-24.8622 196.846 -13.4697 190.039 -2.24487 192.868C8.97995 195.696 15.7867 207.089 12.9582 218.314Z" stroke="#F2E14A" stroke-width="0.934771"/>
<path fill-rule="evenodd" clip-rule="evenodd" d="M125.823 219.613C124.963 223.029 121.495 225.101 118.079 224.24C114.663 223.38 112.591 219.912 113.452 216.496C114.313 213.08 117.78 211.008 121.196 211.869C124.612 212.73 126.684 216.197 125.823 219.613Z" fill="#9B51E0"/>
<path fill-rule="evenodd" clip-rule="evenodd" d="M342.957 105.634C342.957 109.158 340.1 112.015 336.577 112.015C333.053 112.015 330.196 109.158 330.196 105.634C330.196 102.11 333.053 99.2539 336.577 99.2539C340.1 99.2539 342.957 102.11 342.957 105.634Z" fill="#9B51E0"/>
<path fill-rule="evenodd" clip-rule="evenodd" d="M379.418 126.904C379.418 128.749 377.921 130.246 376.076 130.246C374.229 130.246 372.733 128.749 372.733 126.904C372.733 125.058 374.229 123.562 376.076 123.562C377.921 123.562 379.418 125.058 379.418 126.904Z" fill="#F2E14A"/>
<path fill-rule="evenodd" clip-rule="evenodd" d="M62.7305 178.478C57.7393 179.939 52.5086 177.077 51.0479 172.086C49.5865 167.095 52.4479 161.865 57.4391 160.403C62.4303 158.942 67.661 161.804 69.1223 166.795C70.5831 171.786 67.7217 177.017 62.7305 178.478Z" fill="#9B51E0"/>
<path fill-rule="evenodd" clip-rule="evenodd" d="M373.53 574.847V574.86C373.517 575.136 373.709 575.411 374.081 575.48L389.948 578.507L391.64 578.824L403.159 581.012L404.383 581.246L408.87 582.099L408.883 582.071C408.911 581.934 408.993 581.714 409.09 581.383C409.337 580.599 409.764 579.25 410.356 577.42C410.466 577.076 410.576 576.704 410.7 576.333C415.269 562.09 427.599 524.012 439.874 486.168V486.154C438.071 486.278 436.31 486.347 434.548 486.361C427.103 486.443 419.975 485.659 412.737 484.2C411.443 490.572 410.177 496.916 408.911 503.108C408.828 503.576 408.732 504.044 408.636 504.512C401.328 540.649 395.108 571.392 394.737 572.7L387.801 573.223L386.411 573.319H386.397L377.562 573.98H377.549L374.081 574.241C373.874 574.282 373.737 574.379 373.64 574.516C373.558 574.626 373.53 574.723 373.53 574.847Z" fill="#765040"/>
<path fill-rule="evenodd" clip-rule="evenodd" d="M466.007 487.406C470.067 492.773 474.347 498.03 478.806 503.163C479.26 503.672 479.7 504.181 480.154 504.69C499.971 527.19 523.214 547.213 546.787 563.41L544.365 569.947L541.379 577.97L540.236 581.038C540.195 581.204 540.223 581.355 540.305 581.465C540.525 581.837 541.172 581.947 541.503 581.534L565.434 554.259C565.434 554.245 565.434 554.245 565.42 554.231C565.158 554.052 564.911 553.873 564.649 553.681C547.654 541.75 529.613 524.878 517.076 509.52C508.338 498.828 501.402 488.534 494.631 477.112C492.773 478.117 490.929 479.039 489.072 479.906C481.613 483.36 474.044 485.699 466.007 487.406Z" fill="#765040"/>
<path fill-rule="evenodd" clip-rule="evenodd" d="M448.413 458.679C448.468 458.913 448.523 459.133 448.578 459.367C448.826 460.441 449.074 461.528 449.321 462.601C450.188 466.276 451.069 469.936 451.964 473.597C451.977 473.624 451.977 473.652 451.991 473.679C452.638 476.349 453.312 479.005 453.987 481.661C454.055 481.922 454.248 482.28 454.537 482.39C454.551 482.404 454.578 482.418 454.606 482.418C454.84 482.487 455.101 482.39 455.019 482.074C453.587 476.459 452.198 470.831 450.876 465.188C450.354 463.014 449.844 460.826 449.349 458.652C448.578 455.308 447.821 451.964 447.092 448.606C447.023 448.303 446.789 447.932 446.473 447.849C446.225 447.78 445.991 447.863 446.06 448.179C446.803 451.606 447.574 455.019 448.358 458.432C448.372 458.514 448.399 458.597 448.413 458.679ZM405.897 388.042H482.352C483.522 389.845 509.307 435.959 511.771 439.84C509.156 443.019 511.275 442.441 512.5 441.023C516.807 447.849 521.217 457.406 518.073 459.753C517.275 460.688 516.353 461.528 515.459 462.326C508.317 468.574 501.477 473.376 494.638 477.106C492.78 478.11 490.936 479.032 489.078 479.899C481.619 483.353 474.051 485.693 466.014 487.399C462.918 488.06 459.753 488.61 456.491 489.106C455.996 487.399 455.5 485.707 455.005 484C449.734 485.129 444.725 485.831 439.881 486.147C438.078 486.271 436.317 486.34 434.555 486.353C427.111 486.436 419.982 485.652 412.744 484.193C408.904 483.422 389.292 479.899 389.292 479.899C389.453 479.906 405.36 391.097 405.897 388.042Z" fill="#F6D446"/>
<path fill-rule="evenodd" clip-rule="evenodd" d="M478.723 435.153C484.021 445.461 497.617 448.571 507.856 444.236C509.617 443.479 511.268 442.447 512.493 441.03C512.259 440.644 512.012 440.245 511.764 439.846C509.149 443.025 504.484 444.277 500.548 444.745C495.14 445.406 489.484 444.374 484.984 441.208C482.686 439.598 480.814 437.465 479.521 434.975C479.438 434.809 479.314 434.686 479.191 434.617C478.957 434.479 478.695 434.493 478.64 434.686C478.599 434.782 478.613 434.947 478.723 435.153Z" fill="#2A4D52"/>
<path fill-rule="evenodd" clip-rule="evenodd" d="M539.834 582.95C539.579 582.724 539.549 582.337 539.775 582.077L539.83 582.014L543.214 578.124L541.379 577.975L544.365 569.945L549.946 570.398L563.335 555.014L564.354 553.846C564.579 553.591 564.972 553.566 565.226 553.787C565.481 554.011 565.511 554.404 565.285 554.658L550.269 571.906L544.745 578.249L540.706 582.891C540.48 583.151 540.088 583.169 539.834 582.95Z" fill="#2A4D52"/>
<path fill-rule="evenodd" clip-rule="evenodd" d="M422.639 500.658C422.666 500.686 422.666 500.727 422.639 500.755C421.469 502.048 420.038 503.135 418.428 503.892C416.804 504.635 415.028 505.062 413.226 505.131C411.684 505.2 410.102 505.048 408.643 504.512C408.74 504.044 408.836 503.576 408.918 503.108C410.308 503.576 411.726 503.975 413.226 504.03C416.542 504.167 419.969 502.97 422.542 500.658C422.57 500.631 422.611 500.631 422.639 500.658Z" fill="black"/>
<path fill-rule="evenodd" clip-rule="evenodd" d="M493.316 497.355C492.531 498.924 491.444 500.342 490.109 501.525C488.747 502.681 487.151 503.562 485.431 504.126C483.752 504.663 481.935 504.965 480.16 504.69C479.706 504.181 479.265 503.672 478.811 503.163C479.279 503.232 479.747 503.287 480.215 503.314C481.839 503.41 483.504 503.438 485.142 503.066C488.376 502.296 491.334 500.204 493.192 497.287C493.206 497.259 493.261 497.245 493.288 497.273C493.316 497.287 493.33 497.328 493.316 497.355Z" fill="black"/>
<path fill-rule="evenodd" clip-rule="evenodd" d="M478.723 435.153C484.021 445.461 497.617 448.571 507.856 444.236C509.617 443.479 511.268 442.447 512.493 441.03C512.259 440.644 512.012 440.245 511.764 439.846C509.149 443.025 504.484 444.277 500.548 444.745C495.14 445.406 489.484 444.374 484.984 441.208C482.686 439.598 480.814 437.465 479.521 434.975C479.438 434.809 479.314 434.686 479.191 434.617C478.957 434.479 478.695 434.493 478.64 434.686C478.599 434.782 478.613 434.947 478.723 435.153Z" fill="black"/>
<path fill-rule="evenodd" clip-rule="evenodd" d="M446.054 448.187C446.797 451.613 447.568 455.026 448.352 458.439C448.366 458.522 448.394 458.604 448.407 458.687C448.462 458.921 448.517 459.141 448.572 459.375C448.82 460.448 449.068 461.535 449.316 462.609C450.182 466.283 451.063 469.944 451.958 473.604C451.971 473.632 451.971 473.659 451.985 473.687C452.632 476.356 453.306 479.012 453.981 481.668C454.049 481.93 454.242 482.288 454.531 482.398C454.545 482.411 454.572 482.425 454.6 482.425C454.834 482.494 455.095 482.398 455.013 482.081C453.582 476.467 452.192 470.838 450.871 465.196C450.348 463.022 449.838 460.834 449.343 458.659C448.572 455.315 447.816 451.971 447.086 448.613C447.017 448.311 446.783 447.939 446.467 447.857C446.219 447.788 445.985 447.87 446.054 448.187Z" fill="black"/>
<path fill-rule="evenodd" clip-rule="evenodd" d="M372.546 575.296C372.61 574.962 372.927 574.739 373.266 574.801L373.349 574.815L378.42 575.746L377.517 573.891L386.136 572.756L388.499 577.604L408.557 581.291L410.082 581.571C410.416 581.636 410.636 581.961 410.577 582.291C410.513 582.626 410.191 582.851 409.858 582.788L387.366 578.65L379.094 577.129L373.042 576.016C372.702 575.955 372.487 575.626 372.546 575.296Z" fill="#2A4D52"/>
<path fill-rule="evenodd" clip-rule="evenodd" d="M335.254 332.24C337.387 333.699 339.686 335.199 342.08 336.451C345.851 338.391 349.539 346.799 352.126 350.309C356.805 356.611 361.497 362.997 366.644 368.928C374.474 377.997 384.906 388.428 397.772 384.809C401.571 383.749 406.415 381.891 409.704 379.689V379.675L409.717 379.662C409.869 379.001 413.35 364.153 413.749 362.556C415.015 357.547 414.905 352.813 416.185 348.492C416.199 348.437 416.226 348.382 416.24 348.313C413.543 350.763 410.35 353.336 406.071 356.708C401.543 360.286 394.58 364.497 388.745 361.304C386.942 360.313 385.58 358.703 384.259 357.121C375.273 346.345 364.979 338.02 357.988 325.772C355.195 320.859 345.424 313.579 345.245 313.731C341.874 316.69 352.442 323.694 346.36 325.222C343.828 325.855 339.713 323.075 337.828 321.589C333.479 318.134 329.323 316.222 328.539 317.309C328.085 317.942 335.433 324.726 337.098 326.57C334.842 326.212 326.103 320.859 323.97 321.327C323.029 321.512 324.724 323.318 326.398 324.864C327.588 325.964 328.768 326.933 328.979 327.093C331.965 329.419 332.131 330.093 335.254 332.24Z" fill="#765040"/>
<path fill-rule="evenodd" clip-rule="evenodd" d="M481.607 368.648C481.607 368.648 472.495 318.082 446.258 320.215C420.025 322.346 416.221 346.062 416.221 346.062L411.175 368.776L481.607 368.648Z" fill="#FF90A0"/>
<path fill-rule="evenodd" clip-rule="evenodd" d="M407.022 392.062C406.54 392.364 404.738 393.273 406.898 393.135C406.733 392.942 406.279 393.039 406.196 392.887C407.985 392.695 408.027 392.117 408.976 392.447C408.687 392.708 406.348 393.603 408.219 393.286C408.604 393.204 409.389 392.901 409.843 392.791C409.471 392.86 409.045 392.956 408.852 392.97L410.049 392.309C410.187 391.814 409.747 391.759 408.233 391.8L407.669 392.144C407.806 391.993 407.215 392.089 407.022 392.062Z" fill="#F55B80"/>
<path fill-rule="evenodd" clip-rule="evenodd" d="M409.073 391.513C409.128 391.554 409.17 391.596 409.211 391.637C409.252 391.678 409.28 391.706 409.307 391.733C409.445 391.706 409.541 391.678 409.624 391.637C409.816 391.568 409.899 391.486 409.968 391.458L409.073 391.513Z" fill="#F55B80"/>
<path fill-rule="evenodd" clip-rule="evenodd" d="M405.951 391.637C405.965 391.664 405.978 391.706 406.006 391.719C406.226 391.692 406.35 391.664 406.446 391.637H405.951Z" fill="#F55B80"/>
<path fill-rule="evenodd" clip-rule="evenodd" d="M405.938 391.637H405.951C405.91 391.596 405.91 391.596 405.938 391.637Z" fill="#F55B80"/>
<path fill-rule="evenodd" clip-rule="evenodd" d="M406.898 393.135C406.733 392.942 406.279 393.039 406.196 392.887C407.985 392.695 408.027 392.117 408.976 392.447C408.687 392.708 406.348 393.603 408.219 393.286C408.604 393.204 409.389 392.901 409.843 392.791C409.471 392.86 409.045 392.956 408.852 392.97L410.049 392.309C410.187 391.814 409.747 391.759 408.233 391.8L407.669 392.144C407.806 391.993 407.215 392.089 407.022 392.062C406.54 392.364 404.738 393.273 406.898 393.135Z" fill="white"/>
<path fill-rule="evenodd" clip-rule="evenodd" d="M410.187 392.901C410.696 392.653 410.434 392.68 410.008 392.777C410.173 392.735 410.269 392.763 410.187 392.901Z" fill="white"/>
<path fill-rule="evenodd" clip-rule="evenodd" d="M407.021 392.062C407.145 391.979 407.173 391.924 407.063 391.924C406.911 392.007 406.938 392.048 407.021 392.062Z" fill="white"/>
<path fill-rule="evenodd" clip-rule="evenodd" d="M409.208 391.634L409.305 391.73C409.442 391.703 409.539 391.675 409.621 391.634H409.208Z" fill="white"/>
<path fill-rule="evenodd" clip-rule="evenodd" d="M405.951 391.637C405.965 391.664 405.978 391.706 406.006 391.719C406.226 391.692 406.35 391.664 406.446 391.637H405.951Z" fill="white"/>
<path fill-rule="evenodd" clip-rule="evenodd" d="M402.016 391.637C402.181 391.39 402.965 390.11 403.186 389.738C402.952 390.11 402.016 391.637 402.016 391.637Z" fill="#9B51E0"/>
<path fill-rule="evenodd" clip-rule="evenodd" d="M409.073 391.513C409.128 391.554 409.17 391.596 409.211 391.637H409.624C409.816 391.568 409.899 391.486 409.968 391.458L409.073 391.513Z" fill="#9B51E0"/>
<path fill-rule="evenodd" clip-rule="evenodd" d="M405.938 391.637H405.951C405.91 391.596 405.91 391.596 405.938 391.637Z" fill="#9B51E0"/>
<path fill-rule="evenodd" clip-rule="evenodd" d="M459.535 390.688L476.116 391.634C476.13 391.689 476.143 391.731 476.157 391.772C476.198 391.731 476.24 391.689 476.281 391.634H477.506C477.671 391.937 477.836 392.24 478.042 392.584L478.331 393.079L478.414 393.203L478.524 393.093L478.552 393.052L478.607 392.983L478.648 392.928C479.487 394.854 480.354 396.767 481.235 398.68C482.295 401.02 483.382 403.345 484.441 405.671C485.735 408.492 486.946 411.354 488.116 414.217C488.24 414.52 488.363 414.836 488.487 415.139C478.428 420.341 457.772 423.808 437.364 423.808H436.442C435.533 423.795 434.625 423.795 433.717 423.767H433.703C433.18 423.767 432.657 423.753 432.134 423.74L429.988 423.657C429.657 423.643 429.327 423.63 429.011 423.616H428.997C428.735 423.602 428.474 423.588 428.226 423.575C427.359 423.519 426.492 423.478 425.639 423.409C425.336 423.396 425.033 423.368 424.731 423.341H424.676C424.098 423.313 423.533 423.258 422.969 423.217C422.928 423.217 422.9 423.203 422.859 423.203H422.845C422.57 423.175 422.309 423.162 422.033 423.134C421.222 423.052 420.41 422.983 419.611 422.886H419.57C418.978 422.831 418.4 422.763 417.822 422.694H417.809C416.598 422.556 415.414 422.391 414.258 422.226C406.607 421.134 399.46 419.377 392.818 416.955C392.818 416.955 401.956 391.731 402.011 391.634H405.946C405.96 391.662 405.974 391.703 406.001 391.717C406.222 391.689 406.345 391.662 406.442 391.634" fill="#FF90A0"/>
<path fill-rule="evenodd" clip-rule="evenodd" d="M469.621 375.865C469.608 375.865 469.594 375.851 469.58 375.837C469.649 375.906 469.718 375.947 469.787 376.003C469.718 375.947 469.663 375.906 469.621 375.865Z" fill="#9B51E0"/>
<path fill-rule="evenodd" clip-rule="evenodd" d="M469.551 375.822L469.566 375.837V375.822H469.551Z" fill="#9B51E0"/>
<path fill-rule="evenodd" clip-rule="evenodd" d="M469.523 375.781C469.523 375.795 469.523 375.809 469.537 375.823H469.551C469.551 375.795 469.551 375.795 469.537 375.795C469.537 375.781 469.523 375.781 469.523 375.781Z" fill="#9B51E0"/>
<path fill-rule="evenodd" clip-rule="evenodd" d="M469.621 375.865C469.608 375.865 469.594 375.851 469.58 375.837C469.649 375.906 469.718 375.947 469.787 376.003C469.718 375.947 469.663 375.906 469.621 375.865Z" fill="#765040"/>
<path fill-rule="evenodd" clip-rule="evenodd" d="M469.551 375.822L469.566 375.837V375.822H469.551Z" fill="#765040"/>
<path fill-rule="evenodd" clip-rule="evenodd" d="M469.523 375.781C469.523 375.795 469.523 375.809 469.537 375.823H469.551C469.551 375.795 469.551 375.795 469.537 375.795C469.537 375.781 469.523 375.781 469.523 375.781Z" fill="#765040"/>
<path fill-rule="evenodd" clip-rule="evenodd" d="M468.576 372.657L468.589 372.671C468.741 372.52 468.865 372.368 468.961 372.203L468.576 372.657Z" fill="#765040"/>
<path fill-rule="evenodd" clip-rule="evenodd" d="M411.094 367.786C411.121 367.676 411.135 367.579 411.149 367.51C411.162 367.469 411.176 367.442 411.176 367.4H469.745C469.772 367.483 469.813 367.621 469.869 367.813C469.896 367.923 469.937 368.033 469.979 368.171C470.268 369.203 477.107 389.336 477.231 389.653C477.272 389.721 477.3 389.804 477.327 389.873C477.575 390.465 477.823 391.042 478.07 391.634H477.823C477.699 391.593 477.561 391.552 477.437 391.524C477.465 391.565 477.479 391.593 477.506 391.634H402.011C402.039 391.593 411.052 367.951 411.094 367.786Z" fill="#9B51E0"/>
<path fill-rule="evenodd" clip-rule="evenodd" d="M464.047 345.217L464.115 344.791L463.895 344.983L464.047 345.217ZM458.625 324.149C458.666 324.107 458.68 324.094 458.721 324.066C463.565 320.75 479.611 349.566 481.138 352.924C486.863 365.419 490.482 379.043 495.932 391.442C498.849 398.116 501.932 404.763 504.381 411.63C505.028 413.46 505.4 415.745 506.308 417.451C506.996 418.758 508.234 419.625 508.675 421.167C509.267 423.258 511.468 426.96 512.803 427.703C516.712 429.85 521.666 434.088 521.39 435.74C520.978 436.731 518.349 435.877 515.445 434.57C513.147 433.538 510.67 432.217 509.005 431.336C512.17 435.465 518.418 441.809 517 442.455C516.56 442.648 516.106 442.717 515.638 442.676H515.624C515.046 442.634 514.468 442.414 513.863 442.111C513.78 442.056 513.684 442.015 513.601 441.974C512.721 441.451 511.826 440.735 510.945 439.951C510.739 439.758 510.533 439.565 510.326 439.373C510.244 439.304 510.175 439.249 510.106 439.153H510.092C509.872 438.96 509.666 438.754 509.445 438.547H509.432L509.418 438.52C509.198 438.313 508.964 438.079 508.744 437.873C507.808 436.978 506.941 436.18 506.198 435.726C506.762 436.538 507.533 437.515 508.372 438.533L508.386 438.547C509.363 439.786 510.409 441.079 511.221 442.318C511.303 442.442 511.386 442.565 511.468 442.689C511.771 443.157 512.033 443.611 512.225 444.024C512.267 444.079 512.28 444.121 512.308 444.176C512.404 444.396 512.432 444.588 512.39 444.781V444.795C512.267 445.538 511.345 446.033 510.56 445.593C508.179 444.272 506.129 442.483 504.079 440.735C502.771 439.621 501.505 438.052 500.019 437.171C500.046 437.432 500.115 437.694 500.184 437.969C500.184 437.983 500.198 437.997 500.198 438.01C500.212 438.052 500.225 438.107 500.253 438.148L500.267 438.162C500.845 439.854 502.345 441.671 503.143 443.088C503.638 443.928 505.757 446.928 504.863 447.932C504.67 448.153 504.464 448.276 504.244 448.345H504.23C504.175 448.359 504.147 448.373 504.092 448.387C502.991 448.565 501.657 447.244 500.652 446.171C500.583 446.088 500.501 446.006 500.432 445.923C500.418 445.91 500.418 445.91 500.404 445.896C500.212 445.689 500.019 445.497 499.868 445.332C499.744 445.208 499.606 445.07 499.482 444.932C498.973 444.41 498.478 443.832 498.01 443.226L497.996 443.212C497.514 442.579 497.033 441.919 496.606 441.231C496.606 441.231 496.606 441.217 496.592 441.217C496.345 440.79 496.083 440.35 495.877 439.923C495.863 439.923 495.863 439.91 495.863 439.91L495.849 439.896V439.882V439.868C495.78 439.744 495.712 439.634 495.657 439.51C495.533 439.235 495.381 438.891 495.202 438.492V438.478C495.147 438.368 495.092 438.258 495.037 438.134V438.121C495.01 438.066 494.982 438.024 494.968 437.955L494.955 437.942C494.845 437.694 494.735 437.432 494.611 437.144C494.28 436.373 493.909 435.492 493.51 434.556C490.799 428.116 488.363 421.593 485.735 415.139C485.611 414.836 485.487 414.52 485.363 414.217C484.193 411.355 482.982 408.492 481.689 405.671C480.629 403.345 471.313 381.575 470.377 378.561L470.129 377.777C470.115 377.722 470.088 377.653 470.074 377.598C470.047 377.488 470.005 377.378 469.978 377.268C469.964 377.226 469.661 376.263 469.537 375.823H469.551L469.565 375.836V375.823H469.551C469.551 375.795 469.551 375.795 469.537 375.795C469.537 375.781 469.524 375.781 469.524 375.781C469.469 375.63 469.427 375.479 469.386 375.327C469.303 375.08 469.221 374.818 469.152 374.57C469.111 374.447 469.083 374.336 469.056 374.213L469.042 374.199C469.001 374.075 468.959 373.951 468.932 373.827C468.863 373.648 468.725 373.167 468.574 372.658C468.395 372.107 468.23 371.515 468.161 371.268C467.845 370.236 467.514 369.203 467.225 368.171C467.184 368.034 467.143 367.924 467.115 367.814C467.06 367.621 467.019 367.483 466.992 367.401C466.868 367.029 466.758 366.644 466.648 366.272C466.056 364.332 465.478 362.392 464.9 360.451C464.803 360.093 464.693 359.749 464.597 359.405C464.501 359.103 464.418 358.814 464.336 358.525C464.212 358.112 464.088 357.699 463.964 357.286C463.95 357.259 463.95 357.231 463.95 357.203C463.703 356.405 463.469 355.593 463.235 354.795C463.18 354.658 463.138 354.52 463.111 354.382C462.863 353.557 462.615 352.745 462.381 351.919C462.34 351.809 462.313 351.713 462.285 351.603C462.175 351.217 462.051 350.818 461.941 350.433C461.872 350.199 461.803 349.951 461.735 349.717C461.597 349.263 461.459 348.795 461.322 348.341V348.327C461.294 348.231 461.267 348.162 461.253 348.066C461.115 347.639 460.992 347.213 460.868 346.786C460.551 345.726 460.248 344.653 459.932 343.593C459.175 341.02 457.964 338.048 457.262 335.075C456.395 331.387 455.487 326.419 458.611 324.149H458.625Z" fill="#765040"/>
<path fill-rule="evenodd" clip-rule="evenodd" d="M485.836 225.32C485.918 225.251 485.987 225.169 486.056 225.086L486.069 225.072C486.317 225.1 486.565 225.127 486.799 225.169C486.785 225.182 486.785 225.182 486.771 225.182C486.455 225.224 486.152 225.279 485.836 225.32Z" fill="black"/>
<path fill-rule="evenodd" clip-rule="evenodd" d="M377.323 225.295C377.53 225.033 377.723 224.786 377.929 224.538L378.493 223.822C378.287 224.042 378.108 224.276 377.915 224.51C377.723 224.772 377.516 225.033 377.323 225.295Z" fill="#765040"/>
<path fill-rule="evenodd" clip-rule="evenodd" d="M366.026 248.965C366.192 248.414 366.357 247.85 366.536 247.3C366.907 246.075 367.292 244.878 367.691 243.694C367.898 243.103 368.104 242.511 368.311 241.933C368.462 241.492 368.627 241.052 368.792 240.612C368.944 240.199 369.109 239.786 369.274 239.373C369.384 239.084 369.508 238.795 369.618 238.506C369.838 237.983 370.072 237.447 370.306 236.924C370.32 236.882 370.334 236.841 370.361 236.8C370.375 236.758 370.402 236.717 370.416 236.676C370.595 236.263 370.788 235.85 370.98 235.451C370.251 236.869 369.591 238.314 368.971 239.8C368.751 240.281 368.558 240.791 368.38 241.286C368.132 241.96 367.884 242.635 367.65 243.309C367.458 243.832 367.292 244.355 367.141 244.878C366.921 245.58 366.714 246.281 366.522 246.983C366.425 247.341 366.315 247.713 366.233 248.084C366.15 248.373 366.081 248.676 366.026 248.965Z" fill="#765040"/>
<path fill-rule="evenodd" clip-rule="evenodd" d="M402.644 299.924C402.713 299.828 402.781 299.745 402.837 299.649C402.905 299.539 402.988 299.415 403.043 299.291C402.947 299.456 402.85 299.621 402.726 299.786C402.699 299.828 402.671 299.869 402.644 299.924Z" fill="black"/>
<path fill-rule="evenodd" clip-rule="evenodd" d="M478.772 285.336L478.869 285.418C480.148 284.139 481.181 282.597 481.937 280.918C482.708 279.253 483.176 277.423 483.272 275.565C483.286 275.276 483.3 274.987 483.3 274.698C483.3 273.763 483.203 272.813 482.997 271.891C482.543 271.891 482.089 271.877 481.648 271.836C481.662 271.877 481.676 271.919 481.676 271.946C481.759 272.194 481.814 272.441 481.869 272.703C481.882 272.744 481.896 272.785 481.896 272.827C481.951 273.074 482.006 273.322 482.034 273.584C482.034 273.611 482.048 273.639 482.048 273.666C482.089 273.941 482.116 274.203 482.13 274.478V274.561C482.144 274.808 482.158 275.07 482.158 275.318V275.524C482.116 278.978 480.878 282.446 478.772 285.336Z" fill="black"/>
<path fill-rule="evenodd" clip-rule="evenodd" d="M462.713 274.436L462.865 274.767L463.181 274.588C464.076 274.024 465.19 273.721 466.277 273.721C467.365 273.693 468.534 273.955 469.291 274.712C470.103 275.455 470.158 276.721 469.855 277.753C469.594 278.524 469.016 279.212 468.273 279.611C468.025 279.748 467.764 279.845 467.488 279.913L467.516 280.037C467.805 279.982 468.094 279.872 468.355 279.748C468.548 279.652 468.741 279.542 468.92 279.404C469.085 279.267 469.25 279.129 469.401 278.964C469.553 278.799 469.69 278.62 469.8 278.427C469.828 278.386 469.842 278.358 469.855 278.331C469.952 278.179 470.02 278.001 470.089 277.835C470.227 277.409 470.323 276.927 470.323 276.459C470.323 275.73 470.103 275.001 469.566 274.45C468.713 273.556 467.447 273.239 466.291 273.212C465.232 273.184 464.158 273.391 463.167 273.872C462.988 273.308 462.892 272.73 462.892 272.166C462.892 271.175 463.167 270.198 463.745 269.4C463.8 269.317 463.869 269.235 463.938 269.152L464.144 268.904C464.282 268.753 464.433 268.602 464.598 268.45C464.75 268.313 464.915 268.175 465.08 268.051C465.245 267.913 465.424 267.79 465.603 267.68C466.319 267.212 467.117 266.84 467.915 266.551C468.025 266.51 468.135 266.469 468.245 266.441C467.97 266.221 467.695 265.987 467.433 265.753C467.021 265.918 466.608 266.111 466.209 266.331C466.002 266.427 465.809 266.537 465.617 266.661C465.218 266.895 464.846 267.157 464.502 267.446C464.323 267.583 464.158 267.735 463.993 267.9C463.663 268.216 463.374 268.574 463.112 268.959C461.998 270.569 461.943 272.744 462.713 274.436Z" fill="black"/>
<path fill-rule="evenodd" clip-rule="evenodd" d="M467.433 265.753C467.694 265.987 467.97 266.221 468.245 266.441C468.327 266.414 468.41 266.386 468.493 266.359C468.726 266.276 468.974 266.208 469.208 266.152C469.538 266.07 469.855 266.001 470.185 265.946C471.121 265.753 472.071 265.657 473.02 265.685C474.74 265.698 476.433 266.166 477.892 266.937C478.621 267.336 479.254 267.859 479.791 268.464C480.052 268.753 480.3 269.084 480.52 269.414C480.713 269.717 480.892 270.019 481.057 270.35C481.126 270.501 481.194 270.639 481.249 270.79C481.346 270.997 481.428 271.203 481.497 271.409C481.552 271.533 481.593 271.671 481.635 271.795C481.635 271.808 481.648 271.822 481.648 271.836C482.089 271.877 482.543 271.891 482.997 271.891C482.887 271.451 482.763 271.01 482.598 270.584C482.529 270.391 482.447 270.212 482.364 270.019C481.607 268.258 480.217 266.73 478.511 265.836C476.791 264.983 474.905 264.556 473.02 264.597C471.148 264.639 469.318 265.024 467.598 265.685C467.543 265.712 467.488 265.726 467.433 265.753Z" fill="black"/>
<path fill-rule="evenodd" clip-rule="evenodd" d="M346.883 228.13C348.893 234.763 353.516 240.639 359.668 243.804C353.406 237.171 349.539 228.57 349.539 219.364C349.539 206.291 357.039 194.786 368.434 188.015C368.434 188.015 368.448 188.002 368.461 187.988H368.475C368.489 187.974 368.503 187.974 368.516 187.96C369.039 187.548 369.576 187.176 370.14 186.832C369.782 186.983 369.438 187.148 369.081 187.314C361.443 190.919 354.562 196.465 350.31 203.841C346.127 211.08 344.434 220.024 346.883 228.13ZM486.768 225.185C486.782 225.185 486.782 225.185 486.796 225.171H486.809C488.433 224.937 490.043 224.621 491.626 224.263C502.222 221.868 513.135 216.708 516.603 207.488C516.988 206.483 517.277 205.437 517.47 204.391C514.704 212.511 503.185 219.887 488.075 222.35C487.608 223.217 486.919 224.125 486.066 225.075L486.053 225.089C485.984 225.171 485.915 225.254 485.832 225.323C486.149 225.281 486.452 225.226 486.768 225.185ZM472.883 312.859C479.915 312.281 486.754 309.542 492.163 304.685C501.341 296.428 505.745 283.038 503.034 270.639C502.525 268.354 501.809 266.125 500.874 264.006C500.653 263.469 500.406 262.974 500.144 262.465C500.296 263.084 500.433 263.717 500.557 264.35V264.364C501.039 266.965 501.286 269.648 501.286 272.387C501.286 291.143 489.41 307.065 472.883 312.859ZM347.984 206.58C355.374 190.795 373.195 181.768 390.08 180.97C399.535 180.529 409.195 182.731 416.86 188.442C416.874 188.456 416.901 188.47 416.888 188.483C417.287 188.47 417.672 188.47 418.071 188.483C418.374 188.346 418.677 188.194 418.993 188.057C424.594 185.8 430.333 186.557 435.053 189.57V189.515C435.19 187.864 438.755 186.887 442.03 186.474C441.548 177.777 445.112 168.997 452.42 163.107C461.103 156.116 472.676 155.181 482.103 159.694C483.796 155.373 487.03 151.947 491.681 150.309C502.332 146.552 516.08 153.405 522.396 165.626C528.286 177.02 525.617 189.034 516.589 193.63C518.736 197.332 519.094 201.543 518.075 205.479C516.864 210.13 513.74 214.162 509.543 217.286C505.222 220.479 499.979 222.694 494.502 224.222C492.617 224.745 490.69 225.199 488.736 225.557C499.085 227.992 506.791 237.309 506.791 248.414C506.791 253.946 504.878 259.024 501.685 263.029C504.919 270.488 505.704 279.061 503.516 287.153C501.851 293.359 498.658 299.07 494.323 303.611C489.796 308.345 484.03 311.593 477.823 313.107C474.823 313.836 471.754 314.166 468.686 314.07H468.672L468.658 314.084C468.644 314.097 468.644 314.097 468.631 314.084C468.617 314.097 468.617 314.097 468.603 314.084H468.589C465.507 314.813 462.369 315.198 459.08 315.198C455.791 315.198 452.406 314.978 449.337 314.235L449.076 307.506C449.131 307.464 449.186 307.437 449.227 307.396C450.507 306.501 451.745 305.538 452.943 304.519C455.447 302.4 457.745 300.006 459.823 297.35L459.837 297.336C460.264 296.799 460.663 296.263 461.062 295.698C461.268 295.437 461.461 295.162 461.626 294.886C462.025 294.336 462.397 293.786 462.768 293.208C466.002 294.006 469.401 294.088 472.649 293.442L472.855 293.4C473.131 293.345 473.42 293.276 473.695 293.221C477.713 292.258 481.47 290.18 484.387 287.07C487.952 283.258 489.658 278.552 489.603 273.859C489.589 273.143 489.534 272.442 489.438 271.726C489.41 271.52 489.383 271.327 489.341 271.121V271.107C488.612 266.621 486.231 262.368 482.241 259.189C480.741 257.992 479.131 257.029 477.424 256.286C475.319 259.451 472.14 261.928 468.218 263.139C467.323 263.428 466.415 263.634 465.507 263.758C462.961 264.13 460.429 263.923 458.062 263.208H458.048H458.034C456.658 263.703 455.117 264.322 454.167 265.382C453.369 266.263 453.397 267.46 453.975 268.327C455.144 267.543 456.672 266.951 457.979 267.061C459.975 267.254 459.768 269.345 458.709 270.501C457.498 271.822 455.571 272.166 453.906 271.616C453.988 271.781 454.071 271.946 454.167 272.098C455.034 273.364 456.287 274.286 456.314 275.965C456.342 277.643 455.31 279.157 453.975 280.079C453.534 280.368 452.97 280.396 452.846 279.804C452.722 279.198 453.369 278.469 453.823 278.166C455.461 277.038 452.461 274.506 451.952 273.515C451.401 272.442 451.566 271.313 452.089 270.336C451.511 269.497 451.332 268.396 451.539 267.295C451.965 264.997 453.617 263.414 455.626 262.272C451.388 260.277 447.988 256.575 446.475 251.758C446.351 251.414 446.282 251.07 446.199 250.726C444.933 251.841 443.406 252.722 441.672 253.258C435.259 255.267 428.42 251.896 426.067 245.676C425.915 245.318 425.791 244.96 425.695 244.575C425.544 244.066 425.434 243.543 425.365 243.02C425.117 241.231 425.268 239.414 425.764 237.708C424.498 237.144 423.273 236.401 422.158 235.437C420.562 234.061 419.337 232.423 418.484 230.634C418.223 230.979 417.989 231.295 417.713 231.625C410.998 239.442 399.59 240.887 391.223 235.327C390.521 234.859 389.847 234.364 389.2 233.786C384.837 230.07 382.457 225.116 382.181 219.79C382.016 219.942 381.879 220.079 381.741 220.231C381.411 220.547 381.108 220.864 380.805 221.194C380.489 221.524 380.186 221.855 379.883 222.199C379.759 222.336 379.649 222.474 379.525 222.598C379.25 222.914 378.975 223.231 378.714 223.547L378.562 223.74L378.535 223.781C378.507 223.781 378.507 223.809 378.493 223.823C378.287 224.043 378.108 224.277 377.915 224.511C377.392 225.157 376.87 225.818 376.402 226.506C376.36 226.547 376.319 226.602 376.292 226.644C376.03 226.974 375.796 227.304 375.562 227.648C375.301 227.979 375.081 228.323 374.847 228.667V228.68C374.764 228.79 374.695 228.914 374.613 229.024C374.516 229.162 374.434 229.3 374.337 229.437C374.296 229.506 374.255 229.575 374.214 229.63C374.172 229.699 374.117 229.768 374.09 229.836C374.048 229.905 374.007 229.96 373.952 230.029C373.787 230.277 373.636 230.538 373.484 230.8C373.443 230.868 373.402 230.937 373.36 231.006C373.236 231.199 373.113 231.405 373.003 231.598C372.81 231.914 372.617 232.245 372.452 232.575C372.383 232.685 372.328 232.795 372.259 232.919C372.232 232.96 372.218 233.001 372.191 233.043C370.98 235.203 369.892 237.46 368.97 239.8C368.75 240.281 368.558 240.79 368.379 241.286C368.117 241.946 367.883 242.634 367.649 243.309C367.457 243.832 367.292 244.355 367.14 244.878C366.906 245.579 366.714 246.281 366.521 246.983C366.425 247.341 366.315 247.712 366.232 248.084C366.149 248.373 366.081 248.676 366.026 248.965C366.026 248.978 366.012 248.992 366.012 249.006C366.012 249.02 366.012 249.033 365.998 249.047C365.998 249.075 365.984 249.102 365.984 249.13C365.97 249.157 365.957 249.171 365.957 249.199C365.957 249.212 365.943 249.226 365.943 249.24C364.649 248.332 363.411 247.355 362.241 246.322C362.227 246.322 362.227 246.309 362.227 246.309C355.14 243.997 349.512 238.245 346.732 231.378C343.471 223.396 344.379 214.272 347.984 206.58Z" fill="black"/>
<path fill-rule="evenodd" clip-rule="evenodd" d="M402.726 299.786C402.85 299.621 402.947 299.456 403.043 299.291C402.988 299.415 402.905 299.539 402.837 299.649C402.782 299.745 402.713 299.828 402.644 299.924C402.671 299.869 402.699 299.828 402.726 299.786Z" fill="#765040"/>
<path fill-rule="evenodd" clip-rule="evenodd" d="M403.759 297.901C403.773 297.873 403.801 297.831 403.801 297.804C403.787 297.818 403.773 297.831 403.773 297.845C403.773 297.873 403.773 297.887 403.759 297.901Z" fill="#765040"/>
<path fill-rule="evenodd" clip-rule="evenodd" d="M402.644 299.923C402.713 299.826 402.782 299.744 402.837 299.647C402.796 299.689 402.768 299.744 402.727 299.785C402.699 299.826 402.672 299.868 402.644 299.923Z" fill="#765040"/>
<path fill-rule="evenodd" clip-rule="evenodd" d="M452.943 304.518C455.447 302.399 457.745 300.005 459.823 297.349C457.732 299.991 455.42 302.385 452.943 304.518Z" fill="#765040"/>
<path fill-rule="evenodd" clip-rule="evenodd" d="M402.837 299.647C402.906 299.537 402.989 299.414 403.044 299.29C402.947 299.455 402.851 299.62 402.727 299.785C402.7 299.826 402.672 299.868 402.645 299.923C402.713 299.826 402.782 299.744 402.837 299.647ZM462.713 274.437L462.865 274.767L463.181 274.588C464.076 274.024 465.19 273.721 466.277 273.721C467.365 273.693 468.534 273.955 469.291 274.712C470.103 275.455 470.158 276.721 469.855 277.753C469.594 278.524 469.016 279.212 468.273 279.611C468.025 279.748 467.764 279.845 467.488 279.914L467.516 280.037C467.805 279.982 468.08 279.886 468.355 279.748C468.548 279.652 468.741 279.542 468.92 279.404C469.085 279.267 469.25 279.129 469.401 278.964C469.553 278.799 469.69 278.62 469.8 278.427C469.828 278.386 469.842 278.359 469.855 278.331C469.952 278.18 470.02 278.001 470.089 277.836C470.227 277.409 470.323 276.927 470.323 276.46C470.323 275.73 470.103 275.001 469.566 274.45C468.713 273.556 467.447 273.239 466.291 273.212C465.231 273.184 464.158 273.391 463.167 273.872C462.988 273.308 462.892 272.73 462.892 272.166C462.892 271.175 463.167 270.198 463.745 269.4C463.8 269.317 463.869 269.235 463.938 269.152L464.144 268.904C464.282 268.753 464.433 268.602 464.598 268.45C464.75 268.313 464.915 268.175 465.08 268.051C465.245 267.914 465.424 267.79 465.603 267.68C466.319 267.212 467.117 266.84 467.915 266.551C468.025 266.51 468.135 266.469 468.245 266.441C468.328 266.414 468.41 266.386 468.493 266.359C468.727 266.276 468.975 266.207 469.209 266.152C469.539 266.07 469.855 266.001 470.186 265.946C471.121 265.753 472.071 265.657 473.02 265.684C474.741 265.698 476.433 266.166 477.892 266.937C478.621 267.336 479.254 267.859 479.791 268.464C480.053 268.753 480.3 269.083 480.52 269.414C480.713 269.716 480.892 270.019 481.057 270.349C481.126 270.501 481.195 270.638 481.25 270.79C481.346 270.996 481.429 271.203 481.497 271.409C481.553 271.533 481.594 271.671 481.635 271.794C481.635 271.808 481.649 271.822 481.649 271.836C481.663 271.877 481.676 271.918 481.676 271.946C481.759 272.193 481.814 272.441 481.869 272.703C481.883 272.744 481.897 272.785 481.897 272.826C481.952 273.074 481.993 273.336 482.034 273.583C482.034 273.611 482.048 273.638 482.048 273.666C482.089 273.941 482.117 274.203 482.131 274.478V274.56C482.144 274.808 482.158 275.07 482.158 275.317V275.524C482.117 278.978 480.878 282.446 478.773 285.336L478.869 285.418C480.149 284.138 481.181 282.597 481.938 280.918C482.708 279.253 483.176 277.423 483.273 275.565C483.286 275.276 483.3 274.987 483.3 274.698C483.3 273.762 483.204 272.813 482.997 271.891C482.887 271.45 482.764 271.01 482.598 270.583C482.53 270.391 482.447 270.212 482.364 270.019C481.608 268.258 480.218 266.73 478.511 265.836C476.791 264.982 474.906 264.556 473.02 264.597C471.149 264.638 469.319 265.024 467.598 265.684C467.543 265.712 467.488 265.726 467.433 265.753C467.02 265.918 466.608 266.111 466.209 266.331C466.002 266.427 465.809 266.538 465.617 266.661C465.218 266.895 464.846 267.157 464.502 267.446C464.323 267.583 464.144 267.749 463.993 267.9C463.663 268.216 463.374 268.574 463.112 268.96C461.998 270.57 461.943 272.744 462.713 274.437ZM360.837 269.372C361.815 268.464 363.053 267.859 364.333 267.528C364.278 266.469 364.223 265.382 364.223 264.294C364.223 259.093 364.815 254.056 365.943 249.239C365.943 249.226 365.957 249.212 365.957 249.198C365.957 249.171 365.97 249.157 365.984 249.129C365.984 249.102 365.998 249.074 365.998 249.047C366.012 249.033 366.012 249.019 366.012 249.006C366.012 248.992 366.026 248.978 366.026 248.964C366.191 248.414 366.356 247.85 366.535 247.299C366.906 246.074 367.292 244.877 367.691 243.694C367.897 243.102 368.103 242.51 368.31 241.932C368.461 241.492 368.626 241.051 368.792 240.611C368.943 240.198 369.108 239.785 369.273 239.373C369.383 239.084 369.507 238.795 369.617 238.506C369.837 237.983 370.071 237.446 370.305 236.923C370.319 236.882 370.333 236.84 370.36 236.799C370.374 236.758 370.402 236.717 370.415 236.675C370.594 236.262 370.787 235.85 370.98 235.451C371.021 235.368 371.062 235.285 371.09 235.217C371.103 235.189 371.117 235.175 371.131 235.148C371.145 235.093 371.172 235.051 371.2 234.996V234.983C371.337 234.694 371.489 234.418 371.64 234.129C371.778 233.868 371.902 233.606 372.039 233.345C372.081 233.235 372.136 233.139 372.191 233.042C372.218 233.001 372.232 232.96 372.259 232.918C372.328 232.795 372.383 232.684 372.452 232.574C372.617 232.244 372.81 231.914 373.003 231.597C373.113 231.405 373.236 231.198 373.36 231.006C373.402 230.937 373.443 230.868 373.484 230.799C373.636 230.538 373.787 230.276 373.952 230.029C374.007 229.96 374.048 229.905 374.09 229.836C374.117 229.767 374.172 229.698 374.214 229.629C374.255 229.574 374.296 229.506 374.337 229.437C374.434 229.299 374.516 229.162 374.613 229.024C374.695 228.914 374.764 228.79 374.847 228.68V228.666C375.081 228.322 375.301 227.978 375.562 227.648C375.796 227.304 376.03 226.973 376.292 226.643C376.319 226.602 376.36 226.547 376.402 226.506C376.649 226.175 376.897 225.831 377.158 225.501C377.172 225.487 377.186 225.46 377.2 225.446C377.241 225.391 377.282 225.336 377.324 225.295C377.53 225.033 377.723 224.785 377.929 224.538L378.493 223.822L378.535 223.781L378.562 223.74L378.714 223.547C378.975 223.23 379.25 222.914 379.525 222.597C379.649 222.474 379.759 222.336 379.883 222.198C380.186 221.854 380.489 221.524 380.805 221.194C381.108 220.863 381.411 220.547 381.741 220.23C381.879 220.079 382.016 219.941 382.181 219.79C382.457 225.116 384.837 230.07 389.2 233.785C389.847 234.363 390.521 234.859 391.223 235.327C399.59 240.886 410.998 239.441 417.713 231.625C417.989 231.295 418.223 230.978 418.484 230.634C419.337 232.423 420.562 234.061 422.158 235.437C423.273 236.4 424.498 237.143 425.764 237.707C425.268 239.414 425.117 241.23 425.365 243.019C425.434 243.542 425.544 244.065 425.695 244.574C425.791 244.96 425.915 245.317 426.067 245.675C428.42 251.895 435.259 255.267 441.672 253.258C443.406 252.721 444.933 251.84 446.199 250.726C446.282 251.07 446.351 251.414 446.475 251.758C447.988 256.574 451.388 260.276 455.626 262.271C453.617 263.414 451.965 264.996 451.539 267.294C451.332 268.395 451.511 269.496 452.089 270.336C451.566 271.313 451.401 272.441 451.952 273.515C452.461 274.505 455.461 277.037 453.823 278.166C453.369 278.469 452.722 279.198 452.846 279.804C452.97 280.395 453.534 280.368 453.975 280.079C455.31 279.157 456.342 277.643 456.314 275.964C456.287 274.285 455.034 273.363 454.167 272.097C454.071 271.946 453.988 271.781 453.906 271.615C455.571 272.166 457.498 271.822 458.709 270.501C459.768 269.345 459.975 267.253 457.979 267.06C456.672 266.95 455.144 267.542 453.975 268.327C453.397 267.46 453.369 266.262 454.167 265.382C455.117 264.322 456.658 263.703 458.034 263.207H458.048H458.062C460.429 263.923 462.961 264.129 465.507 263.758C466.415 263.634 467.323 263.427 468.218 263.138C472.14 261.927 475.319 259.45 477.424 256.285C479.131 257.028 480.741 257.992 482.241 259.189C486.231 262.368 488.612 266.62 489.341 271.106V271.12C489.383 271.326 489.41 271.519 489.438 271.726C489.534 272.441 489.589 273.143 489.604 273.859C489.658 278.551 487.952 283.258 484.387 287.07C481.47 290.18 477.713 292.258 473.695 293.221C473.42 293.276 473.131 293.345 472.855 293.4L472.649 293.441C469.429 294.005 466.071 293.895 462.865 293.07C462.837 293.111 462.809 293.166 462.768 293.207C462.397 293.785 462.025 294.336 461.626 294.886C461.461 295.161 461.268 295.436 461.062 295.698C460.663 296.262 460.264 296.799 459.837 297.336L459.823 297.349C457.732 299.992 455.42 302.386 452.943 304.519C451.745 305.537 450.507 306.501 449.227 307.395C449.186 307.436 449.131 307.464 449.076 307.505L449.337 314.235L449.709 323.812L449.832 326.95V326.991L449.846 327.322L449.86 327.542V327.679L449.998 331.312C449.461 331.794 448.842 332.262 448.154 332.716C447.589 333.101 446.984 333.459 446.351 333.817C445.979 334.023 445.594 334.23 445.209 334.423C444.232 334.918 443.199 335.386 442.14 335.812C441.493 336.074 440.846 336.322 440.186 336.556C439.511 336.803 438.837 337.01 438.163 337.202C436.8 337.601 435.452 337.918 434.172 338.152C433.814 338.221 433.456 338.276 433.099 338.331C432.727 338.386 432.355 338.427 431.915 338.468V338.441C431.901 338.455 431.901 338.455 431.888 338.468C430.511 338.592 429.3 338.565 428.296 338.372C426.466 338.056 425.323 337.202 425.323 335.647C425.323 335.647 425.296 334.257 425.268 332.468C425.268 332.468 425.282 331.588 425.296 330.418C425.296 330.212 425.282 329.991 425.296 329.771C425.296 327.707 425.31 325.147 425.323 324.624V324.528V324.046C425.571 323.95 425.833 323.826 426.149 323.647H426.177C427.002 323.235 428.062 322.588 429.273 321.803C434.337 318.542 441.947 312.79 445.718 309.886C445.759 309.858 445.814 309.817 445.855 309.79C446.31 309.432 446.709 309.129 447.025 308.895L425.323 316.767V316.835C425.31 316.849 425.282 316.849 425.268 316.849C420.479 317.689 415.401 318.102 410.062 318.102C400.291 318.102 388.402 316.134 380.558 307.891C376.181 303.308 372.438 297.625 369.645 291.115C368.461 288.418 367.47 285.583 366.659 282.625C366.617 282.625 366.603 282.666 366.548 282.666C362.448 282.707 359.076 279.019 358.759 274.973C358.567 272.895 359.324 270.776 360.837 269.372Z" fill="#765040"/>
<path fill-rule="evenodd" clip-rule="evenodd" d="M447.025 308.896C446.709 309.129 446.31 309.432 445.856 309.79C445.814 309.818 445.759 309.859 445.718 309.886C441.947 312.79 434.337 318.542 429.273 321.804C428.062 322.588 427.003 323.235 426.177 323.648H426.149C425.833 323.827 425.571 323.95 425.324 324.047V316.767L447.025 308.896Z" fill="#765040"/>
<path fill-rule="evenodd" clip-rule="evenodd" d="M425.324 316.767V324.047C425.571 323.95 425.833 323.827 426.149 323.648H426.177C427.003 323.235 428.062 322.588 429.273 321.804C434.337 318.542 441.947 312.79 445.718 309.886C445.759 309.859 445.814 309.818 445.856 309.79C446.31 309.432 446.709 309.129 447.025 308.896L425.324 316.767Z" fill="#765040"/>
<path fill-rule="evenodd" clip-rule="evenodd" d="M406.635 286.093C406.635 292.85 412.098 298.313 418.841 298.313C425.598 298.313 431.062 292.85 431.062 286.093C431.062 279.35 425.598 273.887 418.841 273.887C412.098 273.887 406.635 279.35 406.635 286.093Z" fill="#C57450"/>
<path fill-rule="evenodd" clip-rule="evenodd" d="M462.711 274.437L462.876 274.767L463.179 274.588C464.073 274.024 465.188 273.721 466.289 273.721C467.376 273.694 468.532 273.955 469.303 274.712C470.101 275.455 470.156 276.721 469.853 277.753C469.495 278.785 468.587 279.652 467.5 279.914L467.527 280.038C468.67 279.804 469.66 278.951 470.087 277.836C470.459 276.749 470.472 275.359 469.564 274.451C468.711 273.556 467.459 273.24 466.289 273.212C465.229 273.185 464.156 273.391 463.179 273.873C462.67 272.345 462.835 270.666 463.757 269.4C464.72 268.024 466.316 267.143 467.926 266.552C469.55 265.974 471.298 265.643 473.032 265.685C474.738 265.698 476.431 266.166 477.89 266.937C480.876 268.588 482.211 272.097 482.156 275.524C482.114 278.978 480.876 282.446 478.77 285.336L478.881 285.418C480.147 284.139 481.192 282.597 481.936 280.918C482.706 279.253 483.188 277.423 483.27 275.565C483.38 273.708 483.16 271.781 482.362 270.019C481.605 268.258 480.229 266.73 478.509 265.836C476.789 264.983 474.903 264.556 473.018 264.597C471.16 264.639 469.33 265.024 467.596 265.685C465.89 266.373 464.197 267.35 463.11 268.96C462.009 270.57 461.94 272.744 462.711 274.437Z" fill="black"/>
<path fill-rule="evenodd" clip-rule="evenodd" d="M404.595 243.709C404.843 243.978 405.201 243.938 405.49 243.749C405.628 243.655 405.889 243.534 406.082 243.494C406.357 243.427 406.536 243.413 406.839 243.427C407.045 243.454 407.293 243.508 407.541 243.615C407.555 243.629 407.651 243.669 407.651 243.669C407.72 243.709 407.775 243.749 407.83 243.79C407.954 243.87 407.981 243.884 408.064 243.965C408.807 244.69 408.849 245.887 408.257 246.707C408.05 246.989 408.174 247.406 408.449 247.58C408.752 247.769 409.124 247.661 409.33 247.379C410.253 246.115 410.115 244.139 408.945 243.064C407.747 241.962 405.944 241.881 404.636 242.809C404.347 243.01 404.389 243.481 404.595 243.709Z" fill="black"/>
<path fill-rule="evenodd" clip-rule="evenodd" d="M397.926 277.937C400.144 278.204 402.388 274.431 402.929 269.499C403.484 264.566 402.13 260.354 399.925 260.074C397.707 259.807 395.463 263.58 394.921 268.512C394.367 273.445 395.721 277.657 397.926 277.937Z" fill="black"/>
<path fill-rule="evenodd" clip-rule="evenodd" d="M400.302 256.614C400.289 257.021 400.544 257.307 400.864 257.352C402.525 257.548 404.071 258.979 404.633 260.877C404.736 261.239 404.991 261.51 405.336 261.42C405.617 261.344 405.886 260.923 405.783 260.576C405.03 258.03 403.138 256.208 400.902 255.936C400.583 255.891 400.302 256.253 400.302 256.614Z" fill="black"/>
<path fill-rule="evenodd" clip-rule="evenodd" d="M388.988 297.032C394.031 297.687 399.299 295.871 402.85 291.733C403.154 291.379 403.114 290.845 402.759 290.541C402.406 290.237 401.872 290.274 401.567 290.632C396.573 296.446 387.779 297.115 381.965 292.125C381.614 291.822 381.079 291.859 380.772 292.216C380.468 292.571 380.509 293.105 380.863 293.409C383.249 295.455 386.081 296.655 388.988 297.032Z" fill="black"/>
<path d="M109.346 263.951C108.993 261.279 109.114 258.8 109.709 256.514C110.335 254.224 111.35 252.219 112.755 250.498C114.155 248.746 115.902 247.317 117.995 246.209C120.089 245.101 122.44 244.376 125.05 244.032C127.66 243.688 130.119 243.779 132.428 244.307C134.736 244.834 136.794 245.763 138.601 247.092C140.403 248.39 141.888 250.066 143.054 252.119C144.252 254.168 145.027 256.529 145.379 259.202C145.731 261.875 145.595 264.356 144.969 266.646C144.374 268.931 143.377 270.95 141.976 272.702C140.571 274.423 138.823 275.837 136.729 276.944C134.636 278.052 132.285 278.778 129.675 279.122C127.065 279.466 124.606 279.374 122.297 278.847C119.988 278.319 117.933 277.407 116.13 276.109C114.324 274.779 112.821 273.09 111.624 271.041C110.457 268.987 109.698 266.624 109.346 263.951ZM116.986 262.944C117.193 264.516 117.62 265.932 118.266 267.19C118.939 268.413 119.795 269.452 120.836 270.306C121.872 271.129 123.054 271.725 124.382 272.094C125.742 272.459 127.208 272.537 128.78 272.33C130.352 272.123 131.731 271.669 132.919 270.969C134.137 270.264 135.141 269.38 135.928 268.317C136.711 267.222 137.254 265.999 137.556 264.648C137.885 263.261 137.946 261.781 137.738 260.209C137.535 258.668 137.095 257.271 136.418 256.017C135.772 254.758 134.932 253.717 133.895 252.894C132.855 252.04 131.655 251.43 130.296 251.066C128.967 250.697 127.517 250.616 125.945 250.823C124.373 251.03 122.977 251.486 121.759 252.191C120.572 252.891 119.586 253.789 118.803 254.884C118.015 255.947 117.457 257.172 117.128 258.559C116.83 259.942 116.783 261.404 116.986 262.944Z" fill="#9B51E0"/>
<path d="M191.111 281.101L184.037 282.033L182.296 268.827L182.202 268.84C181.529 270.048 180.58 270.973 179.353 271.615C178.153 272.221 176.814 272.621 175.336 272.816C173.701 273.031 172.196 272.894 170.819 272.403C169.439 271.882 168.218 271.115 167.157 270.103C166.128 269.087 165.266 267.889 164.572 266.509C163.906 265.093 163.467 263.584 163.256 261.98C163.028 260.251 163.086 258.628 163.43 257.111C163.774 255.594 164.365 254.253 165.203 253.087C166.068 251.885 167.155 250.91 168.464 250.162C169.769 249.382 171.27 248.88 172.968 248.656C173.754 248.553 174.523 248.563 175.275 248.688C176.059 248.809 176.772 249.003 177.415 249.27C178.09 249.533 178.676 249.855 179.174 250.237C179.7 250.584 180.131 250.943 180.468 251.315L180.562 251.302L180.164 248.284L186.673 247.426L191.111 281.101ZM181.675 259.744C181.447 258.015 180.759 256.682 179.612 255.746C178.497 254.805 177.043 254.453 175.25 254.689C173.458 254.925 172.129 255.644 171.264 256.846C170.43 258.044 170.127 259.507 170.355 261.236C170.583 262.966 171.255 264.301 172.371 265.241C173.518 266.178 174.987 266.528 176.78 266.292C178.572 266.055 179.885 265.339 180.719 264.141C181.584 262.939 181.903 261.474 181.675 259.744Z" fill="#9B51E0"/>
<path d="M217.421 266.693L210.629 267.588L210.219 264.475L210.125 264.488C209.931 264.961 209.659 265.445 209.308 265.939C208.989 266.429 208.569 266.884 208.049 267.305C207.528 267.725 206.921 268.093 206.227 268.408C205.533 268.724 204.761 268.937 203.912 269.049C202.12 269.286 200.623 269.211 199.42 268.826C198.245 268.405 197.279 267.748 196.522 266.857C195.796 265.961 195.236 264.867 194.842 263.575C194.479 262.279 194.196 260.861 193.993 259.321L192.327 246.681L199.402 245.748L200.881 256.973C200.968 257.633 201.075 258.323 201.202 259.042C201.356 259.726 201.582 260.352 201.881 260.92C202.211 261.484 202.637 261.924 203.159 262.239C203.711 262.55 204.444 262.646 205.356 262.525C206.267 262.405 206.986 262.151 207.51 261.762C208.03 261.341 208.397 260.845 208.609 260.273C208.849 259.666 208.971 259.01 208.974 258.306C208.977 257.602 208.929 256.872 208.83 256.118L207.325 244.704L214.4 243.771L217.421 266.693Z" fill="#9B51E0"/>
<path d="M243.604 259.212C242.663 260.807 241.379 262.112 239.753 263.126C238.128 264.14 236.387 264.769 234.532 265.014C232.771 265.246 231.068 265.182 229.421 264.824C227.805 264.461 226.348 263.837 225.048 262.953C223.775 262.033 222.711 260.878 221.856 259.487C221.001 258.096 220.453 256.489 220.213 254.665C219.972 252.842 220.085 251.147 220.55 249.582C221.016 248.018 221.746 246.642 222.741 245.455C223.764 244.233 225.008 243.237 226.474 242.468C227.972 241.695 229.601 241.192 231.362 240.96C232.997 240.744 234.512 240.833 235.907 241.225C237.334 241.612 238.573 242.281 239.626 243.23C240.706 244.143 241.595 245.305 242.293 246.717C242.991 248.128 243.46 249.746 243.7 251.57L243.993 253.786L227.579 255.949C228.041 257.264 228.797 258.268 229.848 258.961C230.895 259.623 232.11 259.863 233.493 259.68C234.657 259.527 235.598 259.147 236.318 258.54C237.065 257.898 237.683 257.129 238.173 256.233L243.604 259.212ZM236.284 249.908C236.158 248.709 235.63 247.739 234.701 246.998C233.771 246.256 232.662 245.971 231.373 246.141C230.587 246.244 229.912 246.461 229.347 246.792C228.783 247.122 228.308 247.52 227.921 247.987C227.562 248.418 227.292 248.918 227.111 249.485C226.958 250.018 226.902 250.569 226.945 251.139L236.284 249.908Z" fill="#9B51E0"/>
<path d="M274.307 242.737C273.099 241.585 271.647 241.121 269.949 241.344C269.351 241.423 268.788 241.641 268.26 241.999C267.731 242.356 267.512 242.881 267.603 243.573C267.678 244.139 268.017 244.526 268.62 244.734C269.251 244.907 270.021 245.046 270.93 245.15C271.867 245.218 272.855 245.312 273.894 245.431C274.961 245.514 275.967 245.749 276.914 246.136C277.892 246.519 278.722 247.114 279.404 247.919C280.114 248.69 280.564 249.798 280.754 251.244C280.949 252.722 280.781 253.992 280.249 255.054C279.744 256.08 279.028 256.958 278.101 257.688C277.169 258.386 276.089 258.929 274.86 259.315C273.636 259.732 272.41 260.021 271.184 260.183C269.581 260.394 267.932 260.388 266.239 260.163C264.542 259.907 263.051 259.272 261.766 258.257L265.43 252.928C266.198 253.659 267.004 254.192 267.848 254.529C268.719 254.83 269.689 254.91 270.758 254.769C271.576 254.661 272.3 254.454 272.932 254.147C273.559 253.808 273.831 253.324 273.748 252.695C273.669 252.098 273.313 251.697 272.678 251.493C272.071 251.253 271.298 251.099 270.362 251.031C269.452 250.926 268.464 250.833 267.398 250.749C266.358 250.63 265.352 250.395 264.378 250.044C263.435 249.688 262.609 249.125 261.9 248.355C261.218 247.549 260.782 246.423 260.591 244.977C260.413 243.625 260.527 242.426 260.933 241.381C261.37 240.332 261.988 239.435 262.785 238.69C263.614 237.941 264.592 237.348 265.718 236.912C266.84 236.444 267.998 236.131 269.193 235.974C270.702 235.775 272.256 235.794 273.855 236.031C275.454 236.268 276.862 236.882 278.08 237.873L274.307 242.737Z" fill="#9B51E0"/>
<path d="M299.307 252.974L299.212 252.986C298.588 254.316 297.651 255.335 296.4 256.044C295.182 256.748 293.849 257.196 292.403 257.386C291.334 257.527 290.275 257.507 289.228 257.325C288.216 257.17 287.293 256.844 286.46 256.346C285.626 255.848 284.932 255.188 284.375 254.366C283.819 253.543 283.464 252.55 283.311 251.387C283.137 250.066 283.226 248.919 283.577 247.945C283.96 246.967 284.521 246.125 285.26 245.42C286.03 244.711 286.929 244.129 287.956 243.673C288.98 243.186 290.047 242.79 291.158 242.484C292.301 242.173 293.436 241.927 294.564 241.747C295.723 241.562 296.79 241.405 297.765 241.277C297.599 240.019 297.013 239.089 296.006 238.486C295.026 237.847 293.923 237.609 292.697 237.77C291.533 237.924 290.497 238.316 289.589 238.948C288.708 239.544 287.946 240.316 287.303 241.264L283.02 237.894C284.179 236.494 285.6 235.379 287.282 234.549C288.96 233.688 290.742 233.134 292.628 232.885C294.704 232.611 296.437 232.655 297.828 233.015C299.246 233.34 300.415 233.954 301.333 234.857C302.283 235.755 303.013 236.922 303.522 238.359C304.027 239.764 304.406 241.425 304.659 243.343L306.195 254.993L299.686 255.851L299.307 252.974ZM296.617 246.035C296.082 246.105 295.41 246.226 294.601 246.396C293.819 246.531 293.065 246.759 292.34 247.078C291.646 247.394 291.06 247.807 290.584 248.317C290.139 248.824 289.968 249.47 290.072 250.256C290.183 251.105 290.628 251.686 291.405 252C292.182 252.313 292.964 252.418 293.75 252.314C294.441 252.223 295.089 252.042 295.693 251.77C296.329 251.495 296.875 251.151 297.333 250.739C297.79 250.326 298.125 249.834 298.338 249.263C298.582 248.687 298.656 248.037 298.561 247.314L298.362 245.805L296.617 246.035ZM282.701 230.739C282.723 229.936 282.84 229.121 283.05 228.293C283.261 227.466 283.563 226.722 283.956 226.063C284.376 225.368 284.907 224.786 285.549 224.317C286.191 223.849 286.952 223.557 287.833 223.441C288.619 223.337 289.339 223.338 289.993 223.444C290.646 223.55 291.338 223.698 292.067 223.89C292.528 223.989 292.973 224.091 293.402 224.194C293.863 224.293 294.329 224.312 294.801 224.25C295.336 224.179 295.739 223.966 296.012 223.61C296.281 223.223 296.495 222.779 296.653 222.278L300.331 221.793C300.294 222.726 300.186 223.604 300.007 224.427C299.827 225.25 299.525 225.994 299.101 226.658C298.704 227.286 298.167 227.821 297.489 228.262C296.843 228.699 296.033 228.982 295.058 229.11C294.366 229.201 293.693 229.194 293.04 229.088C292.413 228.947 291.816 228.786 291.249 228.604C290.681 228.423 290.133 228.272 289.605 228.149C289.104 227.991 288.618 227.943 288.147 228.006C287.612 228.076 287.217 228.352 286.96 228.834C286.704 229.315 286.526 229.787 286.427 230.248L282.701 230.739Z" fill="#9B51E0"/>
<path d="M308.274 243.059C308.033 241.235 308.146 239.541 308.611 237.976C309.077 236.411 309.807 235.035 310.802 233.849C311.825 232.626 313.069 231.63 314.535 230.861C316.033 230.088 317.662 229.586 319.423 229.353C321.184 229.121 322.872 229.187 324.487 229.55C326.134 229.909 327.593 230.548 328.866 231.468C330.166 232.352 331.244 233.489 332.099 234.88C332.954 236.271 333.502 237.878 333.742 239.702C333.983 241.526 333.87 243.22 333.405 244.785C332.939 246.35 332.195 247.743 331.173 248.966C330.177 250.152 328.931 251.132 327.433 251.906C325.967 252.675 324.354 253.175 322.593 253.407C320.832 253.639 319.129 253.576 317.482 253.217C315.867 252.854 314.409 252.231 313.109 251.346C311.836 250.427 310.772 249.271 309.917 247.88C309.062 246.49 308.514 244.882 308.274 243.059ZM315.348 242.126C315.576 243.856 316.248 245.191 317.364 246.131C318.511 247.068 319.98 247.418 321.773 247.182C323.565 246.945 324.878 246.228 325.712 245.031C326.577 243.829 326.896 242.364 326.668 240.634C326.44 238.905 325.752 237.572 324.605 236.636C323.49 235.695 322.036 235.343 320.243 235.579C318.451 235.815 317.122 236.534 316.257 237.736C315.423 238.934 315.12 240.397 315.348 242.126Z" fill="#9B51E0"/>
<path d="M116.881 314.205L123.955 313.272L124.44 316.951L124.535 316.938C125.103 315.424 125.86 314.253 126.806 313.424C127.749 312.564 129.006 312.031 130.578 311.823C130.987 311.77 131.398 311.731 131.811 311.709C132.223 311.687 132.609 311.7 132.967 311.748L133.819 318.21C133.295 318.119 132.778 318.075 132.266 318.079C131.782 318.047 131.273 318.066 130.738 318.136C129.386 318.314 128.342 318.644 127.606 319.125C126.869 319.606 126.327 320.221 125.978 320.971C125.656 321.685 125.494 322.522 125.493 323.482C125.491 324.442 125.565 325.488 125.715 326.62L126.976 336.194L119.902 337.126L116.881 314.205Z" fill="#9B51E0"/>
<path d="M135.92 323.355C135.679 321.531 135.792 319.837 136.257 318.272C136.723 316.708 137.453 315.332 138.449 314.145C139.471 312.923 140.715 311.927 142.181 311.158C143.679 310.385 145.308 309.882 147.069 309.65C148.83 309.418 150.518 309.483 152.133 309.846C153.78 310.205 155.24 310.844 156.512 311.764C157.813 312.648 158.89 313.786 159.745 315.177C160.6 316.567 161.148 318.175 161.388 319.998C161.629 321.822 161.516 323.516 161.051 325.081C160.585 326.646 159.841 328.04 158.819 329.262C157.823 330.449 156.577 331.429 155.08 332.202C153.613 332.971 152 333.472 150.239 333.704C148.478 333.936 146.775 333.872 145.128 333.514C143.513 333.151 142.055 332.527 140.755 331.643C139.482 330.723 138.418 329.568 137.563 328.177C136.708 326.786 136.16 325.179 135.92 323.355ZM142.994 322.423C143.222 324.152 143.894 325.487 145.01 326.428C146.157 327.364 147.626 327.714 149.419 327.478C151.211 327.242 152.524 326.525 153.358 325.327C154.223 324.126 154.542 322.66 154.314 320.931C154.086 319.201 153.398 317.869 152.251 316.932C151.136 315.992 149.682 315.639 147.889 315.876C146.097 316.112 144.768 316.831 143.903 318.032C143.069 319.23 142.766 320.693 142.994 322.423Z" fill="#9B51E0"/>
<path d="M163.027 295.167L170.101 294.234L172.103 309.421L172.197 309.409C172.87 308.201 173.806 307.294 175.006 306.688C176.233 306.046 177.585 305.628 179.063 305.433C180.698 305.218 182.206 305.371 183.586 305.893C184.962 306.383 186.165 307.136 187.194 308.152C188.256 309.164 189.119 310.378 189.786 311.793C190.479 313.173 190.932 314.665 191.143 316.269C191.371 317.998 191.313 319.621 190.969 321.138C190.625 322.655 190.021 324.014 189.156 325.216C188.318 326.382 187.246 327.355 185.942 328.134C184.633 328.883 183.129 329.369 181.431 329.593C180.614 329.7 179.829 329.692 179.077 329.567C178.325 329.442 177.611 329.248 176.937 328.985C176.294 328.718 175.71 328.411 175.184 328.065C174.686 327.683 174.268 327.306 173.931 326.934L173.837 326.947L174.235 329.965L167.726 330.823L163.027 295.167ZM172.724 318.504C172.952 320.234 173.624 321.569 174.74 322.509C175.887 323.446 177.356 323.796 179.149 323.56C180.941 323.323 182.254 322.606 183.088 321.409C183.953 320.207 184.272 318.742 184.044 317.012C183.816 315.283 183.128 313.95 181.981 313.014C180.866 312.073 179.412 311.721 177.619 311.957C175.827 312.193 174.498 312.912 173.633 314.114C172.799 315.312 172.496 316.775 172.724 318.504Z" fill="#9B51E0"/>
<path d="M194.414 315.646C194.174 313.822 194.287 312.128 194.752 310.563C195.218 308.998 195.948 307.622 196.943 306.435C197.966 305.213 199.21 304.217 200.676 303.448C202.174 302.675 203.803 302.172 205.564 301.94C207.324 301.708 209.012 301.774 210.628 302.137C212.274 302.495 213.734 303.135 215.007 304.055C216.307 304.939 217.385 306.076 218.24 307.467C219.095 308.858 219.643 310.465 219.883 312.289C220.123 314.112 220.011 315.807 219.545 317.372C219.08 318.936 218.336 320.33 217.313 321.552C216.318 322.739 215.072 323.719 213.574 324.492C212.108 325.261 210.495 325.762 208.734 325.994C206.973 326.226 205.269 326.163 203.623 325.804C202.007 325.441 200.55 324.818 199.249 323.933C197.977 323.013 196.913 321.858 196.058 320.467C195.202 319.076 194.655 317.469 194.414 315.646ZM201.489 314.713C201.717 316.442 202.389 317.777 203.504 318.718C204.651 319.654 206.121 320.005 207.913 319.768C209.706 319.532 211.019 318.815 211.852 317.618C212.718 316.416 213.036 314.951 212.808 313.221C212.58 311.492 211.893 310.159 210.746 309.223C209.63 308.282 208.176 307.93 206.384 308.166C204.592 308.402 203.263 309.121 202.398 310.323C201.564 311.52 201.261 312.984 201.489 314.713ZM208.03 298.448L204.574 295.161L202.135 299.225L195.768 300.065L200.485 292.533L208.173 291.52L214.539 297.59L208.03 298.448Z" fill="#9B51E0"/>
<path d="M236.399 305.314C235.191 304.161 233.738 303.697 232.04 303.921C231.443 304 230.88 304.218 230.351 304.575C229.823 304.933 229.604 305.457 229.695 306.149C229.77 306.715 230.109 307.102 230.712 307.311C231.342 307.484 232.112 307.622 233.022 307.726C233.958 307.795 234.947 307.888 235.986 308.007C237.052 308.091 238.059 308.326 239.006 308.713C239.984 309.096 240.814 309.69 241.496 310.496C242.205 311.266 242.655 312.374 242.846 313.821C243.041 315.299 242.872 316.568 242.34 317.63C241.836 318.656 241.12 319.534 240.192 320.264C239.261 320.963 238.181 321.505 236.952 321.891C235.727 322.308 234.502 322.598 233.276 322.759C231.672 322.971 230.024 322.964 228.331 322.739C226.634 322.483 225.142 321.848 223.857 320.834L227.521 315.505C228.289 316.235 229.095 316.769 229.939 317.105C230.811 317.406 231.781 317.486 232.85 317.345C233.668 317.238 234.392 317.03 235.023 316.723C235.65 316.385 235.923 315.901 235.84 315.272C235.761 314.675 235.404 314.274 234.77 314.069C234.162 313.83 233.39 313.675 232.453 313.607C231.544 313.503 230.556 313.409 229.489 313.326C228.45 313.207 227.443 312.972 226.469 312.62C225.527 312.265 224.701 311.702 223.992 310.932C223.31 310.126 222.873 309 222.683 307.553C222.504 306.201 222.618 305.003 223.024 303.957C223.462 302.908 224.079 302.011 224.877 301.266C225.706 300.517 226.683 299.924 227.809 299.488C228.931 299.02 230.09 298.708 231.285 298.55C232.794 298.351 234.348 298.37 235.947 298.608C237.545 298.845 238.954 299.459 240.172 300.45L236.399 305.314Z" fill="#9B51E0"/>
<path d="M253.352 306.198C253.228 305.255 253.248 304.436 253.412 303.743C253.577 303.05 253.921 302.381 254.443 301.736C255.212 300.771 255.916 299.926 256.557 299.202C257.228 298.474 257.796 297.807 258.26 297.202C258.72 296.566 259.061 295.993 259.281 295.484C259.53 294.94 259.618 294.4 259.548 293.866C259.411 292.828 258.975 292.07 258.24 291.591C257.533 291.076 256.692 290.883 255.717 291.012C254.239 291.206 253.161 291.764 252.483 292.685C251.836 293.602 251.542 294.649 251.601 295.825L244.276 296.31C244.182 292.932 245.075 290.239 246.954 288.232C248.828 286.194 251.416 284.957 254.718 284.522C256.164 284.331 257.543 284.357 258.855 284.6C260.193 284.808 261.402 285.24 262.48 285.898C263.559 286.555 264.458 287.428 265.177 288.517C265.896 289.606 266.355 290.905 266.554 292.414C266.674 293.326 266.69 294.172 266.601 294.951C266.507 295.699 266.272 296.466 265.896 297.251C265.551 298.033 265.051 298.85 264.396 299.704C263.768 300.523 262.946 301.447 261.93 302.476C261.282 303.138 260.867 303.752 260.686 304.32C260.505 304.888 260.449 305.439 260.52 305.973L260.7 307.341L253.626 308.273L253.352 306.198ZM253.744 315.359C253.665 314.762 253.701 314.181 253.85 313.618C254 313.054 254.238 312.559 254.566 312.132C254.921 311.669 255.351 311.293 255.857 311.002C256.362 310.712 256.914 310.527 257.511 310.448C258.108 310.37 258.689 310.405 259.252 310.555C259.816 310.704 260.313 310.959 260.745 311.318C261.203 311.641 261.578 312.056 261.868 312.561C262.159 313.067 262.343 313.618 262.422 314.216C262.501 314.813 262.465 315.393 262.316 315.957C262.166 316.521 261.914 317.034 261.559 317.496C261.231 317.923 260.815 318.282 260.309 318.573C259.804 318.863 259.252 319.048 258.655 319.127C258.057 319.205 257.477 319.17 256.913 319.02C256.35 318.871 255.839 318.634 255.38 318.311C254.949 317.952 254.588 317.519 254.298 317.014C254.007 316.508 253.823 315.957 253.744 315.359Z" fill="#9B51E0"/>
<path d="M109.346 263.951C108.993 261.279 109.114 258.8 109.709 256.514C110.335 254.224 111.35 252.219 112.755 250.498C114.155 248.746 115.902 247.317 117.995 246.209C120.089 245.101 122.44 244.376 125.05 244.032C127.66 243.688 130.119 243.779 132.428 244.307C134.736 244.834 136.794 245.763 138.601 247.092C140.403 248.39 141.888 250.066 143.054 252.119C144.252 254.168 145.027 256.529 145.379 259.202C145.731 261.875 145.595 264.356 144.969 266.646C144.374 268.931 143.377 270.95 141.976 272.702C140.571 274.423 138.823 275.837 136.729 276.944C134.636 278.052 132.285 278.778 129.675 279.122C127.065 279.466 124.606 279.374 122.297 278.847C119.988 278.319 117.933 277.407 116.13 276.109C114.324 274.779 112.821 273.09 111.624 271.041C110.457 268.987 109.698 266.624 109.346 263.951ZM116.986 262.944C117.193 264.516 117.62 265.932 118.266 267.19C118.939 268.413 119.795 269.452 120.836 270.306C121.872 271.129 123.054 271.725 124.382 272.094C125.742 272.459 127.208 272.537 128.78 272.33C130.352 272.123 131.731 271.669 132.919 270.969C134.137 270.264 135.141 269.38 135.928 268.317C136.711 267.222 137.254 265.999 137.556 264.648C137.885 263.261 137.946 261.781 137.738 260.209C137.535 258.668 137.095 257.271 136.418 256.017C135.772 254.758 134.932 253.717 133.895 252.894C132.855 252.04 131.655 251.43 130.296 251.066C128.967 250.697 127.517 250.616 125.945 250.823C124.373 251.03 122.977 251.486 121.759 252.191C120.572 252.891 119.586 253.789 118.803 254.884C118.015 255.947 117.457 257.172 117.128 258.559C116.83 259.942 116.783 261.404 116.986 262.944Z" fill="#321F4A"/>
<path d="M191.111 281.101L184.037 282.033L182.296 268.827L182.202 268.84C181.529 270.048 180.58 270.973 179.353 271.615C178.153 272.221 176.814 272.621 175.336 272.816C173.701 273.031 172.196 272.894 170.819 272.403C169.439 271.882 168.218 271.115 167.157 270.103C166.128 269.087 165.266 267.889 164.572 266.509C163.906 265.093 163.467 263.584 163.256 261.98C163.028 260.251 163.086 258.628 163.43 257.111C163.774 255.594 164.365 254.253 165.203 253.087C166.068 251.885 167.155 250.91 168.464 250.162C169.769 249.382 171.27 248.88 172.968 248.656C173.754 248.553 174.523 248.563 175.275 248.688C176.059 248.809 176.772 249.003 177.415 249.27C178.09 249.533 178.676 249.855 179.174 250.237C179.7 250.584 180.131 250.943 180.468 251.315L180.562 251.302L180.164 248.284L186.673 247.426L191.111 281.101ZM181.675 259.744C181.447 258.015 180.759 256.682 179.612 255.746C178.497 254.805 177.043 254.453 175.25 254.689C173.458 254.925 172.129 255.644 171.264 256.846C170.43 258.044 170.127 259.507 170.355 261.236C170.583 262.966 171.255 264.301 172.371 265.241C173.518 266.178 174.987 266.528 176.78 266.292C178.572 266.055 179.885 265.339 180.719 264.141C181.584 262.939 181.903 261.474 181.675 259.744Z" fill="#321F4A"/>
<path d="M217.421 266.693L210.629 267.588L210.219 264.475L210.125 264.488C209.931 264.961 209.659 265.445 209.308 265.939C208.989 266.429 208.569 266.884 208.049 267.305C207.528 267.725 206.921 268.093 206.227 268.408C205.533 268.724 204.761 268.937 203.912 269.049C202.12 269.286 200.623 269.211 199.42 268.826C198.245 268.405 197.279 267.748 196.522 266.857C195.796 265.961 195.236 264.867 194.842 263.575C194.479 262.279 194.196 260.861 193.993 259.321L192.327 246.681L199.402 245.748L200.881 256.973C200.968 257.633 201.075 258.323 201.202 259.042C201.356 259.726 201.582 260.352 201.881 260.92C202.211 261.484 202.637 261.924 203.159 262.239C203.711 262.55 204.444 262.646 205.356 262.525C206.267 262.405 206.986 262.151 207.51 261.762C208.03 261.341 208.397 260.845 208.609 260.273C208.849 259.666 208.971 259.01 208.974 258.306C208.977 257.602 208.929 256.872 208.83 256.118L207.325 244.704L214.4 243.771L217.421 266.693Z" fill="#321F4A"/>
<path d="M243.604 259.212C242.663 260.807 241.379 262.112 239.753 263.126C238.128 264.14 236.387 264.769 234.532 265.014C232.771 265.246 231.068 265.182 229.421 264.824C227.805 264.461 226.348 263.837 225.048 262.953C223.775 262.033 222.711 260.878 221.856 259.487C221.001 258.096 220.453 256.489 220.213 254.665C219.972 252.842 220.085 251.147 220.55 249.582C221.016 248.018 221.746 246.642 222.741 245.455C223.764 244.233 225.008 243.237 226.474 242.468C227.972 241.695 229.601 241.192 231.362 240.96C232.997 240.744 234.512 240.833 235.907 241.225C237.334 241.612 238.573 242.281 239.626 243.23C240.706 244.143 241.595 245.305 242.293 246.717C242.991 248.128 243.46 249.746 243.7 251.57L243.993 253.786L227.579 255.949C228.041 257.264 228.797 258.268 229.848 258.961C230.895 259.623 232.11 259.863 233.493 259.68C234.657 259.527 235.598 259.147 236.318 258.54C237.065 257.898 237.683 257.129 238.173 256.233L243.604 259.212ZM236.284 249.908C236.158 248.709 235.63 247.739 234.701 246.998C233.771 246.256 232.662 245.971 231.373 246.141C230.587 246.244 229.912 246.461 229.347 246.792C228.783 247.122 228.308 247.52 227.921 247.987C227.562 248.418 227.292 248.918 227.111 249.485C226.958 250.018 226.902 250.569 226.945 251.139L236.284 249.908Z" fill="#321F4A"/>
<path d="M274.307 242.737C273.099 241.585 271.647 241.121 269.949 241.344C269.351 241.423 268.788 241.641 268.26 241.999C267.731 242.356 267.512 242.881 267.603 243.573C267.678 244.139 268.017 244.526 268.62 244.734C269.251 244.907 270.021 245.046 270.93 245.15C271.867 245.218 272.855 245.312 273.894 245.431C274.961 245.514 275.967 245.749 276.914 246.136C277.892 246.519 278.722 247.114 279.404 247.919C280.114 248.69 280.564 249.798 280.754 251.244C280.949 252.722 280.781 253.992 280.249 255.054C279.744 256.08 279.028 256.958 278.101 257.688C277.169 258.386 276.089 258.929 274.86 259.315C273.636 259.732 272.41 260.021 271.184 260.183C269.581 260.394 267.932 260.388 266.239 260.163C264.542 259.907 263.051 259.272 261.766 258.257L265.43 252.928C266.198 253.659 267.004 254.192 267.848 254.529C268.719 254.83 269.689 254.91 270.758 254.769C271.576 254.661 272.3 254.454 272.932 254.147C273.559 253.808 273.831 253.324 273.748 252.695C273.669 252.098 273.313 251.697 272.678 251.493C272.071 251.253 271.298 251.099 270.362 251.031C269.452 250.926 268.464 250.833 267.398 250.749C266.358 250.63 265.352 250.395 264.378 250.044C263.435 249.688 262.609 249.125 261.9 248.355C261.218 247.549 260.782 246.423 260.591 244.977C260.413 243.625 260.527 242.426 260.933 241.381C261.37 240.332 261.988 239.435 262.785 238.69C263.614 237.941 264.592 237.348 265.718 236.912C266.84 236.444 267.998 236.131 269.193 235.974C270.702 235.775 272.256 235.794 273.855 236.031C275.454 236.268 276.862 236.882 278.08 237.873L274.307 242.737Z" fill="#321F4A"/>
<path d="M299.307 252.974L299.212 252.986C298.588 254.316 297.651 255.335 296.4 256.044C295.182 256.748 293.849 257.196 292.403 257.386C291.334 257.527 290.275 257.507 289.228 257.325C288.216 257.17 287.293 256.844 286.46 256.346C285.626 255.848 284.932 255.188 284.375 254.366C283.819 253.543 283.464 252.55 283.311 251.387C283.137 250.066 283.226 248.919 283.577 247.945C283.96 246.967 284.521 246.125 285.26 245.42C286.03 244.711 286.929 244.129 287.956 243.673C288.98 243.186 290.047 242.79 291.158 242.484C292.301 242.173 293.436 241.927 294.564 241.747C295.723 241.562 296.79 241.405 297.765 241.277C297.599 240.019 297.013 239.089 296.006 238.486C295.026 237.847 293.923 237.609 292.697 237.77C291.533 237.924 290.497 238.316 289.589 238.948C288.708 239.544 287.946 240.316 287.303 241.264L283.02 237.894C284.179 236.494 285.6 235.379 287.282 234.549C288.96 233.688 290.742 233.134 292.628 232.885C294.704 232.611 296.437 232.655 297.828 233.015C299.246 233.34 300.415 233.954 301.333 234.857C302.283 235.755 303.013 236.922 303.522 238.359C304.027 239.764 304.406 241.425 304.659 243.343L306.195 254.993L299.686 255.851L299.307 252.974ZM296.617 246.035C296.082 246.105 295.41 246.226 294.601 246.396C293.819 246.531 293.065 246.759 292.34 247.078C291.646 247.394 291.06 247.807 290.584 248.317C290.139 248.824 289.968 249.47 290.072 250.256C290.183 251.105 290.628 251.686 291.405 252C292.182 252.313 292.964 252.418 293.75 252.314C294.441 252.223 295.089 252.042 295.693 251.77C296.329 251.495 296.875 251.151 297.333 250.739C297.79 250.326 298.125 249.834 298.338 249.263C298.582 248.687 298.656 248.037 298.561 247.314L298.362 245.805L296.617 246.035ZM282.701 230.739C282.723 229.936 282.84 229.121 283.05 228.293C283.261 227.466 283.563 226.722 283.956 226.063C284.376 225.368 284.907 224.786 285.549 224.317C286.191 223.849 286.952 223.557 287.833 223.441C288.619 223.337 289.339 223.338 289.993 223.444C290.646 223.55 291.338 223.698 292.067 223.89C292.528 223.989 292.973 224.091 293.402 224.194C293.863 224.293 294.329 224.312 294.801 224.25C295.336 224.179 295.739 223.966 296.012 223.61C296.281 223.223 296.495 222.779 296.653 222.278L300.331 221.793C300.294 222.726 300.186 223.604 300.007 224.427C299.827 225.25 299.525 225.994 299.101 226.658C298.704 227.286 298.167 227.821 297.489 228.262C296.843 228.699 296.033 228.982 295.058 229.11C294.366 229.201 293.693 229.194 293.04 229.088C292.413 228.947 291.816 228.786 291.249 228.604C290.681 228.423 290.133 228.272 289.605 228.149C289.104 227.991 288.618 227.943 288.147 228.006C287.612 228.076 287.217 228.352 286.96 228.834C286.704 229.315 286.526 229.787 286.427 230.248L282.701 230.739Z" fill="#321F4A"/>
<path d="M308.274 243.059C308.033 241.235 308.146 239.541 308.611 237.976C309.077 236.411 309.807 235.035 310.802 233.849C311.825 232.626 313.069 231.63 314.535 230.861C316.033 230.088 317.662 229.586 319.423 229.353C321.184 229.121 322.872 229.187 324.487 229.55C326.134 229.909 327.593 230.548 328.866 231.468C330.166 232.352 331.244 233.489 332.099 234.88C332.954 236.271 333.502 237.878 333.742 239.702C333.983 241.526 333.87 243.22 333.405 244.785C332.939 246.35 332.195 247.743 331.173 248.966C330.177 250.152 328.931 251.132 327.433 251.906C325.967 252.675 324.354 253.175 322.593 253.407C320.832 253.639 319.129 253.576 317.482 253.217C315.867 252.854 314.409 252.231 313.109 251.346C311.836 250.427 310.772 249.271 309.917 247.88C309.062 246.49 308.514 244.882 308.274 243.059ZM315.348 242.126C315.576 243.856 316.248 245.191 317.364 246.131C318.511 247.068 319.98 247.418 321.773 247.182C323.565 246.945 324.878 246.228 325.712 245.031C326.577 243.829 326.896 242.364 326.668 240.634C326.44 238.905 325.752 237.572 324.605 236.636C323.49 235.695 322.036 235.343 320.243 235.579C318.451 235.815 317.122 236.534 316.257 237.736C315.423 238.934 315.12 240.397 315.348 242.126Z" fill="#321F4A"/>
</g>
<defs>
<clipPath id="clip0">
<rect width="566" height="669" fill="white"/>
</clipPath>
</defs>
</svg>
