<svg width="565" height="588" viewBox="0 0 565 588" fill="none" xmlns="http://www.w3.org/2000/svg">
<g clip-path="url(#clip0)">
<path fill-rule="evenodd" clip-rule="evenodd" d="M407.975 494.25C426.447 514.105 427.666 543.695 428.752 569.41C429.175 573.551 428.614 578.195 430.59 581.961C431.736 583.695 428.456 585.663 426.949 584.421C424.513 583.668 414.698 587.188 416.131 582.573C420.181 564.126 416.584 545.42 415.64 526.831C416.092 519.372 409.865 505.439 409.034 521.795C404.445 513.055 399.654 506.896 401.303 521.917C400.128 517.335 395.579 513.413 391.494 517.454C390.012 521.009 393.287 525.271 393.68 529.019C398.962 546.205 402.427 563.787 401.69 581.843C401.278 584.28 403.583 584.897 403.476 582.076C404.088 566.484 402.252 550.886 397.657 535.956C396.223 530.861 394.742 525.78 393.298 520.687C391.787 517.552 396.404 516.999 397.528 518.662C400.179 521.66 399.414 527.902 403.029 529.681C405.083 526.764 402.228 519.55 403.253 515.79C405.988 519.25 407.379 523.185 408.572 527.338C408.881 528.187 408.967 529.771 410.081 529.855C412.469 527.747 410.243 520.523 411.484 516.962C414.796 524.054 413.644 532.52 414.633 540.202L414.87 542.809C416.082 556.28 417.049 569.767 414.186 583.122C414.71 587.574 398.995 584.763 395.586 585.72C388.205 586.263 380.799 585.62 373.453 586.366L373.299 586.368C371.854 586.384 371.678 586.147 371.682 584.654C371.921 579.931 371.766 575.2 371.634 570.473C371.335 568.568 372.909 567.713 373.907 566.374C377.223 561.685 380.537 556.996 383.816 552.281C388.812 544.449 384.849 543.731 378.342 547.999C388.514 532.608 380.46 533.715 369.922 543.132C388.768 505.454 345.037 541.845 351.562 583.177C351.521 584.635 352.264 587.068 350.037 586.789C347.387 586.246 333.266 588.771 333.751 585.74C333.574 571.433 331.73 557.206 330.376 542.976C330.883 531.708 325.505 510.945 322.001 535.675C319.192 526.087 314.756 516.04 312.785 533.121C310.168 523.495 300.787 519.809 304.697 533.357C307.984 550.391 308.66 568.01 308.119 585.292C308.444 589.545 299.314 586.594 296.36 587.187C294.11 586.598 287.934 588.651 288.126 585.341C286.777 575.632 286.413 565.885 286.803 556.093L286.823 555.749C287.137 549.933 287.124 534.192 280.806 547.356C278.926 535.144 272.952 550.318 271.794 554.563C271.037 549.679 270.934 544.592 269.592 539.84C264.765 535.723 261.177 558.7 262.304 562.004C263.053 569.718 263.959 577.416 264.776 585.122L264.787 585.283C264.879 586.88 264.617 587.16 262.95 587.13C245.811 585.346 240.777 592.924 245.459 572.636C246.233 565.765 245.196 558.789 243.981 552.003C241.388 540.502 244.806 528.957 246.91 517.656C248.159 510.43 253.55 504.755 260.432 502.402C269.495 499.63 277.083 508.207 283.042 513.873L283.202 514.067C284.054 515.08 284.681 515.428 285.127 513.733C287.914 505.391 294.458 498.105 302.983 495.467C313.233 492.797 318.591 505.004 321.903 512.622C326.264 503.268 331.314 497.608 342.049 495.64C355.907 492.141 365.935 502.5 369.846 514.781C371.967 511.787 372.202 507.732 373.995 504.45C379.036 491.798 397.235 483.186 407.975 494.25ZM316.505 526.166C318.13 527.655 323.046 550.106 325.204 544.442C324.174 539.251 323.89 533.899 325.213 528.72C328.182 520.271 329.036 552.221 329.642 553.978C329.391 557.872 334.659 588.812 330.334 587.276C324.171 587.195 318.019 587.49 311.863 587.637C308.627 586.557 312.798 580.666 312.057 578.278L310.671 578.562C309.787 564.094 310.25 549.468 307.196 535.2C303.427 519.801 309.992 528.794 311.987 536.985C313.342 539.381 313.34 546.287 315.841 546.916C316.92 546.367 316.444 545.373 316.314 544.563C315.77 538.534 313.948 531.892 316.505 526.166ZM268.282 542.375C269.357 544.444 270.108 569.515 272.844 565.279L272.884 564.858C273.531 557.97 273.761 550.483 278.425 544.9C279.486 546.48 277.49 566.619 280.912 560.783L280.91 560.321C280.906 554.933 281.341 549.755 284.236 544.992C286.054 554.451 284.154 565.61 285.225 575.535C284.653 577.996 288.215 587.914 284.329 587.142C281.492 586.528 265.546 588.835 266.674 585.356C265.572 571.314 260.779 555.211 268.282 542.375ZM372.825 529.836C373.143 536.178 368.292 541.814 365.419 547.204L365.229 547.488C364.817 548.115 364.383 548.903 364.952 549.513C365.872 550.062 366.81 549.031 367.509 548.504L369.41 546.836C372.265 544.338 375.144 541.871 378.194 539.612L378.704 539.238C381.998 536.781 381.224 539.872 380.013 541.918C377.645 545.785 375.179 549.596 372.575 553.308C371.233 554.683 372.99 556.092 374.161 554.661L374.57 554.323C377.688 551.725 380.526 548.985 384.342 547.36C381.1 555.75 373.618 561.907 369.904 569.649C370.047 574.13 370.009 578.615 369.997 583.099L369.993 584.394C369.974 586.458 369.757 586.6 367.667 586.661C364.373 586.757 361.08 586.883 357.787 586.971L355.81 587.02C353.809 587.063 353.675 586.922 353.667 584.867C352.503 565.297 355.718 541.762 372.825 529.836Z" fill="#EBBF5E"/>
<path fill-rule="evenodd" clip-rule="evenodd" d="M101.856 521.095C101.611 493.105 101.726 463.836 105.938 436.725C102.313 436.382 102.385 451.221 101.753 454.339C100.501 469.968 99.8711 485.622 99.9022 501.301C100.078 527.513 99.1664 553.811 101.324 579.953C101.374 581.446 101.956 583.051 99.8426 583.008C96.7116 584.044 95.6429 583.491 93.6926 580.934C74.6034 567.376 66.108 542.622 65.0038 519.956C62.7515 501.027 79.5815 495.523 81.8211 479.366C81.55 455.465 77.6703 430.879 88.1104 408.286C94.0113 395.589 116.093 364.55 130.936 380.701C136.785 391.206 127.23 403.006 125.14 413.501C123.434 418.795 130.215 420.416 133.257 423.25C157.74 441.779 145.876 460.248 131.41 480.292C128.404 485.776 125.262 492.034 127.411 498.391C130.24 507.586 129.842 517.232 130.173 526.738C129.909 547.127 122.105 570.439 105.161 582.589C102.294 583.923 103.369 577.82 102.864 576.256C101.623 557.891 102.085 539.488 102.037 521.095H101.856Z" fill="#EBBF5E"/>
<path fill-rule="evenodd" clip-rule="evenodd" d="M140.643 564.394C140.677 559.526 142.611 555.439 145.967 551.995C156.08 538.715 135.46 520.568 148.385 508.219C159.848 498.286 161.329 493.951 164.086 479.282C165.435 470.515 179.697 450.071 187.42 463.442C193.27 478.515 175.019 489.876 186.031 509.485C191.274 521.59 189.071 535.58 182.713 546.829C179.493 553.127 185.184 559.022 184.986 565.471C185.757 575.765 177.343 584.935 167.699 587.488C166.195 588.045 161.635 588.915 161.99 586.311C164.984 562.389 168.438 538.548 172.129 514.726C172.473 490.892 160.175 583.234 160.104 585.64C159.972 589.838 152.235 585.009 149.788 584.885C146.029 583.84 147.759 582.717 145.942 581.058C140.501 577.874 141.438 569.836 140.643 564.394Z" fill="#52DC82"/>
<path fill-rule="evenodd" clip-rule="evenodd" d="M296.426 363.41C301.788 369.973 299.32 379.949 304.011 387.081C312.579 403.495 317.796 375.79 323.594 370.66C329.33 362.363 334.273 381.863 335.533 385.842L335.59 386.036C335.876 387.034 335.719 387.132 334.638 387.367C326.723 387.958 321.829 393.91 319.167 400.864L319.026 401.119C316.737 405.329 314.824 411.537 308.837 410.224C302.869 409.688 300.85 404.308 298.904 399.535C295.691 391.615 289.372 388.86 287.31 399.122C286.265 402.797 287.157 412.087 281.249 410.586C271.808 410.156 274.328 386.589 263.799 395.136C260.95 398.744 261.009 403.55 260.001 407.85L259.954 408.045C256.343 423.759 248.415 414.713 241.808 406.891C232.036 395.026 228.34 406.308 226.196 398.696C225.345 394.537 221.807 390.16 223.175 385.94C226.444 379.003 233.909 373.296 237.184 383.67C242.53 393.964 256.103 401.649 254.124 383.505L253.698 383.482C253.977 380.351 254.027 377.179 254.598 374.102C255.219 369.534 261.468 362.508 265.803 367.366C271.62 372.057 270.634 397.153 281.98 389.74C287.584 385.319 287.322 356.101 296.426 363.41ZM283.598 346.38C298.213 349.734 312.107 356.48 323.649 366.072L323.817 366.207C324.639 366.877 324.582 366.988 323.706 367.773C321.208 370.011 319.588 372.855 318.088 375.779C311.075 389.707 308.538 399.138 302.6 377.46C301.476 372.752 301.711 367.436 298.686 363.41C296.465 359.903 290.816 359.4 288.81 363.461C285.562 367.454 284.056 394.304 276.562 388.433C271.229 382.068 272.73 372.024 266.701 365.992L266.516 365.81C261.64 360.885 254.527 367.13 253.075 372.29C249.527 377.21 256.585 399.129 245.58 391.059C238.745 387.636 237.718 373.308 229.703 376.603C225.93 378.027 223.854 380.976 221.668 384.273C218.493 365.783 238.678 358.25 253.052 354.148C263.77 349.897 270.853 342.85 283.598 346.38Z" fill="#60D6E1"/>
<path fill-rule="evenodd" clip-rule="evenodd" d="M528.342 515.915L528.258 516.778C527.493 524.771 527.019 532.809 524.202 540.473C520.785 549.773 514.269 555.532 504.714 557.917L504.109 558.066C502.676 558.423 502.553 558.6 502.579 560.237C503.055 564.878 502.6 569.525 502.484 574.181L502.476 574.599C502.447 576.892 502.744 576.957 505.279 576.579C509.116 575.832 512.692 577.739 516.526 577.318C519.209 577.286 522.451 576.574 524.861 577.988C527.324 580.32 523.864 582.511 521.472 582.167C515.587 581.47 510.599 585.266 504.77 584.968C497.069 583.514 489.565 586.846 481.849 586.366C475.711 586.335 476.056 580.522 481.93 580.294C487.188 579.542 494.569 580.424 498.408 576.66C497.715 574.09 499.749 557.772 496.488 559.139L494.522 559.174C463.224 559.723 471.709 559.12 470.113 534.988L469.878 532.988C468.139 518.057 469.987 528.273 488.409 525.424C501.475 523.926 513.932 520.278 525.911 514.944L526.582 514.644C528.257 513.911 528.516 514.078 528.342 515.915ZM527.988 480.672C528.371 487.804 528.649 494.942 528.957 502.078L528.844 502.083C528.181 505.441 530.587 510.64 526.818 512.464C516.119 517.492 504.732 520.955 493.099 522.992L492.295 523.131C487.786 523.879 469.393 525.554 469.081 520.688C468.796 515.196 468.512 509.706 468.226 504.215C468.592 502.17 466.403 497.201 469.613 497.276C489.285 497.749 509.465 491.575 525.763 480.581L526.036 480.374C526.841 479.775 528.012 479.042 527.988 480.672ZM526.62 462.472C526.241 466.779 529.657 475.209 526.251 478.035C511.196 488.813 492.566 494.448 474.19 495.583L474.178 495.394C472.184 495.088 467.883 496.583 468.152 493.381C468.254 487.895 468.389 482.409 468.544 476.924C468.858 475.628 468.165 472.586 470.105 472.649C488.479 474.022 506.611 466.879 522.493 458.218C527.336 454.325 525.827 458.976 526.62 462.472Z" fill="#F55B80"/>
<path fill-rule="evenodd" clip-rule="evenodd" d="M331.128 426.773C312.342 448.218 274.731 446.407 253.447 430.675C279.26 428.568 305.307 427.796 331.128 426.773ZM335.215 418.21C337.748 418.55 333.536 422.851 333.177 424.167C326.103 425.682 318.197 424.921 310.867 425.602C296.803 425.917 282.802 427.272 268.747 427.708C263.111 428.173 257.352 427.865 251.838 429.215C248.951 429.348 246.988 426.629 244.578 424.75C274.712 422.159 305.029 420.72 335.215 418.21ZM334.826 389.156C338.664 389.289 336.903 406.3 337.856 410.437C337.382 411.577 338.357 416.442 335.579 416.195C329.484 416.588 323.385 416.934 317.294 417.394C298.484 419.135 279.642 420.459 260.779 421.49C256.19 421.765 251.6 422.017 247.011 422.307C244.905 422.243 242.492 423.845 241.131 421.581C236.611 416.693 233.073 411.074 229.519 405.462C227.565 403.048 231.432 402.697 233.073 402.986C239.768 404.932 242.852 412.502 248.297 416.512C257.627 424.709 262.173 410.003 262.744 402.592C263.153 399.666 265.967 391.975 269.398 396.511C272.271 402.429 272.951 410.788 280.519 412.477L280.751 412.526C289.411 414.479 287.6 402.001 289.839 396.897C293.703 388.081 298.004 404.673 300.319 407.344C302.931 411.306 307.939 413.084 312.439 411.948C318.459 409.858 319.76 401.989 322.865 397.017C325.374 392.141 329.565 389.822 334.826 389.156Z" fill="#7DB4DB"/>
<path fill-rule="evenodd" clip-rule="evenodd" d="M524.177 427.997C524.15 433.557 524.352 438.528 524.579 443.996C524.14 447.844 527.295 453.086 523.21 455.625C511.195 462.861 497.776 467.934 483.95 470.326C481.021 470.465 468.69 473.432 469.066 468.989C469.543 462.992 470.124 457.002 470.588 451.003L470.611 450.878C470.899 449.171 470.348 446.736 472.688 446.682C490.809 443.243 508.164 437.154 524.177 427.997ZM523.799 402.001C524.396 430.352 528.758 425.298 501.651 436.809C492.34 440.25 482.805 442.91 473.095 444.963L472.791 445.018C471.16 445.302 471.087 445.099 471.267 443.304C471.685 438.352 471.995 433.389 472.346 428.431L472.502 426.268C472.606 424.942 472.759 424.859 474.319 424.487L475.367 424.204C492.508 419.583 511.07 415.085 523.799 402.001ZM523.466 390.787C527.933 409.664 486.566 419.391 472.736 422.492C472.749 379.094 470.706 411.302 521.509 383.132C524.91 380.848 522.848 389.061 523.466 390.787ZM521.481 361.02C522.912 366.781 522.768 372.202 523.19 377.956C522.299 383.511 509.36 386.936 504.538 389.291C494.984 392.787 485.103 395.052 474.988 396.141L474.647 396.169C473.456 396.259 473.447 396.119 473.423 394.628C473.424 391.047 473.374 387.466 473.35 383.885L473.339 381.487C473.342 379.848 473.463 379.854 475.243 379.298C490.984 374.042 507.754 370.85 521.481 361.02ZM517.251 345.572C517.543 349.14 522 357.36 519.856 359.862C506.817 369.41 490.606 372.517 475.504 377.421L474.967 377.581C473.046 378.144 473.074 377.919 472.834 375.614L472.479 372.82C471.851 367.851 471.255 362.878 470.902 357.879C470.686 351.589 474.31 344.682 479.526 341.434C483.247 340.771 487.037 341.02 490.71 339.998C498.827 339.599 513.53 335.98 517.251 345.572Z" fill="#7DB4DB"/>
<path fill-rule="evenodd" clip-rule="evenodd" d="M48.9675 564.756C48.5742 559.058 53.7374 554.881 48.9451 550.104C46.0129 546.23 43.4644 541.827 44.0974 536.747C44.2621 533.455 47.4768 527.691 51.1778 530.361C56.6695 535.472 59.6341 542.786 62.2502 549.72C65.508 557.506 70.693 564.387 73.6683 572.335C75.7151 576.127 74.3532 581.987 69.3175 581.666C68.6571 581.546 68.4638 580.808 68.2472 580.256C66.2328 573.762 62.2024 568.19 59.8565 561.906C59.5265 560.615 57.2037 556.628 56.3436 559.578C59.0839 566.799 64.0972 573.185 66.3722 580.73C66.576 581.385 66.4696 581.837 65.6398 581.864C54.8733 584.437 48.9171 574.582 48.9675 564.756Z" fill="#7DB4DB"/>
<path fill-rule="evenodd" clip-rule="evenodd" d="M428.844 209.927H257.363C255.183 209.927 253.415 208.16 253.415 205.98V84.9476C253.415 82.7676 255.183 81 257.363 81H428.844C431.025 81 432.792 82.7676 432.792 84.9476V205.98C432.792 208.16 431.025 209.927 428.844 209.927Z" fill="#090E2B"/>
<path fill-rule="evenodd" clip-rule="evenodd" d="M419.034 201.287H247.554C245.373 201.287 243.605 199.52 243.605 197.34V76.307C243.605 74.1269 245.373 72.3594 247.554 72.3594H419.034C421.215 72.3594 422.983 74.1269 422.983 76.307V197.34C422.983 199.52 421.215 201.287 419.034 201.287Z" fill="#9B51E0" stroke="#090E2B" stroke-width="1.84729"/>
<path d="M384.795 151.305H265.444C263.832 151.305 262.524 152.612 262.524 154.224C262.524 155.837 263.832 157.144 265.444 157.144H384.795C386.408 157.144 387.715 155.837 387.715 154.224C387.715 152.612 386.408 151.305 384.795 151.305Z" fill="white"/>
<path d="M352.33 170.691H265.677C264.065 170.691 262.758 171.999 262.758 173.611C262.758 175.223 264.065 176.531 265.677 176.531H352.33C353.942 176.531 355.249 175.223 355.249 173.611C355.249 171.999 353.942 170.691 352.33 170.691Z" fill="white" fill-opacity="0.6"/>
<path d="M264.627 136.824C291.876 128.545 304.649 118.288 302.947 106.054C300.393 87.7033 280.402 94.4935 283.705 113.204C287.007 131.914 307.958 138.033 321.693 126.833C335.428 115.634 335.428 126.833 342.623 116.041C349.817 105.248 349.055 136.946 361.444 126.833C373.832 116.721 371.503 116.235 393.554 125.825" stroke="white" stroke-width="2.46305" stroke-linecap="round" stroke-linejoin="round"/>
<path fill-rule="evenodd" clip-rule="evenodd" d="M497.581 260.489H263.135C260.154 260.489 257.737 258.072 257.737 255.091V89.5629C257.737 86.5815 260.154 84.1641 263.135 84.1641H497.581C500.562 84.1641 502.979 86.5815 502.979 89.5629V255.091C502.979 258.072 500.562 260.489 497.581 260.489Z" fill="#090E2B"/>
<path fill-rule="evenodd" clip-rule="evenodd" d="M487.655 252.196H253.21C250.228 252.196 247.812 249.779 247.812 246.798V81.2699C247.812 78.2885 250.228 75.8711 253.21 75.8711H487.655C490.636 75.8711 493.053 78.2885 493.053 81.2699V246.798C493.053 249.779 490.636 252.196 487.655 252.196Z" fill="white" stroke="#090E2B" stroke-width="1.84729"/>
<path fill-rule="evenodd" clip-rule="evenodd" d="M391.261 162.069H293.306C284.626 162.069 277.591 155.034 277.591 146.354C277.591 137.676 284.626 130.641 293.306 130.641H391.261C399.94 130.641 406.976 137.676 406.976 146.354C406.976 155.034 399.94 162.069 391.261 162.069Z" fill="#9B51E0"/>
<path fill-rule="evenodd" clip-rule="evenodd" d="M446.663 161.64C437.985 161.64 430.948 154.604 430.948 145.925C430.948 137.247 437.985 130.211 446.663 130.211C455.342 130.211 462.378 137.247 462.378 145.925C462.378 154.604 455.342 161.64 446.663 161.64Z" fill="#C7D2F2"/>
<path d="M478.197 88.0071C478.607 87.5966 479.273 87.5966 479.683 88.0071C480.081 88.4047 480.093 89.0417 479.72 89.4542L479.683 89.4935L469.873 99.3031C469.463 99.7136 468.797 99.7136 468.387 99.3031C467.989 98.9055 467.977 98.2686 468.35 97.856L468.387 97.8168L478.197 88.0071Z" fill="black"/>
<path d="M468.387 88.0071C468.785 87.6094 469.422 87.597 469.834 87.9698L469.873 88.0071L479.683 97.8168C480.093 98.2272 480.093 98.8927 479.683 99.3031C479.285 99.7008 478.648 99.7132 478.236 99.3404L478.197 99.3031L468.387 89.4935C467.976 89.083 467.976 88.4175 468.387 88.0071Z" fill="black"/>
<path d="M416.97 182.027C419.292 182.027 421.174 183.91 421.174 186.231C421.174 188.528 419.333 190.394 417.047 190.435L416.97 190.436H281.795C279.473 190.436 277.591 188.553 277.591 186.231C277.591 183.935 279.431 182.069 281.718 182.028L281.795 182.027H416.97Z" fill="#C7D2F2"/>
<path d="M359 207.016C361.322 207.016 363.204 208.898 363.204 211.22C363.204 213.516 361.364 215.382 359.077 215.423L359 215.424H281.795C279.473 215.424 277.591 213.542 277.591 211.22C277.591 208.924 279.431 207.058 281.718 207.016L281.795 207.016H359Z" fill="#C7D2F2"/>
<path fill-rule="evenodd" clip-rule="evenodd" d="M199.906 279.526L200.329 285.032L201.215 296.578L203.625 328.338C204.292 336.84 204.928 345.33 205.519 353.824C205.663 356.278 205.805 358.716 205.949 361.169C205.99 361.868 206.031 362.566 206.072 363.265C206.274 366.445 206.463 369.641 206.636 372.824C206.7 373.895 206.763 374.965 206.812 376.037C206.879 377.137 206.93 378.238 206.982 379.34C206.984 379.354 206.97 379.371 206.956 379.372C206.926 379.375 206.91 379.362 206.908 379.347C206.796 378.237 206.698 377.125 206.615 376.012C206.528 375.004 206.427 374.012 206.355 373.002C206.208 371.402 206.074 369.785 205.94 368.169C205.806 366.552 205.672 364.936 205.539 363.319C205.483 362.622 205.427 361.925 205.372 361.227C205.182 358.764 204.979 356.317 204.776 353.87C204.155 345.378 203.578 336.882 203.031 328.383L200.956 296.828L200.16 284.69L200.156 284.646L199.814 279.506L199.676 277.396C199.673 277.367 199.701 277.349 199.715 277.347C199.73 277.346 199.747 277.359 199.75 277.389L199.906 279.526ZM196.269 289.975C196.233 288.737 196.243 287.51 196.372 286.27C196.607 283.869 197.22 281.503 198.131 279.273C198.178 279.148 198.24 279.022 198.287 278.898C198.373 278.71 198.494 278.578 198.636 278.504C199.102 278.232 199.758 278.509 199.469 279.197C199.434 279.29 199.397 279.369 199.361 279.462C199.168 279.915 198.991 280.382 198.829 280.847C198.168 282.738 197.754 284.71 197.6 286.729C197.406 289.097 197.931 291.616 196.992 293.865C196.655 294.677 195.438 294.471 195.81 293.566C196.293 292.425 196.288 291.199 196.269 289.975ZM195.342 295.587L194.823 296.223C194.771 296.303 194.705 296.385 194.62 296.438C194.566 296.488 194.481 296.542 194.394 296.566C194.308 296.604 194.234 296.612 194.142 296.591C194.068 296.599 193.99 296.562 193.926 296.523C193.877 296.483 193.843 296.442 193.796 296.417C193.741 296.318 193.701 296.217 193.689 296.099C193.683 296.04 193.693 295.994 193.687 295.934C193.703 295.798 193.75 295.674 193.83 295.576C194.002 295.349 194.175 295.137 194.348 294.925C194.399 294.845 194.467 294.779 194.552 294.725C194.62 294.658 194.689 294.607 194.776 294.583C194.864 294.559 194.953 294.55 195.028 294.557C195.118 294.563 195.181 294.587 195.261 294.638L195.376 294.746C195.445 294.829 195.485 294.93 195.497 295.048C195.488 295.109 195.494 295.168 195.485 295.229C195.467 295.35 195.42 295.475 195.342 295.587ZM188.298 291.455C187.972 292.67 187.553 293.849 187.041 294.992C186.944 295.212 186.846 295.431 186.747 295.635C186.244 296.718 185.647 297.766 184.987 298.775C183.692 300.761 182.088 302.493 180.417 304.158C180.187 304.391 179.941 304.625 179.71 304.858C178.42 306.14 177.132 307.452 176.068 308.906C175.567 309.57 175.114 310.274 174.741 311.014C174.692 311.124 174.608 311.327 174.509 311.532C174.39 311.828 174.273 312.154 174.201 312.325C174.189 312.357 174.179 312.402 174.165 312.419C173.937 313.115 173.724 313.824 173.517 314.578C173.506 314.624 173.496 314.67 173.486 314.716C173.358 315.372 173.246 316.041 173.031 316.721C172.988 316.89 172.914 317.047 172.84 317.204C172.842 317.219 172.843 317.234 172.829 317.235C172.77 317.391 172.696 317.548 172.606 317.692C172.455 317.976 172.29 318.262 172.155 318.56C171.036 320.946 170.326 323.531 169.553 326.092C169.189 327.37 168.81 328.649 168.402 329.932C167.945 331.175 167.937 332.432 168.157 333.711C168.547 335.795 169.554 337.757 170.172 339.878C170.325 340.356 170.436 340.853 170.531 341.352C171.301 343.786 172.044 346.253 172.772 348.707L173.249 350.319C173.25 350.334 173.237 350.35 173.224 350.366C173.194 350.369 173.178 350.356 173.176 350.341C172.187 347.66 171.239 344.944 170.322 342.24C170.236 341.98 170.151 341.734 170.065 341.474L170.047 341.446C169.531 338.866 168.057 336.562 167.452 333.842C167.153 332.511 167.225 331.009 167.707 329.718C168.102 328.452 168.48 327.158 168.844 325.879C169.616 323.318 170.386 320.728 171.573 318.275C171.722 317.975 171.901 317.673 172.065 317.372C172.217 317.103 172.338 316.821 172.443 316.527C172.651 315.922 172.764 315.268 172.907 314.61C173.049 313.953 173.22 313.277 173.455 312.64C173.673 311.99 173.954 311.363 174.267 310.763C174.618 310.1 175.017 309.461 175.465 308.862C175.635 308.621 175.835 308.376 176.021 308.148L176.019 308.133C177.055 306.847 178.24 305.695 179.41 304.544C179.886 304.077 180.362 303.61 180.838 303.143C182.25 301.729 183.597 300.262 184.699 298.595C185.246 297.792 185.759 296.947 186.209 296.079C186.333 295.827 186.459 295.59 186.583 295.338C187.201 294.064 187.712 292.756 188.098 291.401C188.219 290.97 188.338 290.524 188.443 290.08C189.004 287.944 189.394 285.736 189.2 283.527C189.197 283.498 189.21 283.481 189.225 283.48C189.254 283.477 189.271 283.49 189.274 283.52C189.49 285.801 189.123 288.082 188.585 290.305C188.504 290.687 188.394 291.072 188.298 291.455ZM183.233 368.42C182.239 367.758 181.037 366.669 179.812 365.94C179.253 365.593 178.674 365.338 178.124 365.229C178.273 365.513 178.436 365.796 178.627 366.06C179.344 367.08 180.325 368.057 181.034 369.002C182.452 370.892 183.917 372.808 184.927 374.949C185.378 375.86 184.396 376.797 183.525 376.317C181.294 375.107 178.324 371.924 176.368 370.327C177.687 372.871 183.26 377.391 181.595 380.147C180.92 381.307 175.658 375.424 172.174 372.337C173.699 375.727 176.868 382.794 175.21 383.261C173.681 383.371 170.252 378.754 168.594 375.228C168.04 374.042 164.854 371.823 163.019 371.126C162.677 370.996 161.941 369.785 161.026 367.844C160.952 367.701 160.891 367.543 160.815 367.386C165.326 365.853 176.081 360.261 176.276 359.24C177.354 359.983 178.742 360.695 180.551 361.723C182.169 362.636 183.804 364.011 185.111 365.404C185.246 365.554 185.38 365.69 185.515 365.841C186.478 366.94 189.057 369.221 187.479 370.323C186.487 371.007 183.955 368.901 183.233 368.42ZM156.565 362.926C156.55 362.928 156.519 362.916 156.517 362.901C156.495 362.829 156.471 362.742 156.449 362.669C155.768 360.525 155.219 358.352 154.612 356.2C153.996 353.959 153.379 351.704 152.72 349.482C152.415 348.391 151.931 347.304 151.524 346.238C151.089 345.191 150.425 344.241 149.856 343.207C149.546 342.655 149.292 342.068 149.097 341.474L149.096 341.459C148.909 340.94 148.764 340.401 148.623 339.892C148.436 339.373 148.291 338.684 148.323 338.113C148.355 337.541 148.225 337.001 148.091 336.417C148.09 336.402 148.103 336.385 148.118 336.384C148.131 336.368 148.162 336.379 148.164 336.394C148.425 336.906 148.722 337.474 148.782 338.066C148.888 338.669 149.008 339.12 149.259 339.678C149.359 339.922 149.457 340.152 149.527 340.399L149.528 340.414C149.852 341.248 150.102 342.09 150.467 342.891C150.945 343.919 151.571 344.933 151.97 346.059C152.352 347.172 152.73 348.255 153.055 349.389C153.671 351.629 154.229 353.891 154.815 356.135C155.403 358.393 155.931 360.658 156.59 362.879C156.59 362.879 156.591 362.894 156.578 362.91L156.565 362.926ZM187.141 262.469L182.704 262.665C182.658 262.654 182.612 262.644 182.553 262.65C182.476 262.628 182.401 262.621 182.312 262.63C182.296 262.616 182.281 262.618 182.253 262.636C181.85 262.646 181.452 262.702 181.07 262.77C180.996 262.778 180.922 262.785 180.849 262.808C180.217 262.917 179.591 263.085 178.999 263.294C178.696 263.4 178.409 263.518 178.122 263.637C171.147 265.645 165.264 267.512 158.466 278.206C143.362 278.36 135.314 284.545 133.945 280.331C132.536 276.017 145.489 267.033 161.725 262.696C171.554 260.07 177.931 259.095 182.212 259.574C182.271 259.568 182.453 259.594 182.514 259.603L182.438 258.414C182.378 258.405 182.197 258.394 182.138 258.4C174.681 258.168 166.337 259.357 157.897 262.112C143.709 266.735 132.377 274.747 126.373 283.387C122.183 289.419 133.434 294.187 135.283 299.892C137.323 306.146 140.557 310.903 145.696 313.508C145.092 317.293 144.783 320.884 144.857 323.972C144.965 327.85 145.999 331.26 148.017 336.424C145.712 342.012 143.23 349.113 138.398 357.798C133.566 366.483 140.893 375.491 144.71 376.705C146.301 377.202 147.589 378.402 149.183 378.929C149.987 379.191 150.806 379.452 151.622 379.684C160.473 382.317 169.909 383.484 179.388 383.75C179.585 383.775 179.778 383.771 179.987 383.764C183.782 383.874 187.591 383.832 191.361 383.689C197.097 383.482 202.764 383.027 208.242 382.472L207.794 376.132L207.542 372.314L206.901 363.181L206.748 361.088L202.189 295.567L201.587 286.819L201.098 279.63L201.044 278.948L199.077 262.038C198.615 262.005 194.636 262.149 187.141 262.469Z" fill="#9B51E0"/>
<path fill-rule="evenodd" clip-rule="evenodd" d="M182.514 259.605L182.595 262.618C182.535 262.624 182.46 262.616 182.401 262.622L182.312 262.631C182.296 262.618 182.281 262.62 182.253 262.637C181.85 262.648 181.452 262.704 181.07 262.772C180.996 262.78 180.922 262.787 180.849 262.81C180.217 262.918 179.591 263.087 178.999 263.296C178.696 263.402 178.409 263.52 178.122 263.639C171.147 265.647 165.264 267.514 158.466 278.208C143.362 278.362 135.314 284.547 133.945 280.333C132.536 276.019 145.489 267.035 161.725 262.698C171.554 260.072 177.931 259.097 182.212 259.576C182.271 259.57 182.453 259.596 182.514 259.605Z" fill="#9B51E0"/>
<path fill-rule="evenodd" clip-rule="evenodd" d="M189.274 283.519C189.49 285.801 189.123 288.081 188.585 290.304L188.443 290.079C189.004 287.944 189.394 285.736 189.2 283.527C189.197 283.497 189.21 283.481 189.225 283.48C189.255 283.477 189.271 283.49 189.274 283.519Z" fill="#9B51E0"/>
<path fill-rule="evenodd" clip-rule="evenodd" d="M195.497 295.047C195.488 295.108 195.494 295.167 195.485 295.228C195.468 295.349 195.42 295.474 195.342 295.586L194.823 296.222C194.772 296.302 194.705 296.384 194.621 296.437C194.566 296.488 194.482 296.541 194.394 296.565C194.308 296.603 194.234 296.611 194.143 296.59C194.069 296.598 193.99 296.561 193.926 296.523C193.877 296.483 193.843 296.441 193.796 296.416C193.741 296.317 193.701 296.216 193.689 296.098C193.683 296.039 193.693 295.993 193.687 295.934C193.703 295.797 193.751 295.673 193.83 295.575C194.002 295.348 194.175 295.136 194.348 294.925C194.399 294.844 194.468 294.778 194.552 294.724C194.62 294.658 194.689 294.606 194.777 294.582C194.864 294.558 194.953 294.549 195.028 294.556C195.119 294.562 195.181 294.586 195.261 294.638L195.377 294.746C195.445 294.828 195.485 294.929 195.497 295.047Z" fill="#9B51E0"/>
<path fill-rule="evenodd" clip-rule="evenodd" d="M199.75 277.39L199.906 279.527L200.33 285.033L201.215 296.579C201.134 296.662 201.052 296.745 200.956 296.829L200.16 284.691L200.156 284.647L199.815 279.507L199.676 277.397C199.673 277.368 199.701 277.35 199.716 277.348C199.73 277.347 199.747 277.36 199.75 277.39Z" fill="#9B51E0"/>
<path fill-rule="evenodd" clip-rule="evenodd" d="M182.514 259.605L182.704 262.667C182.658 262.656 182.613 262.646 182.553 262.652C182.491 262.628 182.43 262.619 182.401 262.622L182.312 262.631C182.296 262.618 182.281 262.62 182.253 262.637C181.85 262.648 181.452 262.704 181.07 262.772C180.996 262.78 180.922 262.787 180.849 262.81C180.217 262.918 179.591 263.087 178.999 263.296C178.696 263.402 178.409 263.52 178.122 263.639C171.147 265.647 165.264 267.514 158.466 278.208C143.362 278.362 135.314 284.547 133.945 280.333C132.536 276.019 145.489 267.035 161.725 262.698C171.554 260.072 177.931 259.097 182.212 259.576C182.271 259.57 182.453 259.596 182.514 259.605Z" fill="#F2E14A"/>
<path fill-rule="evenodd" clip-rule="evenodd" d="M316.462 287.145C316.462 287.145 316.464 287.159 316.449 287.161L316.433 287.148C316.403 287.151 316.387 287.137 316.4 287.121C316.347 286.887 316.293 286.653 316.225 286.421C316.034 285.722 315.786 285.045 315.482 284.403C315.289 283.973 315.068 283.562 314.818 283.169C314.569 282.775 314.29 282.385 314 282.025C313.432 281.29 312.711 280.675 312.05 280.054C311.884 279.892 311.718 279.729 311.537 279.568C311.356 279.407 311.177 279.26 310.998 279.114C310.638 278.806 310.263 278.5 309.886 278.18C309.87 278.166 309.883 278.15 309.895 278.119C309.908 278.103 309.923 278.101 309.925 278.116C310.93 278.298 311.816 278.777 312.637 279.352C313.431 279.959 314.051 280.764 314.6 281.605C315.693 283.244 316.352 285.167 316.474 287.114C316.476 287.128 316.462 287.145 316.462 287.145ZM334.069 276.702C333.228 275.785 327.71 278.886 322.937 281.823C325.743 277.186 329.626 270.347 329.242 268.472C329.224 268.294 329.153 268.182 329.039 268.089C328.281 267.552 326.02 269.292 323.496 271.686C322.091 273.025 320.59 274.598 319.197 276.055C319.116 275.988 319.033 275.907 318.922 275.844C320.81 271.898 323.302 266.232 323.933 263.162C324.151 262.063 324.104 261.305 323.722 261.075C323.485 260.949 323.133 261.015 322.723 261.251C320.431 262.545 315.787 268.668 312.862 272.719C313.138 271.016 313.374 269.212 313.551 267.564C313.957 263.739 314.013 260.458 313.089 260.193C311.602 259.685 308.199 269.796 306.087 275.514L306.073 275.53C306.016 275.7 305.943 275.872 305.886 276.042C305.872 275.909 305.859 275.776 305.831 275.644C305.152 271.017 302.693 266.525 301.361 266.66C298.507 266.979 298.907 273.878 299.571 279.105C299.883 278.789 300.42 278.182 300.745 278.149C301.989 278.023 318.638 290.753 318.806 292.411C321.789 290.269 335.829 278.722 334.069 276.702ZM310.259 299.423C310.273 299.422 310.288 299.42 310.301 299.404C310.412 299.318 310.509 299.234 310.619 299.148C310.495 299.25 310.384 299.336 310.259 299.423ZM219.705 296.334L215.19 283.66L215.083 283.776L215.069 283.792L219.343 296.161L221.189 301.537L221.205 301.551C221.367 301.669 221.512 301.774 221.687 301.876L219.705 296.334ZM244.053 311.993C243.736 311.816 243.404 311.64 243.089 311.478C241.582 308.714 239.978 306.02 238.3 303.333L232.636 294.067L232.618 294.038L232.563 293.939L232.548 293.941C232.533 293.942 232.535 293.957 232.535 293.957L238.048 303.494C239.555 306.123 241.107 308.747 242.772 311.3C242.862 311.456 242.953 311.611 243.056 311.75C243.119 311.774 243.181 311.797 243.256 311.805C243.52 311.897 243.796 311.959 244.073 312.036C244.105 312.063 244.151 312.073 244.179 312.055C244.147 312.028 244.099 312.003 244.053 311.993ZM226.741 285.631L226.759 285.659C226.87 285.872 226.98 286.07 227.09 286.268C227.149 285.963 227.06 285.673 226.741 285.631ZM229.833 286.185C229.746 286.059 229.572 285.972 229.41 285.988L228.447 286.086C228.062 286.125 227.782 286.453 227.714 286.818C227.685 286.971 227.72 287.177 227.823 287.301C227.91 287.427 228.098 287.512 228.246 287.497L229.209 287.4C229.593 287.361 229.889 287.032 229.955 286.651C229.97 286.5 229.936 286.309 229.833 286.185Z" fill="#C79C89"/>
<path fill-rule="evenodd" clip-rule="evenodd" d="M316.477 287.112C316.473 287.138 316.468 287.162 316.442 287.157C316.402 287.161 316.391 287.148 316.396 287.122C316.01 285.242 315.181 283.483 314.006 282.022C313.431 281.293 312.715 280.681 312.055 280.054C311.389 279.387 310.65 278.835 309.887 278.187C309.877 278.173 309.883 278.147 309.888 278.123C309.902 278.112 309.917 278.102 309.928 278.117C310.925 278.3 311.81 278.777 312.638 279.359C313.433 279.961 314.059 280.765 314.599 281.603C315.7 283.245 316.352 285.165 316.477 287.112Z" fill="#C79C89"/>
<path fill-rule="evenodd" clip-rule="evenodd" d="M315.796 294.888C315.416 295.271 314.653 296.006 313.661 296.839C313.591 296.891 313.537 296.942 313.467 296.994C313.455 297.025 313.427 297.043 313.412 297.044C312.682 297.656 311.865 298.307 310.995 298.874C311.12 298.772 311.245 298.684 311.37 298.582C311.411 298.548 311.467 298.512 311.509 298.478C311.994 298.1 312.464 297.723 312.933 297.332C313.21 297.109 313.486 296.887 313.746 296.651C314.45 296.071 315.123 295.48 315.796 294.888Z" fill="#C79C89"/>
<path fill-rule="evenodd" clip-rule="evenodd" d="M305.879 276.045C305.88 275.915 305.854 275.778 305.828 275.643L305.854 275.646C305.919 275.582 305.988 275.557 306.074 275.521C306.014 275.692 305.94 275.874 305.879 276.045Z" fill="#C79C89"/>
<path fill-rule="evenodd" clip-rule="evenodd" d="M316.443 287.157C316.403 287.161 316.392 287.148 316.397 287.123C316.011 285.242 315.182 283.483 314.007 282.022C313.432 281.293 312.716 280.681 312.056 280.055C311.39 279.387 310.649 278.835 309.888 278.189C309.878 278.173 309.884 278.147 309.888 278.123C309.903 278.112 309.918 278.102 309.929 278.117C310.926 278.302 311.811 278.777 312.638 279.359C313.434 279.961 314.059 280.765 314.6 281.603C315.701 283.245 316.353 285.165 316.478 287.112C316.474 287.138 316.469 287.162 316.443 287.157Z" fill="black"/>
<path fill-rule="evenodd" clip-rule="evenodd" d="M229.956 286.654C229.889 287.034 229.594 287.363 229.209 287.402L228.247 287.5C228.099 287.515 227.91 287.429 227.823 287.303C227.721 287.179 227.685 286.973 227.714 286.821C227.782 286.455 228.063 286.127 228.448 286.088L229.41 285.991C229.573 285.974 229.746 286.062 229.834 286.187C229.936 286.312 229.97 286.502 229.956 286.654Z" fill="#9B51E0"/>
<path fill-rule="evenodd" clip-rule="evenodd" d="M199.749 277.386L199.906 279.524L200.329 285.03C200.273 284.916 200.201 284.803 200.16 284.688L200.155 284.644L199.814 279.504L199.675 277.394C199.672 277.364 199.7 277.347 199.715 277.345C199.73 277.344 199.746 277.357 199.749 277.386Z" fill="#9B51E0"/>
<path fill-rule="evenodd" clip-rule="evenodd" d="M219.705 296.336C219.579 296.274 219.453 296.212 219.344 296.164L215.07 283.795L212.421 276.107C212.42 276.092 212.433 276.076 212.447 276.06C212.476 276.057 212.493 276.07 212.494 276.085L215.191 283.663L219.705 296.336Z" fill="#9B51E0"/>
<path fill-rule="evenodd" clip-rule="evenodd" d="M227.09 286.267C226.98 286.068 226.87 285.87 226.759 285.657L226.741 285.629C227.06 285.671 227.149 285.962 227.09 286.267Z" fill="#9B51E0"/>
<path fill-rule="evenodd" clip-rule="evenodd" d="M243.089 311.48C242.978 311.417 242.883 311.367 242.772 311.303C241.108 308.75 239.556 306.126 238.048 303.497L232.536 293.96C232.536 293.96 232.534 293.945 232.549 293.944L232.564 293.942L232.619 294.041L232.636 294.07L238.301 303.336C239.979 306.023 241.583 308.717 243.089 311.48Z" fill="#9B51E0"/>
<path fill-rule="evenodd" clip-rule="evenodd" d="M318.806 292.414C318.81 292.458 318.813 292.488 318.787 292.52C318.139 293.364 315.925 295.128 313.661 296.838C313.591 296.89 313.536 296.941 313.467 296.993C313.455 297.024 313.427 297.041 313.412 297.043C312.76 297.543 312.121 298.026 311.508 298.477C311.994 298.099 312.464 297.722 312.933 297.331C313.209 297.108 313.486 296.886 313.746 296.65C314.45 296.07 315.123 295.479 315.796 294.887C315.836 294.838 315.891 294.788 315.932 294.754C316.015 294.685 316.055 294.637 316.055 294.637C317.215 293.981 318.002 292.899 318.414 292.678C318.513 292.623 318.638 292.535 318.806 292.414Z" fill="#9B51E0"/>
<path fill-rule="evenodd" clip-rule="evenodd" d="M189.274 283.519C189.49 285.801 189.123 288.081 188.585 290.304L188.443 290.079C189.004 287.944 189.394 285.736 189.2 283.527C189.197 283.497 189.21 283.481 189.225 283.48C189.255 283.477 189.271 283.49 189.274 283.519Z" fill="white"/>
<path fill-rule="evenodd" clip-rule="evenodd" d="M195.497 295.047C195.488 295.108 195.494 295.167 195.485 295.228C195.468 295.349 195.42 295.474 195.342 295.586L194.823 296.222C194.772 296.302 194.705 296.384 194.621 296.437C194.566 296.488 194.482 296.541 194.394 296.565C194.308 296.603 194.234 296.611 194.143 296.59C194.069 296.598 193.99 296.561 193.926 296.523C193.877 296.483 193.843 296.441 193.796 296.416C193.741 296.317 193.701 296.216 193.689 296.098C193.683 296.039 193.693 295.993 193.687 295.934C193.703 295.797 193.751 295.673 193.83 295.575C194.002 295.348 194.175 295.136 194.348 294.925C194.399 294.844 194.468 294.778 194.552 294.724C194.62 294.658 194.689 294.606 194.777 294.582C194.864 294.558 194.953 294.549 195.028 294.556C195.119 294.562 195.181 294.586 195.261 294.638L195.377 294.746C195.445 294.828 195.485 294.929 195.497 295.047Z" fill="white"/>
<path fill-rule="evenodd" clip-rule="evenodd" d="M242.635 368.995C239.813 371.106 232.868 375.189 220.497 376.188C216.774 376.491 212.544 376.515 207.794 376.129L207.542 372.311L206.9 363.179L206.748 361.085L202.189 295.564L201.587 286.816L201.098 279.627L201.044 278.945L200.889 276.822C202.743 276.963 204.46 276.939 205.887 276.704C207.61 276.44 209.082 275.768 209.808 274.812L210.118 275.513L210.349 276.163L210.408 276.306L210.411 276.336L210.537 276.697L213.49 285.177L216.93 295.073L218.516 299.653L218.532 299.666L237.717 354.852L238.753 357.843L242.635 368.995Z" fill="white"/>
<path fill-rule="evenodd" clip-rule="evenodd" d="M199.75 277.39L199.906 279.527L200.33 285.033L201.215 296.579C201.134 296.662 201.052 296.745 200.956 296.829L200.16 284.691L200.156 284.647L199.815 279.507L199.676 277.397C199.673 277.368 199.701 277.35 199.716 277.348C199.73 277.347 199.747 277.36 199.75 277.39Z" fill="white"/>
<path fill-rule="evenodd" clip-rule="evenodd" d="M221.687 301.875C221.513 301.773 221.367 301.668 221.206 301.55L221.19 301.536L219.344 296.16L215.07 283.791L212.421 276.103C212.42 276.088 212.433 276.072 212.447 276.056C212.476 276.053 212.493 276.066 212.494 276.081L215.191 283.659L219.705 296.333L221.687 301.875Z" fill="white"/>
<path fill-rule="evenodd" clip-rule="evenodd" d="M156.578 362.909L156.565 362.925C156.55 362.927 156.519 362.915 156.518 362.9C156.495 362.828 156.472 362.74 156.449 362.668C156.488 362.754 156.525 362.825 156.578 362.909Z" fill="#9B51E0"/>
<path fill-rule="evenodd" clip-rule="evenodd" d="M187.478 370.325C186.485 371.009 183.954 368.903 183.232 368.423C182.238 367.761 181.036 366.671 179.811 365.943C179.252 365.595 178.673 365.34 178.123 365.231C178.272 365.515 178.435 365.798 178.626 366.063C179.343 367.082 180.324 368.059 181.033 369.004C182.451 370.895 183.916 372.81 184.926 374.951C185.377 375.862 184.395 376.799 183.524 376.319C181.293 375.11 178.323 371.926 176.367 370.329C177.686 372.873 183.259 377.393 181.594 380.149C180.919 381.309 175.657 375.426 172.173 372.34C173.698 375.729 176.867 382.796 175.209 383.263C173.68 383.374 170.251 378.756 168.593 375.23C168.039 374.045 164.853 371.825 163.018 371.128C162.675 370.999 161.94 369.787 161.025 367.846C160.951 367.704 160.89 367.545 160.814 367.389C165.325 365.855 176.08 360.264 176.275 359.242C177.353 359.985 178.741 360.697 180.55 361.725C182.168 362.638 183.803 364.013 185.11 365.406C185.245 365.557 185.379 365.693 185.513 365.843C186.477 366.942 189.056 369.223 187.478 370.325Z" fill="#9B51E0"/>
<path fill-rule="evenodd" clip-rule="evenodd" d="M173.249 350.319C173.25 350.334 173.237 350.35 173.224 350.366C173.207 350.353 173.206 350.338 173.204 350.323C173.045 349.786 172.886 349.249 172.771 348.707L173.249 350.319Z" fill="#9B51E0"/>
<path fill-rule="evenodd" clip-rule="evenodd" d="M189.274 283.519C189.49 285.801 189.123 288.081 188.585 290.304L188.443 290.079C189.004 287.944 189.394 285.736 189.2 283.527C189.197 283.497 189.21 283.481 189.225 283.48C189.255 283.477 189.271 283.49 189.274 283.519Z" fill="#9B51E0"/>
<path fill-rule="evenodd" clip-rule="evenodd" d="M195.497 295.047C195.488 295.108 195.494 295.167 195.485 295.228C195.468 295.349 195.42 295.474 195.342 295.586L194.823 296.222C194.772 296.302 194.705 296.384 194.621 296.437C194.566 296.488 194.482 296.541 194.394 296.565C194.308 296.603 194.234 296.611 194.143 296.59C194.069 296.598 193.99 296.561 193.926 296.523C193.877 296.483 193.843 296.441 193.796 296.416C193.741 296.317 193.701 296.216 193.689 296.098C193.683 296.039 193.693 295.993 193.687 295.934C193.703 295.797 193.751 295.673 193.83 295.575C194.002 295.348 194.175 295.136 194.348 294.925C194.399 294.844 194.468 294.778 194.552 294.724C194.62 294.658 194.689 294.606 194.777 294.582C194.864 294.558 194.953 294.549 195.028 294.556C195.119 294.562 195.181 294.586 195.261 294.638L195.377 294.746C195.445 294.828 195.485 294.929 195.497 295.047Z" fill="#9B51E0"/>
<path fill-rule="evenodd" clip-rule="evenodd" d="M174.348 311.862C174.335 311.878 174.336 311.893 174.323 311.909C174.277 312.048 174.231 312.188 174.201 312.325C174.273 312.153 174.389 311.828 174.509 311.531C174.445 311.642 174.397 311.752 174.348 311.862Z" fill="#9B51E0"/>
<path fill-rule="evenodd" clip-rule="evenodd" d="M199.75 277.39L199.906 279.527L200.33 285.033L201.215 296.579C201.134 296.662 201.052 296.745 200.956 296.829L200.16 284.691L200.156 284.647L199.815 279.507L199.676 277.397C199.673 277.368 199.701 277.35 199.716 277.348C199.73 277.347 199.747 277.36 199.75 277.39Z" fill="#9B51E0"/>
<path fill-rule="evenodd" clip-rule="evenodd" d="M174.509 311.531C174.389 311.828 174.273 312.153 174.201 312.325C174.231 312.188 174.277 312.048 174.323 311.909C174.336 311.893 174.335 311.878 174.348 311.862C174.397 311.752 174.445 311.642 174.509 311.531Z" fill="#F2E14A"/>
<path fill-rule="evenodd" clip-rule="evenodd" d="M187.478 370.325C186.485 371.009 183.954 368.903 183.232 368.423C182.238 367.761 181.036 366.671 179.811 365.943C179.252 365.595 178.673 365.34 178.123 365.231C178.272 365.515 178.435 365.798 178.626 366.063C179.343 367.082 180.324 368.059 181.033 369.004C182.451 370.895 183.916 372.81 184.926 374.951C185.377 375.862 184.395 376.799 183.524 376.319C181.293 375.11 178.323 371.926 176.367 370.329C177.686 372.873 183.259 377.393 181.594 380.149C180.919 381.309 175.657 375.426 172.173 372.34C173.698 375.729 176.867 382.796 175.209 383.263C173.68 383.374 170.251 378.756 168.593 375.23C168.039 374.045 164.853 371.825 163.018 371.128C162.675 370.999 161.94 369.787 161.025 367.846C160.951 367.704 160.89 367.545 160.814 367.389C165.325 365.855 176.08 360.264 176.275 359.242C177.353 359.985 178.741 360.697 180.55 361.725C182.168 362.638 183.803 364.013 185.11 365.406C185.245 365.557 185.379 365.693 185.513 365.843C186.477 366.942 189.056 369.223 187.478 370.325Z" fill="#C79C89"/>
<path fill-rule="evenodd" clip-rule="evenodd" d="M188.586 290.303C188.505 290.685 188.394 291.07 188.298 291.454C187.973 292.668 187.554 293.847 187.042 294.991C186.944 295.21 186.847 295.429 186.748 295.634C186.244 296.717 185.647 297.764 184.987 298.773C183.693 300.759 182.088 302.492 180.418 304.157C180.187 304.389 179.941 304.624 179.711 304.856C178.42 306.139 177.132 307.451 176.068 308.904C175.567 309.568 175.115 310.272 174.741 311.013C174.692 311.123 174.608 311.325 174.509 311.53C174.446 311.641 174.397 311.751 174.348 311.86C174.335 311.877 174.337 311.891 174.323 311.908C174.278 312.047 174.232 312.186 174.201 312.324C174.189 312.355 174.179 312.401 174.166 312.417C173.937 313.113 173.725 313.823 173.517 314.577C173.507 314.623 173.496 314.668 173.486 314.714C173.358 315.37 173.246 316.04 173.031 316.72C172.988 316.888 172.915 317.045 172.841 317.203C172.842 317.217 172.844 317.232 172.829 317.234C172.77 317.389 172.696 317.546 172.606 317.69C172.455 317.974 172.29 318.26 172.156 318.558C171.036 320.945 170.326 323.529 169.554 326.09C169.19 327.368 168.811 328.648 168.402 329.931C167.945 331.173 167.938 332.43 168.157 333.709C168.548 335.793 169.554 337.755 170.173 339.876C170.326 340.354 170.436 340.851 170.531 341.35C171.301 343.785 172.045 346.252 172.772 348.706C172.887 349.247 173.046 349.785 173.205 350.322C173.206 350.337 173.208 350.351 173.224 350.365C173.195 350.368 173.178 350.354 173.177 350.34C172.187 347.658 171.239 344.943 170.322 342.239C170.236 341.978 170.151 341.733 170.065 341.472L170.047 341.444C169.532 338.864 168.057 336.561 167.452 333.84C167.153 332.51 167.225 331.007 167.708 329.717C168.103 328.45 168.48 327.156 168.844 325.878C169.617 323.317 170.386 320.726 171.573 318.273C171.722 317.974 171.901 317.672 172.065 317.371C172.217 317.101 172.338 316.82 172.443 316.525C172.651 315.921 172.764 315.266 172.907 314.609C173.05 313.951 173.221 313.276 173.455 312.639C173.673 311.988 173.954 311.362 174.267 310.762C174.619 310.098 175.018 309.459 175.465 308.861C175.635 308.619 175.835 308.375 176.021 308.146L176.02 308.132C177.056 306.845 178.24 305.693 179.41 304.543C179.886 304.076 180.362 303.609 180.838 303.142C182.25 301.728 183.597 300.26 184.7 298.593C185.246 297.79 185.759 296.945 186.209 296.077C186.333 295.825 186.459 295.588 186.583 295.336C187.202 294.062 187.712 292.754 188.098 291.399C188.219 290.968 188.339 290.522 188.443 290.078L188.586 290.303Z" fill="#F2E14A"/>
<path fill-rule="evenodd" clip-rule="evenodd" d="M152.601 289.405C151.143 293.471 149.856 297.594 148.738 301.76C148.187 303.85 147.741 305.944 147.236 308.044C146.744 310.128 146.314 312.235 145.903 314.371C145.889 314.387 145.876 314.403 145.827 314.363C145.828 313.631 145.858 312.895 145.947 312.153C145.929 312.125 145.925 312.08 145.951 312.048C145.935 312.034 145.934 312.02 145.96 311.987C146.061 310.616 146.281 309.248 146.518 307.893C146.915 305.759 147.541 303.676 148.168 301.594C149.122 298.461 150.184 295.362 151.383 292.295C151.361 292.372 151.324 292.45 151.304 292.542C151.382 292.316 151.466 292.092 151.552 291.868C151.595 291.754 151.64 291.644 151.684 291.531C151.715 291.455 151.751 291.38 151.775 291.301C151.8 291.216 151.833 291.138 151.868 291.057C151.896 290.994 151.919 290.929 151.941 290.862C151.976 290.769 152.027 290.674 152.061 290.566C152.111 290.471 152.145 290.363 152.18 290.27C152.365 289.877 152.52 289.488 152.582 289.362C152.598 289.375 152.614 289.388 152.601 289.405Z" fill="#F2E14A"/>
<path fill-rule="evenodd" clip-rule="evenodd" d="M239.951 353.564C240.166 354.216 240.396 354.865 240.612 355.516C240.847 356.21 241.08 356.89 241.315 357.584C243.034 362.599 244.724 367.617 246.356 372.657C246.358 372.671 246.345 372.688 246.33 372.689C246.317 372.706 246.285 372.694 246.284 372.679C245.182 369.77 244.109 366.857 243.051 363.943C243.035 363.93 243.033 363.915 243.03 363.886C242.267 361.81 241.503 359.733 240.767 357.639C240.311 356.384 239.855 355.129 239.399 353.875C238.773 352.128 238.148 350.382 237.507 348.637C234.674 340.594 231.869 332.548 229.108 324.483L221.206 301.549L221.19 301.536L219.344 296.159L215.07 283.791L212.422 276.103C212.42 276.088 212.434 276.072 212.447 276.055C212.477 276.052 212.493 276.066 212.494 276.08L215.191 283.659L219.706 296.332L221.688 301.874L229.67 324.276C232.547 332.3 235.396 340.342 238.201 348.403C238.78 350.124 239.358 351.845 239.951 353.564ZM216.983 275.955C218.792 275.801 220.153 276.979 221.11 278.453C221.516 279.07 221.838 279.74 222.112 280.37C222.921 282.307 223.937 285.689 226.59 285.6C226.649 285.594 226.695 285.604 226.742 285.629C227.061 285.672 227.15 285.962 227.091 286.267C227.038 286.631 226.76 286.988 226.387 286.996C223.69 287.09 222.224 284.427 221.346 282.258C220.948 281.281 220.579 280.301 220.011 279.417C219.903 279.233 219.78 279.051 219.643 278.886C219.093 278.179 218.334 277.478 217.423 277.346C217.195 277.309 216.957 277.318 216.707 277.359C215.783 277.542 215.808 276.163 216.57 276.011C216.717 275.982 216.85 275.968 216.983 275.955ZM228.448 286.084L229.411 285.987C229.573 285.97 229.747 286.058 229.834 286.183C229.937 286.308 229.971 286.499 229.956 286.65C229.89 287.03 229.595 287.359 229.21 287.398L228.247 287.496C228.099 287.511 227.911 287.425 227.824 287.299C227.721 287.175 227.686 286.969 227.715 286.817C227.783 286.451 228.064 286.123 228.448 286.084ZM299.572 279.103C299.534 279.167 299.492 279.201 299.451 279.235C297.525 280.896 295.226 282.266 293.127 283.69C291.336 284.903 289.411 285.98 287.296 286.359C285.533 286.672 283.763 287.211 281.961 286.989C280.31 286.783 278.818 286.53 277.222 287.155C272.242 289.081 268.34 288.055 263.067 287.827C254.386 287.465 241.951 274.547 234.057 271.623C229.597 269.966 226.378 266.089 221.704 264.828C219.827 264.315 217.845 264.232 215.893 264.31C215.551 264.33 215.209 264.349 214.882 264.368C213.292 262.839 211.278 261.712 209.043 261.056C209.012 261.044 208.997 261.046 208.966 261.034C208.968 261.049 199.076 262.021 199.078 262.036C200.032 271.162 200.495 275.736 200.468 275.759L210.119 275.513L210.349 276.163L210.409 276.307L210.412 276.336L210.538 276.697L213.491 285.177L216.931 295.073L218.517 299.653L218.533 299.666L237.718 354.852L238.754 357.843L242.636 368.996L244.894 375.497C248.215 374.472 251.493 373.318 254.697 372.021C259.657 370.053 264.478 367.74 269.108 365.028C269.632 364.735 270.151 364.398 270.474 363.887C270.589 363.696 270.704 363.505 270.788 363.302C274.332 355.914 264.14 347.285 259.894 341.688C257.338 338.298 254.063 335.355 251.799 331.756C248.81 327.048 247.379 321.779 245.726 316.533C245.243 315.012 244.702 313.511 244.074 312.034C243.797 311.958 243.521 311.896 243.257 311.803C243.458 312.157 243.642 312.497 243.827 312.852C243.829 312.867 243.83 312.882 243.816 312.883L243.801 312.885C243.553 312.506 243.305 312.127 243.058 311.748C242.954 311.609 242.863 311.454 242.773 311.299C241.108 308.746 239.556 306.121 238.049 303.492L232.536 293.956C232.536 293.956 232.534 293.941 232.549 293.939L232.564 293.938L232.619 294.037L232.637 294.065L238.302 303.332C239.979 306.018 241.583 308.712 243.09 311.476C243.405 311.638 243.737 311.814 244.054 311.991C244.1 312.002 244.148 312.027 244.18 312.054C244.211 312.065 244.228 312.079 244.242 312.077C252.558 316.364 263.409 319.841 276.242 318.526C280.846 318.06 296.436 310.154 299.612 306.812C301.898 304.427 305.316 303.617 308.363 300.93C308.667 300.675 309.081 300.334 309.607 299.922C309.816 299.766 310.038 299.594 310.26 299.422C310.385 299.334 310.496 299.248 310.62 299.146C310.69 299.094 310.774 299.041 310.857 298.973C310.899 298.938 310.94 298.904 310.996 298.869C311.12 298.766 311.246 298.679 311.37 298.577C311.412 298.542 311.468 298.507 311.509 298.473C311.995 298.095 312.465 297.718 312.934 297.326C313.21 297.104 313.487 296.882 313.747 296.646C314.451 296.066 315.124 295.474 315.797 294.883C315.837 294.834 315.891 294.784 315.933 294.749C316.016 294.681 316.056 294.632 316.056 294.632C317.216 293.976 318.003 292.895 318.415 292.673C318.514 292.619 318.639 292.531 318.807 292.409C318.639 290.751 301.99 278.021 300.746 278.147C300.421 278.18 299.884 278.788 299.572 279.103Z" fill="#9B51E0"/>
<path fill-rule="evenodd" clip-rule="evenodd" d="M221.687 301.875C221.513 301.773 221.367 301.668 221.206 301.55L221.19 301.536L219.344 296.16L215.07 283.791L212.421 276.103C212.42 276.088 212.433 276.072 212.447 276.056C212.476 276.053 212.493 276.066 212.494 276.081L215.191 283.659L219.705 296.333L221.687 301.875Z" fill="#9B51E0"/>
<path fill-rule="evenodd" clip-rule="evenodd" d="M243.257 311.807C243.457 312.161 243.642 312.501 243.827 312.856C243.829 312.871 243.83 312.886 243.815 312.888L243.8 312.889C243.553 312.51 243.305 312.132 243.057 311.753C242.953 311.614 242.863 311.459 242.772 311.303C241.108 308.75 239.556 306.126 238.048 303.497L232.536 293.96C232.536 293.96 232.534 293.945 232.549 293.944C232.583 293.985 232.601 294.013 232.619 294.041L232.636 294.07L238.301 303.336C239.979 306.023 241.583 308.717 243.089 311.48C243.405 311.643 243.737 311.819 244.054 311.996C244.07 312.009 244.087 312.023 244.073 312.039C243.796 311.962 243.521 311.9 243.257 311.807Z" fill="#9B51E0"/>
<path fill-rule="evenodd" clip-rule="evenodd" d="M189.274 283.519C189.49 285.801 189.123 288.081 188.585 290.304L188.443 290.079C189.004 287.944 189.394 285.736 189.2 283.527C189.197 283.497 189.21 283.481 189.225 283.48C189.255 283.477 189.271 283.49 189.274 283.519Z" fill="#9B51E0"/>
<path fill-rule="evenodd" clip-rule="evenodd" d="M243.827 312.856C243.829 312.871 243.83 312.886 243.815 312.888L243.8 312.889C243.553 312.51 243.305 312.132 243.057 311.753C242.953 311.614 242.863 311.459 242.772 311.303C241.108 308.75 239.556 306.126 238.048 303.497L232.536 293.96C232.536 293.96 232.534 293.945 232.549 293.944L232.564 293.942L232.619 294.041L232.636 294.07L238.301 303.336C239.979 306.023 241.583 308.717 243.089 311.48C243.146 311.594 243.216 311.692 243.257 311.807C243.457 312.161 243.642 312.501 243.827 312.856Z" fill="#F2E14A"/>
<path fill-rule="evenodd" clip-rule="evenodd" d="M201.214 296.578L203.624 328.338C204.291 336.84 204.927 345.33 205.518 353.825C205.662 356.278 205.805 358.716 205.948 361.169C205.989 361.868 206.03 362.567 206.071 363.265C206.273 366.445 206.463 369.641 206.636 372.824C206.699 373.895 206.763 374.965 206.811 376.037C206.878 377.137 206.93 378.238 206.982 379.34C206.983 379.355 206.97 379.371 206.955 379.372C206.925 379.375 206.909 379.362 206.908 379.347C206.795 378.237 206.697 377.125 206.615 376.012C206.527 375.004 206.427 374.012 206.355 373.002C206.207 371.402 206.074 369.786 205.94 368.169C205.806 366.552 205.672 364.936 205.538 363.319C205.482 362.622 205.427 361.925 205.371 361.228C205.181 358.764 204.978 356.317 204.775 353.87C204.154 345.378 203.578 336.882 203.031 328.383L200.956 296.828C201.052 296.744 201.133 296.661 201.214 296.578Z" fill="#F2E14A"/>
<path fill-rule="evenodd" clip-rule="evenodd" d="M199.75 277.39L199.906 279.527L200.33 285.033L201.215 296.579C201.134 296.662 201.052 296.745 200.956 296.829L200.16 284.691L200.156 284.647L199.815 279.507L199.676 277.397C199.673 277.368 199.701 277.35 199.716 277.348C199.73 277.347 199.747 277.36 199.75 277.39Z" fill="#F2E14A"/>
<path fill-rule="evenodd" clip-rule="evenodd" d="M173.249 350.319C173.25 350.334 173.237 350.35 173.224 350.366C173.207 350.353 173.206 350.338 173.204 350.323C173.045 349.786 172.886 349.249 172.771 348.707L173.249 350.319Z" fill="#F2E14A"/>
<path fill-rule="evenodd" clip-rule="evenodd" d="M189.274 283.519C189.49 285.801 189.123 288.081 188.585 290.304L188.443 290.079C189.004 287.944 189.394 285.736 189.2 283.527C189.197 283.497 189.21 283.481 189.225 283.48C189.255 283.477 189.271 283.49 189.274 283.519Z" fill="#F2E14A"/>
<path fill-rule="evenodd" clip-rule="evenodd" d="M156.59 362.877C156.59 362.877 156.591 362.892 156.578 362.908C156.525 362.824 156.488 362.753 156.449 362.667C155.768 360.523 155.219 358.35 154.612 356.198C153.996 353.957 153.379 351.702 152.72 349.48C152.415 348.39 151.931 347.302 151.524 346.237C151.089 345.189 150.425 344.239 149.856 343.205C149.546 342.653 149.292 342.066 149.097 341.472L149.096 341.458C148.909 340.938 148.764 340.399 148.623 339.89C148.436 339.371 148.291 338.683 148.323 338.111C148.355 337.54 148.226 336.999 148.092 336.415C148.09 336.4 148.103 336.384 148.118 336.382C148.131 336.366 148.163 336.378 148.164 336.392C148.425 336.904 148.722 337.472 148.782 338.065C148.888 338.667 149.009 339.118 149.259 339.676C149.359 339.92 149.457 340.15 149.527 340.397L149.528 340.412C149.852 341.246 150.102 342.088 150.467 342.889C150.945 343.917 151.571 344.931 151.97 346.057C152.352 347.17 152.731 348.253 153.055 349.387C153.671 351.627 154.229 353.889 154.815 356.133C155.403 358.391 155.931 360.656 156.59 362.877Z" fill="#F2E14A"/>
<path fill-rule="evenodd" clip-rule="evenodd" d="M156.578 362.909L156.565 362.925C156.55 362.927 156.519 362.915 156.518 362.9C156.495 362.828 156.472 362.74 156.449 362.668C156.488 362.754 156.525 362.825 156.578 362.909Z" fill="#F2E14A"/>
<path fill-rule="evenodd" clip-rule="evenodd" d="M182.254 262.636C181.851 262.647 181.453 262.702 181.071 262.771C181.423 262.705 181.878 262.614 182.254 262.636Z" fill="#9B51E0"/>
<path fill-rule="evenodd" clip-rule="evenodd" d="M246.356 372.658C246.358 372.673 246.344 372.689 246.33 372.691C246.316 372.707 246.285 372.695 246.284 372.68C245.181 369.771 244.109 366.859 243.051 363.945C243.034 363.932 243.033 363.917 243.03 363.887C242.266 361.811 241.503 359.735 240.767 357.641C240.311 356.386 239.855 355.131 239.399 353.876C238.773 352.13 238.147 350.384 237.507 348.639C234.673 340.596 231.869 332.55 229.108 324.484L221.206 301.551C221.368 301.669 221.513 301.774 221.688 301.876L229.67 324.278C232.547 332.302 235.395 340.343 238.201 348.404C238.779 350.125 239.357 351.846 239.95 353.566C240.166 354.217 240.396 354.867 240.612 355.518C240.847 356.212 241.08 356.891 241.315 357.585C243.034 362.601 244.724 367.619 246.356 372.658Z" fill="#F2E14A"/>
<path fill-rule="evenodd" clip-rule="evenodd" d="M221.687 301.875C221.513 301.773 221.367 301.668 221.206 301.55L221.19 301.536L219.344 296.16L215.07 283.791L212.421 276.103C212.42 276.088 212.433 276.072 212.447 276.056C212.476 276.053 212.493 276.066 212.494 276.081L215.191 283.659L219.705 296.333L221.687 301.875Z" fill="#F2E14A"/>
<path fill-rule="evenodd" clip-rule="evenodd" d="M227.09 286.272C227.037 286.636 226.759 286.993 226.386 287.001C223.689 287.095 222.222 284.432 221.345 282.263C220.946 281.286 220.578 280.306 220.01 279.422C219.902 279.238 219.778 279.056 219.642 278.891C219.092 278.184 218.333 277.483 217.422 277.351C217.194 277.314 216.956 277.323 216.706 277.364C215.782 277.547 215.807 276.168 216.569 276.016C216.716 275.987 216.849 275.973 216.982 275.96C218.791 275.806 220.152 276.984 221.109 278.458C221.515 279.075 221.837 279.745 222.11 280.375C222.92 282.312 223.935 285.694 226.588 285.605C226.648 285.599 226.694 285.609 226.741 285.634L226.759 285.662C226.87 285.875 226.98 286.074 227.09 286.272Z" fill="#F2E14A"/>
<path fill-rule="evenodd" clip-rule="evenodd" d="M227.09 286.267C226.98 286.068 226.87 285.87 226.759 285.657L226.741 285.629C227.06 285.671 227.149 285.962 227.09 286.267Z" fill="#F2E14A"/>
<path fill-rule="evenodd" clip-rule="evenodd" d="M199.469 279.197C199.434 279.29 199.397 279.369 199.362 279.462C199.168 279.915 198.991 280.382 198.829 280.847C198.168 282.739 197.755 284.71 197.6 286.729C197.406 289.097 197.931 291.616 196.992 293.865C196.656 294.677 195.438 294.471 195.81 293.566C196.293 292.425 196.288 291.199 196.269 289.975C196.233 288.737 196.244 287.51 196.372 286.271C196.608 283.869 197.22 281.504 198.131 279.273C198.178 279.148 198.24 279.022 198.288 278.898C198.373 278.71 198.494 278.578 198.636 278.504C199.102 278.232 199.759 278.51 199.469 279.197Z" fill="#F2E14A"/>
<path fill-rule="evenodd" clip-rule="evenodd" d="M229.956 286.654C229.889 287.034 229.594 287.363 229.209 287.402L228.247 287.5C228.099 287.515 227.91 287.429 227.823 287.303C227.721 287.179 227.685 286.973 227.714 286.821C227.782 286.455 228.063 286.127 228.448 286.088L229.41 285.991C229.573 285.974 229.746 286.062 229.834 286.187C229.936 286.312 229.97 286.502 229.956 286.654Z" fill="#F2E14A"/>
<path fill-rule="evenodd" clip-rule="evenodd" d="M195.497 295.047C195.488 295.108 195.494 295.167 195.485 295.228C195.468 295.349 195.42 295.474 195.342 295.586L194.823 296.222C194.772 296.302 194.705 296.384 194.621 296.437C194.566 296.488 194.482 296.541 194.394 296.565C194.308 296.603 194.234 296.611 194.143 296.59C194.069 296.598 193.99 296.561 193.926 296.523C193.877 296.483 193.843 296.441 193.796 296.416C193.741 296.317 193.701 296.216 193.689 296.098C193.683 296.039 193.693 295.993 193.687 295.934C193.703 295.797 193.751 295.673 193.83 295.575C194.002 295.348 194.175 295.136 194.348 294.925C194.399 294.844 194.468 294.778 194.552 294.724C194.62 294.658 194.689 294.606 194.777 294.582C194.864 294.558 194.953 294.549 195.028 294.556C195.119 294.562 195.181 294.586 195.261 294.638L195.377 294.746C195.445 294.828 195.485 294.929 195.497 295.047Z" fill="#F2E14A"/>
<path fill-rule="evenodd" clip-rule="evenodd" d="M210.859 273.023C211.121 275.614 208.212 276.716 204.105 276.773C199.727 276.813 193.988 275.674 189.334 273.873C188.899 273.707 188.462 273.527 188.04 273.346C186.367 272.633 184.894 271.825 183.716 270.972L183.456 266.93L183.338 264.879L183.334 264.834L183.222 262.991C183.583 262.865 183.947 262.768 184.311 262.671C182.388 255.942 182.842 251.125 182.842 251.125C182.842 251.125 185.403 256.324 189.361 262.324C189.497 262.34 189.648 262.355 189.784 262.371C191.071 262.525 192.345 262.845 193.559 263.32C191.537 258.559 189.925 253.578 188.691 248.484C189.019 248.615 189.345 248.731 189.67 248.848C189.685 248.847 189.687 248.861 189.702 248.86C195.539 252.306 203.923 257.11 208.057 258.8C208.603 259.029 209.083 259.19 209.468 259.3L209.647 261.062C209.906 261.11 210.859 273.023 210.859 273.023Z" fill="#C79C89"/>
<path fill-rule="evenodd" clip-rule="evenodd" d="M189.67 248.847C189.344 248.731 189.018 248.614 188.691 248.483C188.667 248.396 188.645 248.323 188.636 248.234C188.969 248.425 189.319 248.629 189.67 248.847Z" fill="#C79C89"/>
<path fill-rule="evenodd" clip-rule="evenodd" d="M208.802 252.731L209.468 259.304C209.083 259.193 208.603 259.032 208.056 258.804C203.922 257.114 195.539 252.31 189.701 248.863C195.557 251.007 201.953 252.288 208.802 252.731Z" fill="#C79C89"/>
<path fill-rule="evenodd" clip-rule="evenodd" d="M208.802 252.731L209.468 259.304C209.083 259.193 208.603 259.032 208.056 258.804C203.922 257.114 195.539 252.31 189.701 248.863C195.557 251.007 201.953 252.288 208.802 252.731Z" fill="#C79C89"/>
<path fill-rule="evenodd" clip-rule="evenodd" d="M163.476 211.132L163.351 211.519L163.004 211.345C161.965 210.837 160.735 210.647 159.564 210.751C158.393 210.855 157.163 211.264 156.431 212.16C155.639 213.048 155.731 214.4 156.154 215.478C156.653 216.565 157.723 217.383 158.937 217.559L158.921 217.696C157.652 217.57 156.492 216.745 155.913 215.608C155.408 214.462 155.244 212.983 156.107 211.909C156.926 210.839 158.255 210.375 159.495 210.22C160.647 210.073 161.809 210.18 162.927 210.59C163.294 208.893 162.933 207.105 161.818 205.842C160.617 204.468 158.819 203.693 157.022 203.232C155.198 202.788 153.282 202.624 151.434 202.841C149.585 203.043 147.83 203.729 146.332 204.734C143.314 206.834 142.246 210.756 142.679 214.436C143.114 218.145 144.808 221.728 147.388 224.607L147.295 224.721C145.779 223.484 144.5 221.938 143.503 220.215C142.493 218.508 141.79 216.59 141.484 214.602C141.178 212.614 141.19 210.519 141.857 208.537C142.479 206.56 143.806 204.75 145.546 203.617C147.303 202.511 149.298 201.831 151.317 201.686C153.334 201.512 155.344 201.727 157.268 202.265C159.179 202.819 161.121 203.684 162.451 205.299C163.824 206.895 164.12 209.228 163.476 211.132Z" fill="black"/>
<path fill-rule="evenodd" clip-rule="evenodd" d="M163.476 211.132L163.351 211.519L163.004 211.345C161.965 210.837 160.735 210.647 159.564 210.751C158.393 210.855 157.163 211.264 156.431 212.16C155.639 213.048 155.731 214.4 156.154 215.478C156.653 216.565 157.723 217.383 158.937 217.559L158.921 217.696C157.652 217.57 156.492 216.745 155.913 215.608C155.408 214.462 155.244 212.983 156.107 211.909C156.926 210.839 158.255 210.375 159.495 210.22C160.647 210.073 161.809 210.18 162.927 210.59C163.294 208.893 162.933 207.105 161.818 205.842C160.617 204.468 158.819 203.693 157.022 203.232C155.198 202.788 153.282 202.624 151.434 202.841C149.585 203.043 147.83 203.729 146.332 204.734C143.314 206.834 142.246 210.756 142.679 214.436C143.114 218.145 144.808 221.728 147.388 224.607L147.295 224.721C145.779 223.484 144.5 221.938 143.503 220.215C142.493 218.508 141.79 216.59 141.484 214.602C141.178 212.614 141.19 210.519 141.857 208.537C142.479 206.56 143.806 204.75 145.546 203.617C147.303 202.511 149.298 201.831 151.317 201.686C153.334 201.512 155.344 201.727 157.268 202.265C159.179 202.819 161.121 203.684 162.451 205.299C163.824 206.895 164.12 209.228 163.476 211.132Z" fill="#C79C89"/>
<path fill-rule="evenodd" clip-rule="evenodd" d="M189.67 248.844C189.344 248.727 189.018 248.61 188.691 248.479C188.667 248.392 188.645 248.319 188.636 248.23C188.969 248.421 189.319 248.625 189.67 248.844Z" fill="#C79C89"/>
<path fill-rule="evenodd" clip-rule="evenodd" d="M163.475 211.134L163.35 211.52L163.003 211.346C161.965 210.838 160.734 210.649 159.563 210.753C158.392 210.856 157.163 211.265 156.431 212.162C155.638 213.049 155.73 214.401 156.154 215.48C156.653 216.566 157.723 217.385 158.937 217.561L158.921 217.697C157.652 217.571 156.492 216.747 155.913 215.609C155.408 214.464 155.243 212.985 156.106 211.91C156.925 210.84 158.254 210.377 159.495 210.221C160.646 210.074 161.809 210.181 162.927 210.591C163.293 208.894 162.933 207.106 161.818 205.843C160.617 204.469 158.818 203.694 157.022 203.233C155.197 202.79 153.281 202.625 151.434 202.842C149.585 203.044 147.83 203.731 146.331 204.735C143.314 206.835 142.245 210.757 142.678 214.437C143.114 218.147 144.808 221.729 147.388 224.608L147.294 224.722C145.778 223.485 144.5 221.94 143.503 220.216C142.492 218.509 141.79 216.591 141.484 214.603C141.177 212.615 141.19 210.52 141.856 208.538C142.478 206.561 143.806 204.752 145.545 203.618C147.303 202.513 149.298 201.832 151.317 201.687C153.333 201.513 155.344 201.728 157.268 202.266C159.178 202.82 161.121 203.685 162.451 205.3C163.824 206.896 164.12 209.229 163.475 211.134ZM272.515 194.599C271.364 193.713 269.981 193.21 268.569 192.995C268.513 191.849 268.438 190.675 268.32 189.505C268.092 187.255 267.763 185.045 267.336 182.89C266.921 182.483 265.83 182.055 264.293 181.643L260.511 167.639C260.511 167.639 254.075 172.598 249.507 179.028C245.018 178.421 241.464 178.033 241.464 178.033C242.389 170.327 243.396 165.365 243.473 164.938C243.151 165.449 239.727 170.926 236.446 178.542L209.015 181.321C212.026 172.805 213.733 166.186 213.826 165.773C213.671 166.163 210.924 172.408 206.454 181.58L200.533 182.18C200.246 173.445 200.997 167.566 201.055 167.112C200.751 167.502 194.951 175.208 190.572 184.984C189.233 186.525 187.76 187.931 186.184 189.197C182.06 192.486 177.161 194.762 171.761 195.638C174.475 203.978 172.951 214.765 172.951 214.765C172.951 214.765 171.42 210.867 168.134 205.742C166.088 202.524 163.348 198.809 159.879 195.272C156.359 194.477 153.032 193.079 149.98 191.145C146.472 192.248 143.164 194.138 140.432 196.838C137.547 199.658 135.657 203.005 134.726 206.509C132.796 213.733 134.972 221.634 141.174 227.047C142.372 228.093 143.659 228.994 145.021 229.739C151.187 233.182 158.742 233.643 165.345 231.209C167.215 233.577 169.215 235.752 171.373 237.717C174.656 240.749 178.237 243.318 182.114 245.423C184.221 246.585 186.418 247.604 188.69 248.48C188.666 248.393 188.644 248.321 188.635 248.232C188.968 248.422 189.318 248.626 189.669 248.845C189.684 248.843 189.685 248.858 189.7 248.857C195.555 251 201.952 252.282 208.801 252.724C213.907 253.075 219.278 252.949 224.873 252.382C235.384 251.317 247.96 247.905 255.499 238.183C256.028 237.501 256.541 236.806 257.038 236.098C257.536 235.404 258.016 234.682 258.495 233.946C258.507 233.915 258.518 233.884 258.545 233.851C258.996 233.133 259.445 232.399 259.876 231.638C260.322 230.874 260.751 230.083 261.176 229.263C261.588 228.458 261.984 227.64 262.378 226.808C262.772 225.975 263.135 225.131 263.497 224.272C263.842 223.399 264.188 222.527 264.502 221.642C264.831 220.757 265.144 219.857 265.425 218.947C266.389 215.918 267.146 212.76 267.697 209.489C267.757 209.483 267.776 209.526 267.82 209.521C272.251 209.117 275.461 204.784 275.374 200.381C275.34 198.126 274.296 195.944 272.515 194.599Z" fill="#C79C89"/>
<path fill-rule="evenodd" clip-rule="evenodd" d="M163.476 211.132L163.351 211.519L163.004 211.345C161.965 210.837 160.735 210.647 159.564 210.751C158.393 210.855 157.163 211.264 156.431 212.16C155.639 213.048 155.731 214.4 156.154 215.478C156.653 216.565 157.723 217.383 158.937 217.559L158.921 217.696C157.652 217.57 156.492 216.745 155.913 215.608C155.408 214.462 155.244 212.983 156.107 211.909C156.926 210.839 158.255 210.375 159.495 210.22C160.647 210.073 161.809 210.18 162.927 210.59C163.294 208.893 162.933 207.105 161.818 205.842C160.617 204.468 158.819 203.693 157.022 203.232C155.198 202.788 153.282 202.624 151.434 202.841C149.585 203.043 147.83 203.729 146.332 204.734C143.314 206.834 142.246 210.756 142.679 214.436C143.114 218.145 144.808 221.728 147.388 224.607L147.295 224.721C145.779 223.484 144.5 221.938 143.503 220.215C142.493 218.508 141.79 216.59 141.484 214.602C141.178 212.614 141.19 210.519 141.857 208.537C142.479 206.56 143.806 204.75 145.546 203.617C147.303 202.511 149.298 201.831 151.317 201.686C153.334 201.512 155.344 201.727 157.268 202.265C159.179 202.819 161.121 203.684 162.451 205.299C163.824 206.895 164.12 209.228 163.476 211.132Z" fill="#C79C89"/>
<path fill-rule="evenodd" clip-rule="evenodd" d="M189.67 248.844C189.344 248.727 189.018 248.61 188.691 248.479C188.667 248.392 188.645 248.319 188.636 248.23C188.969 248.421 189.319 248.625 189.67 248.844Z" fill="#C79C89"/>
<path fill-rule="evenodd" clip-rule="evenodd" d="M163.476 211.132L163.351 211.519L163.004 211.345C161.965 210.837 160.735 210.647 159.564 210.751C158.393 210.855 157.163 211.264 156.431 212.16C155.639 213.048 155.731 214.4 156.154 215.478C156.653 216.565 157.723 217.383 158.937 217.559L158.921 217.696C157.652 217.57 156.492 216.745 155.913 215.608C155.408 214.462 155.244 212.983 156.107 211.909C156.926 210.839 158.255 210.375 159.495 210.22C160.647 210.073 161.809 210.18 162.927 210.59C163.294 208.893 162.933 207.105 161.818 205.842C160.617 204.468 158.819 203.693 157.022 203.232C155.198 202.788 153.282 202.624 151.434 202.841C149.585 203.043 147.83 203.729 146.332 204.734C143.314 206.834 142.246 210.756 142.679 214.436C143.114 218.145 144.808 221.728 147.388 224.607L147.295 224.721C145.779 223.484 144.5 221.938 143.503 220.215C142.493 218.508 141.79 216.59 141.484 214.602C141.178 212.614 141.19 210.519 141.857 208.537C142.479 206.56 143.806 204.75 145.546 203.617C147.303 202.511 149.298 201.831 151.317 201.686C153.334 201.512 155.344 201.727 157.268 202.265C159.179 202.819 161.121 203.684 162.451 205.299C163.824 206.895 164.12 209.228 163.476 211.132Z" fill="black"/>
<path fill-rule="evenodd" clip-rule="evenodd" d="M225.088 217.577C225.823 224.83 220.528 231.319 213.274 232.054C206.021 232.789 199.532 227.494 198.797 220.24C198.062 212.986 203.359 206.512 210.612 205.778C217.866 205.043 224.353 210.323 225.088 217.577Z" fill="#C79C89"/>
<path fill-rule="evenodd" clip-rule="evenodd" d="M273.008 164.987C273.468 171.894 272.014 178.353 267.479 183.044C267.443 182.988 267.409 182.947 267.344 182.894C266.929 182.487 265.839 182.059 264.301 181.646L260.52 167.642C260.52 167.642 254.083 172.602 249.515 179.032C245.026 178.425 241.473 178.037 241.473 178.037C242.397 170.331 243.405 165.368 243.481 164.942C243.159 165.453 239.736 170.93 236.454 178.545L209.023 181.324C212.034 172.809 213.742 166.19 213.834 165.777C213.679 166.166 210.932 172.412 206.462 181.584L200.541 182.183C200.254 173.449 201.005 167.57 201.063 167.115C200.759 167.505 194.959 175.211 190.581 184.987C189.241 186.529 187.768 187.934 186.192 189.201C182.068 192.49 177.169 194.766 171.769 195.642C174.484 203.981 172.959 214.769 172.959 214.769C172.959 214.769 171.428 210.871 168.142 205.745C166.096 202.528 163.357 198.812 159.888 195.275C156.367 194.48 153.04 193.082 149.988 191.148C146.48 192.251 143.172 194.142 140.44 196.842C137.555 199.661 135.666 203.008 134.734 206.512C132.804 213.737 134.98 221.637 141.182 227.051C142.38 228.096 143.667 228.998 145.029 229.742C151.196 233.185 158.75 233.646 165.353 231.213C167.223 233.581 169.223 235.756 171.381 237.721C174.664 240.753 178.245 243.322 182.122 245.426C184.229 246.589 186.426 247.608 188.698 248.484C189.932 253.578 191.543 258.56 193.566 263.32C194.159 264.741 194.807 266.126 195.484 267.493C195.973 268.475 196.474 269.441 196.989 270.391C196.976 270.408 196.991 270.406 197.007 270.419C197.521 271.354 198.047 272.273 198.617 273.173C198.978 273.779 199.368 274.383 199.758 274.986C199.165 274.448 198.585 273.894 198.001 273.295C196.584 271.853 195.213 270.272 193.911 268.639C192.881 267.338 191.894 266.002 190.967 264.675C190.407 263.879 189.879 263.095 189.367 262.325C185.41 256.325 182.849 251.125 182.849 251.125C182.849 251.125 182.395 255.942 184.318 262.672C184.644 263.82 185.036 265.037 185.522 266.289C186.009 267.555 186.575 268.859 187.249 270.197C187.679 271.05 188.155 271.914 188.678 272.789C188.893 273.141 189.11 273.508 189.341 273.873C190.304 275.406 191.418 276.953 192.696 278.498C182.225 280.098 171.767 281.68 161.249 282.97C158.62 283.296 155.988 283.593 153.355 283.875C152.216 284.005 150.69 284.444 149.552 284.275C148.245 284.078 148.474 283.681 148.234 282.345C147.48 278.293 146.446 274.285 145.194 270.344C144.953 269.591 144.404 268.6 144.323 267.8C144.361 268.619 144.571 276.001 140.082 285.728C139.656 285.801 139.199 285.862 138.758 285.937C136.844 286.235 134.835 286.334 132.746 286.232C128.123 286.072 123.128 285.038 118.073 283.411C117.345 283.171 116.602 282.917 115.873 282.662C90.9723 273.803 65.6407 251.245 76.3795 244.758C102.927 228.683 114.668 199.467 119.735 179.946C119.557 176.569 119.665 173.208 120.238 169.86C120.806 166.602 121.928 163.362 123.39 160.223C125.197 156.361 127.499 152.658 129.827 149.357C134.059 143.305 140.951 134.575 148.667 130.13C152.788 127.409 157.543 125.626 162.694 125.104C167.046 124.663 171.27 125.163 175.241 126.421C168.781 120.375 159.77 113.661 148.701 109.652C135.316 104.787 162.442 98.4046 173.716 107.088C178.842 111.04 182.009 118.093 183.941 124.612C184.26 116.1 183.477 105.71 179.758 95.424C174.933 82.0492 197.207 98.786 197.751 113.013C197.843 115.546 197.391 118.165 196.546 120.748C200.019 117.689 203.975 115.254 208.037 114.304C225.582 110.194 250.323 127.369 250.323 127.369C250.323 127.369 245.522 126.928 238.042 127.342C256.588 130.308 271.731 145.449 273.008 164.987Z" fill="black"/>
<path fill-rule="evenodd" clip-rule="evenodd" d="M224.782 217.527C225.518 224.796 220.237 231.268 212.983 232.003C205.715 232.739 199.242 227.458 198.506 220.189C197.771 212.936 203.053 206.463 210.321 205.727C217.575 204.992 224.047 210.274 224.782 217.527Z" fill="#C57450"/>
<path fill-rule="evenodd" clip-rule="evenodd" d="M222.825 171.664C222.587 171.98 222.198 171.976 221.866 171.805C221.708 171.718 221.414 171.617 221.202 171.594C220.898 171.552 220.704 171.557 220.38 171.605C220.161 171.656 219.9 171.741 219.645 171.884C219.632 171.9 219.533 171.953 219.533 171.953C219.463 172.004 219.408 172.054 219.354 172.103C219.229 172.203 219.201 172.221 219.121 172.317C218.4 173.178 218.486 174.47 219.212 175.287C219.465 175.568 219.377 176.03 219.1 176.248C218.795 176.484 218.384 176.408 218.131 176.127C217.001 174.869 216.934 172.728 218.075 171.444C219.243 170.128 221.174 169.844 222.682 170.699C223.015 170.885 223.022 171.395 222.825 171.664Z" fill="black"/>
<path fill-rule="evenodd" clip-rule="evenodd" d="M233.728 207.753C231.371 208.282 228.546 204.468 227.426 199.221C226.292 193.976 227.289 189.297 229.631 188.755C231.988 188.227 234.813 192.041 235.933 197.287C237.067 202.533 236.07 207.212 233.728 207.753Z" fill="black"/>
<path fill-rule="evenodd" clip-rule="evenodd" d="M228.849 185.079C228.907 185.515 228.663 185.851 228.324 185.934C226.559 186.326 225.051 188.034 224.653 190.137C224.583 190.537 224.337 190.856 223.956 190.797C223.646 190.746 223.311 190.322 223.383 189.938C223.917 187.117 225.753 184.95 228.129 184.415C228.467 184.332 228.809 184.69 228.849 185.079Z" fill="black"/>
<path fill-rule="evenodd" clip-rule="evenodd" d="M245.424 227.323C240.07 228.577 234.206 227.197 229.935 223.133C229.57 222.785 229.554 222.207 229.903 221.841C230.249 221.475 230.827 221.457 231.195 221.809C237.201 227.519 246.733 227.28 252.444 221.279C252.788 220.915 253.368 220.896 253.737 221.246C254.103 221.595 254.117 222.174 253.77 222.54C251.426 225.001 248.51 226.601 245.424 227.323Z" fill="black"/>
<path d="M310.646 470.706L282.297 478.302C281.116 478.618 280.415 479.833 280.731 481.014L293.34 528.071C293.657 529.252 294.871 529.953 296.052 529.637L324.401 522.041C325.582 521.724 326.283 520.51 325.967 519.329L313.358 472.272C313.041 471.09 311.827 470.389 310.646 470.706Z" fill="#F7BFA1"/>
<path d="M350.995 470.706L322.647 478.302C321.465 478.618 320.764 479.833 321.081 481.014L333.69 528.071C334.006 529.252 335.221 529.953 336.402 529.637L364.75 522.041C365.932 521.724 366.633 520.51 366.316 519.329L353.707 472.272C353.391 471.09 352.177 470.389 350.995 470.706Z" fill="#D9A284"/>
<path d="M280.16 365.823L273.807 366.09L210.279 376.602L200.44 458.44L261.763 416.643L309.088 464.678C310.285 465.893 311.106 467.427 311.452 469.097L312.509 474.195C312.716 475.192 313.092 476.146 313.624 477.015L318.572 485.112C318.797 485.48 318.966 485.879 319.076 486.295L320.747 492.644C321.288 494.7 323.212 496.08 325.333 495.935L357.55 493.729C360.038 493.558 361.894 491.368 361.655 488.886L361.154 483.679C361.104 483.163 361.146 482.642 361.276 482.141L364.389 470.153C365.388 466.307 364.612 462.213 362.274 458.999L358.59 453.934C354.676 448.552 351.654 442.575 349.639 436.232L340.748 408.234C332.432 382.048 307.611 364.673 280.16 365.823Z" fill="#E3B603"/>
<path d="M325.554 535.492L327.935 513.069C328.304 509.603 332.632 508.246 334.913 510.884C335.261 511.286 335.897 511.241 336.185 510.794L341.929 501.9C343.56 499.373 346.362 497.848 349.37 497.848H356.335C360.272 497.848 363.737 500.446 364.838 504.226L368.981 518.439C369.799 521.242 371.515 523.696 373.866 525.426L383.946 532.837C386.216 534.507 387.557 537.157 387.557 539.973V554.315C387.557 556.761 385.574 558.744 383.128 558.744H329.983C327.537 558.744 325.554 556.761 325.554 554.315V535.492Z" fill="black"/>
<path d="M325.554 547.668H344.376C345.6 547.668 346.591 548.659 346.591 549.882V552.097C346.591 553.32 345.6 554.311 344.376 554.311H325.554V547.668Z" fill="white"/>
<path d="M368.734 521.098L349.358 525.526H371.502L356.555 529.955" stroke="#FECE00" stroke-width="1.95064" stroke-linejoin="bevel"/>
<path fill-rule="evenodd" clip-rule="evenodd" d="M328.807 510.957L334.345 520.15C335.38 521.866 336.79 523.328 338.469 524.422L351.428 532.871C353.936 534.506 355.448 537.296 355.448 540.29V554.314C355.448 556.76 353.465 558.743 351.019 558.743H329.971C327.531 558.737 325.554 556.756 325.554 554.314V535.491L327.935 513.068C328.024 512.234 328.342 511.522 328.807 510.957Z" fill="black"/>
<path d="M284.587 535.492L286.969 513.069C287.337 509.603 291.665 508.246 293.946 510.884C294.294 511.286 294.93 511.241 295.218 510.794L300.962 501.9C302.593 499.373 305.396 497.848 308.403 497.848H315.368C319.305 497.848 322.77 500.446 323.871 504.226L328.015 518.439C328.832 521.242 330.548 523.696 332.9 525.426L342.98 532.837C345.249 534.507 346.59 537.157 346.59 539.973V554.315C346.59 556.761 344.607 558.744 342.161 558.744H289.016C286.57 558.744 284.587 556.761 284.587 554.315V535.492Z" fill="black"/>
<path d="M284.587 547.668H303.409C304.633 547.668 305.624 548.659 305.624 549.882V552.097C305.624 553.32 304.633 554.311 303.409 554.311H284.587V547.668Z" fill="white"/>
<path d="M327.769 521.098L308.393 525.526H330.537L315.589 529.955" stroke="#FECE00" stroke-width="1.95064" stroke-linejoin="bevel"/>
<path d="M253.266 434.62L249.822 472.765C249.436 477.029 252.156 480.957 256.282 482.099L273.497 486.861C274.575 487.159 275.502 487.855 276.088 488.809L282.449 499.143C283.404 500.697 285.214 501.505 287.008 501.181L316.93 495.769C319.038 495.387 320.571 493.552 320.571 491.411V482.615C320.571 482.091 320.664 481.572 320.845 481.08L329.067 458.831C329.655 457.242 329.613 455.49 328.95 453.931L311.16 412.07L293.513 389.662C290.167 385.414 286.158 381.734 281.639 378.765C273.449 373.383 254.245 368.117 244.445 368.117L197.024 378.765C194.578 378.765 147.294 372.498 147.294 374.944V396.178C147.294 412.077 160.182 424.965 176.081 424.965H244.445C249.651 424.965 253.735 429.434 253.266 434.62Z" fill="#FFCC03"/>
<path d="M230.807 524.872L237.935 528.02C242.845 530.189 246.844 534.004 249.239 538.808M135.858 425.32V322.904C135.858 318.013 131.892 314.047 127 314.047H101.898L135.858 425.32ZM234.978 439.396L246 445.383C253.205 449.295 258.64 455.815 261.192 463.606L292.89 560.399L234.978 439.396ZM229.418 454.262C238.695 456.798 245.569 464.617 246.897 474.142L255.263 534.163L229.418 454.262Z" stroke="#EFEFEF" stroke-width="7.80257"/>
<path d="M76.2114 321.882C74.3358 323.735 72.4602 324.38 70.5845 323.819C68.3695 323.156 67.5752 320.581 67.5752 318.269C67.5752 313.493 71.4469 309.621 76.2229 309.621H110.756V318.644C110.756 320.716 110.038 322.961 108.101 323.698C106.108 324.457 104.114 323.852 102.12 321.882C99.2411 319.039 96.3624 319.039 93.4837 321.882C90.6049 324.726 87.7262 324.726 84.8475 321.882C81.9688 319.039 79.0901 319.039 76.2114 321.882Z" fill="black"/>
<path d="M284.587 567.6C284.587 568.823 285.578 569.814 286.801 569.814H393.092C394.316 569.814 395.307 568.823 395.307 567.6V560.957C395.307 559.733 394.316 558.742 393.092 558.742H286.801C285.578 558.742 284.587 559.733 284.587 560.957V567.6Z" fill="#666666"/>
<path d="M258.014 581.994C269.02 581.994 277.943 571.089 277.943 557.636C277.943 544.183 269.02 533.277 258.014 533.277C247.007 533.277 238.084 544.183 238.084 557.636C238.084 571.089 247.007 581.994 258.014 581.994Z" fill="white" stroke="black" stroke-width="5.85193"/>
<path d="M258.013 564.275C261.015 564.275 263.449 561.3 263.449 557.631C263.449 553.963 261.015 550.988 258.013 550.988C255.012 550.988 252.578 553.963 252.578 557.631C252.578 561.3 255.012 564.275 258.013 564.275Z" stroke="black" stroke-width="3.90128"/>
<path d="M132.515 424.77H254.693C262.03 424.77 267.979 430.719 267.979 438.056V444.699C267.979 454.483 260.048 462.414 250.264 462.414H170.159C149.369 462.414 132.515 445.56 132.515 424.77Z" fill="black"/>
<path d="M152.83 579.779C201.138 579.779 240.299 534.174 240.299 477.917C240.299 421.66 201.138 376.055 152.83 376.055C104.522 376.055 65.3613 421.66 65.3613 477.917C65.3613 534.174 104.522 579.779 152.83 579.779Z" stroke="black" stroke-width="9.75321"/>
<path d="M152.83 476.749L90.9804 404.934M152.83 375.188V476.749V375.188ZM152.83 476.749V578.311V476.749ZM152.83 476.749H240.299H152.83ZM152.83 476.749H65.3613H152.83ZM152.83 476.749L214.679 404.934L152.83 476.749ZM152.83 476.749L90.9804 548.563L152.83 476.749ZM152.83 476.749L214.679 548.563L152.83 476.749Z" stroke="black" stroke-width="5.85193"/>
<path d="M152.83 488.421C158.333 488.421 162.795 483.194 162.795 476.747C162.795 470.3 158.333 465.074 152.83 465.074C147.327 465.074 142.865 470.3 142.865 476.747C142.865 483.194 147.327 488.421 152.83 488.421Z" fill="white" stroke="black" stroke-width="5.85193"/>
</g>
<defs>
<clipPath id="clip0">
<rect width="565" height="588" fill="white"/>
</clipPath>
</defs>
</svg>
