<svg width="48" height="48" viewBox="0 0 48 48" fill="none" xmlns="http://www.w3.org/2000/svg">
<path d="M24 48C37.2548 48 48 37.2548 48 24C48 10.7452 37.2548 0 24 0C10.7452 0 0 10.7452 0 24C0 37.2548 10.7452 48 24 48Z" fill="#25D366"/>
<path fill-rule="evenodd" clip-rule="evenodd" d="M24.7915 37.3523H24.7856C22.3971 37.3515 20.0502 36.7522 17.9657 35.6153L10.4004 37.5998L12.425 30.2046C11.1761 28.0403 10.519 25.5853 10.52 23.07C10.5232 15.2015 16.9252 8.7998 24.7913 8.7998C28.609 8.80145 32.1922 10.2877 34.8866 12.9852C37.581 15.6826 39.064 19.2681 39.0625 23.0813C39.0594 30.9481 32.6599 37.3491 24.7915 37.3523ZM18.3163 33.0317L18.7494 33.2888C20.5706 34.3695 22.6582 34.9413 24.7867 34.9421H24.7915C31.3292 34.9421 36.6503 29.6209 36.6529 23.0805C36.6542 19.911 35.4215 16.9309 33.1821 14.6888C30.9426 12.4467 27.9644 11.2113 24.7961 11.2102C18.2533 11.2102 12.9322 16.5309 12.9296 23.0709C12.9286 25.3122 13.5558 27.4949 14.7431 29.3834L15.0252 29.8322L13.8269 34.2093L18.3163 33.0317ZM31.4928 26.1539C31.7415 26.2741 31.9095 26.3552 31.9812 26.4749C32.0703 26.6236 32.0703 27.3376 31.7733 28.1707C31.476 29.0036 30.0514 29.7638 29.3663 29.8661C28.752 29.958 27.9745 29.9963 27.1203 29.7248C26.6024 29.5605 25.9383 29.3411 25.0875 28.9737C21.7446 27.5302 19.4854 24.2902 19.0584 23.6778C19.0285 23.6349 19.0076 23.6049 18.9959 23.5893L18.9931 23.5855C18.8044 23.3337 17.5399 21.6466 17.5399 19.9006C17.5399 18.258 18.3467 17.3971 18.7181 17.0008C18.7436 16.9737 18.767 16.9487 18.7879 16.9258C19.1148 16.5688 19.5011 16.4796 19.7388 16.4796C19.9765 16.4796 20.2145 16.4818 20.4223 16.4922C20.4479 16.4935 20.4746 16.4933 20.5021 16.4932C20.7099 16.4919 20.969 16.4904 21.2246 17.1043C21.3229 17.3406 21.4668 17.6908 21.6185 18.0602C21.9253 18.8072 22.2643 19.6326 22.324 19.752C22.4132 19.9305 22.4726 20.1387 22.3537 20.3768C22.3359 20.4125 22.3194 20.4461 22.3036 20.4783C22.2143 20.6606 22.1487 20.7947 21.9971 20.9716C21.9376 21.0411 21.876 21.1161 21.8144 21.1911C21.6917 21.3405 21.5691 21.4899 21.4622 21.5963C21.2837 21.7741 21.0979 21.9671 21.3059 22.3241C21.5139 22.6811 22.2296 23.8487 23.2896 24.7943C24.4292 25.8107 25.4196 26.2403 25.9216 26.458C26.0196 26.5006 26.099 26.535 26.1573 26.5642C26.5137 26.7427 26.7217 26.7128 26.9298 26.4749C27.1378 26.237 27.8212 25.4337 28.0588 25.0767C28.2965 24.7199 28.5343 24.7793 28.8611 24.8983C29.1881 25.0174 30.9412 25.8799 31.2978 26.0584C31.3674 26.0933 31.4325 26.1247 31.4928 26.1539Z" fill="#FDFDFD"/>
</svg>
